<svg width="100" height="100" viewBox="0 0 100 100" fill="none" xmlns="http://www.w3.org/2000/svg">
<path fill-rule="evenodd" clip-rule="evenodd" d="M62.4351 50.0645H66.6007V47.9225H64.8428V46.708H72.216V47.9225H70.3082V53.4994H72.2072V54.714H64.8428V53.4994H66.6007V51.2405H62.4351V53.4994H64.2436V54.714H56.8982V53.4994H58.7276V47.9225H56.8704V46.708H64.2436V47.9225H62.4351V50.0645Z" fill="black"/>
<path d="M99 54.714V53.4994H97.1358L93.4609 46.708H89.0716L85.3155 53.4993H83.4652V54.714H89.0786V53.4993H87.4648L88.0635 52.4168H92.2649L92.8557 53.4994H90.8872V54.714H99ZM88.7137 51.2405L90.1777 48.5927L91.6228 51.2405H88.7137Z" fill="black"/>
<path d="M42.769 47.9225V46.708H56.1693V49.872H54.8366C54.5968 48.763 53.7658 47.9225 52.5105 47.9225H48.3338V50.0645H53.0916V51.2405H48.3338V53.4994H52.5105C53.6948 53.5228 54.5821 52.5802 54.8343 51.5209H56.1693V54.714H42.769V53.4994H44.6263V47.9225H42.769Z" fill="black"/>
<path fill-rule="evenodd" clip-rule="evenodd" d="M37.7054 48.9913C37.7155 50.1781 34.7187 50.0616 34.2428 50.0645V47.9225C34.7441 47.9337 37.695 47.7693 37.7054 48.9913ZM38.2522 52.3824C38.2283 53.6917 34.8673 53.4902 34.2428 53.4994V51.2405C34.801 51.2551 38.2761 51.0725 38.2522 52.3824ZM39.0884 46.708C42.0971 46.9374 42.3726 49.5208 40.3336 50.3931C40.7763 50.5202 42.4544 51.0045 42.5048 52.4054C42.4457 54.2872 40.3814 54.6797 38.8488 54.714H28.6749V53.4994H30.5322V47.9225H28.6749V46.708H39.0884Z" fill="black"/>
<path d="M28.0983 54.714V53.4994H26.234L22.5592 46.708H18.1699L14.4137 53.4993H12.5635V54.714H18.1769V53.4993H16.5631L17.1617 52.4168H21.363L21.9539 53.4994H19.9855V54.714H28.0983ZM17.8119 51.2405L19.2759 48.5927L20.7211 51.2405H17.8119Z" fill="black"/>
<path fill-rule="evenodd" clip-rule="evenodd" d="M3.04599 46H9.63793C10.2134 46 10.6839 46.4724 10.6839 47.0498V53.6642C10.6839 54.2415 10.2134 54.714 9.63793 54.714H3.04599C2.47075 54.714 2 54.2415 2 53.6642V47.0498C2 46.4724 2.47075 46 3.04599 46ZM2.94884 51.4918C3.32519 51.0747 3.95382 50.4469 4.51233 50.4469C5.18564 50.4469 5.85494 50.8973 6.40291 51.2525C6.84835 51.5411 7.48454 51.9783 8.02816 51.9783C8.17801 51.9783 8.32385 51.9582 8.46466 51.9058C8.86942 51.7553 9.24692 51.3142 9.52279 50.9912L9.71194 50.7698L9.72042 50.7798V51.6031C9.41785 51.9437 9.05823 52.2991 8.63227 52.4576C8.43716 52.5299 8.23564 52.5604 8.02816 52.5604C7.35496 52.5604 6.68555 52.11 6.13746 51.7547C5.69203 51.4661 5.05607 51.0289 4.51233 51.0289C4.09691 51.0289 3.41524 51.7898 3.15483 52.0911L2.96465 52.3111L2.94884 52.2927V51.4918ZM2.95675 48.961H9.72729V49.4837H2.95675V48.961Z" fill="black"/>
<path d="M77.3829 46.708H72.7655V50.3724V50.3794H74.0983C74.117 50.2928 74.1394 49.7004 74.1653 49.6173C74.4705 48.6369 75.2671 47.9225 76.4244 47.9225H77.3007V53.4994H75.4713V54.714H82.9281V53.4994H81.0987V47.9225H81.3491H81.9752C83.1324 47.9225 83.929 48.6369 84.2343 49.6173C84.2601 49.7004 84.2824 50.2928 84.3012 50.3794H85.634V50.3724V46.708H81.0167H77.3829Z" fill="black"/>
<path fill-rule="evenodd" clip-rule="evenodd" d="M3.04599 46H9.63793C10.2133 46 10.6839 46.4724 10.6839 47.0498V53.6642C10.6839 54.2416 10.2133 54.714 9.63793 54.714H3.04599C2.47075 54.714 2 54.2416 2 53.6642V47.0498C2 46.4724 2.47075 46 3.04599 46ZM2.94884 51.4918C3.32519 51.0747 3.95382 50.447 4.51233 50.447C5.18564 50.447 5.85494 50.8973 6.40291 51.2525C6.84835 51.5411 7.48454 51.9784 8.02816 51.9784C8.17801 51.9784 8.32385 51.9582 8.46466 51.9058C8.86953 51.7553 9.24692 51.3142 9.52279 50.9912L9.71183 50.7699L9.72042 50.7798V51.6031C9.41785 51.9437 9.05823 52.2991 8.63227 52.4574C8.43716 52.5299 8.23564 52.5604 8.02816 52.5604C7.35496 52.5604 6.68555 52.11 6.13746 51.7547C5.69203 51.466 5.05607 51.0289 4.51233 51.0289C4.09691 51.0289 3.41524 51.7899 3.15483 52.0911L2.96465 52.3111L2.94884 52.2927V51.4918ZM2.95675 48.961H9.72729V49.4837H2.95675V48.961Z" fill="black"/>
</svg>
