<svg width="272" height="244" viewBox="0 0 272 244" fill="none" xmlns="http://www.w3.org/2000/svg">
<path d="M0 144.937L3.62537 139.148C45.4925 73.7158 115.037 68.3752 134.704 68.2388L107.884 92.8562H107.845C52.2755 104.005 27.1318 143.299 25.9818 144.937C26.9759 146.379 44.6934 174.446 84.475 190.078C95.0197 194.23 106.481 196.705 106.597 196.744L91.2774 215.436C91.2774 215.436 45.1027 204.755 11.9091 162.557C9.14138 159.029 0 144.937 0 144.937Z" fill="black"/>
<path d="M271.805 103.752L268.18 109.541C226.313 174.973 156.768 180.313 137.101 180.45L163.921 155.832H163.96C219.53 144.684 244.673 105.389 245.823 103.752C244.829 102.31 227.112 74.2422 187.33 58.6103C176.785 54.4586 165.325 51.9833 165.208 51.9443L180.528 33.2522C180.528 33.2522 226.702 43.9334 259.896 86.1319C262.664 89.6598 271.805 103.752 271.805 103.752Z" fill="black"/>
<path d="M136.088 48.8836C142.091 48.8836 148.036 49.254 153.903 50.0141L173.94 31.517C161.699 28.5933 148.991 27.0535 136.088 27.0535C81.8826 27.0535 31.2834 54.2437 3.9957 98.0015L0.370331 103.79L3.9957 109.54C11.0905 120.923 19.6861 131.117 29.8605 140.278C68.726 175.226 114.608 178.247 120.144 179.631C120.3 179.67 120.436 179.67 120.592 179.67L137.861 158.561C137.686 158.6 137.452 158.6 137.277 158.6C137.277 158.6 125.134 158.424 117.084 157.274C57.3042 148.835 27.5606 105.447 26.3521 103.771C50.4238 69.7198 91.8426 48.8836 136.107 48.8836H136.088Z" fill="black"/>
<path d="M135.737 199.785C129.734 199.785 123.789 199.415 117.922 198.654L97.8849 217.152C110.125 220.075 122.834 221.615 135.737 221.615C189.942 221.615 240.541 194.425 267.829 150.667L271.454 144.878L267.829 139.128C260.734 127.745 252.138 117.551 241.964 108.391C202.416 72.8191 151.291 69.0183 151.115 69.0183L133.651 90.1858C133.827 90.1468 134.372 90.0688 134.548 90.0688C134.548 90.0688 146.691 90.2442 154.741 91.3942C214.52 99.8339 244.264 143.221 245.472 144.898C221.401 178.949 179.982 199.785 135.717 199.785H135.737Z" fill="black"/>
<path d="M136.068 199.785V221.634C123.165 221.634 110.476 220.095 98.1968 217.171L118.253 198.635C124.14 199.453 130.045 199.785 136.049 199.785H136.068Z" fill="black"/>
<path d="M173.94 31.4982L153.883 50.0343C148.055 49.2741 142.091 48.8843 136.088 48.8843V27.0347C148.991 27.0347 161.719 28.5745 173.959 31.4982H173.94Z" fill="black"/>
<path d="M208.049 0L142.169 113.77H174.563L174.485 113.848L68.2193 243.562L130.63 133.788H97.729L208.049 0Z" fill="black"/>
</svg>
