<svg width="100" height="100" viewBox="0 0 100 100" fill="none" xmlns="http://www.w3.org/2000/svg">
<path d="M14.0933 17.113C14.0331 17.1614 13.9879 18.2754 14.0029 19.5669L14.018 21.9238L18.8693 26.9284C21.521 29.6889 27.4722 35.8236 32.0675 40.5859C41.4387 50.2883 43.0508 51.935 43.2165 51.9995C43.2768 52.0157 43.4727 51.6121 43.6685 51.0632L44 50.0946L43.2768 49.1744C42.87 48.6739 41.966 47.56 41.2579 46.7044C39.691 44.8317 31.058 34.3383 27.2462 29.6728C25.7095 27.8001 22.7414 24.1839 20.6321 21.6332L16.8053 17H15.4945C14.7713 17 14.1385 17.0484 14.0933 17.113Z" fill="black"/>
<path d="M20.0694 17.2852C20.1954 17.4414 21.2039 18.6593 22.3385 19.9709C23.4573 21.2982 25.5531 23.7497 26.987 25.4361C29.4925 28.3873 30.8634 29.9956 38.5059 39.0053C40.4284 41.285 42.7605 44.0176 43.6587 45.0794L45.3133 47L45.6915 46.0943C45.8963 45.5947 46.0381 45.1106 45.9909 45.0169C45.9594 44.9389 43.1072 40.9883 39.672 36.2727C36.2211 31.5414 31.6513 25.2799 29.524 22.3444L25.6476 17.0041H22.7482C19.9433 16.9885 19.8645 17.0041 20.0694 17.2852Z" fill="black"/>
<path d="M29.2656 17.4275C29.5311 17.8709 36.8049 28.7805 37.9557 30.4747C38.2951 30.9656 40.3164 34.0057 42.4705 37.2358C44.6246 40.4501 46.4246 43.0469 46.4689 42.9994C46.5131 42.936 46.6607 42.6035 46.7787 42.2552L47 41.6218L40.4787 29.3505L33.9426 17.0792L31.4787 17.0317L29 17L29.2656 17.4275Z" fill="black"/>
<path d="M37 17.0423C37 17.0749 38.0597 19.1115 39.3582 21.5555C40.6567 24.0157 43.3881 29.1968 45.4328 33.0745C47.4627 36.9522 49.1791 40.0642 49.2388 39.999C49.2985 39.9338 49.4925 39.4287 49.6716 38.8748L50 37.8972L48.6418 34.7364C46.4627 29.6856 46.1194 28.9035 45.209 26.7529C44.7313 25.6287 43.597 22.9892 42.6866 20.8875L41.0299 17.0586L39.0149 17.0097C37.9104 16.9935 37 16.9935 37 17.0423Z" fill="black"/>
<path d="M43 17.08C43 17.16 48.9631 30.184 50.3671 33.16L51.2347 35L51.5187 34.36C52.2917 32.552 52.481 33.448 49.3733 24.808L46.5495 17H44.7826C43.8045 17 43 17.032 43 17.08Z" fill="black"/>
<path d="M47.1823 17.4653C47.2818 17.741 48.4088 20.8602 49.6851 24.4102C50.9613 27.9602 52.0552 30.9243 52.1215 30.9932C52.1878 31.0622 52.4033 30.5969 52.6188 29.9592L53 28.8046L51.558 22.8937L50.0994 17H48.558H47L47.1823 17.4653Z" fill="black"/>
<path d="M52 17.065C52 17.2017 54.1415 25.9312 54.1871 25.9996C54.2174 26.0167 54.4149 25.5212 54.6275 24.8721C55.1135 23.5054 55.1135 23.1637 54.6883 19.7129L54.3541 17.065L53.1847 17.0138C52.5316 16.9796 52 17.0138 52 17.065Z" fill="black"/>
<path d="M67.0039 17.2635C67.0788 17.5116 68.7417 22.1775 73.3409 34.9818C74.6143 38.5162 80.1573 53.9868 81.206 56.9166C81.6105 58.0172 82.824 61.4121 83.9026 64.4349C84.9813 67.4577 85.8951 69.9689 85.9401 69.9999C85.97 70.0309 86 58.1257 86 43.5387V17H76.472C67.4683 17 66.944 17.0155 67.0039 17.2635Z" fill="black"/>
<path d="M14 28.0504V31.1008L17.2825 33.7758C19.0815 35.2462 22.9637 38.4374 25.9148 40.8621C28.8659 43.2711 33.8685 47.3852 37.0405 49.9664C40.2125 52.5631 42.9269 54.7844 43.0689 54.8939C43.3056 55.0973 43.353 55.0504 43.6686 54.3777L44 53.6268L43.4792 53.1419C41.9169 51.6558 37.9243 47.8702 35.9358 45.9461C34.6733 44.7416 32.6533 42.8018 31.4382 41.6442C30.223 40.4866 26.4198 36.8575 22.9953 33.588C19.5708 30.3186 16.1462 27.0492 15.3887 26.3297L14 25V28.0504Z" fill="black"/>
<path d="M14 36.8287L14.016 39.7549L18.7425 42.7873C21.3381 44.455 26.6094 47.8513 30.4707 50.3529C41.9265 57.7518 42.3912 58.0551 42.4232 57.9944C42.5193 57.8883 43 56.645 43 56.5237C43 56.4631 41.8945 55.5382 40.5646 54.4921C39.2188 53.4459 35.3735 50.4591 32.0088 47.8361C28.6602 45.2283 23.3249 41.074 20.1525 38.6026C16.9961 36.1464 14.3044 34.0844 14.2083 34.0086C14.0481 33.9177 14 34.5241 14 36.8287Z" fill="black"/>
<path d="M57.9119 43.1963C55.9766 48.3186 53.5813 54.6264 52.5978 57.2255C49.9804 64.126 46.3001 73.8385 45.0787 77.0608L44 79.8727L61.4652 79.9487C71.0782 79.9943 78.9622 80.0095 78.9939 79.9943C79.0574 79.9487 78.7877 79.2343 70.0471 56.2375C66.4938 46.9202 63.1626 38.1197 62.6391 36.7062C62.0997 35.2774 61.6239 34.0615 61.5604 34.0007C61.497 33.9399 59.8631 38.0741 57.9119 43.1963Z" fill="black"/>
<path d="M14 43.9977V46.9955L23.9592 52.6439C29.4186 55.7363 35.3815 59.1285 37.1751 60.1382L40.4477 62L40.6679 61.4951C41.1871 60.2487 41.1714 60.2329 40.0858 59.4598C39.5351 59.0811 36.2941 56.7776 32.88 54.3636C29.4658 51.9497 24.148 48.1946 21.08 46.0331C18.012 43.8715 15.1643 41.852 14.7552 41.5522L14 41V43.9977Z" fill="black"/>
<path d="M14.0318 51.7195L14.0795 54.4391L18.7703 56.4032C21.3463 57.491 26.6891 59.7271 30.6167 61.3739C34.5601 63.0208 38.0902 64.5165 38.4877 64.6827C38.8852 64.8489 39.2828 65 39.3623 65C39.5849 65 40.1414 63.4891 39.9665 63.3381C39.9029 63.2625 37.4382 61.8876 34.5124 60.271C27.8817 56.6298 18.5318 51.4929 15.9399 50.0727L14 49L14.0318 51.7195Z" fill="black"/>
<path d="M14 57.8651V59.7865L19.3285 61.6923C22.253 62.7305 25.7747 64.0011 27.168 64.4814C28.5614 64.9773 31.3788 65.9845 33.4458 66.7127C35.4976 67.4565 37.2431 68.0298 37.3197 67.9988C37.4575 67.9523 38.07 66.4803 37.9934 66.4028C37.9628 66.3718 36.646 65.783 35.0536 65.0857C22.5286 59.6315 14.3522 56.0677 14.1991 56.0057C14.0459 55.9437 14 56.3776 14 57.8651Z" fill="black"/>
<path d="M14 62.9558V64.9865L22.2109 67.1747C26.7207 68.3711 31.7747 69.7249 33.4387 70.1814L36.4711 71L36.7355 70.4175C36.8754 70.1027 36.9998 69.7406 36.9998 69.6147C37.0154 69.4415 36.0046 69.0165 33.4853 68.0877C31.5259 67.3793 27.8403 66.0255 25.2744 65.0809C22.7085 64.1364 19.2407 62.8613 17.5612 62.2474C15.8972 61.6334 14.4043 61.0824 14.2644 61.0195C14.0311 60.925 14 61.1139 14 62.9558Z" fill="black"/>
<path d="M14.0039 68.6326L14.0498 70.2791L23.9124 71.6326C29.3407 72.3721 33.9432 72.986 34.1573 73C34.616 73 35.2582 72.2186 34.8913 72.093C34.6925 72.0372 26.7718 70.0837 18.7747 68.1302C16.2517 67.5023 14.1415 67 14.0804 67C14.0192 67 13.9886 67.7395 14.0039 68.6326Z" fill="black"/>
<path d="M14 72.9259V74.8704L14.7939 74.963C15.6477 75.0741 30.207 76 31.1057 76C31.6 76 31.7048 75.9259 31.8696 75.3889C32.0793 74.7963 32.0643 74.7963 31.615 74.6667C31.0757 74.5 14.3445 71 14.1348 71C14.0599 71 14 71.8333 14 72.9259Z" fill="black"/>
<path d="M14 77.5V79H21.2033H28.3918L28.7327 78.25C28.9254 77.8538 29.0439 77.5 28.9847 77.4858C28.9402 77.4717 25.798 77.1604 22.0037 76.8066C18.2093 76.4528 14.8597 76.1274 14.5632 76.0849L14 76V77.5Z" fill="black"/>
<path d="M14 81.5102V83H20.7747H27.5646L27.824 81.8776C27.9766 81.2653 28.0376 80.6939 27.9766 80.6122C27.9156 80.5306 25.7642 80.3878 23.1855 80.3061C20.6068 80.2245 17.4942 80.1224 16.2582 80.0816L14 80V81.5102Z" fill="black"/>
</svg>
