<svg width="100" height="100" viewBox="0 0 100 100" fill="none" xmlns="http://www.w3.org/2000/svg">
<path d="M92.7764 39.4695C92.3093 39.6204 91.8374 40.1313 91.7011 40.6373C91.6135 40.9584 91.6719 41.4742 91.8276 41.7953C92.3336 42.8268 93.7155 43.0507 94.5135 42.2332C95.3698 41.3477 95.0536 39.9269 93.8955 39.489C93.6036 39.3771 93.0976 39.3722 92.7764 39.4695ZM93.8712 39.9026C94.6448 40.2675 94.8541 41.2455 94.2896 41.8829C94.0318 42.1797 93.7204 42.3257 93.3408 42.3305C92.8056 42.3354 92.3872 42.0581 92.1536 41.5423C91.9444 41.0849 92.0612 40.5059 92.4456 40.141C92.8202 39.7809 93.4041 39.6836 93.8712 39.9026Z" fill="black"/>
<path d="M5.03404 40.355C5.01458 40.3696 4.99998 40.7053 5.00485 41.0946L5.00971 41.805L6.57646 43.3133C7.43281 44.1454 9.35475 45.9943 10.8388 47.4297C13.8652 50.3539 14.3858 50.8502 14.4394 50.8697C14.4588 50.8746 14.5221 50.7529 14.5853 50.5875L14.6924 50.2955L14.4588 50.0182C14.3274 49.8674 14.0355 49.5316 13.8068 49.2738C13.3008 48.7093 10.5128 45.5467 9.28176 44.1405C8.78547 43.5761 7.82693 42.4862 7.14574 41.7174L5.90986 40.3209H5.48655C5.253 40.3209 5.04864 40.3355 5.03404 40.355Z" fill="black"/>
<path d="M7.14569 40.4134C7.18461 40.462 7.49602 40.8415 7.84634 41.2503C8.1918 41.6638 8.83894 42.4277 9.28171 42.9532C10.0554 43.8728 10.4787 44.374 12.8385 47.1815C13.4321 47.8919 14.1522 48.7434 14.4296 49.0742L14.9405 49.6727L15.0572 49.3905C15.1205 49.2348 15.1643 49.084 15.1497 49.0548C15.14 49.0304 14.2593 47.7994 13.1986 46.33C12.133 44.8557 10.7219 42.9046 10.0651 41.9898L8.86813 40.3258H7.97285C7.10676 40.3209 7.08243 40.3258 7.14569 40.4134Z" fill="black"/>
<path d="M9.79266 40.4523C9.88024 40.5886 12.279 43.941 12.6585 44.4616C12.7704 44.6124 13.437 45.5467 14.1474 46.5393C14.8578 47.527 15.4514 48.3249 15.466 48.3103C15.4806 48.2909 15.5293 48.1887 15.5682 48.0817L15.6412 47.887L13.4906 44.1162L11.3351 40.3453L10.5225 40.3307L9.70508 40.3209L9.79266 40.4523Z" fill="black"/>
<path d="M11.9092 40.3405C11.9092 40.3502 12.2546 40.9584 12.678 41.6883C13.1013 42.423 13.9917 43.9703 14.6583 45.1283C15.32 46.2863 15.8796 47.2156 15.899 47.1962C15.9185 47.1767 15.9817 47.0259 16.0401 46.8605L16.1472 46.5685L15.7044 45.6246C14.994 44.1162 14.8821 43.8827 14.5853 43.2404C14.4296 42.9047 14.0598 42.1164 13.763 41.4888L13.2229 40.3453L12.566 40.3307C12.206 40.3259 11.9092 40.3259 11.9092 40.3405Z" fill="black"/>
<path d="M13.9042 40.3452C13.9042 40.3696 15.7434 44.3302 16.1764 45.2352L16.444 45.7948L16.5316 45.6001C16.77 45.0503 16.8284 45.3228 15.8699 42.6953L14.9989 40.3209H14.454C14.1523 40.3209 13.9042 40.3306 13.9042 40.3452Z" fill="black"/>
<path d="M15.5634 40.4523C15.5926 40.5302 15.9235 41.4109 16.2981 42.4132C16.6728 43.4155 16.9939 44.2524 17.0134 44.2719C17.0328 44.2914 17.0961 44.16 17.1593 43.98L17.2713 43.654L16.8479 41.985L16.4198 40.321H15.9673H15.5099L15.5634 40.4523Z" fill="black"/>
<path d="M16.8722 40.3453C16.8722 40.3842 17.5583 42.8706 17.5728 42.8901C17.5826 42.8949 17.6458 42.7538 17.714 42.5689C17.8697 42.1797 17.8697 42.0824 17.7334 41.0995L17.6264 40.3453L17.2517 40.3307C17.0425 40.321 16.8722 40.3307 16.8722 40.3453Z" fill="black"/>
<path d="M21.553 40.4037C21.5773 40.4816 22.1174 41.9461 23.6112 45.9652C24.0248 47.0745 25.8251 51.9305 26.1657 52.8501C26.297 53.1955 26.6912 54.2611 27.0415 55.2099C27.3918 56.1587 27.6886 56.947 27.7032 56.9567C27.7129 56.9664 27.7227 53.2296 27.7227 48.651V40.321H24.6281C21.7039 40.321 21.5336 40.3259 21.553 40.4037Z" fill="black"/>
<path d="M5 43.5372V44.486L6.01206 45.3181C6.56674 45.7754 7.76369 46.768 8.67357 47.5222C9.58345 48.2715 11.1259 49.5512 12.1039 50.354C13.0819 51.1617 13.9187 51.8526 13.9625 51.8867C14.0355 51.9499 14.0501 51.9353 14.1474 51.7261L14.2496 51.4926L14.089 51.3417C13.6073 50.8795 12.3763 49.702 11.7633 49.1035C11.374 48.7289 10.7512 48.1255 10.3766 47.7655C10.0019 47.4054 8.82927 46.2766 7.77342 45.2597C6.71758 44.2427 5.66173 43.2258 5.42818 43.002L5 42.5884V43.5372Z" fill="black"/>
<path d="M86.7041 42.71C85.7066 42.8268 84.9379 43.1284 84.4026 43.6247C84.0426 43.9556 83.7847 44.2962 83.8528 44.3546C83.8772 44.3789 84.2129 44.6514 84.6021 44.9628L85.3028 45.5272L85.4098 45.1233C85.6337 44.2913 85.9159 43.8777 86.4414 43.6199C86.7576 43.4642 86.7868 43.4593 87.3756 43.4593C87.9448 43.4593 88.0032 43.469 88.2611 43.5955C88.7525 43.8388 89.1175 44.3935 89.2294 45.0698C89.2975 45.4834 89.2148 45.9797 89.0056 46.4225C88.8304 46.7874 88.7039 46.9382 88.339 47.1718C87.9156 47.4491 87.5118 47.5367 86.7771 47.5124L86.2078 47.4978V48.0719V48.651L86.4122 48.6169C86.7917 48.5536 87.8183 48.5828 88.1297 48.6655C88.8304 48.8553 89.3607 49.3419 89.5359 49.9598C89.857 51.0984 89.4921 52.198 88.6212 52.7235C88.2222 52.9619 87.7843 53.069 87.2053 53.0738C86.456 53.0787 86.1251 52.9911 85.6677 52.6505C85.3709 52.4316 85.152 52.091 84.9719 51.5412L84.8211 51.0984L84.1204 51.8185L83.4149 52.5337L83.5803 52.704C83.9453 53.0787 84.753 53.5361 85.3369 53.7015C86.1056 53.9107 88.047 53.9253 89.1321 53.7258C90.5382 53.4631 91.6233 52.7673 92.0661 51.838C92.2704 51.4049 92.3385 51.0886 92.3385 50.5729C92.3385 49.3321 91.6671 48.4612 90.475 48.1547C90.2755 48.106 89.9544 48.0476 89.7646 48.0281C89.5748 48.0135 89.424 47.9844 89.4386 47.9746C89.4483 47.9649 89.7013 47.8724 89.9982 47.7654C90.6599 47.5367 90.9032 47.4005 91.1756 47.0939C91.7595 46.4468 91.9639 45.318 91.6525 44.4714C91.4919 44.0432 90.981 43.5566 90.3825 43.2695C89.3364 42.7635 88.0032 42.5591 86.7041 42.71Z" fill="black"/>
<path d="M33.4884 46.8993C32.5785 48.9331 31.6346 51.0399 31.3962 51.58L30.9583 52.558L30.6225 52.5726C30.3355 52.5872 30.2965 52.597 30.3257 52.6699C30.389 52.8256 30.4084 53.6771 30.3598 53.9447C30.3306 54.0907 30.316 54.2172 30.3257 54.227C30.3355 54.2367 30.423 54.188 30.5301 54.1248C30.8901 53.8961 31.2405 53.7404 31.4789 53.7063C31.6103 53.682 33.6636 53.6869 36.0477 53.7063C40.7626 53.7501 40.6166 53.7404 41.1761 54.0372C41.3124 54.1053 41.434 54.1686 41.4486 54.1783C41.4632 54.1832 41.4584 54.0664 41.434 53.9107C41.3854 53.6333 41.4097 52.9716 41.473 52.7186L41.5021 52.5872L41.108 52.5726L40.709 52.558L40.2809 51.5606C40.0473 51.0108 39.551 49.8625 39.1812 49.0061C38.8114 48.1497 38.0962 46.4954 37.595 45.3325L36.6803 43.216L36.4711 43.2403C36.1694 43.2744 35.6196 43.2695 35.3617 43.2306L35.1427 43.1965L33.4884 46.8993ZM35.352 46.5003C35.4055 46.6463 35.9796 48.067 36.6219 49.6581C37.269 51.2443 37.7945 52.5532 37.7945 52.5629C37.7945 52.5726 36.6024 52.5824 35.1427 52.5824C33.683 52.5824 32.4909 52.5629 32.4909 52.5434C32.4909 52.5094 33.5225 50.0571 34.9578 46.6803C35.0843 46.3932 35.1963 46.1743 35.2157 46.1938C35.2352 46.2132 35.2984 46.3543 35.352 46.5003Z" fill="black"/>
<path d="M42.7574 45.5856C42.7574 46.8799 42.772 49.23 42.7915 50.8162L42.8207 53.6967L44.0809 53.6918H45.3362V51.4341V49.1765H46.3775C47.375 49.1765 47.4382 49.1716 48.0172 49.0256C49.0682 48.7629 49.7932 48.3201 50.2165 47.6827C50.5863 47.1134 50.6544 46.8799 50.6593 46.0624C50.6593 45.4494 50.6495 45.3277 50.5571 45.1136C50.2554 44.3887 49.7835 43.834 49.2677 43.5907C48.5865 43.2647 48.6595 43.2696 45.5698 43.255L42.7574 43.2355V45.5856ZM46.6646 44.1405C47.4723 44.3497 47.8469 44.7974 47.9929 45.7219C48.0659 46.1695 48.0659 46.2425 47.9929 46.549C47.8567 47.1572 47.4479 47.8092 47.0636 48.0379C46.7862 48.1985 46.285 48.3007 45.7644 48.3007H45.3362V47.3129C45.3362 46.7728 45.3508 45.8192 45.3703 45.1964L45.3995 44.0675H45.8909C46.1731 44.0675 46.5089 44.0967 46.6646 44.1405Z" fill="black"/>
<path d="M52.0022 48.4806V53.7258H55.2622H58.5222V53.0738V52.4218L58.0989 52.4559C56.8873 52.5434 56.1331 52.5824 55.3984 52.5824H54.581V51.4973C54.581 50.9037 54.5664 50.0376 54.5469 49.5705L54.5177 48.7239L56.0456 48.758C56.8873 48.7726 57.7534 48.8017 57.9772 48.8163L58.3762 48.8455V48.2276V47.6097L57.6123 47.6535C56.9165 47.6875 54.6394 47.6924 54.6005 47.6583C54.5907 47.6486 54.5713 46.9139 54.5518 46.0235L54.5177 44.4081H55.4617C56.3132 44.4081 57.0333 44.4421 58.1475 44.5346L58.5222 44.5686V43.902V43.2403H55.2622H52.0022V48.4806Z" fill="black"/>
<path d="M60.7118 48.4709V53.7063L63.5971 53.6917L66.4776 53.6771L66.8766 53.5506C67.5967 53.3268 68.0249 52.9813 68.3314 52.3829C68.6379 51.7698 68.7742 50.6799 68.6234 50.0327C68.4628 49.3564 68.0735 48.8455 67.4945 48.5536C67.0761 48.3444 66.5798 48.2033 66.137 48.1692C65.6991 48.1351 65.738 48.0962 66.2927 48.0086C67.2123 47.8627 68.1903 47.0793 68.419 46.3105C68.5212 45.9602 68.5212 45.2401 68.419 44.8946C68.2146 44.1988 67.6308 43.649 66.8182 43.3814C66.4825 43.2695 66.4533 43.2695 63.5971 43.25L60.7118 43.2354V48.4709ZM65.0276 44.2329C65.3828 44.3448 65.738 44.6805 65.8743 45.0308C65.9667 45.2595 65.9862 45.4055 65.991 45.8434C65.991 46.3543 65.9813 46.3981 65.8305 46.7046C65.6456 47.0793 65.2904 47.4296 64.9206 47.5999C64.6286 47.7313 64.0691 47.7897 63.5582 47.741L63.1933 47.707V45.9067V44.1064L63.9864 44.1307C64.5216 44.1453 64.8525 44.1794 65.0276 44.2329ZM64.8184 48.7385C65.1444 48.8504 65.5142 49.1083 65.7186 49.3613C66.1127 49.8673 66.244 50.9961 65.9862 51.6627C65.8548 51.9936 65.5969 52.3634 65.3877 52.5045C64.9498 52.811 64.5362 52.8743 63.5679 52.7964L63.1933 52.7624V50.7042V48.6412H63.8647C64.4097 48.6412 64.5946 48.6606 64.8184 48.7385Z" fill="black"/>
<path d="M70.9686 47.3274C70.9588 49.5753 70.954 51.9303 70.954 52.558V53.7063L71.5865 53.7112H72.2142L73.0851 52.6991C74.2188 51.3805 75.9802 49.3953 76.6225 48.7141C77.6102 47.668 78.6514 46.5976 78.6855 46.5976C78.7001 46.5976 78.7147 48.1886 78.7147 50.1349V53.6771H80.0284H81.3422V49.3418C81.3422 46.9576 81.3276 44.6075 81.3081 44.1258L81.2789 43.2403L80.5928 43.2451H79.9068L78.4714 44.9724C76.7976 46.9917 76.3841 47.4588 75.192 48.6801C74.7054 49.1812 74.1313 49.7748 73.922 50.0035C73.7128 50.2322 73.523 50.422 73.5036 50.4317C73.4647 50.4463 73.4793 47.9454 73.5328 44.6416L73.5522 43.2403L73.3236 43.2792C73.0267 43.323 71.3432 43.323 71.1389 43.2792L70.9783 43.2403L70.9686 47.3274Z" fill="black"/>
<path d="M5 46.2181L5.00487 47.1572L6.44023 48.1304C7.22847 48.6656 8.82927 49.7555 10.0019 50.5583C13.4808 52.9328 13.6219 53.0301 13.6317 53.0106C13.6609 52.9765 13.8068 52.5776 13.8068 52.5386C13.8068 52.5192 13.4711 52.2224 13.0673 51.8866C12.6585 51.5509 11.4908 50.5924 10.469 49.7506C9.45208 48.9137 7.83181 47.5805 6.86841 46.7874C5.90988 45.9992 5.09245 45.3375 5.06325 45.3131C5.0146 45.2839 5 45.4786 5 46.2181Z" fill="black"/>
<path d="M18.8672 48.505C18.2735 50.1447 17.5388 52.164 17.2372 52.996C16.4343 55.205 15.3055 58.3142 14.9308 59.3457L14.6 60.2459L19.9571 60.2702C22.9057 60.2848 25.3239 60.2896 25.3336 60.2848C25.3531 60.2702 25.2704 60.0415 22.5894 52.6798C21.4995 49.6971 20.4777 46.8799 20.3171 46.4274C20.1517 45.97 20.0057 45.5808 19.9863 45.5613C19.9668 45.5418 19.4656 46.8653 18.8672 48.505Z" fill="black"/>
<path d="M5 48.6315V49.5559L8.07996 51.2978C9.76834 52.2515 11.6124 53.2976 12.1671 53.609L13.1792 54.1832L13.2473 54.0275C13.4079 53.6431 13.403 53.6382 13.0673 53.3998C12.897 53.283 11.8946 52.5726 10.8388 51.8282C9.78294 51.0838 8.13835 49.9257 7.18955 49.2591C6.24074 48.5925 5.36006 47.9697 5.23355 47.8773L5 47.707V48.6315Z" fill="black"/>
<path d="M5.00973 50.8843L5.02433 51.7601L6.4597 52.3926C7.24793 52.743 8.88279 53.4631 10.0846 53.9934C11.2913 54.5238 12.3715 55.0055 12.4931 55.059C12.6148 55.1125 12.7364 55.1612 12.7607 55.1612C12.8288 55.1612 12.9991 54.6746 12.9456 54.626C12.9262 54.6016 12.172 54.1589 11.2767 53.6382C9.24772 52.4656 6.38671 50.8113 5.59361 50.3539L5 50.0085L5.00973 50.8843Z" fill="black"/>
<path d="M5 52.8889V53.4922L6.69325 54.0907C7.62259 54.4167 8.74169 54.8157 9.18447 54.9665C9.62724 55.1222 10.5225 55.4385 11.1794 55.6672C11.8314 55.9007 12.3861 56.0808 12.4104 56.071C12.4542 56.0564 12.6488 55.5942 12.6245 55.5699C12.6148 55.5601 12.1963 55.3752 11.6903 55.1563C7.71017 53.4436 5.11191 52.3245 5.06325 52.305C5.0146 52.2855 5 52.4218 5 52.8889Z" fill="black"/>
<path d="M5 54.6114V55.2391L7.56907 55.9154C8.98011 56.2852 10.5614 56.7036 11.0821 56.8447L12.0309 57.0977L12.1136 56.9177C12.1574 56.8204 12.1963 56.7085 12.1963 56.6696C12.2012 56.616 11.8849 56.4847 11.0967 56.1976C10.4836 55.9786 9.33044 55.5602 8.5276 55.2683C7.72477 54.9763 6.63973 54.5822 6.11424 54.3924C5.59361 54.2027 5.12651 54.0324 5.08272 54.0129C5.00973 53.9837 5 54.0421 5 54.6114Z" fill="black"/>
<path d="M5.00978 56.3144L5.02438 56.8885L8.16273 57.3605C9.89004 57.6184 11.3546 57.8325 11.4227 57.8373C11.5687 57.8373 11.773 57.5649 11.6563 57.5211C11.593 57.5016 9.07261 56.8204 6.52787 56.1392C5.72504 55.9203 5.05358 55.7451 5.03411 55.7451C5.01465 55.7451 5.00492 56.003 5.00978 56.3144Z" fill="black"/>
<path d="M30.3014 58.7618V61H61.32H92.3385V58.7618V56.5236H61.32H30.3014V58.7618ZM85.6823 57.0831C85.7845 57.307 86.164 57.307 86.2662 57.0831C86.3051 56.9956 86.3586 56.9615 86.4608 56.9615C86.5873 56.9615 86.6019 56.9761 86.5727 57.0685C86.456 57.4724 86.0375 57.6622 85.6726 57.4724C85.5266 57.3994 85.3806 57.1756 85.3806 57.0345C85.3806 56.908 85.6191 56.942 85.6823 57.0831ZM37.4782 57.92V58.1536L36.8116 58.1682L36.1402 58.1828V59.3457V60.5134H35.8482H35.5563V59.1073C35.5563 57.8276 35.566 57.6962 35.639 57.6816C35.6828 57.6719 36.1159 57.6719 36.5976 57.6768L37.4782 57.6865V57.92ZM40.3295 57.7692C40.6069 57.8908 40.7334 58.0952 40.7528 58.4747C40.7918 59.1511 40.4366 59.443 39.5753 59.443H39.2055V59.9782V60.5134H38.9136H38.6217V59.0878V57.667L39.3856 57.6816C39.9549 57.6914 40.1981 57.7157 40.3295 57.7692ZM42.3828 57.7108C42.4169 57.7497 42.5774 58.066 42.7331 58.4163C42.8888 58.7667 43.03 59.0537 43.0445 59.0537C43.064 59.0537 43.1808 58.7764 43.3073 58.4309C43.4338 58.0903 43.5554 57.7887 43.5749 57.7546C43.6041 57.7059 43.8377 57.6768 44.1004 57.6865C44.1977 57.6914 44.1637 57.7838 43.7111 58.7959C42.9667 60.4745 42.9375 60.5134 42.4315 60.5134H42.1249V60.2945V60.0755H42.3196C42.5337 60.0755 42.7575 59.9101 42.7575 59.7544C42.7575 59.7106 42.5385 59.2435 42.2709 58.7131C42.0033 58.1779 41.7843 57.7351 41.7843 57.7205C41.7843 57.7059 41.8865 57.6865 42.0179 57.6768C42.1444 57.667 42.2612 57.6573 42.2806 57.6524C42.3001 57.6476 42.3439 57.6719 42.3828 57.7108ZM47.5745 59.0927V60.5183L47.2971 60.5037L47.0149 60.4891L47.0003 59.3311L46.9906 58.1779H46.4554H45.9202V59.3457V60.5134H45.6282H45.3363V59.1121C45.3363 58.3385 45.346 57.6962 45.3557 57.6865C45.3655 57.6768 45.8715 57.667 46.4748 57.667H47.5745V59.0927ZM51.2724 59.0878V60.5134H50.9804H50.6885V59.3457V58.1779H50.1533H49.6181L49.6083 59.3311L49.5937 60.4891L49.3164 60.5037L49.0342 60.5183V59.1073V57.6914L50.0219 57.6816C50.562 57.6719 51.0632 57.667 51.141 57.667H51.2724V59.0878ZM54.6491 59.0099C54.9362 59.7301 55.1844 60.3626 55.199 60.421C55.2233 60.5134 55.2087 60.5183 54.9168 60.5037L54.6102 60.4891L54.4886 60.1826L54.3718 59.8809H53.8074H53.243L53.1311 60.1972L53.0143 60.5134H52.7272C52.5326 60.5134 52.4401 60.494 52.4401 60.4502C52.4401 60.3675 53.4668 57.7205 53.5154 57.6914C53.5349 57.6768 53.6809 57.6719 53.8366 57.6816L54.1285 57.7011L54.6491 59.0099ZM59.398 58.2801C59.398 58.7569 59.4126 58.8591 59.471 58.8591C59.544 58.8591 59.7386 58.6742 59.7386 58.6061C59.7386 58.5818 59.8165 58.4017 59.9089 58.2022C60.1035 57.7935 60.2203 57.7059 60.6193 57.6573L60.8577 57.6281V57.8471C60.8577 58.066 60.8577 58.066 60.668 58.1001C60.4928 58.1244 60.4636 58.1536 60.3517 58.392C60.2836 58.538 60.2252 58.6791 60.2252 58.7083C60.2252 58.7326 60.1717 58.8202 60.1035 58.898L59.9868 59.0391L60.123 59.1413C60.2495 59.2338 60.8577 60.3285 60.8577 60.4599C60.8577 60.494 60.7361 60.5134 60.5415 60.5134H60.2252L60.0111 60.0512C59.7484 59.4868 59.617 59.297 59.4905 59.297C59.4029 59.297 59.398 59.3359 59.398 59.9052V60.5134H59.1061H58.8141V59.1073V57.6962L59.0234 57.6816C59.4126 57.6524 59.398 57.633 59.398 58.2801ZM63.962 57.7692C64.4534 58.0125 64.6675 58.4115 64.6724 59.0781C64.6724 59.6133 64.5508 59.9296 64.2442 60.2118C63.9815 60.4502 63.7479 60.5329 63.3149 60.5378C62.8526 60.5378 62.5704 60.421 62.3028 60.1242C62.0401 59.8322 61.9525 59.5549 61.9525 59.0294C61.9574 58.6985 61.9768 58.5915 62.0936 58.3579C62.2396 58.0563 62.5023 57.8033 62.7602 57.7108C62.8526 57.6768 63.1008 57.6476 63.3197 57.6476C63.6457 57.6427 63.7479 57.6622 63.962 57.7692ZM66.8376 57.7449C66.8473 57.7838 66.9641 58.1925 67.0858 58.6596C67.2123 59.1267 67.3242 59.4868 67.3388 59.4625C67.3631 59.4235 67.4945 58.9516 67.7718 57.8714L67.8205 57.6914H68.2535H68.6914V59.1024V60.5134H68.4238H68.1562L68.1465 59.4625L68.1319 58.4163L67.8691 59.4625L67.6064 60.5134H67.329H67.0468L66.7792 59.4527L66.5116 58.3969L66.5068 59.4527L66.5019 60.5134H66.2343H65.9667V59.0878V57.667L66.39 57.6719C66.7062 57.6768 66.8182 57.6914 66.8376 57.7449ZM72.3407 59.0878V60.5134H72.0487H71.7568V59.3457V58.1779H71.2216H70.6864V59.3457V60.5134H70.3944H70.1025V59.1073V57.6962L70.2387 57.6816C70.3117 57.6719 70.8129 57.667 71.3578 57.667H72.3407V59.0878ZM78.0335 58.212V58.7618H78.593H79.1526V58.212V57.667H79.4445H79.7365V59.0878V60.5134H79.4445H79.1526V59.915C79.1526 59.5841 79.1429 59.3019 79.1331 59.2922C79.1234 59.2824 78.8704 59.2776 78.5736 59.2873L78.0335 59.3019V59.9101V60.5134H77.7416H77.4496V59.1121C77.4496 58.3385 77.4593 57.6962 77.4691 57.6865C77.4788 57.6768 77.6102 57.667 77.761 57.667H78.0335V58.212ZM81.7314 58.5623L81.7557 59.4479L82.2861 58.572L82.8213 57.7011L83.1084 57.6816C83.2641 57.6719 83.4052 57.6768 83.4149 57.6865C83.4246 57.6962 83.4344 58.3385 83.4344 59.1121V60.5183L83.157 60.5037L82.8748 60.4891L82.8505 59.623L82.8262 58.7521L82.5099 59.2727C82.3347 59.5549 82.0915 59.9539 81.9649 60.1534L81.7314 60.5183L81.4541 60.5037L81.1718 60.4891L81.1572 59.1267C81.1524 58.3774 81.1524 57.7449 81.167 57.7157C81.1767 57.6914 81.3032 57.667 81.4443 57.6719H81.7071L81.7314 58.5623ZM85.3904 58.572L85.405 59.5014L85.9061 58.6742C86.563 57.5892 86.4803 57.6816 86.8063 57.6719L87.0836 57.667V59.0878V60.5134H86.816H86.5484V59.6036V58.6937L85.984 59.6036L85.4196 60.5134H85.1325H84.8454V59.1073V57.6962L85.079 57.6768C85.2055 57.667 85.3223 57.6573 85.3417 57.6524C85.3612 57.6476 85.3855 58.0611 85.3904 58.572ZM75.3039 57.9444C75.3671 58.0855 75.6104 58.6937 75.8537 59.297C76.0921 59.9004 76.3013 60.421 76.3159 60.455C76.3354 60.5037 76.2673 60.5134 76.0142 60.5037L75.6882 60.4891L75.5763 60.1972L75.4693 59.9052H74.8951H74.3259L74.214 60.1972L74.1069 60.4891L73.8101 60.5037C73.6447 60.5134 73.5084 60.4988 73.5084 60.4745C73.5084 60.4453 73.7274 59.8614 73.9999 59.1705C74.2723 58.4747 74.5108 57.8617 74.5351 57.7984C74.574 57.7011 74.6081 57.6914 74.8854 57.6914H75.1968L75.3039 57.9444Z" fill="black"/>
<path d="M39.2056 58.572V58.971L39.5802 58.9467C39.9111 58.9224 39.9646 58.9078 40.0668 58.791C40.2128 58.6207 40.2079 58.4455 40.0571 58.2996C39.9549 58.1925 39.8965 58.1779 39.5705 58.1779H39.2056V58.572Z" fill="black"/>
<path d="M53.6176 58.8543C53.53 59.0879 53.4619 59.302 53.4619 59.3263C53.4619 59.3701 54.1431 59.3895 54.1431 59.3457C54.148 59.2825 53.8268 58.4213 53.8025 58.4213C53.7879 58.4213 53.7052 58.6159 53.6176 58.8543Z" fill="black"/>
<path d="M62.95 58.2169C62.4439 58.4845 62.4147 59.6279 62.911 59.9296C63.2808 60.1534 63.8015 60.0026 63.9766 59.6182C64.1129 59.3214 64.1031 58.791 63.9572 58.5185C63.7674 58.1536 63.3198 58.0222 62.95 58.2169Z" fill="black"/>
<path d="M74.8173 58.5525C74.6567 58.971 74.5351 59.3213 74.5497 59.3359C74.5788 59.3602 75.2114 59.3699 75.2211 59.3456C75.2357 59.3115 74.9146 58.4211 74.8902 58.4211C74.8756 58.4211 74.8465 58.4795 74.8173 58.5525Z" fill="black"/>
<path d="M5 57.8082V58.3191L5.25788 58.3434C5.53522 58.3726 10.2646 58.6159 10.5566 58.6159C10.7171 58.6159 10.7512 58.5964 10.8047 58.4553C10.8728 58.2996 10.868 58.2996 10.722 58.2656C10.5468 58.2218 5.11191 57.3022 5.04379 57.3022C5.01946 57.3022 5 57.5211 5 57.8082Z" fill="black"/>
<path d="M5 59.2192V59.7349H7.36471H9.72455L9.83646 59.4771C9.89972 59.3408 9.93864 59.2192 9.91918 59.2143C9.90458 59.2094 8.87306 59.1024 7.62746 58.9808C6.38185 58.8591 5.28221 58.7472 5.1849 58.7326L5 58.7034V59.2192Z" fill="black"/>
<path d="M5 60.6448V61H7.16035H9.32557L9.40828 60.7324C9.45694 60.5864 9.4764 60.4502 9.45694 60.4307C9.43748 60.4113 8.75142 60.3772 7.92912 60.3577C7.10683 60.3383 6.11424 60.3139 5.72012 60.3042L5 60.2847V60.6448Z" fill="black"/>
<path d="M92.9225 41.1915L93.0826 41.2061C93.214 41.2207 93.2679 41.2697 93.4528 41.547C93.6474 41.8535 93.6769 41.878 93.8326 41.878C94.0318 41.878 94.0318 41.8579 93.774 41.464C93.6819 41.3185 93.5799 41.1971 93.5455 41.1964C93.5115 41.1915 93.55 41.158 93.6276 41.1143C93.8319 41.0024 93.8903 40.9095 93.8903 40.6856C93.8902 40.321 93.7198 40.2237 93.0631 40.2237H92.6305V41.878H92.9225V41.1915ZM92.9108 40.9698V40.422H93.0905C93.3196 40.422 93.6258 40.4522 93.6393 40.6808C93.6533 40.9218 93.3124 40.9698 93.0709 40.9698H92.9108Z" fill="black"/>
</svg>
