<svg width="128" height="128" viewBox="0 0 128 128" fill="none" xmlns="http://www.w3.org/2000/svg">
<path d="M91.1443 49C95.9052 49 100.666 49 105.571 49C105.931 50.0823 106.29 51.1645 106.661 52.2796C106.917 53.0502 106.917 53.0502 107.173 53.8208C107.62 55.1654 108.066 56.5104 108.509 57.8564C108.589 58.0985 108.668 58.3406 108.751 58.59C108.897 59.0352 109.044 59.4805 109.189 59.926C109.49 60.8365 109.8 61.7337 110.167 62.6195C110.714 64.017 111.136 65.4605 111.582 66.8934C111.649 60.9885 111.715 55.0837 111.783 49C114.825 49 117.866 49 121 49C121 59.2173 121 69.4346 121 79.9615C116.239 79.9615 111.478 79.9615 106.573 79.9615C106.087 78.7411 105.62 77.5509 105.224 76.3042C105.176 76.1555 105.128 76.0068 105.079 75.8536C104.925 75.376 104.772 74.8981 104.619 74.4201C104.512 74.0868 104.405 73.7534 104.298 73.4201C103.634 71.3527 102.972 69.2843 102.318 67.2137C101.751 65.4249 101.154 63.6486 100.562 61.8671C100.496 67.8383 100.43 73.8094 100.362 79.9615C97.3198 79.9615 94.2781 79.9615 91.1443 79.9615C91.1443 69.7442 91.1443 59.5269 91.1443 49Z" fill="#5852B0"/>
<path d="M6 49C14.7577 49 23.5154 49 32.5385 49C32.4028 49.9631 32.2625 50.7655 31.9954 51.6807C31.9272 51.9146 31.859 52.1484 31.7888 52.3894C31.7176 52.6299 31.6464 52.8705 31.573 53.1184C31.5033 53.359 31.4336 53.5996 31.3618 53.8474C31.0162 55.0241 30.6417 56.1012 30.1619 57.2368C25.587 57.2368 21.0121 57.2368 16.2985 57.2368C16.2985 58.2312 16.2985 59.2257 16.2985 60.2503C20.612 60.2503 24.9255 60.2503 29.3697 60.2503C29.1178 61.4002 28.8737 62.4369 28.5086 63.5392C28.4443 63.7346 28.4443 63.7346 28.3786 63.9339C28.2889 64.2053 28.1989 64.4766 28.1084 64.7477C27.9697 65.1634 27.8324 65.5796 27.6952 65.9959C27.0257 68.0192 27.0257 68.0192 26.7951 68.4871C23.3312 68.4871 19.8673 68.4871 16.2985 68.4871C16.2985 69.4815 16.2985 70.476 16.2985 71.5005C19.5009 71.5005 22.7034 71.5005 26.0029 71.5005C25.8626 72.2122 25.7089 72.8796 25.5101 73.5731C25.4522 73.7753 25.3942 73.9776 25.3346 74.1859C25.2733 74.3978 25.2119 74.6096 25.1488 74.8279C25.0865 75.0438 25.0241 75.2596 24.9599 75.482C23.765 79.5967 23.765 79.5967 23.4282 79.9382C22.8858 79.9573 22.3484 79.9634 21.8059 79.961C21.6331 79.9611 21.4604 79.9611 21.2823 79.9611C20.7204 79.961 20.1584 79.9594 19.5965 79.9578C19.2506 79.9576 18.9047 79.9573 18.5589 79.9572C17.2732 79.9562 15.9875 79.9534 14.7017 79.9508C11.8302 79.9466 8.95859 79.9425 6 79.9382C6 69.7286 6 59.519 6 49Z" fill="#5852B0"/>
<path d="M48.572 49C57.3297 49 66.0874 49 75.1105 49C74.4813 49.4791 73.9 49.849 73.2166 50.2314C69.1152 52.6475 66.3247 56.4085 65.0719 61.0252C64.775 62.3078 64.6654 63.5687 64.6139 64.8829C64.6012 65.1065 64.5884 65.3302 64.5752 65.5606C64.4303 69.8814 66.288 74.6283 69.1876 77.794C69.8126 78.3869 70.4809 78.9197 71.1611 79.4456C71.288 79.5495 71.4149 79.6534 71.5456 79.7605C71.5456 79.8268 71.5456 79.8932 71.5456 79.9615C67.0361 79.9615 62.5265 79.9615 57.8803 79.9615C57.8803 72.4644 57.8803 64.9673 57.8803 57.243C54.8086 57.243 51.7368 57.243 48.572 57.243C48.572 54.5228 48.572 51.8026 48.572 49Z" fill="#5852B0"/>
<path d="M85.4184 60.4106C86.9059 61.4766 87.8506 62.5622 88.3024 64.3196C88.4719 65.9638 88.4213 67.1443 87.553 68.6069C87.4865 68.7262 87.4199 68.8455 87.3514 68.9684C86.536 70.2388 85.1573 71.0562 83.6854 71.4962C81.9223 71.8332 80.4208 71.7118 78.8779 70.8048C77.1452 69.5998 76.0098 68.162 75.6748 66.1176C75.5638 64.3226 76.2889 62.9591 77.372 61.5254C79.4098 59.3532 82.8362 58.8545 85.4184 60.4106Z" fill="#5852B0"/>
<path d="M37.4992 71.668C40.7275 71.668 43.9559 71.668 47.2821 71.668C48.6556 75.2179 48.6556 75.2179 49.0416 76.409C49.1211 76.6504 49.2006 76.8919 49.2826 77.1407C49.4783 77.8603 49.4783 77.8603 49.678 79.4084C44.9342 79.4084 40.1905 79.4084 35.303 79.4084C35.7593 76.7544 36.6633 74.2334 37.4992 71.668Z" fill="#5852B0"/>
<path d="M42.7668 55.6348C43.159 56.2527 43.2913 56.6941 43.4725 57.4065C43.7172 58.3409 43.9769 59.2651 44.2627 60.1866C44.3236 60.3831 44.3845 60.5796 44.4472 60.7821C44.5695 61.1741 44.6927 61.5658 44.8172 61.9571C44.8738 62.1392 44.9303 62.3213 44.9886 62.5089C45.0655 62.7521 45.0655 62.7521 45.1439 63.0002C45.2548 63.4757 45.2548 63.4757 45.2548 64.4809C43.6127 64.4809 41.9706 64.4809 40.2788 64.4809C40.4941 62.672 40.4941 62.672 40.7064 61.9929C40.7759 61.7666 40.7759 61.7666 40.8468 61.5358C40.8962 61.3798 40.9456 61.2238 40.9965 61.0631C41.1 60.7286 41.2034 60.394 41.3067 60.0594C41.3588 59.8923 41.4108 59.7252 41.4644 59.5531C41.6136 59.0686 41.758 58.5828 41.9003 58.096C41.9437 57.9478 41.987 57.7996 42.0317 57.6468C42.1137 57.3658 42.1953 57.0846 42.2766 56.8034C42.5543 55.858 42.5543 55.858 42.7668 55.6348Z" fill="#5852B0"/>
</svg>
