<svg width="100" height="100" viewBox="0 0 100 100" fill="none" xmlns="http://www.w3.org/2000/svg">
<g clip-path="url(#clip0_3584_2)">
<path fill-rule="evenodd" clip-rule="evenodd" d="M32.6886 37.3045H36.8122V38.6151H34.0499V40.3661H36.5637V41.6766H34.0499V43.5136H36.8619V44.8241H32.6886V37.3045ZM42.2772 44.8241H37.8754V37.3045H39.2366V43.5136H42.2772V44.8241ZM42.9827 37.3045H47.1061V38.6151H44.3438V40.3661H46.8577V41.6766H44.3438V43.5136H47.1558V44.8241H42.9827V37.3045ZM52.8791 44.5161C52.6672 44.6791 52.3973 44.7972 52.0693 44.8671C51.7415 44.9386 51.4052 44.9744 51.0608 44.9744C50.6435 44.9744 50.2477 44.9047 49.8734 44.765C49.4992 44.6253 49.1697 44.3998 48.8847 44.0882C48.5999 43.7767 48.3731 43.372 48.2041 42.8744C48.0352 42.3767 47.9507 41.7733 47.9507 41.0643C47.9507 40.3266 48.0451 39.7089 48.2339 39.2113C48.4228 38.7136 48.6678 38.3125 48.9693 38.0081C49.2706 37.7038 49.6068 37.4853 49.9777 37.3529C50.3487 37.2205 50.7197 37.1541 51.0906 37.1541C51.4881 37.1541 51.8243 37.1828 52.0992 37.2401C52.374 37.2974 52.6009 37.3655 52.7798 37.4441L52.5115 38.6902C52.3592 38.6115 52.1787 38.5541 51.97 38.5183C51.7614 38.4825 51.5079 38.4646 51.2098 38.4646C50.6601 38.4646 50.2179 38.6759 49.8834 39.1002C49.5488 39.5228 49.3815 40.1799 49.3815 41.0697C49.3815 41.4565 49.4213 41.8109 49.5008 42.1296C49.5803 42.4501 49.7012 42.7221 49.8635 42.9477C50.0258 43.1733 50.2278 43.3505 50.4696 43.4759C50.7114 43.6012 50.9912 43.6639 51.3092 43.6639C51.6073 43.6639 51.859 43.6317 52.0644 43.5672C52.2697 43.5028 52.4485 43.4204 52.6009 43.3202L52.8791 44.5161ZM58.2248 38.6151H56.1978V44.8241H54.8365V38.6151H52.7996V37.3045H58.2248V38.6151ZM58.9303 37.3797C59.0826 37.3511 59.2466 37.3243 59.4222 37.2991C59.5977 37.2742 59.7733 37.2544 59.9488 37.2401C60.1243 37.2258 60.2949 37.215 60.4606 37.2079C60.6261 37.2006 60.7785 37.197 60.9176 37.197C61.2422 37.197 61.5617 37.2294 61.8764 37.2938C62.1911 37.3582 62.4726 37.4693 62.721 37.6268C62.9695 37.7844 63.1681 38.001 63.3172 38.2767C63.4663 38.5524 63.5408 38.8979 63.5408 39.3134C63.5408 39.9292 63.4083 40.4305 63.1433 40.8172C62.8784 41.204 62.524 41.4725 62.0802 41.6228L62.5669 41.9559L64.1568 44.8241H62.5869L61.007 41.8808L60.2916 41.7411V44.8241H58.9303V37.3797ZM61.017 38.5077C60.8779 38.5077 60.7404 38.5112 60.6046 38.5183C60.4689 38.5256 60.3645 38.5399 60.2916 38.5614V40.742H60.8679C61.2455 40.742 61.5469 40.649 61.7721 40.4627C61.9974 40.2765 62.11 39.9686 62.11 39.539C62.11 39.2166 62.0173 38.9642 61.8317 38.7816C61.6463 38.5989 61.3747 38.5077 61.017 38.5077ZM65.051 37.3045H66.4123V44.8241H65.051V37.3045ZM72.4536 44.5161C72.2418 44.6791 71.9718 44.7972 71.6438 44.8671C71.316 44.9386 70.9797 44.9744 70.6353 44.9744C70.218 44.9744 69.8222 44.9047 69.4479 44.765C69.0737 44.6253 68.7441 44.3998 68.4592 44.0882C68.1744 43.7767 67.9476 43.372 67.7786 42.8744C67.6098 42.3767 67.5252 41.7733 67.5252 41.0643C67.5252 40.3266 67.6196 39.7089 67.8084 39.2113C67.9973 38.7136 68.2423 38.3125 68.5438 38.0081C68.8451 37.7038 69.1812 37.4853 69.5522 37.3529C69.9232 37.2205 70.2942 37.1541 70.6652 37.1541C71.0626 37.1541 71.3988 37.1828 71.6737 37.2401C71.9485 37.2974 72.1755 37.3655 72.3544 37.4441L72.086 38.6902C71.9337 38.6115 71.7532 38.5541 71.5446 38.5183C71.3359 38.4825 71.0825 38.4646 70.7843 38.4646C70.2346 38.4646 69.7924 38.6759 69.4579 39.1002C69.1233 39.5228 68.956 40.1799 68.956 41.0697C68.956 41.4565 68.9959 41.8109 69.0753 42.1296C69.1548 42.4501 69.2757 42.7221 69.438 42.9477C69.6003 43.1733 69.8023 43.3505 70.0441 43.4759C70.2859 43.6012 70.5658 43.6639 70.8837 43.6639C71.1819 43.6639 71.4335 43.6317 71.6389 43.5672C71.8442 43.5028 72.0231 43.4204 72.1755 43.3202L72.4536 44.5161ZM76.289 43.159H74.1527L73.6261 44.8241H72.2648L74.7688 37.2508H75.7723L78.2764 44.8241H76.8455L76.289 43.159ZM74.5006 41.9774H75.991L75.4743 40.3017L75.2656 39.12H75.2159L75.0073 40.3123L74.5006 41.9774ZM83.2744 44.8241H78.8726V37.3045H80.2338V43.5136H83.2744V44.8241ZM37.6269 49.3439H35.5998V55.5528H34.2386V49.3439H32.2017V48.0332H37.6269V49.3439ZM38.3324 48.0332H42.456V49.3439H39.6936V51.0948H42.2075V52.4053H39.6936V54.2423H42.5056V55.5528H38.3324V48.0332ZM48.2288 55.2449C48.0169 55.4078 47.747 55.526 47.419 55.5959C47.0911 55.6673 46.755 55.7032 46.4106 55.7032C45.9932 55.7032 45.5974 55.6334 45.2231 55.4938C44.8489 55.3541 44.5194 55.1285 44.2344 54.817C43.9497 54.5055 43.7229 54.1008 43.5539 53.6031C43.3851 53.1054 43.3005 52.5021 43.3005 51.7931C43.3005 51.0554 43.395 50.4377 43.5837 49.94C43.7726 49.4424 44.0175 49.0413 44.319 48.7369C44.6204 48.4326 44.9565 48.214 45.3274 48.0816C45.6984 47.9492 46.0693 47.8829 46.4403 47.8829C46.8377 47.8829 47.174 47.9115 47.4489 47.9688C47.7237 48.0262 47.9507 48.0942 48.1295 48.1729L47.8612 49.419C47.7089 49.3403 47.5284 49.2829 47.3198 49.2471C47.1111 49.2113 46.8577 49.1934 46.5595 49.1934C46.0098 49.1934 45.5676 49.4046 45.2331 49.8289C44.8985 50.2516 44.7312 50.9086 44.7312 51.7984C44.7312 52.1852 44.771 52.5396 44.8505 52.8584C44.93 53.1788 45.0509 53.4509 45.2132 53.6765C45.3755 53.9021 45.5775 54.0793 45.8193 54.2047C46.0611 54.33 46.3409 54.3927 46.6589 54.3927C46.957 54.3927 47.2087 54.3605 47.4141 54.2959C47.6194 54.2315 47.7982 54.1492 47.9507 54.049L48.2288 55.2449ZM52.9785 52.4053H50.4347V55.5528H49.0735V48.0332H50.4347V51.0948H52.9785V48.0332H54.3397V55.5528H52.9785V52.4053ZM57.2709 51.6319L56.7244 50.4503H56.6747L56.8337 51.6319V55.5528H55.542V47.9795H56.5356L59.1688 51.9865L59.6954 53.1358H59.745L59.5861 51.9865V48.0332H60.8777V55.6065H59.8841L57.2709 51.6319ZM61.8515 51.7931C61.8515 50.5398 62.1066 49.5748 62.6167 48.898C63.1267 48.2213 63.8554 47.8829 64.8027 47.8829C65.2995 47.8829 65.7334 47.9761 66.1044 48.1622C66.4752 48.3484 66.7833 48.6134 67.0284 48.9571C67.2735 49.3008 67.4556 49.7127 67.5749 50.1925C67.6942 50.6722 67.7537 51.2057 67.7537 51.7931C67.7537 53.0462 67.497 54.0113 66.9837 54.688C66.4703 55.3648 65.7433 55.7032 64.8027 55.7032C64.2992 55.7032 63.862 55.6101 63.491 55.4239C63.12 55.2377 62.8137 54.9727 62.5719 54.629C62.3301 54.2852 62.1496 53.8735 62.0304 53.3936C61.9112 52.9138 61.8515 52.3803 61.8515 51.7931ZM63.2823 51.7931C63.2823 52.1726 63.3121 52.5217 63.3718 52.8404C63.4314 53.159 63.5225 53.433 63.645 53.6622C63.7676 53.8914 63.9249 54.0703 64.117 54.1993C64.3091 54.3283 64.5376 54.3927 64.8027 54.3927C65.2863 54.3927 65.6604 54.1886 65.9255 53.7803C66.1904 53.3722 66.3229 52.7097 66.3229 51.7931C66.3229 51.4279 66.2947 51.0876 66.2385 50.7725C66.1821 50.4575 66.0943 50.1817 65.9752 49.9454C65.8559 49.7091 65.7002 49.5247 65.5082 49.3921C65.3161 49.2597 65.0808 49.1934 64.8027 49.1934C64.3191 49.1934 63.9448 49.4029 63.6799 49.8219C63.4148 50.2409 63.2823 50.8978 63.2823 51.7931ZM73.1293 55.5528H68.7275V48.0332H70.0887V54.2423H73.1293V55.5528ZM72.6921 51.7931C72.6921 50.5398 72.9472 49.5748 73.4572 48.898C73.9673 48.2213 74.696 47.8829 75.6433 47.8829C76.1401 47.8829 76.574 47.9761 76.9449 48.1622C77.3158 48.3484 77.6238 48.6134 77.869 48.9571C78.1141 49.3008 78.2962 49.7127 78.4155 50.1925C78.5348 50.6722 78.5944 51.2057 78.5944 51.7931C78.5944 53.0462 78.3376 54.0113 77.8242 54.688C77.3109 55.3648 76.5838 55.7032 75.6433 55.7032C75.1398 55.7032 74.7026 55.6101 74.3316 55.4239C73.9606 55.2377 73.6543 54.9727 73.4125 54.629C73.1707 54.2852 72.9903 53.8735 72.8709 53.3936C72.7518 52.9138 72.6921 52.3803 72.6921 51.7931ZM74.123 51.7931C74.123 52.1726 74.1527 52.5217 74.2124 52.8404C74.272 53.159 74.3631 53.433 74.4856 53.6622C74.6083 53.8914 74.7655 54.0703 74.9576 54.1993C75.1497 54.3283 75.3783 54.3927 75.6433 54.3927C76.1269 54.3927 76.501 54.1886 76.7661 53.7803C77.031 53.3722 77.1635 52.7097 77.1635 51.7931C77.1635 51.4279 77.1353 51.0876 77.079 50.7725C77.0227 50.4575 76.9349 50.1817 76.8158 49.9454C76.6965 49.7091 76.5409 49.5247 76.3487 49.3921C76.1566 49.2597 75.9214 49.1934 75.6433 49.1934C75.1597 49.1934 74.7854 49.4029 74.5205 49.8219C74.2554 50.2409 74.123 50.8978 74.123 51.7931ZM82.0223 51.6319H84.6157V54.9835C84.3375 55.2341 84.0046 55.4168 83.6171 55.5313C83.2295 55.6459 82.8471 55.7032 82.4694 55.7032C82.0256 55.7032 81.6133 55.6281 81.2324 55.4776C80.8514 55.3272 80.5219 55.0927 80.2437 54.774C79.9655 54.4553 79.7469 54.049 79.588 53.5548C79.429 53.0607 79.3494 52.4733 79.3494 51.7931C79.3494 51.0841 79.4438 50.4807 79.6326 49.9829C79.8215 49.4853 80.0698 49.0806 80.3779 48.7691C80.6859 48.4576 81.032 48.232 81.4163 48.0923C81.8004 47.9527 82.1912 47.8829 82.5888 47.8829C82.9862 47.8829 83.3356 47.9151 83.637 47.9795C83.9384 48.0441 84.1786 48.1121 84.3574 48.1837L84.0792 49.419C83.9135 49.3475 83.7281 49.2919 83.5227 49.2526C83.3173 49.2132 83.0557 49.1934 82.7377 49.1934C82.4529 49.1934 82.1912 49.24 81.9527 49.333C81.7143 49.4262 81.5074 49.5784 81.3317 49.7897C81.1562 50.0009 81.0204 50.2712 80.9244 50.6006C80.8283 50.9301 80.7802 51.3311 80.7802 51.8038C80.7802 52.255 80.8266 52.6434 80.9194 52.9693C81.0121 53.2952 81.1413 53.5637 81.307 53.775C81.4725 53.9863 81.6663 54.1419 81.8882 54.2423C82.1101 54.3426 82.347 54.3927 82.5986 54.3927C82.7708 54.3927 82.9398 54.3694 83.1053 54.3228C83.271 54.2763 83.4102 54.2065 83.5227 54.1134V52.6954L82.0223 52.5236V51.6319ZM85.7584 48.0332H87.1196V55.5528H85.7584V48.0332ZM88.4512 48.0332H92.5748V49.3439H89.8125V51.0948H92.3263V52.4053H89.8125V54.2423H92.6245V55.5528H88.4512V48.0332ZM96.6387 53.5332C96.6387 53.3042 96.5609 53.1179 96.4052 52.9748C96.2496 52.8315 96.0542 52.7008 95.8189 52.5827C95.5838 52.4644 95.3288 52.3426 95.0539 52.2174C94.7789 52.092 94.5239 51.9381 94.2888 51.7554C94.0536 51.5729 93.8583 51.3454 93.7025 51.0733C93.5469 50.8012 93.469 50.4539 93.469 50.0313C93.469 49.6661 93.5254 49.3492 93.638 49.0806C93.7506 48.8121 93.9112 48.5882 94.1198 48.4093C94.3285 48.2302 94.5753 48.0978 94.8602 48.0119C95.145 47.9258 95.4629 47.8829 95.814 47.8829C96.2181 47.8829 96.599 47.9205 96.9567 47.9957C97.3145 48.0709 97.6091 48.1801 97.841 48.3234L97.4138 49.5586C97.2681 49.4584 97.0494 49.3671 96.7579 49.2848C96.4666 49.2023 96.1518 49.1612 95.814 49.1612C95.4961 49.1612 95.2527 49.2292 95.0837 49.3654C94.9148 49.5014 94.8304 49.684 94.8304 49.9132C94.8304 50.1281 94.9082 50.307 95.0639 50.4503C95.2195 50.5935 95.415 50.7259 95.6501 50.8477C95.8852 50.9695 96.1402 51.0948 96.4151 51.2237C96.6901 51.3526 96.9451 51.5085 97.1803 51.691C97.4154 51.8737 97.6109 52.0993 97.7665 52.3678C97.9221 52.6364 98 52.9711 98 53.3722C98 53.7732 97.9387 54.1187 97.8162 54.4087C97.6937 54.6989 97.5214 54.9405 97.2995 55.1339C97.0776 55.3272 96.8094 55.4705 96.4946 55.5635C96.18 55.6566 95.8339 55.7032 95.4564 55.7032C94.9596 55.7032 94.5223 55.653 94.1447 55.5528C93.7672 55.4526 93.4889 55.3523 93.3101 55.252L93.7473 53.9952C93.8202 54.0381 93.9145 54.0848 94.0305 54.1349C94.1464 54.185 94.2772 54.2315 94.423 54.2745C94.5687 54.3174 94.7227 54.3532 94.885 54.3819C95.0473 54.4106 95.2146 54.4249 95.3868 54.4249C95.7909 54.4249 96.1006 54.3515 96.3159 54.2047C96.5311 54.0579 96.6387 53.8341 96.6387 53.5332Z" fill="black"/>
<path fill-rule="evenodd" clip-rule="evenodd" d="M3 51.2742H12.0848C12.0688 52.2877 11.9814 53.3697 11.8146 54.529C11.6558 55.6799 11.3938 56.8219 11.0361 57.9471C10.6786 59.072 10.202 60.1026 9.60649 61.0299C9.13875 61.758 8.58789 62.3698 7.94597 62.8691H3V51.2742ZM3 37H8.49585C9.01735 37.4385 9.47476 37.9647 9.86846 38.573C10.4166 39.4318 10.8535 40.3935 11.1871 41.4414C11.5129 42.4976 11.7513 43.5625 11.902 44.6533C12.053 45.7353 12.1245 46.7573 12.1324 47.7191L3 47.7188V37Z" fill="black"/>
<path fill-rule="evenodd" clip-rule="evenodd" d="M12.7013 62.8691C13.2748 61.97 13.7667 60.9811 14.1738 59.9049C14.7459 58.385 15.1668 56.7619 15.4448 55.0443C15.7149 53.3182 15.8499 51.5662 15.8499 49.7801C15.858 48.492 15.7944 47.1694 15.6752 45.8124C15.556 44.4557 15.3417 43.1246 15.0476 41.8108C14.7538 40.5053 14.3487 39.2686 13.8245 38.118C13.6513 37.7292 13.4618 37.3566 13.2568 37H26.9284V62.8691H12.7013Z" fill="black"/>
<path fill-rule="evenodd" clip-rule="evenodd" d="M32.9715 60.9369H34.3218C34.3062 60.7309 34.2688 60.5492 34.2094 60.3921C34.1499 60.2349 34.0734 60.1048 33.9796 60.0017C33.8858 59.8986 33.7772 59.8235 33.6538 59.7761C33.5302 59.7289 33.3966 59.7052 33.2529 59.7052C33.1059 59.7052 32.9754 59.7186 32.8613 59.7458C32.7472 59.7728 32.6542 59.8099 32.5824 59.8573L32.4791 59.5277C32.5761 59.4669 32.6965 59.4188 32.8402 59.3833C32.9839 59.3478 33.1372 59.3301 33.2997 59.3301C33.4997 59.3301 33.6858 59.3639 33.8578 59.4314C34.0297 59.499 34.1789 59.6063 34.3056 59.7533C34.432 59.9003 34.5313 60.0904 34.6032 60.3236C34.675 60.5567 34.7111 60.8373 34.7111 61.165C34.7111 61.4962 34.6704 61.7784 34.5891 62.0116C34.5079 62.2447 34.3977 62.4349 34.2587 62.5819C34.1195 62.7288 33.9585 62.8352 33.7756 62.9012C33.5927 62.9671 33.4013 63 33.2013 63C33.045 63 32.9066 62.9882 32.7863 62.9645C32.666 62.941 32.5636 62.9105 32.4791 62.8733L32.5824 62.4982C32.6542 62.537 32.748 62.5675 32.8637 62.5903C32.9793 62.6131 33.0996 62.625 33.2247 62.625C33.3497 62.625 33.4756 62.6039 33.6022 62.5615C33.7287 62.5194 33.8436 62.4459 33.9467 62.341C34.05 62.2363 34.1359 62.0994 34.2047 61.9304C34.2735 61.7615 34.3141 61.5554 34.3265 61.312H32.9715V60.9369ZM37.0742 59.766H36.0942C36.0629 60.4419 36.0215 61.0037 35.9699 61.4514C35.9183 61.8993 35.841 62.2482 35.7379 62.4982C35.6691 62.6605 35.5878 62.7788 35.494 62.853C35.4003 62.9274 35.2986 62.9645 35.1892 62.9645C35.133 62.9645 35.0845 62.9604 35.0439 62.9519C35.0033 62.9434 34.9642 62.9308 34.9267 62.914L34.9783 62.5489C35.0095 62.5591 35.0424 62.5641 35.0767 62.5641C35.1299 62.5641 35.1823 62.5455 35.2338 62.5084C35.2854 62.4712 35.3362 62.402 35.3863 62.3006C35.43 62.2093 35.4713 62.0876 35.5105 61.9355C35.5495 61.7834 35.584 61.5909 35.6136 61.3577C35.6433 61.1246 35.6675 60.8466 35.6863 60.5237C35.705 60.2011 35.7192 59.8235 35.7285 59.3909H37.4633V62.9392H37.0742V59.766ZM38.2604 59.3909H40.0468V59.766H38.6496V60.9269H39.9297V61.3019H38.6496V62.5641H40.0704V62.9392H38.2604V59.3909ZM41.3831 61.2968H41.1629V62.9392H40.7735V59.3909H41.1629V61.0434L41.3737 60.9725L42.4756 59.3909H42.9258L41.8286 60.9166L41.6317 61.084L41.8708 61.2868L43.0711 62.9392H42.5789L41.3831 61.2968ZM45.7061 59.766H44.6841V62.9392H44.2948V59.766H43.2727V59.3909H45.7061V59.766ZM46.189 59.4263C46.3079 59.396 46.436 59.3756 46.5736 59.3655C46.7111 59.3554 46.8471 59.3504 46.9815 59.3504C47.1254 59.3504 47.2713 59.3655 47.4199 59.396C47.5683 59.4263 47.7035 59.4821 47.8255 59.5632C47.9475 59.6444 48.0466 59.7559 48.1233 59.8979C48.1998 60.0397 48.2382 60.2205 48.2382 60.4401C48.2382 60.6565 48.2022 60.8389 48.1302 60.9876C48.0583 61.1363 47.9631 61.2572 47.8442 61.35C47.7254 61.443 47.5895 61.5098 47.4363 61.5503C47.2831 61.5909 47.1254 61.6111 46.9628 61.6111C46.9472 61.6111 46.9214 61.6111 46.8854 61.6111C46.8495 61.6111 46.812 61.6101 46.7729 61.6086C46.7338 61.607 46.6955 61.604 46.658 61.6009C46.6205 61.5973 46.594 61.5941 46.5783 61.5908V62.9391H46.189V59.4263ZM46.9909 59.7153C46.9096 59.7153 46.8315 59.7168 46.7564 59.7204C46.6815 59.724 46.622 59.7323 46.5783 59.7458V61.2157C46.594 61.2225 46.6189 61.2267 46.6532 61.2285C46.6877 61.23 46.7236 61.232 46.7611 61.2336C46.7986 61.2351 46.8345 61.2361 46.869 61.2361C46.9033 61.2361 46.9283 61.2361 46.944 61.2361C47.0503 61.2361 47.1558 61.2251 47.2606 61.2032C47.3651 61.1811 47.4597 61.1415 47.5442 61.084C47.6286 61.0266 47.6966 60.9454 47.7481 60.8407C47.7997 60.736 47.8255 60.6024 47.8255 60.4402C47.8255 60.3017 47.8013 60.1859 47.7528 60.093C47.7043 60 47.6403 59.9258 47.5606 59.87C47.4808 59.8141 47.3909 59.7746 47.291 59.7509C47.191 59.7272 47.0909 59.7153 46.9909 59.7153ZM50.8169 60.5365L50.845 60.1309H50.8262L50.6247 60.5466L49.0398 62.9392H48.81V59.3909H49.1993V61.824L49.1665 62.2245H49.1852L49.3915 61.8088L50.9762 59.3909H51.206V62.9392H50.8169V60.5365ZM52.3454 59.3909V60.567C52.3454 61.0298 52.5391 61.2613 52.9268 61.2613C53.0737 61.2613 53.2112 61.2402 53.3394 61.198C53.4676 61.1558 53.5723 61.0992 53.6535 61.0282V59.3909H54.0426V62.9392H53.6535V61.4084C53.5691 61.4591 53.4582 61.5098 53.3206 61.5605C53.1831 61.6111 53.0252 61.6365 52.847 61.6365C52.7157 61.6365 52.5955 61.6204 52.4861 61.5883C52.3767 61.5562 52.2829 61.5021 52.2047 61.4261C52.1266 61.35 52.0655 61.2479 52.0219 61.1194C51.978 60.991 51.9562 60.8323 51.9562 60.6429V59.3909H52.3454ZM54.8397 59.3909H56.6262V59.766H55.229V60.9269H56.5091V61.3019H55.229V62.5641H56.6497V62.9392H54.8397V59.3909ZM59.4536 62.7922C59.3598 62.8699 59.241 62.924 59.0972 62.9544C58.9534 62.9849 58.8002 63 58.6378 63C58.4407 63 58.2564 62.9638 58.0845 62.8911C57.9125 62.8183 57.7625 62.7077 57.6343 62.5591C57.5062 62.4103 57.4046 62.2203 57.3295 61.9888C57.2545 61.7573 57.2171 61.4827 57.2171 61.165C57.2171 60.8338 57.2585 60.5525 57.3413 60.321C57.4241 60.0897 57.5335 59.9003 57.6695 59.7533C57.8054 59.6063 57.9578 59.499 58.1267 59.4314C58.2954 59.3639 58.4673 59.3301 58.6424 59.3301C58.83 59.3301 58.9831 59.3411 59.1019 59.363C59.2207 59.385 59.3223 59.4145 59.4067 59.4517L59.3129 59.8268C59.1629 59.7458 58.9487 59.7052 58.6705 59.7052C58.5424 59.7052 58.4157 59.7305 58.2907 59.7812C58.1656 59.8319 58.054 59.9148 57.9556 60.0295C57.8571 60.1445 57.7781 60.2949 57.7187 60.4808C57.6594 60.6666 57.6296 60.8947 57.6296 61.165C57.6296 61.4084 57.6578 61.6212 57.714 61.8038C57.7703 61.9862 57.8476 62.1383 57.946 62.26C58.0446 62.3816 58.1602 62.4729 58.2931 62.5337C58.4259 62.5945 58.5704 62.625 58.7267 62.625C58.8674 62.625 58.9902 62.6098 59.0949 62.5793C59.1997 62.5489 59.2879 62.51 59.3598 62.4628L59.4536 62.7922ZM60.6398 61.2968H60.4196V62.9392H60.0303V59.3909H60.4196V61.0434L60.6305 60.9725L61.7323 59.3909H62.1825L61.0853 60.9166L60.8884 61.084L61.1276 61.2868L62.3278 62.9392H61.8356L60.6398 61.2968ZM64.8973 60.5365L64.9253 60.1309H64.9066L64.705 60.5466L63.1202 62.9392H62.8904V59.3909H63.2796V61.824L63.2468 62.2245H63.2655L63.4719 61.8088L65.0566 59.3909H65.2864V62.9392H64.8973V60.5365ZM66.0834 59.3909H67.8699V59.766H66.4726V60.9269H67.7527V61.3019H66.4726V62.5641H67.8933V62.9392H66.0834V59.3909ZM71.8224 59.766H70.8003V62.9392H70.4111V59.766H69.389V59.3909H71.8224V59.766ZM72.3053 59.3909H74.0918V59.766H72.6946V60.9269H73.9746V61.3019H72.6946V62.5641H74.1153V62.9392H72.3053V59.3909ZM75.6345 61.1347L74.6358 59.3909H75.1045L75.7704 60.5922L75.8876 60.8812L76.0001 60.5922L76.7034 59.3909H77.1348L76.1033 61.0992L77.1816 62.9392H76.7269L75.986 61.6669L75.8594 61.3627L75.7376 61.6669L74.978 62.9392H74.542L75.6345 61.1347ZM79.6808 61.312H78.1054V62.9392H77.7161V59.3909H78.1054V60.9369H79.6808V59.3909H80.0699V62.9392H79.6808V61.312ZM80.7312 61.165C80.7312 60.5736 80.8468 60.12 81.0781 59.804C81.3094 59.488 81.6392 59.3301 82.0675 59.3301C82.2987 59.3301 82.4988 59.3741 82.6676 59.4618C82.8363 59.5497 82.9761 59.6739 83.0872 59.8345C83.198 59.9949 83.2802 60.1876 83.3332 60.4123C83.3864 60.637 83.413 60.888 83.413 61.165C83.413 61.7564 83.2966 62.2102 83.0636 62.526C82.8308 62.842 82.4988 63 82.0675 63C81.8393 63 81.6416 62.9561 81.4743 62.8683C81.3071 62.7804 81.168 62.6562 81.057 62.4957C80.946 62.3351 80.864 62.1426 80.8108 61.9179C80.7577 61.693 80.7312 61.4422 80.7312 61.165ZM81.1437 61.165C81.1437 61.3611 81.1618 61.5469 81.1977 61.7226C81.2336 61.8984 81.2891 62.0531 81.3641 62.1865C81.4391 62.3199 81.5353 62.4264 81.6524 62.5058C81.7697 62.5852 81.908 62.625 82.0675 62.625C82.3582 62.625 82.5863 62.5058 82.7519 62.2675C82.9175 62.0294 83.0003 61.6618 83.0003 61.165C83.0003 60.9725 82.9824 60.7874 82.9465 60.61C82.9105 60.4327 82.8543 60.2771 82.7776 60.1437C82.7012 60.0102 82.6044 59.9038 82.4871 59.8243C82.3699 59.7449 82.23 59.7052 82.0675 59.7052C81.7799 59.7052 81.5539 59.8243 81.3899 60.0625C81.2258 60.3008 81.1437 60.6683 81.1437 61.165ZM85.7761 59.766H84.7961C84.7649 60.4419 84.7234 61.0037 84.6719 61.4514C84.6203 61.8993 84.543 62.2482 84.4398 62.4982C84.371 62.6605 84.2898 62.7788 84.196 62.853C84.1023 62.9274 84.0006 62.9645 83.8912 62.9645C83.835 62.9645 83.7865 62.9604 83.7459 62.9519C83.7052 62.9434 83.6663 62.9308 83.6287 62.914L83.6803 62.5489C83.7115 62.5591 83.7444 62.5641 83.7787 62.5641C83.8319 62.5641 83.8843 62.5455 83.9358 62.5084C83.9874 62.4712 84.0381 62.402 84.0882 62.3006C84.1319 62.2093 84.1733 62.0876 84.2125 61.9355C84.2515 61.7834 84.286 61.5909 84.3156 61.3577C84.3453 61.1246 84.3694 60.8466 84.3883 60.5237C84.407 60.2011 84.4211 59.8235 84.4305 59.3909H86.1652V62.9392H85.7761V59.766ZM86.8265 61.165C86.8265 60.5736 86.9421 60.12 87.1735 59.804C87.4047 59.488 87.7345 59.3301 88.1628 59.3301C88.394 59.3301 88.5941 59.3741 88.7629 59.4618C88.9317 59.5497 89.0716 59.6739 89.1826 59.8345C89.2934 59.9949 89.3756 60.1876 89.4287 60.4123C89.4818 60.637 89.5084 60.888 89.5084 61.165C89.5084 61.7564 89.392 62.2102 89.1591 62.526C88.9262 62.842 88.5941 63 88.1628 63C87.9346 63 87.7369 62.9561 87.5696 62.8683C87.4024 62.7804 87.2633 62.6562 87.1523 62.4957C87.0413 62.3351 86.9593 62.1426 86.9061 61.9179C86.853 61.693 86.8265 61.4422 86.8265 61.165ZM87.239 61.165C87.239 61.3611 87.2571 61.5469 87.293 61.7226C87.3289 61.8984 87.3843 62.0531 87.4595 62.1865C87.5344 62.3199 87.6306 62.4264 87.7478 62.5058C87.8651 62.5852 88.0033 62.625 88.1628 62.625C88.4535 62.625 88.6817 62.5058 88.8473 62.2675C89.013 62.0294 89.0958 61.6618 89.0958 61.165C89.0958 60.9725 89.0778 60.7874 89.0419 60.61C89.006 60.4327 88.9498 60.2771 88.8731 60.1437C88.7965 60.0102 88.6997 59.9038 88.5824 59.8243C88.4653 59.7449 88.3254 59.7052 88.1628 59.7052C87.8752 59.7052 87.6493 59.8243 87.4853 60.0625C87.3211 60.3008 87.239 60.6683 87.239 61.165ZM91.9279 59.766H90.5588V62.9392H90.1695V59.3909H91.9279V59.766ZM94.2489 60.5365L94.2769 60.1309H94.2582L94.0567 60.5466L92.4718 62.9392H92.242V59.3909H92.6313V61.824L92.5984 62.2245H92.6171L92.8235 61.8088L94.4082 59.3909H94.638V62.9392H94.2489V60.5365ZM97.4419 60.5365L97.47 60.1309H97.4512L97.2496 60.5466L95.6648 62.9392H95.435V59.3909H95.8243V61.824L95.7914 62.2245H95.8101L96.0165 61.8088L97.6013 59.3909H97.831V62.9392H97.4419V60.5365Z" fill="black"/>
</g>
<defs>
<clipPath id="clip0_3584_2">
<rect width="95" height="26" fill="white" transform="translate(3 37)"/>
</clipPath>
</defs>
</svg>
