<svg width="277" height="277" viewBox="0 0 277 277" fill="none" xmlns="http://www.w3.org/2000/svg">
<g clip-path="url(#clip0_4068_300)">
<rect width="146.416" height="153.826" rx="15" transform="matrix(0.865969 0.500097 -0.865969 0.500097 154.208 104.778)" fill="#F5F5F6"/>
<path d="M48.303 181.706L138.07 233.527V164.547L107.899 147.302L48.303 113.24V181.706Z" fill="white"/>
<path d="M138.07 233.527L226.464 181.706V113.24L167.78 147.302L138.07 164.547V233.527Z" fill="white"/>
<path d="M226.464 113.24L138.07 61.7616V129.885L167.78 147.302L226.464 113.24Z" fill="white"/>
<path d="M138.07 61.7616L48.303 113.24L107.899 147.302L138.07 129.885V61.7616Z" fill="white"/>
<path d="M107.899 147.302L138.07 164.547L167.78 147.302L138.07 129.885L107.899 147.302Z" fill="white"/>
<path d="M138.07 233.527L48.303 181.706V113.24M138.07 233.527L226.464 181.706V113.24M138.07 233.527V164.547M138.07 129.885V61.7616M138.07 129.885L107.899 147.302M138.07 129.885L167.78 147.302M48.303 113.24L138.07 61.7616M48.303 113.24L107.899 147.302M138.07 164.547L107.899 147.302M138.07 164.547L167.78 147.302M226.464 113.24L138.07 61.7616M226.464 113.24L167.78 147.302" stroke="#4E48A5" stroke-width="3" stroke-linecap="round" stroke-linejoin="round"/>
<path opacity="0.95" d="M137.384 86.4301C110.345 86.4301 87.9948 106.509 84.431 132.569L138.203 163.287L190.905 132.569C187.341 106.509 164.423 86.4301 137.384 86.4301Z" fill="#0ECDF4"/>
<circle opacity="0.95" cx="177.127" cy="70.4955" r="17.3593" fill="#0ECDF4"/>
<circle opacity="0.95" cx="93.0717" cy="43.4887" r="8.22283" fill="#0ECDF4"/>
<circle opacity="0.95" cx="123.798" cy="22.1114" r="4.11142" fill="#0ECDF4"/>
</g>
<defs>
<clipPath id="clip0_4068_300">
<rect width="277" height="277" fill="white"/>
</clipPath>
</defs>
</svg>
