<svg width="128" height="128" viewBox="0 0 128 128" fill="none" xmlns="http://www.w3.org/2000/svg">
<path d="M69.2268 24.3151C69.2268 24.374 69.2268 24.433 69.2268 24.4938C69.2822 24.4982 69.3375 24.5027 69.3945 24.5073C69.6495 24.5283 69.9045 24.5501 70.1594 24.5719C70.2899 24.5825 70.2899 24.5825 70.4231 24.5932C70.8995 24.6347 71.3561 24.6976 71.8212 24.8093C72.053 24.8646 72.2862 24.9032 72.5215 24.9405C72.6117 24.9552 72.7019 24.97 72.7948 24.9852C72.8852 24.9999 72.9756 25.0147 73.0688 25.0298C73.2457 25.059 73.4225 25.0887 73.5993 25.1192C73.6756 25.1321 73.752 25.145 73.8307 25.1583C74.066 25.2118 74.2768 25.2921 74.4983 25.3872C74.4983 25.4462 74.4983 25.5052 74.4983 25.5659C74.5776 25.5622 74.6568 25.5586 74.7384 25.5548C75.0427 25.5662 75.2036 25.6285 75.4811 25.7446C75.6801 25.7935 75.8799 25.8356 76.0804 25.8779C76.3613 25.9402 76.635 26.0199 76.9107 26.102C76.9107 26.161 76.9107 26.2199 76.9107 26.2807C77.012 26.2899 77.1134 26.2991 77.2178 26.3086C77.6428 26.3603 78.0292 26.4907 78.4296 26.6381C78.4296 26.6971 78.4296 26.756 78.4296 26.8168C78.5475 26.8168 78.6655 26.8168 78.787 26.8168C78.787 26.8758 78.787 26.9347 78.787 26.9955C78.8754 26.9955 78.9639 26.9955 79.055 26.9955C79.055 27.0545 79.055 27.1134 79.055 27.1742C79.1447 27.1829 79.2345 27.1917 79.3269 27.2007C79.6925 27.2533 80.0049 27.3909 80.3338 27.5539C80.3922 27.5821 80.4506 27.6103 80.5108 27.6394C80.6275 27.6959 80.7441 27.7529 80.8604 27.8102C80.999 27.8783 81.1384 27.9447 81.2779 28.0108C81.7217 28.224 82.1267 28.4674 82.5322 28.7465C82.6954 28.8564 82.859 28.9552 83.031 29.0505C83.2868 29.1943 83.537 29.3454 83.7848 29.5028C83.8538 29.5462 83.9228 29.5896 83.9939 29.6344C84.0701 29.6991 84.0701 29.6991 84.1478 29.7652C84.1478 29.8537 84.1478 29.9421 84.1478 30.0333C84.0594 30.0333 83.9709 30.0333 83.8798 30.0333C83.8798 29.9743 83.8798 29.9153 83.8798 29.8546C83.7766 29.8454 83.6734 29.8362 83.5671 29.8267C83.2363 29.7855 82.9568 29.6977 82.6487 29.5742C81.9083 29.287 81.2087 29.1767 80.4176 29.1286C80.2226 29.1156 80.0276 29.1023 79.8326 29.0889C79.705 29.0809 79.705 29.0809 79.5748 29.0728C79.3231 29.0505 79.3231 29.0505 79.0674 29.0041C78.7368 28.9534 78.413 28.9483 78.0795 28.9493C78.0135 28.9492 77.9475 28.9491 77.8794 28.949C77.7407 28.9489 77.6021 28.9491 77.4634 28.9495C77.251 28.95 77.0387 28.9495 76.8264 28.9489C76.6913 28.949 76.5561 28.9491 76.421 28.9493C76.326 28.949 76.3259 28.949 76.229 28.9487C75.9549 28.95 75.7433 28.9631 75.4811 29.0505C75.2297 29.0646 74.9789 29.0753 74.7273 29.084C73.8732 29.1209 73.0419 29.2355 72.1992 29.3749C72.0094 29.4058 71.8194 29.4344 71.6291 29.462C71.5237 29.4773 71.4183 29.4926 71.3097 29.5084C71.2191 29.5215 71.1285 29.5346 71.0351 29.5482C70.8384 29.5665 70.8384 29.5665 70.7457 29.6759C70.5671 29.6795 70.3883 29.6797 70.2097 29.6759C70.2097 29.7349 70.2097 29.7938 70.2097 29.8546C70.1083 29.8638 70.0069 29.873 69.9025 29.8825C69.2694 29.9629 68.7159 30.1889 68.1533 30.4814C67.7828 30.6652 67.411 30.8374 66.9932 30.8374C66.9932 30.8964 66.9932 30.9553 66.9932 31.0161C66.8992 31.0548 66.8052 31.0935 66.7084 31.1334C66.3231 31.3253 66.0078 31.5776 65.6809 31.8537C65.6321 31.8947 65.5833 31.9356 65.533 31.9777C65.2879 32.1891 65.0721 32.403 64.8694 32.6558C64.8036 32.7338 64.7379 32.8119 64.6701 32.8924C64.6112 32.8924 64.5522 32.8924 64.4914 32.8924C64.462 33.0398 64.4325 33.1872 64.4021 33.3391C64.2694 33.3834 64.2694 33.3834 64.134 33.4285C64.1046 33.5759 64.0751 33.7233 64.0447 33.8752C63.9857 33.8752 63.9268 33.8752 63.866 33.8752C63.8586 33.9342 63.8513 33.9931 63.8437 34.0539C63.7767 34.3219 63.7767 34.3219 63.6091 34.6179C62.9688 35.8706 62.9497 37.7041 63.3606 39.0263C63.4193 39.236 63.4193 39.236 63.4193 39.5934C63.4782 39.5934 63.5372 39.5934 63.598 39.5934C63.6053 39.645 63.6127 39.6966 63.6203 39.7498C63.7065 40.0084 63.8519 40.1158 64.0447 40.3082C64.1648 40.4662 64.2819 40.6264 64.3965 40.7884C64.8793 41.5087 64.8793 41.5087 65.5636 42.0058C65.606 42.0629 65.6484 42.12 65.692 42.1789C65.8607 42.4016 66.036 42.4953 66.2784 42.6312C66.341 42.6791 66.4037 42.727 66.4682 42.7764C66.6409 42.9162 66.6409 42.9162 66.9038 42.9886C66.9038 43.0476 66.9038 43.1066 66.9038 43.1673C67.0033 43.1811 67.0033 43.1811 67.1048 43.1952C67.3734 43.2624 67.4898 43.359 67.7079 43.5247C68.1971 43.8008 68.6804 44.0194 69.2268 44.1501C69.2268 44.2091 69.2268 44.2681 69.2268 44.3288C69.2766 44.3402 69.3263 44.3516 69.3776 44.3634C69.6017 44.4228 69.8138 44.499 70.031 44.5801C70.4932 44.7514 70.9598 44.9035 71.4305 45.0499C71.6392 45.1329 71.6392 45.1329 71.7286 45.3116C71.8973 45.3853 71.8973 45.3853 72.1023 45.4432C72.1778 45.4664 72.2533 45.4896 72.3311 45.5135C72.4105 45.5372 72.4899 45.5609 72.5718 45.5853C72.728 45.6327 72.8843 45.6803 73.0405 45.728C73.1101 45.7489 73.1797 45.7697 73.2514 45.7912C73.4261 45.8477 73.4261 45.8477 73.6048 45.9371C73.6048 45.996 73.6048 46.055 73.6048 46.1158C73.7117 46.1287 73.8186 46.1416 73.9287 46.1549C74.2393 46.1935 74.5474 46.2405 74.8557 46.2945C74.8557 46.3534 74.8557 46.4124 74.8557 46.4731C75.1506 46.5026 75.4454 46.5321 75.7492 46.5625C75.7492 46.6215 75.7492 46.6804 75.7492 46.7412C75.8068 46.7516 75.8643 46.7619 75.9237 46.7726C76.2793 46.8483 76.6276 46.9449 76.9777 47.0427C77.0498 47.0629 77.1219 47.083 77.1962 47.1038C77.9131 47.3057 78.6011 47.5404 79.291 47.821C79.6795 47.9716 80.0797 48.0736 80.4846 48.1707C80.4846 48.2297 80.4846 48.2887 80.4846 48.3494C80.597 48.3568 80.7094 48.3642 80.8252 48.3718C81.245 48.4181 81.6 48.5438 81.992 48.696C82.5208 48.8855 83.0676 49.0155 83.6117 49.1536C83.6117 49.2125 83.6117 49.2715 83.6117 49.3323C83.7168 49.3415 83.8218 49.3507 83.93 49.3602C84.3065 49.407 84.6049 49.5341 84.9519 49.6896C85.7108 49.9397 86.4879 50.1382 87.258 50.3503C88.5895 50.72 88.5895 50.72 89.1959 50.9908C89.5009 51.116 89.7843 51.1887 90.1065 51.2508C90.3605 51.3088 90.6017 51.394 90.8488 51.4766C91.0718 51.5376 91.2952 51.5971 91.5189 51.6553C92.5672 51.928 93.5829 52.3031 94.5903 52.6995C95.0097 52.8622 95.4134 52.9881 95.8523 53.0848C95.9864 53.118 96.1204 53.1515 96.2543 53.1853C96.3575 53.2111 96.4607 53.2369 96.5671 53.2635C96.5671 53.3225 96.5671 53.3815 96.5671 53.4422C96.6179 53.453 96.6686 53.4639 96.721 53.475C96.79 53.49 96.8589 53.505 96.93 53.5204C96.9974 53.5349 97.0648 53.5494 97.1342 53.5644C97.6804 53.6947 98.2151 53.8657 98.7505 54.0341C98.8158 54.0546 98.8812 54.0751 98.9485 54.0963C99.1078 54.1462 99.267 54.1963 99.4262 54.2463C99.4262 54.3053 99.4262 54.3643 99.4262 54.425C99.5128 54.4343 99.5994 54.4435 99.6886 54.453C100.095 54.5101 100.47 54.6449 100.856 54.7824C100.944 54.8119 101.033 54.8414 101.124 54.8718C101.124 54.9307 101.124 54.9897 101.124 55.0505C101.36 55.08 101.596 55.1094 101.839 55.1398C101.839 55.1988 101.839 55.2578 101.839 55.3185C102.074 55.348 102.31 55.3775 102.553 55.4079C102.553 55.4963 102.553 55.5848 102.553 55.6759C76.9607 55.6759 51.3681 55.6759 25 55.6759C25.0518 55.1062 25.1039 54.5443 25.1787 53.9783C25.2377 53.9783 25.2966 53.9783 25.3574 53.9783C25.3574 53.8014 25.3574 53.6245 25.3574 53.4422C25.4164 53.4422 25.4753 53.4422 25.5361 53.4422C25.5384 53.3891 25.5407 53.336 25.5431 53.2813C25.5799 52.7429 25.698 52.2935 25.8991 51.7931C25.9817 51.5691 26.0317 51.3542 26.0722 51.1192C26.1311 51.1192 26.1901 51.1192 26.2509 51.1192C26.2803 50.8538 26.3098 50.5885 26.3402 50.3151C26.3992 50.3151 26.4581 50.3151 26.5189 50.3151C26.53 50.2063 26.541 50.0976 26.5524 49.9856C26.5894 49.6839 26.657 49.4308 26.7869 49.1536C26.8459 49.1536 26.9049 49.1536 26.9656 49.1536C26.9951 48.9472 27.0246 48.7408 27.055 48.5281C27.114 48.5281 27.1729 48.5281 27.2337 48.5281C27.2422 48.4378 27.2507 48.3475 27.2595 48.2545C27.3118 47.8896 27.4519 47.6036 27.6246 47.2773C27.8407 46.8653 28.0381 46.4555 28.2165 46.0264C28.2755 46.0264 28.3344 46.0264 28.3952 46.0264C28.4125 45.9725 28.4297 45.9186 28.4475 45.8631C28.4824 45.756 28.4824 45.756 28.518 45.6467C28.5523 45.541 28.5523 45.541 28.5871 45.4331C28.6589 45.2342 28.7434 45.0517 28.8419 44.8649C28.9009 44.8649 28.9599 44.8649 29.0206 44.8649C29.0501 44.7175 29.0796 44.5701 29.11 44.4182C29.1689 44.4182 29.2279 44.4182 29.2887 44.4182C29.2964 44.3562 29.3041 44.2942 29.312 44.2304C29.394 43.9086 29.5398 43.6813 29.7186 43.4018C30.0082 42.9473 30.0082 42.9473 30.2771 42.4804C30.5193 42.0664 30.7968 41.6811 31.0756 41.291C31.1511 41.1845 31.2266 41.0779 31.3021 40.9713C31.3811 40.8601 31.4601 40.7489 31.5391 40.6377C31.5763 40.5853 31.6134 40.5328 31.6517 40.4788C32.094 39.8587 32.094 39.8587 32.3265 39.5934C32.3854 39.5934 32.4444 39.5934 32.5052 39.5934C32.53 39.505 32.53 39.505 32.5554 39.4147C32.7107 39.0906 32.9197 38.8676 33.1603 38.6033C33.3278 38.4107 33.4471 38.2042 33.5773 37.9852C33.7242 37.8343 33.8734 37.6856 34.0241 37.5384C34.1652 37.3719 34.3039 37.2039 34.4411 37.0341C34.4804 36.9942 34.5197 36.9542 34.5601 36.913C34.6191 36.913 34.6781 36.913 34.7388 36.913C34.7573 36.8656 34.7757 36.8181 34.7947 36.7692C34.9693 36.4656 35.2053 36.242 35.4536 35.9972C35.5024 35.9477 35.5513 35.8982 35.6016 35.8471C35.9671 35.4835 35.9671 35.4835 36.1684 35.4835C36.1888 35.4329 36.2092 35.3823 36.2302 35.3302C36.3786 35.071 36.5629 34.914 36.7882 34.7184C37.0987 34.45 37.0987 34.45 37.3917 34.1631C37.5086 34.0539 37.5086 34.0539 37.6873 34.0539C37.6873 33.9949 37.6873 33.936 37.6873 33.8752C37.8506 33.7304 37.8506 33.7304 38.067 33.5681C38.1375 33.5148 38.208 33.4614 38.2806 33.4065C38.3502 33.3548 38.4197 33.3031 38.4914 33.2498C38.5555 33.199 38.6195 33.1482 38.6855 33.0959C38.8488 32.9817 38.8488 32.9817 39.0275 32.9817C39.057 32.8933 39.0865 32.8048 39.1168 32.7137C39.2497 32.5919 39.2497 32.5919 39.4194 32.4687C39.4812 32.4232 39.543 32.3777 39.6067 32.3308C39.6717 32.284 39.7367 32.2371 39.8037 32.1888C39.9307 32.0961 40.0577 32.0032 40.1845 31.9103C40.2769 31.8427 40.2769 31.8427 40.3712 31.7737C40.5309 31.6532 40.6837 31.5282 40.8357 31.3983C41.0481 31.2231 41.2417 31.0921 41.4845 30.9658C41.7305 30.8348 41.9648 30.7004 42.1937 30.5414C42.4227 30.3907 42.4227 30.3907 42.6014 30.3907C42.6014 30.3317 42.6014 30.2727 42.6014 30.212C42.7557 30.126 42.9102 30.0405 43.0649 29.9551C43.1509 29.9074 43.2369 29.8597 43.3256 29.8106C43.5572 29.69 43.7868 29.5891 44.0309 29.4972C44.0309 29.4382 44.0309 29.3793 44.0309 29.3185C44.0936 29.2904 44.1562 29.2623 44.2208 29.2333C44.625 29.051 45.027 28.8678 45.4214 28.6652C45.7285 28.5144 45.7285 28.5144 45.9072 28.5144C45.9072 28.4554 45.9072 28.3964 45.9072 28.3357C46.1726 28.2915 46.1726 28.2915 46.4433 28.2463C46.4433 28.1874 46.4433 28.1284 46.4433 28.0676C46.5918 28.004 46.7404 27.9404 46.889 27.8771C47.0065 27.8264 47.1235 27.7748 47.2401 27.7221C47.4974 27.6069 47.6769 27.5316 47.9622 27.5316C47.9622 27.4726 47.9622 27.4136 47.9622 27.3529C48.1928 27.2628 48.4236 27.1736 48.6547 27.0848C48.7198 27.0593 48.785 27.0337 48.8522 27.0073C48.9155 26.9832 48.9789 26.959 49.0442 26.9341C49.1312 26.9004 49.1312 26.9004 49.22 26.866C49.3918 26.8168 49.3918 26.8168 49.7492 26.8168C49.7492 26.7578 49.7492 26.6988 49.7492 26.6381C49.9927 26.5479 50.2366 26.4587 50.4807 26.3701C50.5837 26.3317 50.5837 26.3317 50.6889 26.2926C51.041 26.1656 51.3343 26.0654 51.7148 26.102C51.7148 26.043 51.7148 25.9841 51.7148 25.9233C52.1899 25.8123 52.6603 25.7171 53.1443 25.6553C53.1443 25.5963 53.1443 25.5373 53.1443 25.4766C53.5017 25.4077 53.8591 25.3388 54.2165 25.27C54.3227 25.2495 54.4289 25.229 54.5383 25.2079C55.4509 25.0322 55.4509 25.0322 55.9022 24.9499C55.9641 24.9386 56.0259 24.9273 56.0897 24.9157C56.2468 24.8871 56.404 24.859 56.5612 24.8309C56.8468 24.7721 57.1252 24.7028 57.4072 24.6288C57.9419 24.4936 58.4713 24.4144 59.0189 24.3542C59.1159 24.3432 59.2128 24.3323 59.3127 24.3211C59.6093 24.2883 59.906 24.257 60.2028 24.2257C60.288 24.2161 60.3732 24.2065 60.461 24.1967C63.3521 23.8751 66.3415 23.9714 69.2268 24.3151Z" fill="#5852B0"/>
<path d="M25.8042 72.4736C51.2789 72.4736 76.7535 72.4736 103 72.4736C103 72.7095 103 72.9454 103 73.1884C102.941 73.1884 102.882 73.1884 102.821 73.1884C102.83 73.3294 102.83 73.3294 102.838 73.4732C102.841 74.0191 102.688 74.5393 102.553 75.0647C102.494 75.0647 102.435 75.0647 102.375 75.0647C102.365 75.1188 102.355 75.173 102.345 75.2287C102.205 75.9699 101.987 76.673 101.749 77.3877C101.718 77.5065 101.688 77.6255 101.66 77.7451C101.601 77.7451 101.542 77.7451 101.481 77.7451C101.47 77.8373 101.459 77.9294 101.448 78.0243C101.397 78.3367 101.322 78.6103 101.213 78.9066C101.154 78.9066 101.095 78.9066 101.034 78.9066C101.027 78.9969 101.02 79.0872 101.012 79.1802C100.968 79.4964 100.849 79.7238 100.68 79.9962C100.586 80.1607 100.522 80.3194 100.459 80.4981C100.327 80.8719 100.152 81.2176 99.97 81.5692C99.8637 81.7733 99.8637 81.7733 99.7836 82.0338C99.7247 82.0338 99.6657 82.0338 99.6049 82.0338C99.5977 82.1077 99.5904 82.1817 99.5829 82.2578C99.5003 82.6405 99.3428 82.9344 99.1526 83.2735C99.1189 83.335 99.0852 83.3965 99.0505 83.4598C98.968 83.6103 98.8845 83.7602 98.8008 83.9101C98.7418 83.9101 98.6829 83.9101 98.6221 83.9101C98.6127 83.9755 98.6032 84.0409 98.5935 84.1083C98.528 84.3763 98.4344 84.5349 98.2759 84.7589C98.0815 85.0363 97.9018 85.3164 97.7286 85.6077C97.5788 85.8502 97.4276 86.0919 97.2763 86.3336C97.2165 86.4295 97.2165 86.4295 97.1554 86.5273C97.1169 86.5889 97.0783 86.6505 97.0387 86.714C97.0039 86.7697 96.9691 86.8253 96.9332 86.8826C96.843 87.0248 96.7499 87.1651 96.6565 87.3052C96.5975 87.3052 96.5385 87.3052 96.4778 87.3052C96.452 87.3734 96.4262 87.4416 96.3996 87.5119C96.2991 87.752 96.2991 87.752 96.1204 88.02C96.0614 88.02 96.0025 88.02 95.9417 88.02C95.9122 88.1674 95.8827 88.3149 95.8524 88.4668C95.7934 88.4668 95.7344 88.4668 95.6737 88.4668C95.6516 88.522 95.6294 88.5773 95.6067 88.6343C95.495 88.8242 95.495 88.8242 95.3163 88.9079C95.0681 89.0397 95.059 89.1904 94.9589 89.4496C94.8219 89.6456 94.6761 89.8095 94.5121 89.9857C94.4532 89.9857 94.3942 89.9857 94.3335 89.9857C94.3263 90.0368 94.3192 90.0879 94.3118 90.1406C94.2223 90.4082 94.0802 90.5299 93.8755 90.7228C93.547 91.0388 93.2466 91.3637 92.958 91.7164C92.8029 91.8738 92.6589 91.9535 92.4572 92.0406C92.4572 92.1291 92.4572 92.2176 92.4572 92.3087C92.1593 92.5767 92.1593 92.5767 91.9211 92.5767C91.8971 92.6339 91.8732 92.691 91.8485 92.7498C91.7424 92.9341 91.7424 92.9341 91.4743 93.0235C91.4088 93.2035 91.4088 93.2035 91.385 93.3809C91.326 93.3809 91.2671 93.3809 91.2063 93.3809C91.2063 93.4398 91.2063 93.4988 91.2063 93.5595C91.0574 93.6489 90.9085 93.7382 90.7596 93.8276C90.6803 93.9068 90.6011 93.9861 90.5194 94.0677C90.4513 94.1359 90.3831 94.2041 90.3128 94.2743C90.2539 94.2743 90.1949 94.2743 90.1341 94.2743C90.1047 94.3628 90.0752 94.4512 90.0448 94.5424C89.8973 94.634 89.7482 94.7231 89.5981 94.8104C89.4782 94.9288 89.3591 95.048 89.2407 95.1678C88.5329 95.7844 87.7775 96.3311 87.007 96.8654C86.9574 96.9002 86.9079 96.935 86.8568 96.9709C86.4917 97.2228 86.4917 97.2228 86.2922 97.2228C86.2922 97.2817 86.2922 97.3407 86.2922 97.4015C85.9733 97.6849 85.6191 97.8045 85.22 97.9376C85.22 97.9965 85.22 98.0555 85.22 98.1162C84.6745 98.528 84.0213 98.8127 83.4073 99.1087C83.0373 99.2888 82.7025 99.4935 82.3609 99.7245C82.0929 99.825 82.0929 99.825 81.8249 99.9032C81.7253 99.9364 81.6258 99.9695 81.5233 100.004C81.4459 100.03 81.3685 100.055 81.2888 100.082C81.2888 100.141 81.2888 100.2 81.2888 100.261C80.0943 100.797 80.0943 100.797 79.7699 100.797C79.7699 100.856 79.7699 100.915 79.7699 100.975C79.7018 100.997 79.6337 101.019 79.5636 101.041C79.1224 101.184 78.6922 101.328 78.2733 101.528C77.9059 101.699 77.5821 101.75 77.1788 101.779C77.1788 101.838 77.1788 101.897 77.1788 101.958C77.127 101.969 77.0751 101.98 77.0217 101.991C76.952 102.006 76.8822 102.021 76.8102 102.036C76.7418 102.051 76.6734 102.065 76.6029 102.08C76.2221 102.175 75.8563 102.308 75.4885 102.444C74.5356 102.795 73.6491 103.069 72.6221 103.03C72.6221 103.089 72.6221 103.148 72.6221 103.209C72.3862 103.209 72.1503 103.209 71.9073 103.209C71.9073 103.268 71.9073 103.327 71.9073 103.388C71.8565 103.392 71.8057 103.396 71.7534 103.401C71.4297 103.432 71.1313 103.469 70.8184 103.561C69.2079 104.01 67.4863 103.936 65.8317 103.924C65.8317 103.983 65.8317 104.042 65.8317 104.103C64.1298 104.129 62.4347 104.145 60.7389 103.98C60.6794 103.974 60.6199 103.968 60.5585 103.963C59.6135 103.871 59.6135 103.871 59.175 103.744C58.6661 103.6 58.1427 103.579 57.6174 103.533C56.6572 103.441 55.766 103.304 54.842 103.03C54.6543 102.981 54.4663 102.932 54.278 102.885C54.1931 102.864 54.1082 102.842 54.0208 102.82C53.7668 102.762 53.5131 102.716 53.2561 102.673C52.8341 102.6 52.4681 102.478 52.0723 102.316C51.9838 102.286 51.8954 102.257 51.8042 102.226C51.8042 102.167 51.8042 102.108 51.8042 102.048C51.7408 102.035 51.6773 102.023 51.6119 102.011C51.3587 101.958 51.1103 101.897 50.8605 101.83C50.7774 101.808 50.6944 101.786 50.6089 101.763C50.3955 101.697 50.2152 101.613 50.0173 101.511C49.8095 101.449 49.601 101.39 49.3918 101.333C49.3034 101.303 49.2149 101.274 49.1238 101.243C49.1238 101.184 49.1238 101.125 49.1238 101.065C49.0317 101.057 48.9395 101.05 48.8446 101.042C48.4604 100.968 48.2824 100.838 47.9623 100.618C47.8165 100.555 47.6693 100.496 47.5211 100.439C47.1395 100.293 46.7922 100.116 46.4434 99.9032C46.3652 99.8585 46.287 99.8138 46.2064 99.7678C46.1243 99.7203 46.0422 99.6729 45.9576 99.624C45.8803 99.5795 45.803 99.5351 45.7234 99.4893C45.6661 99.4489 45.6089 99.4086 45.5499 99.3671C45.5499 99.3081 45.5499 99.2492 45.5499 99.1884C45.4799 99.1718 45.4099 99.1552 45.3377 99.1382C44.886 98.959 44.4928 98.6964 44.1204 98.3843C44.1204 98.3253 44.1204 98.2663 44.1204 98.2056C44.5288 98.2546 44.8954 98.3322 45.2819 98.4736C45.2819 98.5326 45.2819 98.5916 45.2819 98.6523C45.3587 98.6632 45.4355 98.674 45.5147 98.6851C46.242 98.7883 46.9684 98.8964 47.6942 99.0097C47.6942 99.0687 47.6942 99.1277 47.6942 99.1884C48.3881 99.1907 49.0819 99.1923 49.7758 99.1933C50.0106 99.1937 50.2455 99.1944 50.4803 99.1952C52.0854 99.2004 53.6853 99.1722 55.2888 99.0991C55.2888 99.0401 55.2888 98.9811 55.2888 98.9204C55.5541 98.9204 55.8195 98.9204 56.0929 98.9204C56.0929 98.8614 56.0929 98.8024 56.0929 98.7417C56.2627 98.7173 56.2627 98.7173 56.436 98.6925C56.5878 98.6698 56.7396 98.6471 56.8914 98.6244C56.9656 98.6139 57.0399 98.6033 57.1164 98.5925C57.5703 98.5236 57.9855 98.421 58.4154 98.2589C58.5946 98.2056 58.5946 98.2056 58.952 98.2056C58.952 98.1466 58.952 98.0877 58.952 98.0269C59.2468 97.9974 59.5417 97.9679 59.8455 97.9376C59.8455 97.8786 59.8455 97.8196 59.8455 97.7589C59.9634 97.7589 60.0813 97.7589 60.2028 97.7589C60.2028 97.6999 60.2028 97.6409 60.2028 97.5802C60.2761 97.5575 60.3493 97.5348 60.4248 97.5114C60.5211 97.4807 60.6174 97.4499 60.7166 97.4182C60.812 97.3882 60.9073 97.3581 61.0056 97.3271C61.2574 97.2296 61.4224 97.1198 61.6324 96.9547C61.6914 96.9547 61.7503 96.9547 61.8111 96.9547C61.8111 96.8958 61.8111 96.8368 61.8111 96.776C62.2946 96.4187 62.2946 96.4187 62.5259 96.4187C62.5554 96.3302 62.5848 96.2417 62.6152 96.1506C62.6802 96.0992 62.7451 96.0479 62.8121 95.995C63.1184 95.7477 63.3376 95.4679 63.5757 95.1566C63.6419 95.0718 63.6419 95.0718 63.7094 94.9853C63.9426 94.6881 63.9426 94.6881 64.1341 94.3637C64.1931 94.3637 64.2521 94.3637 64.3128 94.3637C64.346 94.2393 64.346 94.2393 64.3798 94.1124C64.4837 93.7445 64.6201 93.3913 64.7596 93.0357C65.0192 92.2213 65.0506 91.4513 65.0388 90.5999C65.0376 90.4334 65.0376 90.4334 65.0363 90.2635C65.0342 89.9922 65.0313 89.7209 65.0276 89.4496C64.9686 89.4496 64.9097 89.4496 64.8489 89.4496C64.8208 89.374 64.7927 89.2985 64.7637 89.2206C64.5499 88.6539 64.3235 88.1108 64.0448 87.5733C64.0153 87.4848 63.9858 87.3964 63.9554 87.3052C63.9001 87.2795 63.8449 87.2537 63.7879 87.2271C63.5358 87.0936 63.4678 86.9255 63.33 86.6798C63.1455 86.4646 63.0718 86.4151 62.7939 86.3224C62.7939 86.2635 62.7939 86.2045 62.7939 86.1437C62.7165 86.1078 62.7165 86.1078 62.6376 86.0711C62.4316 85.9624 62.256 85.8486 62.0791 85.697C62.0791 85.638 62.0791 85.5791 62.0791 85.5183C62.0128 85.4925 61.9465 85.4667 61.8781 85.4401C61.6711 85.3554 61.4734 85.2638 61.275 85.1609C61.275 85.1019 61.275 85.043 61.275 84.9822C61.2109 84.9727 61.1467 84.9631 61.0806 84.9533C60.8051 84.8873 60.609 84.7841 60.3648 84.6416C59.9061 84.3839 59.4447 84.182 58.952 83.9994C58.8457 83.9592 58.8457 83.9592 58.7373 83.9181C58.5709 83.8552 58.4041 83.7932 58.2372 83.7314C58.2372 83.6724 58.2372 83.6134 58.2372 83.5527C57.9129 83.4642 57.5886 83.3758 57.2544 83.2846C57.2544 83.2257 57.2544 83.1667 57.2544 83.1059C56.9006 83.0617 56.9006 83.0617 56.5396 83.0166C56.5396 82.9576 56.5396 82.8987 56.5396 82.8379C56.4733 82.8268 56.4069 82.8158 56.3386 82.8044C56.0929 82.7485 56.0929 82.7485 55.9254 82.6592C55.7137 82.5596 55.5433 82.5345 55.3111 82.514C55.2397 82.5073 55.1683 82.5007 55.0947 82.4938C55.0139 82.4872 55.0139 82.4872 54.9314 82.4805C54.9314 82.4215 54.9314 82.3626 54.9314 82.3018C54.8381 82.2849 54.8381 82.2849 54.7429 82.2676C53.9872 82.1063 53.2502 81.8349 52.519 81.587C52.519 81.5281 52.519 81.4691 52.519 81.4083C51.8949 81.2682 51.8949 81.2682 51.2681 81.1403C51.2681 81.0813 51.2681 81.0224 51.2681 80.9616C51.2181 80.9603 51.1682 80.9591 51.1167 80.9578C50.4023 80.9153 49.7845 80.6835 49.1238 80.4255C49.1238 80.3666 49.1238 80.3076 49.1238 80.2468C48.9764 80.2468 48.829 80.2468 48.6771 80.2468C48.6771 80.1879 48.6771 80.1289 48.6771 80.0681C48.5978 80.0616 48.5978 80.0616 48.5169 80.0549C48.1209 80.0174 47.7908 79.9676 47.4262 79.8001C47.0195 79.6521 46.6108 79.5568 46.1865 79.4762C46.125 79.4642 46.0635 79.4523 46.0001 79.4399C45.8501 79.4107 45.7 79.382 45.5499 79.3534C45.5499 79.2944 45.5499 79.2354 45.5499 79.1747C45.4025 79.1747 45.2551 79.1747 45.1032 79.1747C45.1032 79.1157 45.1032 79.0567 45.1032 78.996C45.049 78.9937 44.9949 78.9914 44.9391 78.989C44.4178 78.9537 44.0007 78.8443 43.5225 78.6361C43.3006 78.5374 43.3006 78.5374 42.9924 78.4599C42.6908 78.3705 42.6908 78.3705 42.3837 78.203C41.8739 77.9384 41.3108 77.8366 40.7557 77.7062C40.3717 77.6136 39.9901 77.5114 39.6083 77.4101C39.533 77.3901 39.4576 77.3702 39.38 77.3497C39.2029 77.3029 39.0259 77.256 38.8489 77.209C38.8489 77.1501 38.8489 77.0911 38.8489 77.0303C38.7906 77.026 38.7323 77.0216 38.6723 77.0171C38.2295 76.9792 37.8366 76.927 37.4193 76.7623C37.4193 76.7033 37.4193 76.6444 37.4193 76.5836C37.3014 76.5836 37.1835 76.5836 37.0619 76.5836C37.0619 76.5246 37.0619 76.4657 37.0619 76.4049C36.7671 76.3754 36.4722 76.3459 36.1685 76.3156C36.1685 76.2566 36.1685 76.1976 36.1685 76.1369C36.0776 76.1334 36.0776 76.1334 35.9849 76.1299C35.3522 76.0913 34.8677 75.9446 34.2922 75.6901C34.0973 75.6106 33.9018 75.5325 33.7058 75.4556C33.6154 75.4194 33.525 75.3833 33.4319 75.346C33.1981 75.2664 32.9838 75.2092 32.7436 75.1596C32.3145 75.069 31.919 74.9224 31.5112 74.7632C30.9786 74.56 30.451 74.3805 29.8974 74.2438C29.4095 74.1216 29.0141 73.9646 28.574 73.7245C28.2793 73.6168 27.9861 73.527 27.6805 73.4565C27.6805 73.3975 27.6805 73.3385 27.6805 73.2778C27.6307 73.2669 27.581 73.2561 27.5297 73.2449C27.0715 73.1443 26.6162 73.0361 26.1616 72.9204C26.1616 72.8614 26.1616 72.8024 26.1616 72.7417C26.0436 72.7122 25.9257 72.6827 25.8042 72.6523C25.8042 72.5934 25.8042 72.5344 25.8042 72.4736Z" fill="#5852B0"/>
<path d="M32.5611 58.8811C32.6899 58.8814 32.6899 58.8814 32.8213 58.8816C33.4935 58.8857 34.1589 58.9176 34.8283 58.9816C34.8283 59.0406 34.8283 59.0995 34.8283 59.1603C34.8824 59.1595 34.9366 59.1587 34.9923 59.1579C35.6932 59.1827 36.0781 59.4466 36.6152 59.8751C36.6876 59.9263 36.7599 59.9776 36.8344 60.0304C37.4621 60.4824 37.8272 60.922 37.9834 61.6899C38.0484 62.1803 38.0656 62.6701 38.0727 63.1642C38.0743 63.2357 38.0759 63.3072 38.0775 63.3808C38.0769 63.8615 37.9876 64.1792 37.7768 64.6105C37.7338 64.742 37.6926 64.8741 37.6539 65.007C37.2322 66.2916 36.0917 67.5413 34.9176 68.1844C34.8587 68.1844 34.7997 68.1844 34.7389 68.1844C34.7389 68.2433 34.7389 68.3023 34.7389 68.3631C33.5992 68.6881 32.5266 68.8534 31.3438 68.8991C31.2449 68.904 31.1461 68.9088 31.0443 68.9138C30.2027 68.9372 29.3976 68.7864 28.574 68.6311C28.574 68.5721 28.574 68.5132 28.574 68.4524C28.4561 68.4524 28.3381 68.4524 28.2166 68.4524C28.2166 68.3934 28.2166 68.3345 28.2166 68.2737C28.1447 68.2719 28.0729 68.27 27.9988 68.2681C27.4433 68.1219 26.9742 67.7351 26.6474 67.263C26.519 67.0228 26.519 67.0228 26.519 66.8442C26.46 66.8442 26.4011 66.8442 26.3403 66.8442C26.1616 66.4868 26.1616 66.4868 26.1616 65.1466C27.1051 65.1466 28.0486 65.1466 29.0207 65.1466C29.0797 65.4119 29.1387 65.6773 29.1994 65.9507C29.3773 66.2068 29.3773 66.2068 29.5568 66.3974C29.5568 66.4564 29.5568 66.5154 29.5568 66.5761C29.6066 66.5853 29.6563 66.5945 29.7076 66.604C29.9142 66.6655 29.9142 66.6655 30.0964 66.8009C30.4733 66.9898 30.8104 66.9774 31.2265 66.9726C31.3066 66.972 31.3866 66.9714 31.4691 66.9707C32.3773 66.9487 32.951 66.6662 33.6668 66.1294C33.7258 66.1294 33.7847 66.1294 33.8455 66.1294C33.8713 66.0612 33.8971 65.993 33.9237 65.9228C34.0242 65.6826 34.0242 65.6826 34.2029 65.4146C34.2618 65.4146 34.3208 65.4146 34.3816 65.4146C34.411 65.1787 34.4405 64.9428 34.4709 64.6998C33.1146 64.6998 31.7583 64.6998 30.3609 64.6998C30.3609 64.0481 30.3609 64.0481 30.5396 63.6277C30.5691 63.4213 30.5986 63.2149 30.629 63.0022C32.0737 63.0022 33.5185 63.0022 35.007 63.0022C34.9211 62.0179 34.9211 62.0179 34.4709 61.3046C34.3244 61.2114 34.176 61.1209 34.0242 61.0366C34.0242 60.9776 34.0242 60.9187 34.0242 60.8579C33.6408 60.8448 33.2574 60.8369 32.8738 60.83C32.7663 60.8262 32.6587 60.8225 32.5478 60.8186C31.8412 60.809 31.3038 60.8896 30.7183 61.3046C30.5497 61.4745 30.415 61.648 30.2716 61.8407C30.2126 61.8407 30.1537 61.8407 30.0929 61.8407C30.0634 61.9881 30.0339 62.1356 30.0035 62.2874C29.0306 62.2874 28.0576 62.2874 27.0551 62.2874C27.0551 62.14 27.0551 61.9926 27.0551 61.8407C27.1141 61.8407 27.173 61.8407 27.2338 61.8407C27.2448 61.7891 27.2559 61.7375 27.2673 61.6844C27.3237 61.4812 27.4025 61.3113 27.5018 61.1259C27.5608 61.1259 27.6198 61.1259 27.6805 61.1259C27.6805 61.067 27.6805 61.008 27.6805 60.9472C27.7395 60.9472 27.7985 60.9472 27.8592 60.9472C27.8592 60.8588 27.8592 60.7703 27.8592 60.6792C27.9182 60.6792 27.9772 60.6792 28.0379 60.6792C28.0674 60.5907 28.0969 60.5023 28.1273 60.4112C28.1862 60.4112 28.2452 60.4112 28.306 60.4112C28.306 60.3522 28.306 60.2932 28.306 60.2325C28.4534 60.1735 28.6008 60.1145 28.7527 60.0538C28.7527 59.9948 28.7527 59.9358 28.7527 59.8751C29.0123 59.6927 29.1459 59.607 29.4675 59.607C29.4675 59.5481 29.4675 59.4891 29.4675 59.4283C29.7716 59.2468 30.0324 59.2167 30.3833 59.1938C30.4796 59.1871 30.5758 59.1804 30.675 59.1736C30.7483 59.1692 30.8215 59.1648 30.897 59.1603C30.897 59.1013 30.897 59.0424 30.897 58.9816C31.4551 58.8993 31.9974 58.8783 32.5611 58.8811Z" fill="#5852B0"/>
<path d="M44.5669 59.1614C45.5694 59.1614 46.5719 59.1614 47.6047 59.1614C47.5452 59.6967 47.5046 60.0612 47.3423 60.5462C47.2343 60.8801 47.1339 61.2078 47.063 61.5514C46.9744 61.9534 46.8414 62.3447 46.7112 62.7352C48.097 62.7352 49.4828 62.7352 50.9106 62.7352C50.9695 62.4109 51.0285 62.0866 51.0893 61.7524C51.1187 61.6345 51.1482 61.5166 51.1786 61.395C51.2376 61.395 51.2965 61.395 51.3573 61.395C51.3639 61.3092 51.3639 61.3092 51.3706 61.2216C51.4111 60.7522 51.4782 60.3263 51.6253 59.8761C51.6548 59.7785 51.6843 59.6808 51.7147 59.5802C51.804 59.3401 51.804 59.3401 51.9827 59.1614C52.2573 59.1411 52.2573 59.1411 52.6061 59.1439C52.6979 59.1443 52.6979 59.1443 52.7916 59.1447C52.9873 59.1457 53.183 59.1479 53.3788 59.1502C53.5114 59.1511 53.644 59.1519 53.7766 59.1526C54.1019 59.1546 54.4272 59.1577 54.7525 59.1614C54.7397 59.319 54.7265 59.4767 54.713 59.6343C54.7057 59.7221 54.6984 59.8098 54.6909 59.9003C54.6591 60.18 54.5878 60.4188 54.4844 60.6803C54.3698 60.9955 54.2875 61.3004 54.2276 61.6296C54.162 61.9749 54.0693 62.2971 53.9539 62.6291C53.7587 63.1916 53.6255 63.7617 53.5016 64.3435C53.4427 64.3435 53.3837 64.3435 53.3229 64.3435C53.3108 64.4317 53.2987 64.5199 53.2863 64.6108C53.2343 64.9738 53.1716 65.3343 53.1051 65.6949C53.0943 65.7565 53.0834 65.8181 53.0722 65.8816C53.009 66.2241 52.9162 66.5235 52.7869 66.8452C52.7019 67.1507 52.6272 67.4585 52.5523 67.7666C52.4823 68.0522 52.4123 68.3379 52.3401 68.6322C51.3376 68.6322 50.3352 68.6322 49.3023 68.6322C49.3318 68.3668 49.3613 68.1014 49.3917 67.828C49.4506 67.828 49.5096 67.828 49.5704 67.828C49.5704 67.6806 49.5704 67.5332 49.5704 67.3813C49.6293 67.3813 49.6883 67.3813 49.749 67.3813C49.7556 67.2873 49.7556 67.2873 49.7623 67.1914C49.8034 66.6694 49.8745 66.1875 50.0171 65.6837C50.0761 65.6837 50.135 65.6837 50.1958 65.6837C50.1939 65.6118 50.1921 65.54 50.1902 65.4659C50.1958 65.237 50.1958 65.237 50.2851 65.1476C50.3146 64.9412 50.3441 64.7348 50.3745 64.5222C49.0182 64.5517 47.6619 64.5812 46.2645 64.6115C46.0739 65.0562 45.9624 65.3201 45.9071 65.773C45.8482 65.773 45.7892 65.773 45.7284 65.773C45.7321 65.8652 45.7358 65.9573 45.7396 66.0523C45.7284 66.3985 45.7284 66.3985 45.6471 66.6362C45.5254 67.009 45.4688 67.3797 45.4101 67.7666C45.2934 68.5311 45.2934 68.5311 45.1923 68.6322C44.9671 68.6401 44.7443 68.6425 44.5191 68.6409C44.4181 68.6407 44.4181 68.6407 44.3152 68.6405C44.0994 68.64 43.8836 68.6389 43.6679 68.6377C43.5219 68.6373 43.376 68.6369 43.23 68.6365C42.8715 68.6355 42.513 68.634 42.1545 68.6322C42.1545 68.5437 42.1545 68.4552 42.1545 68.3641C42.2135 68.3641 42.2725 68.3641 42.3332 68.3641C42.3498 68.2148 42.3498 68.2148 42.3667 68.0626C42.4413 67.4694 42.56 66.8923 42.7272 66.3184C42.7903 66.0938 42.8479 65.868 42.9053 65.6418C42.9277 65.5539 42.9501 65.4661 42.9731 65.3755C43.0193 65.1939 43.0652 65.0122 43.1107 64.8304C43.3013 64.0862 43.3013 64.0862 43.4605 63.7345C43.587 63.4433 43.6445 63.188 43.6902 62.8749C43.7044 62.781 43.7185 62.6871 43.7331 62.5904C43.7429 62.5203 43.7527 62.4501 43.7628 62.3779C43.8218 62.3779 43.8807 62.3779 43.9415 62.3779C43.9448 62.3204 43.9482 62.2629 43.9516 62.2037C44.0008 61.5279 44.133 60.8897 44.2989 60.2335C44.3578 60.2335 44.4168 60.2335 44.4776 60.2335C44.5071 59.8797 44.5365 59.5259 44.5669 59.1614Z" fill="#5852B0"/>
<path d="M61.543 59.0708C62.5749 59.0708 63.6069 59.0708 64.6701 59.0708C64.6406 59.3067 64.6112 59.5425 64.5808 59.7856C64.5218 59.7856 64.4628 59.7856 64.4021 59.7856C64.394 59.8807 64.394 59.8807 64.3857 59.9779C64.3782 60.06 64.3707 60.1421 64.363 60.2267C64.3557 60.3086 64.3485 60.3905 64.341 60.4749C64.3127 60.679 64.3127 60.679 64.2234 60.7684C64.1924 60.9092 64.165 61.0508 64.1396 61.1928C64.0776 61.519 63.9907 61.8009 63.866 62.1086C63.8319 62.3164 63.8013 62.5249 63.7766 62.734C64.2722 62.4209 64.7211 62.0908 65.15 61.6905C65.2956 61.5725 65.2956 61.5725 65.4742 61.5725C65.4742 61.5135 65.4742 61.4546 65.4742 61.3938C65.6504 61.2709 65.8296 61.1524 66.0103 61.0364C66.0914 60.9701 66.1725 60.9037 66.256 60.8354C66.4571 60.679 66.4571 60.679 66.6358 60.679C66.6358 60.6201 66.6358 60.5611 66.6358 60.5003C66.7764 60.3865 66.9228 60.2797 67.0713 60.1764C67.1522 60.12 67.233 60.0636 67.3163 60.0054C67.3638 59.9734 67.4113 59.9415 67.4603 59.9085C67.6285 59.7851 67.6285 59.7851 67.7842 59.6033C68.2919 59.0898 68.7252 59.007 69.4202 59.001C69.7618 59.0031 70.1028 59.014 70.4442 59.0261C70.6209 59.0297 70.7976 59.033 70.9743 59.0359C71.4046 59.0437 71.8345 59.056 72.2646 59.0708C72.1938 59.1414 72.1229 59.212 72.0499 59.2848C71.9246 59.4105 71.8 59.5368 71.6793 59.6669C71.5236 59.8096 71.3643 59.8918 71.1757 59.9866C70.7962 60.1896 70.497 60.4328 70.1852 60.7279C70.0309 60.8577 70.0309 60.8577 69.7629 60.9471C69.6644 61.0486 69.5661 61.1503 69.4683 61.2525C69.1967 61.5048 68.8891 61.71 68.5878 61.9253C68.1177 62.2639 67.6613 62.6188 67.2221 62.9965C66.9931 63.1807 66.9931 63.1807 66.8145 63.1807C66.8145 63.2397 66.8145 63.2987 66.8145 63.3594C66.6375 63.4479 66.6375 63.4479 66.4571 63.5381C66.5111 63.8208 66.6018 63.9973 66.7771 64.2243C66.8236 64.2852 66.8701 64.3461 66.9179 64.4089C66.9667 64.4717 67.0155 64.5345 67.0657 64.5991C67.3834 65.0122 67.6907 65.4251 67.976 65.8612C68.0276 65.9275 68.0792 65.9938 68.1323 66.0622C68.244 66.2185 68.244 66.2185 68.244 66.3972C68.3767 66.4415 68.3767 66.4415 68.512 66.4866C68.6181 66.7155 68.6181 66.7155 68.6907 66.9333C68.7497 66.9333 68.8087 66.9333 68.8694 66.9333C69.0236 67.1335 69.1684 67.3337 69.3106 67.542C69.3893 67.6563 69.4683 67.7704 69.5476 67.8844C69.5825 67.9354 69.6173 67.9864 69.6533 68.0389C69.7616 68.1904 69.7616 68.1904 69.9104 68.3258C70.0309 68.4522 70.0309 68.4522 70.0309 68.6309C69.5207 68.6531 69.0108 68.6693 68.5002 68.68C68.3268 68.6845 68.1533 68.6906 67.98 68.6983C66.5415 68.761 66.5415 68.761 66.1224 68.4473C65.9591 68.2164 65.848 67.9991 65.7423 67.7374C65.6832 67.6395 65.6241 67.5417 65.5632 67.4408C65.5173 67.3581 65.4713 67.2754 65.424 67.1902C65.1716 66.7491 64.8931 66.3502 64.5808 65.9505C63.866 64.9826 63.866 64.9826 63.866 64.6996C63.807 64.6996 63.7481 64.6996 63.6873 64.6996C63.4193 64.3079 63.4193 64.3079 63.4193 64.0742C63.3603 64.0742 63.3013 64.0742 63.2406 64.0742C63.2443 64.1664 63.2479 64.2585 63.2517 64.3534C63.2409 64.6879 63.1826 64.9263 63.0619 65.2357C63.0029 65.2357 62.9439 65.2357 62.8832 65.2357C62.8782 65.3219 62.8782 65.3219 62.8731 65.4099C62.8052 66.3422 62.6131 67.2297 62.2577 68.0948C62.2246 68.1814 62.1914 68.2681 62.1572 68.3573C62.0791 68.5416 62.0791 68.5416 61.9897 68.6309C61.7645 68.6388 61.5417 68.6412 61.3165 68.6396C61.2155 68.6395 61.2155 68.6395 61.1125 68.6393C60.8968 68.6388 60.681 68.6376 60.4652 68.6365C60.3193 68.6361 60.1733 68.6356 60.0274 68.6353C59.6689 68.6343 59.3104 68.6327 58.9519 68.6309C58.9519 68.454 58.9519 68.2771 58.9519 68.0948C59.0109 68.0948 59.0698 68.0948 59.1306 68.0948C59.1251 68.0248 59.1195 67.9548 59.1138 67.8826C59.1361 67.4515 59.2633 67.073 59.3986 66.6653C59.4576 66.6653 59.5166 66.6653 59.5773 66.6653C59.5861 66.6088 59.5948 66.5524 59.6039 66.4943C59.7032 65.9001 59.8523 65.3336 60.023 64.7562C60.1413 64.3316 60.2312 63.9034 60.3179 63.4715C60.4379 62.9223 60.6098 62.3877 60.7779 61.8517C60.7976 61.7889 60.8172 61.726 60.8374 61.6613C60.9399 61.3342 61.0456 61.0087 61.1577 60.6846C61.3359 60.1579 61.4341 59.6151 61.543 59.0708Z" fill="#5852B0"/>
<path fill-rule="evenodd" clip-rule="evenodd" d="M80.3056 58.9815C82.0422 58.7538 83.6332 58.9274 85.3085 59.4278V59.6065C85.3693 59.6102 85.4305 59.6144 85.4931 59.6182C85.8614 59.7279 86.1217 59.951 86.3808 60.2325V60.4112H86.5595C87.3245 61.2744 87.3496 62.4078 87.3193 63.5108C87.2668 64.3309 86.9306 65.0491 86.5595 65.7715H86.3808C86.3219 65.9188 86.2628 66.0661 86.2021 66.2178H86.0234C86.0028 66.2822 85.9821 66.3468 85.9609 66.4131C85.8223 66.7132 85.6518 66.8875 85.415 67.1172C85.3389 67.192 85.2629 67.2668 85.1845 67.3438C84.841 67.6606 84.5226 67.9307 84.0917 68.1172C84.0242 68.1472 83.9562 68.1772 83.8866 68.2081C83.7008 68.2735 83.7003 68.2735 83.4325 68.2735V68.4522C82.7765 68.6922 82.1575 68.7339 81.4667 68.7198V68.8985C81.1152 68.9011 80.7636 68.903 80.412 68.9044C80.3139 68.9051 80.2153 68.9055 80.1142 68.9063C79.2159 68.909 78.3687 68.8936 77.5195 68.5801C77.46 68.5592 77.4001 68.5382 77.3388 68.5167C77.1956 68.4662 77.0526 68.4145 76.9101 68.3624V68.1837L76.3739 68.0049V67.8262C76.3218 67.8175 76.2695 67.8089 76.2157 67.7999C75.8566 67.6864 75.6282 67.3945 75.3915 67.1114C75.2632 66.8492 75.263 66.8492 75.2128 66.6651H75.0341C74.8381 65.4977 74.7736 64.4302 75.0341 63.2696H75.2128C75.2226 63.2068 75.232 63.1439 75.2421 63.0792C75.4153 62.3357 75.8415 61.6633 76.3739 61.1251C76.4457 61.0496 76.5177 60.9743 76.5917 60.8965C76.7723 60.7247 76.9539 60.555 77.1396 60.3887C77.1894 60.3441 77.2387 60.299 77.29 60.253C77.4606 60.1324 77.5996 60.0913 77.8036 60.0538V59.8751H78.0722V59.6964C78.249 59.6669 78.4262 59.6369 78.6083 59.6065V59.4278C78.6715 59.416 78.7346 59.4038 78.7997 59.3917C78.8818 59.3759 78.9642 59.3601 79.0487 59.3438C79.1305 59.3283 79.2126 59.3129 79.2968 59.2969C79.4966 59.269 79.4973 59.2693 79.5907 59.1602C79.8293 59.1476 80.0665 59.1564 80.3056 59.1602V58.9815ZM82.203 60.7589C82.1212 60.7591 82.0413 60.7595 81.9618 60.7598C81.8772 60.7606 81.795 60.761 81.7128 60.7618C81.4225 60.7632 81.1321 60.765 80.8417 60.7676V60.9464C80.4358 60.9915 80.4357 60.992 80.038 61.0362V61.2149H79.7695C78.9642 61.7061 78.416 62.6394 78.1611 63.5264C77.9731 64.4539 77.926 65.3882 78.4296 66.2178H78.6083V66.3965C78.8324 66.6616 79.0938 66.8762 79.4159 67.0079C80.1649 67.1965 81.0815 67.2341 81.7958 66.9161C81.8759 66.8744 81.9534 66.8335 82.0312 66.793C82.171 66.721 82.3109 66.6485 82.4501 66.5753V66.3965H82.7177V66.2178H82.8964C82.9391 66.1657 82.9809 66.1152 83.0224 66.0645C83.0707 65.9953 83.1181 65.9276 83.165 65.8604C83.3934 65.5726 83.6022 65.2831 83.79 64.9669C84.2091 64.0152 84.3085 62.933 84.0429 61.921C83.8675 61.5162 83.5655 61.2783 83.1757 61.0919C83.1113 61.0729 83.0488 61.0546 82.9862 61.0362V60.8575C82.7952 60.802 82.623 60.7678 82.4237 60.7579C82.3487 60.7584 82.2759 60.7584 82.203 60.7589Z" fill="#5852B0"/>
<path d="M95.6243 59.1475H98.9875C100.883 59.145 100.883 59.145 101.392 59.4277V59.6064H101.61C102.083 59.7395 102.415 60.0375 102.732 60.4102C102.919 60.8237 102.935 61.2141 102.927 61.6611C102.927 61.7529 102.927 61.753 102.927 61.8467C102.924 62.2103 102.891 62.5554 102.822 62.9121H102.643C102.623 62.9894 102.602 63.0668 102.581 63.1465C102.326 63.8033 101.789 64.2269 101.213 64.6094H101.034V64.7881C100.454 65.0561 100.453 65.0557 100.051 65.0557V65.2344C99.5098 65.3275 98.9784 65.3422 98.4299 65.3496C98.3358 65.3513 98.2417 65.3528 98.1448 65.3545C97.7439 65.3615 97.3426 65.3669 96.9417 65.373C96.6487 65.3776 96.3557 65.3835 96.0627 65.3887C95.9714 65.3899 95.8795 65.3904 95.7854 65.3916C95.7016 65.3931 95.6178 65.3949 95.5315 65.3965C95.4574 65.3976 95.3832 65.3992 95.3069 65.4004C95.1366 65.3956 95.1365 65.3952 95.0481 65.5029C95.0021 65.7014 94.9595 65.9009 94.9192 66.1006C94.8367 66.5097 94.7327 66.8946 94.6008 67.29C94.5267 67.6182 94.4613 67.9476 94.3948 68.2773C94.3338 68.5405 94.3334 68.5409 94.2444 68.6299C94.0321 68.6378 93.8219 68.6402 93.6096 68.6387C93.5149 68.6385 93.5147 68.6389 93.4182 68.6387C93.2152 68.6382 93.0118 68.6369 92.8088 68.6357C92.6715 68.6353 92.5341 68.6351 92.3967 68.6348C92.0595 68.6338 91.7222 68.6317 91.385 68.6299C91.4127 68.4717 91.4409 68.3134 91.469 68.1553C91.4845 68.0673 91.4999 67.9793 91.5159 67.8887C91.5637 67.6475 91.5632 67.6469 91.6526 67.3789H91.8313C91.8608 66.9957 91.8908 66.6126 91.9211 66.2178H92.0999C92.1032 66.1528 92.1062 66.0874 92.1096 66.0205C92.1537 65.3463 92.2741 64.723 92.4573 64.0732H92.636C92.6393 63.9988 92.6423 63.9243 92.6458 63.8477C92.6769 63.314 92.7226 62.8407 92.9124 62.3408C93.0252 62.0132 93.1063 61.6792 93.1887 61.3428C93.2047 61.2777 93.2201 61.2125 93.2366 61.1455C93.2747 60.9898 93.3132 60.8336 93.3508 60.6777H93.5295V60.2314H93.7083C93.7064 60.1615 93.7043 60.0916 93.7024 60.0195C93.708 59.7852 93.708 59.7847 93.7971 59.6064V59.249C94.1739 59.1776 94.53 59.1477 94.9133 59.1475C95.0264 59.1472 95.1396 59.1468 95.2561 59.1465C95.3787 59.1466 95.5017 59.1473 95.6243 59.1475ZM96.761 60.917C96.5054 60.9145 96.5049 60.9144 96.2991 60.9463C96.1124 61.2263 96.0368 61.4552 95.9456 61.7744C95.9252 61.8477 95.9058 61.9191 95.886 61.9902C95.7289 62.5229 95.6499 62.9805 95.6741 63.5371C95.9617 63.539 96.2498 63.5409 96.5374 63.542C96.6575 63.5424 96.7742 63.5426 96.8909 63.543C97.0092 63.5437 97.1247 63.5442 97.2395 63.5449C97.3537 63.5452 97.4646 63.5456 97.5754 63.5459C98.0477 63.5481 98.4874 63.5248 98.9368 63.3701C99.0064 63.3395 99.0743 63.31 99.1418 63.2803C99.3499 63.1918 99.3502 63.192 99.5159 63.0908C99.561 62.9555 99.5605 62.9549 99.6047 62.8223H99.7834C99.8727 62.5545 99.8728 62.5544 99.8909 62.3457C99.8923 62.2668 99.8944 62.1899 99.8958 62.1133C99.9027 61.882 99.9026 61.8819 99.8733 61.6611C99.7182 61.3999 99.6612 61.3191 99.3645 61.2363C99.2944 61.2288 99.2265 61.2212 99.1584 61.2139V61.0352C98.6465 60.9583 98.1449 60.9299 97.6272 60.9248C97.4812 60.9241 97.4811 60.9245 97.3381 60.9238C97.2376 60.9219 97.1398 60.9198 97.0422 60.918C96.9466 60.9175 96.8538 60.9175 96.761 60.917Z" fill="#5852B0"/>
</svg>
