<svg width="229" height="84" viewBox="0 0 229 84" fill="none" xmlns="http://www.w3.org/2000/svg">
<path d="M15.0279 0.29714C7.47902 1.97466 2.12576 7.30325 0.59626 14.6054C-0.119152 18.0838 0.423574 21.8829 2.19977 25.4599C4.34601 29.8264 8.1451 33.0828 12.931 34.6123L14.6578 35.155L14.7318 36.5365L14.8058 37.918H18.6049H22.404L22.478 36.5118L22.552 35.1057L23.7362 34.8096C25.537 34.3656 28.7687 32.6881 30.3722 31.4052C34.5167 28.0995 36.9836 23.0177 36.9836 17.8124C36.9836 15.0001 36.4162 12.7305 35.1087 10.0416C34.122 8.068 33.6039 7.35259 31.7044 5.45304C29.1881 2.96143 26.8938 1.57995 23.6621 0.667181C21.2445 -0.0235619 17.2234 -0.196248 15.0279 0.29714ZM14.7812 17.8124V28.0502L14.1151 27.7788C11.8208 26.9154 9.23055 24.4978 8.19443 22.2282C6.29489 18.0591 7.10898 13.5199 10.3653 10.2636C11.6728 8.9561 13.7204 7.62395 14.4851 7.57461C14.7072 7.57461 14.7812 9.77019 14.7812 17.8124ZM24.4516 8.36403C26.2278 9.30147 28.3247 11.5217 29.2128 13.3719C31.0383 17.245 30.1009 22.1542 26.9432 25.3119C25.7837 26.4467 23.2428 28.0502 22.5767 28.0502C22.5027 28.0502 22.4287 23.437 22.4287 17.8124C22.4287 10.4856 22.5027 7.57461 22.7 7.57461C22.8481 7.57461 23.6375 7.91998 24.4516 8.36403Z" fill="black"/>
<path d="M55.7817 0.173884C52.9447 0.691941 49.3677 2.39413 47.0241 4.36768C43.1756 7.59937 40.8814 11.8672 40.1907 17.0231C39.4506 22.5244 41.5968 28.667 45.6673 32.6635C48.2575 35.2291 50.0337 36.3145 53.6848 37.5974C55.4363 38.2141 55.9297 38.2634 59.3094 38.2634C62.7138 38.2634 63.1579 38.2141 64.9834 37.5727C71.2248 35.4018 75.4679 31.282 77.4661 25.4847C81.0678 15.0495 75.3692 3.99764 64.7367 0.667271C62.7632 0.0505366 57.9773 -0.196157 55.7817 0.173884ZM63.0345 7.84607C72.0635 10.7324 74.1604 22.7957 66.6609 28.5684C64.4407 30.2705 62.7878 30.8379 59.7535 30.9613C57.6566 31.0353 56.9658 30.9613 55.6584 30.5419C49.6637 28.5437 46.1606 22.3023 47.7148 16.3323C48.4796 13.446 49.8117 11.3985 52.106 9.6716C55.2637 7.27867 59.1861 6.6126 63.0345 7.84607Z" fill="black"/>
<path d="M6.78408 45.1053C5.10657 45.352 2.51628 46.0428 1.30748 46.5855L0 47.1529V51.3714V55.6145L1.06078 54.7017C3.25636 52.8022 6.68541 51.6181 9.89243 51.6181C14.9497 51.6181 19.2668 54.7017 20.6976 59.3396L21.1663 60.8691L13.0501 60.9431L4.93388 60.9924V64.0761V67.1598H13.0995H21.265L21.0923 67.9492C20.7963 69.5034 19.3901 71.9703 18.132 73.2284C16.2325 75.128 13.5682 76.3368 10.5832 76.6575C7.52417 76.9535 3.57706 75.7201 1.06078 73.6725L0 72.8091V76.9782V81.172L1.18413 81.6654C3.84843 82.8002 5.35326 83.0715 9.62106 83.0715C13.1488 83.0715 13.9629 82.9975 15.6651 82.5041C18.7981 81.5914 20.821 80.4072 23.2139 78.0143C24.9654 76.2628 25.5082 75.5227 26.4703 73.5738C27.9751 70.4901 28.3945 68.8866 28.5425 65.2849C28.9865 55.2198 24.102 47.9176 15.4184 45.6727C13.4942 45.1793 8.53561 44.8586 6.78408 45.1053Z" fill="black"/>
<path d="M205.57 45.2286C204.879 45.352 203.547 45.722 202.659 46.0674C199.526 47.2269 198.071 48.189 195.604 50.6312C193.482 52.7281 193.087 53.2709 191.977 55.5651C190.398 58.7968 189.93 60.795 189.93 64.1994C189.93 67.6038 190.398 69.602 191.977 72.8337C193.087 75.1279 193.482 75.6707 195.604 77.7676C199.304 81.4433 203.054 83.1208 208.086 83.3675C215.931 83.7622 222.962 79.6424 226.342 72.7103C227.921 69.4787 228.291 67.8505 228.291 64.1994C228.291 60.5483 227.921 58.9202 226.342 55.6885C225.084 53.0735 223.11 50.6312 220.964 49.0031C218.916 47.4489 215.413 45.8207 213.094 45.352C211.071 44.9326 207.667 44.8833 205.57 45.2286ZM212.428 52.7528C214.574 53.3942 216.03 54.2576 217.535 55.7625C219.878 58.1307 221.038 60.9184 221.038 64.1994C221.038 67.4804 219.878 70.2681 217.535 72.6363C215.216 74.9553 212.502 76.0407 209.048 76.0407C204.411 76.0407 200.414 73.5244 198.367 69.306C195.258 62.9413 198.687 54.9977 205.447 52.8268C207.248 52.2594 210.603 52.2101 212.428 52.7528Z" fill="black"/>
<path d="M81.3885 19.1694V38.1648H85.089H88.7894L88.8387 30.8133L88.9127 23.4865L91.503 23.3385C95.5241 23.1165 97.695 22.3024 99.9646 20.2055C102.925 17.4425 104.109 14.1121 103.566 10.1157C103.073 6.34127 100.951 3.30694 97.6704 1.65409C95.2034 0.420617 93.5752 0.173923 87.1365 0.173923H81.3885V19.1694ZM93.1312 7.69809C95.1294 8.29015 96.1902 9.79499 96.1902 12.0152C96.1655 13.298 95.3761 14.8275 94.4387 15.4196C93.5752 15.9377 91.3056 16.4557 89.8502 16.4557H89.0361V11.8919V7.32805H90.4669C91.2563 7.32805 92.4651 7.50073 93.1312 7.69809Z" fill="black"/>
<path d="M102.678 0.346423C103.69 2.12262 115.926 26.1013 115.926 26.3233C115.926 26.496 114.816 29.1356 113.459 32.1946C112.102 35.2536 111.041 37.7946 111.09 37.8686C111.165 37.9179 113.064 37.9919 115.334 37.9919L119.478 38.0413L128.532 19.1692L137.585 0.297084L133.86 0.223076C131.813 0.198407 130.012 0.198407 129.864 0.272415C129.741 0.321754 127.57 4.56489 125.053 9.72079L120.49 19.0458L115.827 9.62212L111.14 0.173737H106.872C104.504 0.173737 102.629 0.247745 102.678 0.346423Z" fill="black"/>
<path d="M139.855 19.046V37.9181H143.555H147.256L147.305 28.2724L147.379 18.6266L151.721 28.223L156.063 37.7947H158.727H161.391L165.61 28.6671L169.828 19.5641L169.952 28.7904L170.075 38.0414L173.726 38.1154L177.352 38.1895V19.7367C177.352 9.57295 177.427 1.03734 177.501 0.716638L177.649 0.173911H174.071H170.494L170.124 1.08668C168.768 4.31837 158.924 25.2133 158.727 25.2627C158.53 25.2874 155.717 19.2187 148.539 3.33159L147.132 0.173911H143.506H139.855V19.046Z" fill="black"/>
<path d="M34.5372 57.5882C34.5372 64.4956 34.4138 70.7616 34.2905 71.6991C33.6984 75.7202 32.3169 76.8056 28.5672 76.1889L27.383 75.9915V79.4453V82.899L28.1971 83.0223C30.4174 83.417 31.3301 83.4417 32.8103 83.2197C37.1274 82.5043 40.2605 79.4699 41.3459 74.8814C41.6666 73.5246 41.7406 71.8964 41.7159 66.5432C41.6913 62.8674 41.7406 58.2543 41.8393 56.2314L42.012 52.605H47.0445H52.0771L52.0031 67.7766L51.9291 82.9483H55.5801H59.2065V64.0762V45.2041H46.8719H34.5372V57.5882Z" fill="black"/>
<path d="M64.6338 49.1513V53.0984H79.6822H94.7305V49.1513V45.2042H79.6822H64.6338V49.1513Z" fill="black"/>
<path d="M99.911 64.1996V83.2197L103.562 83.1457L107.189 83.0717L107.312 75.3749L107.435 67.678L113.603 75.3749L119.77 83.0717L124.531 83.1457C127.121 83.1704 129.268 83.1457 129.268 83.0717C129.268 82.9484 118.906 70.367 114.293 64.8904C113.307 63.7062 112.492 62.6454 112.492 62.5468C112.492 62.4481 116.341 58.501 121.053 53.7891L129.638 45.2042H124.802H119.943L113.701 51.6429L107.435 58.1063L107.312 51.7169L107.189 45.3275L103.562 45.2535L99.911 45.1795V64.1996Z" fill="black"/>
<path d="M137.902 52.7282V60.2524H130.378H122.854V64.0762V67.8999H130.378H137.902V75.4241V82.9482H141.972H146.043V75.4241V67.8999H153.444H160.844V64.0762V60.2524H153.444H146.043V52.7282V45.2041H141.972H137.902V52.7282Z" fill="#626161"/>
<path d="M164.545 64.5449V83.4417H168.369H172.192V76.1642V68.8867H174.24C179.618 68.862 184.083 66.2964 186.081 62.0533C186.821 60.4744 186.846 60.2277 186.871 57.4154C186.871 54.0357 186.55 52.8023 185.02 50.6067C183.935 49.0278 181.246 46.9803 179.322 46.3142C178.162 45.8948 177.102 45.8208 171.28 45.7468L164.545 45.6728V64.5449ZM177.25 53.493C178.483 54.1344 179.05 54.9238 179.322 56.3793C179.939 59.685 178.212 61.4859 174.117 61.8559L172.192 62.0286V57.4154V52.7776L174.24 52.9009C175.646 52.9749 176.608 53.1723 177.25 53.493Z" fill="black"/>
<path d="M64.6338 64.0761V67.8999H79.6822H94.7305V64.0761V60.2524H79.6822H64.6338V64.0761Z" fill="#626161"/>
<path d="M64.4858 75.6214C64.4365 75.7941 64.4118 77.5456 64.4365 79.4945L64.5105 83.0715H79.5588H94.6071L94.6811 79.1738L94.7552 75.3007H79.6822C67.5695 75.3007 64.5845 75.3747 64.4858 75.6214Z" fill="black"/>
</svg>
