<svg width="100" height="100" viewBox="0 0 100 100" fill="none" xmlns="http://www.w3.org/2000/svg">
<path d="M5.43337 46.1205C3.6747 46.5113 2.42754 47.7527 2.07121 49.4539C1.90454 50.2642 2.03098 51.1493 2.44479 51.9827C2.9448 52.9999 3.82988 53.7586 4.94485 54.1149L5.34716 54.2414L5.3644 54.5632L5.38164 54.885H6.26672H7.1518L7.16904 54.5575L7.18628 54.2299L7.46215 54.1609C7.8817 54.0574 8.6346 53.6666 9.00817 53.3678C9.97371 52.5976 10.5484 51.4137 10.5484 50.201C10.5484 49.5458 10.4163 49.0171 10.1116 48.3906C9.88175 47.9309 9.76106 47.7642 9.31852 47.3216C8.7323 46.7412 8.1978 46.4193 7.44491 46.2067C6.88168 46.0457 5.94487 46.0055 5.43337 46.1205ZM5.37589 50.201V52.5861L5.22072 52.5229C4.68622 52.3218 4.08276 51.7585 3.84137 51.2298C3.39883 50.2585 3.58849 49.201 4.34713 48.4424C4.65174 48.1378 5.12876 47.8274 5.30693 47.8159C5.35865 47.8159 5.37589 48.3274 5.37589 50.201ZM7.62882 47.9998C8.04263 48.2182 8.53115 48.7355 8.73805 49.1665C9.16335 50.0688 8.94495 51.2125 8.2093 51.9482C7.93918 52.2126 7.34721 52.5861 7.19203 52.5861C7.17479 52.5861 7.15755 51.5114 7.15755 50.201C7.15755 48.4941 7.17479 47.8159 7.22077 47.8159C7.25525 47.8159 7.43916 47.8964 7.62882 47.9998Z" fill="black"/>
<path d="M14.9278 46.0917C14.2669 46.2124 13.4335 46.609 12.8875 47.0688C11.991 47.8217 11.4565 48.816 11.2955 50.0171C11.1231 51.2988 11.6231 52.7298 12.5714 53.6609C13.1749 54.2586 13.5887 54.5115 14.4393 54.8104C14.8474 54.954 14.9623 54.9655 15.7497 54.9655C16.5428 54.9655 16.6463 54.954 17.0716 54.8046C18.5256 54.2989 19.5141 53.3391 19.9797 51.9884C20.8188 49.5574 19.4912 46.9826 17.0141 46.2067C16.5543 46.063 15.4393 46.0055 14.9278 46.0917ZM16.6175 47.8791C18.721 48.5516 19.2095 51.362 17.4624 52.7069C16.9451 53.1034 16.56 53.2356 15.8531 53.2643C15.3646 53.2816 15.2037 53.2643 14.8991 53.1666C13.5025 52.7011 12.6864 51.2471 13.0485 49.8562C13.2266 49.1838 13.537 48.7068 14.0715 48.3044C14.8071 47.747 15.7209 47.5918 16.6175 47.8791Z" fill="black"/>
<path d="M46.6125 46.0687C46.2217 46.1262 45.6183 46.2871 45.3366 46.4135L45.032 46.5457V47.5285V48.517L45.2792 48.3044C45.7907 47.8618 46.5896 47.586 47.3367 47.586C48.5149 47.586 49.5207 48.3044 49.854 49.3849L49.9632 49.7412L48.0723 49.7584L46.1815 49.7699V50.4883V51.2067H48.0838H49.9862L49.946 51.3907C49.877 51.7527 49.5494 52.3275 49.2563 52.6206C48.8137 53.0631 48.193 53.3447 47.4976 53.4194C46.785 53.4884 45.8654 53.2011 45.2792 52.724L45.032 52.5229V53.4942V54.4712L45.3079 54.5861C45.9286 54.8505 46.2792 54.9137 47.2735 54.9137C48.0953 54.9137 48.285 54.8965 48.6816 54.7816C49.4115 54.5689 49.8827 54.293 50.4402 53.7355C50.8483 53.3275 50.9747 53.1551 51.1989 52.701C51.5494 51.9826 51.6472 51.6091 51.6816 50.77C51.7851 48.4251 50.6471 46.7239 48.6241 46.2009C48.1758 46.0859 47.0206 46.0112 46.6125 46.0687Z" fill="black"/>
<path d="M92.924 46.0975C92.7631 46.1262 92.4528 46.2124 92.2459 46.2929C91.516 46.563 91.1769 46.7872 90.6021 47.3561C90.1079 47.8447 90.0159 47.9711 89.7573 48.5056C89.3895 49.2585 89.2803 49.724 89.2803 50.5171C89.2803 51.3103 89.3895 51.7758 89.7573 52.5287C90.0159 53.0632 90.1079 53.1896 90.6021 53.6781C91.4642 54.5345 92.3378 54.9253 93.5103 54.9828C95.3379 55.0747 96.9759 54.1149 97.7632 52.4999C98.1311 51.7471 98.2173 51.3677 98.2173 50.5171C98.2173 49.6665 98.1311 49.2872 97.7632 48.5343C97.4701 47.9251 97.0104 47.3561 96.5103 46.9768C96.0333 46.6147 95.2172 46.2354 94.677 46.1262C94.2057 46.0285 93.4126 46.017 92.924 46.0975ZM94.5218 47.8504C95.0218 47.9998 95.3609 48.201 95.7115 48.5516C96.2575 49.1033 96.5276 49.7528 96.5276 50.5171C96.5276 51.2815 96.2575 51.931 95.7115 52.4827C95.1712 53.0229 94.539 53.2758 93.7344 53.2758C92.6539 53.2758 91.7229 52.6896 91.2458 51.7068C90.5217 50.224 91.3206 48.3734 92.8953 47.8676C93.3149 47.7355 94.0965 47.724 94.5218 47.8504Z" fill="black"/>
<path d="M20.8935 50.5172V54.9426H21.7556H22.6177L22.6292 53.2299L22.6464 51.523L23.2499 51.4885C24.1867 51.4368 24.6924 51.2471 25.2212 50.7586C25.9109 50.1149 26.1867 49.339 26.0603 48.408C25.9453 47.5286 25.4511 46.8217 24.6867 46.4367C24.112 46.1493 23.7326 46.0918 22.2326 46.0918H20.8935V50.5172ZM23.6292 47.8447C24.0947 47.9827 24.3419 48.3333 24.3419 48.8505C24.3361 49.1494 24.1522 49.5057 23.9338 49.6436C23.7326 49.7643 23.2039 49.885 22.8648 49.885H22.6751V48.8218V47.7585H23.0085C23.1924 47.7585 23.474 47.7988 23.6292 47.8447Z" fill="black"/>
<path d="M25.8534 46.1319C26.0891 46.5457 28.9397 52.1321 28.9397 52.1838C28.9397 52.224 28.6811 52.839 28.365 53.5516C28.0489 54.2643 27.8018 54.8563 27.8133 54.8735C27.8305 54.885 28.273 54.9022 28.8018 54.9022L29.7673 54.9137L31.8766 50.5171L33.9858 46.1204L33.118 46.1032C32.641 46.0974 32.2214 46.0974 32.1869 46.1147C32.1582 46.1262 31.6524 47.1147 31.0662 48.3159L30.003 50.4883L28.9167 48.2929L27.8247 46.0917H26.8305C26.2787 46.0917 25.8419 46.1089 25.8534 46.1319Z" fill="black"/>
<path d="M34.5146 50.4883V54.885H35.3767H36.2388L36.2503 52.6378L36.2675 50.3906L37.279 52.6263L38.2905 54.8562H38.9112H39.532L40.5147 52.7298L41.4975 50.609L41.5263 52.7585L41.555 54.9137L42.4056 54.931L43.2504 54.9482V50.6492C43.2504 48.2814 43.2677 46.2928 43.2849 46.2181L43.3194 46.0917H42.4861H41.6527L41.5665 46.3043C41.2504 47.0572 38.9572 51.9251 38.9112 51.9366C38.8653 51.9424 38.2101 50.5286 36.5376 46.8273L36.21 46.0917H35.3652H34.5146V50.4883Z" fill="black"/>
<path d="M53.0782 48.9769C53.0782 50.5861 53.0495 52.0459 53.0207 52.2643C52.8828 53.2011 52.561 53.454 51.6874 53.3103L51.4115 53.2643V54.0689V54.8736L51.6012 54.9023C52.1184 54.9943 52.3311 55 52.6759 54.9483C53.6817 54.7816 54.4116 54.0747 54.6645 53.0057C54.7392 52.6896 54.7564 52.3103 54.7507 51.0631C54.7449 50.2068 54.7564 49.132 54.7794 48.6608L54.8196 47.8159H55.9921H57.1645L57.1473 51.3505L57.13 54.8851H57.9806H58.8255V50.4884V46.0917H55.9518H53.0782V48.9769Z" fill="black"/>
<path d="M60.0899 47.0113V47.9309H63.5957H67.1016V47.0113V46.0918H63.5957H60.0899V47.0113Z" fill="black"/>
<path d="M68.3085 50.5171V54.9482L69.1591 54.931L70.0039 54.9137L70.0327 53.1206L70.0614 51.3274L71.4982 53.1206L72.935 54.9137L74.0442 54.931C74.6477 54.9367 75.1477 54.931 75.1477 54.9137C75.1477 54.885 72.7339 51.9539 71.6591 50.678C71.4292 50.4021 71.2396 50.155 71.2396 50.132C71.2396 50.109 72.1362 49.1894 73.2339 48.0917L75.2339 46.0917H74.1075H72.9753L71.5212 47.5917L70.0614 49.0975L70.0327 47.6089L70.0039 46.1204L69.1591 46.1032L68.3085 46.0859V50.5171Z" fill="black"/>
<path d="M77.1593 47.8446V49.5976H75.4064H73.6535V50.4884V51.3792H75.4064H77.1593V53.1321V54.885H78.1076H79.0559V53.1321V51.3792H80.7801H82.5043V50.4884V49.5976H80.7801H79.0559V47.8446V46.0917H78.1076H77.1593V47.8446Z" fill="black"/>
<path d="M83.3663 50.5976V55H84.2572H85.148V53.3046V51.6091H85.625C86.8779 51.6034 87.9182 51.0056 88.3837 50.0171C88.5561 49.6493 88.5619 49.5918 88.5676 48.9366C88.5676 48.1493 88.4929 47.8619 88.1366 47.3504C87.8837 46.9826 87.2572 46.5055 86.8089 46.3504C86.5388 46.2527 86.2917 46.2354 84.9353 46.2182L83.3663 46.2009V50.5976ZM86.3262 48.0228C86.6135 48.1722 86.7457 48.3562 86.8089 48.6952C86.9526 49.4654 86.5503 49.8849 85.5963 49.9711L85.148 50.0114V48.9366V47.8561L85.625 47.8849C85.9526 47.9021 86.1767 47.9481 86.3262 48.0228Z" fill="black"/>
<path d="M60.0899 50.4884V51.3792H63.5957H67.1016V50.4884V49.5975H63.5957H60.0899V50.4884Z" fill="black"/>
<path d="M60.0554 53.1781C60.0439 53.2183 60.0382 53.6263 60.0439 54.0804L60.0612 54.9137H63.567H67.0729L67.0901 54.0057L67.1073 53.1033H63.5958C60.7738 53.1033 60.0784 53.1206 60.0554 53.1781Z" fill="black"/>
</svg>
