<svg width="100" height="100" viewBox="0 0 100 100" fill="none" xmlns="http://www.w3.org/2000/svg">
<path d="M61 67.1894C60.322 67.7085 59.4968 67.9927 58.6467 68C58.1466 67.9768 57.6611 67.8218 57.2384 67.5503V65.4414C57.2384 63.2565 56.2996 62.6422 56.2996 62.6422C56.2996 62.6422 56.043 60.6219 58.6467 59.4059C58.7548 59.3379 58.8703 59.2827 58.9909 59.2413C58.1773 64.7891 61 67.221 61 67.221M12.9258 59.6783C12.9258 59.6783 10.9605 62.2115 12.7568 64.6561C14.5531 67.1007 16.5872 66.4737 16.5872 66.4737C16.5872 66.4737 15.1977 66.1381 14.2526 63.9911C13.6573 62.6064 13.2124 61.1603 12.9258 59.6783V59.6783ZM20.355 58.0317C20.355 58.0317 18.5712 59.9316 19.0469 61.9265C19.3601 63.1527 20.0294 64.2557 20.9684 65.0931C19.972 65.3433 18.919 65.203 18.0205 64.7004C16.7687 63.8581 16.0302 61.4515 17.6074 60.2673C18.5621 59.561 19.4792 58.8042 20.355 58V58.0317Z" stroke="white" stroke-miterlimit="22.93"/>
<path fill-rule="evenodd" clip-rule="evenodd" d="M93 51.0539C87.3096 58.3047 82.4159 57.4165 81.379 56.5723C80.342 55.7282 83.4085 51.8162 83.4085 51.8162C83.4085 51.8162 78.5717 53.2273 77.7182 51.6146C76.8646 50.0019 81.8595 48.7546 81.7773 43.4252C78.3188 46.6127 76.0869 45.5229 76.0869 45.5229C76.0869 45.5229 69.543 39.2486 63.6692 33.0939C57.884 26.9771 55.121 28.0984 51.2262 28.0543C47.3315 28.0102 39.738 31.6387 33.6809 31.4812C27.6238 31.3237 27.9905 31.0781 20.0303 29.9441C12.0701 28.8102 7.53672 40.7794 7.53672 40.7794C7.53672 40.7794 6.3291 50.1279 7.53672 55.8038C7.36601 50.487 8.16899 49.1578 8.36499 47.8286C14.6876 55.8857 8.01724 58.4181 7.73272 60.7552C7.47349 62.5632 10.894 62.5632 10.4135 66.9981C13.0501 66.9981 13.5749 67.9178 16.4833 67.9178C19.3917 67.9178 22.983 67.3383 23.3307 66.2547C23.6784 65.1712 19.828 64.5665 20.2579 61.297C20.6878 58.0275 22.4329 59.6654 23.2485 54.6762C28.9389 59.3126 34.2689 58.1031 34.2689 58.1031C34.2689 58.1031 37.6831 58.1409 39.9593 58.1031C42.2354 58.0653 40.3892 59.993 40.3892 59.993C40.3892 59.993 36.8485 58.7772 35.8938 61.3159C35.2046 67.4831 38.6125 67.6154 38.9603 67.9304C39.5743 68.2766 40.2869 68.4083 40.9846 68.3044C41.6824 68.2005 42.3252 67.8671 42.8108 67.3572C44.4547 63.338 47.6034 64.0625 49.1334 60.5536C50.6635 57.0448 50.556 57.0133 53.1926 56.3644C53.0282 60.0686 54.748 62.664 55.4434 65.4736C56.1389 66.7335 54.748 65.9902 54.6215 67.9304C57.3402 74.3308 63.3025 68.8879 63.5681 67.9304C58.4277 66.8847 61.7914 61.2025 61.1465 57.3346C65.0792 56.8936 64.605 59.2244 64.605 59.2244C64.605 59.2244 68.4491 67.1178 75.7961 66.5949C77.4399 69.4171 81.2462 66.4752 81.2462 66.4752C81.2462 66.4752 80.8542 63.9554 82.3653 63.168C83.8764 62.3805 93.7461 56.3644 92.9494 51.0476L93 51.0539ZM11.931 64.7617C10.11 62.3553 12.0954 59.8103 12.0954 59.8103C12.3873 61.2838 12.8366 62.722 13.4358 64.1003C14.3905 66.2358 15.7941 66.5697 15.7941 66.5697C15.7941 66.5697 13.7456 67.1997 11.9246 64.7617H11.931ZM17.2483 64.8247C15.9838 63.9869 15.2377 61.5931 16.831 60.4151C17.798 59.7132 18.7267 58.9604 19.613 58.1598C19.613 58.1598 17.811 60.0497 18.2916 62.034C18.6062 63.253 19.2801 64.35 20.2263 65.1838C19.2198 65.4339 18.1556 65.2943 17.2483 64.7932V64.8247ZM58.295 68.1257C57.788 68.1015 57.2959 67.9474 56.866 67.6784V65.5492C56.866 63.3758 55.924 62.7648 55.924 62.7648C55.924 62.7648 55.6647 60.7552 58.295 59.5457C58.4042 59.478 58.5209 59.423 58.6427 59.3819C57.8208 64.9003 60.6723 67.3194 60.6723 67.3194C59.9872 67.8353 59.1537 68.118 58.295 68.1257V68.1257ZM79.5201 60.9379C79.1881 61.6264 78.6622 62.2039 78.0066 62.5998C77.351 62.9958 76.5939 63.1932 75.8277 63.168C75.1649 63.189 74.5015 63.1637 73.8424 63.0924C72.2719 62.9633 70.7454 62.5107 69.3596 61.7632C68.6106 61.396 67.9604 60.8561 67.4628 60.1883C65.8126 58.4181 66.7673 56.1251 65.8126 55.9991C63.9158 54.9155 61.7155 56.3204 58.9905 54.2289C58.0882 53.4926 57.3185 52.6085 56.7143 51.6146C54.729 52.0556 54.4634 54.5943 53.0408 55.4384C51.6182 56.2826 49.4053 55.3565 48.3305 57.133C47.2556 58.9095 48.4569 60.434 45.6939 61.8451C42.9309 63.2562 43.3229 60.9568 42.0268 61.1206C40.7623 62.8089 43.6707 64.705 43.6707 64.705C43.1163 64.9972 42.4872 65.1184 41.8635 65.0534C41.2398 64.9883 40.6496 64.7399 40.1679 64.3397C40.1567 65.0377 40.2224 65.7348 40.3639 66.4185C40.3639 66.4185 36.2163 65.0956 37.8981 61.6687C39.8834 61.7947 42.2165 62.1474 42.6085 59.7788C41.6601 52.8115 45.245 46.4868 45.245 46.4868C45.245 46.4868 43.6896 46.26 42.8045 48.5908C41.9003 46.9844 42.1722 45.9261 42.1722 45.9261C42.1722 45.9261 39.4535 47.8664 41.5399 52.0178C40.2754 53.347 40.6801 54.3549 35.2173 55.0352C29.7545 55.7156 23.8365 52.3705 23.8365 52.3705C23.8365 52.3705 20.808 49.0318 19.5118 40.2061C17.1598 45.2079 21.9397 52.6981 17.9375 54.8841C17.242 55.2431 16.673 55.6022 16.0786 55.9676C14.5827 56.9605 13.2677 58.2004 12.1902 59.6339C12.8875 58.3354 13.3175 56.9111 13.4547 55.4447C13.2398 51.035 9.31339 50.8964 8.96564 45.1764V43.2866C10.1353 37.1319 13.2398 34.2278 16.0913 32.8608C17.8162 32.0419 19.7067 31.6282 21.6173 31.6513C21.6173 31.6513 29.5269 33.0309 34.2246 33.1695C43.9868 33.1695 47.3568 27.9724 54.0145 29.5473C55.7868 29.9316 57.472 30.6408 58.9841 31.6387C59.8883 32.1616 60.9694 32.8482 62.3478 33.7365C64.5101 35.1098 67.0582 37.6044 69.3533 39.9415C71.1679 41.7873 72.7675 43.6016 73.8487 44.6851C74.2012 45.0731 74.5932 45.4235 75.0184 45.7308C76.1817 46.3608 76.7002 46.8521 79.0775 46.2915C75.3598 48.5089 75.619 51.2429 75.619 51.2429C75.619 51.2429 74.677 55.4699 80.5001 52.9375C77.0037 54.7203 78.0849 56.3392 78.0849 56.3392C78.0849 56.3392 81.0881 61.9521 89.8197 55.8731C88.3086 57.7629 85.1789 61.3537 79.5201 60.9127V60.9379Z" fill="black"/>
<path fill-rule="evenodd" clip-rule="evenodd" d="M79.6605 60.5282C79.3291 61.2128 78.8037 61.7871 78.1482 62.181C77.4927 62.575 76.7356 62.7717 75.9692 62.747C75.3055 62.7678 74.6412 62.7427 73.9811 62.6718C72.4014 62.544 70.866 62.0914 69.473 61.343C68.7231 60.9803 68.0718 60.4451 67.5735 59.7823C65.921 58.0211 66.877 55.7333 65.921 55.6142C64.0215 54.5362 61.8181 55.9339 59.0892 53.853C58.1866 53.117 57.416 52.2355 56.8098 51.2456C54.8217 51.6843 54.5621 54.2102 53.1375 55.0501C51.7129 55.89 49.4968 54.9687 48.4205 56.7362C47.3441 58.5037 48.5471 60.0142 45.7802 61.4182C43.0133 62.8222 43.4058 60.5345 42.1079 60.7037C40.8416 62.3835 43.7541 64.2701 43.7541 64.2701C43.1995 64.5616 42.5699 64.6833 41.9453 64.6197C41.3207 64.556 40.7294 64.31 40.2464 63.9128C40.2331 64.6139 40.3011 65.3142 40.449 66C40.449 66 36.2955 64.6838 37.986 61.2741C39.9741 61.3932 42.3105 61.7504 42.703 59.3937C41.7533 52.4615 45.3433 46.1749 45.3433 46.1749C45.3433 46.1749 43.7921 45.9305 42.9246 48.2558C42.0192 46.6575 42.2915 45.6045 42.2915 45.6045C42.2915 45.6045 39.5626 47.535 41.6583 51.6592C40.392 52.988 40.7972 53.9846 35.3267 54.6615C29.8562 55.3385 23.9299 52.0102 23.9299 52.0102C23.9299 52.0102 20.8971 48.6883 19.5991 39.9071C17.2121 44.8712 21.9861 52.3299 17.9909 54.4986C17.2944 54.8558 16.7245 55.2194 16.1294 55.5766C14.6292 56.5619 13.3119 57.796 12.2354 59.2245C12.9325 57.932 13.363 56.5151 13.5018 55.0564C13.2865 50.6689 9.34824 50.531 9 44.8399V42.9595C10.1713 36.8296 13.2802 33.9464 16.1357 32.5863C17.863 31.7706 19.7559 31.3569 21.6695 31.3766C21.6695 31.3766 29.6346 32.7869 34.3327 32.8997C44.1087 32.8997 47.4834 27.7287 54.1506 29.2957C55.9247 29.6769 57.6121 30.3803 59.1272 31.3703C60.0326 31.8968 61.1153 32.58 62.5019 33.4575C64.6673 34.8239 67.2189 37.306 69.511 39.6313C71.3281 41.4678 72.93 43.2729 74.0127 44.3573C74.3642 44.7402 74.7522 45.0887 75.1714 45.3977C76.3428 46.0245 76.862 46.5196 79.2426 45.9555C75.5197 48.1618 75.7793 50.8883 75.7793 50.8883C75.7793 50.8883 74.8358 55.094 80.6672 52.5744C77.1595 54.3356 78.2486 55.9715 78.2486 55.9715C78.2486 55.9715 81.2624 61.5624 90 55.514C88.4868 57.3943 85.359 60.9669 79.6858 60.5282H79.6605Z" fill="white"/>
<path fill-rule="evenodd" clip-rule="evenodd" d="M73.8796 48.4225C73.3154 46.802 73.3944 47.1588 73.3154 47.1764C73.2364 47.1939 68.7684 46.41 68.9715 48.013C69.0617 48.674 71.7019 50.0605 71.6794 49.8031C71.7072 49.4084 71.7676 49.017 71.8599 48.6331C71.9107 48.2996 72.5143 48.1007 72.5143 48.1007C72.7859 48.4653 72.9922 48.8774 73.1236 49.3175C73.637 50.7917 70.3649 50.938 70.3649 50.938L70.1167 50.8502L68.8925 49.3V49.2239C66.9631 50.9789 68.7627 52.2016 68.7627 52.2016C70.7937 54.2725 70.5454 54.758 70.5454 54.758C70.7828 54.916 71.0589 55 71.3409 55C71.6229 55 71.899 54.916 72.1363 54.758C72.445 54.5189 72.6881 54.2003 72.8415 53.8337C73.5523 52.4531 72.9092 51.6985 72.0968 51.3358C71.8057 51.2059 71.4978 51.1212 71.1829 51.0842C71.6628 51.0583 72.1371 50.9658 72.5933 50.8093C72.9995 50.6572 74.4381 50.0429 73.8683 48.4225H73.8796ZM71.5553 53.1025C71.5508 53.193 71.5208 53.2801 71.469 53.3531C71.4172 53.4261 71.3458 53.4816 71.2637 53.5129C71.1817 53.5441 71.0926 53.5496 71.0076 53.5288C70.9225 53.5079 70.8452 53.4616 70.7854 53.3955C70.7255 53.3295 70.6857 53.2466 70.6709 53.1573C70.6561 53.068 70.667 52.9761 70.7021 52.8932C70.7373 52.8102 70.7952 52.7398 70.8686 52.6906C70.9421 52.6415 71.0278 52.6159 71.1152 52.6169C71.175 52.6184 71.2339 52.6322 71.2884 52.6575C71.343 52.6828 71.3922 52.7191 71.4332 52.7643C71.4741 52.8095 71.506 52.8626 71.5269 52.9207C71.5479 52.9787 71.5575 53.0405 71.5553 53.1025V53.1025Z" fill="black"/>
</svg>
