<svg width="128" height="128" viewBox="0 0 128 128" fill="none" xmlns="http://www.w3.org/2000/svg">
<path d="M31.8164 51.0046V56.0088H49.7726H67.7287V51.0046V46.0004H49.7726H31.8164V51.0046Z" fill="#5852B0"/>
<path d="M17 51.0046V56.0088H22.7033H28.4066V51.0046V46.0004H22.7033H17V51.0046Z" fill="#9CB3FF"/>
<path d="M71.1334 46.069C71.0941 46.0984 71.0647 54.2032 71.0647 64.0742V82.0107H76.7557H82.4467V73.0817C82.4467 68.1659 82.4762 64.1527 82.5252 64.1527C82.5645 64.1527 86.0183 68.1757 90.1983 73.0817L97.8027 82.0107H104.406C108.027 82.0107 111 81.9911 111 81.9617C111 81.9322 107.585 77.9093 103.425 73.013C99.2549 68.1266 95.8304 64.0938 95.8108 64.0546C95.801 64.0153 99.2058 59.9728 103.396 55.0667C107.576 50.1607 111 46.1181 111 46.069C111 46.0298 108.047 46.0003 104.445 46.0003H97.891L97.5476 46.3634C97.3513 46.5694 93.8877 50.6218 89.8451 55.3611L82.4958 63.9859L82.4664 54.998L82.4467 46.0003H76.8244C73.7238 46.0003 71.1628 46.0298 71.1334 46.069Z" fill="#5852B0"/>
<path d="M17 70.6778V82.0107H22.691H28.382V70.6778V59.3448H22.691H17V70.6778Z" fill="#5852B0"/>
<path d="M31.8164 70.6778V82.0107H49.7726H67.7287V77.0556V72.1005H55.4636H43.1984V70.3834V68.6663H55.4636H67.7287V64.0055V59.3448H49.7726H31.8164V70.6778Z" fill="#5852B0"/>
</svg>
