<svg width="100" height="100" viewBox="0 0 100 100" fill="none" xmlns="http://www.w3.org/2000/svg">
<path fill-rule="evenodd" clip-rule="evenodd" d="M36.4109 50.4301C36.4063 50.916 36.3723 51.4016 36.3217 51.8853C36.2797 52.2838 36.2173 52.6783 36.1407 53.0715C35.9683 53.963 35.7076 54.8279 35.3622 55.6678C34.8074 57.0196 34.0584 58.2527 33.1187 59.3709C32.0721 60.6167 30.8439 61.6491 29.4406 62.4723C28.2566 63.1639 26.9956 63.6711 25.6615 63.9927C25.3754 64.0622 25.0841 64.1169 24.7953 64.1762C24.749 64.1855 24.7008 64.1901 24.6535 64.1913C24.3196 64.2018 23.9869 64.1975 23.6542 64.1589C23.3318 64.1221 23.0114 64.0789 22.6926 64.0183C21.9883 63.883 21.3023 63.6891 20.6489 63.3882C20.336 63.2445 20.0385 63.0743 19.7639 62.8668C19.4878 62.6589 19.2431 62.4188 19.0541 62.1282C18.7288 61.6265 18.6207 61.0795 18.7109 60.4882C18.7761 60.0588 18.9222 59.6591 19.1146 59.2727C19.3361 58.8273 19.6135 58.417 19.9168 58.0238C20.1328 57.7436 20.3626 57.4767 20.5989 57.2145C20.653 57.1546 20.7154 57.1181 20.7966 57.1141C21.4499 57.0829 22.0727 56.904 22.6948 56.7209C22.7686 56.6995 22.8406 56.6748 22.9144 56.6563C22.9422 56.6489 22.9688 56.6649 22.9848 56.6927C22.9889 56.7008 22.9957 56.7076 22.9997 56.7162C23.1467 57.0742 23.4121 57.3309 23.7173 57.5506C23.9916 57.7461 24.2921 57.8891 24.6044 58.0096C24.9872 58.1579 25.3829 58.2644 25.786 58.3389C26.3874 58.4507 26.9922 58.5221 27.6039 58.5332C27.6415 58.5347 27.6795 58.5353 27.7181 58.5353C27.767 58.5332 27.8111 58.5193 27.8467 58.4813C27.9112 58.4121 27.9792 58.3451 28.04 58.2718C28.4845 57.7486 28.9303 57.2259 29.3708 56.7002C29.7875 56.2031 30.2005 55.7021 30.6132 55.2026C30.6864 55.1127 30.7648 55.0395 30.8801 54.9984C31.0243 54.945 31.1402 54.8415 31.2504 54.7349C31.416 54.5758 31.5578 54.3961 31.6909 54.2092C31.977 53.8033 32.2127 53.3677 32.4283 52.9198C32.5985 52.5686 32.7554 52.2112 32.9006 51.8473C32.9247 51.788 32.9238 51.7367 32.8845 51.6876C32.7322 51.5038 32.5858 51.3163 32.4274 51.1372C32.0737 50.738 31.7156 50.3414 31.357 49.9463C30.9579 49.5089 30.5563 49.0755 30.156 48.6403C30.1236 48.6057 30.0921 48.5699 30.0599 48.5347C30.025 48.4985 30.0083 48.4565 30.0056 48.4068C29.9904 48.1976 29.9756 47.9882 29.9565 47.78C29.92 47.3707 29.8425 46.9682 29.7143 46.5771C29.6364 46.3415 29.5379 46.1147 29.4007 45.9062C29.3362 45.8092 29.2623 45.7261 29.1706 45.6541C27.4686 44.3441 25.5772 43.4353 23.484 42.9469C22.9824 42.8296 22.4752 42.7446 21.9649 42.6807C21.4533 42.6176 20.9384 42.5976 20.4228 42.6016C20.1844 42.6028 19.9456 42.605 19.708 42.6136C19.3553 42.6266 19.0047 42.6674 18.6547 42.7116C18.191 42.7687 17.732 42.8524 17.2767 42.9562C17.1651 42.9822 17.0521 43.0016 16.9437 43.0368C16.8291 43.0733 16.7206 43.0668 16.606 43.0381C16.3759 42.98 16.1424 42.9315 15.911 42.8743C15.5681 42.7903 15.2209 42.7279 14.8703 42.6881C14.5197 42.6479 14.1651 42.6424 13.8145 42.68C13.4905 42.7159 13.1778 42.8018 12.8909 42.9655C12.8581 42.9843 12.8263 43.0053 12.7957 43.0272C12.7531 43.0578 12.7324 43.0998 12.7454 43.1505C12.7939 43.3547 12.8436 43.5598 12.9629 43.7374C12.9727 43.7519 12.9749 43.772 12.9836 43.7973C12.9335 43.8211 12.8828 43.8471 12.831 43.869C11.5907 44.3722 10.4024 44.9749 9.27148 45.69C9.21557 45.7258 9.15564 45.7539 9.09633 45.7839C9.0951 45.7845 9.08181 45.7688 9.08305 45.762C9.08923 45.7258 9.09386 45.6881 9.10591 45.6535C9.32152 45.0308 9.58533 44.4287 9.89145 43.8458C10.6628 42.3798 11.6599 41.088 12.8844 39.9722C14.036 38.922 15.3275 38.0879 16.7568 37.4652C17.597 37.0979 18.4672 36.8193 19.3633 36.6256C19.7541 36.5403 20.1498 36.4776 20.547 36.4239C21.3335 36.3151 22.1239 36.2994 22.9157 36.3188C23.3061 36.3287 23.6941 36.372 24.0827 36.4158C24.4528 36.4585 24.8185 36.5224 25.1833 36.595C26.1579 36.7902 27.1 37.0926 28.0101 37.4924C29.2858 38.0518 30.4529 38.7845 31.5071 39.6939C33.3571 41.29 34.7089 43.2351 35.5578 45.5272C35.8293 46.2608 36.0322 47.0155 36.1753 47.7853C36.238 48.122 36.2865 48.4614 36.3211 48.8037C36.3763 49.344 36.4168 49.8858 36.4109 50.4301ZM17.778 46.473C16.9684 46.2596 16.2743 45.8336 15.6379 45.3042C15.4399 45.1392 15.2642 44.9505 15.1165 44.7373C14.9896 44.5548 14.8997 44.3568 14.8697 44.1347C14.8543 44.0167 14.8836 43.9076 14.925 43.7998C14.9302 43.7856 14.9556 43.7711 14.9716 43.7708C15.0467 43.7699 15.1236 43.7646 15.1984 43.7773C15.5091 43.8279 15.8125 43.9092 16.1059 44.0259C16.3629 44.1291 16.6147 44.2409 16.8618 44.367C17.1923 44.535 17.5222 44.7061 17.8537 44.8751C18.1431 45.0215 18.4354 45.1611 18.7399 45.2745C18.9543 45.3548 19.1752 45.4147 19.4007 45.4524C19.4847 45.467 19.573 45.4753 19.6561 45.4632C20.0979 45.3999 20.5059 45.251 20.8605 44.9736C20.9501 44.9044 21.044 44.8365 21.1012 44.7339C21.1061 44.7265 21.1039 44.7142 21.1006 44.7052C21.0978 44.7 21.0885 44.6913 21.0826 44.6913C21.0456 44.6932 21.0066 44.6941 20.969 44.6996C20.4414 44.7651 19.923 44.7213 19.4155 44.5628C19.1026 44.4652 18.8178 44.3151 18.5685 44.1001C18.5033 44.0442 18.4431 43.9824 18.3835 43.9218C18.3393 43.8764 18.3473 43.8279 18.3986 43.8112C18.4619 43.7918 18.5259 43.7711 18.5901 43.7581C18.8805 43.6979 19.1724 43.6608 19.4671 43.6302C19.8764 43.5882 20.2857 43.5857 20.6953 43.5904C21.0965 43.5947 21.4944 43.637 21.8917 43.6849C23.8878 43.9255 25.7427 44.5915 27.4979 45.5538C27.8155 45.727 28.1216 45.9204 28.436 46.1021C28.534 46.1577 28.5923 46.2377 28.6285 46.3402C28.7255 46.6195 28.7953 46.9064 28.8605 47.1949C28.972 47.6873 29.0609 48.1844 29.1354 48.6835C29.1579 48.8346 29.1681 48.9875 29.1793 49.1392C29.1867 49.2229 29.229 49.2735 29.3003 49.319C29.9842 49.7607 30.6011 50.2837 31.1553 50.8811C31.311 51.0488 31.4528 51.2286 31.5726 51.4254C31.6523 51.5551 31.7237 51.6901 31.7453 51.8452C31.757 51.9304 31.7203 51.9662 31.6304 51.9477C31.5831 51.9391 31.5352 51.931 31.4926 51.9125C31.3697 51.8591 31.2458 51.8075 31.1294 51.7448C31.0039 51.6777 30.8813 51.6024 30.7614 51.5239C30.586 51.4093 30.4139 51.2891 30.2397 51.1721C30.1847 51.1347 30.1273 51.1013 30.0707 51.0661C30.0436 51.0732 30.0222 51.0609 30.0028 51.0436C30.0037 51.0448 29.987 51.0636 29.987 51.0636C29.987 51.0636 30.0108 51.0649 30.012 51.0661C30.0343 51.0939 30.0494 51.122 30.0568 51.1544C30.1594 51.4806 30.2552 51.8099 30.3657 52.1334C30.5023 52.5331 30.7154 52.8917 30.9798 53.2207C31.0225 53.2723 31.0617 53.3263 31.0969 53.3816C31.1056 53.394 31.1012 53.4181 31.0969 53.4348C31.0917 53.4527 31.0821 53.4718 31.0703 53.4839C30.6651 53.904 30.2351 54.291 29.6988 54.5394C29.0823 54.8245 28.4373 54.957 27.7602 54.9113C27.454 54.89 27.1566 54.8239 26.8758 54.6969C26.7287 54.6302 26.5897 54.5493 26.4686 54.4396C26.2632 54.253 26.1301 54.0285 26.1199 53.7455C26.1156 53.6528 26.0686 53.6124 25.9929 53.5778C25.7501 53.4694 25.5098 53.3541 25.2664 53.2451C24.9204 53.0888 24.5735 52.9337 24.2251 52.7793C24.1905 52.7641 24.1537 52.7533 24.1185 52.74C24.0549 52.7163 24.036 52.7354 24.0623 52.7981C24.4654 53.1027 24.888 53.3788 25.309 53.6578C25.3649 53.6949 25.4221 53.7295 25.4768 53.7681C25.5531 53.8212 25.6615 53.8487 25.6979 53.937C25.7294 54.0121 25.7149 54.1054 25.7226 54.1906C25.7267 54.2277 25.7393 54.2651 25.7402 54.3025C25.7406 54.317 25.7208 54.3389 25.7075 54.3442C25.6337 54.3664 25.5586 54.3803 25.4866 54.4035C25.4153 54.4273 25.3408 54.4501 25.2763 54.4878C25.1274 54.5746 25.0888 54.7689 25.1886 54.9104C25.221 54.9561 25.2652 54.995 25.309 55.0302C25.3368 55.054 25.3748 55.0688 25.4094 55.0821C25.8898 55.2724 26.3769 55.4303 26.8925 55.4927C27.0902 55.5164 27.2863 55.5619 27.4794 55.6144C27.9118 55.7302 28.3322 55.8831 28.7496 56.0444C28.7761 56.0549 28.8027 56.0669 28.8246 56.0848C28.8367 56.0947 28.8472 56.1194 28.8441 56.1327C28.8321 56.1679 28.8172 56.2047 28.7953 56.2353C28.7242 56.3353 28.6516 56.4376 28.5744 56.5333C28.2973 56.8741 28.0036 57.1993 27.6808 57.4987C27.3515 57.8054 27.379 57.7742 26.9737 57.7869C26.5385 57.8005 26.1227 57.7029 25.7168 57.5546C25.1833 57.3603 24.6955 57.0863 24.2578 56.7243C24.0595 56.5596 23.8791 56.377 23.7339 56.1614C23.6496 56.0329 23.5816 55.8967 23.5498 55.7456C23.539 55.6922 23.5557 55.6304 23.5057 55.5878C23.4603 55.5965 23.4121 55.6017 23.366 55.6144C22.9428 55.7336 22.5104 55.7948 22.0745 55.8454C21.5899 55.902 21.1046 55.9032 20.619 55.8893C20.227 55.8772 19.8405 55.8241 19.4572 55.7456C19.392 55.7321 19.3262 55.7228 19.2604 55.7117C19.2073 55.6882 19.1597 55.6616 19.1937 55.5897C19.3055 55.5041 19.4371 55.4401 19.5103 55.3092C19.5505 55.2384 19.5696 55.1658 19.5218 55.0936C19.4671 55.0117 19.3868 54.9978 19.2947 55.0157C19.0686 55.059 18.9441 55.2313 18.9321 55.5198C18.9318 55.5476 18.9216 55.5714 18.9036 55.5931C18.8857 55.5915 18.865 55.5931 18.8477 55.5872C18.2123 55.3895 17.6356 55.0868 17.1383 54.641C16.7299 54.2737 16.4133 53.8366 16.1819 53.339C15.9675 52.879 15.8298 52.3962 15.7538 51.8952C15.6861 51.442 15.6441 50.9876 15.6608 50.5305C15.6744 50.1598 15.6901 49.7888 15.7433 49.4212C15.7732 49.2145 15.7973 49.0063 15.823 48.7985C15.8372 48.7361 15.9024 48.6576 15.7745 48.6378C15.35 49.3588 15.0646 50.1332 14.8916 50.9512C14.7937 51.4093 14.7332 51.8726 14.7424 52.3409C14.7545 52.955 14.8577 53.5546 15.0986 54.1248C15.2935 54.5863 15.5604 55.0009 15.8971 55.371C16.3067 55.8192 16.7871 56.176 17.3156 56.47C17.7159 56.6934 18.1345 56.8775 18.5654 57.0325C18.6009 57.0449 18.6355 57.0622 18.6695 57.0773C18.6924 57.0881 18.6982 57.132 18.68 57.1508C18.6136 57.2194 18.5463 57.2877 18.4798 57.3556C18.044 57.8014 17.6714 58.2944 17.3774 58.8455C17.1191 59.3283 16.9384 59.8392 16.8677 60.3835C16.8226 60.7356 16.8238 61.0875 16.8769 61.439C16.9742 62.0729 17.2223 62.6453 17.5775 63.1747C17.673 63.3178 17.7771 63.4543 17.8756 63.5945C17.8824 63.6038 17.8762 63.6245 17.8725 63.639C17.8719 63.643 17.8543 63.6464 17.8478 63.644C17.6674 63.58 17.487 63.5201 17.3088 63.4521C16.2258 63.0391 15.2123 62.4948 14.2639 61.8267C14.225 61.7992 14.1876 61.7708 14.149 61.743C14.1067 61.7124 14.0897 61.6698 14.0925 61.6191C14.1012 61.4674 14.1076 61.3145 14.1225 61.1629C14.1459 60.9336 14.1444 60.7057 14.1231 60.4774C14.1012 60.2392 14.0885 60.0023 14.0486 59.7669C13.8809 58.7763 13.4883 57.89 12.8452 57.1175C12.5443 56.7561 12.2054 56.4367 11.8196 56.1667C11.7937 56.1593 11.7659 56.1361 11.7464 56.1772C11.7677 56.2204 11.7872 56.2631 11.8113 56.3045C12.169 56.9331 12.3914 57.6071 12.5075 58.3191C12.5903 58.8201 12.6228 59.323 12.6014 59.8293C12.5946 59.9909 12.569 60.1506 12.5508 60.3118C12.5483 60.3362 12.5035 60.3477 12.4822 60.3304C12.4532 60.3066 12.4226 60.2825 12.3957 60.2559C11.2855 59.1355 10.3786 57.87 9.69189 56.4487C9.19209 55.4142 8.82234 54.3364 8.59282 53.2099C8.48965 52.7048 8.41397 52.1973 8.36331 51.6842C8.28732 50.9036 8.29597 50.1221 8.33057 49.3409C8.33798 49.179 8.35991 49.0175 8.3803 48.8578C8.38462 48.8216 8.40779 48.7867 8.4291 48.7574C8.45104 48.7259 8.48038 48.7008 8.50819 48.6743C9.38855 47.8273 10.3054 47.0229 11.2939 46.3028C11.726 45.9875 12.1705 45.6915 12.6465 45.4472C12.8498 45.3422 13.0558 45.2449 13.2724 45.1664C13.4253 45.1111 13.5822 45.0746 13.7407 45.0379C13.7953 45.0255 13.8537 45.0249 13.9109 45.0215C13.9501 45.0187 13.9859 45.0342 14.0134 45.062C14.0805 45.1296 14.1478 45.1979 14.2136 45.2671C14.4564 45.5232 14.7088 45.7694 14.9862 45.989C15.2642 46.2083 15.561 46.3974 15.8851 46.5416C16.3042 46.7291 16.742 46.7974 17.1976 46.7347C17.4061 46.706 17.6069 46.6488 17.7897 46.5392C17.7959 46.5351 17.8033 46.5225 17.8018 46.5178C17.7965 46.5012 17.7891 46.4758 17.778 46.473ZM22.3284 66.5007C22.3269 66.5998 22.2895 66.6344 22.1857 66.6338C22.0708 66.6332 21.9568 66.6286 21.8416 66.6233C21.7282 66.6184 21.6136 66.6088 21.4993 66.6038C20.9458 66.5859 20.3981 66.5195 19.8504 66.4377C18.5144 66.2372 17.2263 65.8674 15.9833 65.3404C14.5336 64.727 13.2023 63.9161 11.9873 62.9153C10.5902 61.7655 9.41636 60.4203 8.46556 58.8819C7.58828 57.4601 6.94453 55.9384 6.53832 54.317C6.4058 53.7894 6.30263 53.2565 6.21892 52.7197C6.1837 52.4945 6.17165 52.2649 6.13768 52.0388C6.07775 51.6317 6.08702 51.2206 6.05304 50.8119C6.03975 50.6608 6.05118 50.5073 6.05118 50.3541C6.04531 50.3541 6.03975 50.3541 6.0345 50.3541C6.05581 49.9065 6.06323 49.4573 6.10091 49.011C6.21675 47.6568 6.48642 46.334 6.93186 45.0487C7.54009 43.2935 8.41953 41.6888 9.57482 40.2335C10.6201 38.9148 11.8409 37.7864 13.2341 36.8449C14.6921 35.8601 16.269 35.1305 17.9637 34.6588C18.6077 34.4803 19.2589 34.3425 19.9196 34.2443C20.6369 34.1368 21.3582 34.0747 22.0838 34.07C22.132 34.0691 22.1799 34.07 22.2271 34.0719C22.2775 34.0737 22.3207 34.113 22.3241 34.1584C22.3263 34.1769 22.3281 34.1958 22.3287 34.2149C22.3287 34.5102 22.3287 34.8058 22.3287 35.1018C22.3287 35.1305 22.325 35.1589 22.3223 35.187C22.3189 35.2216 22.2824 35.2609 22.2497 35.2649C22.2111 35.268 22.1731 35.2735 22.1351 35.2741C22.0115 35.2781 21.887 35.2794 21.7641 35.2822C21.3248 35.2908 20.889 35.3371 20.4531 35.3887C19.6654 35.4823 18.8916 35.6427 18.1317 35.8651C16.1479 36.4458 14.3545 37.3907 12.7584 38.7054C10.9315 40.2116 9.53343 42.0474 8.5607 44.2051C8.11711 45.1893 7.78906 46.2139 7.57067 47.2725C7.48356 47.6935 7.41313 48.1161 7.36309 48.5411C7.32818 48.8445 7.28988 49.1478 7.28401 49.4539C7.27814 49.7394 7.25003 50.0254 7.25405 50.3108C7.26084 50.8252 7.28339 51.3395 7.33343 51.8526C7.41035 52.6616 7.55337 53.4573 7.76373 54.241C8.20763 55.8952 8.90883 57.4329 9.88063 58.8427C11.612 61.3522 13.893 63.184 16.7142 64.3393C17.5988 64.701 18.5138 64.9661 19.4513 65.1489C19.8995 65.2351 20.3536 65.2972 20.8086 65.3472C21.2553 65.397 21.7035 65.3933 22.1505 65.4291C22.1879 65.4328 22.2271 65.4316 22.263 65.4442C22.2852 65.4523 22.305 65.4782 22.3189 65.5008C22.3287 65.5147 22.3281 65.5375 22.3281 65.5561C22.3284 65.8705 22.3287 66.1853 22.3284 66.5007ZM39.6399 48.8723C39.6078 48.5303 39.5707 48.1899 39.5228 47.8498C39.4277 47.1699 39.2887 46.499 39.1111 45.8358C38.7024 44.316 38.0963 42.8818 37.2938 41.5291C36.3572 39.95 35.1988 38.5537 33.8205 37.3401C32.8354 36.4739 31.7675 35.7273 30.6135 35.1018C28.4722 33.9422 26.1823 33.2709 23.7574 33.0704C23.2931 33.0312 22.8252 33.0006 22.3559 33C22.0514 33.0151 21.7468 33.0321 21.4425 33.0426C21.0036 33.0584 20.5683 33.1026 20.1331 33.1585C19.6784 33.215 19.2283 33.2935 18.7801 33.3846C17.4954 33.6487 16.2582 34.0586 15.0699 34.6115C12.7525 35.6878 10.7638 37.2011 9.10962 39.1499C7.57746 40.9548 6.46511 42.9902 5.76236 45.2504C5.57362 45.8605 5.41979 46.4805 5.30271 47.1078C5.21406 47.5758 5.14425 48.0475 5.09853 48.5226C5.04911 49.0348 5.00771 49.5472 5.00123 50.0628C4.99319 50.7785 5.02439 51.4927 5.10162 52.2041C5.139 52.555 5.18409 52.9053 5.2434 53.2525C5.36974 54.005 5.54551 54.746 5.77317 55.4747C6.56488 58.0102 7.87154 60.2473 9.68263 62.1887C10.5775 63.1475 11.5722 63.9912 12.6604 64.7239C14.1997 65.7602 15.8616 66.5316 17.6461 67.0332C18.5836 67.2979 19.5366 67.4827 20.5072 67.5787C21.0289 67.6291 21.5512 67.6745 22.0761 67.6779C22.544 67.6797 23.0102 67.677 23.4772 67.6405C23.8865 67.6087 24.2937 67.5713 24.7002 67.5188C25.2772 67.445 25.8477 67.3384 26.414 67.2022C27.9223 66.8374 29.3587 66.2838 30.7188 65.5335C32.6198 64.4854 34.2672 63.129 35.6609 61.4674C37.101 59.7536 38.1655 57.8301 38.8599 55.7015C39.0916 54.995 39.2745 54.2744 39.4076 53.5426C39.4774 53.158 39.5355 52.7722 39.584 52.3842C39.6238 52.0719 39.6556 51.758 39.6705 51.4448C39.7103 50.587 39.719 49.7295 39.6399 48.8723Z" fill="black"/>
<path fill-rule="evenodd" clip-rule="evenodd" d="M18.9302 55.5398C18.9262 55.5596 18.9182 55.5778 18.9037 55.593C18.9164 55.6072 18.9256 55.6303 18.9395 55.6337C19.0482 55.6541 19.1446 55.7215 19.2605 55.7116C19.2092 55.6893 19.1647 55.6643 19.1897 55.5991C19.1147 55.5244 19.0276 55.5059 18.9302 55.5398Z" fill="black"/>
<path fill-rule="evenodd" clip-rule="evenodd" d="M19.2051 55.6151C19.1999 55.6099 19.1943 55.604 19.1897 55.5994C19.1646 55.6645 19.2091 55.6896 19.2604 55.7118C19.2425 55.6791 19.223 55.6479 19.2051 55.6151Z" fill="black"/>
<path fill-rule="evenodd" clip-rule="evenodd" d="M18.9018 55.5518C18.895 55.5657 18.8962 55.5796 18.9037 55.5929C18.9182 55.5775 18.9262 55.5599 18.9302 55.5398C18.9203 55.5432 18.9108 55.5472 18.9018 55.5518Z" fill="black"/>
<path fill-rule="evenodd" clip-rule="evenodd" d="M15.7744 48.6374C15.801 48.66 15.8112 48.6909 15.813 48.7251C15.8136 48.7499 15.8195 48.774 15.8229 48.7984C15.8377 48.736 15.9023 48.6575 15.7744 48.6374Z" fill="black"/>
<path fill-rule="evenodd" clip-rule="evenodd" d="M15.8359 48.5528C15.8269 48.5549 15.8155 48.5577 15.8124 48.5642C15.7982 48.5877 15.7865 48.613 15.7744 48.6377C15.9023 48.6575 15.8377 48.7359 15.8229 48.7983C15.881 48.7366 15.8782 48.6599 15.8736 48.5843C15.8723 48.5596 15.8578 48.5484 15.8359 48.5528Z" fill="black"/>
<path fill-rule="evenodd" clip-rule="evenodd" d="M24.0624 52.7978C24.0809 52.7786 24.1001 52.7595 24.1186 52.74C24.055 52.7162 24.0361 52.7354 24.0624 52.7978Z" fill="black"/>
<path fill-rule="evenodd" clip-rule="evenodd" d="M24.1188 52.74C24.09 52.702 24.0539 52.6789 24.006 52.6875C23.9921 52.6903 23.9804 52.7054 23.9702 52.7175C23.9677 52.7221 23.9702 52.7363 23.9761 52.7422C23.9968 52.7706 24.0233 52.7941 24.0622 52.7981C24.0363 52.7354 24.0548 52.7162 24.1188 52.74Z" fill="black"/>
<path fill-rule="evenodd" clip-rule="evenodd" d="M30.071 51.0661C30.0435 51.0732 30.0222 51.0608 30.0027 51.0435C30.0036 51.0448 29.9869 51.0636 29.9869 51.0636C29.9869 51.0636 30.0107 51.0648 30.012 51.0661C30.0342 51.0939 30.0493 51.122 30.0568 51.1544C30.0614 51.1254 30.066 51.0954 30.071 51.0661Z" fill="black"/>
<path fill-rule="evenodd" clip-rule="evenodd" d="M30.071 51.0661C30.0682 51.0355 30.046 51.0256 30.0216 51.0182C29.995 51.0022 29.9709 51.0055 29.949 51.0269C29.9709 51.0806 30.0067 51.1242 30.0568 51.1544C30.0497 51.122 30.0342 51.0939 30.012 51.0661C30.0111 51.0645 29.987 51.0636 29.987 51.0636C29.987 51.0636 30.0037 51.0448 30.0027 51.0435C30.0222 51.0608 30.0435 51.0735 30.071 51.0661Z" fill="black"/>
<path fill-rule="evenodd" clip-rule="evenodd" d="M11.7467 56.1772C11.7705 56.1747 11.7952 56.1707 11.8196 56.1667C11.7937 56.1593 11.7659 56.1361 11.7467 56.1772Z" fill="black"/>
<path fill-rule="evenodd" clip-rule="evenodd" d="M11.7433 56.0946C11.7365 56.0921 11.722 56.0927 11.7199 56.0968C11.714 56.1113 11.7032 56.1304 11.7084 56.1431C11.7134 56.1573 11.7331 56.1666 11.7464 56.1771C11.7659 56.136 11.7937 56.1592 11.8196 56.1666C11.8085 56.1286 11.7776 56.1088 11.7433 56.0946Z" fill="black"/>
<path fill-rule="evenodd" clip-rule="evenodd" d="M25.2311 46.8477C25.5477 47.1131 25.8078 47.4272 26.012 47.7886C26.1059 47.9548 26.1983 48.1213 26.2922 48.2875C26.3583 48.404 26.4361 48.5118 26.5217 48.6143C26.5798 48.6829 26.6474 48.6956 26.7274 48.6743C26.7834 48.6594 26.8377 48.6415 26.893 48.631C27.4435 48.5152 28.0001 48.4333 28.5611 48.3873C28.5985 48.3839 28.6371 48.382 28.6741 48.3722C28.6856 48.3694 28.6948 48.3462 28.7007 48.3308C28.7035 48.3243 28.6982 48.3104 28.6914 48.3051C28.6636 48.2795 28.6349 48.2551 28.6043 48.2322C27.9658 47.7785 27.3001 47.3707 26.6011 47.0167C26.1325 46.7798 25.6528 46.571 25.1471 46.4245C25.0007 46.3813 24.8564 46.3269 24.702 46.3229C24.6396 46.3093 24.5657 46.2784 24.5716 46.3933C24.6281 46.4298 24.6828 46.4672 24.7406 46.5018C24.9096 46.6062 25.076 46.7195 25.2311 46.8477Z" fill="black"/>
<path fill-rule="evenodd" clip-rule="evenodd" d="M22.4316 50.8253C22.6099 50.8182 22.7739 50.7808 22.9265 50.6922C23.1918 50.5368 23.3719 50.3104 23.4717 50.0225C23.5353 49.8415 23.5545 49.6558 23.5004 49.4634C23.3901 49.0621 23.0306 48.8428 22.6234 48.9444C22.1786 49.0562 21.9071 49.3518 21.77 49.7787C21.7122 49.9545 21.7066 50.1309 21.7619 50.311C21.8571 50.6217 22.1135 50.8216 22.4316 50.8253Z" fill="black"/>
<path fill-rule="evenodd" clip-rule="evenodd" d="M19.5804 49.7972C19.7559 49.7416 19.9088 49.6505 20.0435 49.526C20.3589 49.2331 20.5603 48.8717 20.6635 48.4566C20.7076 48.2805 20.7141 48.0973 20.6774 47.9184C20.6112 47.5892 20.3301 47.49 20.104 47.5709C19.9397 47.629 19.7945 47.7155 19.6682 47.8338C19.384 48.0992 19.1925 48.4213 19.0785 48.7933C19.0396 48.9202 19.0121 49.0503 19.0148 49.1414C19.0139 49.3091 19.0213 49.4296 19.068 49.5491C19.1492 49.7555 19.3787 49.8599 19.5804 49.7972Z" fill="black"/>
<path fill-rule="evenodd" clip-rule="evenodd" d="M18.2997 51.4014C18.1551 51.2964 17.9867 51.2553 17.8131 51.2757C17.3387 51.3316 16.976 51.5701 16.7286 51.979C16.6486 52.1122 16.6035 52.2561 16.6041 52.4016C16.5883 52.7423 16.8012 52.928 17.018 52.9892C17.1403 53.0222 17.262 53.0376 17.3847 53.0157C17.8425 52.9305 18.1903 52.687 18.4198 52.2812C18.5057 52.1273 18.5335 51.9605 18.5196 51.7847C18.5057 51.621 18.4291 51.4953 18.2997 51.4014Z" fill="black"/>
<path fill-rule="evenodd" clip-rule="evenodd" d="M17.842 48.6397C17.6431 48.4939 17.4179 48.4287 17.2322 48.4321C16.9017 48.4287 16.6873 48.4905 16.497 48.6236C16.4108 48.6848 16.3349 48.7574 16.2796 48.8479C16.1418 49.0734 16.1446 49.2983 16.2895 49.5191C16.3586 49.6241 16.4492 49.7088 16.5604 49.7687C16.9598 49.9862 17.3595 49.9871 17.7586 49.7681C17.8611 49.7128 17.9461 49.6362 18.0128 49.541C18.1225 49.3869 18.1645 49.2179 18.116 49.028C18.0727 48.8624 17.9754 48.7376 17.842 48.6397Z" fill="black"/>
<path fill-rule="evenodd" clip-rule="evenodd" d="M9.82503 49.7352C9.74656 49.6778 9.65945 49.6481 9.56153 49.6429C9.41233 49.6349 9.27889 49.6753 9.1649 49.7705C9.10776 49.8183 9.05308 49.873 9.00706 49.9329C8.85291 50.1356 8.78588 50.3694 8.77847 50.6227C8.77507 50.8377 8.83036 51.036 8.9567 51.2118C9.14019 51.4666 9.45156 51.4972 9.68911 51.3468C9.77776 51.29 9.85283 51.2177 9.91461 51.1327C10.0644 50.9254 10.1318 50.6907 10.1364 50.4392C10.1398 50.2869 10.103 50.1381 10.0372 49.9981C9.98813 49.8943 9.91955 49.8054 9.82503 49.7352Z" fill="black"/>
<path fill-rule="evenodd" clip-rule="evenodd" d="M12.991 45.7499C12.8044 45.714 12.6296 45.7474 12.469 45.8444C12.2484 45.9782 12.1045 46.1725 12.0319 46.4221C11.9889 46.5737 11.9892 46.7198 12.0347 46.8724C12.127 47.1844 12.4486 47.3568 12.7519 47.2904C13.1544 47.2017 13.4664 46.8159 13.4717 46.3841C13.4785 46.2661 13.4445 46.1394 13.3741 46.022C13.2869 45.875 13.1603 45.7832 12.991 45.7499Z" fill="black"/>
<path fill-rule="evenodd" clip-rule="evenodd" d="M12.0778 52.2983C12.0352 52.2612 11.9891 52.2257 11.9394 52.1991C11.6333 52.0382 11.3219 52.0289 11.0081 52.1719C10.8848 52.2291 10.7826 52.3134 10.7171 52.4361C10.6491 52.5624 10.6466 52.6887 10.7106 52.8182C10.7538 52.9053 10.8178 52.9735 10.8975 53.0276C11.06 53.1373 11.2416 53.1851 11.4053 53.1932C11.5567 53.1953 11.7383 53.1592 11.8517 53.1113C11.94 53.0742 12.0179 53.0214 12.0886 52.9562C12.2779 52.7786 12.2767 52.4781 12.0778 52.2983Z" fill="black"/>
<path fill-rule="evenodd" clip-rule="evenodd" d="M18.7443 53.6503C18.706 53.3887 18.4512 53.2509 18.2077 53.3569C17.9609 53.4638 17.8065 53.7115 17.8099 54.0062C17.8111 54.0235 17.8123 54.0522 17.8157 54.08C17.8405 54.2981 18.0128 54.4362 18.2325 54.4173C18.3103 54.4115 18.3826 54.388 18.4459 54.3441C18.6875 54.1739 18.7845 53.9404 18.7443 53.6503Z" fill="black"/>
<path fill-rule="evenodd" clip-rule="evenodd" d="M21.7249 47.7235C21.7981 47.756 21.8731 47.7628 21.9482 47.7433C22.1972 47.6803 22.3973 47.5437 22.5484 47.3355C22.6037 47.2571 22.6377 47.1694 22.6568 47.0739C22.6809 46.9494 22.5938 46.8206 22.4693 46.7981C22.3933 46.786 22.3176 46.7872 22.2432 46.8104C21.9803 46.8963 21.7752 47.056 21.6421 47.3034C21.6056 47.3723 21.5896 47.4455 21.5923 47.5218C21.5939 47.6154 21.6402 47.6843 21.7249 47.7235Z" fill="black"/>
<path fill-rule="evenodd" clip-rule="evenodd" d="M10.1611 54.8596C9.8964 54.8602 9.57082 55.1355 9.52448 55.4227C9.51892 55.4512 9.52016 55.4799 9.51892 55.4981C9.52108 55.7014 9.69469 55.8487 9.88497 55.8113C10.1936 55.7508 10.395 55.5658 10.4768 55.263C10.5383 55.0375 10.3693 54.8584 10.1611 54.8596Z" fill="black"/>
<path fill-rule="evenodd" clip-rule="evenodd" d="M13.8244 54.0461C13.7546 54.0822 13.6959 54.1267 13.648 54.1866C13.5371 54.3256 13.4858 54.4859 13.4818 54.6611C13.4784 54.768 13.5102 54.8681 13.5649 54.9583C13.6221 55.0562 13.7086 55.1068 13.8238 55.105C13.9016 55.1034 13.9727 55.0794 14.0332 55.0296C14.2049 54.8851 14.2822 54.7003 14.2816 54.4609C14.2862 54.351 14.2621 54.2317 14.1796 54.1313C14.1036 54.038 13.968 53.9716 13.8244 54.0461Z" fill="black"/>
<path fill-rule="evenodd" clip-rule="evenodd" d="M20.2965 53.5439C20.333 53.5371 20.37 53.5247 20.4034 53.5074C20.6249 53.3882 20.7222 53.1926 20.7333 52.9483C20.7373 52.8705 20.7114 52.7972 20.6715 52.7324C20.6079 52.6277 20.5137 52.5705 20.3706 52.5705C20.3503 52.5736 20.3113 52.5751 20.2755 52.5866C20.0015 52.6734 19.8152 53.0302 19.9011 53.3004C19.9583 53.4827 20.1099 53.5772 20.2965 53.5439Z" fill="black"/>
<path fill-rule="evenodd" clip-rule="evenodd" d="M22.6451 52.856C22.681 52.8485 22.7174 52.8346 22.7502 52.8161C22.9513 52.7077 23.0461 52.5273 23.0733 52.3092C23.0875 52.2017 23.0501 52.1013 22.9902 52.0136C22.9065 51.8919 22.7267 51.8505 22.5803 51.9126C22.3421 52.013 22.2111 52.287 22.2232 52.4828C22.2244 52.5013 22.225 52.5208 22.2263 52.5387C22.2457 52.7587 22.4301 52.8986 22.6451 52.856Z" fill="black"/>
<path fill-rule="evenodd" clip-rule="evenodd" d="M15.0559 47.8378C14.9515 47.8563 14.8564 47.8965 14.7798 47.9728C14.6593 48.0935 14.5981 48.2362 14.6049 48.4349C14.6034 48.4262 14.6049 48.4448 14.6055 48.4639C14.6244 48.7154 14.8564 48.9004 15.1424 48.7713C15.3701 48.6675 15.5344 48.323 15.4025 48.0419C15.3438 47.9184 15.1776 47.8164 15.0559 47.8378Z" fill="black"/>
<path fill-rule="evenodd" clip-rule="evenodd" d="M15.4613 56.7474C15.4001 56.7196 15.3368 56.7063 15.2682 56.7202C15.0214 56.7712 14.8357 56.9083 14.7054 57.1199C14.6668 57.1826 14.6427 57.2571 14.6263 57.3303C14.605 57.419 14.6346 57.4986 14.7032 57.5607C14.7567 57.6083 14.8218 57.617 14.913 57.617C14.9368 57.6136 14.9856 57.6139 15.0291 57.5984C15.2855 57.5113 15.4724 57.3464 15.5675 57.09C15.5876 57.0387 15.5882 56.9775 15.5861 56.9225C15.5824 56.8407 15.5363 56.7814 15.4613 56.7474Z" fill="black"/>
<path fill-rule="evenodd" clip-rule="evenodd" d="M16.1226 58.9419C16.0386 58.8924 15.9493 58.8622 15.8622 58.8659C15.7226 58.864 15.624 58.8924 15.5283 58.9613C15.3046 59.1186 15.312 59.4077 15.5434 59.556C15.5755 59.5764 15.6095 59.5933 15.6454 59.6072C15.7751 59.6585 15.9082 59.6517 16.0364 59.6051C16.1804 59.5526 16.2767 59.4516 16.3095 59.2993C16.3169 59.2631 16.3141 59.2233 16.3055 59.1868C16.2795 59.0809 16.2177 58.9978 16.1226 58.9419Z" fill="black"/>
<path fill-rule="evenodd" clip-rule="evenodd" d="M20.5153 51.0663C20.7389 51.0196 20.915 50.9059 21.032 50.7048C21.0722 50.6375 21.0907 50.5658 21.088 50.4902C21.0864 50.4194 21.0654 50.357 21.0089 50.315C20.9391 50.2625 20.8584 50.2332 20.7707 50.2492C20.7148 50.2591 20.6577 50.2711 20.6064 50.2925C20.4062 50.3783 20.2576 50.5167 20.1884 50.7289C20.1452 50.8621 20.215 50.9983 20.3481 51.049C20.4028 51.0697 20.4587 51.0783 20.5153 51.0663Z" fill="black"/>
<path fill-rule="evenodd" clip-rule="evenodd" d="M11.3 48.121C11.2632 48.1148 11.224 48.1148 11.1869 48.1204C11.0226 48.1476 10.8808 48.2192 10.7678 48.3428C10.6952 48.4212 10.6488 48.5152 10.642 48.6236C10.6374 48.7141 10.6704 48.7898 10.7471 48.8444C10.803 48.8831 10.8647 48.9044 10.9216 48.9044C11.161 48.9096 11.4137 48.7555 11.511 48.551C11.519 48.5337 11.5243 48.5152 11.5301 48.4972C11.5981 48.2782 11.4782 48.1565 11.3 48.121Z" fill="black"/>
<path fill-rule="evenodd" clip-rule="evenodd" d="M12.936 49.4166C12.6966 49.3931 12.5125 49.4919 12.3673 49.6736C12.3321 49.7174 12.3055 49.77 12.2855 49.8218C12.2237 49.988 12.3293 50.1573 12.5045 50.1786C12.5323 50.1817 12.5607 50.1833 12.5755 50.1839C12.8403 50.1885 13.0892 49.9976 13.1643 49.7894C13.231 49.6084 13.1251 49.4339 12.936 49.4166Z" fill="black"/>
<path fill-rule="evenodd" clip-rule="evenodd" d="M21.5577 54.919C21.5938 54.9082 21.6287 54.8912 21.6587 54.8693C21.802 54.7615 21.8817 54.6163 21.8903 54.4387C21.8891 54.4075 21.8891 54.3791 21.8857 54.3503C21.869 54.1699 21.6967 54.072 21.5345 54.1499C21.3881 54.2197 21.2988 54.3364 21.2522 54.4875C21.2278 54.5678 21.2117 54.6497 21.2358 54.7368C21.2803 54.8983 21.398 54.9697 21.5577 54.919Z" fill="black"/>
<path fill-rule="evenodd" clip-rule="evenodd" d="M9.2103 52.2955C9.1825 52.2915 9.15284 52.289 9.12566 52.2924C8.89491 52.311 8.69721 52.4759 8.63481 52.6995C8.60084 52.8191 8.68857 52.9575 8.81027 52.9776C8.83838 52.9816 8.86618 52.985 8.89553 52.989C9.11176 52.981 9.27146 52.8778 9.37587 52.6909C9.3978 52.6507 9.40861 52.6026 9.41294 52.5565C9.42776 52.4218 9.34251 52.3156 9.2103 52.2955Z" fill="black"/>
<path fill-rule="evenodd" clip-rule="evenodd" d="M19.1938 55.5897C19.3056 55.5041 19.4372 55.4402 19.5104 55.3092C19.5505 55.2385 19.5697 55.1659 19.5218 55.0936C19.4671 55.0117 19.3868 54.9978 19.2948 55.0157C19.0687 55.059 18.9442 55.2314 18.9321 55.5199C18.9318 55.5344 18.929 55.5486 18.9229 55.5619C19.0056 55.5999 19.0952 55.6057 19.1845 55.6138C19.1863 55.6064 19.1891 55.5993 19.1938 55.5897Z" fill="black"/>
<path fill-rule="evenodd" clip-rule="evenodd" d="M19.1937 55.5896C19.1894 55.5989 19.1863 55.6063 19.1845 55.6137C19.1919 55.6144 19.1984 55.615 19.2052 55.615C19.4186 55.5751 19.5549 55.4454 19.6274 55.2452C19.659 55.1593 19.6237 55.0435 19.5518 54.991C19.4884 54.945 19.4174 54.9178 19.3396 54.9304C19.1326 54.9644 18.9683 55.0636 18.8765 55.2591C18.8305 55.3583 18.8286 55.4593 18.9015 55.552C18.9093 55.5551 18.9164 55.5578 18.9228 55.5618C18.929 55.5486 18.9318 55.5344 18.9321 55.5198C18.9442 55.2313 19.0686 55.059 19.2948 55.0157C19.3868 54.9975 19.4671 55.0117 19.5218 55.0935C19.5697 55.1658 19.5505 55.2384 19.5104 55.3092C19.4375 55.4401 19.3056 55.5041 19.1937 55.5896Z" fill="black"/>
<path fill-rule="evenodd" clip-rule="evenodd" d="M11.0273 56.8817C10.9828 56.8656 10.934 56.8631 10.9149 56.8591C10.6928 56.8529 10.5331 56.9224 10.416 57.08C10.3233 57.2045 10.3694 57.3688 10.5022 57.4448C10.6885 57.5504 11.032 57.4633 11.1602 57.2523C11.2417 57.1186 11.2102 56.9496 11.0273 56.8817Z" fill="black"/>
<path fill-rule="evenodd" clip-rule="evenodd" d="M16.5736 57.6863C16.4618 57.786 16.4611 57.9652 16.5689 58.0665C16.657 58.1496 16.7605 58.1876 16.8695 58.182C17.0036 58.1786 17.1046 58.1357 17.1858 58.0504C17.2729 57.9581 17.2754 57.8055 17.1911 57.7128C17.0354 57.5439 16.7512 57.5275 16.5736 57.6863Z" fill="black"/>
<path fill-rule="evenodd" clip-rule="evenodd" d="M12.6287 54.2345C12.4785 54.102 12.2175 54.1174 12.0872 54.2579C12.0081 54.3423 12.0161 54.48 12.1014 54.5625C12.1665 54.6265 12.2475 54.645 12.3321 54.6611C12.4112 54.6709 12.5323 54.645 12.5999 54.5937C12.6361 54.5656 12.6654 54.5258 12.6907 54.4875C12.7232 54.4362 12.7241 54.3793 12.6941 54.3256C12.6762 54.2932 12.6561 54.2592 12.6287 54.2345Z" fill="black"/>
<path fill-rule="evenodd" clip-rule="evenodd" d="M13.2702 51.1391C13.0667 51.1366 12.9589 51.2997 12.9666 51.4091C12.9762 51.545 13.109 51.6565 13.2634 51.6578C13.4519 51.6636 13.5754 51.5049 13.5677 51.3878C13.5591 51.2531 13.4219 51.1407 13.2702 51.1391Z" fill="black"/>
<path fill-rule="evenodd" clip-rule="evenodd" d="M26.8272 49.5141C26.9236 49.5472 27.0401 49.5079 27.1046 49.4233C27.1494 49.3662 27.1565 49.3022 27.1253 49.237C27.0722 49.124 26.9783 49.0721 26.8538 49.0715C26.8353 49.0733 26.8158 49.0733 26.7973 49.0755C26.7086 49.0848 26.6376 49.1472 26.6163 49.2306C26.5971 49.3069 26.6323 49.41 26.7021 49.4548C26.7401 49.4792 26.784 49.4999 26.8272 49.5141Z" fill="black"/>
<path fill-rule="evenodd" clip-rule="evenodd" d="M25.2158 49.8289C25.2371 49.8005 25.2451 49.7628 25.259 49.7341C25.2491 49.6983 25.2473 49.6689 25.2352 49.6451C25.1747 49.5197 25.0539 49.4619 24.905 49.4814C24.8201 49.4925 24.7447 49.5577 24.7268 49.6389C24.7101 49.7196 24.736 49.7875 24.7938 49.8431C24.8426 49.891 24.9025 49.9191 24.9677 49.929C25.0694 49.9457 25.154 49.9123 25.2158 49.8289Z" fill="black"/>
<path fill-rule="evenodd" clip-rule="evenodd" d="M28.2444 49.8745C28.2929 49.8392 28.3121 49.7877 28.321 49.7175C28.313 49.6922 28.3074 49.6539 28.2895 49.6218C28.2179 49.4893 28.0301 49.4368 27.8985 49.5087C27.7774 49.5745 27.7508 49.7169 27.8426 49.8173C27.8731 49.8513 27.9124 49.88 27.9538 49.902C28.0535 49.9557 28.1524 49.9406 28.2444 49.8745Z" fill="black"/>
<path fill-rule="evenodd" clip-rule="evenodd" d="M28.6517 51.0234C28.6875 51.0333 28.7267 51.0355 28.7375 51.0367C28.8441 51.0367 28.9136 51.0123 28.9704 50.9536C29.0656 50.8542 29.0449 50.704 28.925 50.6376C28.8086 50.5724 28.6804 50.5796 28.5778 50.663C28.5154 50.7139 28.4833 50.7825 28.5025 50.8653C28.5213 50.9453 28.572 51.0003 28.6517 51.0234Z" fill="black"/>
<path fill-rule="evenodd" clip-rule="evenodd" d="M27.3802 51.0129C27.4228 51.0308 27.4713 51.033 27.4973 51.0373C27.5971 51.0355 27.6483 51.0176 27.7021 50.9722C27.8272 50.8678 27.8034 50.6917 27.6542 50.6237C27.5393 50.5709 27.4321 50.5904 27.3342 50.6629C27.2659 50.7127 27.2465 50.7847 27.2591 50.8653C27.2705 50.9382 27.3163 50.9864 27.3802 51.0129Z" fill="black"/>
<path fill-rule="evenodd" clip-rule="evenodd" d="M27.8559 52.8265C27.9044 52.769 27.9103 52.6757 27.8674 52.617C27.8318 52.5698 27.7889 52.5346 27.7327 52.5179C27.6589 52.4972 27.5826 52.4941 27.5106 52.5185C27.4673 52.5343 27.4253 52.5611 27.3935 52.5923C27.3209 52.6643 27.3268 52.7706 27.3994 52.8447C27.4639 52.9102 27.5436 52.9269 27.6518 52.9256C27.7216 52.925 27.7973 52.8969 27.8559 52.8265Z" fill="black"/>
<path fill-rule="evenodd" clip-rule="evenodd" d="M25.9398 48.8464C25.9901 48.8099 26.012 48.7602 26.0195 48.6802C26.0102 48.6536 26.0037 48.6039 25.9775 48.5665C25.8999 48.4559 25.7439 48.4167 25.621 48.4701C25.4931 48.5239 25.4539 48.6709 25.5363 48.7781C25.6398 48.9125 25.8079 48.9409 25.9398 48.8464Z" fill="black"/>
<path fill-rule="evenodd" clip-rule="evenodd" d="M24.5352 48.8675C24.6783 48.7925 24.6662 48.6136 24.5745 48.5305C24.5161 48.4771 24.4481 48.4465 24.3428 48.4477C24.3295 48.4505 24.2918 48.4539 24.2563 48.4666C24.1513 48.5042 24.092 48.625 24.1312 48.7196C24.1973 48.8789 24.3842 48.9463 24.5352 48.8675Z" fill="black"/>
<path fill-rule="evenodd" clip-rule="evenodd" d="M26.5118 51.8694C26.5526 51.8879 26.6011 51.8919 26.6369 51.8993C26.6755 51.8919 26.7033 51.8885 26.7299 51.882C26.804 51.8604 26.8599 51.7934 26.8658 51.7205C26.8711 51.6429 26.8297 51.5771 26.7568 51.5413C26.6641 51.4947 26.5736 51.5021 26.4893 51.5534C26.4303 51.5898 26.3981 51.6457 26.404 51.7183C26.408 51.7915 26.4488 51.8419 26.5118 51.8694Z" fill="black"/>
<path fill-rule="evenodd" clip-rule="evenodd" d="M28.7802 53.5437C28.8494 53.5085 28.887 53.4378 28.8793 53.359C28.8691 53.2617 28.7928 53.1965 28.6643 53.1913C28.6498 53.1937 28.609 53.1953 28.5766 53.2104C28.512 53.2376 28.4722 53.2864 28.4639 53.359C28.4555 53.4313 28.4833 53.4894 28.5414 53.5292C28.6149 53.5802 28.6965 53.587 28.7802 53.5437Z" fill="black"/>
<path fill-rule="evenodd" clip-rule="evenodd" d="M24.7024 46.3229C24.6143 46.263 24.5164 46.2605 24.4166 46.2763C24.4089 46.2769 24.4006 46.2843 24.3993 46.2908C24.3963 46.2988 24.3975 46.3127 24.4034 46.3171C24.454 46.3535 24.5047 46.3921 24.5717 46.3933C24.5983 46.3381 24.6548 46.3387 24.7024 46.3229Z" fill="black"/>
<path fill-rule="evenodd" clip-rule="evenodd" d="M29.9651 50.9756C29.9564 50.9722 29.9388 50.9852 29.9249 50.9904C29.9333 51.0022 29.9419 51.0142 29.949 51.0269C29.9731 51.0235 29.9975 51.021 30.0216 51.0182C30.0037 51.004 29.9855 50.9855 29.9651 50.9756Z" fill="black"/>
<path d="M44.1845 58.3877V55.7482H45.9391V55.3522H43.7505V58.3877H44.1845ZM47.1027 57.904C47.3742 58.2747 47.748 58.4634 48.2302 58.4634C48.6583 58.4634 49.0142 58.3062 49.2854 57.9982C49.5569 57.6902 49.6956 57.3131 49.6956 56.867C49.6956 56.4272 49.5569 56.05 49.2854 55.742C49.0142 55.434 48.6583 55.2768 48.2302 55.2768C47.748 55.2768 47.3742 55.4655 47.1027 55.8362V55.3522H46.6687V59.645H47.1027V57.904ZM47.1027 56.3703C47.2775 55.9746 47.6877 55.6855 48.1279 55.6855C48.4473 55.6855 48.7189 55.7985 48.9298 56.0247C49.1408 56.2511 49.2492 56.5337 49.2492 56.867C49.2492 57.2 49.1408 57.483 48.9298 57.7153C48.7189 57.9417 48.4473 58.0548 48.1279 58.0548C47.6877 58.0548 47.2717 57.7721 47.1027 57.3696V56.3703ZM50.5877 59.67C51.022 59.67 51.3717 59.3558 51.6309 58.7272L53.0719 55.3522H52.6018L51.6009 57.7406L50.5698 55.3522H50.0873L51.3838 58.2747C51.1125 58.9598 50.8833 59.2616 50.5216 59.2616C50.3829 59.2616 50.2501 59.2301 50.1234 59.1609V59.582C50.2201 59.6385 50.3767 59.67 50.5877 59.67ZM54.2056 58.3877V55.7482H55.954V58.3877H56.3883V55.3522H53.7713V58.3877H54.2056ZM57.8472 58.3877V55.7482H59.5959V58.3877H60.0299V55.3522H57.4132V58.3877H57.8472ZM62.0378 58.0548C61.5855 58.0548 61.2417 57.841 61.2417 57.4326C61.2417 57.0555 61.5735 56.8229 62.1042 56.8229C62.4356 56.8229 62.7553 56.9236 63.0507 57.1246V57.5457C62.8397 57.8221 62.4539 58.0548 62.0378 58.0548ZM61.917 58.4634C62.4057 58.4634 62.7974 58.2874 63.093 57.929C63.1412 58.2558 63.358 58.4131 63.6416 58.4131C63.7741 58.4131 63.8708 58.3877 63.931 58.3439V57.992C63.8828 58.0171 63.8285 58.0297 63.7621 58.0297C63.5934 58.0297 63.4847 57.8852 63.4847 57.6526V56.4018C63.4847 55.6666 62.9602 55.2768 62.1823 55.2768C61.7666 55.2768 61.4227 55.371 61.1395 55.5536V55.9935C61.4348 55.7859 61.7483 55.6855 62.0921 55.6855C62.7312 55.6855 63.0507 55.9369 63.0507 56.446V56.7475C62.7313 56.5529 62.3813 56.4522 62.0016 56.4522C61.6578 56.4522 61.3746 56.5402 61.1454 56.7225C60.9223 56.9047 60.8077 57.1497 60.8077 57.4576C60.8077 57.7721 60.9161 58.0171 61.1274 58.1993C61.3443 58.3754 61.6096 58.4634 61.917 58.4634ZM66.2283 55.3522V58.3877H66.6623V56.892L68.2359 58.3877H68.8571L67.1025 56.7225L68.6399 55.3522H68.049L66.6623 56.6029V55.3522H66.2283ZM69.5203 55.7482C69.2247 56.0562 69.0801 56.4333 69.0801 56.8732C69.0801 57.3131 69.2247 57.6902 69.5203 57.9982C69.8156 58.3062 70.1894 58.4634 70.6537 58.4634C71.1179 58.4634 71.492 58.3062 71.7873 57.9982C72.0826 57.6902 72.2275 57.3131 72.2275 56.8732C72.2275 56.4333 72.0826 56.0562 71.7873 55.7482C71.492 55.434 71.1179 55.2768 70.6537 55.2768C70.1894 55.2768 69.8156 55.434 69.5203 55.7482ZM71.7811 56.8732C71.7811 57.2062 71.6727 57.4892 71.4617 57.7153C71.2508 57.9417 70.9792 58.0548 70.6537 58.0548C70.3281 58.0548 70.0568 57.9417 69.8459 57.7153C69.6349 57.4892 69.5262 57.2062 69.5262 56.8732C69.5262 56.5337 69.6349 56.2511 69.8459 56.0247C70.0568 55.7985 70.3281 55.6855 70.6537 55.6855C70.9792 55.6855 71.2508 55.7985 71.4617 56.0247C71.6727 56.2511 71.7811 56.5337 71.7811 56.8732ZM73.4575 58.3877V55.9746L74.5368 57.2881H74.7055L75.791 55.9746V58.3877H76.2129V55.3522H75.791L74.6212 56.7601L73.4575 55.3522H73.0353V58.3877H73.4575ZM77.6719 58.3877V55.7482H79.4206V58.3877H79.8546V55.3522H77.2379V58.3877H77.6719ZM81.8624 58.0548C81.4102 58.0548 81.0667 57.841 81.0667 57.4326C81.0667 57.0555 81.3982 56.8229 81.9289 56.8229C82.2603 56.8229 82.58 56.9236 82.8753 57.1246V57.5457C82.6644 57.8221 82.2785 58.0548 81.8624 58.0548ZM81.742 58.4634C82.2304 58.4634 82.622 58.2874 82.9177 57.929C82.9658 58.2558 83.183 58.4131 83.4663 58.4131C83.5991 58.4131 83.6955 58.3877 83.7557 58.3439V57.992C83.7075 58.0171 83.6531 58.0297 83.5867 58.0297C83.4181 58.0297 83.3097 57.8852 83.3097 57.6526V56.4018C83.3097 55.6666 82.7848 55.2768 82.0073 55.2768C81.5912 55.2768 81.2474 55.371 80.9642 55.5536V55.9935C81.2595 55.7859 81.573 55.6855 81.9168 55.6855C82.5559 55.6855 82.8753 55.9369 82.8753 56.446V56.7475C82.5559 56.5529 82.2063 56.4522 81.8263 56.4522C81.4825 56.4522 81.1992 56.5402 80.97 56.7225C80.747 56.9047 80.6324 57.1497 80.6324 57.4576C80.6324 57.7721 80.7411 58.0171 80.9521 58.1993C81.169 58.3754 81.4343 58.4634 81.742 58.4634ZM84.8952 58.3877V57.0366H86.6859V58.3877H87.1203V55.3522H86.6859V56.6282H84.8952V55.3522H84.4612V58.3877H84.8952ZM88.5492 58.3877L90.4122 56.0247V58.3877H90.8462V55.3522H90.4425L88.5792 57.7218V55.3522H88.1452V58.3877H88.5492ZM92.2752 58.3877L94.1385 56.0247V58.3877H94.5725V55.3522H94.1685L92.3055 57.7218V55.3522H91.8712V58.3877H92.2752ZM93.2279 54.8369C93.7827 54.8369 94.1926 54.4598 94.1987 53.8818H93.8188C93.8129 54.2275 93.5775 54.4724 93.222 54.4724C92.8603 54.4724 92.6249 54.2275 92.6249 53.8818H92.2391C92.2452 54.4598 92.6431 54.8369 93.2279 54.8369Z" fill="black"/>
<path d="M53.3827 38.9605V50.7343H51.8073V41.7221L45.1841 50.7343H43.7341V38.9605H45.3092V47.805L51.8789 38.9605H53.3827ZM58.9318 41.1436C59.624 41.1436 60.2505 41.265 60.8114 41.5074C61.3724 41.7499 61.8497 42.0891 62.2435 42.5243C62.6374 42.9599 62.9385 43.473 63.1474 44.0639C63.3562 44.6545 63.4606 45.3048 63.4606 46.0137C63.4606 46.6108 63.3623 47.2017 63.1653 47.7862C62.9685 48.3709 62.6791 48.8936 62.2973 49.3535C61.9152 49.8138 61.4469 50.187 60.8921 50.4733C60.337 50.7593 59.6957 50.9024 58.9676 50.9024C58.6692 50.9024 58.3501 50.8869 58.01 50.8557C57.6699 50.8245 57.3984 50.7841 57.1954 50.7343V53.9253H55.5308V42.0767C55.8051 41.9025 56.0945 41.7564 56.3988 41.6381C56.7031 41.5198 57.0045 41.4234 57.3029 41.349C57.601 41.2742 57.8905 41.2214 58.171 41.1902C58.4514 41.1593 58.705 41.1436 58.9318 41.1436ZM61.9213 45.7338C61.9213 45.2362 61.8228 44.804 61.626 44.4371C61.4289 44.0701 61.1753 43.7714 60.8652 43.5412C60.5547 43.3111 60.1998 43.1403 59.8001 43.0282C59.4001 42.9163 58.9976 42.8604 58.5917 42.8604C58.1382 42.8604 57.6727 42.9472 57.1954 43.1215V48.9804C57.3984 49.0301 57.631 49.0644 57.8936 49.0832C58.1561 49.1018 58.3887 49.1111 58.5917 49.1111C59.1048 49.1111 59.5672 49.0459 59.979 48.9152C60.3907 48.7845 60.7398 48.5825 61.0261 48.3088C61.3125 48.0351 61.5334 47.6867 61.6884 47.2638C61.8438 46.8409 61.9213 46.3309 61.9213 45.7338ZM83.7424 41.3675V50.6973H82.1312V44.1665L77.3519 50.7158H75.8482V41.3675H77.4591V47.8983L82.2387 41.3675H83.7424ZM94.5185 47.5996C94.3513 48.0849 94.1218 48.5297 93.8293 48.9337C93.5371 49.3381 93.1939 49.6865 92.8 49.9788C92.4062 50.271 91.9737 50.498 91.5023 50.6599C91.031 50.8214 90.5447 50.9024 90.0434 50.9024C89.4108 50.9024 88.8112 50.7748 88.2444 50.52C87.6775 50.2648 87.1793 49.9198 86.7496 49.4842C86.3199 49.049 85.9798 48.5328 85.7293 47.9357C85.4788 47.3386 85.3534 46.7041 85.3534 46.0322C85.3534 45.373 85.4788 44.7447 85.7293 44.1476C85.9798 43.5508 86.3199 43.0251 86.7496 42.571C87.1793 42.1169 87.6806 41.7564 88.2533 41.4889C88.826 41.2214 89.4407 41.0876 90.0972 41.0876C90.6102 41.0876 91.1026 41.1717 91.574 41.3397C92.0454 41.5074 92.472 41.7407 92.8538 42.0394C93.2356 42.3378 93.5757 42.6955 93.8741 43.1122C94.1725 43.5289 94.4113 43.9861 94.5901 44.4837H92.8C92.5375 43.961 92.1646 43.5508 91.6812 43.2521C91.1981 42.9537 90.6699 42.8042 90.0972 42.8042C89.6913 42.8042 89.3005 42.8882 88.9246 43.0563C88.5486 43.224 88.2175 43.451 87.9311 43.7374C87.6448 44.0234 87.415 44.3654 87.242 44.7636C87.069 45.1617 86.9825 45.5846 86.9825 46.0322C86.9825 46.4428 87.06 46.8409 87.2151 47.2264C87.3702 47.6123 87.588 47.9511 87.8684 48.2433C88.1489 48.5359 88.4742 48.7691 88.844 48.9433C89.214 49.1172 89.6137 49.2043 90.0434 49.2043C90.5803 49.2043 91.0965 49.0582 91.5919 48.766C92.0871 48.4735 92.472 48.0849 92.7463 47.5996H94.5185Z" fill="black"/>
<path d="M69.7608 41C71.0443 41 72.2067 41.5425 73.0482 42.4194C73.8896 43.2964 74.4098 44.5079 74.4098 45.8461C74.4098 47.1842 73.8896 48.3958 73.0482 49.2727C72.2067 50.1497 71.0443 50.6924 69.7608 50.6924C68.4771 50.6924 67.3147 50.1497 66.4735 49.2727C65.6321 48.3958 65.1116 47.1842 65.1116 45.8461C65.1116 44.5079 65.6321 43.2964 66.4735 42.4194C67.3147 41.5425 68.4771 41 69.7608 41ZM71.9229 43.5927C71.3696 43.0159 70.6051 42.6592 69.7608 42.6592C68.9163 42.6592 68.1521 43.0159 67.5988 43.5927C67.0456 44.1691 66.7033 44.966 66.7033 45.8461C66.7033 46.7261 67.0456 47.5231 67.5988 48.0995C68.1521 48.6762 68.9163 49.033 69.7608 49.033C70.6051 49.033 71.3696 48.6762 71.9229 48.0995C72.4758 47.5231 72.818 46.7261 72.818 45.8461C72.818 44.966 72.4758 44.1694 71.9229 43.5927Z" fill="black"/>
<path d="M65.1304 45.6786C65.1035 44.9005 65.1514 44.3176 65.3024 43.4616C65.8239 40.5879 67.8604 38.9238 70.5476 38.53V38.5297C71.4591 38.3613 72.0374 38.1785 72.4269 37.9959C72.768 37.8359 72.953 37.6787 73.1 37.5347L74.1886 38.737C73.9372 38.9835 73.6255 39.2497 73.0784 39.5064C72.5792 39.7403 71.8768 39.9676 70.8219 40.1625L70.7929 40.1666C69.148 40.4032 68.3118 40.9045 67.9778 41.5579C67.4292 42.1228 67.2278 42.5677 67.1531 42.9807L66.7527 44.9474L65.1304 45.6786Z" fill="black"/>
<path d="M44.1245 62.4398V63.1015H44.3707C44.4272 63.1015 44.4757 63.0789 44.5168 63.0338C44.5572 62.9887 44.5965 62.9177 44.6332 62.8216C44.6706 62.7252 44.708 62.598 44.7454 62.4398H44.957C44.9054 62.6703 44.8492 62.8442 44.7864 62.9619C44.7244 63.0802 44.6468 63.1543 44.5535 63.1843C44.6212 63.2084 44.6771 63.2411 44.7219 63.2819C44.7661 63.323 44.8047 63.3739 44.8371 63.4357C44.8692 63.4975 44.8977 63.5719 44.9224 63.6591C44.9468 63.7462 44.9743 63.8484 45.0045 63.9661H44.7908C44.7296 63.7354 44.6814 63.5809 44.6462 63.5027C44.6107 63.4249 44.5702 63.3687 44.5242 63.3338C44.4782 63.2989 44.4198 63.2816 44.3497 63.2816H44.1245V63.9661H43.9203V62.4398H44.1245ZM45.1531 63.9661L45.6745 62.4398H45.9393L46.461 63.9661H46.246L46.1135 63.5689H45.4917L45.3616 63.9661H45.1531ZM45.5535 63.3838H46.0496L45.8015 62.6403L45.5535 63.3838ZM46.9688 63.0762H47.2487C47.4532 63.0762 47.6009 63.1101 47.6911 63.1775C47.7816 63.2454 47.8267 63.356 47.8267 63.5095C47.8267 63.6705 47.7763 63.7869 47.6753 63.8586C47.574 63.9303 47.4356 63.9661 47.2601 63.9661H46.7647V62.4398H47.734V62.6128H46.9688V63.0762ZM47.6138 63.5142C47.6138 63.4509 47.6009 63.3996 47.5749 63.361C47.549 63.3217 47.511 63.2936 47.4606 63.276C47.4106 63.2593 47.3324 63.2507 47.2258 63.2507H46.9688V63.7872H47.1829C47.3003 63.7872 47.3874 63.7783 47.4433 63.7598C47.4998 63.7415 47.5425 63.7128 47.5709 63.6733C47.5996 63.634 47.6138 63.5809 47.6138 63.5142ZM48.1782 63.9661V62.4398H49.1114V62.6242H48.3824V63.0697H49.0054V63.2547H48.3824V63.7808H49.1114V63.9661H48.1782ZM49.9016 62.6174V62.7101C49.9016 63.0981 49.8592 63.4076 49.7737 63.6377C49.6887 63.8685 49.5689 63.9837 49.4153 63.9837C49.3675 63.9837 49.3224 63.9763 49.2797 63.9615L49.3162 63.7987C49.3326 63.8049 49.3489 63.8083 49.3656 63.8083C49.4774 63.8083 49.5608 63.7063 49.6155 63.5024C49.6705 63.2983 49.6977 63.0082 49.6977 62.6316V62.4398H50.5357V63.9661H50.3331V62.6174H49.9016ZM50.9843 63.9661V62.4398H51.1884V63.0243H51.4386C51.6416 63.0243 51.7892 63.0629 51.881 63.1395C51.9727 63.2164 52.0188 63.339 52.0188 63.5074C52.0188 63.6683 51.9693 63.7851 51.8711 63.8574C51.7726 63.93 51.6308 63.9661 51.4454 63.9661H50.9843ZM51.805 63.5049C51.805 63.428 51.793 63.3681 51.7686 63.3254C51.7445 63.2828 51.7055 63.2516 51.6521 63.2322C51.599 63.213 51.5171 63.2031 51.4068 63.2031H51.1884V63.7872H51.4365C51.5526 63.7872 51.6431 63.7659 51.7077 63.723C51.7726 63.6801 51.805 63.6075 51.805 63.5049ZM52.3459 64.2889C52.3734 64.2555 52.3956 64.2092 52.4126 64.1508C52.4299 64.0921 52.4386 64.0362 52.4386 63.9815C52.3953 63.9815 52.3644 63.9717 52.3456 63.9522C52.3267 63.933 52.3175 63.9012 52.3175 63.858C52.3175 63.8166 52.3277 63.7857 52.348 63.7647C52.3678 63.744 52.4021 63.7335 52.45 63.7335C52.4985 63.7335 52.5331 63.7459 52.5538 63.7709C52.5748 63.7959 52.5853 63.832 52.5853 63.8799C52.5853 63.9707 52.572 64.0526 52.5451 64.1264C52.5186 64.2006 52.4905 64.2549 52.462 64.2889H52.3459ZM54.7763 63.9661V62.7015L54.3537 63.5506H54.2271L53.8092 62.7015V63.9661H53.6149V62.4398H53.891L54.2957 63.2701L54.7034 62.4398H54.9703V63.9661H54.7763ZM55.2746 63.9661L55.796 62.4398H56.0607L56.5825 63.9661H56.3675L56.235 63.5689H55.6131L55.4831 63.9661H55.2746ZM55.6749 63.3838H56.171L55.923 62.6403L55.6749 63.3838ZM57.2593 62.6242V63.9661H57.0563V62.6242H56.55V62.4398H57.7656V62.6242H57.2593ZM58.0584 63.9661V62.4398H58.9916V62.6242H58.2626V63.0697H58.8856V63.2547H58.2626V63.7808H58.9916V63.9661H58.0584ZM60.3708 62.9273C60.3708 63.1111 60.3276 63.2442 60.2414 63.3257C60.1549 63.4079 60.015 63.449 59.8207 63.449H59.5813V63.9661H59.3771V62.4398H59.8293C60.0196 62.4398 60.1574 62.4794 60.243 62.5581C60.3285 62.6366 60.3708 62.7598 60.3708 62.9273ZM60.1568 62.9319C60.1568 62.8253 60.1305 62.7472 60.0777 62.6981C60.0246 62.6486 59.9344 62.6242 59.8065 62.6242H59.5813V63.2637H59.7777C59.8849 63.2637 59.9634 63.2532 60.0131 63.2322C60.0626 63.2115 60.0993 63.1775 60.1222 63.1308C60.1453 63.0842 60.1568 63.0175 60.1568 62.9319ZM60.7279 63.9661V62.4398H60.9222V63.6992L61.5663 62.4398H61.8594V63.9661H61.6654V62.6496L60.984 63.9661H60.7279ZM62.1646 63.9661L62.6861 62.4398H62.9508L63.4725 63.9661H63.2575L63.125 63.5689H62.5032L62.3731 63.9661H62.1646ZM62.565 63.3838H63.0611L62.813 62.6403L62.565 63.3838ZM64.2151 62.6174V62.7101C64.2151 63.0981 64.1728 63.4076 64.0872 63.6377C64.0023 63.8685 63.8824 63.9837 63.7289 63.9837C63.681 63.9837 63.6359 63.9763 63.5933 63.9615L63.6297 63.7987C63.6461 63.8049 63.6625 63.8083 63.6792 63.8083C63.791 63.8083 63.8744 63.7063 63.9291 63.5024C63.9841 63.2983 64.0112 63.0082 64.0112 62.6316V62.4398H64.8493V63.9661H64.6466V62.6174H64.2151ZM66.5838 62.4398H66.7867V63.9661H66.5838V62.4398ZM65.2978 63.9661V62.4398H65.502V63.0243H65.7522C65.9552 63.0243 66.1028 63.0629 66.1946 63.1395C66.2863 63.2164 66.3323 63.339 66.3323 63.5074C66.3323 63.6683 66.2829 63.7851 66.1847 63.8574C66.0861 63.93 65.9443 63.9661 65.759 63.9661H65.2978ZM66.1186 63.5049C66.1186 63.428 66.1065 63.3681 66.0821 63.3254C66.058 63.2828 66.0191 63.2516 65.9657 63.2322C65.9125 63.213 65.8307 63.2031 65.7204 63.2031H65.502V63.7872H65.7501C65.8662 63.7872 65.9567 63.7659 66.0213 63.723C66.0861 63.6801 66.1186 63.6075 66.1186 63.5049ZM67.8447 63.9661V62.4398H68.039V63.6992L68.6831 62.4398H68.9762V63.9661H68.7822V62.6496L68.1008 63.9661H67.8447ZM71.2077 63.2031C71.2077 63.4771 71.1561 63.6782 71.053 63.8061C70.9495 63.934 70.7944 63.9982 70.5871 63.9982C70.3765 63.9982 70.2208 63.9331 70.1188 63.8027C70.0172 63.673 69.9662 63.4728 69.9662 63.2031C69.9662 62.9356 70.0163 62.7361 70.1173 62.6048C70.218 62.4738 70.3746 62.4077 70.5871 62.4077C70.7966 62.4077 70.9526 62.4723 71.0545 62.6011C71.1568 62.7296 71.2077 62.9304 71.2077 63.2031ZM70.994 63.2031C70.994 62.9921 70.9621 62.8368 70.8985 62.7376C70.8352 62.6384 70.7311 62.589 70.5871 62.589C70.4429 62.589 70.3391 62.6384 70.2755 62.7376C70.2118 62.8368 70.18 62.9921 70.18 63.2031C70.18 63.4153 70.2121 63.571 70.2764 63.6696C70.3409 63.7681 70.4444 63.8169 70.5871 63.8169C70.7289 63.8169 70.8321 63.7684 70.8967 63.6705C70.9615 63.5729 70.994 63.4169 70.994 63.2031ZM71.7909 63.0762H72.0708C72.2753 63.0762 72.4229 63.1101 72.5131 63.1775C72.6036 63.2454 72.6487 63.356 72.6487 63.5095C72.6487 63.6705 72.5984 63.7869 72.4974 63.8586C72.3961 63.9303 72.2577 63.9661 72.0822 63.9661H71.5867V62.4398H72.5561V62.6128H71.7909V63.0762ZM72.4359 63.5142C72.4359 63.4509 72.4229 63.3996 72.397 63.361C72.371 63.3217 72.3331 63.2936 72.2827 63.276C72.2327 63.2593 72.1545 63.2507 72.0479 63.2507H71.7909V63.7872H72.005C72.1224 63.7872 72.2095 63.7783 72.2654 63.7598C72.3219 63.7415 72.3646 63.7128 72.393 63.6733C72.4217 63.634 72.4359 63.5809 72.4359 63.5142ZM74.1726 63.2031C74.1726 63.4771 74.121 63.6782 74.0178 63.8061C73.9143 63.934 73.7592 63.9982 73.552 63.9982C73.3413 63.9982 73.1856 63.9331 73.0837 63.8027C72.9821 63.673 72.9311 63.4728 72.9311 63.2031C72.9311 62.9356 72.9811 62.7361 73.0821 62.6048C73.1828 62.4738 73.3394 62.4077 73.552 62.4077C73.7614 62.4077 73.9174 62.4723 74.0193 62.6011C74.1216 62.7296 74.1726 62.9304 74.1726 63.2031ZM73.9588 63.2031C73.9588 62.9921 73.927 62.8368 73.8633 62.7376C73.8 62.6384 73.6959 62.589 73.552 62.589C73.4077 62.589 73.3039 62.6384 73.2403 62.7376C73.1767 62.8368 73.1448 62.9921 73.1448 63.2031C73.1448 63.4153 73.177 63.571 73.2412 63.6696C73.3058 63.7681 73.4093 63.8169 73.552 63.8169C73.6938 63.8169 73.7969 63.7684 73.8615 63.6705C73.9264 63.5729 73.9588 63.4169 73.9588 63.2031ZM75.5453 62.9273C75.5453 63.1111 75.5021 63.2442 75.4159 63.3257C75.3294 63.4079 75.1895 63.449 74.9952 63.449H74.7558V63.9661H74.5516V62.4398H75.0038C75.1941 62.4398 75.3319 62.4794 75.4174 62.5581C75.503 62.6366 75.5453 62.7598 75.5453 62.9273ZM75.3312 62.9319C75.3312 62.8253 75.305 62.7472 75.2522 62.6981C75.199 62.6486 75.1088 62.6242 74.981 62.6242H74.7558V63.2637H74.9522C75.0594 63.2637 75.1379 63.2532 75.1876 63.2322C75.237 63.2115 75.2738 63.1775 75.2966 63.1308C75.3198 63.0842 75.3312 63.0175 75.3312 62.9319ZM76.379 63.3517L76.7769 62.4398H76.9867L76.4155 63.7267C76.375 63.82 76.3225 63.8886 76.2583 63.9327C76.194 63.9763 76.1084 63.9982 76.0019 63.9982C75.9305 63.9982 75.8564 63.9853 75.7792 63.9593L75.8419 63.7897C75.865 63.8008 75.8928 63.8092 75.9259 63.8151C75.9589 63.8209 75.9883 63.8237 76.0139 63.8237C76.1205 63.8237 76.1949 63.7712 76.2366 63.6662L76.2666 63.5936L75.7582 62.4398H75.9775L76.379 63.3517ZM76.9622 64.2552V63.7872H77.0904C77.1411 63.6906 77.1877 63.5679 77.2307 63.4203C77.2739 63.2723 77.307 63.1169 77.3308 62.9538C77.3542 62.7907 77.3666 62.6193 77.3681 62.4398H78.1654V63.7872H78.3508V64.2552H78.1521V63.9661H77.1606V64.2552H76.9622ZM77.9625 62.6174H77.5668C77.5556 62.8327 77.5254 63.0465 77.4756 63.2581C77.4259 63.47 77.3638 63.6461 77.2897 63.7872H77.9625V62.6174ZM79.8007 63.2031C79.8007 63.4771 79.7492 63.6782 79.646 63.8061C79.5425 63.934 79.3874 63.9982 79.1802 63.9982C78.9695 63.9982 78.8138 63.9331 78.7119 63.8027C78.6102 63.673 78.5593 63.4728 78.5593 63.2031C78.5593 62.9356 78.6093 62.7361 78.7103 62.6048C78.811 62.4738 78.9676 62.4077 79.1802 62.4077C79.3896 62.4077 79.5456 62.4723 79.6475 62.6011C79.7498 62.7296 79.8007 62.9304 79.8007 63.2031ZM79.587 63.2031C79.587 62.9921 79.5552 62.8368 79.4915 62.7376C79.4282 62.6384 79.3241 62.589 79.1802 62.589C79.0359 62.589 78.9321 62.6384 78.8685 62.7376C78.8048 62.8368 78.773 62.9921 78.773 63.2031C78.773 63.4153 78.8051 63.571 78.8694 63.6696C78.934 63.7681 79.0374 63.8169 79.1802 63.8169C79.3219 63.8169 79.4251 63.7684 79.4897 63.6705C79.5545 63.5729 79.587 63.4169 79.587 63.2031ZM81.2554 63.5182C81.2554 63.6751 81.2053 63.7888 81.1052 63.8595C81.0055 63.9306 80.8627 63.9661 80.6771 63.9661H80.1798V62.4398H80.632C80.8189 62.4398 80.9533 62.4664 81.0364 62.5201C81.1191 62.573 81.1605 62.6622 81.1605 62.7873C81.1605 62.8896 81.138 62.9674 81.0926 63.0209C81.0472 63.0749 80.9909 63.1117 80.9233 63.1324C81.0237 63.1463 81.1043 63.1837 81.1645 63.2439C81.2251 63.3041 81.2554 63.3956 81.2554 63.5182ZM80.9508 62.8324C80.9508 62.7546 80.9267 62.6996 80.8782 62.6675C80.8297 62.6357 80.7429 62.6196 80.6187 62.6196H80.384V63.074H80.6091C80.7308 63.074 80.8183 63.0545 80.8714 63.0156C80.9245 62.9767 80.9508 62.9155 80.9508 62.8324ZM81.0435 63.5095C81.0435 63.4462 81.0308 63.3965 81.0064 63.36C80.982 63.3236 80.944 63.2973 80.8924 63.2803C80.8408 63.2634 80.7577 63.2547 80.6431 63.2547H80.384V63.7808H80.5912C80.7207 63.7808 80.8146 63.7721 80.8726 63.7548C80.9304 63.7375 80.9736 63.7094 81.0014 63.6699C81.0295 63.6306 81.0435 63.5772 81.0435 63.5095ZM81.4855 63.9661L82.0069 62.4398H82.2716L82.7934 63.9661H82.5784L82.4459 63.5689H81.8241L81.694 63.9661H81.4855ZM81.8858 63.3838H82.3819L82.1339 62.6403L81.8858 63.3838ZM83.9959 63.9661V63.2683H83.3012V63.9661H83.097V62.4398H83.3012V63.0826H83.9959V62.4398H84.2001V63.9661H83.9959ZM84.6483 63.9661V62.4398H84.8426V63.6992L85.4867 62.4398H85.7798V63.9661H85.5858V62.6496L84.9044 63.9661H84.6483ZM86.2293 63.9661V62.4398H87.1625V62.6242H86.4335V63.0697H87.0565V63.2547H86.4335V63.7808H87.1625V63.9661H86.2293ZM89.3282 63.6992C89.2797 63.7771 89.23 63.8364 89.1799 63.8762C89.1293 63.9164 89.0706 63.9466 89.0035 63.9673C88.9371 63.988 88.8584 63.9982 88.7675 63.9982C88.5393 63.9982 88.3706 63.9321 88.2622 63.8002C88.1538 63.668 88.0997 63.4694 88.0997 63.2031C88.0997 62.9378 88.1534 62.7385 88.2609 62.6066C88.3687 62.4741 88.5346 62.4077 88.7589 62.4077C88.8479 62.4077 88.9272 62.4191 88.9974 62.4411C89.0669 62.4633 89.1259 62.4933 89.1741 62.5322C89.2222 62.5705 89.2664 62.6249 89.306 62.6947L89.1385 62.8049C89.1061 62.7503 89.0733 62.7092 89.0403 62.6808C89.0069 62.6523 88.9674 62.6304 88.9214 62.6137C88.875 62.5971 88.8207 62.589 88.7589 62.589C88.6063 62.589 88.4935 62.6397 88.4222 62.7416C88.3502 62.8432 88.3144 62.9974 88.3144 63.2031C88.3144 63.4061 88.3499 63.559 88.4203 63.6625C88.4911 63.7656 88.6047 63.8169 88.7614 63.8169C88.8478 63.8169 88.9232 63.8002 88.9872 63.7659C89.0511 63.7316 89.1086 63.673 89.1592 63.5889L89.3282 63.6992ZM90.7374 63.5182C90.7374 63.6751 90.6874 63.7888 90.5873 63.8595C90.4875 63.9306 90.3448 63.9661 90.1591 63.9661H89.6618V62.4398H90.114C90.3009 62.4398 90.4353 62.4664 90.5184 62.5201C90.6012 62.573 90.6426 62.6622 90.6426 62.7873C90.6426 62.8896 90.62 62.9674 90.5746 63.0209C90.5292 63.0749 90.473 63.1117 90.4053 63.1324C90.5057 63.1463 90.5863 63.1837 90.6466 63.2439C90.7071 63.3041 90.7374 63.3956 90.7374 63.5182ZM90.4328 62.8324C90.4328 62.7546 90.4087 62.6996 90.3602 62.6675C90.3117 62.6357 90.2249 62.6196 90.1008 62.6196H89.866V63.074H90.0912C90.2129 63.074 90.3003 63.0545 90.3534 63.0156C90.4066 62.9767 90.4328 62.9155 90.4328 62.8324ZM90.5255 63.5095C90.5255 63.4462 90.5128 63.3965 90.4884 63.36C90.464 63.3236 90.426 63.2973 90.3744 63.2803C90.3229 63.2634 90.2398 63.2547 90.1252 63.2547H89.866V63.7808H90.0733C90.2027 63.7808 90.2966 63.7721 90.3547 63.7548C90.4124 63.7375 90.4557 63.7094 90.4835 63.6699C90.5116 63.6306 90.5255 63.5772 90.5255 63.5095ZM90.9765 63.9661L91.3901 63.3112C91.2777 63.2868 91.1958 63.238 91.1452 63.1654C91.0942 63.0928 91.0692 62.994 91.0692 62.8689C91.0692 62.7234 91.1099 62.6156 91.1924 62.5452C91.2749 62.4753 91.4108 62.4398 91.6005 62.4398H92.0746V63.9661H91.8708V63.343H91.6051L91.2159 63.9661H90.9765ZM91.2798 62.8843C91.2798 62.9915 91.3052 63.0647 91.3561 63.1036C91.4074 63.1429 91.4939 63.162 91.6159 63.162H91.8708V62.6196H91.6026C91.4896 62.6196 91.4074 62.6384 91.3561 62.6764C91.3052 62.7141 91.2798 62.7833 91.2798 62.8843ZM92.5324 63.6297C92.572 63.6887 92.6248 63.7357 92.6915 63.7709C92.7582 63.8061 92.8287 63.8237 92.9028 63.8237C93.1496 63.8237 93.2732 63.7245 93.2732 63.5262C93.2732 63.4428 93.2488 63.3776 93.199 63.3304C93.1493 63.2828 93.0718 63.2593 92.9667 63.2593H92.6798V63.0826H92.9525C93.0474 63.0826 93.1206 63.0638 93.1731 63.0255C93.2253 62.9872 93.2512 62.9223 93.2512 62.8303C93.2512 62.7487 93.225 62.6866 93.1719 62.6437C93.1187 62.6014 93.0449 62.5798 92.9501 62.5798C92.8738 62.5798 92.8027 62.5903 92.7375 62.6116C92.672 62.6326 92.6075 62.6718 92.5445 62.729L92.4221 62.5723C92.4808 62.5229 92.5513 62.4834 92.6331 62.4531C92.715 62.4228 92.8228 62.4077 92.9569 62.4077C93.1175 62.4077 93.2429 62.4438 93.3328 62.5158C93.4224 62.5881 93.4672 62.6928 93.4672 62.8303C93.4672 63.0002 93.3884 63.1145 93.2302 63.1735C93.318 63.2019 93.3822 63.251 93.4236 63.3199C93.4653 63.3891 93.486 63.4635 93.486 63.5438C93.486 63.6288 93.4628 63.7063 93.4162 63.7761C93.3696 63.8453 93.3025 63.9 93.2148 63.9389C93.1274 63.9785 93.0223 63.9982 92.9003 63.9982C92.7863 63.9982 92.6841 63.9778 92.593 63.9368C92.5018 63.896 92.428 63.8323 92.3724 63.7468L92.5324 63.6297ZM93.8595 63.9661V62.4398H94.0538V63.6992L94.6978 62.4398H94.991V63.9661H94.797V62.6496L94.1155 63.9661H93.8595Z" fill="black"/>
<path d="M94.9999 60.5028H43.8131V60.7116H94.9999V60.5028Z" fill="black"/>
</svg>
