<svg width="128" height="128" viewBox="0 0 128 128" fill="none" xmlns="http://www.w3.org/2000/svg">
<path d="M12.8945 49.4213C11.6431 50.4372 10.5824 51.326 10.5347 51.3838C10.4871 51.4761 11.1902 51.5107 12.8468 51.5107H15.2424V49.5483C15.2424 48.4632 15.2305 47.5858 15.2066 47.5858C15.1828 47.5858 14.1459 48.417 12.8945 49.4213Z" fill="#5852B0"/>
<path d="M21.9225 54.4691C19.5157 54.9981 17.8429 56.0323 16.8441 57.5955C16.4469 58.2328 16.0257 59.4954 16.0257 60.0846V60.4934H18.5409C21.0561 60.4934 21.0681 60.4934 21.1403 60.2168C21.393 59.2669 21.5495 58.9422 21.9827 58.4973C22.5363 57.9201 23.2945 57.6436 24.6303 57.5353C25.6411 57.4512 26.7964 57.6917 27.4583 58.1366C28.0721 58.5334 28.4211 59.2909 28.4211 60.1808C28.4211 61.8522 27.3982 62.4053 23.5472 62.8382C18.8899 63.3553 17.0847 64.1489 15.9054 66.2051L15.4962 66.9266L15.412 66.5658C15.3638 66.3614 15.3277 63.6198 15.3157 60.4573L15.3037 54.7216H12.7163H10.141L10.1289 65.2431C10.1289 73.1192 10.0928 75.8248 9.98451 76.0051C9.90027 76.1254 9.63551 76.3418 9.37076 76.4861C8.98566 76.7026 8.73294 76.7507 7.95071 76.7387L7 76.7266V78.8309V80.9473L9.08194 80.8871C12.4154 80.7909 13.7633 80.2498 14.6177 78.6746C15.1833 77.6405 15.3037 76.8108 15.3037 73.9369C15.3037 70.6542 15.3638 70.4378 15.9656 71.6162C16.9644 73.6002 18.9862 74.5622 22.1512 74.5622C24.4016 74.5502 26.1586 74.0211 27.7231 72.8667C28.1804 72.53 28.5655 72.2655 28.5895 72.2895C28.6136 72.3136 28.6979 72.7104 28.7941 73.1794L28.9746 74.0211L48.0129 74.0572L67.0512 74.0812V72.2174V70.3536H61.708C57.1951 70.3536 56.3527 70.3295 56.3046 70.1852C56.2323 70.0049 56.3888 69.8125 58.6874 67.2272C60.3601 65.3634 62.8753 62.5135 64.9211 60.1687L66.3291 58.5574V56.6335V54.7216H50.0828H33.8365L33.8245 55.5272C33.8124 55.9842 33.7884 56.8379 33.7884 57.4271L33.7643 58.5214L38.3975 58.5454C40.9367 58.5574 43.0428 58.5935 43.0789 58.6176C43.1751 58.7138 42.7058 59.2669 40.2628 62.0085C39.0113 63.4034 37.0497 65.6039 35.8944 66.9145C34.7511 68.2132 33.7643 69.2714 33.7041 69.2714C33.644 69.2714 33.5958 66.9506 33.5958 63.9565V58.6296L33.2709 57.7879C32.6451 56.2247 31.2973 55.1905 29.0589 54.5773C27.687 54.2045 23.4268 54.1444 21.9225 54.4691ZM59.2169 58.5574C59.4936 58.7258 60.1555 57.9442 52.4536 66.5899L49.108 70.3536H44.5952C40.8044 70.3536 40.0823 70.3295 40.0221 70.1852C39.974 70.077 41.4783 68.2853 44.1018 65.3393C46.3763 62.7781 48.6387 60.2048 49.1321 59.6396C49.6977 58.9663 50.131 58.5695 50.3235 58.5334C50.8771 58.4372 59.0484 58.4612 59.2169 58.5574ZM28.4211 66.145C28.4211 68.6701 27.8916 69.8245 26.3151 70.7624C25.1959 71.4358 22.9695 71.4839 21.7781 70.8827C20.6589 70.3175 20.1535 68.7303 20.7071 67.5278C21.2005 66.4336 22.3317 65.8323 24.4618 65.5437C25.9781 65.3273 27.0973 65.0748 27.6388 64.8223C28.4451 64.4495 28.4211 64.4134 28.4211 66.145Z" fill="#5852B0"/>
<path d="M98.2576 54.7201C97.0217 54.9247 95.4618 55.7674 94.6099 56.6822C93.9619 57.3804 93.314 58.6805 93.098 59.7277C92.954 60.4741 92.99 60.775 93.254 60.775C93.35 60.775 93.4939 60.4259 93.6259 59.8361C93.9259 58.5481 94.2859 57.8017 95.0178 57.0072C95.7738 56.1766 96.7937 55.5868 98.0776 55.2257C98.9055 54.997 99.2415 54.9729 100.597 55.0331C101.857 55.0812 102.301 55.1414 102.949 55.3942C105.181 56.2248 105.997 57.5128 105.997 60.2454C105.997 61.6297 105.985 61.714 105.661 62.1955C104.953 63.2788 103.537 63.6279 99.0375 63.8446C97.0337 63.9409 95.2338 64.2659 94.4299 64.6872C92.642 65.5901 91.7781 67.1429 91.7781 69.4662C91.7781 72.1385 93.11 73.7877 95.8218 74.4618C96.9737 74.7387 99.3855 74.7387 100.417 74.4498C101.953 74.0164 103.129 73.3543 104.137 72.3552C104.641 71.8376 105.217 71.1394 105.409 70.7783C105.973 69.719 106.057 69.8153 106.057 71.5126C106.057 73.7877 106.429 74.2572 108.193 74.2572C109.333 74.2572 109.333 73.9923 108.193 73.872C107.317 73.7877 106.885 73.571 106.681 73.1015C106.573 72.8849 106.537 70.8987 106.537 66.0836C106.537 62.0751 106.489 59.1018 106.417 58.7286C106.033 56.6943 104.473 55.1294 102.469 54.7562C101.857 54.6358 98.8815 54.6118 98.2576 54.7201ZM106.009 63.1224C106.045 63.2909 106.057 64.4946 106.033 65.7947C105.985 67.8291 105.937 68.2745 105.721 68.8763C105.241 70.2005 104.701 71.0431 103.777 71.97C102.277 73.4868 100.369 74.2572 98.1376 74.2572C95.4498 74.2572 93.4579 73.258 92.63 71.4885C92.354 70.8987 92.318 70.6699 92.318 69.5023C92.318 68.3708 92.366 68.0698 92.618 67.4078C93.014 66.3966 93.7579 65.578 94.7058 65.1086C95.6418 64.6511 97.6576 64.3382 100.897 64.1576C103.645 64.0011 105.217 63.6159 105.613 62.9779C105.769 62.7372 105.925 62.7973 106.009 63.1224Z" fill="#5852B0"/>
<path d="M92.95 55.2409C92.8902 55.3605 92.5552 56.3409 92.2202 57.4289C91.8732 58.5169 91.4186 59.9637 91.1913 60.6571C90.964 61.3506 90.6889 62.2593 90.5573 62.6897C90.4257 63.1201 89.8514 64.9495 89.2771 66.7549C88.7029 68.5603 87.9731 70.8918 87.6501 71.92C87.3151 72.9603 87.0041 73.8092 86.9562 73.8092C86.8007 73.8092 86.693 73.4983 84.073 65.2006C83.6662 63.9212 82.769 61.1354 82.087 59.0071L80.8309 55.1452L80.3284 55.1811L79.8259 55.217L79.5029 56.1735C79.3354 56.6996 78.8329 58.23 78.4022 59.5811C77.9716 60.9321 77.0264 63.8854 76.2967 66.1571C75.5669 68.4288 74.7414 70.9755 74.4782 71.8364C74.215 72.6853 73.9159 73.4863 73.8322 73.6059C73.6886 73.8211 73.6766 73.8211 73.569 73.6059C73.5091 73.4863 73.1263 72.3146 72.7315 70.9994C71.5352 67.0538 67.9102 55.3485 67.8504 55.2528C67.7547 55.0974 67.4436 55.1452 67.4436 55.3007C67.4436 55.3844 67.5872 55.8865 67.7547 56.4126C67.9102 56.9387 69.1544 60.9441 70.5063 65.3201C71.8462 69.6962 73.0306 73.4983 73.1383 73.7852C73.3177 74.2755 73.3536 74.2994 73.7604 74.2635L74.1791 74.2276L75.1123 71.4179C76.0335 68.6081 77.9716 62.6778 79.3115 58.505C80.125 55.9463 80.1968 55.755 80.3523 55.755C80.5078 55.755 80.9026 56.867 82.2067 60.8963C84.3482 67.5799 85.5325 71.2385 86.0231 72.7331L86.5255 74.2276L86.9562 74.2635C87.3271 74.2994 87.3989 74.2635 87.4587 74.0244C87.4946 73.8689 87.7697 72.9722 88.0808 72.0157C88.3918 71.0592 88.7747 69.8755 88.9182 69.3853C89.0738 68.8951 89.4207 67.7831 89.6959 66.9342C90.1744 65.4397 91.299 61.9365 92.7466 57.393C93.1175 56.2333 93.3807 55.217 93.3448 55.1572C93.2371 54.9778 93.0696 55.0137 92.95 55.2409Z" fill="#5852B0"/>
<path d="M106.309 55.1567C106.261 55.2283 106.417 55.7297 106.646 56.267C106.874 56.8042 107.247 57.6996 107.487 58.2607C107.86 59.1442 109.447 62.881 110.265 64.827C110.662 65.7582 111.215 67.0595 112.682 70.5575C113.379 72.2289 114.016 73.7213 114.088 73.8645C114.245 74.1749 114.257 74.1153 113.487 76.109C112.597 78.4132 112.321 78.9623 111.732 79.5354C111.106 80.1562 110.613 80.3353 109.291 80.4308C108.401 80.4905 108.293 80.5263 108.293 80.7412C108.293 80.968 108.353 80.98 109.351 80.9083C110.902 80.8128 111.852 80.383 112.573 79.4518C112.85 79.0817 113.451 77.6491 114.81 74.0794C115.231 72.9572 115.531 72.2051 116.289 70.2591C116.589 69.4711 117.082 68.1817 117.383 67.3938C117.683 66.6058 118.14 65.4 118.417 64.7076C118.681 64.0152 119.03 63.1317 119.174 62.7377C119.331 62.3438 120.028 60.5291 120.725 58.7144C121.423 56.8878 122 55.3119 122 55.2164C122 54.9418 121.784 55.0015 121.567 55.3358C121.399 55.5865 118.513 63.0601 116.83 67.5729C116.192 69.292 114.978 72.4319 114.738 72.993C114.581 73.3751 114.521 73.4228 114.365 73.3034C114.269 73.2199 114.185 73.1005 114.185 73.0408C114.185 72.9811 113.487 71.2858 112.633 69.2682C111.792 67.2505 110.481 64.1465 109.736 62.3796C106.682 55.1089 106.694 55.1209 106.525 55.0731C106.453 55.0492 106.357 55.0851 106.309 55.1567Z" fill="#5852B0"/>
</svg>
