<svg width="128" height="128" viewBox="0 0 128 128" fill="none" xmlns="http://www.w3.org/2000/svg">
<path d="M12.2784 33.6687C11.9641 33.7315 11.298 33.9704 10.7826 34.2217C8.93491 35.089 7.46428 37.0499 7.11234 39.0735C6.91123 40.2299 6.99921 47.1557 7.22546 47.671C7.35116 47.9727 7.35116 48.2115 7.17519 49.0537C6.99921 49.9461 6.98664 51.5801 7.01178 63.0057L7.04949 75.9522L7.40144 76.9704C7.77852 78.1142 8.70866 79.61 9.45025 80.3013C10.4432 81.2314 25.0489 92.4559 25.6522 92.7701C27.7388 93.8134 30.2778 93.7883 32.3392 92.6947C32.8922 92.4056 47.3848 81.2188 48.3275 80.3515C49.4462 79.3334 50.3135 77.7371 50.6528 76.1031C50.9545 74.6953 50.9545 50.2352 50.6654 49.0034C50.4894 48.2744 50.4894 48.0984 50.6654 47.2814C50.8414 46.5272 50.8665 45.7353 50.8288 42.6181C50.7785 38.9604 50.7785 38.8599 50.4643 38.0303C49.7856 36.2831 48.5915 34.9508 47.0203 34.2092C45.8388 33.6436 45.1349 33.5304 42.8221 33.5304C39.906 33.5304 38.6616 33.9201 37.1281 35.2901L36.4368 35.906L35.7706 35.2901C34.9662 34.5485 33.6087 33.8572 32.5654 33.6561C32.0752 33.5556 30.6674 33.5304 28.5432 33.5556C25.5517 33.5933 25.2123 33.6184 24.5461 33.8698C23.6537 34.2092 22.7487 34.7748 22.0951 35.4033L21.6175 35.8683L20.9513 35.2776C20.1091 34.5234 19.0659 33.9704 18.0352 33.719C17.1427 33.5179 13.2588 33.4801 12.2784 33.6687ZM17.7461 36.6351C18.6511 36.9367 19.6943 38.0177 20.0589 39.0358L20.3479 39.8151H21.5672H22.7864L23.1509 38.973C23.5783 37.9423 24.1691 37.2635 25.0112 36.8236L25.6522 36.4842H28.9831H32.314L32.9551 36.8236C33.7721 37.251 34.4006 37.98 34.8405 39.0107L35.1799 39.8151H36.4494H37.7189L38.0206 39.0233C38.4228 38.0051 39.466 36.9367 40.3459 36.6351C41.3012 36.3083 44.5692 36.3334 45.4742 36.6728C46.2913 36.9744 47.2088 37.8669 47.611 38.7467C47.8876 39.3501 47.9001 39.5386 47.9378 42.8444C47.9756 46.1501 47.963 46.3512 47.699 47.0551C47.3597 47.9727 47.3597 48.3749 47.6865 49.2422C47.9504 49.921 47.9504 50.0592 47.963 62.4401C47.963 76.0654 47.9756 75.6883 47.2591 77.0332C47.0831 77.3475 46.6683 77.8754 46.3541 78.1896C45.3485 79.1575 31.1325 90.1054 30.5166 90.382C29.687 90.759 28.1536 90.759 27.324 90.382C26.6327 90.0677 11.8887 78.6547 11.2225 77.9131C10.6821 77.3097 10.3427 76.6938 10.0787 75.7511C9.89018 75.1227 9.87761 73.7149 9.90275 62.3018L9.94046 49.5564L10.2421 48.9028L10.5312 48.2492L10.2044 47.3191L9.86504 46.4015L9.90275 42.8318C9.94046 39.3501 9.95303 39.2369 10.2421 38.6462C10.6443 37.8292 11.5493 36.9744 12.3161 36.6854C13.1959 36.346 16.7908 36.3083 17.7461 36.6351Z" fill="#5852B0"/>
<path d="M12.8313 39.3881L12.5171 39.7275V43.0961V46.4647L12.8188 46.8167L13.1204 47.1686L28.6311 47.2063C40.1321 47.2315 44.2172 47.1938 44.4812 47.0932C45.1473 46.8167 45.1976 46.5401 45.1976 43.0333V39.8406L44.8708 39.451L44.544 39.0613H42.6209H40.6978L40.3709 39.451C40.107 39.7652 40.0441 39.9663 40.0441 40.5194C40.0441 41.4747 39.7802 42.0403 39.2397 42.2665C38.6112 42.5305 33.8223 42.5305 33.1938 42.2791C32.6282 42.0403 32.3768 41.5124 32.3768 40.5822C32.3768 39.9663 32.3265 39.7652 32.05 39.451L31.7232 39.0613H28.9076H26.0795L25.7904 39.3756C25.5516 39.627 25.4887 39.8783 25.4385 40.6074C25.363 41.7009 25.1242 42.1408 24.4706 42.342C24.1941 42.4174 22.9623 42.4551 21.2151 42.4299L18.3996 42.3922L18.0351 41.9774C17.7208 41.6255 17.6706 41.4747 17.6706 40.8085C17.6706 39.9915 17.4443 39.4007 17.0547 39.187C16.9164 39.1242 15.9863 39.0613 14.9681 39.0613C13.1456 39.0613 13.133 39.0613 12.8313 39.3881Z" fill="#5852B0"/>
<path d="M12.9067 49.5699L12.5171 49.8967V62.5289V75.1612L12.8313 75.752C13.1079 76.2422 14.2014 77.1346 20.2473 81.8607C24.1564 84.9025 27.5878 87.5421 27.8769 87.7432C28.5431 88.1706 29.1716 88.1832 29.7498 87.7935C30.3531 87.3913 43.9281 76.8078 44.368 76.4056C44.5691 76.2296 44.8331 75.8525 44.9588 75.576C45.185 75.0984 45.1976 74.4699 45.1976 62.5289V49.9721L44.8331 49.6076L44.4686 49.2431H28.8825H13.2964L12.9067 49.5699ZM25.2122 54.1451C25.3505 54.2834 25.4636 54.5097 25.4636 54.6479C25.4636 54.7862 24.7849 57.4635 23.9553 60.6058C23.1257 63.7356 22.4469 66.5009 22.4469 66.7523C22.4469 67.5567 22.7109 67.6824 26.5571 68.7508C30.2903 69.7941 30.4914 69.8821 30.4914 70.6362C30.4914 71.0887 27.7764 80.365 27.525 80.7672C27.4244 80.9306 27.2233 81.0437 27.0474 81.0437C26.8462 81.0437 25.2374 79.8622 22.183 77.4991C18.299 74.4699 17.5826 73.854 17.3312 73.3764L17.0547 72.8107L17.0421 63.723V54.6228L17.4066 54.2583L17.7711 53.8937H21.366C24.7974 53.8937 24.9734 53.9063 25.2122 54.1451ZM40.2578 54.1954L40.6098 54.4971V63.723V72.9364L40.2955 73.4644C40.0693 73.854 39.1014 74.6836 36.663 76.5816C34.8278 78.0019 33.2692 79.1583 33.1687 79.1583C33.0807 79.1583 33.0053 79.0577 33.0053 78.9321C33.0053 78.8189 33.7469 76.2296 34.6393 73.1878C36.3613 67.3933 36.4116 67.1168 35.8962 66.6517C35.7454 66.5135 34.1491 66.0107 32.0877 65.4325C28.43 64.4269 28.1912 64.3138 28.0403 63.6476C27.9524 63.2831 30.1771 54.9119 30.4662 54.5222C30.9313 53.9063 31.0319 53.8937 35.6071 53.8937H39.9059L40.2578 54.1954Z" fill="#5852B0"/>
<path d="M55.6931 49.2301C55.5549 49.293 55.3286 49.4689 55.1904 49.6198C54.939 49.8963 54.939 50.0723 54.939 61.9629V74.0296L55.3538 74.3941L55.756 74.7586H58.2699H60.7837L61.186 74.3941L61.6008 74.0296L61.6636 69.668L61.7265 65.3064L62.091 64.9922C62.5183 64.6277 62.9708 64.6654 63.6496 65.1179C63.901 65.2938 65.1705 66.9781 67.0433 69.6554C68.6774 71.9933 70.1857 74.0422 70.3994 74.193C70.6005 74.3438 70.965 74.5324 71.2038 74.6204C71.7569 74.7963 77.7902 74.8089 78.1421 74.6329C78.2678 74.5575 78.381 74.3815 78.381 74.2307C78.381 74.0924 76.6212 71.5786 74.3964 68.5493C72.2094 65.5704 70.2862 62.9434 70.1228 62.7045C69.7206 62.1138 69.7332 61.2465 70.148 60.6432C70.3114 60.3918 71.7946 58.2801 73.4412 55.9422C77.6394 49.9717 77.6268 49.9843 77.6268 49.67C77.6268 49.5066 77.5137 49.3181 77.388 49.2427C77.2371 49.1673 75.9425 49.117 74.0696 49.117H71.0153L70.3239 49.4564C69.6703 49.7957 69.5698 49.9214 66.9805 53.7551C65.5099 55.9296 64.1524 57.8779 63.9638 58.079C63.5993 58.4561 62.9583 58.7954 62.6063 58.7954C62.4932 58.7954 62.2292 58.632 62.0281 58.4309L61.6636 58.0664V54.1196C61.6636 50.4116 61.651 50.1602 61.4122 49.7706C61.274 49.5443 61.01 49.3055 60.834 49.2427C60.4569 49.0918 56.0451 49.0918 55.6931 49.2301Z" fill="#5852B0"/>
<path d="M80.7063 49.2303C80.5681 49.2931 80.3418 49.4691 80.2035 49.6199C79.9521 49.8965 79.9521 50.0724 79.9521 61.9631V74.0298L80.3669 74.3943L80.7692 74.7588H87.5944C95.8902 74.7588 97.1974 74.6457 98.756 73.8664C100.013 73.2379 100.817 72.0438 101.194 70.2715C101.408 69.2534 101.446 66.3247 101.245 65.2689C100.905 63.4463 99.7616 62.2899 98.027 62.0008C97.7505 61.9631 97.4111 61.85 97.2854 61.762C97.0968 61.6112 97.122 61.586 97.5619 61.5106C98.3412 61.3598 99.0577 60.9953 99.661 60.4422C100.641 59.5372 101.006 58.2426 101.006 55.7161C100.993 51.7819 99.6484 49.9593 96.3678 49.4063C95.1109 49.1926 81.1462 49.0417 80.7063 49.2303ZM93.2506 54.9117C93.8414 55.0751 94.1682 55.5527 94.2687 56.4451C94.3944 57.4004 94.1556 58.406 93.7282 58.8459C93.2883 59.2858 92.3959 59.4115 89.6683 59.4241C87.7201 59.4241 87.3681 59.3612 86.9408 58.9087C86.7019 58.6574 86.6768 58.4688 86.6768 57.1239C86.6768 54.7734 86.6517 54.786 90.1962 54.7734C91.6291 54.7734 92.9866 54.8362 93.2506 54.9117ZM92.8987 64.2005C94.2562 64.4267 94.6584 64.9546 94.6584 66.5258C94.6584 67.7702 94.3819 68.3987 93.6403 68.7757C93.1878 69.0271 92.9364 69.0397 90.2214 69.0397H87.2801L86.9785 68.6878C86.6894 68.3484 86.6768 68.2478 86.6768 66.7144C86.6768 64.1251 86.7271 64.0873 89.9448 64.0748C91.1515 64.0748 92.4839 64.1376 92.8987 64.2005Z" fill="#5852B0"/>
<path d="M103.243 49.3174C103.055 49.418 102.841 49.6065 102.766 49.7448C102.602 50.059 102.602 54.2069 102.766 54.5337C103.055 55.0616 103.507 55.1496 105.87 55.1496C107.743 55.1496 108.158 55.1873 108.409 55.3507C109.05 55.8032 109.05 55.7404 109.05 65.1926V73.9912L109.352 74.3431L109.654 74.6951L112.256 74.7328L114.845 74.7705L115.272 74.3431L115.712 73.9032V64.8909V55.8787L116.077 55.5141L116.441 55.1496H118.666C121.104 55.1496 121.582 55.0491 121.859 54.4457C122.047 54.0184 122.047 50.2476 121.859 49.8202C121.532 49.1037 121.67 49.1163 112.23 49.1163C104.84 49.1289 103.532 49.154 103.243 49.3174Z" fill="#5852B0"/>
</svg>
