<svg width="128" height="128" viewBox="0 0 128 128" fill="none" xmlns="http://www.w3.org/2000/svg">
<path d="M50.0692 47.0565C46.5692 47.6052 43.9081 49.8179 42.3566 53.4696C41.644 55.1426 41.2561 56.8695 41.0486 59.2981C40.9043 60.9261 40.8592 62.2213 40.7239 68.2386C40.5886 73.8602 40.327 75.6501 39.5061 76.5495C39.2535 76.8194 39.1453 76.8733 38.8476 76.8643C38.3605 76.8463 37.8914 76.5045 37.4133 75.83C36.5654 74.6157 35.7806 71.9084 34.0938 64.4159C31.8747 54.6029 31.6131 53.6585 30.5216 51.5538C29.9894 50.5194 29.4572 49.8269 28.7355 49.2242C26.6969 47.5333 24.3065 47.1375 22.1686 48.1269C20.4186 48.9454 19.2189 50.1956 18.2537 52.2194C17.4328 53.9463 17.1622 55.1786 16.5939 59.8287C16.4225 61.2409 16.197 63.0218 16.1068 63.7863C16.0075 64.5509 15.8362 65.8281 15.7369 66.6196C15.1596 71.2158 14.7627 72.8978 13.9148 74.3549C12.8143 76.2347 10.7215 76.9543 8.27693 76.2887L7.55529 76.0908L7.15838 76.2617C6.8156 76.4146 6.71638 76.5315 6.4638 77.0172C5.92257 78.0876 5.84138 79.4637 6.29241 79.8505C6.80658 80.2912 8.6558 80.696 10.1442 80.696C11.362 80.696 12.1648 80.5521 13.2202 80.1473C14.7898 79.5447 16.5939 77.9976 17.4689 76.5045C18.4972 74.7506 19.2189 72.1062 19.6158 68.6883C19.6609 68.2386 19.7421 67.555 19.7872 67.1593C20.7975 58.6774 20.9238 57.715 21.1493 56.5817C21.6544 54.0902 22.6196 52.3093 23.7201 51.8146C23.9276 51.7157 24.2974 51.6437 24.5861 51.6437C26.0925 51.6437 27.166 53.0919 27.9598 56.2309C28.3657 57.841 29.4843 62.5361 30.1608 65.4953C31.2884 70.3793 31.4598 71.0629 31.9288 72.7538C33.0113 76.5675 33.9855 78.5553 35.3115 79.6436C36.2587 80.4351 37.7561 80.9568 39.046 80.9658C40.8953 80.9658 42.6362 79.8415 43.4842 78.0876C44.3682 76.2887 44.6207 74.4628 44.7831 68.6434C45.0447 59.361 45.1079 58.3896 45.595 56.6267C45.9738 55.2236 46.8488 53.5776 47.6968 52.6601C48.5447 51.7337 49.8978 51.14 51.4042 51.0411C52.2882 50.9871 52.9918 51.0771 54.5073 51.4369C55.4184 51.6527 55.4454 51.6527 55.7702 51.4908C56.3655 51.203 56.8436 49.8898 56.7624 48.7655C56.6993 47.8571 56.2753 47.5962 54.2547 47.1825C53.4429 47.0206 50.8179 46.9396 50.0692 47.0565Z" fill="#5852B0"/>
<path d="M54.1465 64.417C51.6929 64.8577 49.8888 66.5127 49.2934 68.8602C49.1311 69.4989 49.113 69.8766 49.113 72.6469C49.113 76.1188 49.1672 76.5146 49.8076 77.8188C50.2135 78.6553 51.2329 79.7076 52.0898 80.1843C53.1993 80.787 53.8218 80.9219 55.5627 80.9219C56.9519 80.9219 57.1864 80.8949 58.0795 80.67C59.8836 80.1933 60.6323 79.7886 60.8849 79.123C61.1645 78.4034 60.957 77.7468 60.2985 77.3061C59.7753 76.9463 59.4777 76.9463 58.5034 77.3151C57.1143 77.8368 56.573 77.9447 55.4725 77.9537C54.5615 77.9537 54.4352 77.9357 53.9661 77.7018C53.3527 77.396 52.7934 76.8024 52.586 76.2178C52.5048 75.9839 52.4146 75.4442 52.3875 75.0035L52.3334 74.221H56.0769C60.3707 74.221 60.497 74.203 61.1465 73.5644C61.6967 73.0067 61.7689 72.6559 61.7148 70.83C61.6606 69.1391 61.5614 68.6264 61.0382 67.565C60.5691 66.6116 59.4326 65.4693 58.4944 65.0196C58.1246 64.8397 57.5743 64.6238 57.2766 64.5429C56.6542 64.381 54.7689 64.3 54.1465 64.417ZM56.1671 67.3941C56.7534 67.5201 57.0421 67.664 57.4661 68.0328C58.0344 68.5275 58.4944 69.7327 58.4944 70.7311V71.1628H55.4184H52.3334L52.3875 70.4163C52.4687 69.1211 52.9648 68.1677 53.7857 67.7179C54.5163 67.3222 55.3011 67.2143 56.1671 67.3941Z" fill="#5852B0"/>
<path d="M64.8087 64.4609C64.3937 64.6498 64.1953 64.8387 63.9878 65.2434C63.7984 65.6122 63.7623 66.1609 63.9066 66.5296C63.9517 66.6556 64.9169 68.0677 66.0445 69.6507C67.1811 71.2428 68.0922 72.5739 68.0831 72.6099C68.0651 72.6549 67.127 73.9951 65.9814 75.6051C64.8357 77.2151 63.8615 78.6452 63.8164 78.7712C63.4105 79.8325 64.2133 80.9658 65.368 80.9658C66.1527 80.9658 66.3241 80.7859 68.1643 78.0876C69.0844 76.7294 69.8782 75.5601 69.9233 75.4882C70.0135 75.3533 69.9684 75.2903 72.5664 79.095C73.712 80.7679 73.9375 80.9658 74.7042 80.9658C75.5702 80.9658 76.2648 80.3362 76.337 79.4817C76.3911 78.8701 76.4903 79.041 73.9465 75.4522C72.6927 73.6893 71.953 72.556 71.989 72.484C72.0251 72.43 72.9542 71.1168 74.0457 69.5878C75.1372 68.0497 76.0844 66.6376 76.1565 66.4397C76.6076 65.1355 75.2364 63.9122 73.9645 64.4969C73.4955 64.7038 73.4414 64.7757 71.6192 67.4561C70.7803 68.6973 70.0586 69.7227 70.0226 69.7227C69.9865 69.7227 69.2017 68.6074 68.2816 67.2492C67.0728 65.4773 66.5045 64.7217 66.279 64.5868C65.8731 64.335 65.2236 64.281 64.8087 64.4609Z" fill="#5852B0"/>
<path d="M83.2559 64.426C81.8577 64.5879 79.9273 65.3434 79.4132 65.919C78.7096 66.7196 78.908 67.8439 79.8281 68.2846C80.3784 68.5454 80.7482 68.5005 81.6773 68.0238C82.6786 67.5021 83.3281 67.3582 84.5639 67.3492C85.4389 67.3402 85.6644 67.3672 86.0072 67.5291C87.0536 68.0148 87.4505 68.6804 87.4505 69.9666V70.8031H85.5381C81.993 70.8031 80.5678 71.2258 79.2327 72.6739C78.3848 73.5824 78.0691 74.4368 78.0691 75.84C78.0691 76.3257 78.1322 76.9283 78.2044 77.2341C78.6554 78.9341 79.9454 80.1483 81.9028 80.715C82.5523 80.9039 82.8049 80.9219 84.4286 80.9219C85.7817 80.9129 86.4402 80.8769 87.0445 80.76C88.7314 80.4272 89.8139 80.0404 90.1747 79.6447C90.2559 79.5547 90.4092 79.2939 90.5084 79.078C90.6888 78.6912 90.6979 78.5024 90.6979 73.8072C90.6979 69.256 90.6888 68.8962 90.5175 68.2486C90.0213 66.2968 88.5329 64.8667 86.5935 64.4619C85.908 64.318 84.3023 64.3 83.2559 64.426ZM87.4505 75.6871V77.6119L86.5304 77.7828C85.908 77.8907 85.1773 77.9537 84.3384 77.9537C83.0845 77.9537 83.0665 77.9537 82.4621 77.6569C81.6232 77.2431 81.3706 76.8654 81.3345 75.9389C81.3075 75.3093 81.3255 75.2194 81.5691 74.8416C81.9028 74.3289 82.5613 73.9781 83.4002 73.8702C83.716 73.8252 84.7623 73.7892 85.7185 73.7802L87.4505 73.7712V75.6871Z" fill="#5852B0"/>
<path d="M98.9065 64.4252C97.3009 64.6321 95.7042 65.0818 95.1449 65.4865C94.9375 65.6394 94.7029 65.9183 94.5947 66.1611C94.3962 66.5749 94.3962 66.5929 94.3962 73.2038V79.8238L94.6127 80.1926C94.8924 80.6783 95.4156 80.9661 95.9929 80.9661C96.5522 80.9661 96.9851 80.7322 97.3279 80.2555L97.5985 79.8687L97.6436 73.7885L97.6887 67.6992L98.4555 67.5373C99.556 67.3034 101.333 67.2854 101.946 67.5013C102.569 67.7172 103.245 68.3288 103.516 68.9314L103.733 69.4081L103.778 74.625C103.823 80.2915 103.805 80.0936 104.337 80.5793C104.752 80.9661 105.492 81.083 106.06 80.8402C106.448 80.6872 106.917 80.1386 106.98 79.7788C107.007 79.6169 107.025 77.1794 107.007 74.3551L106.98 69.2283L106.736 68.5087C106.15 66.7728 104.833 65.3606 103.245 64.767C102.145 64.3532 100.476 64.2273 98.9065 64.4252Z" fill="#5852B0"/>
<path d="M114.151 64.4527C111.4 65.0374 109.722 67.241 110.092 69.8045C110.254 70.9647 110.624 71.7023 111.409 72.4129C112.067 73.0065 112.446 73.1954 114.539 73.9599C117.344 74.9853 117.687 75.2281 117.741 76.2895C117.786 77.027 117.57 77.3958 116.902 77.7286C116.497 77.9355 116.343 77.9535 115.324 77.9535C114.07 77.9535 113.574 77.8545 112.455 77.4048C111.562 77.036 111.183 77.018 110.66 77.3239C109.785 77.8365 109.641 79.0958 110.381 79.7614C111.535 80.8227 115.558 81.3264 117.516 80.6608C119.248 80.0762 120.448 78.8619 120.872 77.2699C121.043 76.6313 121.043 75.381 120.872 74.7155C120.565 73.5642 119.789 72.6107 118.689 72.0351C118.355 71.8642 117.245 71.4504 116.235 71.1266C114.151 70.4431 113.989 70.3711 113.664 69.9933C112.951 69.1389 113.312 67.9246 114.413 67.5019C115.234 67.1781 117.029 67.3579 118.454 67.8886C119.149 68.1495 119.555 68.1585 120.015 67.9246C120.52 67.6728 120.763 67.277 120.799 66.6744C120.853 65.9098 120.601 65.5411 119.744 65.1183C118.734 64.6146 117.696 64.3988 116.091 64.3628C115.171 64.3448 114.548 64.3718 114.151 64.4527Z" fill="#5852B0"/>
</svg>
