<svg width="128" height="128" viewBox="0 0 128 128" fill="none" xmlns="http://www.w3.org/2000/svg">
<path d="M15.0674 52.7784C13.8871 53.0452 13.621 53.138 12.6606 53.5672C9.20086 55.1447 6.75938 58.4389 6.14611 62.3479C5.94941 63.6818 5.94941 64.401 6.15769 65.7929C6.80566 70.0963 9.81413 73.6689 13.945 75.0376C15.2294 75.4552 15.9699 75.5596 17.613 75.5596C18.8742 75.548 19.4412 75.5016 20.1817 75.3044C24.5903 74.1676 27.8186 70.8502 28.7906 66.4657C29.2071 64.5866 29.0567 62.0927 28.4087 60.26C27.6335 58.0097 25.9441 55.8059 24.0465 54.5183C22.6811 53.602 20.7487 52.8364 19.2676 52.6276L18.8279 52.558V53.5324V54.5067L19.3834 54.5879C20.9917 54.8199 22.9356 55.8522 24.2663 57.1862C26.0945 59.0189 27.0665 61.3619 27.0896 63.9718C27.1012 65.6305 26.8351 66.7789 26.1177 68.2636C24.8796 70.827 22.6348 72.6945 19.9156 73.4369C18.585 73.8081 16.4675 73.8081 15.1484 73.4485C11.6771 72.5089 9.05044 69.8411 8.18261 66.4077C7.89334 65.2361 7.8702 63.0207 8.13633 61.8723C8.51817 60.1788 9.31657 58.7173 10.5431 57.4298C12.0358 55.8754 13.9565 54.8199 15.7385 54.5647L16.2823 54.4951V53.5208C16.2823 52.8132 16.2476 52.5464 16.1435 52.558C16.0625 52.558 15.5765 52.6624 15.0674 52.7784Z" fill="#5852B0"/>
<path d="M32.713 55.7129C31.9378 55.9797 31.9031 56.2001 31.9031 60.1438C31.9031 63.7396 31.9725 64.4008 32.3659 64.6096C32.5048 64.6792 35.2008 64.7256 39.9334 64.7256H47.2809L47.6049 64.4472L47.9289 64.1688L47.9636 60.2946C47.9868 56.0261 47.9868 55.9565 47.2925 55.7129C46.714 55.5157 33.2916 55.5157 32.713 55.7129ZM46.2627 57.302C46.471 57.418 46.4825 57.5804 46.4825 60.1438C46.4825 62.4521 46.4594 62.8813 46.2974 63.0321C46.1354 63.1945 45.418 63.2177 40.0491 63.2177C36.0802 63.2177 33.8933 63.1713 33.7429 63.1017C33.5346 62.9857 33.523 62.8349 33.523 60.283C33.523 58.7983 33.5693 57.534 33.6156 57.4644C33.6619 57.3948 33.7776 57.302 33.8701 57.2672C34.1941 57.1512 46.0197 57.1744 46.2627 57.302Z" fill="#5852B0"/>
<path d="M51.0532 55.6433C50.5788 55.7593 50.5325 55.9681 50.5325 58.1719C50.5325 59.8075 50.5672 60.3294 50.6945 60.5034C50.8565 60.7122 51.0995 60.7238 57.9032 60.7818L64.9384 60.8398L64.9731 61.9301C64.9962 62.7305 64.9615 63.0553 64.8574 63.1249C64.7764 63.1713 61.5828 63.2177 57.7644 63.2177C52.5111 63.2177 50.7755 63.2525 50.6713 63.3569C50.5209 63.5077 50.4862 64.2268 50.6019 64.54C50.6713 64.7024 51.4697 64.7256 58.528 64.7256C66.1649 64.7256 66.3848 64.714 66.5005 64.5052C66.5699 64.366 66.6162 63.3569 66.6162 62.0229C66.6162 60.0394 66.593 59.7379 66.4195 59.5175C66.2112 59.2739 66.1649 59.2739 59.2339 59.2507C53.1822 59.2159 52.245 59.1927 52.1524 59.0419C51.9673 58.7519 52.0136 57.5688 52.2218 57.3716C52.3838 57.2092 53.1822 57.186 59.3264 57.186H66.269L66.4542 56.896C66.7203 56.4784 66.5815 55.8173 66.1996 55.6781C65.9103 55.5621 51.516 55.5389 51.0532 55.6433Z" fill="#5852B0"/>
<path d="M68.5718 55.8064C68.3751 56.0036 68.3404 56.1428 68.3867 56.5139C68.4214 56.7691 68.4792 57.0127 68.5255 57.0475C68.5718 57.0939 70.1339 57.1519 72.0084 57.1867C74.8664 57.2331 75.4334 57.2679 75.526 57.4187C75.5954 57.5231 75.6417 59.0658 75.6417 61.0145C75.6417 62.8936 75.688 64.5059 75.7458 64.5871C75.8037 64.6915 76.0351 64.7263 76.4632 64.7031L77.0881 64.6683L77.1691 64.1463C77.2038 63.8563 77.2501 62.2324 77.2501 60.5273C77.2616 57.5811 77.2732 57.4187 77.4815 57.3027C77.6203 57.2331 78.9047 57.1867 80.8486 57.1867C82.7926 57.1867 84.077 57.1403 84.2158 57.0707C84.3894 56.9779 84.4357 56.8271 84.4357 56.3747C84.4357 55.9224 84.3894 55.7716 84.2158 55.6788C84.0654 55.6092 81.4041 55.5628 76.4054 55.5628C68.8264 55.5628 68.8148 55.5628 68.5718 55.8064Z" fill="#5852B0"/>
<path d="M86.634 55.6433C86.1827 55.8057 86.1711 55.9565 86.1711 60.0974C86.1711 62.4405 86.2174 64.25 86.2869 64.424L86.4026 64.7256L94.294 64.7024L102.197 64.6676L102.266 64.1456C102.405 63.1365 103.019 63.2177 95.185 63.2177C90.6144 63.2177 88.1614 63.1713 88.0109 63.1017C87.8258 62.9973 87.7911 62.8465 87.7911 62.0229C87.7911 61.4314 87.8489 61.0022 87.9299 60.921C88.0341 60.8166 89.2259 60.7818 92.6046 60.7818C96.3768 60.7818 97.1636 60.7586 97.2677 60.6194C97.3487 60.5266 97.395 60.2018 97.3719 59.8887L97.3372 59.3319L92.755 59.2739C88.9713 59.2275 88.1382 59.1811 87.9646 59.0419C87.8027 58.9143 87.7795 58.7403 87.8142 58.1487C87.8374 57.7544 87.8952 57.3832 87.9531 57.3368C87.9994 57.2904 91.2045 57.2324 95.0577 57.2092C101.48 57.186 102.093 57.1628 102.232 56.9888C102.452 56.6872 102.405 56.0609 102.139 55.7941C101.908 55.5621 101.757 55.5621 94.3634 55.5737C90.2094 55.5737 86.7266 55.6085 86.634 55.6433Z" fill="#5852B0"/>
<path d="M105.182 55.6782L104.916 55.7826V60.1207C104.916 63.3338 104.951 64.4821 105.055 64.5865C105.252 64.7837 120.664 64.7837 120.861 64.5865C121.046 64.4009 121.035 63.6585 120.861 63.4149C120.722 63.241 120.109 63.2178 113.745 63.1946C108.214 63.1714 106.744 63.125 106.629 63.009C106.513 62.893 106.478 62.2318 106.478 60.2599C106.478 57.9168 106.501 57.6385 106.687 57.4529C106.872 57.2557 107.369 57.2441 113.78 57.1861C120.433 57.1281 120.676 57.1165 120.838 56.9077C121.046 56.6061 121.046 56.1421 120.815 55.8174L120.641 55.5622L113.039 55.5738C108.793 55.5738 105.321 55.6202 105.182 55.6782Z" fill="#5852B0"/>
<path d="M16.2244 57.0126C13.482 57.5114 11.2488 59.6109 10.5546 62.3483C10.3347 63.2415 10.3347 64.9118 10.5662 65.8165C10.9827 67.4752 12.1167 69.1223 13.4936 70.0503C14.2342 70.5491 15.5417 71.1058 15.9814 71.1058C16.2822 71.1058 16.2822 71.0942 16.2822 70.2359V69.3775L15.3218 68.9135C12.7646 67.684 11.5728 64.9466 12.4638 62.3367C13.7598 58.5901 18.5154 57.5346 21.2925 60.388C23.3405 62.4759 23.248 65.9673 21.0958 67.9508C20.5288 68.4728 19.7767 68.9251 19.1518 69.1339L18.7121 69.2731V70.2011V71.1406L19.175 71.071C19.4295 71.0362 20.0891 70.7926 20.6329 70.5259C23.1901 69.2847 24.7638 66.5357 24.5671 63.6242C24.4861 62.3831 24.3125 61.7567 23.7224 60.6316C22.7389 58.7525 20.8412 57.3954 18.6659 57.0126C17.474 56.8154 17.3121 56.8038 16.2244 57.0126Z" fill="#5852B0"/>
<path d="M16.861 61.4663C15.5881 61.8607 14.8592 62.8235 14.8707 64.1226C14.8823 65.0273 15.2642 65.7465 16.0394 66.2917C16.4907 66.6049 16.618 66.6396 17.4742 66.6396C18.3536 66.6396 18.4578 66.6164 18.9669 66.2685C20.3785 65.2825 20.4943 63.1366 19.1983 62.0579C18.5388 61.5127 17.5436 61.2575 16.861 61.4663Z" fill="#5852B0"/>
<path d="M35.7217 70.8155C35.7217 72.1262 35.7217 72.1494 35.9878 72.1494C36.1729 72.1494 36.4275 71.8826 36.9945 71.0707L37.7466 70.0035L37.7813 71.0823C37.8045 72.0334 37.8392 72.161 38.0127 72.1262C38.1863 72.0914 38.2094 71.929 38.2094 70.8155C38.2094 69.5976 38.1979 69.5396 37.9549 69.5048C37.7582 69.47 37.5499 69.6903 36.9135 70.6067L36.1267 71.7434L36.092 70.6067C36.0688 69.7135 36.0225 69.4816 35.8952 69.4816C35.7564 69.4816 35.7217 69.7251 35.7217 70.8155Z" fill="#5852B0"/>
<path d="M47.281 69.5629C46.8182 69.6325 46.5868 69.9689 46.5289 70.6533C46.4132 71.8364 46.9339 72.3468 48.1489 72.2192C48.7737 72.1496 49.0283 71.9988 49.0283 71.674C49.0283 71.384 48.8316 71.3956 48.6811 71.6856C48.577 71.8712 48.4381 71.9176 47.929 71.9176C47.2116 71.9176 46.9455 71.732 46.9455 71.21V70.8737H48.0563H49.1787L49.1093 70.4445C49.063 70.2125 48.9473 69.9341 48.8316 69.8181C48.6117 69.6093 47.8017 69.4817 47.281 69.5629ZM48.5307 69.9573C48.6117 70.0269 48.6811 70.2125 48.6811 70.3633C48.6811 70.6301 48.6464 70.6417 47.8133 70.6417C46.9802 70.6417 46.9455 70.6301 46.9455 70.3633C46.9455 70.0617 47.1075 69.8877 47.4662 69.7949C47.7786 69.7137 48.334 69.7949 48.5307 69.9573Z" fill="#5852B0"/>
<path d="M50.382 69.5628C50.3357 69.5976 50.301 70.2007 50.301 70.8967C50.301 72.0682 50.3126 72.1494 50.5324 72.1494C50.7523 72.1494 50.7639 72.0682 50.7639 71.0359C50.7639 70.4327 50.7986 69.9571 50.8564 69.9803C50.9027 70.0151 51.1457 70.5139 51.4003 71.1055C51.8168 72.045 51.8863 72.161 52.1408 72.1262C52.4532 72.0914 52.4648 72.0798 53.0549 70.8155L53.4831 69.8875L53.5178 71.0127C53.5409 71.9174 53.5872 72.1494 53.7145 72.1494C53.8533 72.1494 53.888 71.9058 53.888 70.8039V69.47L53.5756 69.5048C53.2401 69.5396 53.0318 69.8759 52.3722 71.3955L52.1177 71.9754L51.5391 70.7227C51.0647 69.7019 50.9143 69.4816 50.706 69.4816C50.5672 69.4816 50.4167 69.5164 50.382 69.5628Z" fill="#5852B0"/>
<path d="M55.7394 69.5512C55.5427 69.6324 55.2766 69.9339 55.2766 70.0847C55.2766 70.1311 55.3807 70.1775 55.508 70.1775C55.6353 70.1775 55.7394 70.1079 55.7394 70.0151C55.7394 69.8063 55.994 69.7135 56.5262 69.7135C57.0932 69.7135 57.2436 69.8295 57.3246 70.3283L57.3825 70.7459L56.9428 70.6183C56.3758 70.4675 55.5196 70.5835 55.3229 70.8503C55.0914 71.1403 55.1261 71.6506 55.3923 71.9174C55.5774 72.103 55.7741 72.1494 56.3527 72.1494C56.7692 72.1494 57.1395 72.0914 57.2205 72.0102C57.3246 71.9058 57.3594 71.9058 57.3594 72.0102C57.3594 72.0914 57.4635 72.1494 57.6023 72.1494C57.8338 72.1494 57.8453 72.103 57.799 71.0475C57.7528 69.6903 57.6602 69.5628 56.6419 69.5164C56.237 69.5048 55.832 69.5164 55.7394 69.5512ZM57.2205 71.0127C57.3015 71.0939 57.3594 71.2563 57.3594 71.3955C57.3594 71.5346 57.3015 71.697 57.2205 71.7782C57.0354 71.9638 55.9477 71.9638 55.7626 71.7782C55.5774 71.5926 55.589 71.0243 55.7741 70.9547C56.0634 70.8387 57.0816 70.8735 57.2205 71.0127Z" fill="#5852B0"/>
<path d="M61.5249 70.8039V72.1494H61.8142C62.034 72.1494 62.2423 71.9406 62.8209 71.1055C63.2258 70.5371 63.5845 70.0731 63.6424 70.0615C63.6887 70.0615 63.7234 70.5255 63.7234 71.1055C63.7234 71.9522 63.7581 72.1494 63.897 72.1494C64.0358 72.1494 64.0705 71.9174 64.0705 70.8039C64.0705 69.4816 64.0705 69.47 63.816 69.5048C63.6424 69.528 63.2953 69.8991 62.7746 70.6183L61.9993 71.697L61.9646 70.6183C61.9299 69.7019 61.8952 69.5396 61.7332 69.5048C61.548 69.47 61.5249 69.586 61.5249 70.8039Z" fill="#5852B0"/>
<path d="M65.4592 70.8155C65.4592 71.929 65.4939 72.1494 65.6328 72.1494C65.7716 72.1494 65.8064 71.9986 65.8064 71.5114V70.8735H66.6742H67.542V71.5114C67.542 71.9986 67.5767 72.1494 67.7156 72.1494C67.8544 72.1494 67.8891 71.929 67.8891 70.8155C67.8891 69.7251 67.8544 69.4816 67.7271 69.4816C67.5999 69.4816 67.542 69.644 67.5189 70.0267L67.4842 70.5835H66.6742H65.8642L65.8295 70.0267C65.8064 69.644 65.7485 69.4816 65.6212 69.4816C65.4939 69.4816 65.4592 69.7251 65.4592 70.8155Z" fill="#5852B0"/>
<path d="M69.2774 69.5628C69.2774 69.6208 69.5436 69.8875 69.8676 70.1659L70.4577 70.6763L69.7287 71.4071C69.1617 71.987 69.046 72.1494 69.2312 72.1494C69.3584 72.1494 69.7403 71.8594 70.0874 71.5114C70.4345 71.1635 70.7585 70.8735 70.8048 70.8735C70.8511 70.8735 70.8974 71.1635 70.8974 71.5114C70.8974 71.9986 70.9321 72.1494 71.071 72.1494C71.2098 72.1494 71.2445 71.9986 71.2445 71.5114C71.2445 71.1635 71.2908 70.8735 71.3371 70.8735C71.3834 70.8735 71.7074 71.1635 72.0545 71.5114C72.4016 71.8594 72.7835 72.1494 72.9107 72.1494C73.0959 72.1494 72.9802 71.987 72.4248 71.4187L71.6958 70.6763L72.2743 70.1427C72.5983 69.8527 72.8645 69.586 72.8645 69.5512C72.8645 69.3424 72.4595 69.5512 71.9735 70.0035C71.6726 70.2819 71.3834 70.5255 71.3371 70.5255C71.2792 70.5255 71.2445 70.2935 71.2445 70.0035C71.2445 69.6208 71.1982 69.4816 71.071 69.4816C70.9437 69.4816 70.8974 69.6208 70.8974 70.0035C70.8974 70.2935 70.8511 70.5255 70.7932 70.5255C70.7354 70.5255 70.4345 70.2935 70.1106 70.0035C69.5667 69.5164 69.2774 69.3656 69.2774 69.5628Z" fill="#5852B0"/>
<path d="M74.9358 69.5632C74.4035 69.6444 74.23 69.9691 74.23 70.8159C74.23 71.767 74.4151 72.1034 75.0631 72.2078C75.7226 72.3238 76.4169 72.173 76.6252 71.883C76.7177 71.7438 76.7987 71.5931 76.7987 71.5467C76.7987 71.3611 76.4979 71.4655 76.359 71.6858C76.1392 72.0338 75.0284 72.0222 74.7854 71.6627C74.6812 71.5235 74.6003 71.2799 74.6003 71.1407C74.6003 70.8855 74.635 70.8739 75.6995 70.8739C76.7872 70.8739 76.7987 70.8739 76.7987 70.5839C76.7987 70.2011 76.5673 69.7256 76.3475 69.6676C76.0003 69.5632 75.2367 69.5168 74.9358 69.5632ZM76.1855 69.9575C76.2665 70.0271 76.3359 70.2127 76.3359 70.3635C76.3359 70.6303 76.3012 70.6419 75.4681 70.6419C74.635 70.6419 74.6003 70.6303 74.6003 70.3635C74.6003 70.0619 74.7622 69.8879 75.1209 69.7952C75.4334 69.714 75.9888 69.7952 76.1855 69.9575Z" fill="#5852B0"/>
<path d="M78.0368 69.5512C77.9905 69.5976 77.9558 70.2007 77.9558 70.8967C77.9558 72.0682 77.9674 72.1494 78.1872 72.1494C78.3955 72.1494 78.4187 72.0682 78.4187 71.5114V70.8735H79.2286H80.0386V71.5114C80.0386 72.0682 80.0617 72.1494 80.27 72.1494C80.4899 72.1494 80.5014 72.0682 80.5014 70.8039C80.5014 69.586 80.4783 69.47 80.3047 69.5048C80.1427 69.528 80.0849 69.6787 80.0617 70.0963L80.027 70.6415H79.2286H78.4302L78.3955 70.0963C78.3608 69.586 78.2219 69.3772 78.0368 69.5512Z" fill="#5852B0"/>
<path d="M82.4105 69.5744C81.9361 69.6904 81.751 70.0848 81.8088 70.9663C81.8551 71.9987 82.0865 72.2074 83.1858 72.1958C83.8453 72.1958 84.0305 72.1494 84.1578 71.9755C84.2503 71.8595 84.3197 71.6855 84.3197 71.6043C84.3197 71.3607 83.9958 71.4303 83.9148 71.6855C83.8453 71.9059 83.7528 71.9291 83.1279 71.8943C82.4684 71.8595 82.399 71.8363 82.2601 71.5347C81.9824 70.9547 82.1097 70.8735 83.3131 70.8735H84.4007L84.3197 70.3979C84.2735 70.1312 84.1578 69.8528 84.0768 69.7716C83.88 69.586 82.8849 69.47 82.4105 69.5744ZM83.8222 70.0268C83.9032 70.1312 83.9726 70.3167 83.9726 70.4327C83.9726 70.6183 83.8685 70.6415 83.0469 70.6415C82.4684 70.6415 82.1213 70.5951 82.1213 70.5139C82.1213 70.2819 82.3758 69.934 82.6188 69.8296C82.9775 69.6788 83.6602 69.7832 83.8222 70.0268Z" fill="#5852B0"/>
<path d="M85.6735 69.563C85.6272 69.5978 85.5925 70.4677 85.5925 71.4769C85.5925 73.2284 85.6041 73.3096 85.8239 73.3096C86.0322 73.3096 86.0554 73.2284 86.0554 72.5904C86.0554 72.0336 86.0901 71.906 86.1942 72.0104C86.2752 72.0916 86.6339 72.1496 87.0042 72.1496C87.953 72.1496 88.1382 71.9408 88.1382 70.8969C88.1382 70.3865 88.0803 70.027 87.9646 69.8646C87.7447 69.5398 87.1199 69.4238 86.5182 69.5746C86.2521 69.6442 86.0322 69.6442 85.9859 69.5862C85.9165 69.4586 85.7777 69.447 85.6735 69.563ZM87.5365 69.969C87.6175 70.0501 87.6753 70.4329 87.6753 70.8737C87.6753 71.3145 87.6175 71.6973 87.5365 71.7785C87.3282 71.9872 86.3446 71.9524 86.1711 71.7321C86.0785 71.6393 86.0207 71.2565 86.0207 70.8737C86.0207 70.4909 86.0785 70.1081 86.1711 70.0154C86.3446 69.795 87.3282 69.7602 87.5365 69.969Z" fill="#5852B0"/>
<path d="M89.4111 70.8155C89.4111 71.9058 89.4458 72.1494 89.5731 72.1494C89.7004 72.1494 89.7583 71.9754 89.7814 71.5346L89.8161 70.9315L90.6608 70.8967L91.4939 70.8619V71.5114C91.4939 71.9986 91.5286 72.1494 91.6675 72.1494C91.8063 72.1494 91.841 71.929 91.841 70.8155C91.841 69.7019 91.8063 69.4816 91.6675 69.4816C91.5402 69.4816 91.4939 69.6208 91.4939 70.0615V70.6531L90.6608 70.6183L89.8161 70.5835L89.7814 70.0267C89.7583 69.644 89.7004 69.4816 89.5731 69.4816C89.4458 69.4816 89.4111 69.7251 89.4111 70.8155Z" fill="#5852B0"/>
<path d="M96.4695 70.8155C96.4695 71.929 96.5042 72.1494 96.643 72.1494C96.7819 72.1494 96.8166 71.929 96.8166 70.8155C96.8166 69.7019 96.7819 69.4816 96.643 69.4816C96.5042 69.4816 96.4695 69.7019 96.4695 70.8155Z" fill="#5852B0"/>
<path d="M98.0894 69.586C98.0894 69.6324 98.2745 69.9107 98.4943 70.1891C98.7142 70.4675 98.8993 70.7343 98.8993 70.7807C98.8993 70.8155 98.691 71.1171 98.4365 71.4419C97.9042 72.103 97.8926 72.1494 98.1819 72.1494C98.3092 72.1494 98.5638 71.9174 98.7836 71.6158L99.1655 71.0707L99.3853 71.3723C99.8597 72.0218 100.022 72.1726 100.207 72.1378C100.369 72.103 100.311 71.987 99.9407 71.5114C99.6862 71.1867 99.4779 70.8619 99.4779 70.7807C99.4779 70.6879 99.663 70.3979 99.8829 70.1311C100.334 69.586 100.369 69.4816 100.126 69.4816C100.033 69.4816 99.7903 69.6903 99.5936 69.9455C99.3969 70.2007 99.1886 70.4095 99.1307 70.4095C99.0845 70.4095 98.9109 70.2007 98.7373 69.9455C98.4596 69.528 98.0894 69.3192 98.0894 69.586Z" fill="#5852B0"/>
<path d="M107.23 71.3957C107.23 73.2284 107.242 73.3096 107.462 73.3096C107.67 73.3096 107.693 73.2284 107.693 72.5904C107.693 72.0336 107.728 71.906 107.832 72.0104C107.913 72.0916 108.283 72.1496 108.688 72.1496C109.313 72.1496 109.441 72.1148 109.591 71.8944C109.834 71.5465 109.846 70.2009 109.603 69.8646C109.371 69.5282 108.723 69.4122 108.121 69.5978C107.774 69.7022 107.635 69.7022 107.601 69.6094C107.578 69.5398 107.485 69.4818 107.392 69.4818C107.265 69.4818 107.23 69.8182 107.23 71.3957ZM109.267 70.1197C109.487 70.4561 109.441 71.4421 109.198 71.7437C109.024 71.9524 108.04 71.9872 107.832 71.7785C107.751 71.6973 107.693 71.3145 107.693 70.8737C107.693 70.4329 107.751 70.0501 107.832 69.969C107.913 69.8878 108.214 69.8298 108.526 69.8298C108.989 69.8298 109.105 69.8762 109.267 70.1197Z" fill="#5852B0"/>
<path d="M111.512 69.5513C111.315 69.6325 111.049 69.9341 111.049 70.0849C111.049 70.1313 111.153 70.1777 111.28 70.1777C111.408 70.1777 111.512 70.1081 111.512 70.0153C111.512 69.8065 111.766 69.7137 112.322 69.7137C112.854 69.7137 113.132 69.9573 113.132 70.4097C113.132 70.7345 113.12 70.7461 112.773 70.6185C112.576 70.5489 112.183 70.5257 111.882 70.5605C111.211 70.6301 110.875 70.978 110.98 71.5116C111.095 72.0684 111.327 72.1612 112.519 72.1264L113.595 72.1032V71.094C113.595 69.7485 113.456 69.5629 112.426 69.5165C112.021 69.5049 111.604 69.5165 111.512 69.5513ZM112.993 71.0128C113.074 71.094 113.132 71.2564 113.132 71.3956C113.132 71.7784 112.9 71.9176 112.264 71.9176C111.628 71.9176 111.396 71.7784 111.396 71.3956C111.396 71.0128 111.628 70.8736 112.264 70.8736C112.588 70.8736 112.912 70.9316 112.993 71.0128Z" fill="#5852B0"/>
<path d="M32.1924 69.8298C31.8916 70.1662 31.88 71.5697 32.1809 71.9061C32.4817 72.2424 33.9628 72.2656 34.2521 71.9409C34.4951 71.6741 34.5066 71.3377 34.2752 71.3377C34.1827 71.3377 34.1017 71.4421 34.1017 71.5697C34.1017 71.8597 33.7661 72.0337 33.1875 72.0337C32.528 72.0337 32.366 71.8133 32.366 70.9317C32.366 70.2938 32.4007 70.1662 32.6206 70.0154C33.0603 69.7022 33.9281 69.8066 34.0438 70.1894C34.1364 70.4793 34.4488 70.4793 34.4488 70.1894C34.4488 69.795 34.0091 69.5978 33.1644 69.5978C32.5511 69.5978 32.366 69.6442 32.1924 69.8298Z" fill="#5852B0"/>
<path d="M39.7252 69.8527C39.5979 70.0267 39.54 70.3747 39.54 70.8735C39.54 71.9986 39.6905 72.1494 40.7319 72.1494C41.6691 72.1494 41.7964 72.103 41.9584 71.6506C42.1319 71.2099 41.808 71.2215 41.5997 71.6506C41.4724 71.929 41.3683 71.9754 40.8591 72.0102C40.0839 72.0566 39.945 71.8826 39.945 70.9083C39.945 70.3051 39.9913 70.1311 40.1649 69.9919C40.6046 69.6787 41.6228 69.8527 41.6228 70.2355C41.6228 70.3283 41.727 70.4095 41.8542 70.4095C42.1435 70.4095 42.1435 70.2819 41.8427 69.8991C41.6228 69.6208 41.5418 69.5976 40.755 69.5976C40.0029 69.5976 39.8756 69.6324 39.7252 69.8527Z" fill="#5852B0"/>
<path d="M43.0112 69.7135C43.0112 69.7715 43.2427 69.8295 43.5319 69.8295H44.0526V70.9895C44.0526 71.9406 44.0873 72.1494 44.2262 72.1494C44.365 72.1494 44.3998 71.9406 44.3998 70.9895V69.8295H44.9204C45.2097 69.8295 45.4411 69.7715 45.4411 69.7135C45.4411 69.644 44.9552 69.5976 44.2262 69.5976C43.4972 69.5976 43.0112 69.644 43.0112 69.7135Z" fill="#5852B0"/>
<path d="M93.2295 70.8735V72.1494H94.2477C95.3817 72.1494 95.6247 72.045 95.7288 71.5114C95.7751 71.2563 95.7288 71.0707 95.5668 70.8735C95.3701 70.6299 95.2081 70.5719 94.4792 70.5255L93.6345 70.4675L93.5998 70.0267C93.5766 69.7483 93.5072 69.5976 93.3915 69.5976C93.2642 69.5976 93.2295 69.8411 93.2295 70.8735ZM95.1271 70.9431C95.3817 71.1867 95.3586 71.6506 95.0924 71.8014C94.9651 71.8594 94.6064 71.9174 94.2825 71.9174H93.6923V71.3375V70.7575H94.3172C94.7337 70.7575 95.0114 70.8155 95.1271 70.9431Z" fill="#5852B0"/>
<path d="M103.644 69.7135C103.644 69.7715 103.875 69.8295 104.164 69.8295H104.685V70.9895C104.685 72.0682 104.697 72.1494 104.916 72.1494C105.136 72.1494 105.148 72.0682 105.148 70.9895V69.8295H105.668C105.958 69.8295 106.189 69.7715 106.189 69.7135C106.189 69.644 105.692 69.5976 104.916 69.5976C104.141 69.5976 103.644 69.644 103.644 69.7135Z" fill="#5852B0"/>
<path d="M115.064 69.8064C114.775 70.1312 114.786 71.6971 115.076 71.9523C115.388 72.2423 116.846 72.2307 117.101 71.9407C117.344 71.6739 117.355 71.3375 117.124 71.3375C117.031 71.3375 116.95 71.4419 116.95 71.5695C116.95 71.8595 116.615 72.0335 116.048 72.0335C115.4 72.0335 115.214 71.7783 115.214 70.8967C115.214 70.2936 115.249 70.166 115.469 70.0152C115.955 69.6672 116.95 69.8644 116.95 70.3052C116.95 70.3632 117.031 70.4096 117.124 70.4096C117.367 70.4096 117.344 70.0268 117.089 69.7948C116.777 69.5048 115.319 69.5164 115.064 69.8064Z" fill="#5852B0"/>
<path d="M118.732 69.8414C118.42 70.1894 118.42 71.5581 118.732 71.9061C119.033 72.2424 120.514 72.2656 120.803 71.9409C121.046 71.6741 121.058 71.3377 120.826 71.3377C120.734 71.3377 120.653 71.4421 120.653 71.5697C120.653 71.8597 120.317 72.0337 119.739 72.0337C119.079 72.0337 118.917 71.8133 118.917 70.9317C118.917 70.2938 118.952 70.1662 119.172 70.0154C119.612 69.7022 120.479 69.8066 120.595 70.1894C120.688 70.4677 121 70.4793 121 70.201C121 69.7718 120.63 69.5978 119.762 69.5978C119.091 69.5978 118.917 69.6326 118.732 69.8414Z" fill="#5852B0"/>
</svg>
