<svg width="100" height="100" viewBox="0 0 100 100" fill="none" xmlns="http://www.w3.org/2000/svg">
<path d="M63.0947 39.6523L60.6328 57.1543L60.5527 57.7236H61.8369L61.0186 63.5H58.7051L59.1582 60.5361L59.2471 59.9609H51.1875L51.126 60.3896L50.6826 63.5H48.3828L49.21 57.6641C49.4922 57.5951 49.7585 57.468 49.9893 57.2861C50.327 57.0198 50.571 56.6537 50.6875 56.2402C51.0734 55.0623 51.3371 53.848 51.4736 52.6162L53.3125 39.6523H63.0947ZM28.377 39.3555C29.4442 39.2745 30.5144 39.4649 31.4883 39.9072C32.1582 40.315 32.6054 41.1088 32.6592 42.4492L32.665 42.7275C32.6525 43.3605 32.5967 43.9918 32.498 44.6172L32.4961 44.625L31.0518 54.7158C30.7234 56.9761 30.1226 58.387 29.3457 59.0967C28.5736 59.8018 27.2333 60.2108 25.1982 60.2061H25.1797L25.1621 60.207C24.0385 60.287 22.9131 60.0769 21.8945 59.5977C21.1252 59.1576 20.6621 58.2642 20.6621 56.6973C20.6622 56.1989 20.8173 54.8211 21.1396 52.5166L24.5996 52.4932L24.1396 55.7549C24.107 55.9614 24.0896 56.1699 24.085 56.3789C24.0596 56.5799 24.0769 56.7843 24.1387 56.9775C24.2044 57.1831 24.3172 57.3708 24.4678 57.5254C24.6184 57.68 24.8031 57.7978 25.0068 57.8691C25.1946 57.9348 25.394 57.957 25.5918 57.9395C26.1042 57.9367 26.5534 57.7515 26.8867 57.3652C27.1659 57.0417 27.3344 56.6111 27.4268 56.1172L27.4619 55.9014L28.2275 50.3652L28.3066 49.7969H25.1572L25.4375 47.7764H28.582L28.6465 47.3506L29.1807 43.7832C29.2116 43.5796 29.2299 43.3738 29.2363 43.168L29.2373 43.1602V43.1533C29.2373 42.758 29.1237 42.3739 28.8193 42.0977C28.5269 41.8324 28.1374 41.7392 27.7383 41.7373C27.5037 41.7168 27.2669 41.7443 27.0439 41.8213C26.8073 41.903 26.5923 42.0372 26.4141 42.2129L26.3809 42.2451L26.3545 42.2842C26.0982 42.6532 25.9304 43.0751 25.8633 43.5176L25.8428 43.6875L25.6748 45.0029H22.2295C22.396 43.9387 22.6039 43.0479 22.8525 42.3262C23.1457 41.4751 23.4836 40.8898 23.8418 40.5264C24.5541 39.804 25.9905 39.3612 28.3408 39.3564H28.3594L28.377 39.3555ZM40.708 39.6523L39.2002 50.3135L40.1592 50.5684L44.5049 39.6523H47.7158L44.8662 59.9609H41.7295L43.2236 49.3857L42.2646 49.1299L37.9268 59.9609H34.665L37.5215 39.6523H40.708ZM13.9863 39.6504C15.0077 39.5771 16.0295 39.7842 16.9414 40.248C17.6204 40.694 18.0303 41.5401 18.0303 42.9727C18.0303 43.4626 17.8804 44.7961 17.5654 47.0254C17.0938 50.3197 15.9487 52.0513 14.3193 52.5937C13.0434 52.8472 11.741 52.9453 10.4414 52.8828L9.98633 52.8603L9.92285 53.3125L8.98633 59.9609H5.5752L8.4248 39.6523H13.9678L13.9863 39.6504ZM56.1035 42.3203L54.6582 52.7217V52.7227C54.3655 54.8534 53.9402 56.2249 53.4375 56.9355L53.7881 57.1826V57.7236H57.1123L57.1729 57.2939L59.2607 42.458L59.3408 41.8887H56.1631L56.1035 42.3203ZM11.5049 42.1807L10.3486 50.2041L10.2666 50.7754H11.5635C11.9262 50.8034 12.2901 50.7339 12.6162 50.5713C12.9566 50.4015 13.2418 50.138 13.4385 49.8125L13.459 49.7793L13.4736 49.7441C13.8567 48.8104 14.1092 47.8284 14.2256 46.8262C14.4112 45.8166 14.5225 44.7943 14.5586 43.7686L14.5576 43.7676C14.5802 43.2484 14.4232 42.7371 14.1123 42.3203L14.083 42.2812L14.0459 42.248L13.8965 42.127C13.7407 42.014 13.5678 41.9263 13.3838 41.8672C13.1587 41.7949 12.9219 41.769 12.6865 41.7871L12.0264 41.7529L11.5703 41.7285L11.5049 42.1807ZM41.4424 35.5C41.448 35.9339 41.5691 36.3423 41.8896 36.6348C42.2088 36.926 42.6381 37.0215 43.0762 37.0215C43.6137 37.0214 44.0965 36.8611 44.4609 36.4922C44.7216 36.2283 44.8898 35.888 44.9902 35.5H46.5264C46.2753 36.1722 45.9081 36.6738 45.4346 37.0273C44.8226 37.4842 43.9819 37.7363 42.8662 37.7363H42.8047L42.7803 37.7422C41.6926 37.7342 40.9732 37.4985 40.5332 37.1182C40.1413 36.7793 39.9047 36.2653 39.8809 35.5H41.4424Z" fill="black" stroke="black"/>
<rect x="65.1317" y="52.2926" width="4.13685" height="1.86564" fill="black" stroke="black" stroke-width="1.86564"/>
<path d="M77.5827 45.9225H73.6892C76.8527 34.8909 85.9427 39.2711 83.5852 45.9225C82.2052 49.816 78.2046 54.3584 75.3927 57.4408H81.2329L80.6651 60.6042H71.0125L71.3369 57.1974C71.7425 56.9567 78.475 50.1404 79.854 45.9225C81.2329 40.7311 77.5827 42.8401 77.5827 45.9225Z" fill="black"/>
<path d="M85.3312 57.0378H88.0891L90.7659 44.2217L88.3325 45.1139L89.0625 41.4638C89.7114 41.1393 91.1715 40.2471 91.9826 39.1926H95.4706L91.9826 57.0378H94.4972L93.7672 60.4446H84.6012L85.3312 57.0378Z" fill="black"/>
</svg>
