<svg width="128" height="128" viewBox="0 0 128 128" fill="none" xmlns="http://www.w3.org/2000/svg">
<path d="M85.5127 56.2324C87.3846 56.2324 89.2565 56.2324 91.1851 56.2324C93.0248 58.2254 93.0248 58.2254 93.7913 59.1453C93.8925 59.1959 93.9937 59.2465 94.0979 59.2986C94.1881 59.4551 94.1881 59.4551 94.28 59.6148C94.689 60.2776 95.2272 61.0897 95.9376 61.4449C95.9376 61.5461 95.9376 61.6473 95.9376 61.7515C96.0388 61.7515 96.14 61.7515 96.2442 61.7515C96.3107 61.8653 96.3771 61.9792 96.4455 62.0964C96.7254 62.606 96.7254 62.606 97.4707 63.1313C97.4707 60.8547 97.4707 58.578 97.4707 56.2324C99.3932 56.2324 101.316 56.2324 103.296 56.2324C103.296 61.5951 103.296 66.9578 103.296 72.4831C101.526 72.4831 99.755 72.4831 97.9306 72.4831C97.6777 72.2301 97.4247 71.9771 97.1641 71.7165C97.1641 71.5647 97.1641 71.413 97.1641 71.2566C97.0629 71.2566 96.9617 71.2566 96.8575 71.2566C96.8575 71.1554 96.8575 71.0542 96.8575 70.95C96.7563 70.95 96.6551 70.95 96.5509 70.95C96.5509 70.8488 96.5509 70.7476 96.5509 70.6434C96.4497 70.6434 96.3485 70.6434 96.2442 70.6434C96.2442 70.5422 96.2442 70.441 96.2442 70.3368C96.1431 70.3368 96.0419 70.3368 95.9376 70.3368C95.9376 70.185 95.9376 70.0332 95.9376 69.8768C95.8048 69.8199 95.8048 69.8199 95.6693 69.7618C95.2709 69.5405 95.0058 69.3042 94.7112 68.957C94.7112 68.8052 94.7112 68.6534 94.7112 68.4971C94.61 68.4971 94.5088 68.4971 94.4046 68.4971C94.4046 68.3959 94.4046 68.2947 94.4046 68.1904C94.3034 68.1904 94.2022 68.1904 94.0979 68.1904C94.0979 68.0893 94.0979 67.9881 94.0979 67.8838C94.007 67.8441 93.9161 67.8044 93.8225 67.7635C93.4604 67.5638 93.2534 67.3637 92.9865 67.0502C92.8667 66.913 92.8667 66.913 92.7445 66.7729C92.5649 66.5041 92.5649 66.5041 92.5649 66.0441C92.4637 66.0441 92.3625 66.0441 92.2582 66.0441C92.2582 65.9429 92.2582 65.8418 92.2582 65.7375C92.1571 65.7375 92.0559 65.7375 91.9516 65.7375C91.9516 65.6363 91.9516 65.5351 91.9516 65.4309C91.7493 65.3803 91.5469 65.3297 91.3384 65.2776C91.3384 67.6554 91.3384 70.0332 91.3384 72.4831C89.4159 72.4831 87.4934 72.4831 85.5127 72.4831C85.5127 67.1203 85.5127 61.7576 85.5127 56.2324Z" fill="#5852B0"/>
<path d="M26.1826 56.2329C28.709 56.2298 31.2355 56.2266 33.8384 56.2234C34.6374 56.222 35.4364 56.2206 36.2596 56.2191C37.232 56.2184 37.232 56.2184 37.6867 56.2183C38.0055 56.2181 38.3244 56.2175 38.6433 56.2168C39.1251 56.2156 39.6069 56.2155 40.0887 56.2155C40.2318 56.215 40.3748 56.2144 40.5222 56.2139C41.4959 56.2155 41.4959 56.2155 41.6667 56.3863C41.6667 57.8534 41.6667 59.3206 41.6667 60.8322C38.6312 60.8322 35.5957 60.8322 32.4682 60.8322C32.4682 61.2875 32.4682 61.7428 32.4682 62.212C32.5735 62.2116 32.6788 62.2113 32.7873 62.2109C33.879 62.2075 34.9707 62.2052 36.0623 62.2035C36.4703 62.2028 36.8782 62.2017 37.2861 62.2004C37.871 62.1985 38.4558 62.1977 39.0407 62.197C39.2244 62.1962 39.408 62.1954 39.5972 62.1946C39.8504 62.1946 39.8504 62.1946 40.1087 62.1945C40.3329 62.194 40.3329 62.194 40.5616 62.1935C40.9002 62.212 40.9002 62.212 41.0535 62.3653C41.0688 62.6476 41.0735 62.9305 41.0738 63.2132C41.074 63.385 41.0742 63.5567 41.0744 63.7337C41.0739 63.9145 41.0733 64.0953 41.0726 64.2816C41.0732 64.4624 41.0738 64.6433 41.0744 64.8296C41.0742 65.0013 41.074 65.173 41.0738 65.35C41.0737 65.5088 41.0735 65.6676 41.0733 65.8312C41.0535 66.198 41.0535 66.198 40.9002 66.3513C40.6368 66.3701 40.3727 66.3785 40.1087 66.3827C39.8555 66.3873 39.8555 66.3873 39.5972 66.392C39.4136 66.3946 39.2299 66.3971 39.0407 66.3998C38.8538 66.403 38.6668 66.4061 38.4742 66.4094C37.8744 66.4195 37.2745 66.4285 36.6746 66.4375C36.2691 66.4441 35.8636 66.4508 35.458 66.4576C34.4615 66.474 33.4649 66.4896 32.4682 66.5046C32.4682 66.9599 32.4682 67.4152 32.4682 67.8843C35.6049 67.9349 38.7416 67.9855 41.9733 68.0377C41.9733 69.5554 41.9733 71.0731 41.9733 72.6369C36.7624 72.6369 31.5515 72.6369 26.1826 72.6369C26.1826 67.2236 26.1826 61.8103 26.1826 56.2329Z" fill="#5852B0"/>
<path d="M43.5063 56.3856C44.4311 56.3667 45.3558 56.3528 46.2807 56.3435C46.5952 56.3397 46.9098 56.3344 47.2242 56.3278C47.6767 56.3185 48.1291 56.3141 48.5817 56.3108C48.7219 56.3068 48.8621 56.3029 49.0066 56.2988C49.7069 56.2985 49.9993 56.3073 50.5656 56.7541C50.8177 57.0892 51.0039 57.3709 51.1621 57.7558C51.3763 58.2229 51.6024 58.5341 51.9766 58.8865C52.1853 59.0904 52.1853 59.0904 52.3982 59.2985C52.3982 59.4502 52.3982 59.602 52.3982 59.7584C52.9091 59.7152 53.114 59.6609 53.4648 59.2751C53.5586 59.1342 53.6525 58.9933 53.7492 58.8481C53.8964 58.6301 54.0444 58.4124 54.2002 58.2005C54.4073 57.9083 54.4073 57.9083 54.5887 57.522C54.8905 57.0123 55.1271 56.7241 55.6176 56.3856C56.6862 56.1268 57.8256 56.2421 58.9138 56.2898C59.2184 56.2975 59.523 56.3045 59.8276 56.3108C60.5711 56.3276 61.3136 56.354 62.0566 56.3856C61.8991 57.6468 61.8991 57.6468 61.4433 58.2253C61.2916 58.2253 61.1398 58.2253 60.9834 58.2253C60.9469 58.3079 60.9103 58.3905 60.8726 58.4756C60.6239 58.9365 60.3185 59.326 59.9965 59.7392C59.9297 59.8253 59.8628 59.9114 59.794 60.0001C59.4295 60.4688 59.0622 60.9354 58.6946 61.4017C58.6208 61.4954 58.5469 61.5891 58.4709 61.6856C58.3298 61.8644 58.1884 62.0431 58.0467 62.2214C57.1108 63.2758 57.1108 63.2758 56.6621 64.5301C56.8628 65.0161 57.0994 65.2113 57.5154 65.5206C58.077 66.0104 58.4035 66.7264 58.7509 67.3759C59.0096 67.7589 59.312 67.9912 59.6725 68.2748C60.1108 68.6843 60.384 69.2051 60.6768 69.7234C60.9055 70.126 61.0915 70.4462 61.4242 70.7678C61.8862 71.2434 62.5165 71.9462 62.5165 72.6363C60.1893 72.6363 57.8621 72.6363 55.4643 72.6363C55.262 72.2315 55.0596 71.8268 54.8511 71.4098C54.7499 71.3086 54.6487 71.2074 54.5445 71.1032C54.5445 70.9514 54.5445 70.7996 54.5445 70.6433C54.4433 70.6433 54.3421 70.6433 54.2379 70.6433C54.2379 70.5421 54.2379 70.4409 54.2379 70.3366C54.1367 70.3366 54.0355 70.3366 53.9313 70.3366C53.318 69.6693 53.318 69.6693 53.318 69.1102C52.7221 69.3087 52.4051 69.5178 52.0125 70.0061C51.872 70.1789 51.872 70.1789 51.7287 70.3552C51.6334 70.4756 51.5381 70.5959 51.44 70.7199C51.3424 70.8403 51.2448 70.9606 51.1442 71.0846C50.6516 71.6765 50.6516 71.6765 50.2519 72.3296C50.1507 72.3296 50.0495 72.3296 49.9453 72.3296C49.9453 72.4308 49.9453 72.532 49.9453 72.6363C47.7192 72.6363 45.4932 72.6363 43.1997 72.6363C43.1997 72.4845 43.1997 72.3327 43.1997 72.1763C43.3009 72.1763 43.4021 72.1763 43.5063 72.1763C43.5569 71.9234 43.6075 71.6704 43.6596 71.4098C43.7608 71.4098 43.862 71.4098 43.9662 71.4098C43.9817 71.3169 43.9971 71.224 44.013 71.1283C44.1402 70.7322 44.2671 70.6364 44.5986 70.3941C45.1844 69.9191 45.5602 69.3818 45.9778 68.7586C46.3852 68.1717 46.8396 67.6287 47.2959 67.0794C47.7461 66.536 48.1842 65.9834 48.6224 65.4302C48.8721 65.1242 48.8721 65.1242 49.1787 64.8176C49.1824 64.512 49.1824 64.512 49.1212 64.1852C49.0896 63.9891 49.058 63.7931 49.0254 63.5911C48.9242 63.5911 48.823 63.5911 48.7188 63.5911C48.1056 62.9238 48.1056 62.9238 48.1056 62.3646C48.0044 62.3646 47.9032 62.3646 47.7989 62.3646C47.1857 61.6973 47.1857 61.6973 47.1857 61.1382C47.0845 61.1382 46.9833 61.1382 46.8791 61.1382C46.8791 61.037 46.8791 60.9358 46.8791 60.8316C46.7779 60.8316 46.6767 60.8316 46.5725 60.8316C45.9592 60.1642 45.9592 60.1642 45.9592 59.6051C45.8581 59.6051 45.7569 59.6051 45.6526 59.6051C45.4215 59.3865 45.4215 59.3865 45.1735 59.0973C45.0909 59.003 45.0083 58.9087 44.9232 58.8116C44.7328 58.5319 44.7328 58.5319 44.7328 58.072C44.6316 58.072 44.5304 58.072 44.4262 58.072C44.195 57.8199 44.195 57.8199 43.9471 57.4875C43.8232 57.3248 43.8232 57.3248 43.6968 57.1587C43.5063 56.8455 43.5063 56.8455 43.5063 56.3856Z" fill="#5852B0"/>
<path d="M105.749 56.3857C111.112 56.3857 116.475 56.3857 122 56.3857C122 57.8529 122 59.3201 122 60.8317C120.33 60.8317 118.661 60.8317 116.941 60.8317C116.943 61.6599 116.944 62.4882 116.946 63.3415C116.947 63.8648 116.948 64.3881 116.948 64.9114C116.949 65.7428 116.95 66.5743 116.952 67.4057C116.954 68.0757 116.955 68.7456 116.955 69.4156C116.956 69.6718 116.956 69.928 116.957 70.1842C116.958 70.5417 116.958 70.8993 116.958 71.2569C116.959 71.3638 116.959 71.4708 116.96 71.581C116.958 72.3123 116.958 72.3123 116.787 72.4831C116.356 72.4967 115.929 72.5007 115.498 72.498C115.384 72.4979 115.269 72.4977 115.152 72.4976C114.723 72.4968 114.294 72.4946 113.865 72.4927C112.907 72.4895 111.949 72.4863 110.962 72.4831C110.962 68.6887 110.962 64.8943 110.962 60.985C109.242 60.985 107.522 60.985 105.749 60.985C105.749 59.4672 105.749 57.9495 105.749 56.3857Z" fill="#5852B0"/>
<path d="M26.1826 56.2329C28.709 56.2298 31.2355 56.2266 33.8384 56.2234C34.6374 56.222 35.4364 56.2206 36.2596 56.2191C37.232 56.2184 37.232 56.2184 37.6867 56.2183C38.0055 56.2181 38.3244 56.2175 38.6433 56.2168C39.1251 56.2156 39.6069 56.2155 40.0887 56.2155C40.2318 56.215 40.3748 56.2144 40.5222 56.2139C41.4959 56.2155 41.4959 56.2155 41.6667 56.3863C41.6667 57.8534 41.6667 59.3206 41.6667 60.8322C38.6312 60.8322 35.5957 60.8322 32.4682 60.8322C32.4682 61.2875 32.4682 61.7428 32.4682 62.212C32.5735 62.2116 32.6788 62.2113 32.7873 62.2109C33.879 62.2075 34.9707 62.2052 36.0623 62.2035C36.4703 62.2028 36.8782 62.2017 37.2861 62.2004C37.871 62.1985 38.4558 62.1977 39.0407 62.197C39.2244 62.1962 39.408 62.1954 39.5972 62.1946C39.8504 62.1946 39.8504 62.1946 40.1087 62.1945C40.3329 62.194 40.3329 62.194 40.5616 62.1935C40.9002 62.212 40.9002 62.212 41.0535 62.3653C41.0688 62.6476 41.0735 62.9305 41.0738 63.2132C41.074 63.385 41.0742 63.5567 41.0744 63.7337C41.0739 63.9145 41.0733 64.0953 41.0726 64.2816C41.0732 64.4624 41.0738 64.6433 41.0744 64.8296C41.0742 65.0013 41.074 65.173 41.0738 65.35C41.0737 65.5088 41.0735 65.6676 41.0733 65.8312C41.0535 66.198 41.0535 66.198 40.9002 66.3513C40.6368 66.3701 40.3727 66.3785 40.1087 66.3827C39.8555 66.3873 39.8555 66.3873 39.5972 66.392C39.4136 66.3946 39.2299 66.3971 39.0407 66.3998C38.8538 66.403 38.6668 66.4061 38.4742 66.4094C37.8744 66.4195 37.2745 66.4285 36.6746 66.4375C36.2691 66.4441 35.8636 66.4508 35.458 66.4576C34.4615 66.474 33.4649 66.4896 32.4682 66.5046C32.4682 66.9599 32.4682 67.4152 32.4682 67.8843C35.6049 67.9349 38.7416 67.9855 41.9733 68.0377C41.9733 69.5554 41.9733 71.0731 41.9733 72.6369C36.7624 72.6369 31.5515 72.6369 26.1826 72.6369C26.1826 67.2236 26.1826 61.8103 26.1826 56.2329ZM26.6425 56.5396C26.6425 61.6999 26.6425 66.8602 26.6425 72.177C31.5499 72.177 36.4573 72.177 41.5134 72.177C41.5134 70.9122 41.5134 69.6474 41.5134 68.3443C38.4273 68.3443 35.3412 68.3443 32.1616 68.3443C32.2122 67.6866 32.2628 67.0289 32.3149 66.3513C35.1481 66.3007 37.9812 66.2501 40.9002 66.198C40.9002 64.9838 40.9002 63.7696 40.9002 62.5186C40.2933 62.5093 39.6864 62.5 39.0611 62.4904C38.4761 62.481 37.8911 62.4712 37.3061 62.4615C36.8982 62.4548 36.4902 62.4484 36.0823 62.4423C35.4974 62.4335 34.9126 62.4237 34.3277 62.4138C34.1441 62.4112 33.9604 62.4086 33.7712 62.406C33.6024 62.4029 33.4336 62.3999 33.2597 62.3967C33.1102 62.3944 32.9608 62.392 32.8068 62.3895C32.4682 62.3653 32.4682 62.3653 32.3149 62.212C32.239 61.3772 32.239 61.3772 32.1616 60.5256C35.2477 60.5256 38.3338 60.5256 41.5134 60.5256C41.5134 59.2102 41.5134 57.8948 41.5134 56.5396C36.606 56.5396 31.6986 56.5396 26.6425 56.5396Z" fill="#5852B0"/>
<path fill-rule="evenodd" clip-rule="evenodd" d="M16.3325 56.3211C17.9404 56.3001 19.2926 56.462 20.8169 56.9988V57.3055C20.9023 57.3244 20.9877 57.3436 21.0757 57.3631C22.0021 57.6135 22.2915 57.8589 22.8101 58.6854C23.0187 58.8845 23.019 58.8845 23.2319 59.0877C23.5767 59.4517 23.5767 59.4521 23.5767 60.0652L24.0366 60.2186C24.1707 63.7462 24.1705 63.7465 23.4233 65.1238C23.0701 65.448 22.8066 65.5596 22.3501 65.7371L22.0435 66.0438H21.5835L21.4302 66.5037C20.9703 66.8103 20.9702 66.8104 20.5103 66.8104C20.583 66.9779 20.6561 67.1456 20.731 67.3182C20.8788 67.6588 21.0058 67.9902 21.1235 68.3436H21.4302C22.1967 69.1831 22.1968 69.1832 22.1968 69.5701L22.6567 69.7234C22.8369 70.0078 22.8371 70.0078 23.0112 70.365C23.2701 70.8623 23.5185 71.2316 23.9312 71.6111C24.3431 72.0231 24.3433 72.0233 24.3433 72.6365C23.3995 72.6631 22.4553 72.6822 21.5112 72.6951C21.1905 72.7005 20.8699 72.7083 20.5493 72.7176C20.0873 72.7306 19.6248 72.7363 19.1626 72.741C18.9488 72.7493 18.9484 72.7492 18.73 72.7576C17.7552 72.7582 17.755 72.7586 17.3042 72.409C16.7858 71.8229 16.5216 71.2105 16.2183 70.49C15.7271 69.7451 15.1459 69.0719 14.5474 68.4119C14.3785 68.1903 14.3784 68.1902 14.3784 67.8836H12.9985V72.3299H7.32568V56.3856C9.15317 56.3729 10.9809 56.3605 12.8638 56.3475C13.7229 56.3391 13.7236 56.3394 14.6001 56.3309C15.3102 56.3281 15.3104 56.3275 15.645 56.327C15.8741 56.326 16.1035 56.3243 16.3325 56.3211ZM13.1519 60.8318V64.0516C13.5313 64.0633 13.911 64.0737 14.2905 64.0809C14.4505 64.0837 14.6059 64.0869 14.7612 64.0897C15.8244 64.1259 16.8987 64.1799 17.7505 63.4383C17.9024 63.0067 17.9212 62.6458 17.8755 62.1922C17.751 61.5983 17.7504 61.5985 17.4438 61.3973C17.2891 61.3441 17.289 61.344 17.1372 61.2918L16.9839 60.8318H13.1519Z" fill="#5852B0"/>
<path d="M105.749 56.3857C111.112 56.3857 116.475 56.3857 122 56.3857C122 57.8529 122 59.3201 122 60.8317C120.33 60.8317 118.661 60.8317 116.941 60.8317C116.943 61.6599 116.944 62.4882 116.946 63.3415C116.947 63.8648 116.948 64.3881 116.948 64.9114C116.949 65.7428 116.95 66.5743 116.952 67.4057C116.954 68.0757 116.955 68.7456 116.955 69.4156C116.956 69.6718 116.956 69.928 116.957 70.1842C116.958 70.5417 116.958 70.8993 116.958 71.2569C116.959 71.3638 116.959 71.4708 116.96 71.581C116.958 72.3123 116.958 72.3123 116.787 72.4831C116.356 72.4967 115.929 72.5007 115.498 72.498C115.384 72.4979 115.269 72.4977 115.152 72.4976C114.723 72.4968 114.294 72.4946 113.865 72.4927C112.907 72.4895 111.949 72.4863 110.962 72.4831C110.962 68.6887 110.962 64.8943 110.962 60.985C109.242 60.985 107.522 60.985 105.749 60.985C105.749 59.4672 105.749 57.9495 105.749 56.3857ZM105.903 56.5391C105.903 57.905 105.903 59.271 105.903 60.6784C108.407 60.7543 108.407 60.7543 110.962 60.8317C111.012 64.5754 111.063 68.3192 111.115 72.1765C112.936 72.1765 114.758 72.1765 116.634 72.1765C116.643 71.3593 116.653 70.5421 116.662 69.7002C116.668 69.1839 116.675 68.6675 116.681 68.1512C116.691 67.3309 116.701 66.5106 116.71 65.6903C116.718 65.0292 116.726 64.3682 116.734 63.7072C116.737 63.4544 116.74 63.2017 116.743 62.9489C116.747 62.5961 116.751 62.2433 116.756 61.8905C116.758 61.6893 116.761 61.4881 116.763 61.2808C116.787 60.8317 116.787 60.8317 116.941 60.6784C117.305 60.6539 117.665 60.6386 118.029 60.6299C118.138 60.6267 118.246 60.6235 118.358 60.6202C118.707 60.6101 119.055 60.6011 119.403 60.5921C119.639 60.5855 119.875 60.5788 120.11 60.5721C120.689 60.5555 121.268 60.5403 121.847 60.5251C121.847 59.2097 121.847 57.8943 121.847 56.5391C116.585 56.5391 111.324 56.5391 105.903 56.5391Z" fill="#5852B0"/>
<path d="M8.10645 56.0596C8.30654 56.0591 8.50663 56.0587 8.71279 56.0582C8.93312 56.0584 9.15346 56.0588 9.37379 56.0591C9.59859 56.059 9.82339 56.0589 10.0482 56.0587C10.5204 56.0584 10.9926 56.0588 11.4649 56.0595C12.0692 56.0603 12.6735 56.0598 13.2779 56.0589C13.7427 56.0584 14.2075 56.0586 14.6723 56.0589C14.895 56.0591 15.1177 56.0589 15.3405 56.0586C15.6527 56.0582 15.965 56.0589 16.2773 56.0596C16.4549 56.0597 16.6325 56.0599 16.8154 56.06C17.2478 56.0777 17.6369 56.1337 18.0572 56.2328C18.0572 56.2834 18.0572 56.334 18.0572 56.3861C14.5158 56.3861 10.9744 56.3861 7.32569 56.3861C7.32569 61.6476 7.32569 66.9091 7.32569 72.3301C9.19758 72.3301 11.0695 72.3301 12.9981 72.3301C12.9981 70.8629 12.9981 69.3958 12.9981 67.8842C13.4534 67.8842 13.9087 67.8842 14.3779 67.8842C14.3779 67.9348 14.3779 67.9854 14.3779 68.0375C13.9731 68.0375 13.5684 68.0375 13.1514 68.0375C13.1514 69.5552 13.1514 71.073 13.1514 72.6367C11.1277 72.6367 9.10406 72.6367 7.01907 72.6367C7.01562 70.5006 7.0128 68.3644 7.01113 66.2282C7.01033 65.2364 7.00924 64.2447 7.00751 63.2529C7.00585 62.2966 7.00493 61.3404 7.00453 60.3841C7.00424 60.0184 7.00369 59.6526 7.00287 59.2869C7.00176 58.7766 7.0016 58.2663 7.00167 57.756C7.00112 57.6032 7.00057 57.4503 7 57.2929C7.00021 57.1546 7.00042 57.0164 7.00064 56.874C7.0005 56.7531 7.00036 56.6323 7.00021 56.5078C7.04349 55.8767 7.59348 56.06 8.10645 56.0596Z" fill="#5852B0"/>
<path d="M85.2061 56.2324C85.3072 56.2324 85.4084 56.2324 85.5127 56.2324C85.5127 61.5951 85.5127 66.9578 85.5127 72.4831C87.4352 72.4831 89.3576 72.4831 91.3384 72.4831C91.3384 70.1053 91.3384 67.7275 91.3384 65.2776C91.5407 65.3282 91.7431 65.3788 91.9516 65.4309C91.9516 65.5321 91.9516 65.6333 91.9516 65.7375C91.8504 65.7375 91.7492 65.7375 91.645 65.7375C91.645 68.0141 91.645 70.2908 91.645 72.6364C89.5201 72.6364 87.3953 72.6364 85.2061 72.6364C85.2061 67.2231 85.2061 61.8098 85.2061 56.2324Z" fill="#5852B0"/>
<path fill-rule="evenodd" clip-rule="evenodd" d="M71.9939 56.0086C72.1244 56.0087 72.2549 56.0085 72.3894 56.0086C72.6653 56.0095 72.9417 56.0126 73.2175 56.0164C73.6401 56.022 74.0625 56.0223 74.4851 56.0223C74.7533 56.0238 75.0216 56.0251 75.2898 56.0271C75.4793 56.0277 75.4794 56.0276 75.6726 56.0281C76.2695 56.038 76.5733 56.0472 77.0808 56.3855C77.2629 56.9413 77.2629 56.9414 77.3875 57.4588H77.6941V58.2254H78.0007L78.3074 59.6053H78.614V60.2186H78.9207C78.9339 60.3259 78.9471 60.4332 78.9607 60.5438C79.0961 61.4583 79.2805 62.1178 79.8367 62.8621C79.9936 63.131 79.9939 63.1317 79.9939 63.7449H80.3005V64.3572H80.6072C80.712 64.6517 80.8168 64.9466 80.9216 65.241C81.0621 65.5965 81.0618 65.5969 81.2908 65.9461C81.5579 66.4045 81.7149 66.8537 81.8816 67.3572C82.1941 68.2613 82.5712 69.0936 83.0242 69.9354C83.2097 70.3294 83.3018 70.6743 83.3669 71.1033H83.6726L83.8259 72.4832H77.5408L76.6208 70.6434C73.5856 70.5675 73.5854 70.5675 70.489 70.49L70.3357 71.2566L69.8757 71.41C69.8821 71.5269 69.8878 71.644 69.8943 71.7645C69.8751 72.1764 69.8757 72.1767 69.5691 72.6365C69.2936 72.6918 69.2931 72.6914 68.9568 72.6883C68.7683 72.6882 68.7682 72.6883 68.5759 72.6883C68.44 72.6859 68.3038 72.6839 68.1638 72.6814C68.0247 72.6808 67.8852 72.6802 67.7419 72.6795C67.2969 72.6769 66.852 72.6707 66.407 72.6648C66.1056 72.6625 65.804 72.6609 65.5027 72.659C64.7629 72.6539 64.0227 72.646 63.283 72.6365V71.41H63.5896V70.7967H63.8962V70.0301H64.2029V69.4168H64.6628C64.6942 69.3226 64.7262 69.2287 64.7585 69.1316C65.0176 68.3546 65.0171 68.354 65.2761 67.577H65.5828C65.5954 67.4758 65.6078 67.3745 65.6208 67.2703C65.7208 66.8704 65.8347 66.596 66.0232 66.2361C66.3652 65.582 66.594 64.9085 66.8093 64.2039H67.116C67.2171 63.7489 67.3184 63.2938 67.4226 62.825H67.7292C67.7735 62.6669 67.8174 62.5084 67.863 62.3455C67.966 61.9832 68.0776 61.6293 68.199 61.2723C68.33 60.8705 68.4225 60.4808 68.4958 60.0652H68.8025C68.8246 59.9515 68.8461 59.8376 68.8689 59.7205C68.9401 59.3725 69.02 59.0291 69.1091 58.6854H69.4158V57.9188H69.7224V57.3055H70.0291V56.6922C70.5324 55.9208 71.1568 55.994 71.9939 56.0086ZM73.5544 62.9783C73.2441 63.3145 73.092 63.5983 72.9412 64.032C72.889 64.1949 72.8384 64.3534 72.7878 64.5115C72.3919 65.2559 72.3037 65.6077 72.1755 66.5047H75.0876C75.0876 65.8297 75.0473 65.5541 74.781 64.9715H74.4744C74.4744 64.3583 74.4747 64.3576 74.3406 63.9959C74.282 63.8714 74.2246 63.7505 74.1677 63.6297C74.0666 63.4121 73.9647 63.1947 73.8611 62.9783H73.5544Z" fill="#5852B0"/>
<path d="M71.9935 56.0086C72.1243 56.0087 72.255 56.0089 72.3898 56.009C72.6657 56.0099 72.9416 56.0124 73.2174 56.0162C73.64 56.0218 74.0624 56.0224 74.4851 56.0224C74.7533 56.0239 75.0215 56.0257 75.2897 56.0278C75.4794 56.0283 75.4794 56.0283 75.673 56.0288C76.2699 56.0387 76.5732 56.0475 77.0808 56.3859C77.2629 56.9416 77.2629 56.9416 77.3875 57.459C77.4886 57.459 77.5898 57.459 77.6941 57.459C77.6941 57.712 77.6941 57.9649 77.6941 58.2256C77.7953 58.2256 77.8964 58.2256 78.0007 58.2256C78.1019 58.6809 78.2031 59.1362 78.3073 59.6053C78.4085 59.6053 78.5097 59.6053 78.6139 59.6053C78.6139 59.8077 78.6139 60.0101 78.6139 60.2186C78.7151 60.2186 78.8163 60.2186 78.9205 60.2186C78.9205 60.4715 78.9205 60.7245 78.9205 60.9851C78.0192 60.1449 77.6845 58.8922 77.2869 57.7585C77.0575 57.2544 76.91 57.0258 76.4676 56.6925C76.005 56.6284 75.5962 56.5998 75.1334 56.5991C74.9407 56.5953 74.9407 56.5953 74.7441 56.5914C74.3349 56.5839 73.9257 56.5807 73.5164 56.5775C73.2386 56.5732 72.9607 56.5686 72.6828 56.5637C72.0025 56.5524 71.3223 56.5448 70.6419 56.5392C70.6194 56.633 70.5969 56.7269 70.5736 56.8236C70.4746 57.2065 70.3348 57.554 70.182 57.9189C70.1124 58.0992 70.0429 58.2794 69.9712 58.4651C69.731 58.9733 69.505 59.2224 69.1088 59.6053C68.9881 59.9331 68.9881 59.9331 68.9555 60.2186C68.8543 60.2186 68.7532 60.2186 68.6489 60.2186C68.5983 60.3703 68.5477 60.5221 68.4956 60.6785C68.4956 60.4761 68.4956 60.2738 68.4956 60.0653C68.5968 60.0653 68.698 60.0653 68.8022 60.0653C68.8354 59.8945 68.8354 59.8945 68.8693 59.7203C68.9405 59.3723 69.0197 59.0293 69.1088 58.6855C69.21 58.6855 69.3112 58.6855 69.4155 58.6855C69.4155 58.4325 69.4155 58.1796 69.4155 57.9189C69.5166 57.9189 69.6178 57.9189 69.7221 57.9189C69.7221 57.7166 69.7221 57.5142 69.7221 57.3057C69.8233 57.3057 69.9244 57.3057 70.0287 57.3057C70.0287 57.1034 70.0287 56.901 70.0287 56.6925C70.5321 55.9208 71.1564 55.994 71.9935 56.0086Z" fill="#5852B0"/>
<path d="M56.6908 64.9707C57.7221 65.6178 58.1852 66.3182 58.7509 67.3757C59.0096 67.7587 59.312 67.991 59.6725 68.2746C60.1108 68.6842 60.3839 69.205 60.6768 69.7232C60.9055 70.1258 61.0915 70.446 61.4242 70.7677C61.8862 71.2432 62.5165 71.946 62.5165 72.6361C60.1893 72.6361 57.8621 72.6361 55.4643 72.6361C55.3631 72.3831 55.262 72.1302 55.1577 71.8696C55.2589 71.8696 55.3601 71.8696 55.4643 71.8696C55.4643 71.9707 55.4643 72.0719 55.4643 72.1762C57.6398 72.2268 59.8152 72.2774 62.0566 72.3295C62.0566 72.2283 62.0566 72.1271 62.0566 72.0229C61.9554 72.0229 61.8542 72.0229 61.75 72.0229C61.326 71.5442 61.0046 71.0361 60.6768 70.4898C60.5725 70.3633 60.4681 70.2368 60.3606 70.1065C60.0636 69.7232 60.0636 69.7232 59.9007 69.3017C59.8295 69.1309 59.8295 69.1309 59.757 68.9567C59.6052 68.9061 59.4534 68.8555 59.297 68.8034C59.1404 68.5499 58.9879 68.2938 58.8371 68.0369C58.6833 67.8557 58.5265 67.677 58.3676 67.5003C57.9988 67.0842 57.8098 66.7179 57.6106 66.1972C57.4589 66.1466 57.3071 66.096 57.1507 66.0439C56.6908 65.3795 56.6908 65.3795 56.6908 64.9707Z" fill="#5852B0"/>
<path d="M64.2031 69.417C64.3042 69.4676 64.4054 69.5182 64.5097 69.5703C64.4591 69.7727 64.4085 69.975 64.3564 70.1835C64.2552 70.1835 64.154 70.1835 64.0497 70.1835C64.0592 70.2847 64.0687 70.3859 64.0785 70.4901C64.0497 70.9501 64.0497 70.9501 63.5898 72.1765C65.5629 72.1259 67.536 72.0754 69.5688 72.0232C69.6194 71.7703 69.67 71.5173 69.7221 71.2567C69.8233 71.2061 69.9245 71.1555 70.0288 71.1034C70.1299 70.8504 70.2311 70.5975 70.3354 70.3368C72.4096 70.3368 74.4839 70.3368 76.621 70.3368C76.621 70.3874 76.621 70.438 76.621 70.4901C74.5973 70.4901 72.5737 70.4901 70.4887 70.4901C70.4381 70.7431 70.3875 70.9961 70.3354 71.2567C70.1836 71.3073 70.0318 71.3579 69.8754 71.41C69.8818 71.527 69.8881 71.644 69.8946 71.7645C69.8754 72.1765 69.8754 72.1765 69.5688 72.6365C69.2933 72.6918 69.2933 72.6918 68.957 72.6887C68.7683 72.6886 68.7683 72.6886 68.5757 72.6886C68.4398 72.6862 68.3039 72.6838 68.1639 72.6814C68.0248 72.6807 67.8857 72.6801 67.7424 72.6794C67.2972 72.6768 66.8521 72.671 66.4069 72.6652C66.1054 72.6629 65.804 72.6608 65.5026 72.6589C64.7627 72.6538 64.023 72.6459 63.2832 72.6365C63.2832 72.2317 63.2832 71.827 63.2832 71.41C63.3844 71.41 63.4856 71.41 63.5898 71.41C63.5898 71.2076 63.5898 71.0053 63.5898 70.7968C63.691 70.7968 63.7922 70.7968 63.8964 70.7968C63.8964 70.5438 63.8964 70.2908 63.8964 70.0302C63.9976 70.0302 64.0988 70.0302 64.2031 70.0302C64.2031 69.8279 64.2031 69.6255 64.2031 69.417Z" fill="#5852B0"/>
<path d="M40.9 66.1973C40.9759 66.4249 40.9759 66.4249 41.0533 66.6572C38.2708 66.6572 35.4883 66.6572 32.6214 66.6572C32.6214 67.0619 32.6214 67.4667 32.6214 67.8837C35.6063 67.8837 38.5912 67.8837 41.6666 67.8837C41.6666 67.9342 41.6666 67.9848 41.6666 68.037C40.4699 68.0405 39.2732 68.0432 38.0765 68.0449C37.5209 68.0457 36.9653 68.0468 36.4097 68.0485C35.8739 68.0502 35.3381 68.0511 34.8023 68.0515C34.4975 68.0519 34.1927 68.0531 33.8879 68.0543C33.7038 68.0543 33.5196 68.0544 33.3299 68.0544C33.0853 68.0549 33.0853 68.0549 32.8357 68.0554C32.4681 68.037 32.4681 68.037 32.3148 67.8837C32.2998 67.6541 32.2949 67.4238 32.2956 67.1938C32.2952 67.0689 32.2948 66.944 32.2944 66.8153C32.3148 66.5039 32.3148 66.5039 32.4681 66.3506C32.7314 66.3317 32.9955 66.3233 33.2595 66.3191C33.5127 66.3145 33.5127 66.3145 33.7711 66.3098C34.0465 66.306 34.0465 66.306 34.3276 66.3021C34.608 66.2973 34.608 66.2973 34.894 66.2924C35.4939 66.2824 36.0938 66.2733 36.6937 66.2643C37.0992 66.2577 37.5047 66.251 37.9102 66.2443C38.9068 66.2278 39.9034 66.2122 40.9 66.1973Z" fill="#5852B0"/>
<path d="M32.0081 60.6787C32.0587 60.6787 32.1093 60.6787 32.1614 60.6787C32.1707 60.7876 32.18 60.8965 32.1896 61.0087C32.2024 61.1496 32.2153 61.2905 32.2285 61.4357C32.241 61.5762 32.2534 61.7167 32.2662 61.8615C32.278 62.2059 32.278 62.2059 32.4681 62.3651C32.7314 62.384 32.9955 62.3924 33.2595 62.3966C33.4283 62.3996 33.5971 62.4027 33.771 62.4058C33.9547 62.4084 34.1383 62.411 34.3275 62.4136C34.5145 62.4168 34.7014 62.42 34.894 62.4233C35.4939 62.4333 36.0937 62.4423 36.6936 62.4513C37.0991 62.458 37.5047 62.4646 37.9102 62.4714C38.9068 62.488 39.9034 62.5032 40.9 62.5184C40.9 63.7326 40.9 64.9468 40.9 66.1978C38.0669 66.2484 35.2337 66.299 32.3148 66.3511C32.2642 66.9076 32.2136 67.4641 32.1614 68.0375C32.1109 68.0375 32.0603 68.0375 32.0081 68.0375C32.004 67.7341 32.001 67.4307 31.9986 67.1272C31.9968 66.9583 31.995 66.7893 31.9932 66.6152C32.0081 66.1978 32.0081 66.1978 32.1614 66.0445C32.4296 66.0301 32.6984 66.0265 32.9669 66.0271C33.1388 66.0271 33.3107 66.0271 33.4878 66.0271C33.7683 66.0283 33.7683 66.0283 34.0544 66.0295C34.3399 66.0298 34.3399 66.0298 34.6312 66.0302C35.1381 66.0309 35.6449 66.0323 36.1518 66.034C36.6686 66.0355 37.1855 66.0362 37.7024 66.037C38.7172 66.0387 39.7319 66.0413 40.7467 66.0445C40.7467 64.9315 40.7467 63.8185 40.7467 62.6717C40.4874 62.6725 40.2281 62.6733 39.961 62.6741C39.1062 62.6766 38.2513 62.6784 37.3965 62.6797C36.878 62.6805 36.3595 62.6815 35.841 62.6833C35.2455 62.6853 34.65 62.686 34.0544 62.6867C33.8674 62.6875 33.6804 62.6883 33.4878 62.6891C33.23 62.6891 33.23 62.6891 32.9669 62.6891C32.8148 62.6895 32.6626 62.6898 32.5058 62.6902C32.1614 62.6717 32.1614 62.6717 32.0081 62.5184C31.997 62.2088 31.9953 61.8988 31.9986 61.589C31.9999 61.4196 32.0013 61.2503 32.0027 61.0758C32.0045 60.9447 32.0063 60.8137 32.0081 60.6787Z" fill="#5852B0"/>
<path d="M13.1514 60.832C14.4162 60.832 15.6809 60.832 16.9841 60.832C17.0347 60.9838 17.0852 61.1356 17.1374 61.292C17.2891 61.3441 17.2891 61.3441 17.444 61.3974C17.7506 61.5986 17.7506 61.5986 17.8752 62.1926C17.9209 62.6462 17.9026 63.0067 17.7506 63.4383C16.8988 64.18 15.8244 64.1261 14.7611 64.0898C14.6058 64.0871 14.4504 64.0843 14.2904 64.0814C13.9107 64.0743 13.531 64.0633 13.1514 64.0515C13.1514 62.9891 13.1514 61.9266 13.1514 60.832ZM13.3047 61.1386C13.3047 61.9987 13.3047 62.8588 13.3047 63.7449C15.5411 63.9051 15.5411 63.9051 17.5973 63.285C17.659 62.9221 17.659 62.9221 17.6356 62.5184C17.6333 62.3825 17.6309 62.2465 17.6284 62.1064C17.6188 61.748 17.6188 61.748 17.444 61.4453C17.2922 61.4453 17.1404 61.4453 16.9841 61.4453C16.9841 61.3441 16.9841 61.2429 16.9841 61.1386C15.7699 61.1386 14.5557 61.1386 13.3047 61.1386Z" fill="#5852B0"/>
<path d="M91.3384 65.2773C91.5408 65.3279 91.7431 65.3785 91.9516 65.4307C91.9516 65.5318 91.9516 65.633 91.9516 65.7373C91.8504 65.7373 91.7493 65.7373 91.645 65.7373C91.645 68.0139 91.645 70.2905 91.645 72.6361C89.6213 72.6361 87.5977 72.6361 85.5127 72.6361C85.5127 72.5855 85.5127 72.5349 85.5127 72.4828C87.4352 72.4828 89.3577 72.4828 91.3384 72.4828C91.3384 70.105 91.3384 67.7272 91.3384 65.2773Z" fill="#5852B0"/>
<path d="M83.2131 70.3369C83.3143 70.3369 83.4155 70.3369 83.5197 70.3369C83.5197 70.5393 83.5197 70.7416 83.5197 70.9501C83.6209 70.9501 83.7221 70.9501 83.8263 70.9501C83.8263 71.1525 83.8263 71.3549 83.8263 71.5634C83.9275 71.5634 84.0287 71.5634 84.1329 71.5634C84.2088 72.1705 84.2088 72.1705 84.2862 72.7898C82.0096 72.7898 79.733 72.7898 77.3874 72.7898C77.3874 72.6381 77.3874 72.4863 77.3874 72.3299C77.2862 72.3299 77.185 72.3299 77.0808 72.3299C76.929 71.7734 76.7772 71.2169 76.6208 70.6435C77.0313 70.8487 77.0733 71.0606 77.2532 71.4771C77.3074 71.6003 77.3615 71.7234 77.4173 71.8502C77.5407 72.1766 77.5407 72.1766 77.5407 72.4832C79.615 72.4832 81.6892 72.4832 83.8263 72.4832C83.7504 71.8002 83.7504 71.8002 83.673 71.1035C83.5718 71.1035 83.4706 71.1035 83.3664 71.1035C83.2905 70.724 83.2905 70.724 83.2131 70.3369Z" fill="#5852B0"/>
<path d="M16.6775 71.2568C17.5782 71.8317 17.5782 71.8317 17.7506 72.1767C20.862 72.2526 20.862 72.2526 24.0363 72.33C23.8339 72.077 23.6315 71.8241 23.423 71.5635C23.4736 71.4623 23.5242 71.3611 23.5763 71.2568C23.9596 71.6018 23.9596 71.6018 24.3429 72.0234C24.3429 72.2257 24.3429 72.4281 24.3429 72.6366C23.3991 72.6632 22.4555 72.6826 21.5114 72.6956C21.1905 72.7009 20.8696 72.7083 20.5487 72.7176C20.0867 72.7306 19.625 72.7367 19.1628 72.7414C18.9486 72.7497 18.9486 72.7497 18.73 72.7582C17.7539 72.7588 17.7539 72.7588 17.2959 72.4013C16.6775 71.7048 16.6775 71.7048 16.6775 71.2568Z" fill="#5852B0"/>
<path d="M44.5795 70.3369C44.5795 70.8563 44.485 70.9965 44.2058 71.4197C43.9148 71.8644 43.9148 71.8644 43.6596 72.3299C45.7339 72.3299 47.8081 72.3299 49.9453 72.3299C49.9453 72.4311 49.9453 72.5323 49.9453 72.6365C47.7192 72.6365 45.4932 72.6365 43.1997 72.6365C43.1997 72.4848 43.1997 72.333 43.1997 72.1766C43.3009 72.1766 43.4021 72.1766 43.5063 72.1766C43.5569 71.9237 43.6075 71.6707 43.6596 71.4101C43.7608 71.4101 43.862 71.4101 43.9662 71.4101C43.99 71.2725 43.99 71.2725 44.0142 71.1322C44.1332 70.7535 44.2837 70.5941 44.5795 70.3369Z" fill="#5852B0"/>
<path d="M56.6909 64.9707C57.7222 65.6178 58.1853 66.3182 58.751 67.3757C59.0098 67.7587 59.3121 67.991 59.6726 68.2746C60.1109 68.6842 60.3841 69.205 60.6769 69.7232C60.9854 70.2661 61.2919 70.6764 61.7501 71.103C61.6742 71.2548 61.6742 71.2548 61.5968 71.4096C61.3754 71.1966 61.1553 70.9824 60.9356 70.7677C60.8129 70.6485 60.6902 70.5293 60.5637 70.4065C59.7571 69.5302 59.7571 69.5302 59.7571 68.9567C59.6053 68.9061 59.4535 68.8555 59.2972 68.8034C59.1406 68.5499 58.9881 68.2938 58.8372 68.0369C58.6834 67.8557 58.5267 67.677 58.3677 67.5003C57.9989 67.0842 57.8099 66.7179 57.6108 66.1972C57.459 66.1466 57.3072 66.096 57.1508 66.0439C56.6909 65.3795 56.6909 65.3795 56.6909 64.9707Z" fill="#5852B0"/>
<path d="M97.1643 56.2324C97.2654 56.2324 97.3666 56.2324 97.4709 56.2324C97.4709 58.509 97.4709 60.7857 97.4709 63.1313C96.8576 62.8247 96.8576 62.8247 96.551 62.3647C96.7028 62.3647 96.8546 62.3647 97.0109 62.3647C97.0615 60.3411 97.1121 58.3174 97.1643 56.2324Z" fill="#5852B0"/>
</svg>
