<svg width="100" height="100" viewBox="0 0 100 100" fill="none" xmlns="http://www.w3.org/2000/svg">
<path fill-rule="evenodd" clip-rule="evenodd" d="M86.6025 56.7196L83.6683 51.5832C83.4418 51.1793 83.1341 50.5423 83.2028 49.9847L82.0847 56.7196H78.0493L80.253 43.4527H84.2872L83.2193 49.8855C83.3194 49.4032 83.7043 48.8405 84.0276 48.4554L88.2151 43.4527H93L87.7509 48.9313C87.1895 49.5182 87.0898 49.8015 87.0699 49.917C86.9983 50.3516 87.3147 50.8067 87.5328 51.1098L91.4574 56.7196H86.6025V56.7196ZM33.636 49.5937C34.1351 49.5937 34.629 49.6323 35.0312 49.2535C35.2651 49.0258 35.4526 48.6466 35.5448 48.0966C35.601 47.7563 35.6347 47.3381 35.3601 47.0541C35.0712 46.751 34.6078 46.751 34.1427 46.751H31.2028L30.7423 49.5937H33.636V49.5937ZM25.5239 56.7209L27.7439 43.4527H36.7969C37.7973 43.4527 38.7051 43.5865 39.2693 44.3817C39.7467 45.0453 39.9125 46.0881 39.5946 48.0017C39.4412 48.9313 38.9913 51.2043 37.7785 52.1716C37.0993 52.7023 36.1399 52.8913 35.4611 52.8913H30.1947L29.5608 56.7209H25.5239V56.7209ZM44.4627 52.6068C44.8526 53.4794 45.5493 53.5735 46.5684 53.5735C47.6215 53.5735 48.2985 53.4794 48.9958 52.6068C49.5804 51.8868 49.7045 51.1468 49.8799 50.0863C50.0711 48.9313 50.1933 48.3048 49.8337 47.5651C49.4258 46.6942 48.7802 46.5991 47.7268 46.5991C46.6911 46.5991 45.9782 46.6942 45.2994 47.5651C44.7365 48.2664 44.5993 48.9861 44.4162 50.0863C44.2435 51.1284 44.1613 51.9433 44.4627 52.6068V52.6068ZM53.5114 44.6657C54.6486 45.9923 54.3175 48.3048 54.0225 50.0863C53.7322 51.8307 53.2911 54.161 51.7103 55.5075C50.1724 56.8153 47.8771 56.8717 46.02 56.8717C44.1635 56.8717 41.8882 56.8153 40.7844 55.5075C39.6498 54.161 39.9844 51.8307 40.2743 50.0863C40.5692 48.3048 41.0072 45.9923 42.5855 44.6657C44.1404 43.3572 46.382 43.3008 48.2738 43.3008C50.168 43.3008 52.3885 43.3572 53.5114 44.6657V44.6657ZM59.4665 56.7198C57.5205 56.7198 56.2646 56.4353 55.4702 55.0908C54.8844 54.1037 54.7079 52.7969 55.1306 50.2573C55.4979 48.038 55.9716 46.3713 57.0632 45.1775C58.4633 43.6237 60.3141 43.4528 61.724 43.4528H67.0086L66.4614 46.7498H63.1217C61.8005 46.7498 60.8227 46.7313 60.0919 47.7935C59.6249 48.4555 59.3919 49.5373 59.2856 50.1806C59.0398 51.6596 59.1541 52.1523 59.2225 52.379C59.5865 53.4214 60.7461 53.4214 62.0854 53.4214H65.5479L65.0011 56.7198H59.4665V56.7198ZM66.8457 53.4216H70.1738C71.459 53.4216 72.0585 53.2519 72.3859 53.1199C73.3407 52.7393 73.6593 51.9999 73.7334 51.4517H67.1805L67.6773 48.4553H74.2301C74.217 47.68 73.8084 47.338 73.5347 47.1677C72.9842 46.8256 72.3172 46.7498 71.514 46.7498H67.7111L68.2593 43.4516H74.2411C76.1505 43.4516 77.1856 44.0965 77.716 44.7788C78.6833 46.0498 78.4167 48.1899 78.1218 49.9726C77.6742 52.6635 77.1068 54.4646 75.7254 55.5825C74.5297 56.5498 73.0004 56.7198 72.037 56.7198H66.2983L66.8457 53.4216V53.4216Z" fill="black"/>
<path fill-rule="evenodd" clip-rule="evenodd" d="M13.0716 54.4512L14.9298 51.338L13.5687 49.0596L8.93018 56.832H21.9456L23.3692 54.4512H13.0716ZM15.4264 51.6278L14.067 53.9058H23.3434L16.8357 43.0028L13.9916 43L19.1419 51.629L15.4264 51.6279V51.6278ZM15.4264 51.0623H18.1461L13.5078 43.288C13.5078 43.288 7.08357 54.0518 7 54.1933C7.07579 54.3216 8.42106 56.5785 8.42106 56.5785L13.5694 47.9498L15.4264 51.0623V51.0623Z" fill="black"/>
</svg>
