<svg width="100" height="100" viewBox="0 0 100 100" fill="none" xmlns="http://www.w3.org/2000/svg">
<path d="M45.5967 26.2793C42.2787 26.7329 39.7245 27.9981 37.6477 30.1703C35.4993 32.4619 34.7355 34.5387 34.5684 38.5729C34.3774 43.2755 35.3322 46.1639 37.9819 48.8852C39.7245 50.6516 41.658 51.6542 44.3793 52.1793C46.7426 52.6329 50.6096 52.6329 52.758 52.1793C57.5322 51.1768 60.9696 47.7871 61.9722 43.1084C62.4258 40.9839 62.378 36.7348 61.8529 34.9923C60.5638 30.6239 57.4367 27.6639 53.0684 26.6374C51.1348 26.2077 47.4348 26.0168 45.5967 26.2793ZM51.1348 32.7484C52.4716 33.3929 53.4503 34.849 53.8561 36.7587C54.1426 38.2148 54.0232 41.5568 53.5935 43.0129C52.9251 45.3284 51.1348 46.5935 48.5329 46.6174C44.5942 46.6413 42.8038 44.3497 42.8277 39.3129C42.8277 35.971 43.4006 34.3716 45.0477 33.1303C46.6471 31.9129 49.0819 31.7458 51.1348 32.7484Z" fill="black"/>
<path d="M76.7961 26.2794C73.4542 26.7568 71.0194 27.9265 69.062 30.0271C66.8897 32.3665 66.0065 35.0161 66.0065 39.2174C66.0065 43.6336 66.8897 46.1877 69.3961 48.8374C72.0458 51.6781 75.0774 52.6568 80.5678 52.4658C83.0026 52.3703 84.1245 52.2271 85.151 51.869C87.8245 50.9142 89.9252 49.0045 91.0949 46.4742C92.3839 43.6574 92.5749 43.9439 88.5645 42.7742C86.6549 42.2252 84.9839 41.8432 84.8645 41.9148C84.7213 42.0103 84.6258 42.2252 84.6258 42.4161C84.6258 42.9652 83.5278 44.9703 82.9071 45.5432C82.0955 46.3071 81.1168 46.5936 79.4936 46.6174C77.751 46.6174 76.8678 46.3071 75.8413 45.3045C74.7194 44.2303 74.2897 42.5116 74.2897 39.289C74.3136 35.3742 75.1013 33.6077 77.3213 32.5813C78.8013 31.889 80.5439 31.8413 81.8807 32.4619C82.9549 32.9394 84.0768 34.1329 84.2916 35.0161C84.3632 35.3265 84.4826 35.589 84.5065 35.589C84.7452 35.589 91.6916 34.0852 91.7632 34.0136C91.811 33.9658 91.5245 33.2258 91.1187 32.3665C89.7103 29.3587 86.989 27.2342 83.6949 26.5419C81.8568 26.16 78.5626 26.0407 76.7961 26.2794Z" fill="black"/>
<path d="M8.23877 39.289V52.06H12.4162H16.5936V47.2858V42.5116H20.2459C24.0413 42.5116 25.4736 42.2729 27.2162 41.3658C28.6246 40.6497 30.0568 38.9787 30.582 37.4748C31.0833 35.971 31.1549 33.1303 30.7013 31.6026C30.3194 30.2658 29.102 28.7142 27.7891 27.9026C25.9033 26.7329 24.2084 26.5181 15.8297 26.5181H8.23877V39.289ZM22.0601 32.5813C22.991 33.4645 23.2297 34.6581 22.7284 35.7323C22.1794 36.8781 21.1291 37.3316 18.6943 37.451L16.5936 37.5465V34.6342V31.7219L18.9568 31.8174C21.2007 31.889 21.3678 31.9368 22.0601 32.5813Z" fill="black"/>
<path d="M85.1032 62.3484C83.5754 62.5394 82.8832 62.8735 81.9045 63.9C80.878 64.9503 80.329 66.5974 80.329 68.6265C80.329 71.5387 81.3077 73.4006 83.3367 74.4032C84.4587 74.9523 84.8406 75.0239 86.6309 74.9523C88.4212 74.8568 88.7554 74.7852 89.6864 74.1406C91.2858 72.9948 91.8587 71.7058 91.978 69.0561C92.0974 66.5974 91.7393 65.2606 90.6651 63.9716C89.5432 62.6348 87.4425 62.0381 85.1032 62.3484ZM87.6812 65.6665C88.9464 66.86 88.9703 70.3929 87.7051 71.6581C87.0128 72.3503 85.3419 72.2787 84.6258 71.5148C83.5516 70.369 83.5516 66.9316 84.6258 65.7858C85.3419 65.0219 86.9174 64.9503 87.6812 65.6665Z" fill="black"/>
<path d="M10.8645 62.7065C9.86194 63.1361 9.02645 63.8761 8.59677 64.7355C8.26258 65.3561 8.26258 65.3561 9.81419 65.9768C11.3181 66.5736 11.3419 66.5736 11.6045 66.0961C11.9387 65.4755 13.2039 64.9503 14.0155 65.1174C14.7794 65.2607 15.5432 66.0484 15.7581 66.9077L15.9252 67.5761H14.2303H12.5355V68.6503V69.7245H14.2303H15.9252L15.7581 70.369C15.4955 71.5148 14.7316 72.1116 13.5619 72.1116C12.7265 72.1116 12.3923 71.9684 11.9387 71.491C11.6045 71.1329 11.3419 70.7271 11.3419 70.56C11.3419 70.3452 10.8645 70.4168 9.67097 70.751C8.76387 71.0374 8 71.3 8 71.3955C8.02387 71.9207 9.26516 73.5439 10.1006 74.1407C11.0316 74.7852 11.3658 74.8568 13.2039 74.9284C15.1135 75 15.4 74.9523 16.5697 74.3316C18.36 73.4007 19.2194 71.8729 19.3865 69.2948C19.6252 65.8813 18.2884 63.3032 15.9252 62.611C14.6123 62.2052 11.8671 62.2768 10.8645 62.7065Z" fill="black"/>
<path d="M22.0839 66.9555C22.0839 71.9922 21.9884 72.3503 20.7471 72.3503C20.2219 72.3503 20.1742 72.4458 20.1742 73.5439C20.1742 74.6897 20.1981 74.7135 21.0097 74.8806C21.9168 75.0477 23.2058 74.8568 24.1606 74.4271C25.2348 73.9497 25.4974 73.0187 25.6168 69.0561L25.7361 65.4277H27.1206H28.529V70.2019V74.9761H30.2H31.871V68.6503V62.3245H26.9774H22.0839V66.9555Z" fill="black"/>
<path d="M34.2581 68.6503V74.9761L39.1039 74.9284L43.9258 74.8568L43.9974 73.4722L44.069 72.1116H40.9419H37.8387V70.7987V69.4858H40.5839H43.329V68.2922V67.0987H40.5839H37.8387V66.0245V64.9503H40.8226H43.8064V63.6374V62.3245H39.0322H34.2581V68.6503Z" fill="black"/>
<path d="M45.9548 68.6503V74.9761H47.6258H49.2968V72.4458C49.2968 70.1781 49.3445 69.9393 49.7264 70.011C50.1323 70.0826 50.8961 71.4193 51.851 73.711L52.3761 74.9761H54.2858C55.36 74.9761 56.2193 74.9045 56.2193 74.8329C56.2193 74.7374 55.6226 73.4484 54.9064 71.9684C53.9516 69.9871 53.4264 69.1755 52.9013 68.8652C52.1852 68.4593 52.1852 68.4355 52.6626 68.1013C52.949 67.9103 53.3787 67.2658 53.6174 66.6452C54.1664 65.4039 54.62 64.9503 55.4316 64.9503C55.9329 64.9503 55.9806 64.8548 55.9806 63.6135V62.2529L54.4052 62.3961C52.3045 62.5632 51.7555 62.9929 50.8484 65.2129C50.3948 66.311 49.9652 67.0032 49.7026 67.051C49.3445 67.1226 49.2968 66.8839 49.2968 64.7355V62.3245H47.6258H45.9548V68.6503Z" fill="black"/>
<path d="M56.6968 63.8761V65.4277H58.4871H60.2774L60.3252 70.1303L60.3968 74.8568L62.1394 74.9284L63.8581 75V70.2019V65.4277H65.6484H67.4387V63.8761V62.3245H62.0677H56.6968V63.8761Z" fill="black"/>
<path d="M69.1096 68.6264V74.9761H70.8999H72.6903V72.589V70.2019H74.2419C77.3451 70.2019 78.7774 68.9606 78.7774 66.2632C78.7535 64.5445 78.2283 63.4464 77.1541 62.8735C76.5574 62.5393 75.6025 62.4439 72.7619 62.3723L69.1096 62.2768V68.6264ZM74.8625 65.189C75.4116 65.4993 75.4832 66.9077 74.958 67.3374C74.767 67.4806 74.1941 67.6716 73.6451 67.7432L72.6903 67.8864V66.4064V64.9503H73.5496C74.0032 64.9503 74.5999 65.0697 74.8625 65.189Z" fill="black"/>
<rect x="8.45654" y="56.2867" width="83.5435" height="1.36957" fill="black"/>
</svg>
