<svg width="40" height="40" viewBox="0 0 40 40" fill="none" xmlns="http://www.w3.org/2000/svg">
<g clip-path="url(#clip0_2609_12232)">
<rect width="40" height="40" rx="2" fill="black"/>
<mask id="mask0_2609_12232" style="mask-type:luminance" maskUnits="userSpaceOnUse" x="0" y="0" width="40" height="40">
<path d="M40 0H0V40H40V0Z" fill="white"/>
</mask>
<g mask="url(#mask0_2609_12232)">
<mask id="mask1_2609_12232" style="mask-type:luminance" maskUnits="userSpaceOnUse" x="0" y="0" width="40" height="40">
<path d="M40 20C40 8.95432 31.0457 0 20 0C8.95432 0 0 8.95432 0 20C0 31.0457 8.95432 40 20 40C31.0457 40 40 31.0457 40 20Z" fill="white"/>
</mask>
<g mask="url(#mask1_2609_12232)">
<path d="M40 0H0V40H40V0Z" fill="black"/>
<path d="M40 20C51.0456 20 60 11.0456 60 -1.14083e-05C60 -11.0457 51.0456 -20 40 -20C28.9543 -20 20 -11.0457 20 -1.14083e-05C20 11.0456 28.9543 20 40 20Z" fill="black"/>
<path d="M24.7079 19.0868H12.8905V14.4105H24.7079C25.3982 14.4105 25.8781 14.5308 26.119 14.7409C26.3599 14.9511 26.5091 15.3408 26.5091 15.91V17.5891C26.5091 18.1889 26.3599 18.5786 26.119 18.7887C25.8781 18.9988 25.3982 19.0886 24.7079 19.0886V19.0868ZM25.5186 10.0018H7.87878V30H12.8905V23.4938H22.1266L26.5091 30H32.1212L27.2893 23.4632C29.0707 23.1992 29.8706 22.6533 30.5303 21.7536C31.19 20.8539 31.5209 19.4154 31.5209 17.4957V15.9962C31.5209 14.8577 31.4003 13.958 31.19 13.2684C30.9797 12.5788 30.6203 11.979 30.1097 11.4402C29.5704 10.9302 28.97 10.5711 28.2492 10.3304C27.5283 10.1203 26.6277 10 25.5186 10V10.0018Z" fill="white"/>
</g>
</g>
</g>
<defs>
<clipPath id="clip0_2609_12232">
<rect width="40" height="40" rx="2" fill="white"/>
</clipPath>
</defs>
</svg>
