<svg width="100" height="100" viewBox="0 0 100 100" fill="none" xmlns="http://www.w3.org/2000/svg">
<path d="M48.6982 22.1275C47.8963 22.2999 47.8491 22.3155 42.1251 25.544C39.5305 27.0171 37.0931 28.4746 36.7157 28.8037C36.2754 29.1798 35.8508 29.7754 35.5363 30.4179L35.0488 31.4523L35.0016 37.0001C34.9702 40.0561 34.9859 42.7204 35.0488 42.9241L35.1274 43.2846H44.0593H52.9755L53.8404 42.8771C54.9097 42.3913 55.7903 41.5607 56.2935 40.589C56.4979 40.1815 56.6709 39.8054 56.6709 39.7584C56.6709 39.7114 52.6453 39.68 47.739 39.68C42.817 39.68 38.7599 39.6487 38.7285 39.6173C38.697 39.586 38.697 38.536 38.7442 37.2979C38.8386 35.0725 38.8386 35.0411 39.4204 33.9598C40.1909 32.5023 41.0715 31.515 42.4082 30.5903C44.6097 29.0388 44.0279 29.1172 54.1077 29.0231L62.9452 28.9448L62.1275 28.3492C61.6872 28.0201 59.2027 26.547 56.6237 25.0895C51.1671 22.0021 50.5538 21.767 48.6982 22.1275Z" fill="black"/>
<path d="M45.7104 33.0195C45.2701 33.2389 44.6254 33.7404 44.2794 34.1008C43.6033 34.8374 42.9428 35.9814 43.1 36.1382C43.1629 36.1852 47.2358 36.2322 52.1577 36.2322H61.1211L61.0425 38.3009C60.9481 40.73 60.728 41.4666 59.5957 43.0495C58.7309 44.2562 57.3628 45.4003 55.9161 46.1212L54.8625 46.654L45.7733 46.7324L36.6685 46.8107L37.0459 47.1398C37.722 47.7511 38.8228 48.4249 42.6755 50.5877C48.4309 53.8318 48.1478 53.7064 49.8304 53.7064C51.4344 53.6907 51.3872 53.7064 55.0983 51.5907C56.262 50.9325 58.3849 49.7257 59.8159 48.9264C62.5992 47.3593 63.4327 46.6697 64.0774 45.3846L64.4548 44.6167L64.502 38.6143L64.5492 32.6277H55.5387H46.5124L45.7104 33.0195Z" fill="black"/>
<path d="M71.138 56.9975C71.138 58.1729 72.2388 59.0192 73.7327 59.0192C75.2265 59.0192 76.3273 58.1729 76.3273 56.9975C76.3273 56.637 76.2801 56.6057 75.6354 56.6057C75.0221 56.6057 74.8963 56.6684 74.7233 57.0288C74.5346 57.4206 74.4246 57.4676 73.7327 57.4676C73.0407 57.4676 72.9307 57.4206 72.742 57.0288C72.569 56.6684 72.4432 56.6057 71.8299 56.6057C71.1852 56.6057 71.138 56.637 71.138 56.9975Z" fill="black"/>
<path d="M17.2793 56.9505C13.7097 57.405 11.178 61.1819 12.2473 64.4887C13.238 67.5917 16.6503 69.441 19.7954 68.5947C20.8018 68.3283 22.4057 67.435 22.846 66.8865C23.0505 66.6514 23.0033 66.5417 22.39 65.9305L21.6981 65.2252L21.2106 65.6954C20.0784 66.7924 17.987 67.1529 16.5402 66.5103C12.4989 64.7394 13.5053 59.1915 17.9398 58.8311C19.1192 58.7371 19.9998 59.0348 21.0848 59.8498L21.8082 60.3983L22.4529 59.7557L23.0819 59.1132L22.5473 58.5647C21.3679 57.3579 19.2292 56.6997 17.2793 56.9505Z" fill="black"/>
<path d="M50.538 60.8684C50.5223 66.0558 50.3808 66.6514 49.107 66.8708C48.5095 66.9805 48.4937 66.9805 48.4937 67.6544C48.4937 68.0305 48.4466 68.438 48.3994 68.579C48.3208 68.7828 48.4308 68.8298 49.0598 68.8298C50.4279 68.8141 51.4972 68.1245 52.0634 66.8708C52.2992 66.3379 52.3621 65.6484 52.425 62.4827L52.5037 58.7214L54.3435 58.6744L56.1991 58.6274L56.2305 63.6894L56.2777 68.7514L57.2684 68.7984L58.2433 68.8454V62.8744V56.9191H54.3907H50.538V60.8684Z" fill="black"/>
<path d="M26.7931 59.7557C26.4943 59.8341 25.9124 60.0535 25.5036 60.2416L24.7488 60.5707V61.417V62.2476H25.4721C26.0225 62.2476 26.2584 62.1692 26.4786 61.8871C26.7302 61.5737 26.9031 61.5423 28.1297 61.5423C29.4663 61.5423 29.4978 61.558 29.9538 62.0595C30.4727 62.6394 30.5985 63.4543 30.1268 63.2036C29.9695 63.1252 29.2619 62.9685 28.5385 62.8744C25.6294 62.4827 23.9625 63.5797 23.9625 65.8678C23.9625 67.0588 24.4972 67.9051 25.6137 68.4536C26.966 69.1119 28.2083 68.9238 30.4413 67.7641C30.5042 67.7327 30.5985 67.9678 30.6614 68.2813L30.7558 68.8454L31.5735 68.7984L32.3755 68.7514V65.617C32.3755 62.0595 32.234 61.3699 31.259 60.5393C30.3155 59.7087 28.3027 59.3639 26.7931 59.7557ZM29.9066 64.9118C30.5042 65.1312 30.5671 65.5073 30.0639 65.9461C29.0418 66.8394 27.768 67.2469 26.8874 66.9491C25.8653 66.62 25.535 65.664 26.2112 64.9431C26.5415 64.5827 26.6201 64.567 27.9724 64.6454C28.7587 64.6924 29.6236 64.8021 29.9066 64.9118Z" fill="black"/>
<path d="M33.948 59.7871C33.9008 59.8968 33.8851 61.9498 33.9008 64.3633L33.948 68.7514L34.9387 68.7984L35.9136 68.8454V66.8708V64.9118H38.1938H40.4739V66.8708V68.8298H41.4174H42.3609V64.2066V59.5833H41.4174H40.4739V61.3073V63.0312H38.1938H35.9136V61.3073V59.5833H34.9701C34.3411 59.5833 33.9951 59.646 33.948 59.7871Z" fill="black"/>
<path d="M62.1747 59.8341C61.7029 59.9595 61.1054 60.1946 60.838 60.3356C60.4292 60.5864 60.3663 60.7117 60.3191 61.4326L60.2719 62.2476H61.1368C61.8287 62.2476 62.0174 62.2006 62.0174 62.0125C62.0174 61.6677 62.6779 61.464 63.8101 61.464C64.9895 61.464 65.7757 61.8871 65.9644 62.6237C66.0431 62.8901 66.0588 63.1252 66.0273 63.1565C65.9959 63.1879 65.6027 63.1409 65.1467 63.0312C64.6907 62.9215 63.7472 62.8274 63.0553 62.8274C62.0331 62.8118 61.6557 62.8745 61.1211 63.1565C59.3284 64.0812 58.9825 66.479 60.4292 67.9051C61.5142 68.9865 63.4012 69.0962 65.2096 68.2029C65.7286 67.9365 66.1846 67.7327 66.216 67.7327C66.2318 67.7327 66.2632 67.8738 66.2632 68.0305C66.2632 68.6887 66.4205 68.8298 67.2224 68.8298H67.993V65.57C67.993 62.3886 67.9772 62.2946 67.5998 61.511C66.7507 59.8341 64.6435 59.1759 62.1747 59.8341ZM65.6027 64.9118C65.9173 65.0215 66.106 65.2096 66.106 65.382C66.106 65.6797 65.4298 66.2596 64.5492 66.7141C63.8887 67.0432 62.6779 67.1059 62.1275 66.8081C61.3727 66.4163 61.2941 65.3193 61.986 64.7864C62.3162 64.52 64.785 64.614 65.6027 64.9118Z" fill="black"/>
<path d="M69.4868 59.7871C69.4397 59.8968 69.4239 61.9498 69.4397 64.3633L69.4868 68.7514H71.0594H72.6319L74.2044 65.1782C75.0693 63.2192 75.8241 61.6207 75.887 61.6207C75.9656 61.6207 76.0128 63.2506 76.0128 65.2252V68.8454L77.0035 68.7984L77.9784 68.7514V64.2066V59.6617H76.343H74.7076L73.1194 63.2506L71.5311 66.8238L71.4839 63.2036L71.4525 59.5833H70.509C69.88 59.5833 69.534 59.646 69.4868 59.7871Z" fill="black"/>
<path d="M79.1578 60.508V61.4483L80.7775 61.4953L82.3815 61.5423L82.4129 65.1469L82.4444 68.7514L83.3879 68.7984L84.3471 68.8454V65.1469V61.464H85.9983H87.6651L87.618 60.555L87.5708 59.6617L83.3722 59.6147L79.1578 59.5833V60.508Z" fill="black"/>
<path d="M38.1938 72.6537C37.9422 72.8261 37.9265 72.9201 38.0838 73.1082C38.241 73.2963 38.3825 73.3119 38.7285 73.1709C39.0902 73.0298 39.2631 73.0612 39.5934 73.2649C40.1595 73.6411 40.1123 73.8448 39.4518 73.8448C39.0744 73.8448 38.9015 73.9231 38.9015 74.0799C38.9015 74.2523 39.0744 74.3149 39.4676 74.3149C40.1123 74.3149 40.128 74.597 39.499 74.9105C39.216 75.0359 38.9644 75.0515 38.697 74.9575C38.3983 74.8478 38.2567 74.8635 38.1152 75.0202C37.8479 75.3336 38.0366 75.5374 38.6813 75.6627C40.3954 75.9762 41.4489 73.9388 40.1437 72.8418C39.5934 72.3873 38.6813 72.2933 38.1938 72.6537Z" fill="black"/>
<path d="M41.5118 73.5627C41.4489 74.2052 41.3074 74.8008 41.1816 74.9418C40.8514 75.3023 40.8828 75.7254 41.2288 75.7254C41.732 75.7254 42.0622 75.1926 42.1723 74.1426L42.2823 73.1552H42.8327H43.3831L43.4303 74.456C43.4617 75.5687 43.5089 75.7411 43.7448 75.6941C43.9649 75.6471 44.0121 75.412 44.0593 74.0328L44.1065 72.4343H42.8642H41.6219L41.5118 73.5627Z" fill="black"/>
<path d="M45.2072 72.8418C43.6976 74.0955 45.333 76.368 47.1571 75.5374C47.5974 75.3336 47.6446 75.2082 47.3458 74.9732C47.22 74.8635 47.0628 74.8635 46.9213 74.9418C46.5439 75.1926 45.8834 75.1142 45.6161 74.8164C45.4588 74.6597 45.3487 74.4717 45.3487 74.4246C45.3487 74.362 45.9149 74.3149 46.6068 74.3149C48.0063 74.3149 48.0535 74.2679 47.6446 73.2963C47.2358 72.3403 46.0721 72.1209 45.2072 72.8418ZM46.8898 73.2493C47.2987 73.6567 47.0942 73.8448 46.2136 73.8448C45.5689 73.8448 45.3487 73.7821 45.3487 73.6097C45.3487 73.1395 46.4967 72.8575 46.8898 73.2493Z" fill="black"/>
<path d="M48.368 74.0329C48.4152 75.5217 48.4309 75.6471 48.7297 75.6471C48.997 75.6471 49.0442 75.5374 49.0442 74.9732C49.0442 74.6127 49.0913 74.3149 49.1385 74.3149C49.2014 74.3149 49.5002 74.6284 49.8147 75.0202C50.255 75.5374 50.4909 75.7097 50.7897 75.6941C51.2457 75.6471 51.2614 75.553 50.8368 75.1612C50.6481 75.0045 50.3651 74.6597 50.1921 74.4246L49.8776 73.9858L50.538 73.2022L51.1828 72.4343H50.711C50.3651 72.4343 50.1292 72.5754 49.7518 73.0612C49.4845 73.406 49.2014 73.6881 49.1385 73.6881C49.0913 73.6881 49.0599 73.406 49.0913 73.0612C49.1542 72.4657 49.1228 72.4343 48.7454 72.4343H48.3208L48.368 74.0329Z" fill="black"/>
<path d="M51.3872 72.6694C51.2457 73.0142 51.4501 73.2179 51.9533 73.2179H52.4094L52.4565 74.4246C52.5037 75.506 52.5352 75.6471 52.8025 75.6471C53.0541 75.6471 53.1013 75.506 53.117 74.3933L53.1327 73.1396L53.6516 73.1866C54.1077 73.2336 54.1548 73.2022 54.1548 72.8418C54.1548 72.4343 54.1548 72.4343 52.8182 72.4343C51.7803 72.4343 51.4501 72.4813 51.3872 72.6694Z" fill="black"/>
<path d="M54.6266 74.8635C54.6266 77.1829 54.6423 77.2926 54.9411 77.2926C55.2241 77.2926 55.2556 77.1829 55.2556 76.2896V75.2709L55.6959 75.506C56.7967 76.0702 57.9131 75.3336 57.9289 74.0329C57.9289 72.8104 56.7338 72.0582 55.6802 72.6067C55.4286 72.7478 55.3342 72.7478 55.287 72.6067C55.2556 72.5127 55.0983 72.4343 54.9254 72.4343C54.6423 72.4343 54.6266 72.5754 54.6266 74.8635ZM56.9696 73.4687C57.1583 73.7037 57.2999 73.9702 57.2999 74.0799C57.2999 74.4873 56.7338 74.9732 56.2777 74.9732C55.8217 74.9888 55.2556 74.4873 55.2556 74.0799C55.2556 73.7037 55.9003 73.0612 56.2777 73.0612C56.4979 73.0612 56.7809 73.2336 56.9696 73.4687Z" fill="black"/>
<path d="M58.8881 72.9201C57.8974 73.9075 58.495 75.4903 59.926 75.6784C60.5393 75.7568 60.6493 75.7097 61.1525 75.2082C62.0017 74.362 61.9073 73.1709 60.9167 72.6694C60.1618 72.2776 59.4385 72.3716 58.8881 72.9201ZM60.8223 73.5784C61.1211 73.9858 61.1211 74.0485 60.9167 74.4246C60.4449 75.2239 59.4228 75.1456 59.124 74.2679C58.9982 73.9231 59.0296 73.7821 59.3441 73.453C59.8316 72.9358 60.382 72.9828 60.8223 73.5784Z" fill="black"/>
</svg>
