<svg width="128" height="128" viewBox="0 0 128 128" fill="none" xmlns="http://www.w3.org/2000/svg">
<path d="M105.626 53.7217C107.733 53.7217 109.841 53.7217 112.012 53.7217C112.012 53.8001 112.012 53.8785 112.012 53.9593C112.064 53.9593 112.116 53.9593 112.17 53.9593C112.196 54.0978 112.223 54.2364 112.249 54.3751C112.263 54.4523 112.278 54.5295 112.293 54.609C112.327 54.8305 112.327 54.8305 112.327 55.1473C112.379 55.1473 112.431 55.1473 112.485 55.1473C112.575 55.4852 112.643 55.7464 112.643 56.0977C112.695 56.0977 112.747 56.0977 112.8 56.0977C112.839 56.4506 112.839 56.4506 112.879 56.8105C112.931 56.8105 112.983 56.8105 113.037 56.8105C113.153 57.2244 113.212 57.5694 113.195 57.9985C113.247 57.9985 113.299 57.9985 113.352 57.9985C113.43 58.4298 113.43 58.4298 113.51 58.8698C113.562 58.8698 113.614 58.8698 113.668 58.8698C113.694 58.9819 113.721 59.0941 113.747 59.2064C113.761 59.2688 113.776 59.3313 113.791 59.3957C113.825 59.5826 113.825 59.5826 113.825 59.8994C113.877 59.8994 113.929 59.8994 113.983 59.8994C114.01 60.0362 114.036 60.1732 114.062 60.3102C114.077 60.3865 114.091 60.4628 114.106 60.5413C114.138 60.7542 114.147 60.9518 114.141 61.1666C114.193 61.1666 114.245 61.1666 114.298 61.1666C114.424 61.6078 114.472 61.9753 114.456 62.4338C114.508 62.4338 114.56 62.4338 114.614 62.4338C114.614 59.5588 114.614 56.6838 114.614 53.7217C116.721 53.7217 118.829 53.7217 121 53.7217C121 60.6217 121 67.5217 121 74.6308C118.893 74.6308 116.785 74.6308 114.614 74.6308C114.614 74.5262 114.614 74.4217 114.614 74.314C114.562 74.314 114.51 74.314 114.456 74.314C114.366 73.9761 114.298 73.7148 114.298 73.3636C114.246 73.3636 114.194 73.3636 114.141 73.3636C114.089 73.0499 114.037 72.7363 113.983 72.4131C113.931 72.4131 113.879 72.4131 113.825 72.4131C113.799 72.2746 113.773 72.136 113.747 71.9973C113.732 71.9202 113.717 71.843 113.702 71.7634C113.668 71.5419 113.668 71.5419 113.668 71.2251C113.616 71.2251 113.564 71.2251 113.51 71.2251C113.42 70.8872 113.352 70.626 113.352 70.2747C113.3 70.2747 113.248 70.2747 113.195 70.2747C113.014 69.6072 113.014 69.6072 113.037 69.2451C112.985 69.2451 112.933 69.2451 112.879 69.2451C112.84 68.9707 112.84 68.9707 112.8 68.6907C112.748 68.6907 112.696 68.6907 112.643 68.6907C112.543 68.2888 112.464 67.9202 112.485 67.5027C112.433 67.5027 112.381 67.5027 112.327 67.5027C112.193 67.0403 112.15 66.6369 112.17 66.1563C112.118 66.1563 112.066 66.1563 112.012 66.1563C112.012 68.9528 112.012 71.7494 112.012 74.6308C109.905 74.6308 107.797 74.6308 105.626 74.6308C105.626 67.7308 105.626 60.8308 105.626 53.7217Z" fill="#5852B0"/>
<path d="M15.0548 53.7217C17.2417 53.7217 19.4286 53.7217 21.6818 53.7217C21.6818 58.6462 21.6818 63.5707 21.6818 68.6444C21.6028 68.6705 21.5237 68.6965 21.4423 68.7234C21.3467 68.8362 21.2515 68.9494 21.1591 69.0648C21.0369 69.2042 20.9075 69.3167 20.7636 69.434C20.5781 69.5858 20.4411 69.722 20.2846 69.9077C20.0913 70.1371 19.8919 70.3107 19.6608 70.4999C19.5064 70.6296 19.5064 70.6296 19.3264 70.8552C19.1334 71.0843 18.9347 71.2579 18.7033 71.4461C18.5707 71.5633 18.4668 71.6835 18.3583 71.8224C18.1604 72.0491 18.0438 72.0948 17.7695 72.1974C17.6622 72.3567 17.6622 72.3567 17.6098 72.5133C17.5571 72.5133 17.5044 72.5133 17.4501 72.5133C17.3974 72.6175 17.3447 72.7217 17.2904 72.8291C17.2377 72.8291 17.185 72.8291 17.1307 72.8291C17.078 72.9333 17.0253 73.0375 16.9711 73.1449C16.9184 73.1449 16.8657 73.1449 16.8114 73.1449C16.7965 73.2003 16.7817 73.2557 16.7665 73.3127C16.6305 73.5816 16.471 73.705 16.2375 73.8907C16.0967 74.0101 15.9842 74.1323 15.8682 74.275C15.6936 74.4872 15.6936 74.4872 15.5339 74.5661C15.4231 74.5759 15.312 74.5811 15.2009 74.5839C15.1321 74.5856 15.0633 74.5874 14.9924 74.5892C14.6774 74.5949 14.3623 74.5994 14.0472 74.6024C13.8811 74.6045 13.7151 74.6078 13.5491 74.6122C13.3095 74.6184 13.0701 74.621 12.8304 74.6229C12.7565 74.6255 12.6827 74.6281 12.6066 74.6308C12.099 74.6292 12.099 74.6292 11.8696 74.4442C11.7495 74.3057 11.6455 74.164 11.5417 74.0134C11.394 73.8756 11.394 73.8756 11.2573 73.7716C10.9982 73.5604 10.7981 73.3216 10.5836 73.066C10.5045 73.0008 10.4255 72.9357 10.344 72.8686C10.1045 72.6712 10.1045 72.6712 9.9099 72.4392C9.75132 72.2518 9.61321 72.1138 9.42585 71.9606C9.16521 71.7473 8.96394 71.5072 8.74718 71.25C8.65548 71.1694 8.56224 71.0904 8.46772 71.0131C8.20709 70.7998 8.00581 70.5597 7.78905 70.3025C7.69736 70.2219 7.60412 70.143 7.5096 70.0656C7.24897 69.8523 7.04769 69.6122 6.83093 69.355C6.69179 69.2293 6.54925 69.1096 6.40365 68.9914C6.36021 68.955 6.31678 68.9187 6.27203 68.8813C6.20956 68.8375 6.20956 68.8375 6.14584 68.7928C5.97214 68.5654 6.00033 68.329 6.00369 68.0554C6.00349 67.9949 6.00328 67.9344 6.00307 67.8721C6.00268 67.6688 6.004 67.4655 6.00531 67.2622C6.00537 67.1167 6.00533 66.9712 6.0052 66.8257C6.00513 66.4301 6.00654 66.0345 6.00821 65.6389C6.00971 65.2258 6.00985 64.8126 6.01013 64.3994C6.01088 63.6167 6.01285 62.834 6.01525 62.0514C6.01842 60.9939 6.01972 59.9365 6.02112 58.879C6.02337 57.2125 6.02814 55.5461 6.0325 53.8796C8.19306 53.8796 10.3536 53.8796 12.5797 53.8796C12.5797 58.0485 12.5797 62.2174 12.5797 66.5126C12.6587 66.5126 12.7378 66.5126 12.8192 66.5126C12.9362 66.6224 12.9362 66.6224 13.0537 66.7692C13.0956 66.8193 13.1375 66.8693 13.1807 66.9209C13.2733 67.0347 13.3657 67.1486 13.4579 67.2627C13.6151 67.4017 13.6151 67.4017 13.8472 67.3959C14.1979 67.2641 14.3512 67.0368 14.5757 66.7495C14.7554 66.557 14.7554 66.557 14.8951 66.4336C14.9478 66.4336 15.0005 66.4336 15.0548 66.4336C15.0548 62.2387 15.0548 58.0437 15.0548 53.7217Z" fill="#5852B0"/>
<path d="M66.2673 53.7217C71.3409 53.7217 76.4144 53.7217 81.6417 53.7217C81.6417 55.4728 81.6417 57.224 81.6417 59.0282C80.1662 59.0282 78.6907 59.0282 77.1706 59.0282C77.1706 64.177 77.1706 69.3259 77.1706 74.6308C75.0738 74.6308 72.9771 74.6308 70.8169 74.6308C70.8169 69.4819 70.8169 64.333 70.8169 59.0282C69.3155 59.0282 67.8142 59.0282 66.2673 59.0282C66.2673 57.277 66.2673 55.5259 66.2673 53.7217Z" fill="#5852B0"/>
<path d="M97.6707 53.6318C98.2955 53.639 98.2955 53.6394 98.5134 53.7988C98.6201 53.9263 98.6204 53.9264 98.7654 54.168C98.855 54.25 98.9475 54.3298 99.0427 54.4053C99.301 54.619 99.5008 54.8604 99.7156 55.1182C99.8063 55.1988 99.8984 55.2781 99.9919 55.3555C100.253 55.5716 100.453 55.8036 100.665 56.0674C100.747 56.1331 100.747 56.1332 100.832 56.2002C101.042 56.4592 101.024 56.6973 101.019 57.0166C101.02 57.0807 101.02 57.1449 101.02 57.2109C101.021 57.4263 101.019 57.642 101.017 57.8574C101.017 58.0118 101.017 58.1669 101.017 58.3213C101.017 58.7406 101.016 59.1598 101.013 59.5791C101.011 60.0173 101.011 60.4563 101.01 60.8945C101.01 61.7243 101.007 62.554 101.004 63.3838C101 64.3286 100.998 65.2739 100.997 66.2188C100.994 68.1626 100.988 70.1069 100.981 72.0508H100.823V72.209H100.586L100.507 72.5254H100.348L100.19 72.8418H100.032L99.8738 73.1582H99.7156C99.6862 73.2535 99.6858 73.2536 99.656 73.3506C99.5571 73.5533 99.5566 73.5539 99.3884 73.6182C99.3398 73.623 99.2911 73.6278 99.241 73.6328V73.8701C99.1282 73.9888 99.1275 73.9888 98.9783 74.1074C98.7682 74.2745 98.7687 74.2751 98.5857 74.4697C98.3965 74.6269 98.2711 74.612 98.0271 74.6113C97.9396 74.6117 97.8516 74.612 97.7615 74.6123C97.6656 74.6115 97.5693 74.6103 97.4705 74.6094C97.3696 74.6094 97.2687 74.6093 97.1648 74.6094C96.8874 74.6094 96.6092 74.6081 96.3318 74.6064C96.0421 74.605 95.7524 74.6048 95.4626 74.6045C94.9137 74.6038 94.3641 74.602 93.8152 74.5996C93.1905 74.597 92.5658 74.5959 91.9412 74.5947C90.6555 74.5922 89.3693 74.5873 88.0837 74.582L88.0046 74.3447C87.8466 74.2492 87.8464 74.2491 87.6882 74.1865V74.0283L87.3718 73.8701V73.7119L87.0554 73.5537V73.3955L86.8181 73.3164C86.7236 73.2035 86.6294 73.09 86.5378 72.9746C86.3779 72.7898 86.1955 72.6398 86.0066 72.4854C85.9611 72.4465 85.9157 72.4072 85.8689 72.3672C85.7876 72.3049 85.7868 72.3048 85.7039 72.2412C85.4928 71.977 85.5076 71.7391 85.5105 71.415C85.5098 71.3505 85.5092 71.2853 85.5085 71.2188C85.5067 71.0023 85.5071 70.7858 85.5076 70.5693C85.5068 70.4142 85.5057 70.2587 85.5046 70.1035C85.5022 69.682 85.5016 69.2604 85.5017 68.8389C85.5016 68.4869 85.5007 68.1342 85.4998 67.7822C85.4976 66.952 85.4972 66.1213 85.4978 65.291C85.4984 64.4343 85.4952 63.5774 85.491 62.7207C85.4875 61.9854 85.4867 61.25 85.4871 60.5146C85.4872 60.0753 85.4869 59.6356 85.4841 59.1963C85.4816 58.7832 85.481 58.3701 85.4832 57.957C85.4835 57.8055 85.4838 57.6535 85.4822 57.502C85.4801 57.295 85.4809 57.0879 85.4832 56.8809C85.4818 56.821 85.4807 56.7609 85.4792 56.6992C85.485 56.4515 85.5135 56.2713 85.6746 56.0791C86.0442 55.7506 86.0447 55.751 86.2644 55.751V55.5137C86.6876 55.1181 86.6875 55.1182 86.8972 55.1182V54.8809C87.0111 54.7799 87.1258 54.6794 87.2458 54.5859C87.3864 54.4779 87.3861 54.4773 87.5496 54.3018C87.688 54.1683 87.6883 54.168 87.8464 54.168V53.9307C88.0299 53.6703 88.1935 53.6637 88.5007 53.6621C88.6297 53.6606 88.6299 53.6607 88.7615 53.6592C88.9034 53.6593 88.9039 53.659 89.0486 53.6592C89.1483 53.6584 89.2486 53.6571 89.3513 53.6562C89.6248 53.6542 89.8982 53.6544 90.1716 53.6543C90.4 53.6541 90.6288 53.6532 90.8572 53.6523C91.3963 53.6504 91.9362 53.6492 92.4753 53.6494C93.0312 53.6496 93.5874 53.6473 94.1433 53.6436C94.6205 53.6405 95.0977 53.6395 95.575 53.6396C95.86 53.6397 96.1453 53.6383 96.4304 53.6357C96.7484 53.633 97.0665 53.6343 97.3845 53.6357C97.4789 53.6344 97.5734 53.6332 97.6707 53.6318ZM93.3259 59.2217C93.0961 59.1324 93.0302 59.1747 92.8318 59.3115C92.6857 59.5372 92.6852 59.5373 92.4705 59.707C92.3171 59.8304 92.3172 59.8307 92.199 59.9443V60.1025H92.0408V68.252C92.3279 68.3955 92.5779 68.6106 92.781 68.8584C92.8717 68.9769 92.9703 69.0903 93.0691 69.2021H93.3855C93.4124 69.1483 93.4385 69.0952 93.4646 69.043C93.6692 68.8764 93.8717 68.7095 94.0671 68.5322C94.3785 68.2106 94.4693 67.9748 94.4783 67.5293C94.4768 67.4205 94.4768 67.4202 94.4753 67.3135C94.478 67.0712 94.4805 66.8292 94.4792 66.5869C94.4781 66.4138 94.477 66.2405 94.4773 66.0674C94.4785 65.7057 94.48 65.3441 94.4783 64.9824C94.4754 64.5128 94.4736 64.0429 94.4763 63.5732C94.4785 63.2064 94.479 62.8395 94.4783 62.4727C94.4777 62.2975 94.4776 62.1224 94.4773 61.9473C94.4789 61.696 94.4804 61.4446 94.4783 61.1934C94.4774 61.1147 94.4762 61.0383 94.4753 60.9619C94.479 60.6934 94.4795 60.443 94.4138 60.1816C94.2175 59.8546 94.0239 59.6633 93.6726 59.5137C93.602 59.4985 93.5331 59.4844 93.4646 59.4697V59.3115C93.4175 59.2813 93.3716 59.2511 93.3259 59.2217Z" fill="#5852B0"/>
<path d="M39.2646 53.8516L39.5811 54.0098V54.2471L39.8975 54.3262V54.5635L40.2139 54.6426V54.8799L40.4512 54.959C40.5457 55.0719 40.6399 55.1854 40.7314 55.3008C40.8939 55.4884 41.0803 55.6402 41.2705 55.7988C41.4299 55.9325 41.5792 56.0703 41.7178 56.2256V56.3838H41.876V74.582H35.3877V69.2803H32.8555V74.582H26.3672V56.3838H26.5254V56.1465C26.6298 56.1204 26.7342 56.0933 26.8418 56.0664V55.8291L27.1582 55.75C27.1663 55.7029 27.1752 55.6559 27.1836 55.6074C27.247 55.4056 27.3085 55.3255 27.4746 55.1963C27.6476 55.1419 27.6479 55.1419 27.791 55.1172C27.7959 55.0749 27.8016 55.0328 27.8066 54.9893C27.9594 54.5427 28.3488 54.2422 28.7051 53.9541C28.8306 53.8548 28.8308 53.8549 28.8994 53.6934H39.2646V53.8516ZM34.3584 59.3115C34.0039 59.2016 33.8071 59.2655 33.5674 59.5488L33.4883 59.7861H33.3301C33.2722 59.9417 33.2721 59.9418 33.1719 60.1025L32.8555 60.2607V64.2178H35.3877C35.3922 63.7515 35.397 63.2846 35.3994 62.8184C35.4004 62.6286 35.4012 62.4388 35.4023 62.249C35.4054 61.9685 35.4078 61.6878 35.4092 61.4072C35.4095 61.317 35.4098 61.2291 35.4102 61.1416C35.4114 61.0534 35.4128 60.9674 35.4141 60.8818C35.4141 60.7611 35.414 60.7609 35.4141 60.6426C35.4157 60.4307 35.4162 60.43 35.3877 60.2607L35.1504 60.1025C34.9541 59.8545 34.8187 59.6597 34.5322 59.5195C34.4734 59.5027 34.4155 59.486 34.3584 59.4697V59.3115Z" fill="#5852B0"/>
<path fill-rule="evenodd" clip-rule="evenodd" d="M58.6973 53.627C59.6396 53.6117 59.6403 53.6119 59.9307 53.8135C60.0495 53.9523 60.1385 54.091 60.2324 54.2471C60.3107 54.3123 60.3891 54.3781 60.4697 54.4453C60.6994 54.6368 60.873 54.8346 61.0625 55.0635C61.1925 55.2164 61.1929 55.2162 61.4189 55.3945C61.6542 55.5906 61.8367 55.7943 62.0283 56.0313C62.1276 56.1567 62.1276 56.157 62.2891 56.2256C62.3019 57.0941 62.3123 57.9625 62.3184 58.8311C62.3212 59.2343 62.3248 59.6378 62.3311 60.041C62.3371 60.4304 62.3404 60.8205 62.3418 61.21C62.3428 61.3583 62.3447 61.5069 62.3477 61.6553C62.3517 61.8634 62.3528 62.0712 62.3525 62.2793C62.3555 62.3711 62.3554 62.3712 62.3584 62.4649C62.3549 62.7273 62.3451 62.8873 62.1689 63.0899C62.0212 63.2156 62.021 63.2155 61.874 63.3223C61.713 63.4344 61.713 63.4345 61.5381 63.6631C61.3467 63.8928 61.1488 64.0665 60.9199 64.2559C60.767 64.3859 60.7663 64.3863 60.5879 64.6123C60.3612 64.8844 60.1109 65.1016 59.8369 65.3242C59.8433 65.5417 59.8749 65.6787 60.0303 65.835C60.1278 65.9151 60.2264 65.9947 60.3252 66.0732C60.5333 66.248 60.6915 66.4615 60.8652 66.6699C61.0025 66.7919 61.1436 66.9083 61.2852 67.0254C61.485 67.2031 61.6439 67.4136 61.8145 67.6191C61.8956 67.6758 61.9769 67.7326 62.0605 67.791C62.2795 67.9717 62.2886 68.0095 62.3467 68.3115C62.348 68.4284 62.3471 68.5453 62.3438 68.6621C62.3439 68.7582 62.3436 68.7587 62.3438 68.8565C62.3434 69.0676 62.3397 69.2791 62.3359 69.4902C62.3351 69.6367 62.3345 69.7832 62.334 69.9297C62.3322 70.3151 62.3275 70.7006 62.3223 71.0859C62.3165 71.5487 62.3143 72.0118 62.3115 72.4746C62.3069 73.1772 62.2973 73.8795 62.2891 74.582H55.8008C55.7909 71.9561 55.7914 71.9557 55.792 71.1279C55.7901 70.9118 55.7884 70.6956 55.7861 70.4795C55.7867 70.3956 55.7865 70.395 55.7871 70.3096C55.8169 69.6885 55.817 69.6881 55.6172 69.124C55.4785 69.0011 55.4779 69.0007 55.2471 68.8848C55.1651 68.7952 55.0852 68.7036 55.0098 68.6084C54.8577 68.4247 54.7212 68.2888 54.5352 68.1338C54.3098 67.946 54.1381 67.7559 53.957 67.5274C53.7738 67.3272 53.5571 67.16 53.3486 66.9863C53.3225 69.4929 53.2964 71.9995 53.2695 74.582H46.7812V53.6934C48.9124 53.6819 51.0435 53.67 53.2393 53.6582C53.9124 53.6532 54.5858 53.6488 55.2793 53.6436C56.1008 53.6411 56.1009 53.6411 56.4854 53.6406C56.7541 53.6401 57.0232 53.6378 57.292 53.6348C57.6347 53.631 57.9775 53.6301 58.3203 53.6309C58.446 53.6307 58.5716 53.6291 58.6973 53.627ZM54.9512 59.3604C54.6368 59.0891 54.6365 59.0888 53.2695 59.1524V61.6846H54.7725L54.9307 61.21H55.0889C55.1427 61.1024 55.1958 60.998 55.248 60.8936H55.4062L55.5645 60.5772H55.7227V60.2607H55.5645C55.5645 60.0664 55.5641 60.0658 55.2881 59.7588C55.2475 59.7141 55.2074 59.6713 55.168 59.6279C55.0657 59.4914 55.0664 59.4907 54.9512 59.3604Z" fill="#5852B0"/>
</svg>
