<svg width="100" height="100" viewBox="0 0 100 100" fill="none" xmlns="http://www.w3.org/2000/svg">
<path d="M45.1222 43.2749L39.3159 55.967C39.1025 56.4305 38.645 56.7233 38.1388 56.7233H37.2179C36.7116 56.7233 36.2542 56.4305 36.0408 55.967L30.2162 43.2688H33.0583L37.7546 53.6433L42.4935 43.2688H45.1161L45.1222 43.2749Z" fill="black"/>
<path d="M56.9298 54.6313V56.7233H47.3727C46.8054 56.7233 46.3419 56.2598 46.3419 55.6925V44.3118C46.3419 43.7446 46.8054 43.281 47.3727 43.281H56.6432V45.373H48.9584V48.8677H55.7771V50.9231H48.9584V54.6313H56.9237H56.9298Z" fill="black"/>
<path d="M60.632 56.4793C59.6196 56.1865 58.8145 55.7962 58.2229 55.3083L59.1317 53.3688C59.7111 53.8079 60.4185 54.1616 61.2602 54.4361C62.1019 54.7106 62.9435 54.8508 63.7913 54.8508C64.8403 54.8508 65.621 54.6923 66.1394 54.369C66.6578 54.0519 66.914 53.6249 66.914 53.1004C66.914 52.7162 66.7676 52.399 66.481 52.149C66.1943 51.8989 65.8284 51.7037 65.3832 51.5635C64.9379 51.4232 64.3341 51.2646 63.5656 51.0816C62.4922 50.8377 61.6201 50.5937 60.9553 50.3498C60.2905 50.1058 59.7172 49.7216 59.2414 49.2031C58.7657 48.6847 58.5279 47.9833 58.5279 47.099C58.5279 46.3549 58.7413 45.6779 59.1622 45.0741C59.583 44.4642 60.2234 43.9824 61.0772 43.6225C61.9311 43.2627 62.974 43.0858 64.2121 43.0858C65.0721 43.0858 65.9199 43.1895 66.7554 43.3908C67.591 43.592 68.3107 43.8909 68.9145 44.2751L68.085 46.2146C67.469 45.867 66.8225 45.6047 66.1516 45.4278C65.4807 45.2449 64.8281 45.1595 64.1938 45.1595C63.157 45.1595 62.3885 45.3242 61.8823 45.6596C61.3761 45.9951 61.126 46.4342 61.126 46.9831C61.126 47.3673 61.2724 47.6845 61.5591 47.9284C61.8457 48.1724 62.2117 48.3676 62.6569 48.5018C63.1021 48.642 63.7059 48.8006 64.4744 48.9836C65.5234 49.2153 66.3834 49.4532 67.0543 49.7033C67.7252 49.9533 68.2985 50.3315 68.7803 50.8499C69.256 51.3622 69.4939 52.0514 69.4939 52.9235C69.4939 53.6676 69.2804 54.3385 68.8596 54.9423C68.4388 55.5461 67.7923 56.0279 66.9323 56.3817C66.0723 56.7415 65.0233 56.9184 63.7852 56.9184C62.6996 56.9184 61.6445 56.772 60.632 56.4732" fill="black"/>
<path d="M74.9952 45.3913H70.3173V43.2749H82.2957V45.3913H77.6178V56.7294H74.9952V45.3913Z" fill="black"/>
<path d="M89.9805 51.655L87.3213 45.7755L84.6804 51.655H89.9805ZM90.8465 53.6128H83.79L82.3994 56.7233H79.6975L85.638 44.141C85.888 43.6104 86.4247 43.2688 87.0102 43.2688H87.6689C88.2544 43.2688 88.7912 43.6043 89.0412 44.1349L95 56.7172H92.2554L90.8465 53.6067V53.6128Z" fill="black"/>
<path d="M17.3534 51.9538H22.7998L23.7513 49.5386L21.1165 43.7201L17.3534 51.9538Z" fill="black"/>
<path d="M12.8888 54.8448L19.2074 41H14.2916C11.8032 41 9.49167 41.9819 7.79004 43.5921L12.8827 54.8448H12.8888Z" fill="black"/>
<path d="M25.1601 45.9707L26.6544 42.1893C26.8801 41.616 26.4592 41 25.8432 41H22.8059C23.306 42.0551 24.1721 43.8787 25.1601 45.9707Z" fill="black"/>
<path d="M16.2982 54.2593L14.8161 57.4918C14.7856 57.5527 14.7551 57.6137 14.7186 57.6747L14.1208 59.0104C17.5058 58.9677 20.4394 57.0587 21.9398 54.2593H16.2982Z" fill="black"/>
<path d="M11.2909 58.4005L5.74078 46.5013C5.31994 47.4589 5.05769 48.4957 5.00889 49.5996C4.82592 53.7714 7.4851 57.3515 11.2116 58.5713L11.2909 58.4005Z" fill="black"/>
</svg>
