<svg viewBox="0 0 24 24" fill="currentColor" xmlns="http://www.w3.org/2000/svg">
<path d="M15.073 2H8.937C5.006 2 2 4.988 2 8.918v6.164C2 18.992 4.988 22 8.918 22h6.164C18.992 22 22 19.012 22 15.082V8.918C22 4.988 19.012 2 15.073 2zM17.887 13.856c.458.45.608.74.608.74s.06.127-.036.25c-.27.358-1.898.36-1.898.36s-4.08.01-4.87-.018c-.42-.015-.818-.134-1.115-.427-.404-.397-.382-1.12-.382-1.72 0-1.88.284-2.812 1.158-3.257.404-.205.875-.268 1.398-.268.745 0 1.36.196 1.36.196s.13.087.17.294c.048.25.01 1.69.78 2.56.707.796 1.51.88 1.89.88h.937s.28.016.42.234c.14.22.04.63-.06.91-.21.59-.83 1.74-1.75 2.62-.17.16-.34.31-.51.45zm-6.82-3.44c-.16.21-.29.45-.4.71-.29.68-.29 1.25-.29 1.25s-.03.15-.17.18c-.41.09-.89-.15-1.25-.55-.54-.6-.52-1.53-.52-1.53s-.02-.93.59-1.61c.56-.62 1.35-.82 2.02-.82 0 0 .61-.02.77.19.11.14.02.42-.02.54-.15.43-.41 1.13-.73 1.64z"/>
</svg>
