<svg width="128" height="128" viewBox="0 0 128 128" fill="none" xmlns="http://www.w3.org/2000/svg">
<path d="M82.8175 62.7164V65.3863H86.4713V67.7482H79.0621V60.2518H94.8955V51.7286H73.8858C72.1604 51.7286 70.7394 53.1663 70.7394 54.912V72.9853C70.7394 74.7311 72.1604 76.1687 73.8858 76.1687H91.7491C93.4745 76.1687 94.8955 74.7311 94.8955 72.9853V62.7164H82.8175ZM118.95 51.7286H100.985C99.2598 51.7286 97.8389 53.1663 97.8389 54.912V72.9853C97.8389 74.7311 99.2598 76.1687 100.985 76.1687H118.849C120.574 76.1687 121.995 74.7311 121.995 72.9853V55.0147C122.096 53.1663 120.675 51.7286 118.95 51.7286ZM113.672 67.7482H106.263V60.2518H113.672V67.7482ZM53.5866 51.7286L36.1293 78.9413H33.0845L37.0428 85L49.9328 78.9413H46.1774L50.6432 72.0611H59.3719V76.3741H67.7961V51.7286H53.5866ZM53.3836 67.7482L59.3719 58.5061V67.7482H53.3836ZM17.0481 76.2714L24.3558 64.8729V76.2714H34.4039L51.8612 49.0587H54.6016L50.6432 43L37.7533 49.0587H41.7116L32.78 63.1271V51.7286H22.7319L15.4242 63.1271V51.7286H7V76.2714H17.0481Z" fill="#5852B0"/>
</svg>
