<svg width="128" height="128" viewBox="0 0 128 128" fill="none" xmlns="http://www.w3.org/2000/svg">
<path d="M90.1184 53.6562C92.4315 53.6562 94.7446 53.6562 97.1278 53.6562C96.6191 55.1825 96.6191 55.1825 96.3347 55.9368C96.2749 56.0956 96.2152 56.2545 96.1536 56.4182C96.0927 56.5793 96.0318 56.7405 95.969 56.9066C95.9064 57.073 95.8437 57.2395 95.7791 57.4109C95.626 57.8176 95.4725 58.2242 95.319 58.6307C95.5387 58.5202 95.7585 58.4098 95.9849 58.2959C96.9666 57.8767 97.8531 57.8568 98.9085 57.8817C99.1789 57.8865 99.1789 57.8865 99.4547 57.8914C101.727 57.951 102.945 58.1832 104.646 59.7895C105.412 60.6104 105.341 61.344 105.33 62.4263C105.218 63.7284 104.802 64.9283 104.392 66.163C104.309 66.4208 104.227 66.6786 104.142 66.9442C103.772 68.0953 103.389 69.2416 103.007 70.3884C100.694 70.3884 98.3805 70.3884 95.9973 70.3884C96.7567 67.8572 96.7567 67.8572 97.1376 66.8087C97.217 66.5864 97.2964 66.3642 97.3782 66.1352C97.5428 65.6779 97.7083 65.221 97.8746 64.7644C97.9532 64.5436 98.0317 64.3228 98.1127 64.0953C98.1841 63.8978 98.2556 63.7002 98.3292 63.4966C98.4907 62.9042 98.5134 62.4072 98.4845 61.7962C97.4497 61.1988 96.4865 61.2014 95.319 61.344C93.5555 62.167 93.0107 64.8198 92.3795 66.5446C92.1364 67.2219 91.8971 67.9005 91.6588 68.5796C91.4489 69.1765 91.2391 69.7734 91.0229 70.3884C88.7097 70.3884 86.3966 70.3884 84.0134 70.3884C84.1639 69.4858 84.2747 68.8441 84.5858 68.0263C84.6562 67.8393 84.7266 67.6523 84.7992 67.4597C84.9139 67.161 84.9139 67.161 85.0309 66.8563C85.1105 66.6462 85.1901 66.436 85.2722 66.2195C85.5297 65.5407 85.789 64.8626 86.0484 64.1845C86.2245 63.7215 86.4006 63.2585 86.5765 62.7955C87.7385 59.7416 88.9162 56.6945 90.1184 53.6562Z" fill="#5852B0"/>
<path d="M119.965 53.6563C119.837 54.3534 119.683 55.0019 119.428 55.663C119.375 55.8023 119.322 55.9417 119.267 56.0852C118.983 56.7874 118.681 57.4822 118.382 58.1785C119.576 58.1785 120.77 58.1785 122 58.1785C121.774 59.3091 121.774 59.3091 121.322 60.2135C120.053 60.2135 118.785 60.2135 117.478 60.2135C117.403 60.5866 117.329 60.9597 117.252 61.344C117.113 61.7612 116.967 62.1758 116.814 62.5877C116.737 62.7952 116.66 63.0027 116.581 63.2165C116.429 63.6171 116.267 64.0141 116.094 64.4063C115.883 64.9955 115.848 65.4277 115.867 66.05C115.876 66.3624 115.885 66.6749 115.895 66.9968C117.163 67.0714 118.432 67.146 119.739 67.2229C119.739 68.3535 119.739 68.3535 119.159 68.947C116.936 70.6146 114.118 70.6325 111.46 70.3187C110.281 70.06 109.322 69.5169 108.515 68.6196C107.935 67.6916 108.076 66.6946 108.207 65.6402C108.476 64.6531 108.839 63.7179 109.225 62.7714C109.322 62.5238 109.419 62.2762 109.519 62.0211C109.756 61.4171 109.999 60.8151 110.242 60.2135C109.198 60.2135 108.153 60.2135 107.077 60.2135C108.674 57.0193 111.607 55.9432 114.764 54.5607C114.957 54.4669 115.149 54.373 115.347 54.2763C116.886 53.5665 118.288 53.5617 119.965 53.6563Z" fill="#5852B0"/>
<path d="M48.0617 53.6562C50.4495 53.6562 52.8372 53.6562 55.2973 53.6562C55.1255 54.3434 54.9351 54.9607 54.6896 55.6206C54.3392 56.5712 53.9984 57.5246 53.6643 58.4811C53.0443 60.254 52.4003 62.0085 51.6548 63.7332C50.7206 65.9139 49.965 68.146 49.1923 70.3884C46.8792 70.3884 44.5661 70.3884 42.1829 70.3884C42.4865 69.0222 42.7955 67.8134 43.2993 66.5304C43.3563 66.3822 43.4132 66.234 43.472 66.0813C43.5875 65.7808 43.7035 65.4805 43.8198 65.1803C44.4706 63.4972 45.0785 61.7989 45.6876 60.1004C46.243 58.5514 46.8014 57.0043 47.3834 55.4651C47.6073 54.8682 47.8311 54.2713 48.0617 53.6562Z" fill="#5852B0"/>
<path d="M38.5087 57.6703C38.7695 57.6686 39.0304 57.6668 39.2992 57.665C43.2068 57.674 43.2068 57.674 44.4441 58.8574C44.3212 59.8895 44.0383 60.6602 43.5396 61.5707C42.6635 61.1468 42.6635 61.1468 42.4091 60.8924C40.5658 60.7259 38.937 60.7403 37.2642 61.599C35.855 62.7754 35.1516 64.2423 34.58 65.9516C34.0596 67.4491 33.5023 68.9143 32.9124 70.3891C30.7486 70.3891 28.5847 70.3891 26.3552 70.3891C26.8631 68.1036 26.8631 68.1036 27.2314 67.1387C27.3104 66.9286 27.3894 66.7184 27.4708 66.5019C27.5503 66.2923 27.6299 66.0828 27.7119 65.8669C27.8586 65.4667 28.0047 65.0663 28.15 64.6656C28.261 64.3613 28.261 64.3613 28.3743 64.0509C28.5523 63.5572 28.7274 63.0624 28.9007 62.567C28.9981 62.2896 29.0954 62.0121 29.1957 61.7262C29.2846 61.4706 29.3735 61.215 29.4651 60.9516C30.2124 58.9956 30.2124 58.9956 30.8333 58.5924C33.3696 57.8842 35.8821 57.6525 38.5087 57.6703Z" fill="#5852B0"/>
<path d="M56.4278 59.5352C58.7409 59.5352 61.0541 59.5352 63.4373 59.5352C63.1318 60.9097 62.9045 61.8147 62.3359 63.0275C61.922 63.964 61.5988 64.9315 61.2601 65.8972C60.7297 67.4035 60.1569 68.8944 59.5934 70.3885C57.3549 70.3885 55.1164 70.3885 52.8101 70.3885C52.9684 69.2801 53.1061 68.536 53.5025 67.5374C53.7578 66.8864 53.9902 66.2288 54.2233 65.5695C54.9412 63.5518 55.6854 61.544 56.4278 59.5352Z" fill="#5852B0"/>
<path fill-rule="evenodd" clip-rule="evenodd" d="M82.3284 57.8643C83.4538 57.872 84.2262 57.8985 85.1439 58.6309C85.0854 60.0305 84.8736 61.1407 84.262 62.4014C83.6149 63.7668 83.1686 65.2237 82.7112 66.6611C81.0011 71.9846 81.0009 71.9851 79.0569 72.9922C75.8393 74.1492 72.9109 74.4719 69.4993 74.5156C69.1855 74.5229 69.185 74.5229 68.8646 74.5303C67.2453 74.538 65.8117 74.3021 64.4407 73.3994C63.9498 72.6097 64.0543 71.9864 64.1155 71.0674C64.4733 71.0489 64.8317 71.0353 65.1898 71.0244C65.4884 71.0126 65.4886 71.013 65.7933 71.001C66.3761 71.0672 66.3767 71.0671 66.8021 71.4033C67.8378 72.1429 69.445 71.8411 70.6722 71.7451C71.4558 71.5804 72.1839 71.3431 72.9339 71.0674C73.0938 71.0415 73.2536 71.015 73.4183 70.9883C73.8739 70.8773 73.8746 70.8774 74.0911 70.4346C74.157 70.2703 74.2225 70.1058 74.2903 69.9365L75.1946 68.1279C75.0577 68.2179 74.9207 68.3077 74.7796 68.4004C72.4492 69.8739 70.2925 70.5117 67.5071 70.1631C66.772 69.9042 66.2623 69.5661 65.6985 69.0322C65.58 68.9201 65.4613 68.8079 65.3392 68.6924C64.5244 67.7557 64.3967 66.8519 64.4603 65.6328C64.8099 63.4576 65.8586 61.6592 67.5071 60.2139C70.1213 58.3608 72.7565 57.8818 75.9134 57.8848C76.143 57.8838 76.3731 57.8828 76.6097 57.8818C77.0904 57.8805 77.5714 57.8808 78.0521 57.8818C78.7872 57.8826 79.5221 57.8768 80.2571 57.8711C80.7264 57.8706 81.1961 57.8709 81.6653 57.8711C81.8841 57.869 82.103 57.8664 82.3284 57.8643ZM77.4554 60.8916C74.7806 60.7544 72.2963 61.2281 70.348 63.1943C69.7101 63.9857 69.6016 64.6317 69.6819 65.6338C69.8052 66.2918 69.893 66.5982 70.4466 66.9961C71.4213 67.1079 72.0252 67.0758 72.9476 66.7559C75.0037 65.3997 76.6219 63.2014 77.4554 60.8916Z" fill="#5852B0"/>
<path d="M63.2111 53.6563C63.9273 53.9451 64.0865 54.1406 64.5678 54.7869C64.7416 55.7428 64.641 56.2202 64.2145 57.0904C63.3679 58.0672 62.6896 58.5588 61.4146 58.7093C60.1279 58.7457 59.3111 58.7127 58.2367 57.9524C57.7844 57.5002 57.7844 57.5002 57.75 57.0506C57.8381 56.0974 57.9154 55.5868 58.5193 54.8151C60.0743 53.6135 61.2533 53.3987 63.2111 53.6563Z" fill="#5852B0"/>
<path fill-rule="evenodd" clip-rule="evenodd" d="M25.9943 58.123C26.2794 58.1226 26.2797 58.1226 26.5705 58.1221C27.0332 58.178 27.0338 58.1781 27.4855 58.6299C27.6883 59.9622 27.2431 60.9086 26.7092 62.1191C26.3002 63.0536 25.9211 63.9972 25.55 64.9473C25.4822 65.1205 25.4138 65.2942 25.3439 65.4727C24.8459 66.7628 24.4267 68.059 24.0549 69.3916C23.8686 69.9355 23.8681 69.9358 23.4162 70.3877C22.7422 70.439 22.7419 70.4398 21.8879 70.4326C21.738 70.432 21.5882 70.4313 21.4338 70.4307C20.9546 70.4281 20.4754 70.4218 19.9963 70.416C19.6715 70.4137 19.3464 70.412 19.0217 70.4102C18.2254 70.4052 17.4292 70.397 16.633 70.3877C16.6888 70.1225 16.6884 70.1221 16.7453 69.8516C16.8724 69.2848 16.8727 69.2842 16.8586 68.8057C16.7543 68.8793 16.6496 68.9524 16.5422 69.0283C14.6384 70.3038 12.6057 70.9326 10.3019 70.6143C9.05602 70.1778 7.92259 69.26 7.33808 68.0703C6.76821 66.3182 6.93524 64.4782 7.71503 62.8271C8.35426 61.6976 9.07261 60.808 10.0754 59.9873C10.2758 59.8195 10.4763 59.6514 10.6828 59.4785C13.0777 58.2133 15.888 58.1435 18.5383 58.1406C18.7805 58.1399 19.0231 58.1385 19.2726 58.1377C19.7815 58.1366 20.2911 58.1357 20.8 58.1357C21.5813 58.1352 22.3625 58.1312 23.1437 58.127C23.6388 58.1263 24.134 58.1262 24.6291 58.126C24.8634 58.1244 25.0986 58.1228 25.34 58.1211C25.5559 58.1218 25.772 58.1223 25.9943 58.123ZM19.798 60.8916C18.7564 60.8381 17.7373 60.819 16.7062 60.9951C15.0715 61.4299 13.7651 62.1744 12.7893 63.5771C12.469 64.5779 12.2984 65.5632 12.7893 66.5449C13.4449 66.8727 13.4453 66.8724 15.05 66.7705C17.2837 65.6536 18.9649 63.1818 19.798 60.8916Z" fill="#5852B0"/>
<path d="M81.9785 58.1789C82.4212 58.1667 82.8641 58.158 83.3069 58.1507C83.6768 58.1428 83.6768 58.1428 84.0541 58.1348C84.6918 58.1789 84.6918 58.1789 85.1441 58.6311C85.1388 59.1699 85.1388 59.1699 85.0593 59.79C85.0217 60.0986 85.0217 60.0986 84.9833 60.4135C84.951 60.6505 84.951 60.6505 84.918 60.8923C84.3894 60.0528 84.4745 59.9438 84.6918 58.8573C83.3487 58.6334 83.3487 58.6334 81.9785 58.405C81.9785 58.3304 81.9785 58.2558 81.9785 58.1789Z" fill="#5852B0"/>
<path d="M51.9059 62.7012C51.8037 63.0643 51.6997 63.4269 51.595 63.7893C51.5373 63.9913 51.4796 64.1933 51.4201 64.4014C51.2276 64.9623 51.2276 64.9623 50.7754 65.6406C50.4432 64.0073 50.4432 64.0073 50.9591 63.1534C51.4537 62.7012 51.4537 62.7012 51.9059 62.7012Z" fill="#5852B0"/>
<path d="M66.3767 61.3438C66.6028 61.796 66.6028 61.796 66.4509 62.2773C66.3704 62.4589 66.29 62.6405 66.2071 62.8276C66.129 63.0098 66.0509 63.1919 65.9704 63.3796C65.6984 63.831 65.6984 63.831 65.02 64.0571C65.3182 63.0135 65.7466 62.2258 66.3767 61.3438Z" fill="#5852B0"/>
<path d="M112.503 55.918C112.503 56.0672 112.503 56.2164 112.503 56.3702C110.929 57.1273 110.929 57.1273 110.016 56.8224C110.303 56.67 110.59 56.5196 110.878 56.3702C111.038 56.2862 111.198 56.2023 111.363 56.1158C111.825 55.918 111.825 55.918 112.503 55.918Z" fill="#5852B0"/>
<path d="M96.6759 68.127C96.8251 68.3508 96.9743 68.5747 97.1281 68.8053C97.2027 68.8799 97.2773 68.9545 97.3542 69.0314C97.3542 69.2552 97.3542 69.4791 97.3542 69.7097C97.1303 69.7843 96.9065 69.859 96.6759 69.9358C96.5266 69.8612 96.3774 69.7866 96.2236 69.7097C96.3729 69.1874 96.5221 68.6651 96.6759 68.127Z" fill="#5852B0"/>
<path d="M103.007 67.6748C103.231 67.7494 103.454 67.824 103.685 67.9009C103.61 68.274 103.536 68.6471 103.459 69.0315C103.16 68.8822 102.862 68.733 102.554 68.5792C102.704 68.2808 102.853 67.9823 103.007 67.6748Z" fill="#5852B0"/>
</svg>
