<svg width="100" height="100" viewBox="0 0 100 100" fill="none" xmlns="http://www.w3.org/2000/svg">
<path fill-rule="evenodd" clip-rule="evenodd" d="M24.8294 17H74.1706C78.4772 17 82 20.5235 82 24.8306V74.1694C82 78.4765 78.4772 82 74.1706 82H24.8294C20.5236 82 17 78.4765 17 74.1694V24.8306C17 20.5235 20.5236 17 24.8294 17ZM24.1022 57.9647C26.9192 54.854 31.6245 50.1717 35.8051 50.1717C40.8448 50.1717 45.8546 53.5302 49.9562 56.1803C53.2903 58.333 58.0523 61.595 62.1213 61.595C63.243 61.595 64.3346 61.4437 65.3885 61.0532C68.4191 59.9303 71.2438 56.6401 73.3088 54.231L74.7238 52.5799L74.7881 52.6543V58.7954C72.5233 61.3361 69.8315 63.987 66.6431 65.168C65.1827 65.7081 63.6743 65.9363 62.1213 65.9363C57.0824 65.9363 52.0718 62.5761 47.9693 59.926C44.6352 57.7724 39.8749 54.5122 35.8051 54.5122C32.6956 54.5122 27.5932 60.1883 25.644 62.4351L24.2205 64.0767L24.1022 63.9391V57.9647ZM24.1613 39.0868H74.8395V42.9863H24.1613V39.0868Z" fill="black"/>
</svg>
