<svg width="128" height="128" viewBox="0 0 128 128" fill="none" xmlns="http://www.w3.org/2000/svg">
<path d="M9.86449 54.0197L3.1143 54.0371L3.06211 57.4991C2.96642 62.9271 2.98382 67.2939 3.0969 67.7636C3.19259 68.1376 3.39266 68.3638 5.29768 70.2949C6.64597 71.6606 7.51584 72.4696 7.74201 72.574C8.07256 72.7306 8.4466 72.7393 14.988 72.7393H21.8774V65.963C21.8774 62.2399 21.8513 59.0562 21.8252 58.8996C21.773 58.6648 21.3381 58.1776 19.6244 56.4466C18.4501 55.2549 17.4063 54.2458 17.3106 54.1936C17.2149 54.1414 17.0235 54.0718 16.8756 54.0458C16.7365 54.0197 13.5788 54.0023 9.86449 54.0197ZM16.2754 58.8126C16.4755 58.8996 16.7452 59.1258 16.8843 59.3085L17.1366 59.6303L17.1627 63.8405L17.1888 68.042H13.1178C9.34257 68.042 9.02072 68.0246 8.69887 67.8767C8.29873 67.694 8.01167 67.407 7.88119 67.059C7.8203 66.8937 7.7855 65.415 7.7855 62.7271V58.6474H11.8565C15.6317 58.6474 15.9449 58.6648 16.2754 58.8126Z" fill="#5852B0"/>
<path d="M3.11426 54.0371L9.86445 54.0197C13.5788 54.0023 16.7364 54.0197 16.8756 54.0458C17.0235 54.0719 17.2148 54.1414 17.3105 54.1936C17.4062 54.2458 18.4501 55.2549 19.6244 56.4466C21.338 58.1776 21.773 58.6648 21.8252 58.8996C21.8513 59.0562 21.8773 62.2399 21.8773 65.963V72.7393L17.1888 68.042L17.1627 63.8405L17.1366 59.6303L16.8843 59.3085C16.7451 59.1258 16.4755 58.8996 16.2754 58.8126C15.9448 58.6648 15.6317 58.6474 11.8564 58.6474H7.78546L3.11426 54.0371Z" fill="#9CB3FF"/>
<path d="M37.596 54.0111C37.5612 54.0372 37.5351 55.7508 37.5351 57.8124V61.5616L37.1611 61.1788C35.8824 59.8305 33.8208 59.2564 31.881 59.7088C31.2547 59.8479 30.1412 60.4307 29.5758 60.9005C26.9923 63.0404 26.4269 67.2592 28.3145 70.2429C29.08 71.4607 30.5414 72.5306 31.8897 72.8612C32.603 73.0352 33.9426 73.0439 34.6211 72.8699C35.4474 72.6611 36.3782 72.1479 36.9871 71.5651L37.5351 71.0432V71.8869V72.7394H39.0574H40.5797V63.3448V53.9502H39.1183C38.3093 53.9502 37.6221 53.9763 37.596 54.0111ZM34.795 62.5184C36.4652 62.9534 37.5351 64.4234 37.5351 66.3024C37.5351 67.4506 37.2133 68.2683 36.4565 69.0686C35.0386 70.5734 32.7595 70.5473 31.3417 69.0077C30.4718 68.0769 30.1151 66.92 30.3152 65.6848C30.6632 63.4057 32.6899 61.9791 34.795 62.5184Z" fill="#5852B0"/>
<path d="M120.929 54.0024C120.895 54.0372 120.869 55.7508 120.869 57.8037V61.5442L120.434 61.1005C119.659 60.309 118.581 59.7957 117.346 59.6044C114.623 59.1955 111.918 60.9701 110.943 63.7971C110.456 65.2498 110.421 67.1983 110.882 68.5901C111.57 70.7126 113.266 72.3828 115.223 72.8612C115.945 73.0352 117.276 73.0439 117.954 72.8699C118.816 72.6524 119.685 72.174 120.303 71.5825L120.869 71.0432V71.8869V72.7394H122.434H124L123.983 63.3622L123.957 53.9937L122.469 53.9676C121.66 53.9589 120.964 53.9763 120.929 54.0024ZM118.676 62.6924C120.086 63.3361 120.869 64.6322 120.869 66.3111C120.869 67.8855 120.155 69.1294 118.859 69.7818C117.032 70.7126 114.884 69.921 113.97 67.9812C113.727 67.4593 113.692 67.2853 113.666 66.4589C113.623 65.4499 113.727 65.0063 114.153 64.2321C114.605 63.4144 115.623 62.6489 116.51 62.4662C117.093 62.3358 118.146 62.4488 118.676 62.6924Z" fill="#5852B0"/>
<path d="M47.7299 59.6043C46.486 59.8304 45.4422 60.3785 44.5288 61.2918C43.7807 62.0399 43.2588 62.9011 42.9021 63.971C42.6412 64.7452 42.6325 64.8409 42.6238 66.2588C42.6238 67.5723 42.6499 67.8072 42.8238 68.39C43.5458 70.669 45.0768 72.2609 47.1036 72.8176C47.9039 73.0438 49.1565 73.0612 49.9655 72.8611C50.8267 72.6523 51.8444 72.0869 52.4272 71.5041L52.9317 70.9996V71.8694V72.7393H54.454H55.9763V66.2588V59.7783H54.454H52.9317V60.6829V61.5876L52.3663 61.0309C51.7748 60.4568 50.7658 59.8913 49.9742 59.7087C49.3827 59.5608 48.2518 59.5173 47.7299 59.6043ZM49.9568 62.4748C50.6527 62.6053 51.192 62.9011 51.7661 63.4752C53.993 65.6847 52.8447 69.6078 49.8176 70.1384C47.6603 70.5211 45.6248 68.6509 45.6248 66.3023C45.6248 64.8409 46.4077 63.4839 47.6081 62.8402C48.4171 62.4053 49.0782 62.3009 49.9568 62.4748Z" fill="#5852B0"/>
<path d="M63.7616 59.6047C62.6656 59.7787 61.8653 60.0831 60.9259 60.692C58.4206 62.31 57.3159 65.485 58.2467 68.3991C58.8817 70.4259 60.5779 72.0612 62.7178 72.7397C63.666 73.0355 65.3796 73.079 66.4321 72.8354C67.6934 72.5483 68.9461 71.8438 69.9203 70.8956L70.4248 70.3998L69.5724 69.643C69.1026 69.2254 68.6329 68.7992 68.5285 68.7122L68.3372 68.5382L67.9805 68.8601C66.1625 70.5042 63.8051 70.6259 62.2133 69.1733C61.7261 68.7296 61.2825 67.9989 61.1085 67.3639C60.9694 66.8246 60.9955 65.6503 61.1607 65.0849C61.4478 64.0932 62.2568 63.1885 63.2658 62.7101C63.8051 62.4579 63.9182 62.4318 64.762 62.4318C65.4144 62.4318 65.8058 62.4753 66.1277 62.5883C66.6148 62.7623 67.4151 63.2581 67.8848 63.6844C68.2241 63.9975 68.0501 64.0758 69.3984 62.9276C69.8594 62.5274 70.2422 62.1708 70.2422 62.1273C70.2422 61.9968 68.9548 60.866 68.4763 60.5789C67.1019 59.7526 65.2578 59.3785 63.7616 59.6047Z" fill="#5852B0"/>
<path d="M77.7318 59.613C74.9569 60.0392 72.6778 62.153 72.1124 64.8235C72.0428 65.1628 71.9819 65.85 71.9819 66.3371C71.9819 69.4686 74.0783 72.1043 77.1577 72.835C77.8188 72.9916 78.1232 73.009 79.1149 72.9742C80.1239 72.9394 80.3936 72.8959 81.0547 72.6697C82.0115 72.3479 83.0293 71.739 83.8122 71.017C84.1514 70.7125 84.4211 70.4342 84.4211 70.3994C84.4211 70.3472 82.8118 68.8945 82.49 68.6683C82.3508 68.564 82.2725 68.5988 81.8289 68.9989C80.1152 70.5386 77.6448 70.5734 76.1573 69.0859C75.5658 68.4944 75.2005 67.7637 75.0787 66.9286C74.5307 63.1186 78.6625 60.9787 81.6984 63.5013L82.2377 63.9537L83.238 63.0751C83.7948 62.5967 84.2471 62.1791 84.2471 62.153C84.2471 62.0051 83.7513 61.4919 83.1859 61.057C82.3856 60.4481 81.4809 59.9957 80.6371 59.7783C79.8456 59.5782 78.4799 59.4999 77.7318 59.613Z" fill="#5852B0"/>
<path d="M92.2499 59.5605C92.1803 59.5779 91.8236 59.6388 91.467 59.691C90.1796 59.9085 89.0052 60.5261 87.9875 61.5177C86.9871 62.5007 86.4043 63.5706 86.126 64.9276C85.778 66.6065 86.0999 68.4419 86.9871 69.8337C87.7526 71.0428 88.5442 71.73 89.8577 72.3563C90.8668 72.826 91.6583 73 92.8327 73C94.3462 73 95.4858 72.6521 96.7384 71.817C97.9649 71.008 98.8087 69.8946 99.3132 68.4158C99.6612 67.4241 99.7394 66.0062 99.522 64.9102C99.0001 62.3354 96.8515 60.2042 94.2854 59.6997C93.7286 59.5953 92.4673 59.5083 92.2499 59.5605ZM94.1984 62.6572C96.7123 63.588 97.3995 67.198 95.4423 69.1117C93.2415 71.2603 89.6142 70.0076 89.1096 66.9283C88.7704 64.8928 90.0839 62.8834 92.015 62.4746C92.5717 62.3528 93.6417 62.4398 94.1984 62.6572Z" fill="#5852B0"/>
<path d="M107.647 59.6477C106.829 59.8304 106.037 60.2653 105.368 60.9003L104.776 61.4483V60.6133V59.7782H103.254H101.731V66.2587V72.7393H103.254H104.776V69.312C104.776 67.3635 104.811 65.6933 104.863 65.4237C105.063 64.3885 105.768 63.4317 106.698 62.9358C107.133 62.7097 107.238 62.6923 108.212 62.6836H109.256V61.1178V59.5607L108.734 59.5433C108.447 59.5346 107.96 59.5868 107.647 59.6477Z" fill="#5852B0"/>
</svg>
