<svg width="128" height="128" viewBox="0 0 128 128" fill="none" xmlns="http://www.w3.org/2000/svg">
<path d="M107.644 55.0128C102.968 55.3916 99.226 56.8391 96.9256 59.1619C95.6837 60.4243 95.0002 61.7203 94.7668 63.2436C94.5084 64.9772 95.0835 67.3084 96.1337 68.7896C96.6005 69.4545 97.7424 70.557 98.4342 71.0199C99.6845 71.853 101.577 72.602 103.435 73.006C106.486 73.6624 110.678 73.7719 113.362 73.2669C114.512 73.0565 116.404 72.5431 116.521 72.4169C116.555 72.3748 116.663 71.9035 116.763 71.3733C116.863 70.8431 116.963 70.3382 116.988 70.254C117.046 70.052 116.913 70.0689 116.163 70.3634C115.321 70.7001 114.054 71.003 112.812 71.1629C111.453 71.3397 108.795 71.3481 107.853 71.1713C104.552 70.5654 101.993 68.453 101.31 65.7768C101.143 65.1119 101.143 63.7569 101.318 63.05C101.727 61.4005 102.835 59.8941 104.41 58.8589C106.227 57.6638 108.253 57.201 110.778 57.3945C112.645 57.546 114.087 57.9332 115.329 58.6233C115.629 58.7916 115.954 58.9178 116.046 58.901C116.179 58.8841 116.279 58.6485 116.613 57.6133C116.83 56.9148 116.98 56.3257 116.955 56.2921C116.863 56.1995 115.046 55.6693 114.187 55.4757C112.804 55.1812 111.528 55.0465 109.77 55.0128C108.828 54.996 107.878 54.996 107.644 55.0128Z" fill="#5852B0"/>
<path d="M12.2586 55.3417C11.8168 55.4847 11.3667 55.8971 11.1584 56.3516C11.0083 56.6714 11 57.0669 11 64.2709V71.8452L11.2167 72.2828C11.4668 72.7878 12.0002 73.1918 12.5336 73.2675C12.717 73.2927 18.1431 73.3012 24.5861 73.2927C35.4632 73.2591 36.3384 73.2507 36.9219 73.1076C39.6141 72.468 42.1396 71.0878 43.1064 69.7412C43.3315 69.4214 43.3398 69.3794 43.3398 68.4031V67.3932L43.1231 67.7214C42.373 68.8576 40.856 69.8675 38.9639 70.4903C34.9215 71.8284 29.7037 71.3739 26.6115 69.4214C25.8613 68.9417 24.8778 67.9823 24.5944 67.4437L24.4277 67.1239L24.4194 68.117C24.4194 69.2868 24.486 69.4803 25.2195 70.2714C25.728 70.8353 26.2781 71.2645 26.9449 71.6348L27.3783 71.8789H22.1939H17.0012V64.2625V56.6461H25.878H34.7548V57.4877V58.3293H35.88H37.0052V57.5887C36.9969 56.4778 36.6885 55.8298 35.98 55.4426L35.6299 55.2575L24.1276 55.2407C14.559 55.2238 12.567 55.2407 12.2586 55.3417Z" fill="#5852B0"/>
<path d="M47.8572 64.2798L47.8823 73.3521L53.0083 73.3773C59.9347 73.411 63.052 73.2595 64.9273 72.7966C68.4364 71.9214 71.0536 69.3882 71.8621 66.0976C72.0954 65.1382 72.1204 63.3035 71.9037 62.4199C71.337 60.0971 69.92 58.2456 67.7196 56.9495C66.5026 56.2342 65.144 55.805 62.9686 55.4599C61.8434 55.2748 61.56 55.2664 54.817 55.2411L47.8406 55.2074L47.8572 64.2798ZM60.4681 57.7238C60.8348 57.8164 61.4183 58.0183 61.76 58.1698C63.7771 59.0367 65.169 60.6862 65.6025 62.7481C65.7442 63.4213 65.7275 65.0456 65.5691 65.7946C65.069 68.1174 63.6271 69.6912 61.2766 70.4739C59.818 70.962 59.1512 71.0546 56.6173 71.0966L54.3419 71.1387V64.305V57.4713L57.0758 57.5134C59.5012 57.5386 59.8763 57.5639 60.4681 57.7238Z" fill="#5852B0"/>
<path d="M74.9294 64.3044V73.3936L77.955 73.3767L80.9723 73.3515L81.014 69.5896L81.0557 65.8277L84.8898 69.6064L88.7239 73.3851L92.1162 73.3936C94.3917 73.3936 95.5252 73.3683 95.5586 73.3094C95.5919 73.2589 93.3998 70.9782 90.6909 68.2346L85.7733 63.2524L90.5159 59.339C93.1248 57.1846 95.2668 55.3751 95.2668 55.3162C95.2668 55.2405 94.8001 55.2152 93.2081 55.2152H91.141L86.0567 59.4484L80.9723 63.69L80.9473 59.4484L80.9306 55.2152H77.93H74.9294V64.3044Z" fill="#5852B0"/>
<path d="M32.3209 59.4315C30.6039 59.6335 28.5202 60.4246 27.3616 61.3083C26.6031 61.889 25.7529 62.9578 25.7529 63.3281C25.7529 63.4459 25.953 63.934 26.053 64.0434C26.0697 64.0603 26.2947 63.833 26.5531 63.5469C28.9119 60.9801 33.8546 60.0711 37.9637 61.4513C39.414 61.9395 40.8393 62.8568 41.4894 63.7152C41.6561 63.9424 41.8228 64.1276 41.8478 64.1276C41.8728 64.136 41.9728 63.9845 42.0812 63.7994L42.2646 63.4712L42.0395 63.0251C41.7645 62.4697 40.5559 61.2578 39.9058 60.8706C37.8554 59.6503 35.0381 59.1201 32.3209 59.4315Z" fill="#5852B0"/>
<path d="M31.9628 61.8205C29.9124 62.1403 28.0953 62.9398 26.9284 64.0254L26.4033 64.5135L26.7867 64.8754L27.1701 65.2373L27.6536 64.9091C31.0126 62.6031 36.7387 62.5611 40.0811 64.8081L40.6979 65.2205L40.9146 65.0606C41.0312 64.9764 41.2146 64.8165 41.323 64.6987L41.5147 64.4967L41.0729 64.0927C39.7977 62.9229 38.0056 62.1403 35.8969 61.8289C34.8633 61.669 32.913 61.669 31.9628 61.8205Z" fill="#5852B0"/>
<path d="M32.5461 64.1438C31.7126 64.2279 30.479 64.5141 29.7122 64.7834C29.0621 65.019 28.0452 65.524 27.9702 65.6418C27.9202 65.7091 28.4286 65.9616 29.1121 66.2057C29.4205 66.3151 29.5038 66.3067 30.2873 66.071C31.5042 65.7091 32.5378 65.5661 33.9214 65.5661C35.3133 65.5661 36.3969 65.7091 37.4638 66.0374C37.8805 66.1636 38.3056 66.2646 38.4223 66.2646C38.6723 66.2646 39.9226 65.7512 39.9226 65.6502C39.9226 65.5492 38.6223 64.9265 37.8972 64.6908C36.2302 64.1438 34.3798 63.9502 32.5461 64.1438Z" fill="#5852B0"/>
<path d="M24.4192 65.0789V66.0468L24.7359 66.5433C26.553 69.371 32.2874 70.827 37.4385 69.7666C39.8389 69.2785 42.031 68.1002 42.9729 66.8126L43.3396 66.3076V65.3398V64.3804L42.9396 64.9106C42.4395 65.5671 41.6143 66.2067 40.5891 66.7369C38.7137 67.7047 36.5716 68.1676 33.9878 68.176C29.8036 68.176 26.1862 66.7874 24.7526 64.6245L24.4192 64.1195V65.0789Z" fill="#5852B0"/>
</svg>
