<svg width="128" height="128" viewBox="0 0 128 128" fill="none" xmlns="http://www.w3.org/2000/svg">
<path d="M79.6041 44.6768C79.6236 45.081 79.6562 50.8703 79.6757 57.5397C79.7017 64.6589 79.7408 69.9918 79.7799 70.4482C80.0078 73.1864 80.7435 75.6116 81.9871 77.7174C82.7228 78.9691 84.0054 80.3904 85.1188 81.1923C87.0004 82.5418 89.4094 83.1937 91.7793 82.9981C92.9773 82.8938 94.0321 82.6722 94.0321 82.5287C94.0321 82.4961 93.8042 82.2028 93.5242 81.8703C92.9318 81.1727 92.4434 80.5468 92.1635 80.1296L91.9616 79.8362L91.3887 79.8753C89.3638 80.0188 87.6189 79.3603 86.1996 77.926C84.5914 76.3092 83.5496 73.9622 83.1199 70.9958C83.0288 70.3504 83.0092 69.1313 82.9637 61.9403C82.9376 57.3702 82.9116 51.4505 82.9051 48.784L82.8986 43.9466H81.2318H79.5715L79.6041 44.6768Z" fill="#5852B0"/>
<path d="M108.454 55.069C105.928 55.3494 103.916 56.2947 102.171 58.0289C101.552 58.6417 100.875 59.4827 100.406 60.2129C99.9701 60.8909 99.8789 61.0539 99.5599 61.6863C98.4401 63.9225 97.9387 66.1912 97.9387 69.0141C97.9387 71.9805 98.4921 74.4318 99.6771 76.6745C101.363 79.8886 103.883 82.04 106.728 82.7115C107.939 82.9984 109.118 83.0962 110.225 82.9984C112.49 82.8028 114.066 82.1183 115.954 80.5014C116.11 80.3645 117.178 79.1519 117.549 78.689L117.725 78.4674V80.4036C117.732 81.4663 117.751 82.3464 117.784 82.3595C117.81 82.3725 118.545 82.3725 119.411 82.3595L121 82.3399L120.961 70.2659C120.935 63.6226 120.902 57.6247 120.883 56.9336L120.844 55.6819H119.216H117.595L117.608 57.6507C117.614 58.7395 117.601 59.6327 117.575 59.6457C117.549 59.6587 117.302 59.3654 117.035 58.9937C116.065 57.6833 114.789 56.5946 113.48 55.9492C112.263 55.3494 111.195 55.1016 109.691 55.0625C109.157 55.056 108.597 55.056 108.454 55.069ZM110.42 58.1919C111.345 58.2636 112.601 58.746 113.448 59.3523C114.177 59.8739 115.069 60.8713 115.642 61.7971C117.243 64.3853 117.901 67.3778 117.595 70.6766C117.23 74.5883 115.271 78.024 112.666 79.3149C110.811 80.2276 108.382 80.2211 106.566 79.2953C104.306 78.1479 102.347 75.2076 101.689 71.9675C101.077 68.962 101.461 65.7088 102.724 63.1727C103.232 62.1622 104.052 60.9691 104.73 60.252C105.908 59.0133 107.295 58.3157 108.877 58.1593C109.352 58.1136 109.574 58.1201 110.42 58.1919Z" fill="#5852B0"/>
<path d="M18.3763 55.1661C15.8632 55.4595 13.0244 56.6591 11.1168 58.2563C8.75334 60.2252 7.12563 62.8069 6.40293 65.7276C5.40026 69.7893 6.29224 74.1051 8.81844 77.4627C9.30025 78.1016 10.342 79.1968 10.9475 79.7054C13.4281 81.772 16.358 82.9064 19.4832 83.0107L20.1017 83.0303V82.7499C20.0952 82.6 20.0887 81.8307 20.0822 81.0418L20.0692 79.6076H19.7241C18.7605 79.6076 17.2369 79.2881 16.1301 78.8513C13.682 77.8799 11.553 75.8719 10.4657 73.5184C10.075 72.6774 9.65183 71.3409 9.65183 70.9562V70.8063L13.3825 70.7933L17.1067 70.7737V69.0786V67.3836L13.376 67.3705C11.3251 67.3705 9.6323 67.351 9.61928 67.3379C9.5737 67.2988 9.78205 66.4057 9.98388 65.7863C10.2573 64.9518 10.8694 63.7327 11.3772 63.0155C13.2718 60.3491 16.0975 58.7714 19.4376 58.5106L20.004 58.4715V56.7829V55.0944L19.4376 55.1009C19.1186 55.1074 18.6433 55.1335 18.3763 55.1661Z" fill="#5852B0"/>
<path d="M39.6668 55.1925C36.4179 55.6423 33.5076 57.1353 31.2874 59.4823C29.4253 61.4577 28.1622 63.9807 27.6739 66.6993C27.5046 67.6512 27.446 69.5353 27.5501 70.4871C27.8366 73.0558 28.7872 75.4615 30.2977 77.4629C30.7795 78.1019 31.945 79.321 32.5374 79.8034C34.9334 81.7593 37.7591 82.848 40.9234 83.024L41.5549 83.0566V81.342V79.6274L40.8908 79.5818C36.7825 79.3145 33.2862 76.8045 31.691 72.9906C31.1571 71.7063 30.8967 70.1481 30.9618 68.59C31.079 65.8062 32.1989 63.3614 34.2628 61.399C35.3111 60.4015 36.7825 59.5214 38.1823 59.0455C38.8464 58.8238 40.1356 58.5696 40.8908 58.5109L41.4898 58.4653V56.7832V55.0947L40.8908 55.1012C40.5588 55.1077 40.0054 55.1468 39.6668 55.1925Z" fill="#5852B0"/>
<path d="M58.9063 55.2376C57.526 55.394 55.9829 55.9417 54.8435 56.6718C54.6091 56.8283 54.4008 56.9652 54.3813 56.9848C54.3617 57.0043 54.1859 57.1412 53.9841 57.2977C53.4958 57.6693 52.4085 58.7907 51.9592 59.397C50.5464 61.3007 49.6023 63.4977 49.1791 65.8838C48.7689 68.1917 48.8471 71.1516 49.3744 73.3356C50.3055 77.2016 52.7015 80.4939 55.6639 81.9804C58.0534 83.1734 61.3804 83.369 63.9457 82.4628C66.5044 81.5566 68.6204 79.5421 70.0919 76.6083C70.9188 74.9654 71.4201 73.3095 71.674 71.3602C71.8042 70.3301 71.8238 68.0027 71.7066 67.0573C71.3615 64.2931 70.463 61.9787 68.8939 59.8207C66.9406 57.1282 64.5512 55.6222 61.6734 55.2571C60.8595 55.1528 59.7201 55.1398 58.9063 55.2376ZM61.9013 58.5169C62.5979 58.6603 63.0993 58.8363 63.7048 59.1362C64.434 59.5013 64.7595 59.7425 65.4562 60.4336C66.9992 61.9852 67.9628 64.1431 68.3926 66.9921C68.5228 67.8918 68.5032 70.6496 68.36 71.5558C68.0475 73.5051 67.468 75.0632 66.524 76.478C65.3911 78.1861 63.9717 79.2292 62.1747 79.679C61.4064 79.8746 59.8959 79.9202 59.0756 79.7768C57.513 79.503 56.4582 78.9553 55.3188 77.8144C53.8604 76.3541 52.8512 74.2418 52.4671 71.8296C51.9462 68.5829 52.3564 65.271 53.5934 62.7871C54.0883 61.7961 54.9021 60.6748 55.4686 60.1989C55.6053 60.0815 55.8136 59.9055 55.9373 59.7947C56.66 59.1688 58.0664 58.5951 59.3295 58.4191C59.922 58.3408 61.2827 58.3865 61.9013 58.5169Z" fill="#5852B0"/>
</svg>
