<svg width="128" height="128" viewBox="0 0 128 128" fill="none" xmlns="http://www.w3.org/2000/svg">
<path d="M5.43427 48.2686C5.86855 49.1448 6.31806 50.1048 6.54663 50.6457C6.62281 50.8133 6.72186 51.0495 6.77519 51.179C6.97328 51.6209 7.1028 51.9409 7.23232 52.3218C7.30089 52.5276 7.39232 52.7714 7.42279 52.8552C7.46089 52.939 7.59803 53.3504 7.73516 53.7694C7.86468 54.1885 8.00182 54.5999 8.03992 54.6837C8.07801 54.7675 8.13896 54.9732 8.17706 55.1408C8.22277 55.3084 8.35991 55.8418 8.48943 56.3217C8.61895 56.8017 8.77895 57.4569 8.8399 57.7693C8.90847 58.0817 8.99227 58.4931 9.03799 58.6836C9.23608 59.5978 9.47988 61.3045 9.64749 62.9501C9.69321 63.4301 9.73892 65.0377 9.73892 66.5157L9.74654 69.2052L9.92177 69.2509C10.1503 69.3042 10.2494 69.1976 10.3637 68.7938C10.4094 68.6186 10.5084 68.2833 10.577 68.0548C10.6532 67.8262 10.737 67.5138 10.7751 67.3691C10.8132 67.2243 10.897 66.8967 10.9656 66.6453C11.1865 65.8453 11.4379 64.672 11.6589 63.4073C11.7808 62.7216 11.8493 62.2797 11.9865 61.1597C12.0322 60.7788 12.1008 60.1997 12.1465 59.8645C12.2912 58.6912 12.3903 55.0799 12.3369 52.779C12.2836 50.2648 12.1769 47.8953 12.1008 47.5982L12.055 47.4077H8.52752H5L5.43427 48.2686Z" fill="#5852B0"/>
<path d="M17.0149 47.6894C17.0149 47.8494 16.9997 48.1008 16.9768 48.2456C16.9616 48.3979 16.9159 48.8779 16.8702 49.3122C16.6873 51.3769 16.2759 54.5387 16.1387 54.9806C16.1159 55.0568 16.0626 55.293 16.0321 55.5139C15.9635 55.9406 15.7959 56.8168 15.6207 57.6548C15.5216 58.1348 15.1331 59.6738 14.9654 60.2452C14.9273 60.3671 14.8588 60.6262 14.8131 60.8166C14.7597 61.0071 14.6988 61.2281 14.6607 61.3119C14.6302 61.3957 14.4321 61.9747 14.234 62.6071C13.8988 63.6509 13.3122 65.2813 13.1369 65.6546C13.0988 65.7384 12.9464 66.0965 12.8093 66.4546C12.3446 67.5898 10.8894 70.6373 10.5084 71.2545C10.417 71.3992 10.1884 71.8106 9.99796 72.1687C9.80749 72.5268 9.54083 72.9992 9.40369 73.2201C9.15227 73.6239 9.15227 73.6315 9.30464 73.7763C9.48749 73.9591 9.6094 73.9134 9.86082 73.5858C10.3408 72.9535 12.855 69.6012 12.9541 69.464C14.1274 67.8717 16.3749 64.4965 17.6473 62.4166C18.9272 60.3214 19.3463 59.5976 20.352 57.731C20.7481 56.9844 22.3862 53.693 22.7748 52.855C22.9271 52.5197 23.1252 52.0931 23.209 51.9026C23.3766 51.5445 23.5519 51.1483 23.9404 50.2645C24.07 49.9674 24.2604 49.5331 24.3671 49.2893C24.4738 49.0455 24.5652 48.8322 24.5652 48.8094C24.5652 48.7865 24.6642 48.5427 24.7937 48.2684C24.9157 48.0018 25.0452 47.697 25.068 47.5903L25.1137 47.4075H21.0681H17.0225L17.0149 47.6894Z" fill="#5852B0"/>
<path d="M30.3175 47.8037C30.1422 48.1237 29.4108 49.3808 28.7785 50.4169C28.7251 50.5008 28.6566 50.6379 28.6109 50.7217C28.5728 50.8055 28.2985 51.2474 28.0014 51.7122C27.7118 52.1693 27.2547 52.8931 26.988 53.3045C26.4319 54.1807 24.2376 57.4796 24.0472 57.731C23.9786 57.8301 23.8719 57.9672 23.8186 58.0434C23.3386 58.752 21.2892 61.5557 20.6187 62.4166C20.4435 62.6452 20.0549 63.1404 19.7654 63.5214C19.3083 64.1156 18.9197 64.6032 17.8378 65.9518C17.7007 66.1194 17.5102 66.3556 17.4035 66.4851C17.2969 66.6146 17.175 66.767 17.1216 66.8203C17.0683 66.8736 16.9007 67.0794 16.7407 67.2774C16.3217 67.7955 14.3484 70.1345 14.2493 70.2259C14.2036 70.264 13.9446 70.5612 13.6703 70.8735C12.497 72.2221 9.38852 75.6734 8.86282 76.2067C8.75616 76.3134 8.4895 76.6105 8.26093 76.8543C8.03999 77.1058 7.46857 77.7229 6.9962 78.2257C6.52384 78.7286 5.91433 79.3762 5.64005 79.6733C5.23625 80.1 5.13721 80.2523 5.13721 80.458C5.13721 80.6485 5.18292 80.7247 5.32768 80.7933C5.5791 80.9076 5.701 80.839 6.37146 80.2142C6.67621 79.9247 7.11811 79.5133 7.34667 79.3C7.85713 78.82 9.74661 77.0753 10.3256 76.5572C10.5542 76.3515 11.1104 75.8334 11.5751 75.4144C12.5656 74.5001 12.4437 74.6068 13.1446 73.9973C13.4494 73.723 13.8913 73.3268 14.1274 73.1211C14.3636 72.9078 14.676 72.6335 14.8208 72.5116C15.1636 72.2068 17.7007 70.0355 17.8988 69.8755C17.9826 69.7993 18.2949 69.5402 18.5845 69.2964C19.514 68.4965 22.5844 66.066 23.6891 65.2356C24.2757 64.8013 24.771 64.4204 24.7938 64.3899C24.8167 64.367 25.2967 64.0166 25.8605 63.6128C26.4243 63.2014 27.1633 62.6757 27.4985 62.4319C28.6947 61.5709 31.6355 59.5977 31.727 59.5977C31.7574 59.5977 31.8032 59.5748 31.8184 59.5367C31.8565 59.4605 32.9155 58.7596 33.0069 58.7596C33.0526 58.7596 33.0984 58.7291 33.1136 58.6986C33.1365 58.6377 34.5688 57.7463 37.0068 56.2911L38.5077 55.3844V51.9102C38.5077 49.9979 38.5306 48.2075 38.5611 47.918L38.6068 47.4075H34.5688H30.5308L30.3175 47.8037Z" fill="#5852B0"/>
<path d="M46.5076 53.0223C46.5076 59.3611 46.5838 61.0449 46.9342 62.4849C47.2466 63.7572 47.6352 64.6257 48.237 65.3648L48.4961 65.6924H58.492C63.9928 65.6924 68.5336 65.6619 68.587 65.6314C68.6555 65.5781 68.6784 65.2581 68.6632 64.2753L68.6403 62.9877L61.5776 62.9648L54.5074 62.9496V60.1687C54.5074 57.5707 54.515 57.3878 54.6445 57.3878C54.7131 57.3878 57.4025 57.3878 60.61 57.3878C63.8252 57.3878 66.6442 57.365 66.8804 57.3421L67.307 57.2888V55.9707V54.6451H60.9072H54.5074L54.4921 52.8699C54.4845 51.9023 54.4769 50.8814 54.4769 50.6071V50.1119L61.5776 50.089L68.6784 50.0738V48.7405V47.4072H57.593H46.5076V53.0223Z" fill="#5852B0"/>
<path d="M71.3677 54.0508C71.3982 60.8087 71.4058 60.9001 71.7029 62.302C71.9391 63.422 72.4267 64.5724 72.9676 65.2886L73.2724 65.6924L76.2514 65.6771L79.2303 65.6543L79.2532 61.5477C79.2684 58.3707 79.2913 57.4183 79.3675 57.3726C79.5122 57.2812 80.6017 57.304 81.4093 57.4183C83.0017 57.6469 83.7864 58.1573 85.0892 59.8259C85.3711 60.184 85.6454 60.5268 85.6987 60.5954C85.7521 60.6563 86.1939 61.2277 86.6816 61.8525C88.792 64.5724 89.3558 65.2886 89.5386 65.4791L89.7367 65.6924H93.5918C95.7175 65.6924 97.4775 65.6695 97.5003 65.6467C97.546 65.601 97.3632 65.3419 96.967 64.8543C96.9137 64.7934 96.647 64.4505 96.3727 64.0924C95.908 63.4982 95.4966 62.9648 94.5823 61.8068C94.3918 61.5706 93.9271 60.9611 93.5385 60.4659C92.1214 58.6297 91.0624 57.2659 90.811 56.9688C90.6662 56.8012 90.5443 56.6183 90.5443 56.5574C90.5443 56.466 90.8567 56.0317 91.7024 54.9498C91.8852 54.7213 92.4871 53.9517 93.0357 53.2356C93.5918 52.527 94.2394 51.6966 94.468 51.4071C94.8413 50.9347 95.3747 50.249 97.1041 47.9938L97.5613 47.4072H93.6071H89.6529L89.2796 47.8795C88.8072 48.4662 87.5882 50.028 87.3825 50.3099C85.3864 52.9842 84.6854 53.7308 83.7254 54.2108C83.0397 54.5613 82.4455 54.6451 80.7846 54.6451H79.2684V51.0261V47.4072H75.299H71.3296L71.3677 54.0508Z" fill="#5852B0"/>
<path d="M99.5347 53.7086C99.5347 60.2075 99.5651 60.8246 99.8623 62.3027C99.9842 62.8894 100.228 63.636 100.464 64.1693C100.685 64.6569 101.279 65.5331 101.447 65.6169C101.531 65.6702 102.681 65.6855 104.502 65.6778L107.42 65.655L107.443 61.5484C107.458 58.3714 107.481 57.419 107.557 57.3733C107.603 57.3428 110.407 57.3124 113.782 57.3124C117.157 57.3124 120.006 57.3124 120.128 57.3124H120.334L120.319 55.9943L120.296 54.6839L113.873 54.661L107.458 54.6458L107.474 52.3753L107.496 50.1126L114.567 50.0897L121.629 50.0745V48.7412V47.4079H110.582H99.5347V53.7086Z" fill="#5852B0"/>
<path d="M38.1649 60.9311C37.4106 61.274 37.0678 61.4264 37.0221 61.4264C36.9992 61.4264 36.8316 61.4949 36.6564 61.5711C36.4811 61.6473 35.9021 61.9063 35.3688 62.1425C34.8431 62.3787 34.1117 62.7063 33.746 62.8739C33.3879 63.0416 33.0755 63.1787 33.0527 63.1787C32.9993 63.1787 29.0985 65.1215 28.3366 65.5253C27.689 65.8758 27.1481 66.1729 26.4319 66.5691C26.2643 66.6605 25.7538 66.9653 25.2891 67.2395C24.8319 67.5214 24.2148 67.8871 23.9177 68.0548C23.6282 68.23 23.2853 68.4357 23.1558 68.5119C23.0339 68.5957 22.8739 68.6871 22.8129 68.7176C22.752 68.7404 22.6834 68.7862 22.6606 68.8166C22.6377 68.8395 22.3482 69.03 22.013 69.2357C21.4873 69.5557 19.4454 70.9194 18.1959 71.788C16.1922 73.167 12.1085 76.2222 12.0475 76.3898C12.0094 76.4888 12.2075 76.7402 12.3294 76.7402C12.3675 76.7402 12.7713 76.5193 13.2437 76.2526C13.7084 75.986 14.2265 75.6888 14.3941 75.5974C14.8284 75.346 17.7007 73.906 18.0207 73.7765C18.1654 73.7156 18.4854 73.5784 18.7369 73.4641C20.1082 72.847 21.7311 72.2223 23.1101 71.7804C23.6358 71.6051 24.1386 71.4451 24.2224 71.407C24.5577 71.2775 26.7214 70.6833 27.5747 70.4928C27.7423 70.4547 28.1233 70.3709 28.4128 70.3023C29.5708 70.0357 30.6451 69.8452 31.8794 69.6623C32.1917 69.6166 32.6412 69.548 32.8698 69.5023C33.0984 69.4642 33.7384 69.3804 34.2793 69.3195C34.8278 69.2585 35.5974 69.1671 35.9935 69.1214C36.3897 69.0757 37.1059 69.0071 37.5706 68.9766C38.043 68.9462 38.4468 68.9004 38.4697 68.8852C38.5458 68.809 38.5458 60.8169 38.4697 60.8245C38.4316 60.8245 38.2944 60.8702 38.1649 60.9311Z" fill="#5852B0"/>
<path d="M52.7778 71.9938L52.374 72.0243V76.4432V80.8545H52.9073H53.4407V76.4432C53.4407 72.489 53.4254 72.0319 53.3188 71.9862C53.2502 71.9633 53.1969 71.9481 53.1892 71.9557C53.1816 71.9633 52.9911 71.9785 52.7778 71.9938Z" fill="#5852B0"/>
<path d="M96.3347 76.4356V80.8545H96.868H97.4014V78.4698V76.0775L97.729 75.8489C98.1099 75.567 98.5289 75.3842 98.8261 75.3689C99.3975 75.3308 99.6108 75.3765 99.8394 75.5746C100.205 75.9022 100.304 76.6489 100.297 78.9498L100.289 80.8164H100.792H101.295L101.287 78.5079C101.287 77.1365 101.249 76.0394 101.196 75.8032C101.051 75.0946 100.662 74.6528 99.9841 74.4166C99.3289 74.1804 98.6356 74.3099 97.8966 74.7975C97.6756 74.9423 97.4775 75.0642 97.4471 75.0642C97.4242 75.0642 97.4014 74.3785 97.4014 73.5404V72.0166H96.868H96.3347V76.4356Z" fill="#5852B0"/>
<path d="M109.287 72.8544V73.3877H109.896H110.506V72.8544V72.3211H109.896H109.287V72.8544Z" fill="#5852B0"/>
<path d="M66.6594 72.7172C66.6365 72.7706 66.6137 73.1744 66.6061 73.6162L66.5832 74.4162L66.2404 74.4543L65.8975 74.4924L65.8747 74.9267L65.8518 75.361L66.2175 75.3838L66.5832 75.4067L66.6061 77.3495C66.6289 79.7723 66.667 80.0161 67.147 80.4808C67.368 80.6865 67.6118 80.8465 67.7641 80.877C68.1451 80.9532 69.0593 80.938 69.3869 80.8465L69.6688 80.7703V80.3056V79.8485L69.4631 79.9018C69.3412 79.9246 69.0212 79.9704 68.747 79.9932C68.267 80.0313 68.2289 80.0237 67.9851 79.8027L67.726 79.5742L67.7032 77.4714L67.6803 75.3686H68.6784H69.6765L69.6536 74.9267L69.6308 74.4924L68.6479 74.4543L67.6651 74.4162L67.6575 73.5401L67.6499 72.6639L67.1699 72.641C66.8346 72.6258 66.6823 72.6487 66.6594 72.7172Z" fill="#5852B0"/>
<path d="M81.0438 72.6717C80.9752 72.7022 80.9447 72.9612 80.9447 73.586V74.4545H80.6019H80.259V74.9116V75.3688H80.6019H80.9447V77.2278C80.9447 79.7344 81.0514 80.2144 81.699 80.6563C82.0723 80.9077 82.659 80.9839 83.4894 80.8924L83.9923 80.8391V80.3134V79.7877L83.718 79.902C83.3675 80.0467 82.7504 80.0467 82.4761 79.9096C82.0876 79.7039 82.0571 79.5363 82.0266 77.3649L81.9961 75.3688H82.9942H83.9923V74.9116V74.4545H83.0018H82.019L81.9961 73.5555L81.9733 72.6641L81.5542 72.6489C81.3257 72.6412 81.0895 72.6565 81.0438 72.6717Z" fill="#5852B0"/>
<path d="M29.1366 73.5176C27.3004 73.5861 25.1138 73.7842 23.4986 74.0356C23.1024 74.0966 22.5539 74.1804 22.2796 74.2261C22.0053 74.2642 21.6472 74.3328 21.4796 74.3709C21.312 74.4166 20.9158 74.5004 20.6035 74.569C19.7273 74.7594 19.0568 74.9194 18.8892 74.988C18.8054 75.0185 18.3407 75.1556 17.8607 75.2851C16.9007 75.5518 16.6188 75.6966 16.6569 75.887C16.6798 76.0013 16.9312 76.0242 19.3844 76.0623C21.8301 76.1004 23.75 76.207 24.2605 76.3289C24.3672 76.3518 24.71 76.4051 25.0224 76.4356C26.4395 76.5956 30.028 77.3498 30.4318 77.5708C30.5003 77.6089 30.6679 77.6622 30.8127 77.6927C31.2698 77.7917 33.8679 78.6755 34.2793 78.8736C34.3631 78.9117 34.744 79.0717 35.1173 79.2241C35.4983 79.3765 36.3973 79.7879 37.1211 80.1383C37.8525 80.4888 38.4696 80.7783 38.5001 80.7783C38.5306 80.7783 38.5534 79.2088 38.5534 77.2889L38.5458 73.8071L38.0125 73.7233C36.9687 73.5557 31.6279 73.4338 29.1366 73.5176Z" fill="#5852B0"/>
<path d="M47.8408 74.439C47.2998 74.6219 47.0484 74.7742 46.6903 75.1552C45.997 75.8866 45.7989 76.5266 45.837 77.8675C45.8675 78.7589 45.8827 78.8732 46.1037 79.3379C46.2332 79.6198 46.4846 79.9855 46.6598 80.1608C47.5512 81.0293 49.1436 81.2274 50.6445 80.656L51.155 80.4579V79.8941C51.155 79.5817 51.1397 79.3303 51.1169 79.3303C51.094 79.3303 50.8959 79.4294 50.675 79.5589C50.0426 79.917 49.6464 80.0236 48.9836 80.0236C47.7493 80.0312 47.0255 79.3913 46.9113 78.2027L46.8655 77.7151L47.0865 77.7304C47.2084 77.738 48.1912 77.7456 49.2807 77.738L51.254 77.7304L51.2159 76.9075C51.1854 76.2294 51.1473 76.0237 50.9797 75.6657C50.6445 74.9647 50.2635 74.6371 49.5626 74.4238C49.0445 74.2714 48.336 74.279 47.8408 74.439ZM49.4788 75.399C49.875 75.5971 50.1416 76.0466 50.1797 76.5875L50.2026 76.9304L48.5341 76.9532L46.8655 76.9685L46.9189 76.6561C47.0255 75.9856 47.5208 75.4371 48.1836 75.2619C48.6712 75.1323 49.0064 75.1628 49.4788 75.399Z" fill="#5852B0"/>
<path d="M56.5873 74.4468C55.3073 74.8811 54.5835 76.062 54.5835 77.6848C54.5835 79.5514 55.4978 80.7019 57.1587 80.9304C58.0348 81.0447 59.0558 80.8923 59.7491 80.5342C59.9014 80.458 59.9167 80.3895 59.9167 79.8866C59.9167 79.5819 59.9014 79.3305 59.8786 79.3305C59.8634 79.3305 59.6805 79.4295 59.4824 79.5438C58.9034 79.8866 58.3777 80.0314 57.7301 80.0314C56.7015 80.0238 56.0463 79.5438 55.7644 78.5838C55.6958 78.3552 55.6501 78.081 55.6654 77.9743L55.6882 77.7686L57.8596 77.7534L60.031 77.7381L60.0538 77.22C60.1224 75.8258 59.4748 74.7287 58.4005 74.4315C57.8139 74.2639 57.0977 74.2715 56.5873 74.4468ZM58.1339 75.3001C58.5986 75.4449 59.0405 76.1458 58.9872 76.6791L58.9643 76.9305L57.372 76.9534C56.4958 76.961 55.7492 76.9458 55.7111 76.9077C55.6197 76.8162 55.8406 76.161 56.0616 75.8639C56.5263 75.2544 57.2882 75.0487 58.1339 75.3001Z" fill="#5852B0"/>
<path d="M63.0022 74.4163C61.9051 74.6601 61.2651 75.2772 60.8689 76.4657C60.7699 76.7629 60.747 77.0524 60.7699 77.8371C60.808 79.0409 60.968 79.5437 61.5013 80.1075C62.3317 80.9989 63.8631 81.2275 65.1583 80.6561L65.5545 80.4808V79.9094C65.5545 79.5894 65.5316 79.3304 65.5012 79.3304C65.4783 79.3304 65.3945 79.3761 65.3336 79.4371C65.265 79.498 64.9983 79.6504 64.7393 79.7799C64.3355 79.9856 64.1831 80.0161 63.6726 80.0161C63.1546 80.0161 63.025 79.9856 62.7736 79.818C61.9279 79.2695 61.5851 77.8981 61.9813 76.6181C62.1946 75.9172 62.6898 75.4067 63.2308 75.3229C63.9469 75.2162 64.5107 75.3534 65.1736 75.8029C65.3183 75.9019 65.4631 75.9781 65.4935 75.9781C65.5316 75.9781 65.5545 75.7191 65.5545 75.4067V74.8353L65.2345 74.6829C64.8459 74.5077 64.0079 74.302 63.6879 74.3096C63.566 74.3096 63.2536 74.3629 63.0022 74.4163Z" fill="#5852B0"/>
<path d="M76.0685 74.4466C75.1161 74.7895 74.5599 75.4066 74.278 76.4199C74.0876 77.0904 74.1485 78.6675 74.3847 79.2694C74.8571 80.4808 75.9085 81.0979 77.3103 80.9836C78.6741 80.8693 79.5427 79.9322 79.7408 78.3703C79.9617 76.6333 79.4208 75.2085 78.3237 74.6295C77.6761 74.2943 76.7085 74.2105 76.0685 74.4466ZM77.7294 75.399C78.0113 75.5514 78.3084 75.879 78.476 76.2447C78.5979 76.4961 78.6208 76.7323 78.6208 77.6542C78.6208 78.637 78.6056 78.797 78.4532 79.1094C78.2551 79.5284 77.7599 79.9779 77.4246 80.0465C76.0685 80.3132 75.2304 79.3989 75.2304 77.6389C75.2304 76.3666 75.6647 75.5438 76.457 75.3C76.777 75.2009 77.4551 75.2619 77.7294 75.399Z" fill="#5852B0"/>
<path d="M86.3768 74.447C85.0968 74.8812 84.373 76.0545 84.373 77.6697C84.373 79.1325 84.9673 80.2373 86.0111 80.6944C86.5597 80.9382 87.5196 81.0449 88.152 80.9382C88.7005 80.8392 89.2415 80.6868 89.5386 80.5344C89.691 80.4582 89.7062 80.3897 89.7062 79.8868C89.7062 79.5821 89.691 79.3306 89.6681 79.3306C89.6529 79.3306 89.4701 79.4297 89.272 79.544C88.6929 79.8868 88.2206 80.0163 87.5349 80.0163C86.773 80.0163 86.232 79.7878 85.8968 79.3154C85.6454 78.9726 85.4168 78.2716 85.4549 77.9745C85.4854 77.7307 85.2797 77.7459 87.8625 77.7383L89.8586 77.7307V77.1517C89.8586 76.0926 89.4472 75.1403 88.7996 74.706C88.2129 74.3098 87.1234 74.1955 86.3768 74.447ZM87.8549 75.285C88.3806 75.4374 88.8301 76.1155 88.7767 76.6793L88.7539 76.9307L87.1615 76.9536C86.2473 76.9612 85.5311 76.9383 85.493 76.9002C85.3864 76.7936 85.6302 76.1307 85.8968 75.8107C86.3235 75.2927 87.1234 75.0793 87.8549 75.285Z" fill="#5852B0"/>
<path d="M92.7387 74.4234C92.0987 74.5758 91.7558 74.7739 91.352 75.2234C90.7273 75.9243 90.5292 76.511 90.5368 77.7147C90.5368 78.6138 90.6359 79.0709 90.9482 79.6804C91.1082 79.9928 91.6873 80.5108 92.0835 80.6937C92.8453 81.0518 94.0872 81.0365 94.9405 80.6556L95.3443 80.4804V79.909C95.3443 79.589 95.3215 79.3299 95.2986 79.3299C95.2758 79.3299 95.1158 79.4214 94.9405 79.5433C94.3615 79.9242 94.0796 80.0156 93.4548 80.0156C92.9444 80.0156 92.8149 79.9851 92.5634 79.8175C91.893 79.3833 91.5654 78.5528 91.6339 77.4862C91.6949 76.4805 91.893 76.0386 92.472 75.5662C92.7539 75.3453 92.8072 75.33 93.4244 75.33C94.1177 75.33 94.392 75.4138 94.9634 75.8024C95.1081 75.8938 95.2529 75.9776 95.2834 75.9776C95.3215 75.9776 95.3443 75.7186 95.3443 75.4062V74.8348L95.0243 74.6824C94.6205 74.4996 93.7977 74.3015 93.4396 74.3091C93.2949 74.3091 92.9749 74.3624 92.7387 74.4234Z" fill="#5852B0"/>
<path d="M105.096 74.431C104.906 74.4996 104.594 74.6672 104.388 74.8043C104.19 74.9491 103.999 75.0634 103.961 75.0634C103.916 75.0634 103.877 74.9339 103.862 74.7739L103.839 74.492H103.344H102.849V77.6538V80.8156L103.367 80.8385L103.877 80.8613V78.4995C103.877 75.7872 103.816 76.0157 104.677 75.5815C105.203 75.3148 105.881 75.2691 106.209 75.4824C106.651 75.7719 106.658 75.8024 106.696 78.4157L106.734 80.8156H107.268H107.801V78.4157C107.801 75.7262 107.771 75.5205 107.26 74.9262C106.788 74.3701 105.874 74.1644 105.096 74.431Z" fill="#5852B0"/>
<path d="M113.766 74.4241C112.86 74.6375 112.281 75.1251 111.862 76.0165C111.61 76.5422 111.61 76.5574 111.61 77.6926C111.61 78.8126 111.618 78.8431 111.847 79.3383C112.304 80.2983 112.928 80.7706 113.957 80.9306C114.666 81.0449 115.877 80.8316 116.281 80.5268C116.365 80.4583 116.425 79.3307 116.342 79.3307C116.319 79.3307 116.159 79.4297 115.976 79.5516C115.45 79.9021 115.1 80.0164 114.528 80.0164C113.706 80.0164 113.203 79.6811 112.86 78.9116C112.715 78.5916 112.692 78.3936 112.685 77.6545C112.685 76.8545 112.7 76.7403 112.898 76.3441C113.271 75.567 113.805 75.2546 114.666 75.3079C115.123 75.3384 115.298 75.3917 115.732 75.6431C116.022 75.8031 116.288 75.9555 116.319 75.9631C116.349 75.9784 116.372 75.727 116.357 75.3993L116.334 74.7975L116.06 74.6679C115.747 74.5232 114.726 74.3022 114.414 74.3099C114.3 74.3099 114.003 74.3632 113.766 74.4241Z" fill="#5852B0"/>
<path d="M118.277 74.4463C117.919 74.5149 117.584 74.5987 117.538 74.6292C117.424 74.6977 117.401 75.6729 117.5 75.6729C117.538 75.6729 117.789 75.5968 118.056 75.5053C118.757 75.2615 120.144 75.2539 120.464 75.4901C120.73 75.6882 120.936 76.0844 120.944 76.412C120.944 76.6558 120.928 76.6634 120.654 76.6634C120.182 76.6634 118.795 76.8767 118.429 77.0062C117.614 77.2958 117.241 77.6462 117.012 78.3319C116.662 79.4214 117.279 80.6633 118.308 80.9376C118.993 81.128 120.159 80.8614 120.57 80.4271C120.829 80.1528 120.944 80.1909 120.944 80.549V80.8614L121.462 80.8385L121.972 80.8157L121.995 78.53C122.01 76.5948 121.995 76.1758 121.888 75.7872C121.667 74.9644 121.256 74.6139 120.327 74.4158C119.671 74.2787 119.123 74.2863 118.277 74.4463ZM120.928 78.3776C120.951 79.3528 120.944 79.3681 120.151 79.7795C119.801 79.97 119.618 80.0157 119.252 80.0157C118.437 80.0157 118.049 79.6652 118.049 78.9262C118.049 78.5071 118.064 78.4538 118.338 78.1948C118.65 77.8824 119.108 77.7148 119.991 77.5929C120.967 77.4634 120.906 77.41 120.928 78.3776Z" fill="#5852B0"/>
<path d="M70.484 74.5004C70.4535 74.5309 70.4307 75.9708 70.4307 77.7079V80.8545H70.964H71.4973V78.6069V76.3518L71.6954 76.1689C72.0687 75.8261 72.5563 75.6432 73.1963 75.6127L73.783 75.5823V75.0642C73.783 74.4623 73.7144 74.4013 73.1506 74.4928C72.7696 74.5613 72.503 74.6832 72.0078 75.0337C71.8097 75.1785 71.6192 75.2927 71.5735 75.2927C71.5354 75.2927 71.4973 75.1099 71.4821 74.8889L71.4592 74.4928L71.0021 74.4699C70.743 74.4547 70.5145 74.4699 70.484 74.5004Z" fill="#5852B0"/>
<path d="M109.355 74.5453C109.355 74.5986 109.355 76.031 109.355 77.73L109.363 80.8156L109.858 80.8385L110.353 80.8613V77.6538V74.4539H109.858C109.515 74.4539 109.363 74.4844 109.355 74.5453Z" fill="#5852B0"/>
</svg>
