<svg width="128" height="128" viewBox="0 0 128 128" fill="none" xmlns="http://www.w3.org/2000/svg">
<path d="M28.3285 36.5753C27.7977 36.7017 27.4353 37.1567 27.4353 37.696C27.4353 38.2606 27.8342 38.7325 28.3988 38.8364C29.0027 38.9488 29.5897 38.5527 29.7274 37.9404C29.7695 37.7578 29.7695 37.696 29.7414 37.5331C29.6572 37.0275 29.292 36.6511 28.7976 36.5612C28.5926 36.5219 28.5308 36.5247 28.3285 36.5753Z" fill="#5852B0"/>
<path d="M20.1461 37.8619C19.5534 38.0052 19.163 38.5782 19.2585 39.1681C19.2754 39.2692 19.3231 39.4181 19.3624 39.5051C19.7135 40.2186 20.6658 40.3759 21.2275 39.8169C21.4298 39.6119 21.5393 39.3703 21.5562 39.081C21.5815 38.6962 21.4691 38.3984 21.2023 38.1513C20.9045 37.8704 20.5281 37.7692 20.1461 37.8619Z" fill="#5852B0"/>
<path d="M36.5557 37.85C35.9714 37.9484 35.5304 38.5719 35.6287 39.1562C35.713 39.6393 36.0557 40.0185 36.5107 40.1225C36.7664 40.1814 37.095 40.1449 37.3113 40.0326C37.4461 39.9623 37.7017 39.718 37.7804 39.5831C38.1877 38.8865 37.7832 38.0017 36.9855 37.85C36.8197 37.8191 36.7495 37.8191 36.5557 37.85Z" fill="#5852B0"/>
<path d="M28.1655 40.0024C27.6964 40.126 27.2385 40.494 27.0307 40.9153C26.7891 41.4069 26.7891 41.9574 27.0335 42.4546C27.1796 42.7523 27.511 43.0838 27.8031 43.2242C28.1121 43.3731 28.3481 43.4209 28.6851 43.404C29.2694 43.3731 29.7357 43.1091 30.0474 42.6344C30.2637 42.3029 30.3143 42.1231 30.3143 41.685C30.3143 41.2496 30.2609 41.0614 30.0503 40.7355C29.7244 40.2356 29.1963 39.9547 28.5896 39.9603C28.4408 39.9603 28.2497 39.9799 28.1655 40.0024Z" fill="#5852B0"/>
<path d="M21.2977 41.0976C20.6601 41.2296 20.1152 41.7437 19.9495 42.3729C19.8961 42.5723 19.8961 43.0189 19.9495 43.224C20.0759 43.7127 20.4579 44.1537 20.9326 44.3644C21.4017 44.5722 22.0056 44.5498 22.4719 44.3054C22.7303 44.1706 23.0758 43.8167 23.205 43.5526C23.4522 43.0442 23.4465 42.4599 23.1881 41.9712C23.0449 41.7015 22.7247 41.3954 22.4353 41.2549C22.0477 41.0667 21.691 41.0162 21.2977 41.0976Z" fill="#5852B0"/>
<path d="M35.3114 41.0815C34.5642 41.1939 33.9828 41.7501 33.8395 42.4804C33.7974 42.6911 33.8171 43.1124 33.8789 43.309C34.0418 43.8287 34.4547 44.2556 34.9743 44.4466C35.1485 44.5112 35.2187 44.5197 35.5249 44.5225C35.8226 44.5225 35.9069 44.5112 36.0839 44.455C36.6232 44.2781 37.0585 43.8202 37.2271 43.2585C37.3057 42.9944 37.2945 42.5618 37.2018 42.2725C37.0557 41.8315 36.7496 41.4748 36.3254 41.2557C36.0333 41.104 35.6176 41.0338 35.3114 41.0815Z" fill="#5852B0"/>
<path d="M12.8176 41.5862C12.4833 41.6452 12.1182 41.9148 11.9749 42.2126C11.6294 42.9176 12.0564 43.7294 12.8485 43.8642C13.0114 43.8923 13.0732 43.8923 13.2558 43.8502C13.6322 43.7659 13.9074 43.544 14.076 43.1873C14.1546 43.0215 14.1631 42.9794 14.1631 42.7238C14.1631 42.4682 14.1546 42.4261 14.076 42.2603C13.9749 42.0468 13.8541 41.898 13.6799 41.78C13.4468 41.6171 13.0929 41.5384 12.8176 41.5862Z" fill="#5852B0"/>
<path d="M43.8673 41.6036C43.2971 41.7552 42.9179 42.3367 43.0218 42.9041C43.0415 43.0024 43.0892 43.1541 43.1285 43.2355C43.2212 43.4237 43.4825 43.6737 43.6763 43.7636C44.2577 44.0277 44.9487 43.7749 45.224 43.1934C45.3054 43.0221 45.3139 42.9827 45.3139 42.7243C45.3139 42.4659 45.3054 42.4266 45.224 42.2552C44.974 41.7243 44.4178 41.4575 43.8673 41.6036Z" fill="#5852B0"/>
<path d="M14.9918 44.2438C14.4947 44.3506 14.0031 44.7326 13.7896 45.182C13.6492 45.4825 13.6099 45.6539 13.6099 45.9629C13.6155 46.5668 13.8908 47.0696 14.3992 47.4038C14.9694 47.783 15.7165 47.7915 16.2868 47.4263C16.7249 47.1454 16.9946 46.7606 17.0873 46.2831C17.1379 46.0219 17.1379 45.8365 17.0845 45.5893C16.8879 44.6511 15.9384 44.0388 14.9918 44.2438Z" fill="#5852B0"/>
<path d="M41.3505 44.2515C40.3702 44.5183 39.8084 45.5352 40.1202 46.4818C40.2887 46.9902 40.741 47.4368 41.255 47.5997C41.5106 47.684 41.9404 47.7008 42.196 47.6418C42.8504 47.4873 43.3785 46.9452 43.5162 46.2908C43.6931 45.4397 43.21 44.6054 42.3561 44.2908C42.092 44.1925 41.6342 44.1756 41.3505 44.2515Z" fill="#5852B0"/>
<path d="M27.997 44.7411C27.5616 44.8591 27.2246 45.0529 26.9128 45.3647C26.4381 45.8366 26.1965 46.4742 26.2358 47.1568C26.2555 47.5107 26.3089 47.7073 26.4662 48.0388C26.7274 48.5753 27.1712 48.9882 27.7246 49.2017C29.188 49.7663 30.7582 48.8281 30.9464 47.2748C31.0812 46.1652 30.3818 45.1119 29.2751 44.7608C29.1206 44.713 28.9914 44.6962 28.6571 44.6877C28.2807 44.6765 28.2105 44.6821 27.997 44.7411Z" fill="#5852B0"/>
<path d="M22.8427 45.5356C21.9719 45.7294 21.2893 46.3586 21.0281 47.2041C20.9691 47.3867 20.9607 47.4738 20.9607 47.8501C20.9607 48.1816 20.9719 48.3305 21.0113 48.4681C21.2079 49.1928 21.7781 49.822 22.4663 50.0804C24.0056 50.6591 25.6656 49.5243 25.6656 47.8867C25.6656 47.2153 25.4493 46.6676 24.9999 46.2041C24.705 45.898 24.3623 45.6929 23.9466 45.5721C23.6685 45.4935 23.1179 45.4738 22.8427 45.5356Z" fill="#5852B0"/>
<path d="M33.5585 45.5075C33.5192 45.5159 33.3928 45.5468 33.2776 45.5749C32.6091 45.7434 32.067 46.19 31.7468 46.8333C31.6035 47.1226 31.5361 47.3979 31.5164 47.7518C31.4715 48.6871 31.9799 49.5579 32.8141 49.9736C33.7439 50.4343 34.8225 50.2601 35.5472 49.5354C36.4685 48.6141 36.4798 47.1338 35.5725 46.2125C35.1174 45.749 34.6034 45.5243 33.9658 45.5046C33.7804 45.499 33.5978 45.5018 33.5585 45.5075Z" fill="#5852B0"/>
<path d="M6.96385 47.403C6.62117 47.4592 6.27286 47.7176 6.12118 48.0266C5.77568 48.7288 6.20264 49.5547 6.97509 49.6811C7.47508 49.7653 7.9863 49.4929 8.20539 49.0322C8.28685 48.8609 8.29247 48.8244 8.29247 48.5378C8.29247 48.2598 8.28404 48.212 8.21663 48.0659C7.99753 47.5997 7.46946 47.3188 6.96385 47.403Z" fill="#5852B0"/>
<path d="M49.8418 47.4015C49.3334 47.4885 48.9261 47.9267 48.8784 48.4323C48.8222 49.0475 49.2379 49.5784 49.8643 49.6851C50.4542 49.7862 51.0468 49.3677 51.1704 48.7638C51.3277 47.9885 50.6255 47.2666 49.8418 47.4015Z" fill="#5852B0"/>
<path d="M18.0394 47.9521C17.3007 48.115 16.6883 48.6009 16.3822 49.2638C16.1996 49.6599 16.1294 50.0812 16.1743 50.4998C16.3513 52.1346 18.1153 53.1036 19.5843 52.3733C20.6377 51.8509 21.1517 50.6514 20.7922 49.5504C20.5478 48.8004 19.9326 48.2077 19.177 47.9914C18.8933 47.91 18.3203 47.8903 18.0394 47.9521Z" fill="#5852B0"/>
<path d="M38.1794 47.952C37.7216 48.0531 37.3676 48.2413 37.0306 48.5559C36.7047 48.8593 36.48 49.2329 36.3508 49.6767C36.2722 49.9576 36.2778 50.5699 36.362 50.8705C36.6036 51.7103 37.2244 52.3171 38.0783 52.5474C38.3564 52.6232 38.8788 52.6289 39.1625 52.5614C39.9968 52.3648 40.6737 51.7469 40.9125 50.9688C41.3057 49.6851 40.5642 48.3425 39.2721 47.9913C38.9743 47.9099 38.4519 47.8902 38.1794 47.952Z" fill="#5852B0"/>
<path d="M10.0341 49.1708C9.40766 49.3056 8.90487 49.7579 8.71105 50.3618C8.60432 50.6932 8.60432 51.0865 8.71386 51.4151C8.89082 51.9404 9.27565 52.3308 9.81776 52.5359C9.98349 52.5977 10.0509 52.6089 10.3711 52.6089C10.6857 52.6117 10.7644 52.6033 10.9441 52.5443C11.4834 52.3673 11.9188 51.9123 12.0874 51.3477C12.1604 51.1089 12.1548 50.623 12.0789 50.3871C11.902 49.8506 11.4975 49.4348 10.9526 49.2354C10.8065 49.1792 10.697 49.1624 10.4554 49.1539C10.2869 49.1483 10.0958 49.1568 10.0341 49.1708Z" fill="#5852B0"/>
<path d="M46.3393 49.1925C45.2297 49.5043 44.696 50.7037 45.2213 51.7065C45.3393 51.9312 45.7044 52.2992 45.932 52.42C46.6201 52.7823 47.4488 52.6643 47.9993 52.1194C48.342 51.7823 48.4965 51.4537 48.5218 51.0071C48.5414 50.6728 48.4965 50.42 48.3617 50.1363C48.1707 49.7374 47.8224 49.4172 47.3982 49.2515C47.196 49.1729 47.1257 49.1616 46.8449 49.1532C46.5921 49.1448 46.4825 49.1532 46.3393 49.1925Z" fill="#5852B0"/>
<path d="M28.2668 50.5639C27.573 50.7324 27.1011 51.4206 27.2106 52.106C27.3398 52.9178 28.1235 53.443 28.9212 53.2576C29.792 53.0526 30.2442 52.0779 29.8398 51.283C29.5476 50.71 28.896 50.4122 28.2668 50.5639Z" fill="#5852B0"/>
<path d="M24.5841 51.1369C24.2695 51.2071 24.0364 51.3363 23.8173 51.5695C23.5729 51.8279 23.4465 52.1425 23.4465 52.4992C23.4465 52.8897 23.5757 53.2043 23.8538 53.4852C24.1291 53.7632 24.4325 53.8896 24.8369 53.8896C25.2414 53.8896 25.5307 53.7689 25.8201 53.4824C26.3678 52.9346 26.3594 52.0498 25.8004 51.5133C25.6234 51.342 25.5027 51.2661 25.2836 51.1903C25.0954 51.1257 24.7499 51.1004 24.5841 51.1369Z" fill="#5852B0"/>
<path d="M32.0503 51.1508C31.348 51.3025 30.8677 51.9963 30.9717 52.707C31.0587 53.2884 31.4716 53.7406 32.0475 53.8755C32.5194 53.9878 32.9716 53.853 33.3368 53.4963C33.8957 52.9457 33.8985 52.0834 33.3424 51.5356C33.1261 51.3222 32.921 51.2098 32.6401 51.1508C32.4098 51.1003 32.2806 51.1003 32.0503 51.1508Z" fill="#5852B0"/>
<path d="M14.3007 51.699C13.9159 51.7692 13.3878 52.0389 13.1013 52.3113C12.8288 52.5698 12.6041 52.9377 12.4749 53.3282C12.4019 53.5501 12.3962 53.6006 12.3962 54.0163C12.3962 54.4321 12.4019 54.4826 12.4749 54.7045C12.6097 55.1118 12.7811 55.3955 13.0872 55.6961C14.0872 56.6848 15.795 56.564 16.6349 55.4461C16.9579 55.0163 17.104 54.5809 17.1068 54.0304C17.1096 53.6119 17.0646 53.404 16.8877 53.0276C16.6068 52.4321 16.1152 51.9967 15.4748 51.7833C15.2304 51.7018 15.163 51.6906 14.8231 51.6821C14.6153 51.6765 14.3793 51.6849 14.3007 51.699Z" fill="#5852B0"/>
<path d="M42.0276 51.7013C41.1147 51.881 40.4069 52.5187 40.1569 53.3894C40.0726 53.6844 40.053 54.1731 40.1148 54.4821C40.2973 55.3753 40.9602 56.0691 41.8591 56.3079C42.1765 56.3922 42.6961 56.3922 43.0107 56.3079C43.8337 56.0888 44.4517 55.4989 44.7101 54.69C44.7579 54.5411 44.7775 54.4006 44.786 54.1141C44.8 53.7827 44.7916 53.7012 44.7382 53.4821C44.5276 52.6366 43.9293 52.0131 43.0894 51.7659C42.8113 51.6844 42.2776 51.6507 42.0276 51.7013Z" fill="#5852B0"/>
<path d="M69.7654 52.3896C67.184 52.4879 64.8273 53.221 62.3864 54.6845C61.8274 55.0187 61.8218 55.0244 61.8639 55.0946C61.9117 55.1704 64.538 58.6956 64.5829 58.7462C64.6138 58.7771 64.6784 58.7405 64.9706 58.5299C66.2486 57.6142 67.5379 57.0861 69.0098 56.8754C69.4536 56.8136 70.9227 56.8052 71.3384 56.8614C72.5406 57.0299 73.5911 57.3838 74.5237 57.9344C75.7765 58.6759 76.5601 59.9175 76.6894 61.3669L76.709 61.586H71.8468H66.9846V63.819V66.0521H71.8299H76.6753V66.1701C76.6753 66.3724 76.5714 67.0072 76.4927 67.2881C76.2793 68.0493 75.9394 68.7206 75.4647 69.2992C74.9169 69.9706 73.9535 70.6279 73.0237 70.9621C72.1586 71.2767 71.5322 71.375 70.2429 71.4087C68.3076 71.4565 66.7767 71.1475 65.6363 70.479C65.3723 70.3245 64.9593 70.0548 64.7683 69.9088C64.7009 69.8582 64.6363 69.8161 64.6251 69.8161C64.6138 69.8161 64.3919 70.0576 64.1307 70.3554C63.8695 70.6531 63.5942 70.9649 63.5156 71.052C63.4397 71.1391 63.1167 71.5042 62.7993 71.8666C62.4819 72.2261 62.0662 72.698 61.8752 72.9143C61.5437 73.2851 61.5269 73.3076 61.5802 73.3469C61.6982 73.4368 62.3555 73.8356 62.6869 74.021C64.5633 75.0744 66.6138 75.6923 68.5295 75.785C68.7064 75.7934 68.9424 75.8047 69.0491 75.8103C69.403 75.8271 71.0041 75.7738 71.4648 75.7288C73.7484 75.5097 75.5208 74.9536 76.9983 73.9873C78.0067 73.33 79.1078 72.2317 79.9561 71.0436C81.0123 69.5633 81.7735 67.7234 82.0684 65.9482C82.1808 65.2628 82.2089 64.8836 82.2089 64.0269C82.2089 62.9427 82.1611 62.3556 81.9954 61.3472C81.8858 60.6759 81.8184 60.395 81.6555 59.9006C81.1611 58.4091 80.3999 57.058 79.3859 55.8698C79.1022 55.5356 78.4365 54.8642 78.1331 54.6058C76.8186 53.4795 75.0012 52.7857 72.6867 52.516C71.9002 52.4261 70.4732 52.3643 69.7654 52.3896Z" fill="#5852B0"/>
<path d="M109.526 52.5265C109.469 52.6529 109.13 53.3663 108.332 55.0404C108.18 55.3578 107.554 56.6724 106.941 57.9617C106.326 59.251 105.756 60.4532 105.669 60.6302C105.585 60.8071 105.475 61.0403 105.425 61.1498C105.374 61.2566 105.256 61.5037 105.163 61.6976C105.074 61.8914 104.748 62.5739 104.442 63.2144C104.138 63.8548 103.692 64.7902 103.453 65.293C103.214 65.7958 102.849 66.5598 102.644 66.9924C102.439 67.4249 102.192 67.9418 102.096 68.144C102.001 68.3434 101.81 68.7423 101.675 69.0288C101.54 69.3153 101.355 69.7001 101.267 69.8855C101.178 70.0709 100.995 70.4557 100.86 70.7423C100.725 71.0288 100.346 71.8237 100.017 72.5119C98.7956 75.0708 98.6692 75.3376 98.6692 75.3629C98.6692 75.3713 99.8939 75.377 101.388 75.377H104.107L104.281 75.0034C104.377 74.8011 104.7 74.1129 104.998 73.4809L105.543 72.3293H109.835H114.129L114.363 72.8208C114.489 73.0905 114.812 73.7759 115.076 74.3433L115.562 75.377H118.281C119.775 75.377 121 75.3713 121 75.3657C121 75.3489 119.582 72.3602 118.632 70.3771C118.385 69.8603 118.135 69.335 118.079 69.2114C118.023 69.0878 117.407 67.7985 116.716 66.3463C115.43 63.6441 115.332 63.4391 114.329 61.3324C114.009 60.6611 113.711 60.0347 113.669 59.942C113.627 59.8493 113.511 59.6077 113.416 59.4083C113.25 59.0628 113.045 58.633 111.548 55.4899C111.214 54.7876 110.812 53.9393 110.655 53.6079C110.498 53.2764 110.298 52.8635 110.214 52.695L110.059 52.386H109.823L109.59 52.3832L109.526 52.5265ZM110.259 64.0655C110.478 64.47 111.026 65.4812 111.475 66.3098C111.924 67.1412 112.292 67.8322 112.292 67.8491C112.292 67.8687 111.497 67.8772 109.821 67.8772C107.891 67.8772 107.349 67.8687 107.349 67.8435C107.349 67.8238 107.422 67.6749 107.514 67.512C107.604 67.3491 107.885 66.8435 108.135 66.3884C108.388 65.9334 108.778 65.2255 109.006 64.8154C109.234 64.4053 109.512 63.9026 109.624 63.6975C109.736 63.4953 109.835 63.3267 109.846 63.3267C109.854 63.3267 110.042 63.661 110.259 64.0655Z" fill="#5852B0"/>
<path d="M20.9973 52.9038C20.5198 53.0583 20.163 53.4572 20.0591 53.9515C19.9889 54.2858 20.0647 54.6903 20.2473 54.9656C20.3681 55.1481 20.6265 55.3785 20.8119 55.4684C21.222 55.6706 21.7473 55.6481 22.1489 55.4178C22.472 55.2296 22.7388 54.8279 22.8062 54.4291C22.9158 53.783 22.4888 53.1033 21.854 52.9066C21.6152 52.8336 21.2248 52.8336 20.9973 52.9038Z" fill="#5852B0"/>
<path d="M35.348 52.9094C34.7693 53.1061 34.4014 53.6201 34.4014 54.2268C34.4014 54.8616 34.789 55.3728 35.4098 55.5582C35.5839 55.6088 35.9266 55.6172 36.1148 55.5723C36.4856 55.488 36.8676 55.1846 37.0305 54.8448C37.4069 54.0723 37.053 53.2128 36.2384 52.9179C35.9996 52.8308 35.5923 52.828 35.348 52.9094Z" fill="#5852B0"/>
<path d="M85.706 52.8832C85.6976 52.9029 85.6948 57.9701 85.6976 64.1413L85.706 75.3629L88.47 75.3713L91.2339 75.377L91.2171 72.1214L91.2002 68.8659L92.6665 68.8519C94.1889 68.8378 94.3715 68.8266 95.1805 68.6889C96.5877 68.453 97.7843 67.9474 98.7534 67.1749C99.0483 66.939 99.568 66.4081 99.8545 66.0486C100.498 65.2452 101.051 64.1919 101.346 63.2116C101.579 62.4447 101.692 61.7256 101.72 60.7987C101.734 60.3324 101.728 60.1807 101.677 59.7735C101.506 58.4224 101.183 57.4645 100.543 56.3943C100.192 55.8101 99.5652 55.0489 99.0961 54.6388C98.1607 53.8186 96.922 53.2877 95.3518 53.0321C94.3518 52.872 94.3153 52.8692 89.8407 52.8579C86.4532 52.8467 85.7172 52.8523 85.706 52.8832ZM93.3603 57.3606C93.8828 57.4168 94.2339 57.5095 94.5934 57.6864C95.144 57.9561 95.5934 58.3634 95.8012 58.7847C95.9304 59.0488 96.0288 59.3662 96.1018 59.7735C96.1439 60.0038 96.1552 60.1948 96.1552 60.8549C96.1552 61.5515 96.1467 61.7004 96.0934 61.9925C95.9642 62.7144 95.7816 63.1217 95.4164 63.4981C94.9305 64.0065 94.349 64.2789 93.5204 64.3913C93.3968 64.4082 92.8378 64.4222 92.262 64.4222H91.2255V60.8689V57.3157H92.0935C92.6918 57.3157 93.0822 57.3297 93.3603 57.3606Z" fill="#5852B0"/>
<path d="M53.4261 54.7852C53.1536 54.8863 52.8952 55.1082 52.7716 55.3498C52.3812 56.1166 52.9401 57.0352 53.794 57.0352C54.3193 57.0352 54.735 56.729 54.9092 56.215C55.0833 55.7009 54.7912 55.0633 54.2687 54.8245C54.0497 54.7234 53.6452 54.7066 53.4261 54.7852Z" fill="#5852B0"/>
<path d="M49.634 55.4065C49.1678 55.4992 48.6959 55.8615 48.4655 56.2997C48.3139 56.5918 48.2661 56.7829 48.2689 57.1199C48.2689 57.3727 48.2802 57.4486 48.3532 57.6536C48.7801 58.8895 50.2998 59.2519 51.2155 58.3362C51.7829 57.7716 51.8952 56.884 51.4851 56.207C51.2604 55.8391 50.825 55.5188 50.4093 55.4205C50.2183 55.3756 49.8279 55.37 49.634 55.4065Z" fill="#5852B0"/>
<path d="M18.3763 55.5717C17.7387 55.7571 17.3511 56.2684 17.3511 56.9256C17.3511 57.4453 17.6292 57.9003 18.087 58.1335C18.9044 58.5492 19.8594 58.1138 20.0898 57.2178C20.3426 56.2262 19.3623 55.2852 18.3763 55.5717Z" fill="#5852B0"/>
<path d="M38.1258 55.549C37.7382 55.6389 37.3674 55.9479 37.1905 56.3243C37.095 56.5237 37.0837 56.5687 37.0753 56.8271C37.0584 57.2709 37.1764 57.5883 37.4657 57.8776C37.7466 58.1585 38.0444 58.2793 38.4601 58.2793C38.7747 58.2765 38.9629 58.2231 39.2185 58.0602C39.4966 57.8832 39.7438 57.5293 39.8196 57.2035C39.9797 56.5041 39.5303 55.7737 38.814 55.5631C38.6483 55.5153 38.3028 55.5069 38.1258 55.549Z" fill="#5852B0"/>
<path d="M44.5752 56.4203C44.3309 56.4484 43.9123 56.5832 43.7073 56.7012C43.3112 56.9287 42.991 57.263 42.7803 57.6675C41.963 59.2461 43.0893 61.1084 44.8646 61.1084C45.8449 61.1084 46.6847 60.5326 47.0527 59.6084C47.2999 58.9877 47.2577 58.263 46.9375 57.645C46.828 57.4343 46.7521 57.336 46.5218 57.1057C46.2746 56.8557 46.2072 56.8051 45.946 56.6759C45.4966 56.4512 45.0471 56.367 44.5752 56.4203Z" fill="#5852B0"/>
<path d="M39.8591 58.9314C39.463 59.041 39.1569 59.2966 38.9715 59.6701L38.8535 59.9089V60.2628C38.8535 60.6785 38.9013 60.833 39.1147 61.1167C39.5305 61.6589 40.3394 61.8162 40.9181 61.465C41.213 61.2853 41.4658 60.9426 41.5529 60.6027C41.6147 60.364 41.595 60.0016 41.5107 59.7825C41.3759 59.4342 41.0473 59.1027 40.699 58.9707C40.4911 58.8921 40.0698 58.8724 39.8591 58.9314Z" fill="#5852B0"/>
<path d="M28.039 60.6058C27.2159 60.7266 26.348 61.2462 25.8255 61.9316C24.9407 63.0889 24.8817 64.6928 25.6823 65.9062C25.8817 66.2096 26.3368 66.6674 26.6317 66.8669C27.0446 67.1421 27.5755 67.3556 28.0418 67.4286C28.3058 67.4708 28.9322 67.4652 29.2047 67.4174C30.5894 67.173 31.6962 66.1085 31.9995 64.7321C32.0248 64.6169 32.0529 64.3557 32.0613 64.1535C32.0782 63.7405 32.0304 63.3642 31.9124 62.9878C31.5248 61.7575 30.4743 60.8418 29.1934 60.617C28.9238 60.5721 28.3227 60.5637 28.039 60.6058Z" fill="#5852B0"/>
<path d="M45.2858 61.701C44.7746 61.7965 44.3392 62.0353 43.9741 62.4257C43.2269 63.215 43.1286 64.4201 43.7353 65.3217C44.0836 65.8386 44.7044 66.2374 45.3083 66.3329C45.5751 66.3779 46.0892 66.3554 46.3251 66.2908C46.7156 66.1869 47.1116 65.9509 47.4094 65.6391C47.7099 65.3302 47.8588 65.0745 47.9852 64.656C48.0498 64.4425 48.061 64.3555 48.0638 64.0296C48.0666 63.6139 48.0189 63.3892 47.8588 63.0325C47.561 62.3752 46.8869 61.8499 46.1678 61.7123C45.9206 61.6673 45.5077 61.6617 45.2858 61.701Z" fill="#5852B0"/>
<path d="M35.0585 61.8246C34.8309 61.8752 34.4911 62.01 34.3085 62.1308C33.9602 62.3527 33.6231 62.7431 33.4574 63.1167C33.2945 63.4903 33.2327 64.0268 33.3085 64.4397C33.4321 65.1167 33.9433 65.7627 34.581 66.052C35.1455 66.3076 35.8787 66.3133 36.4376 66.0689C36.9517 65.8386 37.4039 65.3723 37.6174 64.8498C37.8224 64.3414 37.8168 63.6364 37.6005 63.1448C37.4404 62.7768 37.0893 62.3611 36.7551 62.1392C36.5612 62.0128 36.227 61.8752 35.9798 61.8218C35.7467 61.7741 35.286 61.7741 35.0585 61.8246Z" fill="#5852B0"/>
<path d="M50.6507 62.3416C49.5946 62.6056 49.0356 63.8022 49.5159 64.7685C49.8193 65.3836 50.3979 65.7404 51.0833 65.7432C52.0046 65.7432 52.7574 65.0494 52.8192 64.1393C52.8417 63.8134 52.7939 63.5606 52.6535 63.2713C52.5608 63.0803 52.4934 62.9876 52.3108 62.8079C52.1731 62.6702 52.0158 62.5466 51.9091 62.4904C51.5383 62.2966 51.058 62.2405 50.6507 62.3416Z" fill="#5852B0"/>
<path d="M40.5247 62.65C40.2382 62.7034 39.9095 62.8916 39.7242 63.1079C39.668 63.1753 39.5781 63.3157 39.5247 63.4253C39.2635 63.9561 39.3674 64.5544 39.7944 64.9842C39.991 65.1836 40.1848 65.2932 40.4545 65.3634C41.1792 65.5488 41.946 65.0853 42.1398 64.3466C42.3168 63.6696 41.9151 62.9421 41.2382 62.709C41.05 62.6416 40.7129 62.6163 40.5247 62.65Z" fill="#5852B0"/>
<path d="M54.8502 62.8893C54.6226 62.937 54.4401 63.0381 54.2743 63.2039C53.8193 63.6589 53.8165 64.378 54.2715 64.833C54.7996 65.3611 55.6788 65.26 56.0833 64.6252C56.3698 64.1701 56.2827 63.5325 55.8838 63.173C55.7013 63.0072 55.5692 62.9398 55.3305 62.8893C55.1114 62.8443 55.0552 62.8443 54.8502 62.8893Z" fill="#5852B0"/>
<path d="M39.7916 66.4404C39.5388 66.5247 39.3506 66.6426 39.1877 66.8196C38.9349 67.0921 38.8113 67.4039 38.8113 67.7662C38.8113 68.5302 39.4236 69.1426 40.1876 69.1426C41.0556 69.1426 41.7241 68.342 41.5528 67.5106C41.4517 67.0303 41.1399 66.6539 40.6904 66.4713C40.4742 66.3842 40.0107 66.3702 39.7916 66.4404Z" fill="#5852B0"/>
<path d="M44.5132 66.9394C43.429 67.15 42.6621 67.9618 42.5414 69.0236C42.4093 70.1752 43.1621 71.2567 44.3025 71.5572C44.5806 71.6303 45.0834 71.6387 45.3559 71.5769C46.3474 71.3466 47.0693 70.5825 47.2126 69.6191C47.2828 69.1275 47.1957 68.6191 46.9682 68.1893C46.648 67.5854 46.1761 67.2006 45.4963 66.9927C45.3446 66.945 44.6677 66.9085 44.5132 66.9394Z" fill="#5852B0"/>
<path d="M49.6537 69.2128C49.3841 69.2633 49.0301 69.4375 48.8251 69.6257C48.342 70.0667 48.1453 70.7212 48.3054 71.3447C48.3813 71.6425 48.5105 71.8728 48.7324 72.106C49.0667 72.4599 49.4206 72.6228 49.9065 72.6453C50.4374 72.6734 50.8363 72.5161 51.2155 72.1368C51.5694 71.7801 51.7155 71.4206 51.7155 70.9122C51.7155 70.4712 51.5834 70.1172 51.2857 69.7577C51.0666 69.4965 50.6284 69.2605 50.2436 69.1987C50.0161 69.165 49.9178 69.165 49.6537 69.2128Z" fill="#5852B0"/>
<path d="M18.559 69.76C18.0562 69.819 17.6349 70.1448 17.4298 70.6335C17.3765 70.7627 17.368 70.8386 17.3652 71.1363C17.3652 71.4846 17.3652 71.4903 17.4692 71.7065C17.7163 72.2206 18.1798 72.5127 18.7528 72.5127C20.118 72.5099 20.646 70.7178 19.5 69.9791C19.2247 69.8021 18.8905 69.7234 18.559 69.76Z" fill="#5852B0"/>
<path d="M37.9939 69.8274C37.7692 69.906 37.6034 70.0156 37.4349 70.1982C37.1793 70.4734 37.0669 70.7543 37.0669 71.1223C37.0641 71.5071 37.1765 71.7992 37.4405 72.0773C37.7102 72.3666 38.0557 72.5127 38.463 72.5127C38.7523 72.5127 38.9995 72.4397 39.2298 72.2852C40.2129 71.6279 39.9826 70.1448 38.8422 69.8049C38.609 69.7347 38.2242 69.7459 37.9939 69.8274Z" fill="#5852B0"/>
<path d="M53.5917 71.0267C52.9822 71.1306 52.5468 71.7373 52.6563 72.3328C52.6732 72.4367 52.7265 72.594 52.7743 72.6867C53.058 73.2457 53.7995 73.4901 54.3726 73.2064C54.5523 73.1193 54.7967 72.8665 54.895 72.6671C54.9709 72.5098 54.9765 72.4761 54.9765 72.1755C54.9765 71.8749 54.9709 71.8412 54.895 71.698C54.7349 71.3862 54.5242 71.1952 54.2209 71.0856C54.0411 71.0182 53.7855 70.9958 53.5917 71.0267Z" fill="#5852B0"/>
<path d="M14.4438 71.6729C13.4888 71.7993 12.7219 72.4679 12.4579 73.3976C12.3765 73.6925 12.368 74.2852 12.4439 74.5605C12.5731 75.038 12.7332 75.3105 13.0815 75.6588C13.5843 76.1616 14.1854 76.3947 14.8792 76.3526C15.2191 76.3329 15.4466 76.2739 15.764 76.1223C16.5224 75.7655 17.0224 75.0605 17.0982 74.2347C17.1881 73.2403 16.6881 72.3471 15.7977 71.9089C15.3708 71.6982 14.8848 71.614 14.4438 71.6729Z" fill="#5852B0"/>
<path d="M41.8336 71.7376C41.0921 71.9399 40.5022 72.4595 40.2298 73.1618C39.9994 73.7488 40.0331 74.5128 40.3168 75.0718C40.4292 75.2965 40.7185 75.6561 40.9151 75.8134C41.7101 76.4566 42.7803 76.5353 43.6566 76.0184C43.8954 75.878 44.3195 75.4566 44.4544 75.2319C44.5667 75.0381 44.6622 74.8022 44.7296 74.5606C44.8083 74.2825 44.7999 73.6926 44.7156 73.3977C44.4909 72.6168 43.9403 72.041 43.1679 71.7742C42.9516 71.6983 42.8842 71.6899 42.505 71.6787C42.1286 71.6702 42.0584 71.6758 41.8336 71.7376Z" fill="#5852B0"/>
<path d="M21.0786 72.4705C20.6769 72.5801 20.3455 72.8582 20.1685 73.2346C20.073 73.434 20.0618 73.4789 20.0533 73.7402C20.0421 73.9733 20.0533 74.0632 20.1011 74.2205C20.4044 75.2177 21.6769 75.5238 22.4184 74.7823C23.1768 74.0211 22.8229 72.743 21.7752 72.4705C21.5758 72.42 21.264 72.42 21.0786 72.4705Z" fill="#5852B0"/>
<path d="M35.4041 72.4703C34.421 72.7399 34.0361 73.9112 34.6766 74.6837C35.3198 75.4646 36.5838 75.3185 37.008 74.414C37.3844 73.6191 36.9743 72.7259 36.1175 72.4731C35.935 72.4197 35.5923 72.4169 35.4041 72.4703Z" fill="#5852B0"/>
<path d="M24.4297 74.1924C24.174 74.2795 24.0336 74.3638 23.851 74.5464C23.5701 74.8272 23.4465 75.1278 23.4465 75.5351C23.4465 75.9761 23.6347 76.3581 23.9858 76.6278C24.7442 77.2064 25.7948 76.8918 26.1431 75.9817C26.2245 75.7682 26.2358 75.3581 26.1627 75.1306C26.0307 74.7093 25.6937 74.3553 25.2864 74.2121C25.0785 74.1363 24.6291 74.1278 24.4297 74.1924Z" fill="#5852B0"/>
<path d="M31.9885 74.1869C31.6121 74.288 31.3003 74.5465 31.1121 74.9172C30.9942 75.1476 30.9886 75.17 30.9801 75.4481C30.9689 75.6841 30.9801 75.7768 31.0251 75.9312C31.1711 76.4031 31.5588 76.7655 32.0447 76.8807C32.2891 76.9368 32.4632 76.934 32.7217 76.8638C33.5025 76.6531 33.9463 75.8048 33.6711 75.0549C33.5924 74.8498 33.407 74.5802 33.2582 74.4622C32.9127 74.1841 32.4071 74.0746 31.9885 74.1869Z" fill="#5852B0"/>
<path d="M28.32 74.7649C28.0981 74.807 27.7891 74.97 27.6234 75.1329C27.3369 75.411 27.2021 75.734 27.2049 76.1357C27.2049 76.5373 27.3313 76.8267 27.6346 77.1244C28.3874 77.8603 29.6795 77.4896 29.9492 76.4587C30.0643 76.0065 29.9436 75.543 29.6149 75.1891C29.4211 74.9784 29.2161 74.8576 28.9408 74.7874C28.7048 74.7284 28.5447 74.72 28.32 74.7649Z" fill="#5852B0"/>
<path d="M10.0255 75.4479C9.92722 75.4703 9.75307 75.5321 9.64071 75.5911C9.03679 75.8889 8.66602 76.4787 8.66321 77.1473C8.6604 77.4506 8.70534 77.636 8.8486 77.9338C9.06207 78.3719 9.51431 78.7315 9.99463 78.8467C10.9384 79.0686 11.8991 78.4815 12.1294 77.5405C12.1772 77.3411 12.1772 76.9534 12.1294 76.754C11.8991 75.8215 10.9693 75.2428 10.0255 75.4479Z" fill="#5852B0"/>
<path d="M18.2247 75.4334C17.0393 75.5991 16.1714 76.5879 16.1714 77.776C16.1714 78.4193 16.413 78.9895 16.8792 79.4501C17.1573 79.7226 17.4719 79.908 17.8764 80.0316C18.0955 80.0962 18.1713 80.1046 18.5309 80.1074C18.896 80.1074 18.9634 80.099 19.1853 80.0316C19.6151 79.8996 19.882 79.7423 20.1966 79.4333C20.5168 79.1187 20.7218 78.7507 20.837 78.2957C20.8875 78.1019 20.8932 78.0064 20.8819 77.6974C20.8651 77.2536 20.8229 77.085 20.6319 76.6974C20.5027 76.4362 20.455 76.3716 20.2022 76.1188C19.9494 75.866 19.882 75.8154 19.6235 75.689C19.4634 75.6104 19.2331 75.5205 19.1123 75.4896C18.8483 75.425 18.4691 75.3997 18.2247 75.4334Z" fill="#5852B0"/>
<path d="M38.3255 75.4365C37.3985 75.5629 36.6233 76.2454 36.362 77.1611C36.2778 77.4589 36.2722 78.0403 36.3508 78.3409C36.5671 79.1695 37.2272 79.8324 38.0474 80.0431C39.6569 80.4532 41.1849 79.147 41.0024 77.5179C40.89 76.5123 40.1653 75.7033 39.1766 75.4786C38.9294 75.4224 38.5586 75.4028 38.3255 75.4365Z" fill="#5852B0"/>
<path d="M46.4234 75.451C45.9375 75.5549 45.4487 75.9313 45.238 76.3611C44.9628 76.92 44.988 77.538 45.3026 78.0633C45.5133 78.4116 45.9655 78.7402 46.3813 78.8469C46.5975 78.9031 47.0301 78.9003 47.2464 78.8441C48.1396 78.6138 48.7155 77.6897 48.5188 76.8049C48.3054 75.8498 47.3728 75.2459 46.4234 75.451Z" fill="#5852B0"/>
<path d="M22.9859 77.8248C22.7387 77.8585 22.3848 77.9793 22.1517 78.1113C21.6292 78.4062 21.2697 78.8416 21.0618 79.4315C20.9635 79.7123 20.9607 79.7264 20.9607 80.1533C20.9607 80.5241 20.9691 80.6224 21.0253 80.8078C21.2584 81.6196 21.8792 82.2291 22.7163 82.4735C22.9943 82.555 23.6348 82.5494 23.9325 82.4623C24.3398 82.3443 24.6741 82.1505 24.9746 81.8527C25.7892 81.0522 25.91 79.7826 25.2639 78.8332C25.0786 78.5635 24.7555 78.2686 24.4522 78.0944C24.1769 77.9371 23.5898 77.7882 23.2837 77.7967C23.2275 77.7995 23.0927 77.8135 22.9859 77.8248Z" fill="#5852B0"/>
<path d="M33.5644 77.8215C32.6066 77.9563 31.8566 78.6248 31.5869 79.5827C31.5055 79.872 31.4998 80.4057 31.5729 80.7119C31.7779 81.5545 32.4099 82.2231 33.2273 82.459C33.5475 82.5517 34.0644 82.5629 34.3846 82.4871C35.1627 82.3017 35.7553 81.8101 36.0699 81.0854C36.4098 80.3046 36.2581 79.3243 35.6907 78.6417C35.1964 78.0434 34.3368 77.7119 33.5644 77.8215Z" fill="#5852B0"/>
<path d="M6.9302 78.3573C6.59313 78.4219 6.24202 78.7028 6.09595 79.0174C5.99203 79.2449 5.97517 79.5736 6.05382 79.832C6.16056 80.1775 6.44145 80.4612 6.78695 80.5764C7.03413 80.6606 7.40772 80.6438 7.64086 80.537C7.85433 80.4415 8.11556 80.1803 8.21668 79.964C8.2841 79.818 8.29252 79.7674 8.29252 79.4921C8.29252 79.2141 8.2841 79.1663 8.21668 79.0202C8.06219 78.6916 7.7167 78.4219 7.36839 78.3573C7.17739 78.3236 7.10997 78.3236 6.9302 78.3573Z" fill="#5852B0"/>
<path d="M49.7351 78.3663C48.8756 78.605 48.5835 79.6752 49.2071 80.2988C49.4121 80.5038 49.6593 80.6106 49.9655 80.6246C50.266 80.6387 50.4514 80.5909 50.6874 80.4336C50.8812 80.3044 51.0244 80.1246 51.1171 79.8999C51.1677 79.7763 51.1817 79.6921 51.1817 79.4786C51.1817 79.237 51.1733 79.1949 51.0947 79.0235C50.8475 78.4955 50.2716 78.2202 49.7351 78.3663Z" fill="#5852B0"/>
<path d="M28.1795 78.703C27.4014 78.8519 26.7638 79.3434 26.4408 80.0456C26.275 80.3996 26.2441 80.5653 26.2441 81.0372C26.2441 81.4332 26.2498 81.4754 26.334 81.7254C26.5953 82.5062 27.2188 83.0933 28.0109 83.3012C28.3087 83.3798 28.7946 83.3854 29.1008 83.3152C29.9828 83.1158 30.6654 82.4613 30.8929 81.599C30.9743 81.2844 30.9772 80.7619 30.8929 80.4473C30.8199 80.1664 30.6204 79.7704 30.4407 79.5428C30.1598 79.1917 29.7075 78.8968 29.2469 78.762C28.9351 78.6721 28.4772 78.6468 28.1795 78.703Z" fill="#5852B0"/>
<path d="M15.0199 80.3944C14.3935 80.5292 13.8429 81.0545 13.6828 81.6725C13.621 81.9056 13.621 82.3045 13.6828 82.5376C13.8373 83.1162 14.312 83.6022 14.8935 83.782C15.048 83.8297 15.1575 83.8438 15.3991 83.8438C15.9243 83.8409 16.312 83.6724 16.6659 83.2932C16.9552 82.9814 17.1097 82.6359 17.1462 82.2174C17.2164 81.3803 16.5648 80.5517 15.7137 80.3916C15.4468 80.341 15.2642 80.341 15.0199 80.3944Z" fill="#5852B0"/>
<path d="M41.3956 80.3946C41.081 80.4761 40.8367 80.6221 40.581 80.8806C40.2215 81.2401 40.0754 81.5856 40.0754 82.0828C40.0754 82.389 40.1148 82.5659 40.244 82.8356C40.5586 83.4929 41.1906 83.8636 41.9265 83.8243C42.9939 83.7709 43.7663 82.7625 43.5444 81.7148C43.4152 81.0997 42.89 80.5575 42.2664 80.3918C42.0698 80.3384 41.5979 80.3413 41.3956 80.3946Z" fill="#5852B0"/>
<path d="M21.2613 83.5653C20.6518 83.6974 20.1097 84.2254 19.9495 84.8462C19.8821 85.1018 19.9018 85.5765 19.9889 85.8265C20.1686 86.3433 20.5675 86.7366 21.1068 86.9248C21.2136 86.9613 21.3737 86.9894 21.5647 86.9978C21.8119 87.0119 21.8961 87.0034 22.0843 86.9529C22.5843 86.8152 22.9747 86.495 23.2107 86.0259C23.4916 85.4614 23.4326 84.7535 23.059 84.2479C22.6489 83.6917 21.9298 83.4221 21.2613 83.5653Z" fill="#5852B0"/>
<path d="M35.1036 83.5682C34.5277 83.7171 34.0362 84.1974 33.8648 84.7788C33.744 85.1861 33.803 85.7058 34.0109 86.0934C34.1485 86.3462 34.5109 86.6945 34.7693 86.8181C35.6625 87.2451 36.7074 86.8827 37.1175 86.0007C37.2187 85.7816 37.2945 85.4586 37.2945 85.2423C37.2917 84.8463 37.0951 84.3716 36.8086 84.0682C36.4631 83.703 36.0445 83.5233 35.5446 83.5261C35.3873 83.5261 35.1878 83.5457 35.1036 83.5682Z" fill="#5852B0"/>
<path d="M12.7166 84.1974C12.3879 84.3013 12.1211 84.5232 11.9806 84.8097C11.8936 84.9867 11.8879 85.0119 11.8879 85.3069C11.8879 85.5934 11.8936 85.6271 11.975 85.7984C12.1969 86.2591 12.7222 86.54 13.2025 86.4501C13.5845 86.3799 13.93 86.1158 14.0873 85.7788C14.1941 85.5428 14.2081 85.1945 14.121 84.9445C13.9497 84.4614 13.5255 84.1665 13.0115 84.1721C12.8879 84.1721 12.7559 84.1833 12.7166 84.1974Z" fill="#5852B0"/>
<path d="M43.8197 84.2112C43.4601 84.3235 43.1512 84.6437 43.0528 85.0117C43.0051 85.1887 43.0135 85.5061 43.0669 85.6718C43.1849 86.0173 43.4854 86.3094 43.8309 86.4162C44.7242 86.6914 45.5528 85.86 45.2747 84.964C45.1736 84.6269 44.8927 84.3376 44.5584 84.2252C44.3618 84.1606 44.0051 84.1522 43.8197 84.2112Z" fill="#5852B0"/>
<path d="M28.2835 84.6501C28.0587 84.6894 27.7301 84.8355 27.5363 84.9815C26.8706 85.4871 26.6627 86.3748 27.0391 87.1332C27.2975 87.6528 27.7554 87.9758 28.379 88.077C28.7469 88.1359 29.2216 88.0264 29.5559 87.8073C29.8902 87.5854 30.1851 87.1725 30.2834 86.7933C30.3396 86.577 30.3396 86.1781 30.2862 85.945C30.1935 85.5574 29.9014 85.1445 29.5475 84.9113C29.216 84.6894 28.6795 84.5771 28.2835 84.6501Z" fill="#5852B0"/>
<path d="M20.104 87.92C19.5141 88.0858 19.1489 88.6813 19.2725 89.2796C19.3737 89.7599 19.736 90.1054 20.2276 90.1896C20.7219 90.2739 21.2275 90.0071 21.4579 89.5408C21.5702 89.3133 21.5983 88.965 21.5253 88.7122C21.4298 88.3807 21.1292 88.0605 20.8062 87.9481C20.6208 87.8807 20.2894 87.8695 20.104 87.92Z" fill="#5852B0"/>
<path d="M36.5164 87.9191C35.9603 88.0708 35.6091 88.5483 35.6429 89.1101C35.6653 89.4415 35.7496 89.6241 35.9855 89.8601C36.2496 90.1213 36.4293 90.1943 36.817 90.1943C37.0585 90.1943 37.1007 90.1859 37.2748 90.1045C38.1035 89.7112 38.1962 88.5848 37.4377 88.0792C37.1653 87.8966 36.8198 87.8377 36.5164 87.9191Z" fill="#5852B0"/>
<path d="M28.2778 89.223C27.9576 89.3269 27.6767 89.5713 27.5391 89.8662C27.4548 90.0404 27.4492 90.0769 27.4492 90.3494C27.4492 90.6246 27.4548 90.6555 27.5391 90.8269C27.761 91.2791 28.1964 91.5291 28.6964 91.4926C29.216 91.4533 29.6458 91.0572 29.7441 90.5235C29.8312 90.0488 29.5362 89.5039 29.0728 89.2876C28.9351 89.2258 28.8649 89.2117 28.629 89.2061C28.4745 89.2033 28.3172 89.2089 28.2778 89.223Z" fill="#5852B0"/>
</svg>
