<svg width="100" height="100" viewBox="0 0 100 100" fill="none" xmlns="http://www.w3.org/2000/svg">
<path fill-rule="evenodd" clip-rule="evenodd" d="M70.6274 69.0372V68.5327H71.0598V69.0372H70.6274ZM70.6274 63.7257V62.9257C70.9236 62.8492 71.1921 62.6905 71.4022 62.4681C71.7229 62.0573 71.8886 61.3871 71.8886 60.4754C71.9333 59.7938 71.7467 59.1171 71.3589 58.5548C71.1757 58.3172 70.9242 58.1412 70.6382 58.0503V57.2251C71.7103 57.2345 72.7636 57.508 73.7048 58.0215C74.1121 58.2904 74.4464 58.6562 74.6777 59.086C74.909 59.5158 75.0301 59.9963 75.0301 60.4844C75.0301 60.9725 74.909 61.453 74.6777 61.8829C74.4464 62.3127 74.1121 62.6785 73.7048 62.9474C72.858 63.4735 71.7121 63.6681 70.6382 63.7257H70.6274ZM80.1008 67.1237V57.899H80.036C79.1816 57.8487 78.3373 58.1042 77.6541 58.6197C77.0543 59.2104 76.6948 60.0025 76.6452 60.843H76.0506V57.2035H87.1528V60.8646H86.6267C86.5786 60.0193 86.2101 59.2242 85.5961 58.6413C84.9162 58.1194 84.0694 57.8632 83.2142 57.9206H83.1133V67.1237C83.0961 67.3223 83.1191 67.5223 83.181 67.7118C83.2429 67.9013 83.3425 68.0763 83.4737 68.2264C83.8179 68.4577 84.2323 68.5609 84.6448 68.5183H84.8033V69.0228H78.5225V68.5183H78.6847C79.0871 68.5638 79.4912 68.4486 79.809 68.1976C80.0456 67.89 80.1518 67.5017 80.1044 67.1165L80.1008 67.1237ZM70.6274 57.2107V58.0359C70.3561 57.9383 70.0689 57.8918 69.7806 57.899C69.2762 57.899 69.3915 58.2593 69.3915 58.7458V63.0483C69.8077 63.0568 70.2232 63.0108 70.6274 62.9113V63.7113C70.2167 63.7514 69.8041 63.7683 69.3915 63.7617V67.1237C69.3501 67.3015 69.3519 67.4865 69.3968 67.6634C69.4416 67.8402 69.5281 68.0038 69.6492 68.1403C69.7702 68.2769 69.9222 68.3824 70.0924 68.4482C70.2626 68.514 70.446 68.538 70.6274 68.5183V69.0228H64.7358V68.5183H64.898C65.3139 68.5657 65.7322 68.4509 66.0655 68.1976C66.1991 68.0534 66.3003 67.8824 66.3624 67.696C66.4246 67.5095 66.4462 67.312 66.4258 67.1165V59.0773C66.4439 58.882 66.4212 58.685 66.3592 58.4989C66.2972 58.3128 66.1972 58.1417 66.0655 57.9963C65.727 57.7537 65.3129 57.6399 64.898 57.6756H64.7358V57.1963H69.7806C70.0761 57.1963 70.35 57.1963 70.6274 57.2179V57.2107ZM56.5236 65.5671V64.7887H58.2172L56.5236 60.9403V58.8359L57.3488 56.9333H57.8317L62.4729 67.1237C62.635 67.5244 62.86 67.8967 63.1395 68.2264C63.352 68.4199 63.6306 68.5244 63.9179 68.5183H64.0151V69.0228H58.0082V68.5183H58.192C58.7397 68.5183 59.1073 68.403 59.2947 68.1759C59.482 67.9489 59.428 67.603 59.2226 67.1237L58.556 65.5671H56.5236ZM56.5236 58.8178V60.9439L56.4552 60.8069L54.8048 64.7923H56.5236V65.5707H54.4877L53.8463 67.1237C53.6625 67.5598 53.6625 67.9057 53.8463 68.1075C54.0301 68.3093 54.4372 68.4498 55.0823 68.5183H55.2876V69.0228H51.4428V68.5183H51.5113C51.7973 68.5025 52.0672 68.3804 52.268 68.1759C52.5376 67.8631 52.7532 67.5075 52.9058 67.1237L56.5092 58.8178H56.5236ZM32.5788 69.2858V68.5651C33.0878 68.5756 33.5903 68.4495 34.034 68.1998C34.4776 67.95 34.8462 67.5859 35.1012 67.1454C35.6742 66.1832 35.9697 64.8536 35.9697 63.1384C35.9697 61.4231 35.6742 60.0718 35.1012 59.1097C34.8462 58.6691 34.4776 58.305 34.034 58.0553C33.5903 57.8056 33.0878 57.6795 32.5788 57.69V56.9693C34.3082 56.9321 35.9856 57.5618 37.2633 58.7278C37.8507 59.302 38.3174 59.9878 38.6361 60.7449C38.9547 61.502 39.1188 62.3151 39.1188 63.1365C39.1188 63.958 38.9547 64.7711 38.6361 65.5282C38.3174 66.2853 37.8507 66.9711 37.2633 67.5453C35.989 68.7149 34.3077 69.3396 32.5788 69.2858V69.2858ZM44.6431 67.1237C44.6208 67.3226 44.6414 67.524 44.7035 67.7142C44.7657 67.9044 44.868 68.0791 45.0035 68.2264C45.4042 68.4631 45.8701 68.5654 46.3331 68.5183H46.5097V69.0228H39.7893V68.5183H39.9731C40.4279 68.563 40.8851 68.4607 41.2775 68.2264C41.413 68.0791 41.5153 67.9044 41.5774 67.7142C41.6396 67.524 41.6602 67.3226 41.6379 67.1237V59.0773C41.6617 58.8817 41.6417 58.6832 41.5794 58.4962C41.517 58.3093 41.4139 58.1385 41.2775 57.9963C40.8896 57.7492 40.4313 57.6365 39.9731 57.6756H39.7893V57.1963H51.0068V60.8574H50.4122C50.295 60.0134 49.9023 59.2318 49.2951 58.6341C48.6584 58.1307 47.861 57.8747 47.0502 57.9134H44.6467V67.1237H44.6431ZM14.7923 67.1237L17.6318 63.7329L14.3887 59.0485C14.1331 58.649 13.8253 58.2854 13.4735 57.9674C13.2505 57.7712 12.9667 57.6579 12.6699 57.6467H12.5798V57.1675H19.066V57.6467H18.8642C18.1976 57.6467 17.7832 57.7873 17.603 58.0071C17.4228 58.2269 17.5093 58.5764 17.8336 59.034L19.502 61.4628L20.8317 59.9169C21.4731 59.1602 21.7686 58.6088 21.7469 58.2665C21.7253 57.9242 21.2929 57.7404 20.5326 57.6683H20.3056V57.1891H25.0441V57.6683H24.9072C24.4964 57.7022 24.098 57.8252 23.7396 58.0287C23.3244 58.3239 22.9468 58.6688 22.6154 59.0557L20.0065 62.1979L23.3973 67.1237C23.6632 67.5294 23.9792 67.8999 24.3378 68.2264C24.554 68.4136 24.8302 68.5171 25.1161 68.5183H25.1882V69.0228H18.9327V68.5183H19.1164C19.7362 68.5183 20.1002 68.403 20.2623 68.1759C20.4245 67.9489 20.3092 67.603 19.9885 67.1237L18.1327 64.4428H18.1075L16.4859 66.4355C15.8662 67.1562 15.5923 67.6498 15.6608 67.9706C15.7292 68.2913 16.1184 68.475 16.8751 68.5147H17.1273V69.0191H12.5474V68.5147H12.6375C13.0124 68.4963 13.3757 68.3781 13.6897 68.1723C14.0958 67.872 14.4595 67.518 14.7707 67.1201L14.7923 67.1237ZM32.5788 56.9513V57.672C32.0769 57.6628 31.5819 57.7901 31.1466 58.0401C30.7113 58.2901 30.352 58.6536 30.1069 59.0917C29.5123 60.0538 29.2168 61.3799 29.2168 63.1203C29.2168 64.8608 29.5159 66.1652 30.1069 67.1273C30.3493 67.5691 30.7075 67.9364 31.1431 68.1897C31.5786 68.4431 32.075 68.5729 32.5788 68.5651V69.2858C30.8491 69.3454 29.1656 68.72 27.8944 67.5453C27.307 66.9711 26.8403 66.2853 26.5216 65.5282C26.203 64.7711 26.0389 63.958 26.0389 63.1365C26.0389 62.3151 26.203 61.502 26.5216 60.7449C26.8403 59.9878 27.307 59.302 27.8944 58.7278C29.1636 57.5479 30.8468 56.9161 32.5788 56.9693V56.9513Z" fill="black"/>
<path fill-rule="evenodd" clip-rule="evenodd" d="M87.0987 69.0516V66.8319H86.2736V66.5328H88.2663V66.8319H87.4375V69.0516H87.0987ZM88.7023 69.0516V66.5292H89.2031L89.7797 68.3309C89.8446 68.4859 89.8662 68.6012 89.913 68.6913C89.9382 68.5976 89.9851 68.4607 90.0247 68.2805L90.6229 66.5364H91.0841V69.0588H90.7634V66.9544L90.0427 69.0588H89.7473L89.0266 66.9328V69.0588L88.7023 69.0516Z" fill="black"/>
<path fill-rule="evenodd" clip-rule="evenodd" d="M9.38722 71.4264L9.16021 71.4011L8.95121 71.3795L8.77104 71.3363L8.60888 71.2642L8.44673 71.1993L8.29178 71.0876L8.12963 70.9976L7.9963 70.8606L7.87739 70.7273L7.76568 70.5904L7.67199 70.4318L7.5783 70.248L7.50984 70.0859L7.4666 69.9021L7.44137 69.7111L7.41975 69.4589V56.8865L7.44137 56.6739L7.4666 56.4721L7.50984 56.2884L7.5783 56.1262L7.67199 55.9424L7.76568 55.8019L7.87739 55.647L7.9927 55.5064L8.12602 55.3911L8.28818 55.2758L8.44673 55.1821L8.60888 55.0956L8.77104 55.0272L8.95121 54.9767L9.16021 54.9551L9.38722 54.9299H90.7526L90.9832 54.9551L91.1886 54.9767L91.3724 55.0272L91.531 55.0956L91.6931 55.1821L91.8553 55.2758L92.0138 55.3911L92.1543 55.5064L92.2697 55.647L92.3814 55.8019L92.475 55.9424L92.5687 56.1262L92.6336 56.2884L92.684 56.4721L92.7057 56.6739L92.7273 56.9045V69.4733L92.7057 69.7255L92.684 69.9093L92.6336 70.0931L92.5687 70.2552L92.475 70.439L92.3814 70.5976L92.2697 70.7345L92.1543 70.875L92.0138 71.012L91.8553 71.102L91.6931 71.2174L91.531 71.2822L91.3724 71.3543L91.1886 71.3975L90.9832 71.4192L90.7526 71.4444H9.38722V71.4264ZM13.7113 53.4993H9.34398C8.45794 53.5041 7.60959 53.8584 6.9834 54.4852C6.3572 55.1121 6.00379 55.9608 6 56.8469V69.5057C6.00475 70.3905 6.35881 71.2375 6.98511 71.8625C7.6114 72.4874 8.45922 72.8397 9.34398 72.8425H13.7113V75.1127C13.7161 75.9977 14.07 76.8452 14.6962 77.4707C15.3224 78.0962 16.1702 78.4493 17.0553 78.453H47.5691C48.4542 78.4493 49.302 78.0962 49.9282 77.4707C50.5544 76.8452 50.9084 75.9977 50.9131 75.1127V72.8425H90.7959C91.6797 72.8378 92.5261 72.4848 93.1514 71.8602C93.7767 71.2355 94.1306 70.3896 94.1362 69.5057V56.8469C94.1306 55.9624 93.7769 55.1157 93.1518 54.4899C92.5267 53.8641 91.6804 53.5095 90.7959 53.5029H50.9131V51.9895C50.4511 52.1418 49.9514 52.1354 49.4934 51.9715V53.5029H15.1311V24.3908L15.1563 24.1602L15.1779 23.9548L15.2248 23.771L15.2932 23.6089L15.3689 23.4287L15.4626 23.2918L15.5743 23.1332L15.6896 22.9927L15.8229 22.8774L15.9851 22.7621L16.1436 22.672L16.3058 22.5819L16.468 22.5098L16.6517 22.463L16.8715 22.4414L17.0986 22.4198H47.5259L47.7565 22.4414L47.9619 22.463L48.1457 22.5098L48.3078 22.5819L48.47 22.672L48.6321 22.7621L48.7907 22.8774L48.9276 22.9927L49.0429 23.1332L49.1546 23.2918L49.2483 23.4287L49.342 23.6125L49.4105 23.7746L49.4573 23.9584L49.4826 24.1638L49.5006 24.3944V27.7384C50.0025 27.9063 50.48 28.1402 50.9203 28.4339V24.344C50.9156 23.4573 50.5608 22.6084 49.9331 21.9821C49.3055 21.3558 48.4558 21.0028 47.5691 21H17.0553C16.1696 21.0038 15.3213 21.3573 14.695 21.9836C14.0687 22.6099 13.7151 23.4583 13.7113 24.344V53.5029V53.4993ZM49.4934 72.8425V75.0694L49.4754 75.3181L49.4501 75.5018L49.4033 75.6856L49.3348 75.8442L49.2411 76.0279L49.1474 76.1865L49.0357 76.3234L48.9204 76.4567L48.7835 76.5973L48.6249 76.691L48.4628 76.8063L48.3006 76.8711L48.1385 76.9432L47.9547 76.9864L47.7493 77.0081L47.5187 77.0333H17.0986L16.8715 77.0081L16.6661 76.9864L16.4824 76.9432L16.3202 76.8711L16.1581 76.8063L15.9995 76.691L15.8374 76.5973L15.704 76.4567L15.5887 76.3234L15.477 76.1865L15.3833 76.0279L15.2932 75.8442L15.2248 75.6856L15.1779 75.5018L15.1563 75.3181L15.1311 75.0694V72.8425H49.4934Z" fill="black"/>
<path d="M51.4608 49.9643C51.0705 50.2597 50.5954 50.4214 50.1059 50.4255C49.818 50.4124 49.5385 50.3242 49.2952 50.1697V48.9698C49.2952 47.7266 48.7547 47.377 48.7547 47.377C48.7547 47.377 48.6069 46.2276 50.1059 45.5357C50.1682 45.497 50.2347 45.4656 50.3041 45.442C49.8357 48.5986 51.4608 49.9823 51.4608 49.9823M23.7829 45.6906C23.7829 45.6906 22.6514 47.132 23.6856 48.5229C24.7198 49.9139 25.8909 49.5571 25.8909 49.5571C25.8909 49.5571 25.0909 49.3661 24.5468 48.1446C24.2041 47.3567 23.9479 46.5339 23.7829 45.6906V45.6906ZM28.0602 44.7538C28.0602 44.7538 27.0332 45.8348 27.3071 46.9699C27.4874 47.6675 27.8727 48.2951 28.4133 48.7716C27.8396 48.9139 27.2334 48.8341 26.7161 48.5482C25.9954 48.0689 25.5702 46.6996 26.4783 46.0258C27.0279 45.6239 27.556 45.1933 28.0602 44.7357V44.7538Z" stroke="white" stroke-miterlimit="22.93"/>
<path fill-rule="evenodd" clip-rule="evenodd" d="M69.5608 40.6783C66.3177 44.8259 63.5287 44.3178 62.9377 43.8349C62.3468 43.3521 64.0944 41.1143 64.0944 41.1143C64.0944 41.1143 61.3378 41.9215 60.8513 40.999C60.3649 40.0765 63.2116 39.3631 63.1647 36.3146C61.1937 38.1379 59.9216 37.5145 59.9216 37.5145C59.9216 37.5145 56.1921 33.9255 52.8445 30.4049C49.5474 26.906 47.9727 27.5474 45.753 27.5222C43.5333 27.497 39.2055 29.5726 35.7535 29.4825C32.3014 29.3924 32.5104 29.2519 27.9737 28.6032C23.4369 27.9546 20.8533 34.8011 20.8533 34.8011C20.8533 34.8011 20.165 40.1486 20.8533 43.3953C20.756 40.354 21.2136 39.5937 21.3253 38.8334C24.9288 43.4421 21.1271 44.8907 20.965 46.2276C20.8172 47.2618 22.7667 47.2618 22.4928 49.7986C23.9955 49.7986 24.2946 50.3247 25.9521 50.3247C27.6097 50.3247 29.6565 49.9932 29.8546 49.3734C30.0528 48.7536 27.8583 48.4077 28.1034 46.5375C28.3484 44.6673 29.343 45.6042 29.8078 42.7503C33.0509 45.4024 36.0886 44.7106 36.0886 44.7106C36.0886 44.7106 38.0344 44.7322 39.3317 44.7106C40.6289 44.6889 39.5767 45.7916 39.5767 45.7916C39.5767 45.7916 37.5588 45.0961 37.0147 46.5483C36.6219 50.0761 38.5641 50.1517 38.7623 50.3319C39.1122 50.5299 39.5184 50.6053 39.916 50.5458C40.3137 50.4864 40.6801 50.2957 40.9568 50.004C41.8937 47.705 43.6882 48.1194 44.5602 46.1123C45.4323 44.1052 45.371 44.0872 46.8736 43.716C46.7799 45.8348 47.7601 47.3194 48.1565 48.9266C48.5528 49.6472 47.7601 49.222 47.688 50.3319C49.2375 53.993 52.6355 50.8796 52.7869 50.3319C49.8573 49.7337 51.7743 46.4834 51.4067 44.2709C53.6481 44.0187 53.3778 45.352 53.3778 45.352C53.3778 45.352 55.5687 49.8671 59.7559 49.568C60.6928 51.1823 62.862 49.4995 62.862 49.4995C62.862 49.4995 62.6386 48.0581 63.4999 47.6077C64.3611 47.1573 69.986 43.716 69.532 40.6747L69.5608 40.6783ZM23.3577 48.5194C22.3199 47.1429 23.4514 45.6871 23.4514 45.6871C23.6177 46.53 23.8738 47.3526 24.2153 48.141C24.7594 49.3626 25.5594 49.5536 25.5594 49.5536C25.5594 49.5536 24.3919 49.9139 23.3541 48.5194H23.3577ZM26.3881 48.5554C25.6675 48.0762 25.2423 46.7069 26.1503 46.033C26.7014 45.6316 27.2307 45.2009 27.7358 44.743C27.7358 44.743 26.7089 45.824 26.9827 46.9591C27.162 47.6563 27.5461 48.2839 28.0854 48.7608C27.5117 48.9039 26.9052 48.824 26.3881 48.5374V48.5554ZM49.7816 50.4436C49.4927 50.4297 49.2122 50.3416 48.9672 50.1878V48.9698C48.9672 47.7266 48.4303 47.3771 48.4303 47.3771C48.4303 47.3771 48.2826 46.2276 49.7816 45.5357C49.8438 45.497 49.9103 45.4656 49.9798 45.4421C49.5113 48.5987 51.1365 49.9824 51.1365 49.9824C50.746 50.2775 50.271 50.4392 49.7816 50.4436V50.4436ZM61.8783 46.3321C61.6891 46.7259 61.3894 47.0562 61.0157 47.2827C60.6421 47.5092 60.2106 47.6221 59.7739 47.6077C59.3962 47.6197 59.0181 47.6053 58.6424 47.5645C57.7474 47.4906 56.8774 47.2317 56.0876 46.8041C55.6607 46.5941 55.2901 46.2853 55.0066 45.9033C54.0661 44.8907 54.6102 43.5791 54.0661 43.507C52.985 42.8872 51.7311 43.6908 50.178 42.4944C49.6638 42.0733 49.2251 41.5676 48.8807 40.999C47.7493 41.2513 47.5979 42.7034 46.7872 43.1863C45.9764 43.6692 44.7152 43.1395 44.1026 44.1556C43.49 45.1718 44.1747 46.0438 42.6 46.851C41.0253 47.6582 41.2487 46.3429 40.51 46.4366C39.7893 47.4023 41.4469 48.4869 41.4469 48.4869C41.1309 48.654 40.7724 48.7234 40.4169 48.6862C40.0614 48.649 39.7251 48.5069 39.4506 48.2779C39.4441 48.6772 39.4816 49.076 39.5623 49.4671C39.5623 49.4671 37.1984 48.7104 38.1569 46.7501C39.2884 46.8222 40.6181 47.024 40.8415 45.6691C40.301 41.6837 42.3441 38.0658 42.3441 38.0658C42.3441 38.0658 41.4577 37.9361 40.9532 39.2694C40.4379 38.3505 40.5929 37.7451 40.5929 37.7451C40.5929 37.7451 39.0434 38.855 40.2325 41.2296C39.5118 41.99 39.7425 42.5665 36.6291 42.9557C33.5157 43.3449 30.1429 41.4314 30.1429 41.4314C30.1429 41.4314 28.4169 39.5216 27.6782 34.4732C26.3377 37.3343 29.0619 41.6188 26.7809 42.8692C26.3845 43.0746 26.0602 43.28 25.7215 43.489C24.8689 44.057 24.1195 44.7662 23.5054 45.5862C23.9028 44.8434 24.1479 44.0287 24.2261 43.1899C24.1036 40.6675 21.8658 40.5882 21.6677 37.3163V36.2353C22.3343 32.7147 24.1036 31.0536 25.7287 30.2716C26.7118 29.8032 27.7892 29.5665 28.8781 29.5798C28.8781 29.5798 33.386 30.3689 36.0634 30.4482C41.627 30.4482 43.5477 27.4754 47.3421 28.3762C48.3521 28.5961 49.3126 29.0017 50.1744 29.5726C50.6897 29.8716 51.3059 30.2644 52.0914 30.7725C53.3238 31.558 54.776 32.985 56.084 34.3219C57.1182 35.3777 58.0298 36.4155 58.646 37.0353C58.8469 37.2572 59.0703 37.4576 59.3127 37.6334C59.9757 37.9938 60.2712 38.2748 61.6261 37.9541C59.5072 39.2225 59.655 40.7864 59.655 40.7864C59.655 40.7864 59.1181 43.2043 62.4368 41.7557C60.4441 42.7755 61.0603 43.7016 61.0603 43.7016C61.0603 43.7016 62.772 46.9122 67.7483 43.4349C66.8871 44.516 65.1034 46.5699 61.8783 46.3177V46.3321Z" fill="black"/>
<path fill-rule="evenodd" clip-rule="evenodd" d="M61.8855 46.3214C61.6969 46.715 61.3979 47.0452 61.0248 47.2717C60.6518 47.4982 60.2209 47.6112 59.7847 47.5971C59.407 47.609 59.0289 47.5946 58.6532 47.5538C57.7542 47.4803 56.8804 47.2202 56.0876 46.7899C55.6608 46.5813 55.2902 46.2737 55.0066 45.8926C54.0661 44.8801 54.6102 43.5648 54.0661 43.4964C52.9851 42.8766 51.7311 43.6801 50.178 42.4838C49.6643 42.0607 49.2257 41.5539 48.8807 40.9848C47.7493 41.237 47.6015 42.6892 46.7908 43.172C45.98 43.6549 44.7188 43.1252 44.1062 44.1414C43.4936 45.1575 44.1783 46.026 42.6036 46.8331C41.0289 47.6403 41.2523 46.325 40.5136 46.4223C39.7929 47.3881 41.4505 48.4727 41.4505 48.4727C41.1349 48.6403 40.7766 48.7102 40.4211 48.6737C40.0656 48.6371 39.7291 48.4956 39.4542 48.2673C39.4466 48.6704 39.4853 49.073 39.5695 49.4672C39.5695 49.4672 37.2056 48.7105 38.1678 46.7502C39.2992 46.8187 40.6289 47.0241 40.8523 45.6692C40.3118 41.6838 42.3549 38.0696 42.3549 38.0696C42.3549 38.0696 41.4721 37.9291 40.9784 39.2659C40.4631 38.3471 40.6181 37.7417 40.6181 37.7417C40.6181 37.7417 39.065 38.8515 40.2577 41.2226C39.5371 41.9865 39.7677 42.5595 36.6543 42.9486C33.541 43.3378 30.1681 41.4244 30.1681 41.4244C30.1681 41.4244 28.4421 39.5146 27.7034 34.4662C26.3449 37.3201 29.0619 41.6082 26.7881 42.8549C26.3918 43.0603 26.0674 43.2693 25.7287 43.4747C24.8749 44.0412 24.1253 44.7507 23.5126 45.5719C23.9093 44.8288 24.1543 44.0143 24.2333 43.1756C24.1108 40.6532 21.8695 40.574 21.6713 37.3021V36.221C22.3379 32.6969 24.1072 31.0393 25.7323 30.2574C26.7154 29.7884 27.7926 29.5505 28.8817 29.5619C28.8817 29.5619 33.4148 30.3727 36.0886 30.4375C41.6523 30.4375 43.5729 27.4647 47.3673 28.3656C48.377 28.5847 49.3373 28.9891 50.1996 29.5583C50.7149 29.861 51.3311 30.2538 52.1202 30.7582C53.3526 31.5438 54.8048 32.9707 56.1092 34.3076C57.1434 35.3634 58.0551 36.4012 58.6713 37.0246C58.8713 37.2448 59.0921 37.4451 59.3307 37.6228C59.9973 37.9831 60.2928 38.2678 61.6477 37.9435C59.5289 39.2119 59.6766 40.7794 59.6766 40.7794C59.6766 40.7794 59.1397 43.1973 62.4585 41.7487C60.4622 42.7613 61.082 43.7017 61.082 43.7017C61.082 43.7017 62.7972 46.916 67.7699 43.4387C66.9087 44.5197 65.1286 46.5737 61.8999 46.3214H61.8855Z" fill="white"/>
<path fill-rule="evenodd" clip-rule="evenodd" d="M58.9127 38.9558C58.5524 37.9577 58.6028 38.1775 58.5524 38.1883C58.5019 38.1991 55.648 37.7162 55.7777 38.7036C55.8354 39.1108 57.5218 39.9648 57.5074 39.8062C57.5251 39.5631 57.5637 39.322 57.6227 39.0855C57.6551 38.8801 58.0407 38.7576 58.0407 38.7576C58.2142 38.9822 58.346 39.236 58.4299 39.5071C58.7578 40.4152 56.6678 40.5053 56.6678 40.5053L56.5092 40.4512L55.7273 39.4963V39.4495C54.4949 40.5305 55.6444 41.2836 55.6444 41.2836C56.9416 42.5592 56.7831 42.8583 56.7831 42.8583C56.9347 42.9556 57.111 43.0074 57.2912 43.0074C57.4713 43.0074 57.6477 42.9556 57.7993 42.8583C57.9964 42.711 58.1517 42.5148 58.2497 42.289C58.7037 41.4386 58.2929 40.9737 57.774 40.7503C57.5881 40.6703 57.3914 40.6181 57.1903 40.5954C57.4968 40.5794 57.7998 40.5224 58.0911 40.426C58.3506 40.3323 59.2695 39.954 58.9055 38.9558H58.9127ZM57.4281 41.8385C57.4253 41.8943 57.4061 41.948 57.373 41.9929C57.3399 42.0379 57.2943 42.0721 57.2419 42.0914C57.1895 42.1106 57.1326 42.114 57.0783 42.1011C57.0239 42.0883 56.9746 42.0597 56.9364 42.0191C56.8981 41.9784 56.8727 41.9274 56.8632 41.8723C56.8538 41.8173 56.8607 41.7607 56.8832 41.7096C56.9056 41.6585 56.9426 41.6151 56.9895 41.5849C57.0364 41.5546 57.0912 41.5388 57.147 41.5395C57.1852 41.5404 57.2228 41.5489 57.2577 41.5645C57.2925 41.5801 57.324 41.6024 57.3501 41.6302C57.3763 41.6581 57.3966 41.6908 57.41 41.7266C57.4234 41.7623 57.4296 41.8004 57.4281 41.8385V41.8385Z" fill="black"/>
</svg>
