<svg width="128" height="128" viewBox="0 0 128 128" fill="none" xmlns="http://www.w3.org/2000/svg">
<path d="M14.7234 68.0454L10.8801 62.9966H10.4027V68.0454H7V55.5576H10.4027V60.2649H10.8434L14.4419 55.5576H18.7259L13.9524 61.5576L18.9953 68.0454H14.7234ZM19.9087 55.5576H24.1437L27.0569 62.6308H27.2037L30.1168 55.5576H34.3519V68.0454H31.0226V60.8259H30.9247L28.134 67.9479H26.1266L23.3359 60.7771H23.238V68.0454H19.9087V55.5576ZM42.1825 61.8015V64.3381H36.3073V61.8015H42.1825ZM44.1929 68.0454V58.6796H52.9568V68.0454H49.7744V61.1918H47.3263V68.0454H44.1929ZM54.6781 71.5576V58.6796H58.0318V60.3137H58.1052C58.2277 59.9966 58.4072 59.706 58.6438 59.4418C58.8805 59.1735 59.1742 58.9601 59.5251 58.8015C59.876 58.6389 60.284 58.5576 60.7491 58.5576C61.3692 58.5576 61.9588 58.7223 62.5178 59.0515C63.0808 59.3808 63.5378 59.8991 63.8887 60.6064C64.2436 61.3137 64.4211 62.2324 64.4211 63.3625C64.4211 64.4438 64.2518 65.3401 63.9132 66.0515C63.5786 66.7629 63.1298 67.2934 62.5668 67.643C62.0078 67.9926 61.3937 68.1674 60.7246 68.1674C60.284 68.1674 59.8903 68.0962 59.5434 67.9539C59.2007 67.8076 58.907 67.6105 58.6622 67.3625C58.4215 67.1105 58.2358 66.8259 58.1052 66.5088H58.0563V71.5576H54.6781ZM57.9829 63.3625C57.9829 63.8178 58.042 64.2121 58.1603 64.5454C58.2827 64.8747 58.4541 65.1308 58.6744 65.3137C58.8988 65.4926 59.1661 65.582 59.4761 65.582C59.7862 65.582 60.0494 65.4946 60.2656 65.3198C60.486 65.141 60.6532 64.8869 60.7675 64.5576C60.8858 64.2243 60.9449 63.8259 60.9449 63.3625C60.9449 62.8991 60.8858 62.5028 60.7675 62.1735C60.6532 61.8402 60.486 61.5861 60.2656 61.4113C60.0494 61.2324 59.7862 61.143 59.4761 61.143C59.1661 61.143 58.8988 61.2324 58.6744 61.4113C58.4541 61.5861 58.2827 61.8402 58.1603 62.1735C58.042 62.5028 57.9829 62.8991 57.9829 63.3625ZM70.3652 68.2162C69.3454 68.2162 68.4718 68.0149 67.7456 67.6125C67.0194 67.206 66.4626 66.641 66.0751 65.9174C65.6874 65.1898 65.4936 64.3463 65.4936 63.3869C65.4936 62.4276 65.6874 61.5861 66.0751 60.8625C66.4626 60.1349 67.0194 59.5698 67.7456 59.1674C68.4718 58.7609 69.3454 58.5576 70.3652 58.5576C71.385 58.5576 72.2586 58.7609 72.9848 59.1674C73.711 59.5698 74.2678 60.1349 74.6553 60.8625C75.0427 61.5861 75.2365 62.4276 75.2365 63.3869C75.2365 64.3463 75.0427 65.1898 74.6553 65.9174C74.2678 66.641 73.711 67.206 72.9848 67.6125C72.2586 68.0149 71.385 68.2162 70.3652 68.2162ZM70.3896 65.7284C70.6754 65.7284 70.922 65.6328 71.13 65.4417C71.338 65.2507 71.4997 64.9784 71.6138 64.6247C71.7279 64.2711 71.7849 63.8503 71.7849 63.3625C71.7849 62.8706 71.7279 62.4499 71.6138 62.1003C71.4997 61.7467 71.338 61.4743 71.13 61.2832C70.922 61.0922 70.6754 60.9966 70.3896 60.9966C70.0877 60.9966 69.8286 61.0922 69.6123 61.2832C69.3959 61.4743 69.2307 61.7467 69.1166 62.1003C69.0025 62.4499 68.9455 62.8706 68.9455 63.3625C68.9455 63.8503 69.0025 64.2711 69.1166 64.6247C69.2307 64.9784 69.3959 65.2507 69.6123 65.4417C69.8286 65.6328 70.0877 65.7284 70.3896 65.7284ZM81.5524 71.2162V55.5576H84.9309V71.2162H81.5524ZM81.5524 68.2162C80.7775 68.2162 80.0673 68.0983 79.4225 67.8625C78.7784 67.6268 78.2191 67.2934 77.7461 66.8625C77.2766 66.4316 76.9117 65.9215 76.6503 65.332C76.3935 64.7426 76.2652 64.0942 76.2652 63.3869C76.2652 62.6796 76.3935 62.0312 76.6503 61.4418C76.9117 60.8523 77.2766 60.3422 77.7461 59.9113C78.2191 59.4804 78.7784 59.1471 79.4225 58.9113C80.0673 58.6755 80.7775 58.5576 81.5524 58.5576H82.0665V68.2162H81.5524ZM81.5524 65.704H81.871V61.0698H81.5524C81.2915 61.0698 81.0509 61.1267 80.8304 61.2406C80.6141 61.3544 80.4263 61.5149 80.2676 61.7223C80.1083 61.9255 79.9835 62.1694 79.8938 62.454C79.8082 62.7345 79.7654 63.0454 79.7654 63.3869C79.7654 63.8381 79.8433 64.2386 79.9978 64.5881C80.1529 64.9377 80.3651 65.2121 80.6349 65.4113C80.9082 65.6064 81.2137 65.704 81.5524 65.704ZM84.9309 68.2162H84.4168V58.5576H84.9309C85.7058 58.5576 86.416 58.6755 87.0608 58.9113C87.705 59.1471 88.2624 59.4804 88.7313 59.9113C89.2049 60.3422 89.5698 60.8523 89.8271 61.4418C90.088 62.0312 90.2187 62.6796 90.2187 63.3869C90.2187 64.0942 90.088 64.7426 89.8271 65.332C89.5698 65.9215 89.2049 66.4316 88.7313 66.8625C88.2624 67.2934 87.705 67.6268 87.0608 67.8625C86.416 68.0983 85.7058 68.2162 84.9309 68.2162ZM84.9309 65.704C85.1918 65.704 85.4307 65.6471 85.647 65.5332C85.8675 65.4194 86.057 65.2609 86.2163 65.0577C86.375 64.8503 86.4974 64.6064 86.583 64.3259C86.6733 64.0414 86.7179 63.7283 86.7179 63.3869C86.7179 62.9316 86.6406 62.5312 86.4855 62.1857C86.3346 61.8361 86.1242 61.5637 85.855 61.3686C85.5899 61.1694 85.2815 61.0698 84.9309 61.0698H84.6124V65.704H84.9309ZM94.7685 63.7527L97.3881 58.6796H100.57V68.0454H97.3881V62.9478L94.7685 68.0454H91.5862V58.6796H94.7685V63.7527ZM101.923 68.0454L101.899 65.5088H102.192C102.376 65.5088 102.537 65.456 102.676 65.3503C102.819 65.2446 102.939 65.082 103.037 64.8625C103.139 64.643 103.219 64.3646 103.276 64.0271C103.337 63.6897 103.375 63.2893 103.392 62.8259L103.539 58.6796H111.275V68.0454H108.092V61.1918H106.525L106.378 63.7283C106.338 64.5251 106.223 65.1999 106.036 65.7528C105.852 66.3056 105.608 66.7507 105.301 67.0881C104.995 67.4215 104.641 67.6654 104.237 67.8198C103.832 67.9702 103.388 68.0454 102.902 68.0454H101.923ZM114.778 61.2162H117.667C119.009 61.2162 120.066 61.5251 120.837 62.143C121.608 62.7568 121.996 63.6023 122 64.6796C121.996 65.3747 121.818 65.9743 121.468 66.4784C121.12 66.9824 120.623 67.3706 119.974 67.643C119.329 67.9113 118.56 68.0454 117.667 68.0454H112.893V58.6796H116.076V65.5332H117.667C118.014 65.5332 118.299 65.4519 118.523 65.2893C118.748 65.1227 118.862 64.9113 118.866 64.6552C118.862 64.3828 118.748 64.1613 118.523 63.9906C118.299 63.8157 118.014 63.7283 117.667 63.7283H114.778V61.2162Z" fill="#5852B0"/>
</svg>
