<svg width="100" height="100" viewBox="0 0 100 100" fill="none" xmlns="http://www.w3.org/2000/svg">
<path d="M66.6477 37.0124C66.424 35.8828 66.0915 34.7933 65.6614 33.754C65.2228 32.6947 64.6809 31.687 64.0516 30.7452C63.4151 29.7933 62.6869 28.9074 61.8799 28.1004C61.0728 27.2933 60.1869 26.5651 59.2351 25.9286C58.2933 25.2979 57.2855 24.7575 56.2262 24.3188C55.1869 23.8888 54.0974 23.5562 52.9679 23.3326C51.8669 23.1147 50.7302 23 49.5662 23C48.6631 23 47.7758 23.0688 46.9085 23.2021C46.0226 23.3383 45.1596 23.5404 44.3239 23.8042C43.4724 24.0723 42.6482 24.4063 41.8597 24.7962C41.0599 25.1918 40.2944 25.6477 39.5705 26.1565C38.8408 26.6683 38.1513 27.2374 37.5105 27.8538C36.8683 28.4702 36.2734 29.1368 35.7316 29.8464C35.2012 30.5402 34.721 31.277 34.2981 32.0482C33.8795 32.8108 33.5154 33.6093 33.2129 34.4364L33.2043 34.4608L35.2299 35.1861L35.2385 35.1617C35.5037 34.4393 35.8205 33.7426 36.1874 33.0774C36.5573 32.4037 36.9773 31.7615 37.4417 31.1551C37.9176 30.5344 38.4394 29.9496 39.0028 29.4091C39.5662 28.8687 40.1711 28.3699 40.8119 27.9197C41.4455 27.4754 42.1149 27.0768 42.8159 26.7299C43.5068 26.3888 44.2279 26.0978 44.9733 25.8627C45.7058 25.6319 46.4627 25.4541 47.2382 25.3366C47.998 25.2205 48.7763 25.1603 49.5691 25.1603C50.5883 25.1603 51.5845 25.2606 52.5493 25.4513C53.5384 25.6477 54.4931 25.9387 55.4034 26.3157C56.3323 26.6998 57.2153 27.1743 58.0395 27.7262C58.8738 28.2838 59.6494 28.9218 60.3561 29.6285C61.0628 30.3352 61.7007 31.1107 62.2583 31.945C62.8102 32.7707 63.2847 33.6537 63.6689 34.5826C64.0459 35.4929 64.3369 36.4476 64.5333 37.4367C64.6551 38.0517 64.7354 38.681 64.7813 39.3203H57.6525L56.5401 35.2822H54.2652L51.9013 43.8544L48.8709 32.8638L48.8881 32.8022H46.5845L46.6046 32.8753L44.3655 41.2999L43.8208 39.3232H33.0251V41.4849H42.1393L43.2474 45.5029H45.5051L47.75 37.0568L50.7646 47.99H53.0252L55.3962 39.3934L55.9725 41.4849H64.777C64.7325 42.1342 64.6508 42.7736 64.5275 43.3986C64.3311 44.3877 64.0401 45.3424 63.6631 46.2527C63.279 47.1816 62.8045 48.0646 62.2526 48.8903C61.6949 49.7246 61.057 50.5001 60.3503 51.2068C58.9441 52.6131 57.264 53.7455 55.3976 54.5196C54.4874 54.8966 53.5327 55.1876 52.5435 55.384C51.5802 55.5746 50.584 55.675 49.5633 55.675C48.7921 55.675 48.0338 55.6176 47.2927 55.5073C46.5372 55.3955 45.799 55.2277 45.0837 55.0084C44.3569 54.7862 43.6516 54.511 42.9764 54.187C42.2912 53.8588 41.6347 53.4817 41.0126 53.0589C40.3818 52.6317 39.7855 52.1586 39.2264 51.644C38.6674 51.1294 38.147 50.5718 37.6697 49.9797C37.1952 49.3906 36.7623 48.7641 36.3781 48.1062C35.9982 47.4554 35.6642 46.773 35.3818 46.0663L35.3116 45.8857L35.227 45.6592L35.0994 45.3037L33.0567 45.9789L33.1284 46.1896L33.2 46.3946L33.2789 46.6053L33.3792 46.8605C33.7018 47.6675 34.0816 48.4459 34.516 49.1884C34.9546 49.9382 35.4477 50.6535 35.9896 51.3272C36.5343 52.0038 37.1278 52.6389 37.7657 53.2266C38.4022 53.8129 39.0831 54.3533 39.8027 54.8407C40.5166 55.3238 41.2677 55.7567 42.0504 56.1323C42.8231 56.5021 43.6272 56.8189 44.4587 57.0726C45.2743 57.3235 46.1158 57.5142 46.9759 57.6432C47.8202 57.7693 48.6832 57.8353 49.5605 57.8353C50.7244 57.8353 51.8626 57.7206 52.9621 57.5027C54.0917 57.2791 55.1812 56.9465 56.2204 56.5164C57.2798 56.0778 58.2875 55.5359 59.2293 54.9066C60.1812 54.2702 61.0671 53.542 61.8741 52.7349C62.6812 51.9278 63.4094 51.0419 64.0459 50.0901C64.6766 49.1483 65.217 48.1406 65.6557 47.0812C66.0857 46.0419 66.4183 44.9525 66.6419 43.8229C66.8598 42.722 66.9745 41.5852 66.9745 40.4198C66.9802 39.2515 66.8655 38.1133 66.6477 37.0124Z" fill="black"/>
<path d="M6.47564 76.7723V72.0533H8.33918L11.49 76.7723H14.2294L10.2701 70.8491L14.0144 65.2241H11.2592L8.33918 69.8099H6.47564V65.2241H4V76.7723H6.47564Z" fill="black"/>
<path d="M23.2101 69.1003C23.2101 70.4535 22.1379 70.799 20.8678 70.799H18.8709V67.4016H20.8678C22.1379 67.4016 23.2101 67.7313 23.2101 69.1003ZM16.3967 65.2241V76.7723H18.8709V72.9779H20.7517C23.5398 72.9779 25.7345 72.0877 25.7345 69.1003C25.7345 66.1143 23.5398 65.2241 20.7517 65.2241H16.3967Z" fill="black"/>
<path d="M37.928 76.7723V65.2241H35.6014L30.223 72.7628C30.256 72.284 30.2732 71.7063 30.2732 71.1788V65.2226H27.799V76.7708H30.1255L35.504 69.2321C35.471 69.7109 35.4538 70.2886 35.4538 70.8161V76.7723H37.928Z" fill="black"/>
<path d="M52.3619 65.2241V67.4503H55.9098V76.7723H58.3668V67.4503H61.9147V65.2241H52.3619Z" fill="black"/>
<path d="M51.0603 67.4476L49.5279 68.9011L49.5007 68.8725C48.9918 68.3406 48.4514 67.9407 47.8809 67.6741C47.3103 67.4089 46.7083 67.2756 46.0746 67.2756C45.5385 67.2756 45.0454 67.3659 44.5953 67.5479C44.1452 67.7285 43.7381 68.0009 43.3725 68.3636C43.007 68.7262 42.7318 69.1305 42.5497 69.5763C42.3662 70.0236 42.2759 70.5124 42.2759 71.0442C42.2759 71.4155 42.316 71.7652 42.3977 72.095C42.478 72.4218 42.5999 72.7286 42.7619 73.0138C42.9238 73.3005 43.1188 73.5571 43.3482 73.7822C43.5775 74.0072 43.8398 74.2022 44.1351 74.3656C44.4319 74.529 44.7458 74.6523 45.0755 74.7326C45.4052 74.8143 45.7507 74.8544 46.1134 74.8544C46.423 74.8544 46.7197 74.8258 47.0021 74.7698C47.2845 74.7125 47.554 74.6265 47.812 74.5118C48.0686 74.3971 48.3381 74.2352 48.622 74.0244C48.9029 73.8166 49.1968 73.56 49.5036 73.2575L49.5322 73.2303C50.0383 73.7521 50.5428 74.2739 51.046 74.7971L51.0173 74.8243C50.5988 75.23 50.1916 75.574 49.796 75.855C49.3989 76.1374 49.0133 76.3567 48.6392 76.5144C48.2665 76.6721 47.8665 76.7896 47.4393 76.8685C47.0136 76.9473 46.5606 76.986 46.0818 76.986C45.2002 76.986 44.3975 76.847 43.6735 76.5689C42.9496 76.2908 42.306 75.8736 41.7441 75.316C41.1821 74.7584 40.7593 74.1219 40.4769 73.408C40.1959 72.6956 40.0554 71.9043 40.0554 71.0356C40.0554 70.4737 40.1199 69.9418 40.2475 69.4401C40.3765 68.9398 40.5686 68.4697 40.8266 68.0324C41.0818 67.5952 41.3943 67.1996 41.7613 66.8484C42.1283 66.4972 42.5511 66.1875 43.0299 65.9223C43.5073 65.6557 44.0033 65.4565 44.5179 65.3231C45.0325 65.1898 45.5643 65.1239 46.1148 65.1239C46.5835 65.1239 47.0437 65.1726 47.4952 65.2715C47.9454 65.3704 48.3883 65.5181 48.8227 65.7159C49.2556 65.9123 49.6598 66.1503 50.034 66.4298C50.4081 66.7093 50.7521 67.0319 51.0661 67.3945L51.0904 67.4232L51.0603 67.4476Z" fill="black"/>
<path d="M93.639 76.7723L90.428 68.2932L87.1582 76.7723H84.8145L89.2898 65.2327H91.5318L96 76.7723H93.639Z" fill="black"/>
<path d="M82.2099 76.7723L78.9975 68.2932L75.7291 76.7723H73.3854L77.8607 65.2327H80.1027L84.5709 76.7723H82.2099Z" fill="black"/>
<path d="M67.1995 68.2932L67.9693 70.2729L68.7391 72.2525H65.6513L67.1995 68.2932ZM66.0613 65.2327L61.5859 76.7723H63.881L64.8299 74.3956H69.5647L70.4736 76.7723H72.7715L68.3033 65.2327H66.0613Z" fill="black"/>
</svg>
