<svg width="138" height="56" viewBox="0 0 138 56" fill="none" xmlns="http://www.w3.org/2000/svg">
<g clip-path="url(#clip0_2207_6328)">
<path d="M17 44C26.3888 44 34 36.3888 34 27C34 17.6112 26.3888 10 17 10C7.61116 10 0 17.6112 0 27C0 36.3888 7.61116 44 17 44Z" fill="url(#paint0_linear_2207_6328)"/>
<path fill-rule="evenodd" clip-rule="evenodd" d="M20.9285 14.3531C23.3941 14.3533 25.8043 15.0845 27.8543 16.4544C29.9043 17.8243 31.5021 19.7713 32.4456 22.0493C33.3891 24.3273 33.6359 26.8338 33.1548 29.2521C32.6737 31.6703 31.4863 33.8915 29.7429 35.635C27.9994 37.3784 25.7781 38.5656 23.3598 39.0466C20.9416 39.5276 18.435 39.2807 16.1571 38.3371C13.8791 37.3935 11.9322 35.7957 10.5624 33.7456C9.19256 31.6955 8.46143 29.2852 8.46143 26.8196C8.46143 25.1825 8.7839 23.5613 9.41043 22.0488C10.037 20.5362 10.9553 19.1619 12.113 18.0043C13.2706 16.8467 14.645 15.9284 16.1576 15.3019C17.6701 14.6755 19.2913 14.3531 20.9285 14.3531V14.3531Z" fill="url(#paint1_linear_2207_6328)"/>
<path d="M24.2765 34.753C28.583 34.753 32.074 31.2619 32.074 26.9555C32.074 22.649 28.583 19.158 24.2765 19.158C19.9701 19.158 16.479 22.649 16.479 26.9555C16.479 31.2619 19.9701 34.753 24.2765 34.753Z" fill="url(#paint2_linear_2207_6328)"/>
</g>
<path fill-rule="evenodd" clip-rule="evenodd" d="M52.2995 31.5149H50.9934V23H43.4481L40 34H52.3002L52.2995 31.5149ZM44.1447 31.5149L45.8472 25.4684H47.8865V31.5149H44.1442H44.1447ZM55.1889 33.9279H59.4943C60.7958 33.9279 61.8236 33.6435 62.5777 33.0749C63.3318 32.5063 63.7089 31.728 63.709 30.74C63.709 30.0747 63.5551 29.5335 63.2474 29.1164C62.9396 28.6992 62.4428 28.4013 61.7568 28.2225V28.148C62.265 28.0315 62.7121 27.7346 63.0128 27.3139C63.3385 26.8569 63.5057 26.3082 63.4896 25.7498C63.4896 24.8213 63.1251 24.1373 62.3962 23.6977C61.6672 23.2582 60.5511 23.0385 59.0479 23.0387H55.1891V33.9279H55.1889ZM58.1778 25.2656H59.0177C59.9559 25.2656 60.425 25.571 60.4251 26.1817C60.4349 26.3294 60.4079 26.4771 60.3466 26.6121C60.2853 26.7472 60.1914 26.8653 60.0732 26.9563C59.8386 27.1302 59.507 27.2169 59.0786 27.2165H58.1781V25.2649L58.1778 25.2656ZM59.1689 29.3699C59.6431 29.3699 60.005 29.4667 60.2548 29.6603C60.3799 29.76 60.4792 29.8876 60.5443 30.0327C60.6095 30.1778 60.6386 30.3361 60.6294 30.4945C60.6294 31.2691 60.1628 31.6564 59.2295 31.6565H58.1778V29.3699H59.1689ZM66.1661 33.9282H69.851L74.3002 26.2715H74.3601C74.2694 27.647 74.2241 28.68 74.224 29.3704V33.9287H76.8724V23.039H73.1798L68.7683 30.6956H68.7084C68.789 29.206 68.8294 28.2129 68.8294 27.7164V23.039H66.1656V33.9282H66.1661ZM78.4233 33.9282H81.7223L84.9911 28.409V33.9282H87.8741V28.409L91.1419 33.9282H94.4409L90.9297 28.2378L94.1833 23.039H90.9596L87.8725 28.3123V23.039H84.9907V28.3123L81.9264 23.039H78.7028L81.9264 28.2378L78.4233 33.9282ZM103.039 31.5298H99.4598V29.4741H102.774V27.1132H99.4598V25.4H103.039V23.039H96.4711V33.9282H103.039V31.5298H103.039ZM114.993 23.039H111.988V27.0759H108.515V23.039H105.511V33.9282H108.515V29.4891H111.988V33.9282H114.992V23.039H114.993ZM117.799 33.9282H121.484L125.934 26.2715H125.993C125.902 27.647 125.857 28.68 125.858 29.3704V33.9287H128.505V23.039H124.813L120.402 30.6956H120.342C120.423 29.206 120.463 28.2129 120.463 27.7164V23.039H117.799V33.9282H117.799ZM138 31.5298H134.42V29.4741H137.735V27.1132H134.42V25.4H138V23.039H131.431V33.9282H138V31.5298H138Z" fill="#322277"/>
<defs>
<linearGradient id="paint0_linear_2207_6328" x1="0" y1="27" x2="34" y2="27" gradientUnits="userSpaceOnUse">
<stop stop-color="#6F5896"/>
<stop offset="0.697917" stop-color="#313D82"/>
</linearGradient>
<linearGradient id="paint1_linear_2207_6328" x1="8.46143" y1="26.8196" x2="33.3944" y2="26.8196" gradientUnits="userSpaceOnUse">
<stop stop-color="#6F5896"/>
<stop offset="0.697917" stop-color="#313D82"/>
</linearGradient>
<linearGradient id="paint2_linear_2207_6328" x1="16.479" y1="26.9555" x2="32.074" y2="26.9555" gradientUnits="userSpaceOnUse">
<stop stop-color="#6F5896"/>
<stop offset="0.697917" stop-color="#313D82"/>
</linearGradient>
<clipPath id="clip0_2207_6328">
<rect width="34" height="34" fill="white" transform="translate(0 10)"/>
</clipPath>
</defs>
</svg>
