<svg width="128" height="128" viewBox="0 0 128 128" fill="none" xmlns="http://www.w3.org/2000/svg">
<path d="M6 45.0576C7.30958 45.0576 8.61916 45.0576 9.96843 45.0576C10.5405 46.4878 10.5405 46.4878 10.7758 47.2265C10.9577 47.7853 11.1543 48.328 11.3883 48.8674C11.6667 49.5444 11.8737 50.252 12.0846 50.9522C12.2272 51.4199 12.3977 51.868 12.5859 52.319C12.8704 53.0072 13.1299 53.6872 13.3402 54.4025C13.4419 54.7193 13.5625 55.0246 13.6888 55.3322C13.8552 55.7376 14.0008 56.1406 14.1206 56.5621C14.403 57.503 14.7679 58.4196 15.1212 59.3354C15.3342 59.8919 15.5291 60.4527 15.7108 61.0202C15.8014 61.3009 15.8977 61.5709 16.0197 61.8396C16.1322 62.1134 16.1322 62.1134 16.1322 62.4511C16.1879 62.4511 16.2436 62.4511 16.301 62.4511C16.301 56.7391 16.301 51.0271 16.301 45.1421C17.6385 45.1421 18.9759 45.1421 20.3539 45.1421C20.3539 54.6156 20.3539 64.0891 20.3539 73.8498C19.0722 73.8498 17.7905 73.8498 16.4699 73.8498C16.3027 73.3761 16.1355 72.9024 15.9633 72.4144C15.8628 72.1513 15.7618 71.8894 15.6572 71.6281C15.4586 71.1253 15.2763 70.621 15.1104 70.1063C15.0351 69.883 14.9501 69.6665 14.8604 69.4486C14.7518 69.1837 14.6591 68.9218 14.5807 68.6465C14.42 68.0887 14.2076 67.55 14.0002 67.0082C13.9357 66.8387 13.8724 66.6687 13.8092 66.4987C13.6944 66.1917 13.5708 65.8888 13.4461 65.5857C13.2228 65.0364 13.0325 64.4791 12.8485 63.9156C12.7201 63.5239 12.5799 63.1416 12.422 62.7608C12.228 62.272 12.0611 61.7727 11.8877 61.2764C11.5406 60.2848 11.1782 59.2988 10.8128 58.3138C10.782 58.2304 10.782 58.2304 10.7505 58.1452C10.5819 57.6912 10.4018 57.2441 10.2217 56.794C10.1939 62.4224 10.166 68.0508 10.1373 73.8498C8.77199 73.8498 7.40668 73.8498 6 73.8498C6 64.3484 6 54.8469 6 45.0576Z" fill="#5852B0"/>
<path d="M36.3965 53.416C37.8175 53.416 39.2386 53.416 40.7027 53.416C40.9842 54.2607 40.9842 54.2607 41.0354 54.6812C41.133 55.3746 41.2959 56.0494 41.4573 56.7301C41.647 57.5305 41.8228 58.3283 41.9599 59.1395C42.0829 59.8554 42.259 60.5576 42.4321 61.263C42.5781 61.8708 42.6879 62.4708 42.7699 63.0903C42.8556 63.6584 43.0028 64.2131 43.1409 64.7703C43.2799 65.3485 43.3695 65.9095 43.4046 66.5034C43.4603 66.5034 43.516 66.5034 43.5734 66.5034C43.5817 66.4478 43.59 66.3923 43.5985 66.3351C43.6929 65.7346 43.8165 65.1445 43.9512 64.5521C44.0404 64.1571 44.1201 63.7622 44.1909 63.3635C44.2743 62.9033 44.3705 62.4473 44.4745 61.9914C44.4939 61.9063 44.4939 61.9063 44.5137 61.8194C44.5792 61.533 44.6454 61.2466 44.7122 60.9605C44.828 60.4588 44.9352 59.9612 45.0085 59.4514C45.1131 58.7281 45.2946 58.0239 45.4676 57.3145C45.5836 56.8307 45.6922 56.3523 45.7608 55.8593C45.8904 55.0372 46.0909 54.2276 46.2753 53.416C47.7242 53.416 49.1731 53.416 50.6659 53.416C50.6096 53.8666 50.5571 54.222 50.4314 54.6449C50.402 54.7456 50.3726 54.8463 50.3422 54.95C50.3115 55.0533 50.2807 55.1566 50.249 55.263C50.07 55.867 49.8983 56.4631 49.7831 57.0826C49.6857 57.5436 49.543 57.9935 49.41 58.4451C49.2037 59.1551 49.006 59.8629 48.8454 60.5846C48.721 61.1343 48.5621 61.6729 48.4042 62.2138C48.2534 62.7345 48.123 63.2568 48.004 63.7856C47.8921 64.2744 47.7544 64.7534 47.6052 65.232C47.513 65.5323 47.4384 65.829 47.3806 66.1379C47.2779 66.6727 47.1207 67.1899 46.9666 67.7118C46.6949 68.6469 46.4527 69.584 46.2352 70.533C45.9776 71.6497 45.6652 72.7485 45.3466 73.8492C44.1484 73.8492 42.9503 73.8492 41.7159 73.8492C40.9362 71.2078 40.9362 71.2078 40.6695 70.0347C40.5799 69.6429 40.4778 69.261 40.3544 68.8781C40.2359 68.5106 40.1505 68.1495 40.0799 67.7699C39.9652 67.1621 39.8008 66.5756 39.6271 65.9822C39.4668 65.4333 39.3238 64.8831 39.1884 64.3275C39.0809 63.893 38.9594 63.4623 38.8398 63.031C38.7021 62.5335 38.5705 62.039 38.4704 61.5323C38.3417 60.8925 38.149 60.2731 37.9627 59.6483C37.8035 59.1101 37.6707 58.5789 37.5627 58.0282C37.4712 57.62 37.3533 57.2211 37.2356 56.8198C37.0834 56.301 36.9486 55.7944 36.8665 55.2594C36.7852 54.8529 36.6595 54.4587 36.538 54.0627C36.3965 53.6002 36.3965 53.6002 36.3965 53.416Z" fill="#9CB3FF"/>
<path d="M88.9993 47.2529C90.3368 47.2529 91.6742 47.2529 93.0522 47.2529C93.0522 49.287 93.0522 51.321 93.0522 53.4166C93.916 53.4166 94.7797 53.4166 95.6697 53.4166C95.6697 54.4755 95.6697 55.5343 95.6697 56.6252C94.8059 56.6252 93.9421 56.6252 93.0522 56.6252C93.0575 58.1753 93.0639 59.7254 93.0721 61.2756C93.0759 61.9954 93.0792 62.7152 93.0814 63.435C93.0834 64.0626 93.0862 64.6901 93.0901 65.3177C93.0921 65.6498 93.0937 65.9819 93.0942 66.3141C93.0947 66.6271 93.0964 66.9401 93.099 67.2532C93.1001 67.4219 93.0999 67.5907 93.0998 67.7594C93.107 68.4602 93.1274 69.0878 93.6169 69.6228C94.2679 70.0281 94.8959 69.9907 95.6697 70.0502C95.6697 71.3041 95.6697 72.5579 95.6697 73.8498C91.824 73.9406 91.824 73.9406 90.6771 72.9055C90.625 72.8549 90.5729 72.8043 90.5192 72.7521C90.4627 72.7059 90.4062 72.6596 90.348 72.612C89.9499 72.2643 89.7105 71.8722 89.4743 71.4065C89.4461 71.3511 89.4179 71.2957 89.3888 71.2386C88.9849 70.3973 88.9755 69.569 88.9802 68.6549C88.9802 68.5234 88.9802 68.3918 88.9801 68.2603C88.98 67.9051 88.981 67.55 88.9822 67.1949C88.9833 66.823 88.9834 66.4511 88.9836 66.0793C88.9841 65.376 88.9855 64.6727 88.9872 63.9694C88.9891 63.1683 88.99 62.3673 88.9908 61.5662C88.9926 59.9192 88.9956 58.2722 88.9993 56.6252C88.3306 56.6252 87.6619 56.6252 86.9729 56.6252C86.9729 55.5663 86.9729 54.5075 86.9729 53.4166C87.6416 53.4166 88.3103 53.4166 88.9993 53.4166C88.9993 51.3826 88.9993 49.3486 88.9993 47.2529Z" fill="#5852B0"/>
<path d="M121 53.2475C121 54.6406 121 56.0338 121 57.4692C120.805 57.4413 120.61 57.4135 120.409 57.3848C119.244 57.323 118.44 57.4967 117.409 58.0427C117.201 58.1447 117.201 58.1447 117.032 58.1447C117.032 58.2004 117.032 58.2561 117.032 58.3135C116.943 58.3788 116.943 58.3788 116.852 58.4455C116.06 59.1169 115.718 60.1979 115.613 61.2045C115.578 61.69 115.581 62.1767 115.579 62.6632C115.578 62.7856 115.577 62.908 115.576 63.0304C115.574 63.3606 115.572 63.6908 115.571 64.021C115.569 64.3668 115.567 64.7127 115.564 65.0585C115.56 65.7124 115.556 66.3664 115.553 67.0204C115.548 67.7653 115.544 68.5102 115.539 69.2551C115.53 70.7865 115.521 72.318 115.512 73.8495C114.174 73.8495 112.837 73.8495 111.459 73.8495C111.459 67.1065 111.459 60.3636 111.459 53.4163C112.796 53.4163 114.134 53.4163 115.512 53.4163C115.554 54.4612 115.554 54.4612 115.596 55.5272C115.718 55.4297 115.84 55.3322 115.966 55.2317C116.044 55.1699 116.122 55.108 116.202 55.0443C116.348 54.9264 116.492 54.8056 116.631 54.6802C117.434 53.975 118.683 53.3653 119.76 53.2791C119.869 53.2697 119.869 53.2697 119.981 53.26C120.32 53.2436 120.66 53.2475 121 53.2475Z" fill="#5852B0"/>
<path d="M52.2703 53.416C53.6356 53.416 55.0009 53.416 56.4076 53.416C56.4094 56.0176 56.411 58.6193 56.4119 61.2209C56.412 61.5277 56.4121 61.8345 56.4122 62.1414C56.4122 62.2024 56.4122 62.2635 56.4123 62.3265C56.4126 63.3168 56.4133 64.3072 56.4141 65.2976C56.4149 66.3131 56.4153 67.3286 56.4155 68.344C56.4156 68.9147 56.4159 69.4854 56.4165 70.0561C56.4171 70.5926 56.4172 71.129 56.4171 71.6655C56.4171 71.863 56.4173 72.0605 56.4176 72.2581C56.418 72.5265 56.4179 72.7949 56.4177 73.0633C56.418 73.1425 56.4182 73.2218 56.4185 73.3035C56.4172 73.8395 56.4172 73.8395 56.3231 73.9336C54.9857 73.9336 53.6482 73.9336 52.2703 73.9336C52.2703 67.1628 52.2703 60.392 52.2703 53.416Z" fill="#5852B0"/>
<path d="M42.9128 45.474C44.9552 45.4184 46.9863 45.6213 48.999 45.9504C49.1907 45.9797 49.3805 46.0036 49.5735 46.0214C50.6765 46.1267 51.7239 46.5 52.7768 46.8302C52.7303 47.2921 52.6448 47.6962 52.4971 48.1389C52.3204 48.6785 52.1725 49.2199 52.0459 49.7735C51.9817 50.0461 51.9212 50.2243 51.7635 50.4608C51.7113 50.4365 51.659 50.4121 51.6052 50.387C51.3911 50.3099 51.2094 50.2636 50.9878 50.2234C50.6481 50.1598 50.3208 50.0748 49.9896 49.9777C45.615 48.7029 40.8377 48.9992 36.4645 50.0915C35.9924 50.2093 35.5295 50.3229 35.0455 50.3764C34.777 49.6106 34.5479 48.8489 34.3611 48.0594C34.2908 47.7613 34.2908 47.7613 34.1916 47.4875C34.1167 47.2523 34.1167 47.2523 34.1167 46.9146C35.4559 46.4852 36.7653 46.1225 38.161 45.9364C38.4586 45.8966 38.756 45.855 39.0535 45.8137C40.3404 45.6369 41.614 45.511 42.9128 45.474Z" fill="#9CB3FF"/>
<path fill-rule="evenodd" clip-rule="evenodd" d="M100.736 53.5011C102.993 52.7809 105.544 53.2613 107.332 54.7892C108.248 55.637 108.779 56.6646 108.95 57.8937C108.963 57.9892 108.977 58.0853 108.992 58.1837C109.128 59.2014 109.142 60.2112 109.136 61.2365C109.136 61.435 109.137 61.6336 109.137 61.8322C109.137 62.2445 109.136 62.6571 109.134 63.0695C109.132 63.5925 109.132 64.1158 109.133 64.6388C109.134 65.0477 109.133 65.4565 109.132 65.8654C109.132 66.058 109.132 66.2508 109.132 66.4435C109.134 68.8003 108.987 70.7771 107.328 72.5812C107.043 72.8591 106.738 73.0622 106.393 73.2589C106.307 73.3095 106.221 73.3601 106.132 73.4122C104.576 74.2651 102.547 74.3445 100.848 73.8712C99.2989 73.3009 98.1689 72.3522 97.4584 70.8576C96.9847 69.8225 96.8395 68.79 96.8383 67.6622C96.8378 67.5681 96.8367 67.474 96.8363 67.3771C96.8351 67.0661 96.8348 66.7545 96.8344 66.4435C96.8339 66.2262 96.8339 66.0085 96.8334 65.7911C96.8326 65.3937 96.8317 64.9962 96.8314 64.5988C96.831 64.017 96.83 63.4344 96.8275 62.8527C96.8255 62.346 96.8247 61.8389 96.8246 61.3322C96.8243 61.1183 96.8237 60.9044 96.8226 60.6906C96.8157 59.2498 96.8126 57.8696 97.4428 56.5411C97.473 56.4723 97.5034 56.4031 97.5345 56.3322C98.1844 54.9234 99.3336 54.0795 100.736 53.5011ZM103.96 57.4611C103.397 57.211 102.716 57.1976 102.139 57.4005C102.064 57.4525 101.99 57.5034 101.917 57.5538C101.659 57.7278 101.659 57.7286 101.533 57.84C101.095 58.3315 100.941 58.8935 100.935 59.5382C100.936 59.628 100.938 59.7157 100.939 59.8029C100.938 60.1011 100.937 60.3992 100.939 60.6974C100.941 60.9102 100.942 61.1233 100.943 61.3361C100.943 61.838 100.943 62.34 100.947 62.8419C100.95 63.3621 100.953 63.8823 100.953 64.4025C100.954 64.854 100.954 65.3064 100.955 65.7579C100.956 65.973 100.957 66.1884 100.957 66.4035C100.958 66.7127 100.959 67.0219 100.961 67.3312C100.962 67.4274 100.963 67.521 100.963 67.6144C100.963 67.7493 100.963 67.7496 100.963 67.882C100.964 67.9653 100.965 68.0462 100.966 68.1271C100.967 68.3552 100.977 68.5034 101.069 68.713C101.099 68.7657 101.128 68.8171 101.158 68.8683C101.264 69.0686 101.378 69.2551 101.505 69.4425C101.837 69.8288 102.251 70.0172 102.752 70.0812C103.468 70.0986 103.908 69.939 104.456 69.4884C104.87 68.9868 104.996 68.4617 105.002 67.8214C105.001 67.7309 105 67.6426 104.999 67.5548C105.001 67.2548 105.003 66.9545 105.001 66.6544C105 66.4403 104.999 66.226 104.999 66.0119C105 65.5062 105 64.9999 104.997 64.4943C104.995 63.9708 104.995 63.4474 104.995 62.924C104.996 62.4697 104.996 62.015 104.995 61.5607C104.995 61.3438 104.995 61.1262 104.995 60.9093C104.995 60.5984 104.995 60.2876 104.994 59.9767C104.993 59.8795 104.992 59.7849 104.992 59.6906C104.993 59.3706 104.994 59.0546 104.957 58.7365C104.792 58.1752 104.458 57.7646 103.96 57.4611Z" fill="#5852B0"/>
<path fill-rule="evenodd" clip-rule="evenodd" d="M60.7335 53.9405C62.2918 52.8551 64.7589 52.9042 66.1729 54.1837C66.302 54.3034 66.4295 54.4253 66.5567 54.547C66.7667 54.7438 66.9902 54.9258 67.2149 55.1056V53.4171H71.3526C71.3602 56.4503 71.3666 59.4835 71.3702 62.5167C71.3706 62.8753 71.3707 63.2343 71.3711 63.5929C71.3712 63.6641 71.3711 63.7353 71.3711 63.8087C71.3726 64.9626 71.3759 66.1167 71.379 67.2706C71.3821 68.4557 71.3832 69.6412 71.3838 70.8263C71.3843 71.5567 71.386 72.2872 71.3887 73.0177C71.3905 73.5193 71.3911 74.0209 71.3907 74.5226C71.3905 74.8115 71.3908 75.1008 71.3926 75.3898C71.4004 76.8371 71.3779 78.1234 70.6563 79.4171C70.6236 79.4773 70.5903 79.5377 70.5567 79.5997C70.2941 80.066 69.9882 80.4276 69.5792 80.7736C69.5205 80.8348 69.4618 80.896 69.4014 80.9591C69.2415 81.1111 69.2412 81.1114 69.0723 81.1114V81.2804C67.8506 82.2604 66.0296 82.5126 64.5137 82.378C64.0513 82.3071 63.6083 82.1786 63.1622 82.0402C63.0781 82.0168 62.9939 81.993 62.9073 81.9689C61.4927 81.5296 60.5668 80.3836 59.8819 79.1378C59.4383 78.28 59.1095 77.2728 59.1094 76.2989H63.2471C63.3724 76.7165 63.3723 76.7168 63.5001 77.1427C63.775 77.5799 64.1616 77.9648 64.6651 78.1173C65.3327 78.2555 65.9389 78.2027 66.5342 77.8663C66.8903 77.5971 67.0459 77.2391 67.1309 76.8058C67.1382 76.6511 67.141 76.4958 67.1407 76.3409C67.1407 76.248 67.1407 76.1545 67.1407 76.0587C67.14 75.9094 67.1394 75.9092 67.1387 75.757C67.1386 75.6544 67.1388 75.5511 67.1387 75.4454C67.1383 75.1177 67.1369 74.7897 67.1358 74.462C67.1354 74.24 67.1352 74.018 67.1348 73.796C67.1339 73.2513 67.1327 72.706 67.1309 72.1612C67.0762 72.2234 67.0213 72.2857 66.9649 72.3497C66.0435 73.3818 65.1837 74.0391 63.754 74.1232C62.4516 74.1607 61.3586 73.9465 60.3848 73.0314C58.8677 71.3736 59.0699 68.8683 59.0782 66.7745C59.0792 66.4676 59.0793 66.1606 59.0792 65.8536C59.0791 65.3391 59.0795 64.8242 59.0811 64.3097C59.0829 63.7191 59.0836 63.1278 59.0831 62.5372C59.0826 61.9628 59.0831 61.3881 59.084 60.8136C59.0844 60.5721 59.0842 60.3305 59.084 60.089C59.0835 58.8404 59.0954 57.6092 59.2784 56.3722C59.2906 56.2848 59.3029 56.1975 59.3155 56.1075C59.4482 55.2237 60.0492 54.4908 60.7335 53.9405ZM66.1075 57.4698C65.276 57.0562 64.4417 57.2534 63.7745 57.8448C63.1927 58.649 63.1923 58.6496 63.2032 61.0431C63.2042 61.2426 63.2051 61.4422 63.2051 61.6417C63.2047 62.0603 63.2046 62.479 63.2061 62.8976C63.2086 63.4394 63.21 63.9817 63.209 64.5236C63.2082 64.948 63.2083 65.3725 63.209 65.797C63.2095 65.9997 63.2096 66.2027 63.21 66.4054C63.2095 66.6952 63.2095 66.9856 63.211 67.2755C63.2116 67.3661 63.2124 67.4541 63.2129 67.5421C63.209 68.3823 63.3078 68.9994 63.9219 69.628C64.2863 69.9299 64.5426 70.0063 65.001 70.004C65.0702 70.0019 65.138 70.0002 65.2051 69.9982C65.8342 69.9971 66.1572 69.878 66.6348 69.4552C67.095 68.9763 67.2627 68.4046 67.2706 67.754C67.2694 67.6681 67.2688 67.5845 67.2676 67.5011C67.2691 67.2148 67.2695 66.928 67.2676 66.6417C67.2661 66.4374 67.2658 66.2327 67.2657 66.0284C67.266 65.601 67.2649 65.1736 67.2627 64.7462C67.2593 64.1919 67.2574 63.6374 67.2579 63.0831C67.2584 62.6496 67.258 62.2158 67.2569 61.7823C67.2562 61.5752 67.2555 61.3674 67.2549 61.1603C67.255 60.8638 67.255 60.5671 67.253 60.2706C67.2522 60.1778 67.2517 60.0873 67.251 59.9972C67.2519 59.6874 67.2505 59.3823 67.2149 59.0743C67.0311 58.4042 66.6973 57.8493 66.1075 57.4698Z" fill="#5852B0"/>
<path fill-rule="evenodd" clip-rule="evenodd" d="M80.5559 53.248C80.6425 53.2484 80.7293 53.2485 80.8186 53.249C82.1656 53.3062 83.512 54.0814 84.4397 55.0215C85.5634 56.2534 85.9711 57.8391 85.9699 59.4726C85.9701 59.5653 85.9698 59.5654 85.9699 59.6601C85.9701 59.8657 85.9694 60.0717 85.969 60.2773C85.9689 60.4253 85.9689 60.5736 85.969 60.7216C85.969 61.1224 85.9686 61.5231 85.968 61.9238C85.9675 62.3432 85.9681 62.7632 85.968 63.1826C85.9677 63.9761 85.9669 64.77 85.966 65.5634C85.9651 66.4671 85.9645 67.3708 85.9641 68.2744C85.9632 70.1328 85.962 71.9912 85.9602 73.8496H81.9065V71.7392H81.7385C81.7184 71.7849 81.6977 71.8308 81.677 71.8779C81.2059 72.7479 80.3695 73.546 79.4582 73.9345C78.2154 74.2462 76.6747 74.2695 75.5373 73.6181C75.407 73.5298 75.2785 73.4382 75.1526 73.3437C75.0929 73.3003 75.0324 73.2566 74.9709 73.2119C73.9251 72.3795 73.6449 71.1943 73.4114 69.9394C73.2657 68.5375 73.358 67.123 73.6321 65.7441C73.6503 65.6463 73.6689 65.548 73.6877 65.4472C73.9026 64.4485 74.4384 63.4496 75.2961 62.8584C75.6325 62.6476 75.9805 62.4619 76.3342 62.2822C76.387 62.2535 76.4399 62.2249 76.4944 62.1953C78.0594 61.4742 80.2426 61.7028 81.9065 61.8603C81.9027 61.4804 81.8967 61.1005 81.8889 60.7207C81.8865 60.5919 81.8852 60.4627 81.884 60.334C81.8856 59.0623 81.8852 59.0623 81.3205 57.958C80.7875 57.4505 80.275 57.3384 79.551 57.3545C78.8465 57.4381 78.3785 57.824 77.9123 58.333C77.7061 58.6485 77.7057 58.6494 77.5158 59.4121H73.5481C73.5481 57.7988 73.966 56.3989 75.0676 55.1894C75.1546 55.0924 75.1546 55.0922 75.2434 54.9931C75.6735 54.5374 76.1194 54.2154 76.6721 53.9238C76.7447 53.8847 76.817 53.845 76.8918 53.8047C78.0716 53.1897 79.2584 53.2257 80.5559 53.248ZM81.9074 65.0683C80.7189 64.9158 79.2891 64.7827 78.3528 65.6543C77.78 66.2488 77.5699 66.8252 77.5705 67.6484C77.5719 67.7221 77.5731 67.7937 77.5744 67.8652C77.5712 68.7153 77.7075 69.3908 78.2766 70.0498C78.6992 70.4307 79.1151 70.5017 79.675 70.5195C80.3923 70.4915 80.7963 70.3443 81.2951 69.834C81.968 68.9703 81.9681 68.9698 81.9328 66.9814C81.9299 66.8199 81.9277 66.6576 81.926 66.4961C81.922 66.0201 81.9159 65.5442 81.9074 65.0683Z" fill="#5852B0"/>
<path fill-rule="evenodd" clip-rule="evenodd" d="M25.3357 54.2614C27.7866 52.9652 30.8271 52.653 33.1726 54.443C34.3332 55.4403 35.084 56.7943 35.2986 58.3141C35.3107 58.5661 35.3161 58.818 35.3181 59.07V60.2858C35.3182 60.6998 35.3174 61.1139 35.3162 61.528C35.3151 61.9612 35.3144 62.3945 35.3142 62.8278C35.3137 63.6476 35.313 64.4679 35.3113 65.2877C35.3094 66.2215 35.3082 67.1557 35.3074 68.0895C35.3056 70.0094 35.3022 71.9293 35.2986 73.8493H31.2459C31.218 73.1807 31.1906 72.5117 31.1619 71.8229C31.0078 72.0188 31.0076 72.0195 30.8504 72.2194C30.6026 72.5284 30.3558 72.8203 30.0642 73.0895C30.0183 73.1319 29.9719 73.1747 29.9246 73.2184C29.6237 73.4878 29.3403 73.6867 28.9666 73.8493C28.9022 73.8806 28.8376 73.9127 28.7713 73.945C27.6369 74.3143 26.1326 74.211 25.0613 73.7077C23.8577 73.0556 23.2897 72.025 22.8982 70.7379C22.7213 70.0373 22.679 69.364 22.6853 68.6461C22.6867 68.4628 22.685 68.2796 22.6834 68.0963C22.6817 67.0134 22.8252 65.9446 23.1931 64.9205C23.214 64.8619 23.2351 64.8033 23.2566 64.7428C23.4786 64.16 23.8041 63.6602 24.2381 63.2106C24.3631 63.1689 24.3634 63.1691 24.491 63.1266V62.9577C24.6789 62.8483 24.8672 62.7392 25.0554 62.6305C25.1347 62.5843 25.1349 62.5838 25.2156 62.5368C26.9519 61.5368 29.2319 61.657 31.1619 61.86C31.1682 61.4907 31.1725 61.121 31.1756 60.7516C31.1768 60.6266 31.1782 60.5016 31.1804 60.3766C31.1959 59.4754 31.2122 58.5153 30.5701 57.8073C29.9835 57.3877 29.4206 57.2981 28.7127 57.3854C28.1573 57.4941 27.7298 57.8055 27.3621 58.2291C27.1966 58.5014 27.0664 58.7818 26.9402 59.0739L26.7713 59.4118H22.8865C22.8865 58.7281 22.908 58.2612 23.1082 57.6383C23.1311 57.565 23.1549 57.4912 23.1785 57.4157C23.3588 56.8591 23.579 56.3559 23.9002 55.8649C23.9461 55.7917 23.9925 55.7187 24.0398 55.6432C24.3516 55.1695 24.6976 54.7551 25.1668 54.4293H25.3357V54.2614ZM31.2459 65.068C30.0828 64.9197 28.6189 64.8008 27.7 65.6598C27.1284 66.2314 26.925 66.8339 26.905 67.6354C26.9044 67.7117 26.9037 67.7859 26.9031 67.86C26.8951 68.5217 26.9953 69.0784 27.3015 69.6696C27.6171 70.1005 27.9325 70.353 28.4597 70.4723C29.2725 70.5334 29.8497 70.5087 30.4861 69.9655C31.2947 69.1212 31.2951 69.1212 31.2654 66.9391C31.2632 66.7812 31.2608 66.6234 31.2595 66.4655C31.2565 65.9999 31.2522 65.5335 31.2459 65.068Z" fill="#5852B0"/>
</svg>
