<svg width="128" height="128" viewBox="0 0 128 128" fill="none" xmlns="http://www.w3.org/2000/svg">
<path d="M9.69771 53.0685C8.77731 53.1478 7.79344 53.243 7.52367 53.2906L7 53.3859V63.4467V73.5234H10.0151H13.0302V71.159V68.8104L15.2994 68.7152C17.8702 68.62 19.1556 68.3343 20.6472 67.5567C23.9956 65.8112 25.4396 62.1455 24.3764 58.0513C23.2815 53.8778 18.7906 52.3544 9.69771 53.0685ZM16.8863 57.2261C18.5684 58.2259 19.1873 60.3999 18.3938 62.5263C17.7432 64.3036 16.3944 65.1129 14.1093 65.1129H13.0302V60.8918V56.6548L14.6012 56.7342C15.9342 56.7977 16.2833 56.877 16.8863 57.2261Z" fill="#5852B0"/>
<path d="M89.2006 53.0526C88.2802 53.1319 87.2964 53.243 87.0266 53.2906L86.5029 53.3858V63.4467V73.5234H89.518H92.5331V71.1748V68.8104L94.8817 68.7152C98.4681 68.5565 100.436 67.8424 102.102 66.0809C103.721 64.383 104.197 62.9072 104.086 59.9873C104.022 58.2259 103.99 58.083 103.403 56.9405C103.07 56.274 102.515 55.4964 102.165 55.179C101.356 54.4332 99.5789 53.608 98.0872 53.2748C96.6907 52.9733 91.8031 52.8463 89.2006 53.0526ZM96.4051 57.242C96.8177 57.48 97.3414 57.9719 97.5794 58.3211C97.9602 58.9082 98.0079 59.1621 98.0555 60.5268C98.1031 61.9074 98.0713 62.1772 97.7222 62.9389C97.0557 64.4147 95.7227 65.1129 93.6122 65.1129H92.5331V60.8918V56.6548L94.1041 56.7342C95.4371 56.7977 95.7862 56.877 96.4051 57.242Z" fill="#5852B0"/>
<path d="M112.131 53.0372C111.116 53.2118 109.418 53.7831 108.783 54.1798C108.513 54.3385 107.974 54.8145 107.577 55.243C105.673 57.2742 105.688 60.7495 107.577 62.7807C108.497 63.7487 109.719 64.4311 112.211 65.3515C114.559 66.2084 115.115 66.5099 115.559 67.2081C115.956 67.8429 115.876 68.6363 115.353 69.1917C114.924 69.6519 113.686 70.0328 112.655 70.0328C111.401 70.0328 108.1 69.398 106.831 68.9061C106.18 68.6522 105.609 68.4776 105.577 68.5252C105.546 68.557 105.593 68.9378 105.673 69.3504C105.768 69.763 105.926 70.7628 106.038 71.5562L106.228 73.0161L106.799 73.1907C108.053 73.5557 111.258 74 112.734 74C114.67 74 117.162 73.5081 118.479 72.8892C122.192 71.1119 123.192 66.1925 120.399 63.4631C119.59 62.6855 117.955 61.8286 115.813 61.0669C113.797 60.3528 113.131 60.0037 112.623 59.4006C112.147 58.8294 112.115 58.4644 112.449 57.8138C112.845 57.0521 113.782 56.7982 115.987 56.8934C117.622 56.9727 119.955 57.417 120.51 57.7662C120.605 57.8296 120.637 57.6075 120.558 57.1631C120.51 56.7823 120.383 55.8302 120.288 55.0367C120.193 54.2591 120.097 53.5926 120.066 53.5609C119.653 53.1324 113.845 52.7516 112.131 53.0372Z" fill="#5852B0"/>
<path d="M27.1536 63.4467V73.5234H30.248H33.3424V69.5562V65.589H36.5955H39.8487V69.5562V73.5234H42.9431H46.0375V63.4467V53.37H42.9431H39.8487V57.4165V61.4631H36.5955H33.3424V57.4165V53.37H30.248H27.1536V63.4467Z" fill="#5852B0"/>
<path d="M50.6394 63.4467V73.5234H53.6545H56.6696V63.4467V53.37H53.6545H50.6394V63.4467Z" fill="#5852B0"/>
<path d="M61.4302 63.4467V73.5234H66.9684H72.4908L72.8399 71.8889C73.0303 70.9844 73.2207 70.0958 73.2842 69.9053L73.3636 69.5562H70.412H67.4603V61.4631V53.37H64.4453H61.4302V63.4467Z" fill="#5852B0"/>
<path d="M75.7122 63.4467V73.5234H78.7272H81.7423V63.4467V53.37H78.7272H75.7122V63.4467Z" fill="#5852B0"/>
</svg>
