<svg width="128" height="128" viewBox="0 0 128 128" fill="none" xmlns="http://www.w3.org/2000/svg">
<path fill-rule="evenodd" clip-rule="evenodd" d="M74.8452 41.1643C80.0526 41.1504 80.0533 41.1505 82.0991 41.8655C82.209 41.9023 82.3189 41.9389 82.4321 41.9768C83.8731 42.4718 84.9593 43.1284 86.1235 44.1126C86.2391 44.2013 86.355 44.2897 86.4741 44.3811C89.2622 46.7031 90.7716 50.9375 91.1001 54.4642C91.4129 59.5699 90.6742 64.6314 87.1948 68.6058C84.9549 71.0992 82.073 72.3265 78.7681 72.7044C78.041 72.7387 77.315 72.7364 76.5874 72.7308C76.4092 72.7305 76.231 72.731 76.0474 72.7308C75.3898 72.7293 74.7323 72.7256 74.0747 72.722C71.8633 72.7134 71.863 72.7132 69.6069 72.7044V87.2776H62.3901V48.4143H45.7339V87.2776H38.5171V41.1976C45.0153 41.1918 51.5134 41.1859 58.2085 41.18C60.2581 41.1774 62.3077 41.1748 64.4194 41.1722C66.9276 41.1709 66.928 41.1714 68.103 41.1712C68.9216 41.1709 69.7405 41.1698 70.5591 41.1683C71.5049 41.1665 72.4511 41.1659 73.397 41.1663C73.8797 41.1665 74.3625 41.1659 74.8452 41.1643ZM76.6011 48.3733C76.2297 48.3742 75.8582 48.376 75.4868 48.3772C75.0097 48.3811 74.5466 48.3842 74.0835 48.388C72.5616 48.3968 71.0841 48.4058 69.6069 48.4143V65.4866C72.7989 65.4866 78.9255 66.5826 82.0991 63.9593C83.698 62.2909 84.4981 60.06 84.6157 57.7747C84.6941 55.112 84.3681 52.3501 82.4712 50.3226C82.3917 50.2402 82.3149 50.1594 82.2378 50.0794C82.123 49.9498 82.0113 49.8243 81.8999 49.6985C80.5172 48.4845 78.6494 48.3511 76.8862 48.3704C76.7894 48.3715 76.6951 48.3722 76.6011 48.3733Z" fill="#5852B0"/>
<path d="M22 26C49.39 26 76.78 26 105 26C105 51.2357 105 76.4715 105 102.472C77.61 102.472 50.22 102.472 22 102.472C22 77.2362 22 52.0005 22 26ZM28.6622 32.4397C28.6622 53.4252 28.6622 74.4108 28.6622 96.0322C51.6552 96.0322 74.6481 96.0322 98.3378 96.0322C98.3378 75.0467 98.3378 54.0612 98.3378 32.4397C75.3449 32.4397 52.3519 32.4397 28.6622 32.4397Z" fill="#5852B0"/>
</svg>
