<svg width="100" height="100" viewBox="0 0 100 100" fill="none" xmlns="http://www.w3.org/2000/svg">
<path d="M3 41.8106V42.9929H4.18234H5.36468V41.8106V40.6282H4.18234H3V41.8106Z" fill="black"/>
<path d="M6.56964 41.8106L5.39185 42.9884L8.25219 43.0021C11.0534 43.0157 11.1216 43.0157 11.3263 43.1112C11.6128 43.2476 11.8538 43.4705 11.9947 43.7388L12.1175 43.9707L12.1312 48.8683L12.1403 53.7704H13.3453H14.5504V48.9138C14.5504 45.7806 14.5322 43.957 14.5004 43.7706C14.3003 42.511 13.409 41.4059 12.213 40.9193C11.5855 40.6647 11.2444 40.6283 9.3936 40.6283H7.75197L6.56964 41.8106Z" fill="black"/>
<path d="M17.7336 49.8141V59H18.8932H20.0528V56.3852V53.775L24.3184 53.7613C28.9795 53.7431 28.6839 53.7613 29.3842 53.4794C30.462 53.0428 31.2896 52.0879 31.6125 50.9055L31.7171 50.519V47.1994C31.7171 43.9434 31.7171 43.8706 31.617 43.5159C31.2123 42.0062 30.0254 40.9239 28.502 40.6738C28.3201 40.6465 26.3192 40.6283 22.9769 40.6283H17.7336V49.8141ZM28.6021 43.2021C28.8704 43.3522 29.1387 43.666 29.2432 43.9388C29.3251 44.1617 29.3615 49.7687 29.2842 50.2234C29.1978 50.7236 28.9568 51.0329 28.4884 51.2511L28.261 51.3603H24.1592H20.0528V47.1994V43.0384L24.2047 43.0475L28.3519 43.0612L28.6021 43.2021Z" fill="black"/>
<path d="M37.5017 40.7011C36.092 40.9603 34.9506 41.9971 34.5504 43.3886C34.4458 43.7433 34.4458 43.7433 34.4458 47.1994C34.4458 50.6554 34.4458 50.6554 34.5504 51.0101C34.9642 52.4426 36.142 53.484 37.6154 53.725C37.7927 53.7523 39.2525 53.7704 41.4307 53.7704C45.3279 53.7704 45.3824 53.7659 46.0645 53.4885C47.2878 52.9837 48.1382 51.9287 48.361 50.6418C48.4247 50.2871 48.4292 49.7778 48.4156 47.0084C48.3974 43.3613 48.4156 43.5478 48.0199 42.7429C47.6334 41.9471 47.0422 41.3695 46.2464 41.0012C45.4597 40.6374 45.7189 40.6556 41.5626 40.6465C38.5203 40.6374 37.7927 40.6465 37.5017 40.7011ZM45.2233 43.1658C45.5461 43.3204 45.7917 43.5751 45.9099 43.8843C45.9918 44.0935 45.9963 44.2754 45.9963 47.2221V50.3371L45.8917 50.569C45.769 50.8419 45.5325 51.0829 45.246 51.233L45.0414 51.3376L41.4853 51.3512C37.9792 51.3603 37.9291 51.3603 37.679 51.2693C37.3471 51.142 37.0515 50.8464 36.9287 50.519C36.8378 50.2735 36.8332 50.1871 36.8332 47.1994C36.8332 44.2435 36.8378 44.1253 36.9242 43.8888C37.0424 43.5751 37.3653 43.2522 37.6699 43.134C37.8928 43.0476 38.0428 43.043 41.4261 43.043L44.9504 43.0385L45.2233 43.1658Z" fill="black"/>
<path d="M51.2031 47.1994V53.7704H52.3855H53.5678V48.3817V42.993H55.7278H57.8879V48.3817V53.7704H59.0702H60.2526V48.3772V42.9884L61.9033 43.0021C63.5085 43.0157 63.554 43.0203 63.7814 43.1203C64.0724 43.2522 64.3544 43.5387 64.4908 43.8343L64.5954 44.0616L64.609 48.9138L64.6227 53.7704H65.805H66.9873L66.9691 48.8228C66.951 43.3613 66.9691 43.6887 66.6599 42.9384C66.287 42.0289 65.4276 41.2104 64.4999 40.8739C63.8178 40.6238 63.9223 40.6283 57.3149 40.6283H51.2031V47.1994Z" fill="black"/>
<path d="M69.6204 41.8289V43.0385L73.704 43.0476L77.783 43.0613L77.9877 43.1658C78.2742 43.3159 78.5106 43.5569 78.6334 43.8298C78.7289 44.048 78.738 44.1299 78.7516 45.094L78.7653 46.1308H76.5007H74.236L73.0537 47.3131L71.8714 48.4955H75.3183H78.7653L78.7516 49.414C78.738 50.2735 78.7289 50.3554 78.6289 50.5782C78.5652 50.7192 78.4333 50.8965 78.3015 51.0147C77.8967 51.3785 78.1514 51.3604 73.6358 51.3604H69.6204V52.5654V53.7751L73.8404 53.7614L78.0559 53.7478L78.3879 53.6432C79.7294 53.2339 80.6616 52.2926 81.0436 50.9738L81.1482 50.61V47.1994C81.1482 44.0253 81.1436 43.7707 81.0663 43.4933C80.7343 42.3291 80.034 41.4878 78.9836 40.9967C78.2196 40.6375 78.5106 40.6556 73.8177 40.642L69.6204 40.6238V41.8289Z" fill="black"/>
<path d="M84.4449 47.1994V53.7704H85.6273H86.8096V51.1329V48.4909L89.7109 48.5045L92.6076 48.5181L92.7986 48.6227C93.0988 48.7819 93.2988 48.982 93.4353 49.2594L93.5626 49.5186L93.5762 51.6422L93.5899 53.7704H94.795H96L95.9818 51.5286C95.9636 49.1048 95.9591 49.0775 95.6953 48.4499C95.2679 47.4449 94.4675 46.6901 93.4625 46.3354C92.9623 46.1626 92.6486 46.1307 91.3707 46.1307C90.7113 46.1307 90.1747 46.1171 90.1747 46.0989C90.1747 46.0762 91.398 44.8392 92.8896 43.3477L95.6089 40.6283H93.9491H92.2893L89.5517 43.3659L86.8096 46.108V43.3659V40.6283H85.6273H84.4449V47.1994Z" fill="black"/>
<path d="M4.1687 44.2117L3 45.3804V49.5777V53.7704H4.18234H5.36468V48.4045C5.36468 45.4532 5.36013 43.0385 5.35103 43.0385C5.34649 43.0385 4.81443 43.566 4.1687 44.2117Z" fill="black"/>
</svg>
