<svg width="100" height="100" viewBox="0 0 100 100" fill="none" xmlns="http://www.w3.org/2000/svg">
<path d="M38.8333 18.9424C38.5812 18.287 37.8852 17.5611 37.2296 17.2687L36.7052 17.0267L28.2329 17.0066C23.4925 16.9965 19.5892 17.0368 19.3774 17.0872C18.4595 17.309 17.6728 17.9543 17.2694 18.8415L17.0374 19.3456L17.0071 27.7138C16.987 33.8941 17.0071 36.2231 17.0979 36.6364C17.3299 37.7454 18.2881 38.7335 19.3572 38.9553C19.7001 39.0259 22.6452 39.0561 28.3338 39.036L36.806 39.0057L37.27 38.7738C37.9155 38.4613 38.45 37.9168 38.7627 37.2514L39.0249 36.6868V28.0666C39.0249 19.8094 39.0148 19.4263 38.8333 18.9424Z" fill="black"/>
<path d="M82.8084 18.9424C82.5562 18.287 81.8603 17.5611 81.2047 17.2687L80.6802 17.0267L71.3506 17.0066C61.2041 16.9864 61.3756 16.9763 60.5586 17.551C60.3065 17.7325 50.523 27.4516 38.8131 39.1771C21.4753 56.5183 17.4711 60.5713 17.2795 60.9847L17.0374 61.4888L17.0071 70.7643C16.987 77.6403 17.0071 80.181 17.0979 80.5943C17.3299 81.7034 18.2881 82.6914 19.3572 82.9132C19.7001 82.9838 22.6452 83.014 28.3338 82.9939L36.806 82.9636L37.2901 82.7116C37.9558 82.3789 38.45 81.8748 38.7627 81.2093L39.0249 80.6447L39.0754 71.9237L39.0756 71.8823C39.1258 63.263 39.1262 63.202 39.3477 62.7289C39.6402 62.0937 40.2857 61.4888 40.9514 61.2367C41.496 61.0351 41.617 61.0351 60.8713 61.0351C75.2842 61.0351 80.3575 61.0048 80.7105 60.9141C81.6384 60.6923 82.3041 60.1277 82.7378 59.2203L83 58.6658V39.0561C83 19.9707 82.9899 19.4364 82.8084 18.9424Z" fill="black"/>
</svg>
