<svg width="100" height="100" viewBox="0 0 100 100" fill="none" xmlns="http://www.w3.org/2000/svg">
<path d="M47.4788 14.2927C45.6378 14.6884 45.5295 14.7244 32.3892 22.1357C26.4328 25.5176 20.8373 28.8635 19.971 29.619C18.9602 30.4825 17.9855 31.8496 17.2635 33.3247L16.1444 35.6992L16.0361 48.4351C15.9639 55.4507 16 61.5669 16.1444 62.0346L16.3249 62.8621H36.8295H57.2979L59.2834 61.9266C61.7382 60.8114 63.7598 58.9046 64.9149 56.674C65.3842 55.7385 65.7813 54.8751 65.7813 54.7672C65.7813 54.6592 56.5398 54.5873 45.2768 54.5873C33.9776 54.5873 24.6639 54.5153 24.5917 54.4434C24.5195 54.3714 24.5195 51.9609 24.6278 49.1187C24.8444 44.0099 24.8444 43.938 26.1801 41.4555C27.949 38.1097 29.9705 35.8431 33.039 33.7204C38.0929 30.1587 36.7573 30.3385 59.8971 30.1227L80.1851 29.9428L78.3079 28.5757C77.2971 27.8201 71.5934 24.4383 65.673 21.0924C53.1465 14.0048 51.7386 13.4652 47.4788 14.2927Z" fill="black"/>
<path d="M40.6199 39.2969C39.6091 39.8006 38.1291 40.9519 37.3349 41.7793C35.7826 43.4703 34.2664 46.0966 34.6274 46.4564C34.7718 46.5643 44.1216 46.6723 55.4208 46.6723H75.9975L75.817 51.4213C75.6004 56.9978 75.095 58.6887 72.4959 62.3224C70.5104 65.0927 67.3697 67.719 64.0486 69.374L61.6299 70.5972L40.7643 70.7771L19.8627 70.957L20.7291 71.7125C22.2813 73.1156 24.8083 74.6626 33.6527 79.6275C46.8652 87.0748 46.2154 86.787 50.078 86.787C53.7602 86.751 53.6519 86.787 62.1714 81.9301C64.8428 80.419 69.7162 77.6488 73.0013 75.8139C79.3909 72.2162 81.3042 70.6332 82.7842 67.683L83.6506 65.9201L83.7589 52.1408L83.8672 38.3975H63.1822H42.461L40.6199 39.2969Z" fill="black"/>
</svg>
