<svg width="128" height="128" viewBox="0 0 128 128" fill="none" xmlns="http://www.w3.org/2000/svg">
<path d="M12.9006 54.7878C9.69009 55.1108 7.42442 56.8077 7.04359 59.1794C6.95682 59.7193 7.00503 60.8666 7.14 61.3583C7.37139 62.2067 7.79078 62.9105 8.46084 63.5758C9.30445 64.4145 9.93594 64.7664 12.5101 65.8655C13.5128 66.2898 14.4769 66.714 14.6553 66.8056C15.3012 67.1334 15.6242 67.5576 15.6242 68.083C15.6242 68.6759 15.3302 69.1194 14.7421 69.4038C14.2022 69.669 13.7731 69.7365 12.6837 69.7365C11.5219 69.7365 10.471 69.6063 9.26106 69.3074C8.92844 69.2255 7.53529 68.8254 7.40514 68.7772C7.33765 68.7482 7.33283 68.9363 7.34247 70.5463L7.35693 72.3444L8.16197 72.5228C9.72866 72.8698 10.9868 73 12.8379 73C14.1106 73 14.6746 72.9566 15.4603 72.8072C18.0827 72.2962 19.9531 70.8259 20.4882 68.8495C21.0377 66.82 20.4207 64.9689 18.7383 63.6191C17.9911 63.0214 17.5862 62.8045 13.3103 60.7172C12.2739 60.2158 11.9124 59.8398 11.9124 59.2806C11.9124 58.813 12.2546 58.4081 12.9054 58.0996C14.0286 57.5645 16.1497 57.7188 18.5407 58.5142C18.8829 58.625 19.2059 58.7359 19.2541 58.7552C19.3313 58.7889 19.3361 58.6877 19.3361 57.0728C19.3361 56.128 19.3264 55.3567 19.3168 55.3567C19.3072 55.3567 19.042 55.3036 18.7287 55.241C16.6221 54.8119 14.3853 54.6384 12.9006 54.7878Z" fill="#5852B0"/>
<path d="M114.229 54.7827C113.617 54.8502 112.711 55.0382 112.185 55.2117C110.416 55.7902 109.042 56.9905 108.555 58.3933C108.03 59.9021 108.305 61.7291 109.245 62.9825C109.568 63.4115 110.194 63.9996 110.7 64.3371C111.351 64.7758 111.963 65.0746 113.935 65.9134C115.911 66.7522 116.22 66.8968 116.514 67.1475C117.213 67.7452 117.049 68.8877 116.201 69.3457C114.986 70.0013 112.253 69.8566 109.384 68.9793C109.081 68.8877 108.791 68.7961 108.743 68.7817C108.666 68.7479 108.661 68.8443 108.671 70.546L108.685 72.3441L109.143 72.4501C109.804 72.6092 110.855 72.7972 111.554 72.884C112.373 72.9852 115.029 73.0286 115.752 72.9563C117.82 72.7442 119.44 72.0597 120.568 70.9316C121.407 70.088 121.836 69.1769 121.971 67.9525C122.106 66.6799 121.768 65.5181 120.973 64.5203C120.245 63.6188 119.474 63.0982 117.194 61.975C116.254 61.5074 115.343 61.0639 115.169 60.9868C114.022 60.4613 113.535 60.1335 113.337 59.7382C113.13 59.3333 113.255 58.7934 113.641 58.4608C114.412 57.7907 115.781 57.6172 117.7 57.9546C118.534 58.0992 119.811 58.456 120.583 58.7548C120.66 58.7886 120.665 58.6874 120.665 57.0725C120.665 56.1276 120.655 55.3563 120.645 55.3563C120.636 55.3563 120.371 55.3033 120.057 55.2406C119.3 55.0864 118.38 54.9418 117.579 54.8454C116.794 54.7538 114.832 54.72 114.229 54.7827Z" fill="#5852B0"/>
<path d="M23.0479 63.8652V72.7109H25.651H28.2541V63.8652V55.0194H25.651H23.0479V63.8652Z" fill="#5852B0"/>
<path d="M32.3516 63.8652V72.7109H38.8352H45.3189V70.9996V69.2883H41.3419H37.365L37.3746 67.2251L37.3891 65.1667L40.7779 65.1523L44.162 65.1426L44.1523 63.682L44.1379 62.2262L40.7538 62.2117L37.365 62.2021V60.2497V58.2974H41.2696H45.1743V56.6584V55.0194H38.7629H32.3516V63.8652Z" fill="#5852B0"/>
<path d="M48.2355 55.0772C48.221 55.1109 48.2162 59.0879 48.221 63.9133L48.2355 72.6867L50.0047 72.7012L51.7786 72.7109L51.7883 66.9165L51.8027 61.1174L54.1841 66.8779C55.4953 70.0451 56.5896 72.6867 56.6137 72.7494L56.6619 72.8555L58.1804 72.8458L59.7037 72.8314L62.2104 66.9985L64.7219 61.1607L64.746 66.9262L64.7701 72.6867L67.219 72.7012L69.663 72.7109V63.8651V55.0193L66.6212 55.029L63.5842 55.0434L61.3089 60.428C60.0556 63.3927 59.024 65.8126 59.0095 65.8126C58.995 65.8126 58.0068 63.3927 56.8113 60.428L54.6372 55.0434L51.446 55.029C48.92 55.0193 48.25 55.029 48.2355 55.0772Z" fill="#5852B0"/>
<path d="M73.7459 55.0531C73.7266 55.0676 73.7122 59.0494 73.7122 63.8989V72.7109H80.2199H86.7277V70.9996V69.2883H82.7749H78.822V67.2155V65.1426H82.1964H85.5708V63.6723V62.2021H82.1964H78.822V60.2497V58.2974H82.7025H86.5831L86.5735 56.668L86.559 55.0435L80.1669 55.029C76.6527 55.0242 73.7604 55.0339 73.7459 55.0531Z" fill="#5852B0"/>
<path d="M89.6201 63.8652V72.7109H91.3796H93.1391L93.144 67.0564C93.144 61.8598 93.1488 61.4163 93.2211 61.5175C93.2645 61.5802 94.6721 64.1158 96.3448 67.1576L99.3963 72.6868L102.173 72.7013L104.95 72.7109V63.8652V55.0194H103.19H101.431V60.5727C101.431 63.682 101.411 66.1067 101.387 66.0778C101.368 66.0537 100.042 63.6386 98.4418 60.7077C96.8462 57.7768 95.4868 55.299 95.4241 55.1978L95.3084 55.0194H92.4643H89.6201V63.8652Z" fill="#5852B0"/>
</svg>
