<svg width="100" height="100" viewBox="0 0 100 100" fill="none" xmlns="http://www.w3.org/2000/svg">
<path fill-rule="evenodd" clip-rule="evenodd" d="M59.0684 46.6595V53.7141H57.2216V45.0904H59.9883L64.5358 51.4546L69.0575 45.0904H71.8251V53.7141H69.9783V46.6787L65.0223 53.7141H64.0381L59.0684 46.6595V46.6595ZM50.0565 47.2572V45.863H55.2969V47.2572H50.0565ZM50.8517 51.0353L50.8523 51.0838L50.8541 51.129L50.857 51.1734L50.861 51.2168L50.8661 51.2593L50.8723 51.301L50.8795 51.3418L50.8878 51.3817L50.8971 51.4207L50.9075 51.459L50.9188 51.4965L50.9313 51.5332L50.9447 51.5691L50.9591 51.6042L50.9744 51.6387L50.9909 51.6725L51.0083 51.7057L51.0268 51.7383L51.0462 51.7703L51.0667 51.8017L51.0883 51.8326L51.1109 51.863L51.1347 51.8929L51.1596 51.9223L51.1856 51.9514L51.2128 51.9799L51.2413 52.0081L51.2709 52.0358L51.3018 52.0631L51.334 52.0901L51.3674 52.1167L51.4034 52.1438L51.4365 52.1677L51.4696 52.1906L51.503 52.2126L51.5367 52.2338L51.5708 52.2543L51.6052 52.2739L51.64 52.2928L51.6751 52.3109L51.7106 52.3283L51.7466 52.3449L51.783 52.3608L51.8198 52.376L51.8572 52.3904L51.8948 52.4041L51.9331 52.4171L51.9718 52.4293L52.011 52.4409L52.0508 52.4517L52.091 52.4619L52.132 52.4713L52.1733 52.48L52.2153 52.4878L52.2579 52.4951L52.3011 52.5016L52.345 52.5073L52.3894 52.5122L52.4344 52.5165L52.4801 52.52L52.5266 52.5226L52.5736 52.5246L52.6213 52.5259L52.6697 52.5263L52.7191 52.5259L52.7679 52.5247L52.816 52.5228L52.8634 52.5201L52.91 52.5166L52.956 52.5125L53.0011 52.5075L53.0456 52.502L53.0894 52.4956L53.1325 52.4885L53.175 52.4808L53.2169 52.4723L53.258 52.4631L53.2986 52.4533L53.3384 52.4426L53.3778 52.4314L53.4164 52.4194L53.4545 52.4068L53.492 52.3935L53.529 52.3795L53.5656 52.3648L53.6015 52.3494L53.6369 52.3333L53.6719 52.3165L53.7063 52.2989L53.7404 52.2807L53.7739 52.2618L53.8072 52.242L53.8399 52.2216L53.8723 52.2004L53.9042 52.1784L53.936 52.1555L53.9717 52.1287L54.0051 52.1021L54.0371 52.0752L54.0679 52.0479L54.0975 52.0202L54.1259 51.9919L54.153 51.9632L54.179 51.9342L54.2038 51.9046L54.2276 51.8746L54.2502 51.8439L54.2718 51.8129L54.2923 51.7812L54.3118 51.7489L54.3302 51.716L54.3477 51.6825L54.3642 51.6484L54.3795 51.6134L54.394 51.5778L54.4074 51.5413L54.4199 51.5041L54.4314 51.4661L54.4418 51.4273L54.4512 51.3876L54.4596 51.347L54.4668 51.3056L54.473 51.2632L54.4781 51.22L54.4821 51.1758L54.485 51.1306L54.4867 51.0844L54.4873 51.0353V47.3295H56.1057V53.7083H54.4873V53.3143L54.4844 53.3161L54.4386 53.3429L54.3914 53.3694L54.3438 53.3949L54.2954 53.4199L54.2462 53.4442L54.1962 53.4679L54.1456 53.4908L54.0948 53.513L54.0441 53.5344L53.993 53.5551L53.9416 53.5751L53.8899 53.5943L53.8378 53.6129L53.7856 53.6308L53.7331 53.6481L53.6803 53.6645L53.6272 53.6804L53.5739 53.6955L53.5202 53.7099L53.4665 53.7235L53.4124 53.7366L53.358 53.7489L53.3034 53.7604L53.2486 53.7713L53.1935 53.7815L53.1382 53.7909L53.0827 53.7996L53.027 53.8077L52.971 53.8151L52.9149 53.8217L52.8585 53.8276L52.8018 53.8329L52.7451 53.8373L52.6881 53.8412L52.6309 53.8444L52.5735 53.8467L52.5159 53.8485L52.4582 53.8495L52.3999 53.8498L52.3232 53.8492L52.2469 53.8475L52.1711 53.8446L52.096 53.8406L52.0213 53.8353L51.9474 53.8289L51.874 53.8214L51.8017 53.8127L51.7295 53.8027L51.6579 53.7915L51.587 53.7791L51.5166 53.7656L51.4469 53.7508L51.3778 53.7348L51.3094 53.7175L51.2418 53.699L51.1747 53.6792L51.1084 53.6583L51.0427 53.636L50.9778 53.6125L50.9137 53.5879L50.8502 53.562L50.7877 53.5349L50.7258 53.5065L50.6647 53.4769L50.6046 53.446L50.5452 53.414L50.4865 53.3807L50.4289 53.3462L50.3721 53.3107L50.3161 53.2738L50.2605 53.2355L50.1992 53.1908L50.1394 53.1447L50.0813 53.0974L50.025 53.0486L49.9704 52.9986L49.9178 52.9474L49.8669 52.8949L49.818 52.8412L49.771 52.7864L49.726 52.7302L49.683 52.673L49.6419 52.6146L49.6028 52.5551L49.5658 52.4944L49.5309 52.4328L49.498 52.37L49.4672 52.3064L49.4384 52.2417L49.4117 52.1762L49.387 52.1097L49.3645 52.0424L49.3439 51.9742L49.3254 51.9051L49.309 51.8353L49.2944 51.7647L49.2819 51.6934L49.2714 51.6212L49.2628 51.5484L49.2562 51.4747L49.2514 51.4004L49.2486 51.3253L49.2477 51.2514V47.3295H50.8518V51.0352L50.8517 51.0353ZM39.0912 49.9096L39.092 49.8407L39.0941 49.7715L39.0978 49.7027L39.103 49.6345L39.1097 49.5671L39.1177 49.5003L39.1274 49.4342L39.1386 49.3689L39.1515 49.3043L39.1658 49.2405L39.1817 49.1774L39.1993 49.115L39.2185 49.0534L39.2393 48.9927L39.2617 48.9327L39.2858 48.8735L39.3115 48.8151L39.3389 48.7577L39.3679 48.7011L39.3986 48.6454L39.431 48.5907L39.4651 48.5369L39.5008 48.4841L39.5382 48.4323L39.5772 48.3816L39.6179 48.332L39.6601 48.2834L39.704 48.2359L39.7494 48.1897L39.7964 48.1445L39.8449 48.1005L39.8951 48.0574L39.9525 48.0112L40.012 47.9663L40.073 47.9229L40.1358 47.8811L40.2002 47.841L40.2661 47.8024L40.3337 47.7655L40.4027 47.7301L40.4731 47.6963L40.5451 47.6641L40.6184 47.6335L40.6932 47.6045L40.7693 47.577L40.8468 47.5511L40.9255 47.5267L41.0056 47.5039L41.087 47.4825L41.1698 47.4626L41.2539 47.4441L41.3391 47.4271L41.4258 47.4115L41.5136 47.3974L41.6027 47.3846L41.6937 47.3732L41.7854 47.3632L41.8783 47.3546L41.9727 47.3473L42.0682 47.3414L42.1651 47.3368L42.2633 47.3335L42.3628 47.3316L42.4617 47.3309H45.1576L45.2598 47.3316L45.3619 47.3337L45.4625 47.3371L45.5618 47.3419L45.6598 47.3482L45.7562 47.3559L45.8514 47.3649L45.9446 47.3754L46.037 47.3874L46.1281 47.4008L46.2177 47.4157L46.306 47.4321L46.393 47.4501L46.4785 47.4697L46.5627 47.4907L46.6454 47.5134L46.7269 47.5376L46.8068 47.5635L46.8853 47.591L46.9624 47.6201L47.0379 47.6509L47.112 47.6833L47.1845 47.7175L47.2554 47.7533L47.3248 47.7908L47.3925 47.8301L47.4586 47.871L47.5229 47.9136L47.5855 47.9579L47.6463 48.004L47.7052 48.0517L47.761 48.0999L47.8082 48.1428L47.8543 48.1871L47.8989 48.2323L47.9421 48.2787L47.9837 48.326L48.0239 48.3742L48.0627 48.4234L48.0998 48.4737L48.1353 48.5249L48.1694 48.5769L48.2018 48.6298L48.2327 48.6835L48.2621 48.7381L48.2898 48.7936L48.316 48.8497L48.3406 48.9068L48.3637 48.9644L48.3851 49.0229L48.4049 49.0821L48.4233 49.142L48.4401 49.2025L48.4554 49.2638L48.4691 49.3257L48.4815 49.3883L48.4922 49.4515L48.5016 49.5153L48.5094 49.5797L48.5158 49.6448L48.5207 49.7105L48.5242 49.7768L48.5264 49.8442L48.5271 49.9096V51.1356L48.5264 51.2017L48.5242 51.2683L48.5206 51.3348L48.5156 51.4007L48.509 51.466L48.501 51.5308L48.4914 51.5948L48.4804 51.6583L48.4678 51.7211L48.4537 51.7833L48.4381 51.8449L48.4209 51.9057L48.4021 51.9659L48.3818 52.0255L48.3599 52.0843L48.3363 52.1424L48.3112 52.1998L48.2845 52.2563L48.2563 52.3121L48.2263 52.367L48.1949 52.4213L48.1617 52.4745L48.1271 52.5269L48.0909 52.5786L48.0531 52.6291L48.0138 52.6788L47.9729 52.7276L47.9306 52.7753L47.8867 52.8221L47.8414 52.868L47.7946 52.9127L47.7454 52.9574L47.687 53.0071L47.6272 53.0549L47.5657 53.101L47.5023 53.1455L47.4375 53.1885L47.3709 53.2297L47.3029 53.2692L47.2332 53.3071L47.162 53.3433L47.0895 53.3779L47.0153 53.4107L46.9399 53.4419L46.863 53.4715L46.7847 53.4993L46.705 53.5256L46.624 53.5502L46.5418 53.5733L46.4583 53.5948L46.3734 53.6147L46.2873 53.633L46.1999 53.6498L46.1113 53.6651L46.0214 53.6788L45.9302 53.6911L45.8377 53.7018L45.7435 53.7111L45.6486 53.7189L45.5525 53.7253L45.4551 53.7302L45.3563 53.7337L45.2563 53.7357L45.1571 53.7364H42.4612L42.3645 53.7358L42.268 53.734L42.1728 53.7311L42.0788 53.727L41.9861 53.7216L41.8948 53.7151L41.8046 53.7075L41.7156 53.6985L41.628 53.6883L41.5416 53.6768L41.4564 53.6642L41.3731 53.6503L41.2903 53.6351L41.2089 53.6186L41.1288 53.6007L41.0498 53.5815L40.9722 53.561L40.8957 53.5391L40.8206 53.5158L40.7468 53.4912L40.6741 53.4651L40.603 53.4376L40.533 53.4088L40.4645 53.3783L40.3973 53.3465L40.3315 53.3131L40.2671 53.2782L40.2043 53.242L40.143 53.2041L40.0831 53.1649L40.0249 53.1241L39.9683 53.0821L39.9136 53.0386L39.8606 52.9939L39.8093 52.9477L39.7596 52.9003L39.7117 52.8516L39.6655 52.8015L39.6211 52.7501L39.5784 52.6976L39.5375 52.6438L39.4985 52.5889L39.4612 52.5328L39.4258 52.4756L39.3923 52.4172L39.3606 52.358L39.3307 52.2976L39.3026 52.2363L39.2764 52.1739L39.252 52.1107L39.2294 52.0465L39.2085 51.9814L39.1895 51.9154L39.1721 51.8485L39.1564 51.7807L39.1427 51.7121L39.1304 51.6427L39.12 51.5724L39.1111 51.5014L39.1039 51.4293L39.0985 51.3566L39.0945 51.283L39.0921 51.2081L39.0914 51.1348V49.9091L39.0912 49.9096ZM30.8252 53.4736V56H28.9784V47.3538H30.8252V47.5997L30.8556 47.5876L30.9041 47.5693L30.9528 47.5521L31.0019 47.5354L31.0515 47.5195L31.1018 47.5044L31.1524 47.4901L31.2036 47.4766L31.2555 47.4637L31.3077 47.4515L31.3603 47.4403L31.4136 47.4296L31.4672 47.4197L31.5214 47.4105L31.5761 47.402L31.6312 47.3941L31.6868 47.3871L31.7428 47.3807L31.7994 47.375L31.8564 47.3701L31.9138 47.3657L31.9718 47.362L32.0302 47.3591L32.0891 47.3567L32.1483 47.3552L32.2082 47.3541L32.2669 47.3538H34.9899L35.0882 47.3545L35.1866 47.3566L35.2837 47.36L35.3794 47.3648L35.4739 47.3711L35.5672 47.3789L35.6586 47.388L35.7495 47.3985L35.839 47.4106L35.9273 47.4241L36.0143 47.4391L36.1 47.4557L36.1846 47.4738L36.2678 47.4934L36.3497 47.5146L36.4303 47.5373L36.5098 47.5616L36.5878 47.5876L36.6646 47.6152L36.7399 47.6444L36.8138 47.6753L36.8863 47.7077L36.9575 47.7419L37.0271 47.7777L37.0951 47.8152L37.1617 47.8544L37.2266 47.8952L37.29 47.9376L37.3516 47.9817L37.4116 48.0274L37.4699 48.0749L37.5269 48.1242L37.5747 48.1687L37.62 48.213L37.6636 48.2583L37.7059 48.3046L37.7468 48.3519L37.7861 48.4003L37.8241 48.4495L37.8603 48.4997L37.8953 48.5508L37.9285 48.6028L37.9603 48.6556L37.9905 48.7092L38.0192 48.7637L38.0464 48.8191L38.072 48.8752L38.0961 48.932L38.1186 48.9896L38.1395 49.048L38.159 49.107L38.1769 49.1667L38.1932 49.2271L38.2082 49.2882L38.2216 49.3499L38.2336 49.4123L38.2441 49.4753L38.2532 49.539L38.2608 49.6033L38.2671 49.6682L38.2719 49.7337L38.2754 49.8003L38.2774 49.8671L38.2781 49.9324V51.1581L38.2774 51.2277L38.2751 51.2978L38.2715 51.3668L38.2663 51.4356L38.2597 51.5036L38.2516 51.5708L38.2419 51.6373L38.2307 51.7031L38.218 51.7681L38.2036 51.8325L38.1878 51.896L38.1702 51.9587L38.1511 52.0207L38.1303 52.082L38.1079 52.1423L38.0838 52.2018L38.0582 52.2606L38.0308 52.3183L38.0019 52.3752L37.9711 52.4312L37.9388 52.4862L37.9048 52.5402L37.869 52.5933L37.8316 52.6453L37.7925 52.6962L37.7518 52.7461L37.7096 52.7949L37.6656 52.8425L37.6201 52.889L37.5731 52.9343L37.5245 52.9784L37.4756 53.0202L37.4215 53.0648L37.3639 53.1091L37.3046 53.1519L37.2438 53.1932L37.1814 53.2328L37.1174 53.271L37.0519 53.3075L36.985 53.3424L36.9166 53.3759L36.8469 53.4076L36.7757 53.4379L36.7032 53.4666L36.6294 53.4937L36.5541 53.5193L36.4777 53.5435L36.4 53.5661L36.321 53.5873L36.2407 53.6069L36.1593 53.6252L36.0766 53.6419L35.9926 53.6574L35.9074 53.6713L35.821 53.6839L35.7329 53.6952L35.6441 53.705L35.5539 53.7135L35.4627 53.7206L35.3701 53.7264L35.2763 53.731L35.1814 53.7342L35.0852 53.7361L34.9895 53.7368H32.3483L32.2864 53.7364L32.2242 53.7354L32.1625 53.7337L32.1011 53.7313L32.0403 53.7282L31.98 53.7244L31.9202 53.7199L31.8608 53.7148L31.802 53.7089L31.7437 53.7022L31.6859 53.695L31.6286 53.6869L31.5718 53.6781L31.5155 53.6686L31.4597 53.6584L31.4043 53.6474L31.3496 53.6356L31.2954 53.6231L31.2416 53.6099L31.1884 53.5959L31.1357 53.5811L31.0836 53.5656L31.032 53.5493L30.981 53.5322L30.9305 53.5143L30.8812 53.4958L30.8318 53.4764L30.8252 53.4736V53.4736ZM26.6148 49.8316L26.6142 49.7908L26.6127 49.7532L26.6101 49.7166L26.6066 49.6808L26.6022 49.6458L26.5967 49.6119L26.5904 49.5787L26.5832 49.5464L26.575 49.5148L26.5661 49.4841L26.5561 49.4542L26.5454 49.4249L26.5338 49.3964L26.5214 49.3685L26.5081 49.3412L26.4939 49.3146L26.479 49.2884L26.4631 49.2629L26.4463 49.2377L26.4286 49.2131L26.41 49.1889L26.3904 49.165L26.3698 49.1416L26.3481 49.1185L26.3254 49.0957L26.3016 49.0732L26.2766 49.0511L26.2505 49.0293L26.2232 49.0077L26.1946 48.9864L26.1647 48.9654L26.133 48.9443L26.0993 48.9231L26.0648 48.9022L26.0298 48.8819L25.9946 48.8624L25.959 48.8437L25.923 48.8256L25.8867 48.8083L25.85 48.7915L25.8127 48.7755L25.7752 48.7601L25.7372 48.7455L25.6989 48.7315L25.66 48.7182L25.6207 48.7054L25.5811 48.6934L25.5408 48.682L25.5001 48.6714L25.4589 48.6613L25.4173 48.652L25.3751 48.6433L25.3323 48.6353L25.289 48.628L25.2453 48.6213L25.201 48.6153L25.1561 48.61L25.1106 48.6054L25.0645 48.6015L25.0178 48.5983L24.9706 48.5958L24.9228 48.5939L24.8745 48.5929L24.8253 48.5925L24.7748 48.5929L24.725 48.5938L24.6758 48.5956L24.6272 48.598L24.5795 48.601L24.5325 48.6047L24.4863 48.609L24.4407 48.614L24.3959 48.6196L24.3518 48.6258L24.3084 48.6327L24.2657 48.6403L24.2237 48.6483L24.1823 48.657L24.1417 48.6665L24.1017 48.6764L24.0624 48.6868L24.0238 48.698L23.9858 48.7097L23.9484 48.722L23.9117 48.7349L23.8755 48.7484L23.84 48.7624L23.805 48.7771L23.7706 48.7923L23.7368 48.8081L23.7034 48.8245L23.6706 48.8416L23.6383 48.8592L23.6065 48.8774L23.5752 48.8961L23.5425 48.9167L23.506 48.9404L23.4732 48.9627L23.4419 48.9854L23.4119 49.0083L23.3832 49.0315L23.3559 49.055L23.3299 49.0787L23.3051 49.1028L23.2814 49.1272L23.259 49.1518L23.2376 49.1767L23.2173 49.2021L23.1982 49.2277L23.1801 49.2538L23.163 49.2803L23.1467 49.3073L23.1316 49.3347L23.1174 49.3628L23.1041 49.3913L23.0917 49.4205L23.0803 49.4503L23.0698 49.4807L23.0602 49.5119L23.0516 49.5439L23.0439 49.5766L23.0371 49.6101L23.0314 49.6445L23.0266 49.6796L23.0229 49.7158L23.0202 49.7527L23.0186 49.7906L23.018 49.8318V53.714H21.1923V49.8316L21.1917 49.7908L21.1901 49.7532L21.1876 49.7165L21.1841 49.6808L21.1797 49.6458L21.1742 49.6119L21.1679 49.5787L21.1606 49.5464L21.1525 49.5148L21.1434 49.4841L21.1336 49.4541L21.1229 49.4249L21.1113 49.3964L21.0988 49.3685L21.0856 49.3412L21.0714 49.3145L21.0565 49.2884L21.0407 49.2629L21.0239 49.2377L21.0061 49.2131L20.9876 49.1889L20.9679 49.165L20.9473 49.1416L20.9256 49.1185L20.9029 49.0957L20.8791 49.0732L20.8541 49.0511L20.828 49.0293L20.8008 49.0077L20.7722 48.9863L20.7423 48.9654L20.7128 48.9457L20.6451 48.9041L20.5763 48.8658L20.5049 48.8295L20.4309 48.7956L20.3546 48.764L20.2761 48.7349L20.1955 48.7081L20.1132 48.6839L20.0292 48.6623L19.9438 48.6432L19.8571 48.6269L19.7695 48.6132L19.681 48.6023L19.592 48.594L19.5025 48.5886L19.413 48.5859L19.3235 48.586L19.2342 48.5889L19.1454 48.5946L19.0573 48.6031L18.97 48.6144L18.8838 48.6285L18.7989 48.6454L18.7155 48.6649L18.6338 48.6872L18.5538 48.712L18.476 48.7397L18.4003 48.7698L18.327 48.8024L18.2561 48.8377L18.1877 48.8755L18.118 48.9183L18.0835 48.9405L18.0509 48.9628L18.0195 48.9855L17.9895 49.0085L17.9609 49.0316L17.9336 49.0551L17.9076 49.0788L17.8828 49.1029L17.8591 49.1273L17.8367 49.1519L17.8153 49.1768L17.795 49.2022L17.7759 49.2278L17.7578 49.2539L17.7407 49.2804L17.7245 49.3074L17.7093 49.3348L17.6951 49.3629L17.6818 49.3914L17.6694 49.4206L17.658 49.4504L17.6475 49.4808L17.6379 49.512L17.6293 49.544L17.6216 49.5767L17.6148 49.6102L17.6091 49.6446L17.6044 49.6797L17.6006 49.7159L17.5979 49.7528L17.5963 49.7907L17.5957 49.8319V53.7141H15.7868L15.8074 47.3913H17.5957V47.7021L17.6371 47.6805L17.6813 47.6583L17.7262 47.6367L17.7718 47.6157L17.818 47.5953L17.8649 47.5754L17.9124 47.5562L17.9605 47.5375L18.01 47.5189L18.1109 47.4836L18.214 47.4501L18.3182 47.4192L18.4233 47.3907L18.5292 47.3647L18.6358 47.341L18.7432 47.3197L18.8512 47.301L18.9598 47.2846L19.0688 47.2706L19.1783 47.259L19.288 47.2499L19.398 47.2431L19.5082 47.2387L19.6186 47.2367L19.7288 47.2373L19.8391 47.2402L19.9494 47.2455L20.0594 47.2532L20.1691 47.2635L20.2787 47.2761L20.3877 47.2911L20.4963 47.3087L20.6043 47.3287L20.7116 47.3511L20.8183 47.3762L20.9242 47.4036L21.0293 47.4336L21.1334 47.4662L21.2365 47.5013L21.3384 47.5389L21.4382 47.5787L21.492 47.6015L21.5436 47.6244L21.5944 47.6481L21.644 47.6722L21.6932 47.6972L21.7416 47.723L21.7892 47.7496L21.8359 47.7768L21.8818 47.8047L21.9268 47.8335L21.9711 47.863L22.0143 47.8932L22.0567 47.9242L22.0982 47.9558L22.1388 47.9883L22.1784 48.0215L22.217 48.0553L22.2546 48.09L22.2914 48.1252L22.3077 48.1417L22.3247 48.1267L22.364 48.0933L22.4041 48.0608L22.4452 48.0287L22.4872 47.9972L22.5305 47.9661L22.5736 47.9361L22.6185 47.9062L22.6638 47.8773L22.71 47.8488L22.7569 47.821L22.8046 47.7937L22.8531 47.7671L22.9024 47.7409L22.9525 47.7154L23.0034 47.6905L23.0551 47.6661L23.1075 47.6423L23.1607 47.619L23.2146 47.5963L23.2688 47.5744L23.3234 47.553L23.3781 47.5324L23.4332 47.5125L23.4885 47.4933L23.5441 47.4749L23.6001 47.457L23.6562 47.4399L23.7127 47.4235L23.7695 47.4078L23.8265 47.3928L23.8837 47.3785L23.9412 47.3648L23.999 47.352L24.057 47.3398L24.1153 47.3283L24.1737 47.3175L24.2325 47.3074L24.2915 47.298L24.3508 47.2894L24.4102 47.2813L24.4699 47.274L24.5299 47.2674L24.5899 47.2616L24.6502 47.2564L24.7109 47.2519L24.7716 47.2481L24.8325 47.245L24.8938 47.2426L24.9552 47.2409L25.0168 47.2399L25.0789 47.2395L25.1606 47.2401L25.2419 47.2418L25.3226 47.2446L25.4026 47.2485L25.4819 47.2537L25.5605 47.2599L25.6385 47.2672L25.7157 47.2758L25.7923 47.2856L25.8682 47.2964L25.9435 47.3084L26.0173 47.3215L26.0911 47.336L26.1641 47.3516L26.2364 47.3684L26.308 47.3865L26.3788 47.4057L26.4489 47.4261L26.5181 47.4478L26.5867 47.4707L26.6545 47.4948L26.7214 47.5202L26.7875 47.5468L26.8528 47.5745L26.9173 47.6036L26.9809 47.6338L27.0435 47.6653L27.1053 47.6978L27.1662 47.7318L27.2263 47.7669L27.2853 47.8031L27.3435 47.8407L27.4089 47.8848L27.4731 47.9308L27.5354 47.978L27.5959 48.0264L27.6545 48.0762L27.7112 48.1272L27.766 48.1795L27.8187 48.2329L27.8694 48.2878L27.9182 48.3437L27.9648 48.4009L28.0094 48.4593L28.0517 48.5189L28.092 48.5795L28.1301 48.6413L28.1659 48.7042L28.1996 48.768L28.231 48.8329L28.2602 48.8988L28.2872 48.9656L28.3119 49.0333L28.3345 49.1017L28.3548 49.1712L28.3729 49.2413L28.3888 49.3123L28.4025 49.384L28.4141 49.4565L28.4235 49.5297L28.4308 49.6036L28.436 49.6781L28.4391 49.7533L28.4401 49.8272V53.714H26.6144V49.8316L26.6148 49.8316ZM13.0637 47.5889L13.0624 47.5533L13.0604 47.5188L13.0577 47.4851L13.0542 47.4526L13.05 47.4209L13.045 47.3903L13.0394 47.3606L13.0333 47.3317L13.0263 47.304L13.0188 47.2772L13.0107 47.2512L13.002 47.226L12.9928 47.2019L12.983 47.1786L12.9727 47.1561L12.9619 47.1343L12.9505 47.1133L12.9387 47.0932L12.9263 47.0736L12.9135 47.0547L12.9001 47.0364L12.8862 47.0187L12.8716 47.0014L12.8566 46.9848L12.8409 46.9685L12.8246 46.9527L12.8076 46.9372L12.7898 46.9222L12.7714 46.9076L12.7521 46.8933L12.732 46.8792L12.706 46.8622L12.6791 46.8459L12.6505 46.8297L12.6204 46.8137L12.5885 46.7981L12.555 46.7826L12.5196 46.7676L12.4826 46.7529L12.4437 46.7386L12.4031 46.7246L12.3606 46.711L12.3164 46.698L12.2705 46.6854L12.2227 46.6733L12.1731 46.6618L12.1216 46.6507L12.0686 46.6403L12.0136 46.6304L11.9569 46.6212L11.8985 46.6126L11.8383 46.6046L11.7764 46.5973L11.7128 46.5906L11.6474 46.5846L11.5803 46.5792L11.5114 46.5745L11.441 46.5706L11.3687 46.5674L11.2949 46.5648L11.2195 46.563L11.1423 46.5619L11.0624 46.5616H6.93023L6.84448 46.562L6.76201 46.5631L6.68142 46.5652L6.60282 46.568L6.52617 46.5715L6.45163 46.5758L6.37898 46.581L6.30838 46.5868L6.23979 46.5934L6.17331 46.6007L6.1089 46.6088L6.04649 46.6175L5.98631 46.6269L5.92808 46.6371L5.87197 46.6478L5.8181 46.6591L5.76629 46.6711L5.7166 46.6835L5.66915 46.6966L5.62377 46.7101L5.58062 46.7241L5.53954 46.7385L5.50069 46.7533L5.46397 46.7684L5.42931 46.7838L5.39689 46.7995L5.36647 46.8154L5.33799 46.8314L5.31139 46.8475L5.28691 46.8638L5.26407 46.88L5.24316 46.8963L5.22334 46.9131L5.20395 46.9309L5.18481 46.9501L5.1659 46.9707L5.14711 46.9928L5.12869 47.0165L5.11039 47.0418L5.09246 47.0687L5.07482 47.0975L5.05755 47.1279L5.04065 47.1602L5.02422 47.1942L5.00835 47.2301L4.99296 47.2679L4.97817 47.3074L4.96405 47.3489L4.95054 47.3922L4.93781 47.4374L4.92582 47.4844L4.91448 47.5332L4.904 47.5839L4.89431 47.6364L4.88546 47.6907L4.87752 47.7468L4.87043 47.8047L4.86425 47.8644L4.85898 47.9258L4.85468 47.989L4.85128 48.0539L4.84886 48.1205L4.84734 48.1889L4.84686 48.2601V50.5436L4.84734 50.612L4.84886 50.6775L4.85128 50.7413L4.85468 50.8034L4.85886 50.8639L4.86413 50.9226L4.87031 50.9796L4.87728 51.035L4.88522 51.0886L4.89394 51.1404L4.90352 51.1906L4.91388 51.2389L4.92509 51.2856L4.93697 51.3304L4.94957 51.3735L4.96284 51.4148L4.97684 51.4542L4.99144 51.492L5.00659 51.5279L5.02222 51.5621L5.03846 51.5946L5.05501 51.6254L5.07203 51.6544L5.08943 51.6817L5.10718 51.7075L5.12524 51.7317L5.14342 51.7544L5.16196 51.7756L5.18074 51.7955L5.19989 51.814L5.21916 51.8314L5.23886 51.8476L5.25976 51.8635L5.28249 51.8793L5.30709 51.8952L5.33357 51.9109L5.36205 51.9266L5.39259 51.9421L5.42525 51.9574L5.46003 51.9725L5.49688 51.9872L5.53596 52.0017L5.57717 52.0158L5.62055 52.0294L5.66606 52.0426L5.71375 52.0554L5.76356 52.0676L5.81561 52.0793L5.86973 52.0904L5.92596 52.1009L5.98425 52.1107L6.04479 52.1199L6.10733 52.1284L6.17192 52.1363L6.23852 52.1435L6.30723 52.1499L6.37801 52.1556L6.45079 52.1606L6.52556 52.1648L6.60234 52.1683L6.68105 52.171L6.76177 52.173L6.84436 52.1742L6.9301 52.1747H11.0624L11.1411 52.1742L11.217 52.1733L11.2914 52.1718L11.3641 52.1695L11.4351 52.1667L11.5045 52.1632L11.5721 52.1592L11.6381 52.1545L11.7024 52.1492L11.765 52.1433L11.8259 52.1369L11.885 52.1299L11.9424 52.1223L11.998 52.1141L12.052 52.1054L12.1041 52.0963L12.1545 52.0866L12.203 52.0765L12.2498 52.0659L12.2947 52.0548L12.3377 52.0433L12.379 52.0316L12.4184 52.0193L12.4561 52.0067L12.4918 51.9939L12.5258 51.9808L12.5579 51.9675L12.5882 51.954L12.6167 51.9403L12.6436 51.9265L12.6685 51.9126L12.6921 51.8985L12.7148 51.8841L12.7366 51.8691L12.7576 51.8536L12.7777 51.8379L12.7969 51.8217L12.8152 51.8051L12.833 51.7881L12.8499 51.7705L12.8661 51.7525L12.8816 51.7339L12.8966 51.7148L12.9109 51.6949L12.9247 51.6744L12.9379 51.6532L12.9505 51.6313L12.9625 51.6084L12.9739 51.5847L12.9849 51.5602L12.995 51.5347L13.0047 51.5083L13.0137 51.481L13.0221 51.4526L13.0297 51.4232L13.0367 51.3928L13.0428 51.3613L13.0483 51.3288L13.053 51.2951L13.0569 51.2604L13.0599 51.2246L13.0622 51.1878L13.0634 51.1499L13.0683 50.7261H14.9151L14.91 51.1887L14.9074 51.2655L14.9031 51.3416L14.897 51.4167L14.8891 51.491L14.8794 51.5644L14.8678 51.6368L14.8544 51.7084L14.8392 51.779L14.822 51.8487L14.8029 51.9175L14.7819 51.9854L14.759 52.0523L14.7341 52.1182L14.7072 52.183L14.6783 52.2469L14.6475 52.3097L14.6146 52.3713L14.5797 52.4318L14.5429 52.4912L14.5039 52.5493L14.4631 52.6062L14.4202 52.6618L14.3754 52.7162L14.3286 52.7692L14.28 52.8208L14.2294 52.8709L14.177 52.9197L14.1228 52.967L14.0668 53.0128L14.009 53.0571L13.9492 53.1002L13.8869 53.1421L13.8222 53.1826L13.7556 53.2214L13.6872 53.2586L13.6168 53.2942L13.5446 53.3282L13.4706 53.3607L13.3948 53.3917L13.3173 53.4211L13.2381 53.4491L13.1571 53.4756L13.0743 53.5008L12.9898 53.5246L12.9036 53.547L12.8158 53.568L12.7261 53.5878L12.6342 53.6063L12.5411 53.6235L12.4463 53.6394L12.3495 53.6539L12.2512 53.6674L12.151 53.6796L12.049 53.6905L11.9452 53.7004L11.8397 53.709L11.7324 53.7164L11.6232 53.7226L11.5121 53.7278L11.3992 53.7317L11.2846 53.7346L11.168 53.7363L11.051 53.7369H6.91411L6.79116 53.7362L6.66936 53.7343L6.54956 53.7311L6.43176 53.7265L6.31596 53.7207L6.2021 53.7136L6.09024 53.7051L5.98038 53.6953L5.87245 53.6841L5.76641 53.6716L5.66237 53.6577L5.56032 53.6424L5.4607 53.6258L5.36235 53.6077L5.266 53.5881L5.17153 53.5671L5.07906 53.5446L4.98829 53.5206L4.89952 53.495L4.81274 53.4679L4.72773 53.4392L4.64465 53.4088L4.56345 53.3768L4.48425 53.3431L4.40693 53.3076L4.33167 53.2705L4.25853 53.2314L4.18727 53.1907L4.11831 53.1481L4.05147 53.1036L3.98687 53.0573L3.92446 53.0091L3.86441 52.9589L3.80618 52.9065L3.75031 52.8522L3.69643 52.7958L3.64475 52.7374L3.59518 52.6773L3.54779 52.6154L3.50253 52.5516L3.4595 52.486L3.41854 52.4189L3.3797 52.3501L3.34285 52.2796L3.30807 52.2075L3.27541 52.1339L3.24463 52.0587L3.21584 51.982L3.189 51.9036L3.16403 51.8239L3.14095 51.7425L3.11962 51.6597L3.10023 51.5753L3.08247 51.4894L3.0666 51.402L3.05236 51.3126L3.03999 51.2221L3.02927 51.1301L3.02018 51.0364L3.01285 50.9413L3.00715 50.8446L3.00321 50.7463L3.00079 50.6464L3 50.5465V48.2578L3.00079 48.1573L3.00321 48.0572L3.00739 47.9586L3.01321 47.8616L3.02066 47.7659L3.02987 47.672L3.04084 47.5794L3.05345 47.4888L3.06781 47.3992L3.08405 47.3112L3.10192 47.2247L3.12174 47.1396L3.14331 47.056L3.16676 46.9738L3.19209 46.8932L3.21936 46.814L3.24851 46.7363L3.27965 46.6601L3.3128 46.5854L3.34788 46.5122L3.38509 46.4407L3.4243 46.3707L3.46556 46.3024L3.50895 46.2357L3.55458 46.1706L3.60215 46.1072L3.65196 46.0457L3.70389 45.986L3.75788 45.928L3.81399 45.8721L3.87223 45.8182L3.93252 45.7661L3.99505 45.7159L4.06001 45.6676L4.12709 45.6211L4.19648 45.5764L4.26786 45.5336L4.34136 45.4926L4.41681 45.4535L4.49425 45.4162L4.57381 45.3807L4.65513 45.3469L4.73839 45.3148L4.82341 45.2845L4.91042 45.2558L4.99932 45.2287L5.08997 45.2033L5.18244 45.1795L5.27679 45.1573L5.3729 45.1366L5.471 45.1173L5.57086 45.0998L5.67303 45.0835L5.77659 45.0689L5.88203 45.0556L5.98922 45.0439L6.09842 45.0335L6.20949 45.0246L6.32238 45.0171L6.43715 45.0109L6.55392 45.0061L6.67257 45.0027L6.79316 45.0007L6.91399 45H11.0527L11.271 45.0023L11.4861 45.0092L11.6952 45.0208L11.8985 45.0371L12.0958 45.0583L12.2873 45.0842L12.4729 45.1152L12.6528 45.1512L12.8268 45.1923L12.995 45.2387L13.1574 45.2905L13.3138 45.3479L13.4643 45.4109L13.6086 45.4797L13.7464 45.5545L13.8777 45.6351L14.0022 45.7217L14.1195 45.8143L14.2294 45.9129L14.3315 46.017L14.4256 46.1267L14.5115 46.2418L14.5891 46.3618L14.658 46.4865L14.7186 46.6156L14.7705 46.7489L14.814 46.8861L14.8493 47.027L14.8764 47.1714L14.8957 47.3194L14.907 47.4707L14.9202 48.0103H13.0682L13.0635 47.589L13.0637 47.5889ZM74.1843 51.0359L74.1849 51.0843L74.1867 51.1298L74.1895 51.1744L74.1934 51.2179L74.1984 51.2607L74.2045 51.3026L74.2117 51.3434L74.2199 51.3836L74.2289 51.4228L74.2392 51.4612L74.2504 51.4989L74.2626 51.5357L74.2758 51.5717L74.29 51.6071L74.3051 51.6416L74.3212 51.6756L74.3384 51.7089L74.3564 51.7415L74.3756 51.7736L74.3958 51.805L74.4168 51.836L74.439 51.8664L74.4624 51.8963L74.4867 51.9257L74.5122 51.9546L74.5388 51.9832L74.5665 52.0112L74.5955 52.039L74.6257 52.0662L74.6572 52.0931L74.6898 52.1196L74.7233 52.1452L74.7547 52.1679L74.7877 52.1907L74.821 52.2126L74.8547 52.2337L74.8887 52.2541L74.9233 52.2738L74.958 52.2926L74.9934 52.3107L75.0291 52.328L75.0652 52.3446L75.1018 52.3605L75.1389 52.3756L75.1765 52.39L75.2146 52.4038L75.2531 52.4169L75.2923 52.4291L75.3319 52.4407L75.3722 52.4515L75.413 52.4617L75.4544 52.4711L75.4964 52.4798L75.5391 52.4878L75.5824 52.495L75.6262 52.5015L75.6708 52.5072L75.716 52.5123L75.7618 52.5165L75.8085 52.52L75.8558 52.5227L75.9037 52.5247L75.9524 52.5259L76.0017 52.5264L76.0511 52.5259L76.0999 52.5248L76.148 52.5228L76.1954 52.5201L76.242 52.5167L76.2879 52.5125L76.3331 52.5076L76.3776 52.502L76.4214 52.4957L76.4645 52.4886L76.507 52.4808L76.5488 52.4723L76.59 52.4631L76.6304 52.4533L76.6703 52.4428L76.7096 52.4315L76.7482 52.4195L76.7864 52.4069L76.8239 52.3935L76.8609 52.3796L76.8974 52.3649L76.9334 52.3495L76.9688 52.3333L77.0037 52.3166L77.0383 52.2991L77.0723 52.2809L77.1059 52.2618L77.139 52.2422L77.1718 52.2217L77.2041 52.2006L77.236 52.1785L77.2662 52.1569L77.2993 52.1314L77.3318 52.1049L77.3632 52.0781L77.3933 52.0508L77.4223 52.0232L77.45 51.995L77.4765 51.9665L77.5019 51.9374L77.5263 51.9078L77.5495 51.8778L77.5718 51.8471L77.5929 51.816L77.6131 51.7844L77.6322 51.7519L77.6503 51.7191L77.6674 51.6854L77.6837 51.6511L77.6988 51.6161L77.7131 51.5803L77.7263 51.5437L77.7386 51.5064L77.7498 51.4682L77.76 51.4292L77.7692 51.3893L77.7775 51.3487L77.7846 51.307L77.7907 51.2645L77.7958 51.221L77.7997 51.1766L77.8026 51.1313L77.8043 51.0851L77.805 51.0359V47.3307H79.423V53.7084H77.805V53.3223L77.7706 53.3425L77.7238 53.3688L77.6757 53.3947L77.6273 53.4197L77.5781 53.4441L77.5281 53.4678L77.4773 53.4908L77.4266 53.513L77.3757 53.5344L77.3244 53.5551L77.2729 53.5751L77.2209 53.5945L77.1687 53.6131L77.1162 53.631L77.0635 53.6482L77.0104 53.6647L76.957 53.6805L76.9034 53.6956L76.8495 53.71L76.7953 53.7237L76.7408 53.7367L76.6861 53.749L76.631 53.7605L76.5757 53.7714L76.5202 53.7815L76.4645 53.7909L76.4085 53.7998L76.3521 53.8077L76.2956 53.8151L76.2389 53.8217L76.1819 53.8276L76.1248 53.8328L76.0674 53.8373L76.0096 53.8411L75.9518 53.8443L75.8936 53.8466L75.8354 53.8484L75.7769 53.8494L75.7177 53.8497L75.6412 53.8491L75.5648 53.8474L75.4891 53.8445L75.414 53.8405L75.3394 53.8352L75.2655 53.8288L75.192 53.8213L75.1198 53.8125L75.0475 53.8026L74.9759 53.7914L74.905 53.779L74.8347 53.7655L74.765 53.7507L74.696 53.7347L74.6276 53.7174L74.5599 53.6989L74.4928 53.6792L74.4265 53.6582L74.3609 53.636L74.296 53.6125L74.2319 53.5878L74.1685 53.562L74.1059 53.5348L74.0441 53.5064L73.9829 53.4768L73.9227 53.446L73.8634 53.4139L73.8048 53.3806L73.7472 53.3462L73.6903 53.3106L73.6344 53.2738L73.5789 53.2354L73.5175 53.1908L73.4577 53.1447L73.3996 53.0973L73.3433 53.0487L73.2888 52.9987L73.2361 52.9475L73.1854 52.895L73.1364 52.8413L73.0894 52.7864L73.0444 52.7303L73.0014 52.6731L72.9603 52.6146L72.9212 52.5551L72.8842 52.4945L72.8493 52.4328L72.8164 52.3702L72.7855 52.3066L72.7568 52.2419L72.7301 52.1763L72.7055 52.1099L72.6829 52.0425L72.6623 51.9743L72.6438 51.9053L72.6274 51.8356L72.6129 51.7649L72.6004 51.6936L72.5899 51.6215L72.5813 51.5487L72.5747 51.475L72.57 51.4007L72.5672 51.3256L72.5663 51.2517V47.3306H74.1844V51.0358L74.1843 51.0359ZM81.8433 49.4814H82.3369L85.873 47.3538H89.0125L84.0762 50.2502L89.211 53.7141H86.3611L82.3083 50.93H81.8433V53.7141H79.9964V47.3538H81.8433V49.4814H81.8433ZM91.4708 48.7801L91.432 48.781L91.394 48.7826L91.3569 48.7846L91.3207 48.7873L91.2854 48.7905L91.251 48.7942L91.2174 48.7986L91.1847 48.8034L91.1529 48.8087L91.122 48.8145L91.0918 48.8209L91.0626 48.8276L91.0342 48.8349L91.0066 48.8426L90.9797 48.8508L90.9536 48.8594L90.9283 48.8683L90.9038 48.8778L90.8799 48.8876L90.8567 48.8979L90.8341 48.9085L90.8122 48.9196L90.7909 48.9311L90.77 48.943L90.7498 48.9553L90.7301 48.9681L90.7108 48.9813L90.692 48.9951L90.6737 49.0093L90.6558 49.024L90.6384 49.0392L90.6217 49.0546L90.6056 49.0703L90.5901 49.0865L90.5751 49.1032L90.5605 49.1204L90.5462 49.1382L90.5326 49.1566L90.5192 49.1756L90.5064 49.1952L90.4939 49.2154L90.4819 49.2364L90.4702 49.2582L90.459 49.2805L90.4484 49.3037L90.4381 49.3277L90.4283 49.3525L90.4189 49.3782L90.4101 49.4046L90.4018 49.4319L90.394 49.4601L90.3866 49.489L90.38 49.5189L90.3738 49.5497L90.3683 49.5813L90.3633 49.6138L90.359 49.6472L90.3552 49.6815L90.3522 49.7166L90.3498 49.7527L90.3481 49.7897L90.3471 49.8274L90.3467 49.8676V51.2676L90.3471 51.3029L90.3481 51.3356L90.3499 51.3676L90.3522 51.3988L90.3554 51.4293L90.359 51.4591L90.3634 51.4881L90.3683 51.5164L90.3739 51.544L90.3801 51.5709L90.3869 51.5971L90.3941 51.6226L90.4019 51.6475L90.4103 51.6716L90.4193 51.6952L90.4287 51.7182L90.4387 51.7406L90.4492 51.7624L90.4602 51.7836L90.4717 51.8043L90.4837 51.8246L90.4963 51.8443L90.5094 51.8637L90.523 51.8825L90.5373 51.9011L90.552 51.9191L90.5674 51.9369L90.5834 51.9542L90.5999 51.9713L90.6172 51.9881L90.6351 52.0045L90.6541 52.021L90.674 52.0375L90.6946 52.0538L90.7154 52.0693L90.7361 52.0842L90.7572 52.0986L90.7784 52.1124L90.7999 52.1255L90.8215 52.1381L90.8434 52.1501L90.8656 52.1616L90.888 52.1727L90.9106 52.1831L90.9336 52.193L90.9569 52.2024L90.9805 52.2114L91.0045 52.2199L91.0288 52.2279L91.0535 52.2353L91.0787 52.2424L91.1043 52.2489L91.1303 52.2549L91.1568 52.2605L91.1839 52.2656L91.2114 52.2701L91.2394 52.2742L91.2679 52.2776L91.297 52.2808L91.3267 52.2832L91.357 52.2852L91.3877 52.2866L91.4191 52.2874L91.4533 52.2877H94.0722L94.1253 52.2873L94.1752 52.286L94.2236 52.284L94.2708 52.2812L94.3166 52.2776L94.361 52.2734L94.4042 52.2683L94.4459 52.2625L94.4864 52.2561L94.5255 52.249L94.5633 52.2413L94.5997 52.2329L94.6349 52.2239L94.6687 52.2143L94.7014 52.2042L94.7328 52.1935L94.7629 52.1823L94.7919 52.1706L94.8198 52.1585L94.8466 52.1458L94.8723 52.1327L94.8971 52.119L94.9209 52.1049L94.9438 52.0904L94.9658 52.0753L94.987 52.0595L95.0075 52.0434L95.0273 52.0266L95.0464 52.0092L95.0648 51.9911L95.0828 51.9723L95.1011 51.9517L95.1111 51.9399L95.1216 51.9268L95.1317 51.9137L95.1415 51.9006L95.1507 51.8875L95.1597 51.8742L95.1682 51.8608L95.1764 51.8475L95.1842 51.8339L95.1918 51.8203L95.1989 51.8065L95.2057 51.7926L95.2122 51.7786L95.2184 51.7644L95.2242 51.7501L95.2297 51.7356L95.2349 51.721L95.2399 51.7062L95.2444 51.6912L95.2487 51.6758L95.2526 51.6603L95.2562 51.6447L95.2596 51.6286L95.2625 51.6125L95.2651 51.5961L95.2674 51.5794L95.2694 51.5623L95.271 51.5451L95.2723 51.5276L95.2732 51.5098L95.2737 51.4916L95.2739 51.4714V50.9752H97V51.4522L96.9996 51.4958L96.9985 51.5406L96.9964 51.5851L96.9935 51.6294L96.9898 51.6734L96.9853 51.7172L96.9799 51.7608L96.9736 51.8041L96.9666 51.8473L96.9587 51.8901L96.9499 51.9328L96.9402 51.9751L96.9298 52.0172L96.9184 52.059L96.9063 52.0999L96.8932 52.1412L96.8792 52.1821L96.8644 52.2227L96.8488 52.263L96.8323 52.3029L96.8148 52.3425L96.7965 52.3818L96.7773 52.4207L96.7572 52.4593L96.7363 52.4976L96.7146 52.5354L96.692 52.5729L96.6686 52.6099L96.6444 52.6466L96.6193 52.6828L96.5934 52.7186L96.5664 52.7543L96.5196 52.8135L96.469 52.873L96.4161 52.9307L96.3609 52.9867L96.3034 53.0407L96.2439 53.0927L96.1822 53.1428L96.1184 53.1911L96.0526 53.2371L95.9849 53.2811L95.9153 53.323L95.8438 53.3629L95.7705 53.4006L95.6954 53.4362L95.6187 53.4698L95.5403 53.5012L95.4602 53.5306L95.3788 53.5579L95.2957 53.5832L95.2111 53.6064L95.1251 53.6277L95.0378 53.6469L94.9489 53.6642L94.8586 53.6796L94.7669 53.6932L94.6738 53.7048L94.5794 53.7146L94.4835 53.7226L94.3863 53.7287L94.2877 53.7331L94.1876 53.7357L94.0879 53.7366H91.4372L91.3568 53.7359L91.2761 53.7342L91.1962 53.7312L91.1174 53.727L91.0395 53.7217L90.9631 53.715L90.8871 53.7072L90.8121 53.6981L90.7381 53.6878L90.6649 53.6761L90.5927 53.6631L90.5216 53.6488L90.4515 53.6333L90.3822 53.6163L90.3141 53.598L90.2469 53.5782L90.1807 53.5571L90.1156 53.5346L90.0515 53.5107L89.9886 53.4852L89.9268 53.4584L89.8662 53.4301L89.8067 53.4004L89.7484 53.3693L89.6913 53.3367L89.6357 53.3026L89.5814 53.2671L89.5283 53.2302L89.4767 53.1918L89.4265 53.152L89.3778 53.1109L89.3308 53.0686L89.2861 53.0257L89.2428 52.982L89.2011 52.9372L89.1607 52.8915L89.1218 52.8446L89.0843 52.7968L89.0483 52.7481L89.0138 52.6983L88.9808 52.6477L88.9493 52.5962L88.9192 52.5437L88.8906 52.4906L88.8635 52.4364L88.8379 52.3815L88.8138 52.3258L88.7912 52.2693L88.77 52.2121L88.7505 52.1542L88.7322 52.0954L88.7154 52.036L88.7 51.9759L88.686 51.9151L88.6734 51.8535L88.662 51.7913L88.6522 51.7285L88.6437 51.6649L88.6365 51.6007L88.6307 51.5353L88.6261 51.4697L88.623 51.4035L88.6211 51.3365L88.6204 51.271V49.8644L88.6211 49.7992L88.6231 49.7334L88.6264 49.6681L88.6309 49.6035L88.6368 49.54L88.644 49.4766L88.6527 49.4138L88.6627 49.3516L88.674 49.29L88.6868 49.2291L88.701 49.1689L88.7166 49.1092L88.7337 49.0502L88.7521 48.9918L88.7719 48.9342L88.7934 48.8773L88.8161 48.8211L88.8403 48.7655L88.8661 48.7108L88.8933 48.6568L88.922 48.6036L88.9522 48.5512L88.9839 48.4996L89.017 48.4488L89.0516 48.3989L89.0876 48.35L89.1251 48.3019L89.164 48.2547L89.2043 48.2085L89.246 48.1632L89.289 48.1189L89.3327 48.0764L89.3804 48.0316L89.4314 47.9864L89.4838 47.9427L89.5378 47.9005L89.5929 47.8596L89.6496 47.8203L89.7076 47.7824L89.7669 47.7461L89.8274 47.7113L89.8892 47.6781L89.9522 47.6464L90.0164 47.6163L90.0817 47.5878L90.1481 47.5608L90.2156 47.5353L90.2842 47.5114L90.3537 47.4891L90.4244 47.4683L90.4961 47.449L90.5686 47.4312L90.6421 47.415L90.7165 47.4002L90.7919 47.3869L90.8682 47.3751L90.9454 47.3647L91.0234 47.3558L91.1024 47.3482L91.1823 47.342L91.263 47.3372L91.3446 47.3338L91.4277 47.3318L91.5087 47.3311H94.1116L94.1873 47.3316L94.2635 47.3333L94.3388 47.3359L94.4135 47.3396L94.4872 47.3444L94.5604 47.3502L94.6326 47.3571L94.704 47.3652L94.7741 47.3741L94.8441 47.3845L94.9132 47.3959L94.9814 47.4084L95.0489 47.422L95.1154 47.4369L95.1814 47.4528L95.2463 47.4701L95.3105 47.4884L95.3737 47.5081L95.4361 47.5289L95.4977 47.5509L95.5583 47.5742L95.618 47.5987L95.6768 47.6245L95.7346 47.6514L95.7913 47.6797L95.8472 47.7092L95.9019 47.74L95.9556 47.7719L96.0081 47.8051L96.0596 47.8395L96.1099 47.8751L96.1588 47.9117L96.2094 47.9516L96.2586 47.9923L96.3063 48.0339L96.3526 48.0765L96.3975 48.1199L96.4409 48.1642L96.4829 48.2094L96.5232 48.2555L96.5621 48.3023L96.5994 48.3501L96.6351 48.3987L96.6693 48.4481L96.7017 48.4983L96.7326 48.5493L96.7617 48.601L96.7892 48.6535L96.815 48.7067L96.8391 48.7605L96.8615 48.8149L96.8823 48.8701L96.9013 48.9258L96.9187 48.982L96.9342 49.0388L96.9482 49.0963L96.9605 49.1541L96.9711 49.2125L96.9799 49.2712L96.9871 49.3305L96.9927 49.3902L96.9968 49.4504L96.9991 49.511L96.9998 49.5699V50.0472H95.2737V49.5985L95.2734 49.5693L95.2725 49.5429L95.2709 49.5172L95.2687 49.4922L95.2659 49.468L95.2626 49.4444L95.2588 49.4215L95.2543 49.3993L95.2494 49.3778L95.244 49.3568L95.2381 49.3365L95.2318 49.3168L95.2249 49.2977L95.2177 49.2791L95.21 49.2611L95.2017 49.2435L95.1931 49.2264L95.184 49.2097L95.1745 49.1935L95.1645 49.1776L95.154 49.1621L95.143 49.1469L95.1314 49.132L95.1194 49.1174L95.1068 49.103L95.0936 49.0888L95.0799 49.0749L95.0654 49.0611L95.0504 49.0476L95.0345 49.0341L95.0179 49.0208L95.0007 49.0077L94.9827 48.9948L94.9643 48.9823L94.9453 48.9701L94.9258 48.9583L94.9058 48.9468L94.885 48.9356L94.8638 48.9249L94.8419 48.9144L94.8193 48.9042L94.796 48.8944L94.772 48.885L94.7473 48.8759L94.7218 48.8671L94.6957 48.8586L94.6687 48.8506L94.641 48.843L94.6125 48.8356L94.5831 48.8288L94.553 48.8223L94.5221 48.8163L94.4903 48.8106L94.4577 48.8054L94.4242 48.8006L94.39 48.7964L94.355 48.7926L94.319 48.7892L94.2823 48.7864L94.2446 48.7841L94.2063 48.7822L94.1669 48.7809L94.1268 48.7801L94.0845 48.7798L91.4706 48.7801L91.4708 48.7801ZM40.9381 51.1301L40.9399 51.2138L40.9448 51.2901L40.9528 51.3625L40.9639 51.4309L40.9779 51.4955L40.9945 51.5565L41.0137 51.6136L41.0353 51.6673L41.0594 51.7176L41.0855 51.7647L41.114 51.809L41.1447 51.8506L41.1779 51.8898L41.2135 51.927L41.2518 51.9621L41.2932 51.9957L41.3379 52.0275L41.3862 52.0579L41.4382 52.0867L41.4943 52.114L41.5547 52.1398L41.6196 52.1638L41.6891 52.1862L41.7634 52.2065L41.8423 52.225L41.9262 52.2411L42.015 52.2552L42.1085 52.2668L42.207 52.276L42.3101 52.2826L42.4181 52.2866L42.5336 52.288H45.0859L45.1403 52.2876L45.1924 52.2866L45.2434 52.2851L45.2933 52.2828L45.3422 52.2798L45.3903 52.2763L45.4373 52.2722L45.4833 52.2673L45.5283 52.262L45.5724 52.256L45.6154 52.2494L45.6575 52.2423L45.6986 52.2346L45.7387 52.2264L45.7779 52.2176L45.8161 52.2083L45.8533 52.1983L45.8896 52.188L45.9249 52.1771L45.9593 52.1657L45.9929 52.1539L46.0254 52.1415L46.0572 52.1287L46.0881 52.1155L46.1181 52.1017L46.1473 52.0875L46.1758 52.0728L46.2033 52.0577L46.2303 52.0422L46.2564 52.0261L46.2819 52.0096L46.3062 51.9929L46.3291 51.9763L46.3506 51.9594L46.3714 51.9422L46.3914 51.9245L46.4105 51.9064L46.429 51.8879L46.4468 51.8688L46.4638 51.8491L46.4803 51.8289L46.4961 51.808L46.5113 51.7865L46.5259 51.7644L46.5399 51.7414L46.5533 51.7177L46.5661 51.6933L46.5782 51.6679L46.5899 51.6418L46.6008 51.6148L46.6112 51.5868L46.6209 51.558L46.63 51.5281L46.6384 51.4973L46.646 51.4654L46.653 51.4328L46.6591 51.399L46.6645 51.3642L46.6692 51.3283L46.6731 51.2915L46.6761 51.2536L46.6783 51.2146L46.6796 51.1747L46.6801 51.132V49.9135L46.6796 49.8737L46.6783 49.8366L46.6763 49.8005L46.6734 49.7653L46.6697 49.7309L46.6653 49.6975L46.66 49.6649L46.654 49.6331L46.6474 49.6023L46.64 49.5723L46.632 49.5431L46.6233 49.5148L46.6139 49.4871L46.6039 49.4603L46.5931 49.4344L46.5819 49.409L46.5699 49.3844L46.5575 49.3604L46.5442 49.3372L46.5305 49.3145L46.5161 49.2925L46.5011 49.2708L46.4853 49.2498L46.469 49.2293L46.452 49.2093L46.4343 49.1897L46.4157 49.1705L46.3964 49.1518L46.3764 49.1332L46.3555 49.1152L46.3337 49.0975L46.3111 49.0802L46.2876 49.0631L46.2633 49.0465L46.2383 49.0304L46.2124 49.0148L46.1857 48.9994L46.1582 48.9848L46.1298 48.9704L46.1004 48.9564L46.0702 48.943L46.039 48.93L46.0069 48.9175L45.9736 48.9054L45.9394 48.8938L45.9043 48.8827L45.868 48.8721L45.8307 48.862L45.7924 48.8524L45.753 48.8434L45.7126 48.8349L45.6709 48.8271L45.6282 48.8197L45.5845 48.813L45.5397 48.8068L45.4939 48.8013L45.4467 48.7964L45.3987 48.792L45.3496 48.7884L45.2993 48.7854L45.2478 48.783L45.1955 48.7814L45.142 48.7804L45.086 48.7799H42.532L42.4729 48.7802L42.4164 48.7813L42.361 48.7828L42.3069 48.7851L42.254 48.7879L42.2021 48.7914L42.1517 48.7954L42.1025 48.8001L42.0543 48.8053L42.0075 48.8112L41.9618 48.8174L41.9175 48.8244L41.8743 48.8318L41.8324 48.8399L41.7917 48.8484L41.7523 48.8574L41.714 48.8668L41.6771 48.8767L41.6413 48.8871L41.6067 48.8979L41.5733 48.9091L41.5413 48.9208L41.5104 48.9328L41.4805 48.9451L41.4518 48.958L41.4243 48.971L41.3978 48.9843L41.3723 48.9981L41.3481 49.0122L41.3248 49.0265L41.3023 49.0412L41.281 49.0559L41.261 49.0708L41.2419 49.086L41.2235 49.1018L41.2058 49.1179L41.1886 49.1347L41.1721 49.1521L41.1561 49.17L41.1406 49.1885L41.1256 49.2079L41.1112 49.2279L41.0972 49.2487L41.0837 49.2703L41.0707 49.2929L41.0582 49.3162L41.0462 49.3405L41.0346 49.3657L41.0238 49.3919L41.0133 49.4191L41.0035 49.4474L40.9943 49.4767L40.9857 49.507L40.9777 49.5383L40.9705 49.5707L40.9638 49.6043L40.958 49.6389L40.9527 49.6746L40.9483 49.7115L40.9446 49.7493L40.9417 49.7883L40.9396 49.8283L40.9385 49.8695L40.938 49.9132V51.1302L40.9381 51.1301ZM30.7722 50.5452L30.825 51.1392L30.8256 51.1906L30.8268 51.2243L30.8287 51.2572L30.8313 51.2894L30.8347 51.3207L30.8388 51.3514L30.8436 51.3813L30.849 51.4106L30.8552 51.4392L30.862 51.467L30.8695 51.4942L30.8775 51.5208L30.8861 51.5467L30.8955 51.572L30.9054 51.5968L30.916 51.6209L30.9271 51.6445L30.9388 51.6676L30.9511 51.6901L30.9642 51.7122L30.9777 51.7338L30.9919 51.7551L31.0067 51.7759L31.0222 51.7963L31.0383 51.8163L31.0552 51.836L31.0729 51.8555L31.0912 51.8745L31.1102 51.8933L31.13 51.9119L31.1507 51.9301L31.172 51.9479L31.1971 51.9678L31.2224 51.9867L31.2487 52.005L31.2756 52.0228L31.3034 52.0401L31.3322 52.0568L31.3618 52.0731L31.3925 52.0888L31.4241 52.1039L31.4568 52.1186L31.4904 52.1328L31.5251 52.1464L31.5609 52.1595L31.5979 52.172L31.6359 52.184L31.6751 52.1954L31.7155 52.2062L31.757 52.2163L31.7997 52.2259L31.8436 52.2349L31.8886 52.2431L31.9349 52.2508L31.9824 52.2577L32.031 52.2639L32.0808 52.2695L32.1318 52.2743L32.184 52.2785L32.2375 52.2819L32.2921 52.2846L32.3479 52.2865L32.405 52.2876L32.4646 52.288H34.6423L34.7075 52.2877L34.7702 52.2868L34.8316 52.2851L34.8916 52.2829L34.9505 52.28L35.0081 52.2765L35.0644 52.2723L35.1194 52.2675L35.1731 52.2622L35.2256 52.2561L35.2766 52.2496L35.3264 52.2425L35.375 52.2349L35.4222 52.2267L35.4682 52.2179L35.5127 52.2086L35.556 52.1987L35.598 52.1885L35.6386 52.1777L35.678 52.1664L35.7161 52.1547L35.7528 52.1426L35.7883 52.13L35.8224 52.117L35.8553 52.1037L35.8871 52.0901L35.9175 52.076L35.9468 52.0616L35.9749 52.0469L36.0019 52.0318L36.0276 52.0165L36.0521 52.0009L36.0751 51.9854L36.097 51.9695L36.118 51.9533L36.138 51.9365L36.1574 51.9193L36.1761 51.9018L36.194 51.8835L36.2112 51.8648L36.2277 51.8455L36.2437 51.8254L36.259 51.8047L36.2737 51.7834L36.2879 51.7611L36.3014 51.7382L36.3145 51.7144L36.3269 51.6898L36.3387 51.6642L36.3499 51.6376L36.3605 51.6101L36.3704 51.5817L36.3796 51.5521L36.3882 51.5215L36.3961 51.4899L36.4032 51.4572L36.4096 51.4234L36.4152 51.3885L36.42 51.3525L36.4239 51.3155L36.4269 51.2773L36.4292 51.2381L36.4306 51.1977L36.4311 51.1543V49.9361L36.4305 49.8944L36.4292 49.8558L36.4269 49.8181L36.4238 49.7815L36.4198 49.746L36.4151 49.7114L36.4094 49.6779L36.4029 49.6454L36.3957 49.6138L36.3878 49.5832L36.3792 49.5536L36.3699 49.5249L36.3598 49.4971L36.3491 49.4702L36.3376 49.4442L36.3256 49.4191L36.3129 49.3947L36.2996 49.371L36.2856 49.3481L36.271 49.3259L36.2558 49.3043L36.2399 49.2833L36.2232 49.2629L36.2059 49.243L36.1879 49.2236L36.169 49.2047L36.1494 49.1863L36.1289 49.1683L36.1074 49.1507L36.0851 49.1335L36.0619 49.1166L36.0374 49.1L36.0117 49.0836L35.9847 49.0673L35.9567 49.0515L35.9277 49.0359L35.8976 49.0209L35.8664 49.0063L35.8342 48.992L35.8009 48.9781L35.7663 48.9647L35.7306 48.9517L35.6938 48.9392L35.6558 48.9271L35.6166 48.9155L35.5763 48.9044L35.5347 48.8939L35.4919 48.8838L35.4478 48.8742L35.4027 48.8652L35.3563 48.8568L35.3087 48.849L35.2598 48.8416L35.2097 48.8349L35.1585 48.8289L35.1061 48.8233L35.0524 48.8185L34.9976 48.8142L34.9415 48.8106L34.8843 48.8077L34.8259 48.8053L34.7663 48.8037L34.7055 48.8028L34.6424 48.8023H32.4784L32.4182 48.8028L32.3608 48.8038L32.3047 48.8057L32.2497 48.8081L32.1961 48.8114L32.1436 48.8153L32.0924 48.8199L32.0425 48.8251L31.9937 48.831L31.9463 48.8375L31.9 48.8448L31.8551 48.8525L31.8114 48.8609L31.7689 48.8699L31.7276 48.8795L31.6876 48.8897L31.6489 48.9003L31.6113 48.9115L31.5749 48.9232L31.5398 48.9354L31.5058 48.9482L31.473 48.9613L31.4412 48.9749L31.4107 48.989L31.3811 49.0035L31.3526 49.0185L31.3252 49.0339L31.2987 49.0498L31.2733 49.0659L31.2487 49.0827L31.225 49.0997L31.2016 49.1176L31.1784 49.1367L31.1556 49.1562L31.1338 49.176L31.1128 49.1961L31.0928 49.2163L31.0735 49.2369L31.0549 49.2578L31.0373 49.2791L31.0204 49.3006L31.0042 49.3224L30.9888 49.3446L30.974 49.3672L30.96 49.3903L30.9467 49.4137L30.934 49.4376L30.9221 49.4619L30.9108 49.4867L30.9002 49.5122L30.8901 49.5382L30.8809 49.5647L30.8723 49.5917L30.8644 49.6195L30.8572 49.6478L30.8506 49.6768L30.8448 49.7065L30.8396 49.7369L30.8353 49.7679L30.8317 49.7997L30.8289 49.8321L30.8269 49.8653L30.8256 49.8993L30.825 49.9511L30.7722 50.545V50.5452Z" fill="black"/>
</svg>
