<svg width="128" height="128" viewBox="0 0 128 128" fill="none" xmlns="http://www.w3.org/2000/svg">
<path d="M70.1463 52.2276C69.979 52.4752 69.2628 53.4724 67.8239 55.4735C67.3086 56.1896 66.9003 56.7987 66.9204 56.8254C66.9405 56.8589 67.5027 56.8857 68.1719 56.8857H69.39L69.6309 56.4975C69.7648 56.29 70.1998 55.6007 70.588 54.9649C71.3175 53.787 71.3978 53.7066 71.5517 54.0413C71.5919 54.135 71.8596 54.57 72.1407 55.0117C72.7698 56.0022 73.1045 56.3168 73.9076 56.6715C74.3225 56.8589 75.6611 56.966 75.7481 56.8188C75.7682 56.7853 75.3599 56.1428 74.8379 55.3999C74.3158 54.6503 73.7938 53.9074 73.68 53.7401C73.5662 53.5728 73.4391 53.3988 73.3989 53.3586C73.3521 53.3118 73.2517 53.1645 73.1647 53.024C73.0844 52.8834 72.8836 52.5957 72.723 52.3815L72.4285 52H71.3643H70.2935L70.1463 52.2276Z" fill="#5852B0"/>
<path d="M18.8935 52.4426C18.2376 52.4894 17.1199 52.7236 16.4841 52.9512C15.9621 53.1386 15.5806 53.326 15.0452 53.6606C12.6492 55.1665 12.174 58.0845 14.0212 59.925C14.5432 60.447 14.831 60.6478 15.5404 61.0025C16.1829 61.3238 17.2069 61.6517 17.9231 61.7722C18.1439 61.8123 18.4919 61.8659 18.6927 61.906C18.8935 61.9395 19.4356 61.9997 19.8974 62.0466C22.8154 62.3143 24.3748 62.9702 24.9638 64.1749C25.2114 64.6701 25.2248 65.4465 24.9972 65.9418C24.6225 66.7716 23.3575 67.6618 22.1395 67.9429C21.0552 68.1972 19.2683 68.2842 18.4785 68.1236C16.8321 67.7889 15.8282 67.3004 15.0318 66.437C14.6302 66.002 14.2019 65.654 13.7736 65.413C13.3988 65.2056 12.6224 64.9847 12.2476 64.9847H12L12.0402 65.2658C12.3681 67.5145 14.1751 69.2413 16.9861 69.9908C18.1774 70.3121 20.0982 70.4326 21.256 70.2719C23.3174 69.9775 24.8634 69.268 26.0614 68.07C27.0118 67.1197 27.3932 66.2697 27.3932 65.1052C27.3932 63.5859 26.7976 62.5151 25.4524 61.6316C24.2744 60.8553 22.6816 60.427 19.9978 60.1659C16.9058 59.8648 15.266 58.9278 15.159 57.4019C15.072 56.1838 16.1093 55.1665 17.8695 54.7315C18.3648 54.611 18.6659 54.5909 19.7301 54.5842C20.8478 54.5842 21.0753 54.6043 21.604 54.7382C22.6615 55.0059 23.6185 55.5413 24.1071 56.1302C24.3882 56.4582 24.7831 57.2814 24.7831 57.5223V57.7097L25.6063 57.6629C26.0547 57.6428 26.5633 57.6026 26.744 57.5826C27.0452 57.5424 27.0586 57.529 27.0586 57.3282C27.0586 56.5586 26.3559 55.1799 25.6063 54.4637C24.8032 53.7008 23.6319 53.065 22.5076 52.7638C21.5639 52.5095 19.971 52.3689 18.8935 52.4426Z" fill="#5852B0"/>
<path d="M60.1207 53.9812C59.7258 54.0415 59.0164 54.1485 58.6148 54.2155L58.1798 54.2891V56.0627C58.1798 57.1536 58.153 57.8831 58.1129 57.9634C58.046 58.0839 57.9523 58.0906 56.4732 58.0906H54.9004V58.9606V59.8307L56.5267 59.844L58.1464 59.8641L58.1798 64.3817L58.2133 68.8993L58.394 69.2674C58.7219 69.93 59.2908 70.3851 60.0002 70.5792C60.1943 70.626 60.3951 70.6729 60.4353 70.6729C60.5022 70.6729 60.5223 69.5217 60.5357 65.2651L60.5557 59.8641L62.2155 59.844L63.8686 59.8307V58.9606V58.0906L62.2155 58.0772L60.5557 58.0571L60.5357 55.9957C60.5156 53.7336 60.5557 53.921 60.1207 53.9812Z" fill="#5852B0"/>
<path d="M47.4045 58.2575C46.3203 58.4382 45.4637 58.8398 44.8212 59.4756C44.0716 60.2051 43.7169 61.2224 43.8842 62.1259C44.192 63.759 45.7046 64.7762 48.1407 64.9904C49.9478 65.1443 50.3761 65.1912 50.7041 65.2782C51.7414 65.5526 52.2233 65.9943 52.2233 66.6703C52.2233 67.5738 51.0655 68.2431 49.312 68.3635C48.2077 68.4372 46.7821 68.2163 45.5707 67.7746C44.5869 67.4199 43.9578 67.373 43.5161 67.614C43.1948 67.7947 42.8736 68.1494 42.8401 68.3635C42.8133 68.5309 43.322 68.8856 44.1586 69.2938C45.6176 70.0033 47.1703 70.3379 48.9573 70.3379C50.3025 70.3379 51.2462 70.1438 52.2032 69.682C53.5886 69.0127 54.2913 67.9084 54.2177 66.5364C54.1374 65.1109 53.2138 64.1137 51.5473 63.6452C50.9851 63.4912 49.5462 63.3105 48.8301 63.3105C47.8597 63.3105 46.742 62.9759 46.2802 62.5543C45.7715 62.0858 45.8318 61.2893 46.414 60.8008C47.2774 60.0713 49.2049 59.8973 51.1993 60.3724C51.882 60.5331 52.7654 60.8677 53.1603 61.1086C53.3209 61.209 53.4815 61.276 53.5083 61.2626C53.5351 61.2425 53.5618 60.8409 53.5618 60.3657C53.5618 59.3886 53.6288 59.5091 52.8926 59.1142C51.467 58.3446 49.0978 57.9765 47.4045 58.2575Z" fill="#5852B0"/>
<path d="M70.1932 58.2581C68.868 58.4321 67.6633 58.8738 66.6126 59.5833C66.1709 59.8844 65.3343 60.7411 65.0398 61.2029C63.5473 63.5387 63.9355 66.5236 65.9768 68.4043C67.8173 70.0975 70.8089 70.7467 73.7403 70.0774C75.3265 69.716 76.9194 68.7389 77.8429 67.5543C78.1575 67.146 78.0571 67.0925 76.993 67.0992C76.23 67.1059 76.1028 67.126 75.6812 67.2933C75.4269 67.4004 75.1056 67.5543 74.9785 67.6413C74.2356 68.1232 72.6829 68.5314 71.5652 68.5314C70.7554 68.5314 69.6377 68.3173 69.042 68.0562C68.8814 67.9826 68.7275 67.9291 68.694 67.9291C68.5936 67.9291 67.7303 67.32 67.4358 67.0389C67.2818 66.8917 67.0543 66.6173 66.9204 66.4299C66.646 66.0217 66.3181 65.2252 66.3716 65.0847C66.4051 64.9977 67.148 64.9843 72.4888 64.9843H78.5658L78.6461 64.5158C78.7532 63.9068 78.7465 63.6524 78.626 63.0367C78.5189 62.4678 78.3181 61.8856 78.0705 61.4372C77.4213 60.2592 76.1965 59.2486 74.8111 58.7467C73.2986 58.1979 71.8597 58.0439 70.1932 58.2581ZM72.8033 60.0651C74.6037 60.3864 75.8217 61.2899 76.2635 62.6285C76.3304 62.8292 76.3839 63.1103 76.3839 63.2576V63.5119H71.3577H66.3315L66.3716 63.3245C66.3984 63.2241 66.539 62.8962 66.6862 62.5883C67.3019 61.3234 68.5401 60.4332 70.1597 60.0986C70.8691 59.9514 72.0805 59.9313 72.8033 60.0651Z" fill="#5852B0"/>
<path d="M86.1218 58.2582C84.9706 58.4657 83.8864 59.1484 83.3041 60.0318C83.2037 60.179 83.0967 60.2995 83.0699 60.2995C83.0364 60.2995 83.0097 59.9381 83.0097 59.4964V58.6933H81.9723H80.9282L80.9483 63.3246L80.9684 67.9627L81.1759 68.3977C81.5172 69.1272 82.2802 69.6961 83.0163 69.7831L83.3443 69.8232V66.1155C83.3443 63.7195 83.3711 62.314 83.4179 62.14C83.5451 61.6581 83.7459 61.29 84.0939 60.9286C84.7364 60.2527 85.4257 59.9649 86.4162 59.9649C87.0989 59.9649 87.467 60.0519 88.0091 60.3196C88.4508 60.5471 88.9862 61.1428 89.1803 61.6247C89.3276 61.9995 89.3343 62.0597 89.3477 64.6832C89.3543 66.1556 89.3811 67.5209 89.4012 67.7217C89.5083 68.7323 90.4252 69.676 91.4157 69.7898L91.7102 69.8232V66.3497C91.7102 64.3821 91.7436 62.6754 91.7771 62.4144C91.9444 61.2833 92.7208 60.42 93.8987 60.0653C94.3739 59.918 95.4179 59.9314 95.8797 60.092C96.6628 60.3664 97.2116 60.8215 97.5462 61.4908C97.7002 61.8054 97.7002 61.8321 97.7403 64.7836C97.7604 66.4501 97.8072 67.8623 97.8474 67.9961C98.1084 68.9197 98.9249 69.6559 99.8017 69.7764L100.143 69.8232V65.9147C100.143 62.8762 100.123 61.8991 100.049 61.5377C99.621 59.3491 97.7604 58.0374 95.2908 58.1846C94.4341 58.2382 93.9054 58.372 93.2361 58.7066C92.607 59.0212 91.911 59.6637 91.5964 60.2192L91.3889 60.5806L91.148 60.1724C90.8468 59.6771 90.3047 59.135 89.8228 58.8405C88.8457 58.2582 87.3867 58.024 86.1218 58.2582Z" fill="#5852B0"/>
<path d="M108.676 58.2317C105.952 58.5597 103.764 60.0254 102.9 62.1068C102.599 62.843 102.485 63.4253 102.485 64.2351C102.485 65.8681 102.987 67.0728 104.172 68.2708C106.073 70.1983 109.727 70.8877 112.725 69.8837C114.151 69.4086 115.369 68.5787 116.205 67.5279C116.507 67.1531 116.393 67.0929 115.376 67.0929C114.425 67.0996 113.829 67.2669 113.16 67.7287C113.127 67.7488 112.899 67.8559 112.665 67.9629C110.878 68.7393 108.623 68.6991 106.903 67.8492C105.885 67.3472 104.861 66.1358 104.721 65.2658L104.674 64.9847H110.771C115.576 64.9847 116.881 64.9646 116.922 64.8977C117.015 64.7571 117.029 63.3115 116.942 62.9099C116.781 62.1737 116.627 61.7923 116.232 61.1698C115.041 59.2758 112.571 58.1313 109.78 58.1648C109.432 58.1715 108.937 58.1983 108.676 58.2317ZM111.152 60.0655C112.324 60.273 113.073 60.6344 113.763 61.3305C114.372 61.9395 114.733 62.6757 114.733 63.2914V63.5123H109.707H104.681L104.727 63.3048C104.995 62.0934 106.247 60.8084 107.619 60.3332C108.623 59.9852 110.088 59.8714 111.152 60.0655Z" fill="#5852B0"/>
<path d="M27.728 58.7199C27.728 58.7601 28.1162 59.3892 28.5178 60.0183C28.9729 60.721 29.8697 62.1198 29.9567 62.267C30.0035 62.3407 30.1642 62.595 30.3248 62.8292C30.4787 63.0635 30.6059 63.2643 30.6059 63.2843C30.6059 63.2977 30.7063 63.4516 30.8268 63.6257C30.9405 63.8064 31.0744 63.9938 31.1078 64.0607C31.148 64.1209 31.5228 64.7032 31.9444 65.3591C32.3661 66.015 32.7275 66.5838 32.7409 66.6173C32.7543 66.6575 32.7877 66.7043 32.8078 66.7244C32.8881 66.7846 34.4207 69.2074 34.4207 69.2676C34.4207 69.3412 34.2467 69.6491 33.6377 70.6865C33.1023 71.5967 32.7877 72.1455 32.5602 72.547C32.4732 72.7144 32.3728 72.875 32.346 72.9151C32.3192 72.9486 32.2255 73.1025 32.1452 73.2498C32.0649 73.397 31.9177 73.6513 31.824 73.812L31.6566 74.1064L32.4531 74.073C33.1558 74.0462 33.2964 74.0194 33.631 73.8588C34.1664 73.5911 34.4609 73.2498 35.1168 72.1522C35.4313 71.6301 35.6924 71.1817 35.6924 71.1683C35.6924 71.155 35.8262 70.9341 35.9935 70.6731C36.1608 70.4121 36.2947 70.1912 36.2947 70.1711C36.2947 70.1577 36.4085 69.957 36.5557 69.7227C36.81 69.3078 37.1179 68.7924 38.6706 66.1555C39.1056 65.4193 39.6879 64.4422 39.9623 63.9804C40.2367 63.5186 40.5178 63.0501 40.578 62.943C40.6383 62.8292 40.906 62.3808 41.1737 61.9458C41.4347 61.5041 41.6489 61.136 41.6489 61.1226C41.6489 61.1092 41.7292 60.9753 41.8296 60.8147C42.0772 60.4198 43.0543 58.7534 43.0543 58.7199C43.0543 58.7065 42.4988 58.6931 41.8229 58.6931H40.5914L40.3639 59.0746C40.2367 59.2888 39.7013 60.1722 39.1726 61.0356C38.6505 61.8989 38.1687 62.6954 38.1017 62.8091C38.0415 62.9162 37.5529 63.7194 37.0309 64.5827C36.5022 65.4461 35.9801 66.3161 35.8664 66.5035C35.7526 66.6976 35.6321 66.8582 35.592 66.8582C35.5585 66.8582 35.2105 66.3697 34.8223 65.7673C34.4408 65.1717 33.5172 63.7662 32.781 62.6418C32.0381 61.5175 31.1547 60.1722 30.8134 59.6435L30.1909 58.6931H28.9595C28.2835 58.6931 27.728 58.7065 27.728 58.7199Z" fill="#5852B0"/>
<path d="M59.2505 77.7671V84.1318L59.7725 84.1118L60.2879 84.0917L60.3079 77.747L60.3213 71.409H59.7859H59.2505V77.7671Z" fill="#5852B0"/>
<path d="M89.2005 72.326C89.0533 72.3461 88.9127 72.3929 88.886 72.4331C88.8592 72.4799 88.8324 73.1693 88.8324 73.9657V75.4247L87.1793 75.4381L85.5195 75.4582V75.8263V76.1944L87.1726 76.2145L88.8324 76.2279L88.8458 80.1632L88.8659 84.0918H89.3678H89.8698L89.8899 80.1565L89.9033 76.2279H91.543H93.1827V75.8263V75.4247H91.543H89.9033V73.8519V72.2792L89.6891 72.2925C89.5686 72.2992 89.3478 72.3126 89.2005 72.326Z" fill="#5852B0"/>
<path d="M104.199 73.0492C103.764 73.2767 103.69 73.6917 104.032 73.9795C104.319 74.2204 104.641 74.2137 104.902 73.9594C105.21 73.6515 105.129 73.2566 104.721 73.0559C104.44 72.922 104.44 72.922 104.199 73.0492Z" fill="#5852B0"/>
<path d="M51.0855 75.3984C49.7939 75.5657 48.5557 76.1547 47.766 76.9779C46.9361 77.8413 46.5278 78.8251 46.5345 79.9629C46.5479 81.7632 47.7124 83.3494 49.5462 84.0521C50.2021 84.3064 50.5167 84.38 51.3533 84.467C53.5083 84.6879 55.5764 83.9316 56.7944 82.4659L57.0488 82.1581L56.8881 82.0711C56.7944 82.0242 56.6003 81.9707 56.4531 81.9439C56.2122 81.9037 56.172 81.9238 56.0716 82.0777C55.7972 82.4927 54.7331 83.182 54.017 83.4163C53.2607 83.6572 53.0331 83.6907 52.056 83.684C51.1659 83.6773 50.9852 83.6572 50.4564 83.4966C50.1352 83.4029 49.6868 83.2222 49.4592 83.1017C48.964 82.8407 48.201 82.138 47.9534 81.7297C47.766 81.4018 47.4715 80.612 47.4715 80.4246C47.4715 80.3176 47.7526 80.3109 52.3839 80.3109C57.0086 80.3109 57.3031 80.3042 57.3365 80.1904C57.5039 79.6014 57.3633 78.5842 57.022 77.9216C56.4129 76.7303 55.3823 75.9807 53.7292 75.5189C53.3945 75.4252 51.5407 75.3449 51.0855 75.3984ZM53.8296 76.3622C54.9606 76.7236 55.8575 77.4598 56.2256 78.3298C56.3929 78.7247 56.5133 79.4475 56.433 79.5479C56.3193 79.6885 47.5518 79.6885 47.4983 79.5479C47.4046 79.2936 47.8664 78.2227 48.3014 77.6806C48.7029 77.1921 49.5328 76.65 50.2289 76.4224C50.9048 76.2015 51.1926 76.1681 52.2902 76.1882C53.167 76.2015 53.4079 76.2283 53.8296 76.3622Z" fill="#5852B0"/>
<path d="M66.8133 75.3975C65.4747 75.6317 64.7252 75.9329 63.8886 76.5888C62.6839 77.5325 62.0481 79.0517 62.2622 80.4906C62.4496 81.7689 63.1457 82.8264 64.2701 83.5559C64.8858 83.9508 65.274 84.1181 66.0436 84.3122C66.6125 84.4527 66.8668 84.4795 67.7503 84.4795C68.6739 84.4795 68.8613 84.4594 69.4569 84.2988C70.2868 84.0779 71.2037 83.6362 71.7257 83.2079C72.1206 82.8933 72.7363 82.1973 72.6828 82.1437C72.6627 82.1237 72.4954 82.0567 72.308 81.9831L71.9667 81.8626L71.6789 82.1638C70.8423 83.0606 69.5908 83.6094 68.1652 83.6964C66.5724 83.7968 65.1669 83.335 64.2232 82.4048C63.9689 82.1571 63.6878 81.8158 63.5941 81.6485C63.4402 81.3607 63.226 80.765 63.1858 80.4773C63.1658 80.3434 63.2126 80.3434 68.0849 80.3099L72.9974 80.2765L73.0576 80.0088C73.1312 79.6607 73.0643 78.8242 72.9304 78.436C72.4552 77.0573 71.3242 76.0801 69.651 75.5916C69.149 75.4443 68.8947 75.4109 68.018 75.3908C67.4491 75.3774 66.907 75.3774 66.8133 75.3975ZM69.5908 76.388C71.0966 76.89 72.0604 77.9742 72.1139 79.2056L72.134 79.6072L67.69 79.6273C65.2405 79.634 63.2193 79.6206 63.1858 79.5871C63.1122 79.5135 63.2996 78.871 63.5406 78.3824C63.8016 77.847 64.5578 77.0774 65.1066 76.7829C65.535 76.562 66.3783 76.2541 66.7129 76.2006C66.8267 76.1872 67.3956 76.1805 67.9845 76.1872C68.9416 76.2073 69.1089 76.2274 69.5908 76.388Z" fill="#5852B0"/>
<path d="M79.6968 75.3975C77.1402 75.7522 75.4536 77.2313 75.1123 79.4131C74.8781 80.8922 75.6343 82.5386 76.9729 83.4689C77.9902 84.1783 79.0677 84.4728 80.6003 84.4795C81.6979 84.4795 82.1664 84.3992 83.0633 84.0378L83.4447 83.8838L83.4648 83.4689C83.4782 83.2213 83.4581 83.0539 83.418 83.0539C83.3778 83.0539 83.177 83.1276 82.9696 83.2213C82.1597 83.576 81.6913 83.6764 80.7677 83.6831C78.2378 83.6964 76.4174 82.4248 76.0694 80.3969C75.9824 79.895 75.9824 79.7879 76.0828 79.3395C76.2568 78.5631 76.5245 78.0746 77.0733 77.5325C77.8162 76.803 78.6661 76.4081 79.8574 76.2274C80.8814 76.0734 82.3404 76.2541 83.0833 76.6289C83.4648 76.8297 83.4849 76.8163 83.4648 76.3478L83.4447 75.9329L82.9428 75.7522C82.6684 75.6585 82.2936 75.5447 82.1062 75.4979C81.7716 75.4109 80.0783 75.3439 79.6968 75.3975Z" fill="#5852B0"/>
<path d="M98.6372 75.4247C97.6065 75.6389 96.6696 76.4019 96.2546 77.3455C96.2011 77.466 96.1408 77.5664 96.1141 77.5664C96.0806 77.5664 96.0605 77.1581 96.0605 76.6629V75.7594H95.592H95.1235L95.1369 79.9222L95.157 84.0918H95.6255H96.094L96.1341 81.582C96.1609 79.9222 96.2011 78.9786 96.2546 78.8046C96.529 77.8943 96.7566 77.4861 97.225 77.0444C98.2089 76.1141 99.6077 76.0137 101.006 76.7633C101.201 76.8704 101.395 76.944 101.428 76.9239C101.468 76.8971 101.569 76.7231 101.656 76.5357L101.816 76.1944L101.636 76.0472C101.528 75.9602 101.194 75.7861 100.879 75.6523C100.371 75.4448 100.23 75.4113 99.6077 75.3913C99.2195 75.3779 98.7844 75.3913 98.6372 75.4247Z" fill="#5852B0"/>
<path d="M113.094 75.3981C112.518 75.4584 111.434 75.793 110.932 76.0741C109.787 76.7032 108.951 77.7272 108.636 78.8716C108.576 79.0791 108.542 79.5141 108.549 80.0094C108.556 80.7054 108.576 80.8795 108.73 81.2877C108.978 81.9503 109.198 82.3251 109.6 82.7668C110.289 83.5231 111.246 84.0451 112.431 84.3329C113.154 84.5069 114.747 84.5404 115.336 84.3998C115.838 84.2794 116.688 83.9916 116.795 83.9113C116.895 83.8242 116.908 83.0546 116.808 83.0546C116.768 83.0546 116.607 83.1215 116.453 83.1951C116.172 83.3424 116.072 83.3758 115.403 83.5699C114.834 83.7372 113.381 83.7105 112.692 83.5298C111.782 83.2888 111.092 82.9073 110.517 82.3251C109.975 81.7763 109.707 81.3279 109.546 80.6787C109.285 79.6279 109.613 78.4366 110.396 77.6201C111.374 76.6028 112.866 76.0875 114.526 76.1879C115.322 76.2347 115.771 76.3284 116.4 76.5894C116.641 76.6831 116.841 76.7634 116.855 76.7634C116.868 76.7634 116.875 76.5827 116.875 76.3619C116.875 75.9068 116.841 75.8733 116.105 75.6591C115.884 75.5989 115.617 75.5186 115.503 75.4784C115.289 75.4115 113.542 75.3513 113.094 75.3981Z" fill="#5852B0"/>
<path d="M103.958 79.9422V84.1318L104.446 84.1118L104.928 84.0917L104.948 79.9221L104.962 75.7593H104.46H103.958V79.9422Z" fill="#5852B0"/>
</svg>
