<svg width="128" height="128" viewBox="0 0 128 128" fill="none" xmlns="http://www.w3.org/2000/svg">
<path d="M7 48.2856V52.5603H12.24H17.4799V68.2801V84H22.7199H27.9598V68.2801V52.5603H33.1998H38.4122L38.5776 51.6502C38.6604 51.1813 38.7155 49.2784 38.6604 47.4582L38.5776 44.1488L22.8026 44.066L7 44.0109V48.2856Z" fill="#5852B0"/>
<path d="M44.2312 64.0054V84H52.8633C63.7294 84 66.046 83.6691 69.4657 81.6558C71.0101 80.7733 73.5474 78.043 74.4023 76.3331C75.8088 73.5752 75.9467 72.3894 75.9467 64.0054C75.9467 53.6358 75.5055 51.926 72.0305 48.3683C70.1828 46.4378 66.8457 44.7555 64.0879 44.3142C63.095 44.1488 58.2412 44.0109 53.277 44.0109H44.2312V64.0054ZM62.2401 53.2222C63.5915 53.8013 64.8601 55.2906 65.1634 56.6971C65.522 58.2139 65.5495 69.6591 65.2186 71.1483C64.9152 72.4169 63.6742 74.0441 62.5435 74.6232C61.9919 74.899 60.6681 75.0645 58.2412 75.1197L54.7111 75.23V63.8675V52.5327L58.0481 52.6982C59.8683 52.7809 61.7713 53.0291 62.2401 53.2222Z" fill="#5852B0"/>
<path d="M81.9038 44.8934C81.6832 45.969 81.7107 82.1798 81.9314 83.2278L82.0693 84H87.2816H92.494L92.5492 74.5129L92.6319 64.9983L95.5277 69.7418L98.4234 74.4853L101.898 74.5681L105.373 74.6508L106.559 72.6376C107.193 71.5344 108.49 69.3833 109.427 67.894L111.11 65.1637L111.192 74.5957L111.248 84H116.46H121.645L121.838 82.9796C122.058 81.5731 122.058 50.6849 121.81 46.9342L121.645 44.0109L116.543 44.066L111.441 44.1488L108.572 49.3887C106.973 52.2569 104.849 56.2282 103.801 58.1863L101.926 61.7164L99.83 57.9105C98.6992 55.787 96.5481 51.8156 95.0588 49.0578L92.3561 44.0384L87.2265 44.0109H82.0968L81.9038 44.8934Z" fill="#5852B0"/>
</svg>
