<svg width="128" height="128" viewBox="0 0 128 128" fill="none" xmlns="http://www.w3.org/2000/svg">
<path d="M20.5339 52.8977C20.579 52.9017 20.6242 52.9057 20.6707 52.9099C21.823 53.0144 22.9523 53.1968 24.0768 53.4726C23.9091 53.6738 23.7404 53.871 23.5561 54.0571C23.5165 54.0972 23.4769 54.1372 23.4361 54.1786C23.3943 54.2205 23.3526 54.2625 23.3096 54.3058C23.2661 54.3497 23.2226 54.3937 23.1778 54.439C23.0399 54.5784 22.9018 54.7176 22.7637 54.8567C22.6697 54.9516 22.5757 55.0465 22.4818 55.1415C22.2524 55.3732 22.0228 55.6048 21.7931 55.8363C21.8773 55.8364 21.8773 55.8364 21.9631 55.8365C22.4932 55.8373 23.0233 55.8395 23.5534 55.843C23.8259 55.8448 24.0983 55.8461 24.3708 55.8463C24.6341 55.8465 24.8973 55.848 25.1606 55.8503C25.2607 55.851 25.3608 55.8512 25.461 55.851C25.6019 55.8507 25.7427 55.8521 25.8836 55.8538C25.9245 55.8533 25.9654 55.8529 26.0075 55.8524C26.632 55.865 27.0161 56.2573 27.4324 56.6861C27.4869 56.7412 27.5414 56.7962 27.5959 56.8513C27.7429 56.9997 27.889 57.149 28.035 57.2984C28.1886 57.4553 28.3428 57.6115 28.497 57.7678C28.7557 58.0302 29.0139 58.2931 29.2718 58.5563C29.6346 58.9265 29.9983 59.2959 30.3621 59.6651C30.6151 59.922 30.868 60.179 31.1208 60.4362C31.1818 60.4982 31.2428 60.5603 31.3038 60.6223C31.4779 60.7993 31.6518 60.9764 31.8255 61.1537C31.8779 61.2071 31.9304 61.2606 31.9829 61.314C32.2389 61.5743 32.4888 61.8365 32.7252 62.1152C32.8561 62.2661 32.9965 62.4068 33.1378 62.5477C33.1689 62.5789 33.2 62.6102 33.232 62.6423C33.2987 62.7093 33.3654 62.7762 33.4322 62.8431C33.5379 62.949 33.6435 63.0551 33.7489 63.1613C34.0485 63.463 34.3484 63.7644 34.6487 64.0653C34.833 64.25 35.017 64.4351 35.2007 64.6204C35.2706 64.6908 35.3407 64.761 35.4108 64.8311C35.5087 64.9288 35.6061 65.027 35.7034 65.1254C35.7324 65.1541 35.7614 65.1828 35.7912 65.2123C35.9987 65.4235 36.0931 65.5798 36.1202 65.8755C36.0862 66.2743 35.8927 66.5159 35.6348 66.8003C35.5863 66.8549 35.5863 66.8549 35.5367 66.9106C35.4283 67.0321 35.3192 67.1529 35.21 67.2736C35.1318 67.3608 35.0536 67.4479 34.9754 67.535C34.2535 68.3369 33.5163 69.1245 32.7751 69.9081C32.6754 70.0136 32.5757 70.1191 32.4761 70.2247C32.4513 70.2509 32.4266 70.2771 32.4011 70.3042C32.0543 70.672 31.7142 71.0452 31.3787 71.4235C27.8529 75.4 27.8529 75.4 25.7628 75.5466C24.8614 75.5911 23.9641 75.4924 23.0743 75.3536C22.4892 75.2626 21.9162 75.2309 21.3245 75.2304C21.2644 75.2304 21.2644 75.2304 21.2031 75.2303C21.0157 75.2304 20.8282 75.2315 20.6407 75.2331C20.299 75.2354 19.9575 75.227 19.6159 75.2195C19.5051 75.2173 19.3944 75.2151 19.2836 75.213C19.2066 75.2114 19.1297 75.2098 19.0527 75.2082C19.2938 74.9145 19.5524 74.6442 19.8199 74.3751C19.8634 74.3311 19.9069 74.2871 19.9517 74.2418C20.0896 74.1024 20.2277 73.9633 20.3658 73.8241C20.4598 73.7292 20.5537 73.6343 20.6477 73.5394C20.8771 73.3076 21.1067 73.076 21.3364 72.8446C21.2796 72.8445 21.2229 72.8444 21.1645 72.8443C20.6284 72.8435 20.0923 72.8413 19.5563 72.8378C19.2807 72.836 19.0052 72.8347 18.7296 72.8345C18.4634 72.8343 18.1972 72.8328 17.931 72.8305C17.8297 72.8298 17.7284 72.8296 17.6271 72.8299C16.8361 72.8313 16.3988 72.7499 15.8204 72.1722C15.7343 72.0843 15.6487 71.9958 15.5631 71.9074C15.5021 71.8453 15.4411 71.7833 15.3801 71.7214C15.2204 71.559 15.0615 71.3958 14.9027 71.2325C14.7736 71.0999 14.6439 70.9679 14.5142 70.836C14.3583 70.6773 14.2026 70.5184 14.047 70.3594C14.0178 70.3296 13.9886 70.2998 13.9585 70.2691C13.8749 70.1836 13.7914 70.0979 13.708 70.0121C13.672 69.9753 13.672 69.9753 13.6352 69.9377C13.505 69.8033 13.381 69.6656 13.26 69.5225C13.0159 69.238 12.75 68.9753 12.486 68.7101C12.4282 68.6518 12.3704 68.5935 12.3126 68.5352C12.1888 68.4104 12.065 68.2857 11.9412 68.1611C11.7452 67.9639 11.5495 67.7664 11.3539 67.5689C10.7977 67.0075 10.2414 66.4464 9.68454 65.8857C9.37643 65.5755 9.0686 65.2651 8.76106 64.9543C8.56673 64.7579 8.37207 64.5619 8.17716 64.3662C8.05604 64.2444 7.93523 64.1222 7.81452 64C7.75858 63.9435 7.7025 63.8871 7.64629 63.8308C7.56945 63.7539 7.49309 63.6765 7.41683 63.599C7.37402 63.5559 7.33121 63.5127 7.2871 63.4683C7.10872 63.257 7.00342 63.053 7.00297 62.7732C7.00199 62.7318 7.00101 62.6905 7 62.6479C7.0593 62.3378 7.33095 62.0737 7.52705 61.8369C7.55689 61.8008 7.58673 61.7646 7.61747 61.7273C8.70774 60.409 9.83701 59.1273 10.9963 57.8712C11.0691 57.7923 11.1418 57.7133 11.2144 57.6343C13.9207 54.6972 16.3169 52.5121 20.5339 52.8977ZM21.2139 56.3649C21.1829 56.3963 21.152 56.4277 21.1201 56.46C21.0844 56.496 21.0488 56.532 21.0121 56.569C20.9726 56.6092 20.933 56.6494 20.8923 56.6908C20.8506 56.733 20.8089 56.7752 20.7659 56.8186C20.6496 56.9363 20.5335 57.0541 20.4174 57.1719C20.2923 57.2987 20.1671 57.4254 20.042 57.5521C19.825 57.7718 19.608 57.9916 19.3912 58.2115C19.0776 58.5294 18.7639 58.8471 18.4502 59.1649C17.9412 59.6803 17.4324 60.1958 16.9237 60.7114C16.4293 61.2125 15.9349 61.7134 15.4404 62.2143C15.41 62.2451 15.3795 62.276 15.3482 62.3078C15.1954 62.4625 15.0426 62.6173 14.8898 62.7721C13.6214 64.0569 12.3532 65.3419 11.0851 66.627C11.2315 66.7011 11.3565 66.6839 11.5201 66.683C11.5548 66.6829 11.5895 66.6827 11.6253 66.6826C11.7421 66.6821 11.859 66.6812 11.9759 66.6803C12.0595 66.6799 12.1431 66.6795 12.2268 66.6791C12.4549 66.6779 12.6831 66.6765 12.9112 66.6749C13.1515 66.6734 13.3917 66.672 13.6319 66.6707C14.0372 66.6684 14.4424 66.6658 14.8477 66.6632C15.3116 66.6601 15.7754 66.6574 16.2393 66.6548C16.6887 66.6524 17.1381 66.6497 17.5875 66.6469C17.7769 66.6457 17.9662 66.6446 18.1555 66.6435C18.3813 66.6423 18.6071 66.6408 18.8329 66.6392C18.9141 66.6387 18.9953 66.6382 19.0765 66.6378C19.9657 66.6333 20.853 66.6014 21.7424 66.5756C21.7424 68.5087 21.7424 70.4418 21.7424 72.4335C22.0267 72.1884 22.0267 72.1884 22.2959 71.9309C22.331 71.8954 22.3662 71.8599 22.4025 71.8234C22.4399 71.7853 22.4774 71.7473 22.516 71.708C22.5567 71.6669 22.5974 71.6258 22.6394 71.5834C22.7752 71.4461 22.9108 71.3086 23.0464 71.1712C23.1439 71.0725 23.2414 70.9738 23.339 70.8751C23.576 70.6354 23.8129 70.3955 24.0497 70.1556C24.2421 69.9607 24.4345 69.7659 24.6269 69.5711C24.6543 69.5433 24.6817 69.5156 24.71 69.487C24.7657 69.4306 24.8214 69.3742 24.8771 69.3178C25.3987 68.7898 25.9201 68.2617 26.4415 67.7335C26.8893 67.2799 27.3371 66.8265 27.7851 66.3731C28.3054 65.8466 28.8256 65.3199 29.3457 64.7932C29.4011 64.7371 29.4565 64.681 29.5119 64.6249C29.5391 64.5973 29.5664 64.5697 29.5944 64.5413C29.7869 64.3464 29.9793 64.1516 30.1718 63.9569C30.406 63.7199 30.6401 63.4828 30.8741 63.2456C30.9936 63.1245 31.1131 63.0034 31.2327 62.8825C31.362 62.7516 31.4912 62.6207 31.6203 62.4897C31.6586 62.4511 31.6969 62.4124 31.7363 62.3726C31.7705 62.3378 31.8048 62.303 31.8401 62.2671C31.8849 62.2217 31.8849 62.2218 31.9306 62.1755C31.9993 62.1147 31.9993 62.1147 31.9936 62.0538C31.1404 62.0522 30.2872 62.0512 29.434 62.0506C29.3701 62.0505 29.3062 62.0505 29.2404 62.0505C26.6053 62.0489 23.9713 62.073 21.3364 62.1052C21.3364 60.189 21.3364 58.2729 21.3364 56.2987C21.2757 56.293 21.2757 56.293 21.2139 56.3649Z" fill="#5852B0"/>
<path d="M43.03 55.3569C44.1865 55.3569 45.3429 55.3569 46.5345 55.3569C46.5345 57.7826 46.5345 60.2083 46.5345 62.7075C46.812 62.6173 46.812 62.6173 47.0404 62.4734C47.0945 62.434 47.0945 62.434 47.1497 62.3938C47.1876 62.3656 47.2255 62.3374 47.2645 62.3083C47.3248 62.2641 47.3248 62.2641 47.3863 62.219C47.509 62.1289 47.6313 62.0381 47.7534 61.9471C47.7884 61.921 47.8234 61.8949 47.8595 61.868C48.0256 61.7442 48.1913 61.6199 48.3569 61.4954C48.7051 61.2339 49.0568 60.977 49.4079 60.7194C49.6099 60.5711 49.8117 60.4227 50.0135 60.2742C50.0939 60.215 50.1743 60.1559 50.2547 60.0968C50.2945 60.0675 50.3343 60.0382 50.3753 60.008C54.5972 56.9031 54.5972 56.9031 54.7179 56.8143C54.7979 56.7555 54.8778 56.6966 54.9578 56.6378C55.1658 56.4849 55.3737 56.332 55.5818 56.1791C55.6247 56.1476 55.6677 56.116 55.7119 56.0835C55.7933 56.0237 55.8747 55.9638 55.9562 55.9041C55.9934 55.8767 56.0307 55.8493 56.069 55.8211C56.1012 55.7975 56.1334 55.7738 56.1665 55.7495C56.2823 55.6667 56.2823 55.6667 56.3678 55.5871C56.649 55.3473 56.8603 55.3141 57.2232 55.3224C57.2748 55.3224 57.3264 55.3223 57.3795 55.3223C57.5488 55.3225 57.718 55.3248 57.8873 55.3272C58.0052 55.3278 58.123 55.3282 58.2408 55.3285C58.5501 55.3297 58.8594 55.3327 59.1686 55.336C59.4846 55.3392 59.8005 55.3405 60.1165 55.3421C60.7357 55.3453 61.355 55.3505 61.9742 55.3569C61.828 55.5044 61.6866 55.6435 61.5183 55.7654C61.4806 55.793 61.4428 55.8205 61.4039 55.8489C61.3437 55.8924 61.3437 55.8924 61.2822 55.9367C61.1953 56 61.1084 56.0633 61.0215 56.1266C60.9773 56.1588 60.933 56.1909 60.8874 56.224C60.6819 56.3735 60.4774 56.5243 60.2728 56.675C60.1924 56.7341 60.112 56.7933 60.0316 56.8524C59.9917 56.8817 59.9519 56.9109 59.9109 56.9411C54.7241 60.7558 54.7241 60.7558 54.6035 60.8445C54.5232 60.9036 54.4429 60.9626 54.3626 61.0217C54.1597 61.1709 53.9568 61.3201 53.7538 61.469C53.3777 61.7451 53.0022 62.0218 52.6291 62.3019C52.3764 62.4916 52.1232 62.6804 51.8688 62.8677C51.7878 62.9275 51.7068 62.9874 51.626 63.0474C51.4182 63.201 51.2086 63.3499 50.9933 63.493C50.9509 63.5218 50.9085 63.5506 50.8648 63.5803C50.7838 63.635 50.7021 63.6886 50.6196 63.7409C50.4238 63.874 50.4238 63.874 50.3053 64.0726C50.2921 64.1931 50.3002 64.2668 50.3436 64.3804C50.4573 64.5189 50.5938 64.6143 50.7404 64.7162C50.7815 64.7464 50.8226 64.7766 50.865 64.8077C50.9951 64.903 51.1264 64.9965 51.2578 65.0901C51.3791 65.1786 51.5 65.2677 51.6208 65.3569C51.7009 65.4159 51.7811 65.4747 51.8613 65.5333C52.1803 65.7666 52.4929 66.0074 52.8042 66.2507C53.0775 66.4641 53.3536 66.6732 53.6318 66.8803C53.9212 67.0959 54.2085 67.3141 54.4956 67.5328C54.77 67.7419 55.0444 67.9508 55.3209 68.157C55.5974 68.3632 55.8718 68.5722 56.1462 68.7812C56.4627 69.0222 56.7796 69.2625 57.0985 69.5004C57.4643 69.7733 57.8276 70.0496 58.1907 70.3261C58.4642 70.5344 58.7386 70.7412 59.0142 70.9467C59.2963 71.1579 59.576 71.3723 59.8564 71.5857C60.133 71.7963 60.4105 72.0055 60.6892 72.2133C60.9757 72.4277 61.2597 72.6456 61.544 72.8629C61.5878 72.8963 61.6317 72.9297 61.6768 72.9642C61.7397 73.0121 61.7397 73.0121 61.8039 73.0611C61.9122 73.1419 62.0221 73.2189 62.1335 73.2953C62.1815 73.3311 62.2295 73.3669 62.279 73.4038C62.279 73.4372 62.279 73.4707 62.279 73.5052C61.5937 73.5217 60.9085 73.5343 60.2231 73.5419C59.9048 73.5456 59.5866 73.5506 59.2683 73.5587C58.9604 73.5665 58.6526 73.5707 58.3446 73.5725C58.2278 73.5738 58.1111 73.5763 57.9944 73.5802C57.1534 73.6069 56.6664 73.4538 56.0372 72.8895C55.8566 72.7305 55.6643 72.5867 55.4733 72.4406C55.3976 72.3816 55.322 72.3225 55.2465 72.2634C55.011 72.0805 54.7712 71.9037 54.5305 71.7277C54.1172 71.4257 53.7094 71.1172 53.3032 70.8056C52.7095 70.3503 52.1136 69.8986 51.5094 69.4572C51.1968 69.228 50.8907 68.9913 50.5855 68.7524C50.3168 68.5428 50.0443 68.339 49.7691 68.138C49.244 67.7544 48.7272 67.3604 48.2105 66.9657C48.018 66.8188 47.8254 66.672 47.6328 66.5253C47.589 66.4919 47.5452 66.4585 47.5002 66.4241C47.3817 66.3338 47.2629 66.2442 47.1439 66.1546C47.0942 66.1162 47.0942 66.1162 47.0435 66.0771C46.8622 65.9408 46.7651 65.8965 46.5345 65.8505C46.5345 68.3765 46.5345 70.9026 46.5345 73.5052C45.378 73.5052 44.2215 73.5052 43.03 73.5052C43.03 67.5162 43.03 61.5273 43.03 55.3569Z" fill="#5852B0"/>
<path d="M78.9724 57.6425C79.3153 57.973 79.5945 58.3344 79.8537 58.7317C79.889 58.7855 79.9242 58.8392 79.9605 58.8946C80.9463 60.4994 81.0408 62.3154 81.0336 64.1403C81.0327 64.3602 81.0332 64.58 81.0341 64.7999C81.0422 67.2 80.6633 69.4017 78.908 71.1786C77.5767 72.4826 75.7728 73.1366 73.9522 73.417C73.9043 73.4246 73.8564 73.4323 73.807 73.4401C72.903 73.5763 71.9991 73.5814 71.0866 73.5825C71.0279 73.5827 70.9692 73.5828 70.9088 73.583C69.8973 73.5847 68.8818 73.5525 67.8837 73.3764C67.8341 73.3679 67.7846 73.3594 67.7335 73.3507C65.6973 72.9879 63.6426 72.1335 62.4129 70.4112C61.4719 69.0482 61.2917 67.6632 61.2917 66.0244C62.4569 66.0244 63.6221 66.0244 64.8226 66.0244C64.8725 66.6178 64.8725 66.6178 64.9234 67.2232C65.1813 68.2233 65.643 69.0086 66.5375 69.5709C67.9256 70.3811 69.4992 70.532 71.0803 70.5293C71.1341 70.5292 71.1341 70.5292 71.1891 70.5291C72.939 70.5242 74.8328 70.3289 76.1409 69.053C76.206 68.9879 76.206 68.9879 76.2725 68.9215C76.322 68.875 76.322 68.875 76.3726 68.8275C77.0845 68.1063 77.3503 67.0125 77.4202 66.04C77.4326 65.9245 77.4326 65.9245 77.4831 65.7747C74.154 65.7747 70.8249 65.7747 67.395 65.7747C67.395 64.7857 67.395 63.7966 67.395 62.7777C70.7074 62.7777 74.0198 62.7777 77.4326 62.7777C77.2329 61.3931 76.9537 60.2626 75.8118 59.384C75.1976 58.9472 74.5344 58.6846 73.8009 58.5194C73.7675 58.5119 73.7341 58.5043 73.6997 58.4966C73.5825 58.4721 73.4651 58.4516 73.347 58.432C73.295 58.4231 73.2431 58.4141 73.1895 58.4049C72.5596 58.3114 71.9287 58.3153 71.2928 58.3163C71.1008 58.3165 70.9089 58.3153 70.7169 58.3141C69.0009 58.3096 67.1062 58.494 65.7953 59.712C65.0549 60.474 64.9415 61.4107 64.873 62.428C63.6912 62.428 62.5094 62.428 61.2917 62.428C61.2917 61.316 61.2917 61.316 61.3516 60.9201C61.3583 60.8744 61.365 60.8286 61.3719 60.7814C61.6045 59.2995 62.3963 57.9396 63.613 57.0363C66.908 54.6876 72.6273 54.6233 78.9724 57.6425Z" fill="#5852B0"/>
<path d="M112.165 54.8361C114.869 54.7867 117.903 54.9159 120.11 56.6768C120.144 56.7031 120.178 56.7293 120.213 56.7564C120.976 57.3734 121.384 58.2959 121.559 59.243C121.679 60.4063 121.557 61.4848 120.848 62.4407C120.789 62.511 120.729 62.5801 120.667 62.648C120.615 62.7059 120.615 62.7059 120.562 62.765C120.203 63.1438 119.804 63.429 119.336 63.6566C119.24 63.7141 119.24 63.7141 119.212 63.8292C119.208 63.8605 119.203 63.8917 119.199 63.9239C119.25 63.9309 119.25 63.9309 119.303 63.9381C119.489 63.9841 119.648 64.0656 119.816 64.1568C119.85 64.175 119.883 64.1932 119.918 64.212C120.211 64.3757 120.469 64.5647 120.718 64.7915C120.757 64.826 120.796 64.8605 120.836 64.896C121.265 65.2988 121.542 65.7825 121.75 66.329C121.762 66.3606 121.774 66.3923 121.786 66.4249C121.975 66.9551 122.002 67.4857 122 68.0451C122 68.0789 122 68.1128 122 68.1477C121.993 69.4772 121.588 70.5617 120.641 71.5074C119.864 72.2558 118.85 72.7033 117.832 73.0083C117.772 73.0262 117.772 73.0262 117.711 73.0445C116.971 73.2602 116.215 73.3749 115.452 73.4676C115.377 73.4768 115.377 73.4768 115.3 73.4862C114.449 73.584 113.592 73.5802 112.736 73.5825C112.68 73.5827 112.623 73.583 112.565 73.5833C109.867 73.5932 106.944 73.2384 104.919 71.2731C104.882 71.2402 104.846 71.2073 104.808 71.1734C104.136 70.5476 103.738 69.665 103.485 68.7947C103.473 68.7525 103.46 68.7104 103.448 68.6669C103.204 67.7759 103.248 66.9513 103.248 66.0164C104.417 66.0164 105.587 66.0164 106.792 66.0164C106.817 66.5469 106.817 66.5469 106.843 67.0881C106.977 68.0571 107.239 68.8956 108.008 69.5379C108.597 69.9695 109.241 70.2117 109.948 70.3672C109.983 70.3749 110.017 70.3826 110.053 70.3906C110.884 70.5581 111.722 70.575 112.567 70.5719C112.742 70.5713 112.917 70.5719 113.093 70.5725C113.92 70.5731 114.74 70.5378 115.553 70.3704C115.594 70.362 115.635 70.3535 115.678 70.3448C116.578 70.1475 117.552 69.7888 118.119 69.0142C118.44 68.4699 118.464 67.8218 118.326 67.2131C118.218 66.8615 118.062 66.5631 117.781 66.3226C117.744 66.2889 117.708 66.2552 117.67 66.2205C116.655 65.4927 115.37 65.5414 114.183 65.5359C114.051 65.535 113.919 65.534 113.787 65.5329C113.478 65.5306 113.169 65.5287 112.859 65.527C112.472 65.5248 112.085 65.522 111.697 65.5192C111.007 65.5142 110.318 65.5101 109.628 65.506C109.628 64.5292 109.628 63.5524 109.628 62.5459C110.032 62.544 110.436 62.5421 110.851 62.5402C111.109 62.5386 111.366 62.537 111.623 62.5353C112.03 62.5325 112.437 62.5299 112.844 62.5283C113.173 62.5269 113.502 62.5249 113.83 62.5223C113.955 62.5215 114.08 62.5209 114.205 62.5206C115.378 62.5172 116.597 62.4542 117.518 61.6177C117.917 61.1822 117.993 60.672 117.984 60.0962C117.953 59.5942 117.762 59.1863 117.401 58.8363C116.762 58.3161 115.97 58.1253 115.179 57.9942C115.128 57.9857 115.077 57.9771 115.024 57.9683C114.28 57.8527 113.537 57.84 112.787 57.8411C112.742 57.8411 112.697 57.8412 112.651 57.8412C111.078 57.8449 109.256 57.93 108.008 59.0245C107.971 59.057 107.933 59.0895 107.895 59.123C107.065 59.9032 107.042 60.8887 106.995 61.9846C105.809 61.9846 104.622 61.9846 103.4 61.9846C103.4 60.274 103.567 58.8339 104.666 57.4934C104.724 57.4217 104.724 57.4217 104.784 57.3485C106.305 55.5766 108.83 55.0508 111.038 54.8794C111.413 54.8537 111.789 54.8443 112.165 54.8361Z" fill="#5852B0"/>
<path d="M89.5191 55.3213C91.0524 55.3213 92.5857 55.3213 94.1655 55.3213C94.5201 56.065 94.8713 56.8051 95.2131 57.554C95.4726 58.1193 95.7437 58.6788 96.0152 59.2383C96.0385 59.2863 96.0618 59.3343 96.0857 59.3837C96.1768 59.5714 96.2678 59.759 96.3589 59.9467C96.6697 60.5874 96.974 61.231 97.2736 61.8771C97.3402 62.0206 97.4069 62.164 97.4735 62.3075C97.4987 62.3618 97.4987 62.3618 97.5244 62.4172C97.8104 63.0324 98.1029 63.6443 98.3983 64.2549C98.4293 64.3188 98.4293 64.3188 98.4608 64.384C98.5412 64.5501 98.6216 64.7162 98.7019 64.8822C99.0057 65.5101 99.3037 66.1405 99.5972 66.7733C99.6637 66.9165 99.7302 67.0598 99.7967 67.203C99.8219 67.2574 99.8219 67.2574 99.8477 67.3129C100.151 67.966 100.463 68.6146 100.777 69.2625C101.056 69.8371 101.328 70.4139 101.592 70.9956C101.752 71.3458 101.916 71.6931 102.084 72.0393C102.105 72.0825 102.126 72.1256 102.148 72.1701C102.252 72.3845 102.356 72.5987 102.461 72.8127C102.499 72.8907 102.537 72.9688 102.575 73.0468C102.602 73.1007 102.602 73.1007 102.629 73.1557C102.702 73.3059 102.751 73.4078 102.751 73.5773C101.551 73.5773 100.351 73.5773 99.1149 73.5773C98.8541 73.0506 98.5949 72.5236 98.3415 71.9933C98.3084 71.9241 98.2753 71.8549 98.2422 71.7858C97.9591 71.1939 97.6783 70.6008 97.3977 70.0077C97.1977 69.587 96.9977 69.1663 96.7917 68.7328C91.8418 68.7076 91.8418 68.7076 86.7919 68.6818C86.7419 68.8333 86.6919 68.9847 86.6404 69.1408C86.5903 69.2553 86.5379 69.3689 86.4829 69.4812C86.4681 69.5117 86.4533 69.5423 86.4381 69.5738C86.4064 69.639 86.3746 69.7042 86.3428 69.7693C86.2569 69.9446 86.1721 70.1205 86.0872 70.2963C86.0699 70.3321 86.0526 70.3678 86.0348 70.4046C85.8681 70.7504 85.7076 71.0989 85.5482 71.4483C85.3226 71.942 85.0934 72.4338 84.8601 72.9239C84.8317 72.9837 84.8034 73.0434 84.7742 73.1049C84.7481 73.1595 84.722 73.2141 84.6952 73.2703C84.6721 73.3186 84.6491 73.367 84.6253 73.4168C84.5697 73.5263 84.5697 73.5263 84.5192 73.5773C84.4107 73.5821 84.3021 73.5833 84.1936 73.5831C84.1426 73.5831 84.1426 73.5831 84.0906 73.5831C83.9777 73.5831 83.8648 73.5827 83.752 73.5823C83.6739 73.5822 83.5959 73.5821 83.5178 73.582C83.312 73.5818 83.1062 73.5813 82.9003 73.5808C82.6904 73.5803 82.4806 73.58 82.2707 73.5798C81.8586 73.5792 81.4465 73.5784 81.0344 73.5773C81.0702 73.3815 81.123 73.2254 81.2104 73.0464C81.2365 72.9925 81.2625 72.9386 81.2894 72.883C81.3178 72.825 81.3461 72.767 81.3753 72.7072C81.4358 72.5822 81.496 72.4572 81.5562 72.3321C81.5794 72.284 81.5794 72.284 81.6031 72.235C81.7619 71.9046 81.9145 71.5714 82.0666 71.2379C82.3044 70.7177 82.5483 70.2008 82.7962 69.6854C83.0425 69.173 83.2816 68.6574 83.518 68.1402C83.7048 67.7324 83.896 67.3269 84.0899 66.9225C84.3132 66.4571 84.5318 65.9897 84.7465 65.5202C84.9875 64.993 85.2345 64.4691 85.4852 63.9465C85.6797 63.5401 85.8691 63.1316 86.0564 62.7218C86.2942 62.2016 86.5381 61.6847 86.786 61.1693C87.0324 60.6569 87.2715 60.1413 87.5078 59.6241C87.6946 59.2163 87.8858 58.8108 88.0797 58.4064C88.3333 57.8777 88.5809 57.3464 88.8246 56.813C89.0526 56.314 89.286 55.8181 89.5191 55.3213ZM91.5898 58.5339C91.3027 59.0489 91.0538 59.5785 90.8092 60.1151C90.5642 60.6524 90.3139 61.187 90.062 61.7211C89.9798 61.8955 89.8976 62.0699 89.8154 62.2444C89.795 62.2877 89.7746 62.331 89.7536 62.3756C89.5017 62.9103 89.2514 63.4457 89.0014 63.9812C88.8538 64.2973 88.7061 64.6133 88.5566 64.9284C88.5347 64.9746 88.5128 65.0208 88.4902 65.0684C88.4518 65.1495 88.4132 65.2304 88.3744 65.3113C88.2862 65.4844 88.2862 65.4844 88.2565 65.6731C90.6065 65.6731 92.9564 65.6731 95.3776 65.6731C95.1054 65.0389 95.1054 65.0389 94.8137 64.415C94.7959 64.3782 94.778 64.3414 94.7596 64.3035C94.7219 64.226 94.6843 64.1486 94.6465 64.0712C94.3552 63.4736 94.068 62.8747 93.793 62.2693C93.4766 61.5734 93.1437 60.886 92.8096 60.1988C92.7683 60.1137 92.727 60.0287 92.6857 59.9437C92.6657 59.9026 92.6458 59.8615 92.6252 59.8192C92.4689 59.4966 92.3168 59.1722 92.1675 58.8462C92.0983 58.6785 92.0983 58.6785 91.9938 58.5339C91.8589 58.5267 91.7249 58.5318 91.5898 58.5339Z" fill="#5852B0"/>
</svg>
