<svg xmlns="http://www.w3.org/2000/svg" viewBox="0 0 1600 900" width="1600" height="900"><defs>
  <linearGradient id="bg" x1="0" y1="0" x2="1" y2="1">
    <stop offset="0" stop-color="#141833"/><stop offset="0.5" stop-color="#191436"/>
    <stop offset="1" stop-color="#0D1026"/></linearGradient>
  <radialGradient id="glowB" cx="0.5" cy="0.5" r="0.5">
    <stop offset="0" stop-color="#3B82F6" stop-opacity="0.55"/><stop offset="1" stop-color="#3B82F6" stop-opacity="0"/></radialGradient>
  <radialGradient id="glowV" cx="0.5" cy="0.5" r="0.5">
    <stop offset="0" stop-color="#8B5CF6" stop-opacity="0.5"/><stop offset="1" stop-color="#8B5CF6" stop-opacity="0"/></radialGradient>
  <linearGradient id="glass" x1="0" y1="0" x2="1" y2="1">
    <stop offset="0" stop-color="#ffffff" stop-opacity="0.16"/><stop offset="1" stop-color="#ffffff" stop-opacity="0.04"/></linearGradient>
  <linearGradient id="c_blue" x1="0" y1="0" x2="1" y2="1"><stop offset="0" stop-color="#3B82F6"/><stop offset="1" stop-color="#6366F1"/></linearGradient><linearGradient id="c_violet" x1="0" y1="0" x2="1" y2="1"><stop offset="0" stop-color="#8B5CF6"/><stop offset="1" stop-color="#6D28D9"/></linearGradient><linearGradient id="c_cyan" x1="0" y1="0" x2="1" y2="1"><stop offset="0" stop-color="#06B6D4"/><stop offset="1" stop-color="#3B82F6"/></linearGradient><linearGradient id="c_emer" x1="0" y1="0" x2="1" y2="1"><stop offset="0" stop-color="#22C55E"/><stop offset="1" stop-color="#0EA5E9"/></linearGradient><linearGradient id="c_amber" x1="0" y1="0" x2="1" y2="1"><stop offset="0" stop-color="#F59E0B"/><stop offset="1" stop-color="#F97316"/></linearGradient><linearGradient id="c_orange" x1="0" y1="0" x2="1" y2="1"><stop offset="0" stop-color="#F97316"/><stop offset="1" stop-color="#EA580C"/></linearGradient><linearGradient id="c_red" x1="0" y1="0" x2="1" y2="1"><stop offset="0" stop-color="#EF4444"/><stop offset="1" stop-color="#DC2626"/></linearGradient><linearGradient id="c_teal" x1="0" y1="0" x2="1" y2="1"><stop offset="0" stop-color="#14B8A6"/><stop offset="1" stop-color="#0D9488"/></linearGradient>
  <filter id="soft" x="-40%" y="-40%" width="180%" height="180%"><feGaussianBlur stdDeviation="7"/></filter>
  <filter id="blur30" x="-60%" y="-60%" width="220%" height="220%"><feGaussianBlur stdDeviation="36"/></filter>
</defs><rect width="1600" height="900" rx="26" fill="url(#bg)"/><circle cx="330" cy="230" r="380" fill="url(#glowB)" filter="url(#blur30)"/><circle cx="1300" cy="720" r="400" fill="url(#glowV)" filter="url(#blur30)"/><circle cx="800" cy="470" r="300" fill="#EF4444" opacity="0.14" filter="url(#blur30)"/><circle cx="663" cy="154" r="2" fill="#fff" opacity="0.05"/><circle cx="148" cy="840" r="1" fill="#fff" opacity="0.12"/><circle cx="1193" cy="59" r="1" fill="#fff" opacity="0.05"/><circle cx="176" cy="444" r="2" fill="#fff" opacity="0.05"/><circle cx="492" cy="92" r="2" fill="#fff" opacity="0.05"/><circle cx="1158" cy="126" r="1" fill="#fff" opacity="0.05"/><circle cx="1181" cy="599" r="2" fill="#fff" opacity="0.05"/><circle cx="452" cy="47" r="1" fill="#fff" opacity="0.12"/><circle cx="858" cy="147" r="1" fill="#fff" opacity="0.12"/><circle cx="1147" cy="835" r="1" fill="#fff" opacity="0.05"/><circle cx="1191" cy="584" r="1" fill="#fff" opacity="0.12"/><circle cx="199" cy="560" r="1" fill="#fff" opacity="0.05"/><circle cx="1267" cy="210" r="2" fill="#fff" opacity="0.16"/><circle cx="1591" cy="321" r="2" fill="#fff" opacity="0.16"/><circle cx="740" cy="306" r="1" fill="#fff" opacity="0.08"/><circle cx="1431" cy="798" r="1" fill="#fff" opacity="0.05"/><circle cx="1176" cy="307" r="2" fill="#fff" opacity="0.12"/><circle cx="1493" cy="459" r="1.5" fill="#fff" opacity="0.05"/><circle cx="241" cy="524" r="2" fill="#fff" opacity="0.08"/><circle cx="1550" cy="350" r="1" fill="#fff" opacity="0.16"/><circle cx="863" cy="40" r="1" fill="#fff" opacity="0.12"/><circle cx="696" cy="711" r="1.5" fill="#fff" opacity="0.16"/><circle cx="1187" cy="816" r="2" fill="#fff" opacity="0.05"/><circle cx="191" cy="276" r="2" fill="#fff" opacity="0.05"/><circle cx="124" cy="748" r="1.5" fill="#fff" opacity="0.16"/><circle cx="582" cy="733" r="2" fill="#fff" opacity="0.12"/><circle cx="46" cy="472" r="1.5" fill="#fff" opacity="0.08"/><circle cx="1251" cy="119" r="2" fill="#fff" opacity="0.05"/><circle cx="446" cy="786" r="1.5" fill="#fff" opacity="0.08"/><circle cx="1512" cy="253" r="2" fill="#fff" opacity="0.16"/><circle cx="1016" cy="82" r="1" fill="#fff" opacity="0.16"/><circle cx="822" cy="562" r="1.5" fill="#fff" opacity="0.08"/><circle cx="881" cy="884" r="1.5" fill="#fff" opacity="0.16"/><circle cx="734" cy="699" r="2" fill="#fff" opacity="0.08"/><circle cx="309" cy="84" r="1" fill="#fff" opacity="0.08"/><circle cx="475" cy="674" r="1" fill="#fff" opacity="0.05"/><circle cx="993" cy="851" r="1" fill="#fff" opacity="0.12"/><circle cx="577" cy="4" r="1" fill="#fff" opacity="0.16"/><circle cx="1094" cy="378" r="1.5" fill="#fff" opacity="0.08"/><circle cx="1414" cy="879" r="1" fill="#fff" opacity="0.16"/><circle cx="1597" cy="895" r="2" fill="#fff" opacity="0.16"/><circle cx="817" cy="403" r="1" fill="#fff" opacity="0.16"/><circle cx="1299" cy="410" r="1" fill="#fff" opacity="0.08"/><circle cx="137" cy="213" r="2" fill="#fff" opacity="0.08"/><circle cx="225" cy="348" r="1" fill="#fff" opacity="0.05"/><circle cx="0" cy="580" r="1" fill="#fff" opacity="0.05"/><circle cx="744" cy="628" r="1" fill="#fff" opacity="0.05"/><circle cx="425" cy="628" r="2" fill="#fff" opacity="0.08"/><circle cx="1299" cy="258" r="1.5" fill="#fff" opacity="0.12"/><circle cx="971" cy="125" r="1" fill="#fff" opacity="0.16"/><circle cx="954" cy="491" r="2" fill="#fff" opacity="0.12"/><circle cx="175" cy="147" r="1" fill="#fff" opacity="0.12"/><circle cx="1516" cy="271" r="2" fill="#fff" opacity="0.08"/><circle cx="1057" cy="23" r="1" fill="#fff" opacity="0.12"/><circle cx="300" cy="706" r="1" fill="#fff" opacity="0.12"/><circle cx="1316" cy="884" r="1" fill="#fff" opacity="0.12"/><circle cx="1061" cy="375" r="1" fill="#fff" opacity="0.12"/><circle cx="1580" cy="228" r="1.5" fill="#fff" opacity="0.08"/><circle cx="1255" cy="830" r="1" fill="#fff" opacity="0.08"/><circle cx="820" cy="757" r="1" fill="#fff" opacity="0.08"/><circle cx="1060" cy="504" r="1.5" fill="#fff" opacity="0.05"/><circle cx="57" cy="809" r="1.5" fill="#fff" opacity="0.16"/><circle cx="530" cy="198" r="1.5" fill="#fff" opacity="0.16"/><circle cx="1480" cy="357" r="1.5" fill="#fff" opacity="0.05"/><circle cx="451" cy="104" r="1" fill="#fff" opacity="0.16"/><circle cx="402" cy="345" r="1" fill="#fff" opacity="0.16"/><circle cx="1278" cy="624" r="1" fill="#fff" opacity="0.16"/><circle cx="1337" cy="352" r="1" fill="#fff" opacity="0.05"/><circle cx="795" cy="801" r="1" fill="#fff" opacity="0.16"/><circle cx="365" cy="444" r="1.5" fill="#fff" opacity="0.05"/><circle cx="1478" cy="405" r="2" fill="#fff" opacity="0.16"/><circle cx="1522" cy="86" r="1" fill="#fff" opacity="0.08"/><circle cx="260" cy="28" r="1" fill="#fff" opacity="0.16"/><circle cx="1343" cy="149" r="2" fill="#fff" opacity="0.12"/><circle cx="319" cy="561" r="1" fill="#fff" opacity="0.05"/><circle cx="29" cy="818" r="1" fill="#fff" opacity="0.08"/><circle cx="888" cy="892" r="1" fill="#fff" opacity="0.08"/><circle cx="57" cy="257" r="1" fill="#fff" opacity="0.12"/><circle cx="1026" cy="246" r="1.5" fill="#fff" opacity="0.12"/><circle cx="1114" cy="429" r="1" fill="#fff" opacity="0.05"/><polygon points="800.0,170.0 1319.6,470.0 800.0,770.0 280.4,470.0" fill="#EF4444" opacity="0.06"/><polygon points="800.0,170.0 1319.6,470.0 800.0,770.0 280.4,470.0" fill="none" stroke="#EF4444" stroke-opacity="0.18" stroke-width="1.5"/><line x1="800.0" y1="170.0" x2="280.4" y2="470.0" stroke="#fff" stroke-opacity="0.05"/><line x1="886.6" y1="220.0" x2="367.0" y2="520.0" stroke="#fff" stroke-opacity="0.05"/><line x1="973.2" y1="270.0" x2="453.6" y2="570.0" stroke="#fff" stroke-opacity="0.05"/><line x1="1059.8" y1="320.0" x2="540.2" y2="620.0" stroke="#fff" stroke-opacity="0.05"/><line x1="1146.4" y1="370.0" x2="626.8" y2="670.0" stroke="#fff" stroke-opacity="0.05"/><line x1="1233.0" y1="420.0" x2="713.4" y2="720.0" stroke="#fff" stroke-opacity="0.05"/><line x1="1319.6" y1="470.0" x2="800.0" y2="770.0" stroke="#fff" stroke-opacity="0.05"/><line x1="800.0" y1="170.0" x2="1319.6" y2="470.0" stroke="#fff" stroke-opacity="0.05"/><line x1="713.4" y1="220.0" x2="1233.0" y2="520.0" stroke="#fff" stroke-opacity="0.05"/><line x1="626.8" y1="270.0" x2="1146.4" y2="570.0" stroke="#fff" stroke-opacity="0.05"/><line x1="540.2" y1="320.0" x2="1059.8" y2="620.0" stroke="#fff" stroke-opacity="0.05"/><line x1="453.6" y1="370.0" x2="973.2" y2="670.0" stroke="#fff" stroke-opacity="0.05"/><line x1="367.0" y1="420.0" x2="886.6" y2="720.0" stroke="#fff" stroke-opacity="0.05"/><line x1="280.4" y1="470.0" x2="800.0" y2="770.0" stroke="#fff" stroke-opacity="0.05"/><ellipse cx="817.3" cy="478.0" rx="69.8" ry="39.0" fill="#000" opacity="0.30" filter="url(#soft)"/><g transform="matrix(43.3013,25.0000,0,-50.0000,769.69,432.50)"><rect width="2.6" height="4.2" rx="0.5" fill="url(#c_red)"/><rect width="2.6" height="4.2" rx="0.5" fill="url(#glass)"/><rect x="0.95" y="0.25" width="0.7" height="0.12" rx="0.06" fill="#fff" opacity="0.4"/><circle cx="1.30" cy="1.43" r="0.6" fill="#fff" opacity="0.85"/><rect x="0.40" y="2.10" width="1.8" height="0.24" rx="0.12" fill="#fff" opacity="0.5"/><rect x="0.60" y="2.60" width="1.4" height="0.5" rx="0.14" fill="#fff" opacity="0.9"/></g><ellipse cx="568.3" cy="446.8" rx="69.8" ry="39.0" fill="#000" opacity="0.30" filter="url(#soft)"/><g transform="matrix(43.3013,25.0000,-43.3013,25.0000,548.85,325.00)"><rect width="2.6" height="1.7" rx="0.3" fill="url(#c_blue)"/><rect width="2.6" height="1.7" rx="0.3" fill="url(#glass)"/><path d="M 0.7000000000000001 0.85 l 0.45 0.45 l 0.85 -1.0" fill="none" stroke="#fff" stroke-width="0.22" stroke-linecap="round" stroke-linejoin="round"/></g><ellipse cx="1062.0" cy="521.8" rx="69.8" ry="39.0" fill="#000" opacity="0.30" filter="url(#soft)"/><g transform="matrix(43.3013,25.0000,-43.3013,25.0000,1042.49,300.00)"><rect width="2.6" height="1.7" rx="0.3" fill="url(#c_violet)"/><rect width="2.6" height="1.7" rx="0.3" fill="url(#glass)"/><circle cx="0.6" cy="0.6" r="0.26" fill="#fff" opacity="0.85"/><rect x="0.38" y="1.25" width="1.40" height="0.2" rx="0.1" fill="#fff" opacity="0.50"/><rect x="0.38" y="1.69" width="0.80" height="0.2" rx="0.1" fill="#fff" opacity="0.38"/><rect x="0.38" y="2.13" width="1.10" height="0.2" rx="0.1" fill="#fff" opacity="0.26"/></g><ellipse cx="886.6" cy="658.0" rx="64.4" ry="36.0" fill="#000" opacity="0.30" filter="url(#soft)"/><g transform="matrix(43.3013,25.0000,-43.3013,25.0000,869.28,550.00)"><rect width="2.4" height="1.6" rx="0.3" fill="url(#c_cyan)"/><rect width="2.4" height="1.6" rx="0.3" fill="url(#glass)"/><path d="M 0.6 0.8 l 0.45 0.45 l 0.85 -1.0" fill="none" stroke="#fff" stroke-width="0.22" stroke-linecap="round" stroke-linejoin="round"/></g><line x1="739.4" y1="515.0" x2="568.3" y2="438.8" stroke="#22C55E" stroke-opacity="0.34" stroke-width="2.2" stroke-dasharray="1 7" stroke-linecap="round"/><line x1="739.4" y1="515.0" x2="886.6" y2="650.0" stroke="#06B6D4" stroke-opacity="0.34" stroke-width="2.2" stroke-dasharray="1 7" stroke-linecap="round"/><circle cx="568.3" cy="438.8" r="13.3" fill="#22C55E" opacity="0.28" filter="url(#soft)"/><circle cx="568.3" cy="438.8" r="7" fill="#22C55E"/><circle cx="568.3" cy="438.8" r="2.9" fill="#fff" opacity="0.9"/><circle cx="886.6" cy="650.0" r="13.3" fill="#06B6D4" opacity="0.28" filter="url(#soft)"/><circle cx="886.6" cy="650.0" r="7" fill="#06B6D4"/><circle cx="886.6" cy="650.0" r="2.9" fill="#fff" opacity="0.9"/><circle cx="1062.0" cy="513.8" r="11.4" fill="#8B5CF6" opacity="0.28" filter="url(#soft)"/><circle cx="1062.0" cy="513.8" r="6" fill="#8B5CF6"/><circle cx="1062.0" cy="513.8" r="2.5" fill="#fff" opacity="0.9"/></svg>