<svg xmlns="http://www.w3.org/2000/svg" viewBox="0 0 1600 900" width="1600" height="900"><defs>
  <linearGradient id="bg" x1="0" y1="0" x2="1" y2="1">
    <stop offset="0" stop-color="#141833"/><stop offset="0.5" stop-color="#191436"/>
    <stop offset="1" stop-color="#0D1026"/></linearGradient>
  <radialGradient id="glowB" cx="0.5" cy="0.5" r="0.5">
    <stop offset="0" stop-color="#3B82F6" stop-opacity="0.55"/><stop offset="1" stop-color="#3B82F6" stop-opacity="0"/></radialGradient>
  <radialGradient id="glowV" cx="0.5" cy="0.5" r="0.5">
    <stop offset="0" stop-color="#8B5CF6" stop-opacity="0.5"/><stop offset="1" stop-color="#8B5CF6" stop-opacity="0"/></radialGradient>
  <linearGradient id="glass" x1="0" y1="0" x2="1" y2="1">
    <stop offset="0" stop-color="#ffffff" stop-opacity="0.16"/><stop offset="1" stop-color="#ffffff" stop-opacity="0.04"/></linearGradient>
  <linearGradient id="c_blue" x1="0" y1="0" x2="1" y2="1"><stop offset="0" stop-color="#3B82F6"/><stop offset="1" stop-color="#6366F1"/></linearGradient><linearGradient id="c_violet" x1="0" y1="0" x2="1" y2="1"><stop offset="0" stop-color="#8B5CF6"/><stop offset="1" stop-color="#6D28D9"/></linearGradient><linearGradient id="c_cyan" x1="0" y1="0" x2="1" y2="1"><stop offset="0" stop-color="#06B6D4"/><stop offset="1" stop-color="#3B82F6"/></linearGradient><linearGradient id="c_emer" x1="0" y1="0" x2="1" y2="1"><stop offset="0" stop-color="#22C55E"/><stop offset="1" stop-color="#0EA5E9"/></linearGradient><linearGradient id="c_amber" x1="0" y1="0" x2="1" y2="1"><stop offset="0" stop-color="#F59E0B"/><stop offset="1" stop-color="#F97316"/></linearGradient><linearGradient id="c_orange" x1="0" y1="0" x2="1" y2="1"><stop offset="0" stop-color="#F97316"/><stop offset="1" stop-color="#EA580C"/></linearGradient><linearGradient id="c_red" x1="0" y1="0" x2="1" y2="1"><stop offset="0" stop-color="#EF4444"/><stop offset="1" stop-color="#DC2626"/></linearGradient><linearGradient id="c_teal" x1="0" y1="0" x2="1" y2="1"><stop offset="0" stop-color="#14B8A6"/><stop offset="1" stop-color="#0D9488"/></linearGradient>
  <filter id="soft" x="-40%" y="-40%" width="180%" height="180%"><feGaussianBlur stdDeviation="7"/></filter>
  <filter id="blur30" x="-60%" y="-60%" width="220%" height="220%"><feGaussianBlur stdDeviation="36"/></filter>
</defs><rect width="1600" height="900" rx="26" fill="url(#bg)"/><circle cx="330" cy="230" r="380" fill="url(#glowB)" filter="url(#blur30)"/><circle cx="1300" cy="720" r="400" fill="url(#glowV)" filter="url(#blur30)"/><circle cx="800" cy="470" r="300" fill="#F59E0B" opacity="0.14" filter="url(#blur30)"/><circle cx="663" cy="154" r="2" fill="#fff" opacity="0.05"/><circle cx="148" cy="840" r="1" fill="#fff" opacity="0.12"/><circle cx="1193" cy="59" r="1" fill="#fff" opacity="0.05"/><circle cx="176" cy="444" r="2" fill="#fff" opacity="0.05"/><circle cx="492" cy="92" r="2" fill="#fff" opacity="0.05"/><circle cx="1158" cy="126" r="1" fill="#fff" opacity="0.05"/><circle cx="1181" cy="599" r="2" fill="#fff" opacity="0.05"/><circle cx="452" cy="47" r="1" fill="#fff" opacity="0.12"/><circle cx="858" cy="147" r="1" fill="#fff" opacity="0.12"/><circle cx="1147" cy="835" r="1" fill="#fff" opacity="0.05"/><circle cx="1191" cy="584" r="1" fill="#fff" opacity="0.12"/><circle cx="199" cy="560" r="1" fill="#fff" opacity="0.05"/><circle cx="1267" cy="210" r="2" fill="#fff" opacity="0.16"/><circle cx="1591" cy="321" r="2" fill="#fff" opacity="0.16"/><circle cx="740" cy="306" r="1" fill="#fff" opacity="0.08"/><circle cx="1431" cy="798" r="1" fill="#fff" opacity="0.05"/><circle cx="1176" cy="307" r="2" fill="#fff" opacity="0.12"/><circle cx="1493" cy="459" r="1.5" fill="#fff" opacity="0.05"/><circle cx="241" cy="524" r="2" fill="#fff" opacity="0.08"/><circle cx="1550" cy="350" r="1" fill="#fff" opacity="0.16"/><circle cx="863" cy="40" r="1" fill="#fff" opacity="0.12"/><circle cx="696" cy="711" r="1.5" fill="#fff" opacity="0.16"/><circle cx="1187" cy="816" r="2" fill="#fff" opacity="0.05"/><circle cx="191" cy="276" r="2" fill="#fff" opacity="0.05"/><circle cx="124" cy="748" r="1.5" fill="#fff" opacity="0.16"/><circle cx="582" cy="733" r="2" fill="#fff" opacity="0.12"/><circle cx="46" cy="472" r="1.5" fill="#fff" opacity="0.08"/><circle cx="1251" cy="119" r="2" fill="#fff" opacity="0.05"/><circle cx="446" cy="786" r="1.5" fill="#fff" opacity="0.08"/><circle cx="1512" cy="253" r="2" fill="#fff" opacity="0.16"/><circle cx="1016" cy="82" r="1" fill="#fff" opacity="0.16"/><circle cx="822" cy="562" r="1.5" fill="#fff" opacity="0.08"/><circle cx="881" cy="884" r="1.5" fill="#fff" opacity="0.16"/><circle cx="734" cy="699" r="2" fill="#fff" opacity="0.08"/><circle cx="309" cy="84" r="1" fill="#fff" opacity="0.08"/><circle cx="475" cy="674" r="1" fill="#fff" opacity="0.05"/><circle cx="993" cy="851" r="1" fill="#fff" opacity="0.12"/><circle cx="577" cy="4" r="1" fill="#fff" opacity="0.16"/><circle cx="1094" cy="378" r="1.5" fill="#fff" opacity="0.08"/><circle cx="1414" cy="879" r="1" fill="#fff" opacity="0.16"/><circle cx="1597" cy="895" r="2" fill="#fff" opacity="0.16"/><circle cx="817" cy="403" r="1" fill="#fff" opacity="0.16"/><circle cx="1299" cy="410" r="1" fill="#fff" opacity="0.08"/><circle cx="137" cy="213" r="2" fill="#fff" opacity="0.08"/><circle cx="225" cy="348" r="1" fill="#fff" opacity="0.05"/><circle cx="0" cy="580" r="1" fill="#fff" opacity="0.05"/><circle cx="744" cy="628" r="1" fill="#fff" opacity="0.05"/><circle cx="425" cy="628" r="2" fill="#fff" opacity="0.08"/><circle cx="1299" cy="258" r="1.5" fill="#fff" opacity="0.12"/><circle cx="971" cy="125" r="1" fill="#fff" opacity="0.16"/><circle cx="954" cy="491" r="2" fill="#fff" opacity="0.12"/><circle cx="175" cy="147" r="1" fill="#fff" opacity="0.12"/><circle cx="1516" cy="271" r="2" fill="#fff" opacity="0.08"/><circle cx="1057" cy="23" r="1" fill="#fff" opacity="0.12"/><circle cx="300" cy="706" r="1" fill="#fff" opacity="0.12"/><circle cx="1316" cy="884" r="1" fill="#fff" opacity="0.12"/><circle cx="1061" cy="375" r="1" fill="#fff" opacity="0.12"/><circle cx="1580" cy="228" r="1.5" fill="#fff" opacity="0.08"/><circle cx="1255" cy="830" r="1" fill="#fff" opacity="0.08"/><circle cx="820" cy="757" r="1" fill="#fff" opacity="0.08"/><circle cx="1060" cy="504" r="1.5" fill="#fff" opacity="0.05"/><circle cx="57" cy="809" r="1.5" fill="#fff" opacity="0.16"/><circle cx="530" cy="198" r="1.5" fill="#fff" opacity="0.16"/><circle cx="1480" cy="357" r="1.5" fill="#fff" opacity="0.05"/><circle cx="451" cy="104" r="1" fill="#fff" opacity="0.16"/><circle cx="402" cy="345" r="1" fill="#fff" opacity="0.16"/><circle cx="1278" cy="624" r="1" fill="#fff" opacity="0.16"/><circle cx="1337" cy="352" r="1" fill="#fff" opacity="0.05"/><circle cx="795" cy="801" r="1" fill="#fff" opacity="0.16"/><circle cx="365" cy="444" r="1.5" fill="#fff" opacity="0.05"/><circle cx="1478" cy="405" r="2" fill="#fff" opacity="0.16"/><circle cx="1522" cy="86" r="1" fill="#fff" opacity="0.08"/><circle cx="260" cy="28" r="1" fill="#fff" opacity="0.16"/><circle cx="1343" cy="149" r="2" fill="#fff" opacity="0.12"/><circle cx="319" cy="561" r="1" fill="#fff" opacity="0.05"/><circle cx="29" cy="818" r="1" fill="#fff" opacity="0.08"/><circle cx="888" cy="892" r="1" fill="#fff" opacity="0.08"/><circle cx="57" cy="257" r="1" fill="#fff" opacity="0.12"/><circle cx="1026" cy="246" r="1.5" fill="#fff" opacity="0.12"/><circle cx="1114" cy="429" r="1" fill="#fff" opacity="0.05"/><polygon points="800.0,170.0 1319.6,470.0 800.0,770.0 280.4,470.0" fill="#F59E0B" opacity="0.06"/><polygon points="800.0,170.0 1319.6,470.0 800.0,770.0 280.4,470.0" fill="none" stroke="#F59E0B" stroke-opacity="0.18" stroke-width="1.5"/><line x1="800.0" y1="170.0" x2="280.4" y2="470.0" stroke="#fff" stroke-opacity="0.05"/><line x1="886.6" y1="220.0" x2="367.0" y2="520.0" stroke="#fff" stroke-opacity="0.05"/><line x1="973.2" y1="270.0" x2="453.6" y2="570.0" stroke="#fff" stroke-opacity="0.05"/><line x1="1059.8" y1="320.0" x2="540.2" y2="620.0" stroke="#fff" stroke-opacity="0.05"/><line x1="1146.4" y1="370.0" x2="626.8" y2="670.0" stroke="#fff" stroke-opacity="0.05"/><line x1="1233.0" y1="420.0" x2="713.4" y2="720.0" stroke="#fff" stroke-opacity="0.05"/><line x1="1319.6" y1="470.0" x2="800.0" y2="770.0" stroke="#fff" stroke-opacity="0.05"/><line x1="800.0" y1="170.0" x2="1319.6" y2="470.0" stroke="#fff" stroke-opacity="0.05"/><line x1="713.4" y1="220.0" x2="1233.0" y2="520.0" stroke="#fff" stroke-opacity="0.05"/><line x1="626.8" y1="270.0" x2="1146.4" y2="570.0" stroke="#fff" stroke-opacity="0.05"/><line x1="540.2" y1="320.0" x2="1059.8" y2="620.0" stroke="#fff" stroke-opacity="0.05"/><line x1="453.6" y1="370.0" x2="973.2" y2="670.0" stroke="#fff" stroke-opacity="0.05"/><line x1="367.0" y1="420.0" x2="886.6" y2="720.0" stroke="#fff" stroke-opacity="0.05"/><line x1="280.4" y1="470.0" x2="800.0" y2="770.0" stroke="#fff" stroke-opacity="0.05"/><ellipse cx="752.4" cy="431.5" rx="82.3" ry="26.6" fill="#000" opacity="0.25" filter="url(#soft)"/><g transform="matrix(43.3013,25.0000,0,-50.0000,752.37,427.50)"><rect width="3.8" height="2.9" rx="0.3" fill="url(#c_amber)"/><rect width="3.8" height="2.9" rx="0.3" fill="url(#glass)"/><rect x="0.3" y="0.3" width="3.1999999999999997" height="0.45" rx="0.16" fill="#fff" opacity="0.18"/><circle cx="1.60" cy="1.30" r="0.64" fill="none" stroke="#fff" stroke-opacity="0.9" stroke-width="0.2"/><line x1="2.06" y1="1.77" x2="2.51" y2="2.03" stroke="#fff" stroke-opacity="0.9" stroke-width="0.22" stroke-linecap="round"/></g><ellipse cx="648.4" cy="378.0" rx="56.4" ry="31.5" fill="#000" opacity="0.30" filter="url(#soft)"/><g transform="matrix(43.3013,25.0000,-43.3013,25.0000,635.46,275.00)"><rect width="2.1" height="1.5" rx="0.3" fill="url(#c_violet)"/><rect width="2.1" height="1.5" rx="0.3" fill="url(#glass)"/><circle cx="0.6" cy="0.6" r="0.26" fill="#fff" opacity="0.85"/><rect x="0.38" y="1.25" width="0.90" height="0.2" rx="0.1" fill="#fff" opacity="0.50"/><rect x="0.38" y="1.69" width="0.60" height="0.2" rx="0.1" fill="#fff" opacity="0.38"/><rect x="0.38" y="2.13" width="0.60" height="0.2" rx="0.1" fill="#fff" opacity="0.26"/></g><ellipse cx="553.2" cy="433.0" rx="56.4" ry="31.5" fill="#000" opacity="0.30" filter="url(#soft)"/><g transform="matrix(43.3013,25.0000,-43.3013,25.0000,540.19,310.00)"><rect width="2.1" height="1.5" rx="0.3" fill="url(#c_cyan)"/><rect width="2.1" height="1.5" rx="0.3" fill="url(#glass)"/><circle cx="0.6" cy="0.6" r="0.26" fill="#fff" opacity="0.85"/><rect x="0.38" y="1.25" width="0.90" height="0.2" rx="0.1" fill="#fff" opacity="0.50"/><rect x="0.38" y="1.69" width="0.60" height="0.2" rx="0.1" fill="#fff" opacity="0.38"/><rect x="0.38" y="2.13" width="0.60" height="0.2" rx="0.1" fill="#fff" opacity="0.26"/></g><ellipse cx="579.2" cy="528.0" rx="56.4" ry="31.5" fill="#000" opacity="0.30" filter="url(#soft)"/><g transform="matrix(43.3013,25.0000,-43.3013,25.0000,566.17,385.00)"><rect width="2.1" height="1.5" rx="0.3" fill="url(#c_emer)"/><rect width="2.1" height="1.5" rx="0.3" fill="url(#glass)"/><circle cx="0.6" cy="0.6" r="0.26" fill="#fff" opacity="0.85"/><rect x="0.38" y="1.25" width="0.90" height="0.2" rx="0.1" fill="#fff" opacity="0.50"/><rect x="0.38" y="1.69" width="0.60" height="0.2" rx="0.1" fill="#fff" opacity="0.38"/><rect x="0.38" y="2.13" width="0.60" height="0.2" rx="0.1" fill="#fff" opacity="0.26"/></g><ellipse cx="1077.1" cy="515.5" rx="56.4" ry="31.5" fill="#000" opacity="0.30" filter="url(#soft)"/><g transform="matrix(43.3013,25.0000,-43.3013,25.0000,1064.14,412.50)"><rect width="2.1" height="1.5" rx="0.3" fill="url(#c_blue)"/><rect width="2.1" height="1.5" rx="0.3" fill="url(#glass)"/><circle cx="0.6" cy="0.6" r="0.26" fill="#fff" opacity="0.85"/><rect x="0.38" y="1.25" width="0.90" height="0.2" rx="0.1" fill="#fff" opacity="0.50"/><rect x="0.38" y="1.69" width="0.60" height="0.2" rx="0.1" fill="#fff" opacity="0.38"/><rect x="0.38" y="2.13" width="0.60" height="0.2" rx="0.1" fill="#fff" opacity="0.26"/></g><ellipse cx="1038.2" cy="623.0" rx="56.4" ry="31.5" fill="#000" opacity="0.30" filter="url(#soft)"/><g transform="matrix(43.3013,25.0000,-43.3013,25.0000,1025.17,500.00)"><rect width="2.1" height="1.5" rx="0.3" fill="url(#c_orange)"/><rect width="2.1" height="1.5" rx="0.3" fill="url(#glass)"/><circle cx="0.6" cy="0.6" r="0.26" fill="#fff" opacity="0.85"/><rect x="0.38" y="1.25" width="0.90" height="0.2" rx="0.1" fill="#fff" opacity="0.50"/><rect x="0.38" y="1.69" width="0.60" height="0.2" rx="0.1" fill="#fff" opacity="0.38"/><rect x="0.38" y="2.13" width="0.60" height="0.2" rx="0.1" fill="#fff" opacity="0.26"/></g><ellipse cx="847.6" cy="663.0" rx="56.4" ry="31.5" fill="#000" opacity="0.30" filter="url(#soft)"/><g transform="matrix(43.3013,25.0000,-43.3013,25.0000,834.64,520.00)"><rect width="2.1" height="1.5" rx="0.3" fill="url(#c_cyan)"/><rect width="2.1" height="1.5" rx="0.3" fill="url(#glass)"/><circle cx="0.6" cy="0.6" r="0.26" fill="#fff" opacity="0.85"/><rect x="0.38" y="1.25" width="0.90" height="0.2" rx="0.1" fill="#fff" opacity="0.50"/><rect x="0.38" y="1.69" width="0.60" height="0.2" rx="0.1" fill="#fff" opacity="0.38"/><rect x="0.38" y="2.13" width="0.60" height="0.2" rx="0.1" fill="#fff" opacity="0.26"/></g><line x1="774.0" y1="510.0" x2="646.3" y2="368.8" stroke="#8B5CF6" stroke-opacity="0.24" stroke-width="2.2" stroke-dasharray="1 7" stroke-linecap="round"/><line x1="774.0" y1="510.0" x2="551.0" y2="423.8" stroke="#06B6D4" stroke-opacity="0.24" stroke-width="2.2" stroke-dasharray="1 7" stroke-linecap="round"/><line x1="774.0" y1="510.0" x2="577.0" y2="518.8" stroke="#22C55E" stroke-opacity="0.24" stroke-width="2.2" stroke-dasharray="1 7" stroke-linecap="round"/><line x1="774.0" y1="510.0" x2="1075.0" y2="506.2" stroke="#3B82F6" stroke-opacity="0.24" stroke-width="2.2" stroke-dasharray="1 7" stroke-linecap="round"/><line x1="774.0" y1="510.0" x2="1036.0" y2="613.8" stroke="#F97316" stroke-opacity="0.24" stroke-width="2.2" stroke-dasharray="1 7" stroke-linecap="round"/><line x1="774.0" y1="510.0" x2="845.5" y2="653.8" stroke="#06B6D4" stroke-opacity="0.24" stroke-width="2.2" stroke-dasharray="1 7" stroke-linecap="round"/><circle cx="646.3" cy="368.8" r="9.5" fill="#8B5CF6" opacity="0.28" filter="url(#soft)"/><circle cx="646.3" cy="368.8" r="5" fill="#8B5CF6"/><circle cx="646.3" cy="368.8" r="2.1" fill="#fff" opacity="0.9"/><circle cx="551.0" cy="423.8" r="9.5" fill="#06B6D4" opacity="0.28" filter="url(#soft)"/><circle cx="551.0" cy="423.8" r="5" fill="#06B6D4"/><circle cx="551.0" cy="423.8" r="2.1" fill="#fff" opacity="0.9"/><circle cx="577.0" cy="518.8" r="9.5" fill="#22C55E" opacity="0.28" filter="url(#soft)"/><circle cx="577.0" cy="518.8" r="5" fill="#22C55E"/><circle cx="577.0" cy="518.8" r="2.1" fill="#fff" opacity="0.9"/><circle cx="1075.0" cy="506.2" r="9.5" fill="#3B82F6" opacity="0.28" filter="url(#soft)"/><circle cx="1075.0" cy="506.2" r="5" fill="#3B82F6"/><circle cx="1075.0" cy="506.2" r="2.1" fill="#fff" opacity="0.9"/><circle cx="1036.0" cy="613.8" r="9.5" fill="#F97316" opacity="0.28" filter="url(#soft)"/><circle cx="1036.0" cy="613.8" r="5" fill="#F97316"/><circle cx="1036.0" cy="613.8" r="2.1" fill="#fff" opacity="0.9"/><circle cx="845.5" cy="653.8" r="9.5" fill="#06B6D4" opacity="0.28" filter="url(#soft)"/><circle cx="845.5" cy="653.8" r="5" fill="#06B6D4"/><circle cx="845.5" cy="653.8" r="2.1" fill="#fff" opacity="0.9"/></svg>